%MOIN*%
%OFA0B0*%
%FSLAX46Y46*%
%IPPOS*%
%LPD*%
%ADD10C,0.005905511811023622*%
%ADD11R,0.062992125984251982X0.03937007874015748*%
%ADD12O,0.07874015748031496X0.07874015748031496*%
%ADD13R,0.07874015748031496X0.07874015748031496*%
%ADD14R,0.08X0.08*%
%ADD15O,0.08X0.08*%
%ADD26C,0.005905511811023622*%
%ADD27R,0.062992125984251982X0.03937007874015748*%
%ADD28O,0.07874015748031496X0.07874015748031496*%
%ADD29R,0.07874015748031496X0.07874015748031496*%
%ADD30R,0.08X0.08*%
%ADD31O,0.08X0.08*%
%ADD42C,0.005905511811023622*%
%ADD43R,0.03937007874015748X0.062992125984251982*%
%ADD44O,0.07874015748031496X0.07874015748031496*%
%ADD45R,0.07874015748031496X0.07874015748031496*%
%ADD46R,0.08X0.08*%
%ADD47O,0.08X0.08*%
%LPD*%
G01G01*
D10*
X0003459786Y0001295556D02*
X0003432789Y0001295556D01*
X0003446287Y0001295556D02*
X0003446287Y0001342800D01*
X0003441788Y0001336051D01*
X0003437289Y0001331552D01*
X0003432789Y0001329302D01*
X0003489032Y0001342800D02*
X0003493532Y0001342800D01*
X0003498031Y0001340551D01*
X0003500281Y0001338301D01*
X0003502530Y0001333802D01*
X0003504780Y0001324803D01*
X0003504780Y0001313554D01*
X0003502530Y0001304555D01*
X0003500281Y0001300056D01*
X0003498031Y0001297806D01*
X0003493532Y0001295556D01*
X0003489032Y0001295556D01*
X0003484533Y0001297806D01*
X0003482283Y0001300056D01*
X0003480033Y0001304555D01*
X0003477784Y0001313554D01*
X0003477784Y0001324803D01*
X0003480033Y0001333802D01*
X0003482283Y0001338301D01*
X0003484533Y0001340551D01*
X0003489032Y0001342800D01*
X0003534026Y0001342800D02*
X0003538526Y0001342800D01*
X0003543025Y0001340551D01*
X0003545275Y0001338301D01*
X0003547525Y0001333802D01*
X0003549775Y0001324803D01*
X0003549775Y0001313554D01*
X0003547525Y0001304555D01*
X0003545275Y0001300056D01*
X0003543025Y0001297806D01*
X0003538526Y0001295556D01*
X0003534026Y0001295556D01*
X0003529527Y0001297806D01*
X0003527277Y0001300056D01*
X0003525028Y0001304555D01*
X0003522778Y0001313554D01*
X0003522778Y0001324803D01*
X0003525028Y0001333802D01*
X0003527277Y0001338301D01*
X0003529527Y0001340551D01*
X0003534026Y0001342800D01*
X0003567772Y0001338301D02*
X0003570022Y0001340551D01*
X0003574521Y0001342800D01*
X0003585770Y0001342800D01*
X0003590269Y0001340551D01*
X0003592519Y0001338301D01*
X0003594769Y0001333802D01*
X0003594769Y0001329302D01*
X0003592519Y0001322553D01*
X0003565523Y0001295556D01*
X0003594769Y0001295556D01*
X0003054274Y0001295556D02*
X0003027277Y0001295556D01*
X0003040776Y0001295556D02*
X0003040776Y0001342800D01*
X0003036276Y0001336051D01*
X0003031777Y0001331552D01*
X0003027277Y0001329302D01*
X0003083520Y0001342800D02*
X0003088020Y0001342800D01*
X0003092519Y0001340551D01*
X0003094769Y0001338301D01*
X0003097019Y0001333802D01*
X0003099268Y0001324803D01*
X0003099268Y0001313554D01*
X0003097019Y0001304555D01*
X0003094769Y0001300056D01*
X0003092519Y0001297806D01*
X0003088020Y0001295556D01*
X0003083520Y0001295556D01*
X0003079021Y0001297806D01*
X0003076771Y0001300056D01*
X0003074521Y0001304555D01*
X0003072272Y0001313554D01*
X0003072272Y0001324803D01*
X0003074521Y0001333802D01*
X0003076771Y0001338301D01*
X0003079021Y0001340551D01*
X0003083520Y0001342800D01*
X0003128515Y0001342800D02*
X0003133014Y0001342800D01*
X0003137514Y0001340551D01*
X0003139763Y0001338301D01*
X0003142013Y0001333802D01*
X0003144263Y0001324803D01*
X0003144263Y0001313554D01*
X0003142013Y0001304555D01*
X0003139763Y0001300056D01*
X0003137514Y0001297806D01*
X0003133014Y0001295556D01*
X0003128515Y0001295556D01*
X0003124015Y0001297806D01*
X0003121766Y0001300056D01*
X0003119516Y0001304555D01*
X0003117266Y0001313554D01*
X0003117266Y0001324803D01*
X0003119516Y0001333802D01*
X0003121766Y0001338301D01*
X0003124015Y0001340551D01*
X0003128515Y0001342800D01*
X0003189257Y0001295556D02*
X0003162260Y0001295556D01*
X0003175759Y0001295556D02*
X0003175759Y0001342800D01*
X0003171259Y0001336051D01*
X0003166760Y0001331552D01*
X0003162260Y0001329302D01*
X0002648762Y0001291619D02*
X0002621765Y0001291619D01*
X0002635264Y0001291619D02*
X0002635264Y0001338863D01*
X0002630764Y0001332114D01*
X0002626265Y0001327615D01*
X0002621765Y0001325365D01*
X0002678008Y0001338863D02*
X0002682508Y0001338863D01*
X0002687007Y0001336614D01*
X0002689257Y0001334364D01*
X0002691507Y0001329865D01*
X0002693756Y0001320866D01*
X0002693756Y0001309617D01*
X0002691507Y0001300618D01*
X0002689257Y0001296119D01*
X0002687007Y0001293869D01*
X0002682508Y0001291619D01*
X0002678008Y0001291619D01*
X0002673509Y0001293869D01*
X0002671259Y0001296119D01*
X0002669010Y0001300618D01*
X0002666760Y0001309617D01*
X0002666760Y0001320866D01*
X0002669010Y0001329865D01*
X0002671259Y0001334364D01*
X0002673509Y0001336614D01*
X0002678008Y0001338863D01*
X0002723003Y0001338863D02*
X0002727502Y0001338863D01*
X0002732002Y0001336614D01*
X0002734251Y0001334364D01*
X0002736501Y0001329865D01*
X0002738751Y0001320866D01*
X0002738751Y0001309617D01*
X0002736501Y0001300618D01*
X0002734251Y0001296119D01*
X0002732002Y0001293869D01*
X0002727502Y0001291619D01*
X0002723003Y0001291619D01*
X0002718503Y0001293869D01*
X0002716254Y0001296119D01*
X0002714004Y0001300618D01*
X0002711754Y0001309617D01*
X0002711754Y0001320866D01*
X0002714004Y0001329865D01*
X0002716254Y0001334364D01*
X0002718503Y0001336614D01*
X0002723003Y0001338863D01*
X0002767997Y0001338863D02*
X0002772497Y0001338863D01*
X0002776996Y0001336614D01*
X0002779246Y0001334364D01*
X0002781496Y0001329865D01*
X0002783745Y0001320866D01*
X0002783745Y0001309617D01*
X0002781496Y0001300618D01*
X0002779246Y0001296119D01*
X0002776996Y0001293869D01*
X0002772497Y0001291619D01*
X0002767997Y0001291619D01*
X0002763498Y0001293869D01*
X0002761248Y0001296119D01*
X0002758998Y0001300618D01*
X0002756749Y0001309617D01*
X0002756749Y0001320866D01*
X0002758998Y0001329865D01*
X0002761248Y0001334364D01*
X0002763498Y0001336614D01*
X0002767997Y0001338863D01*
X0002242125Y0001291619D02*
X0002215129Y0001291619D01*
X0002228627Y0001291619D02*
X0002228627Y0001338863D01*
X0002224128Y0001332114D01*
X0002219628Y0001327615D01*
X0002215129Y0001325365D01*
X0002271372Y0001338863D02*
X0002275871Y0001338863D01*
X0002280371Y0001336614D01*
X0002282620Y0001334364D01*
X0002284870Y0001329865D01*
X0002287120Y0001320866D01*
X0002287120Y0001309617D01*
X0002284870Y0001300618D01*
X0002282620Y0001296119D01*
X0002280371Y0001293869D01*
X0002275871Y0001291619D01*
X0002271372Y0001291619D01*
X0002266872Y0001293869D01*
X0002264623Y0001296119D01*
X0002262373Y0001300618D01*
X0002260123Y0001309617D01*
X0002260123Y0001320866D01*
X0002262373Y0001329865D01*
X0002264623Y0001334364D01*
X0002266872Y0001336614D01*
X0002271372Y0001338863D01*
X0002334364Y0001291619D02*
X0002318616Y0001314117D01*
X0002307367Y0001291619D02*
X0002307367Y0001338863D01*
X0002325365Y0001338863D01*
X0002329865Y0001336614D01*
X0002332114Y0001334364D01*
X0002334364Y0001329865D01*
X0002334364Y0001323115D01*
X0002332114Y0001318616D01*
X0002329865Y0001316366D01*
X0002325365Y0001314117D01*
X0002307367Y0001314117D01*
X0002363610Y0001338863D02*
X0002368110Y0001338863D01*
X0002372609Y0001336614D01*
X0002374859Y0001334364D01*
X0002377109Y0001329865D01*
X0002379358Y0001320866D01*
X0002379358Y0001309617D01*
X0002377109Y0001300618D01*
X0002374859Y0001296119D01*
X0002372609Y0001293869D01*
X0002368110Y0001291619D01*
X0002363610Y0001291619D01*
X0002359111Y0001293869D01*
X0002356861Y0001296119D01*
X0002354611Y0001300618D01*
X0002352362Y0001309617D01*
X0002352362Y0001320866D01*
X0002354611Y0001329865D01*
X0002356861Y0001334364D01*
X0002359111Y0001336614D01*
X0002363610Y0001338863D01*
X0002618737Y0002027217D02*
X0002618737Y0002098083D01*
X0002689604Y0002027217D02*
X0002689604Y0002098083D01*
X0002284289Y0001427217D02*
X0002284289Y0001498083D01*
X0002213422Y0001427217D02*
X0002213422Y0001498083D01*
X0003519367Y0001727217D02*
X0003519367Y0001798083D01*
X0003590234Y0001727217D02*
X0003590234Y0001798083D01*
X0003500234Y0001627217D02*
X0003500234Y0001698083D01*
X0003429367Y0001627217D02*
X0003429367Y0001698083D01*
X0003590234Y0001527217D02*
X0003590234Y0001598083D01*
X0003519367Y0001527217D02*
X0003519367Y0001598083D01*
X0003429367Y0001427217D02*
X0003429367Y0001498083D01*
X0003500234Y0001427217D02*
X0003500234Y0001498083D01*
X0003519367Y0002127217D02*
X0003519367Y0002198083D01*
X0003590234Y0002127217D02*
X0003590234Y0002198083D01*
X0003500234Y0002027217D02*
X0003500234Y0002098083D01*
X0003429367Y0002027217D02*
X0003429367Y0002098083D01*
X0003590234Y0001927217D02*
X0003590234Y0001998083D01*
X0003519367Y0001927217D02*
X0003519367Y0001998083D01*
X0003429367Y0001827217D02*
X0003429367Y0001898083D01*
X0003500234Y0001827217D02*
X0003500234Y0001898083D01*
X0003429367Y0002227217D02*
X0003429367Y0002298083D01*
X0003500234Y0002227217D02*
X0003500234Y0002298083D01*
X0003184919Y0001727217D02*
X0003184919Y0001798083D01*
X0003114052Y0001727217D02*
X0003114052Y0001798083D01*
X0003024052Y0001627217D02*
X0003024052Y0001698083D01*
X0003094919Y0001627217D02*
X0003094919Y0001698083D01*
X0003114052Y0001527217D02*
X0003114052Y0001598083D01*
X0003184919Y0001527217D02*
X0003184919Y0001598083D01*
X0003094919Y0001427217D02*
X0003094919Y0001498083D01*
X0003024052Y0001427217D02*
X0003024052Y0001498083D01*
X0003184919Y0002127217D02*
X0003184919Y0002198083D01*
X0003114052Y0002127217D02*
X0003114052Y0002198083D01*
X0003024052Y0002027217D02*
X0003024052Y0002098083D01*
X0003094919Y0002027217D02*
X0003094919Y0002098083D01*
X0003114052Y0001927217D02*
X0003114052Y0001998083D01*
X0003184919Y0001927217D02*
X0003184919Y0001998083D01*
X0003094919Y0001827217D02*
X0003094919Y0001898083D01*
X0003024052Y0001827217D02*
X0003024052Y0001898083D01*
X0003094919Y0002227217D02*
X0003094919Y0002298083D01*
X0003024052Y0002227217D02*
X0003024052Y0002298083D01*
X0002779604Y0001727217D02*
X0002779604Y0001798083D01*
X0002708737Y0001727217D02*
X0002708737Y0001798083D01*
X0002618737Y0001627217D02*
X0002618737Y0001698083D01*
X0002689604Y0001627217D02*
X0002689604Y0001698083D01*
X0002708737Y0001527217D02*
X0002708737Y0001598083D01*
X0002779604Y0001527217D02*
X0002779604Y0001598083D01*
X0002689604Y0001427217D02*
X0002689604Y0001498083D01*
X0002618737Y0001427217D02*
X0002618737Y0001498083D01*
X0002779604Y0002127217D02*
X0002779604Y0002198083D01*
X0002708737Y0002127217D02*
X0002708737Y0002198083D01*
X0002708737Y0001927217D02*
X0002708737Y0001998083D01*
X0002779604Y0001927217D02*
X0002779604Y0001998083D01*
X0002689604Y0001827217D02*
X0002689604Y0001898083D01*
X0002618737Y0001827217D02*
X0002618737Y0001898083D01*
X0002689604Y0002227217D02*
X0002689604Y0002298083D01*
X0002618737Y0002227217D02*
X0002618737Y0002298083D01*
X0002374289Y0002127217D02*
X0002374289Y0002198083D01*
X0002303422Y0002127217D02*
X0002303422Y0002198083D01*
X0002303422Y0001927217D02*
X0002303422Y0001998083D01*
X0002374289Y0001927217D02*
X0002374289Y0001998083D01*
X0002374289Y0001727217D02*
X0002374289Y0001798083D01*
X0002303422Y0001727217D02*
X0002303422Y0001798083D01*
X0002303422Y0001527217D02*
X0002303422Y0001598083D01*
X0002374289Y0001527217D02*
X0002374289Y0001598083D01*
X0002284289Y0002227217D02*
X0002284289Y0002298083D01*
X0002213422Y0002227217D02*
X0002213422Y0002298083D01*
X0002213422Y0002027217D02*
X0002213422Y0002098083D01*
X0002284289Y0002027217D02*
X0002284289Y0002098083D01*
X0002284289Y0001827217D02*
X0002284289Y0001898083D01*
X0002213422Y0001827217D02*
X0002213422Y0001898083D01*
X0002213422Y0001627217D02*
X0002213422Y0001698083D01*
X0002284289Y0001627217D02*
X0002284289Y0001698083D01*
X0003935433Y0001984645D02*
X0003835433Y0001984645D01*
X0003935433Y0001884645D02*
X0003935433Y0001984645D01*
X0003946456Y0001773622D02*
X0003824409Y0001773622D01*
X0003946456Y0001834645D02*
X0003946456Y0001773622D01*
X0003835433Y0001884645D02*
X0003935433Y0001884645D01*
X0003824409Y0001773622D02*
X0003824409Y0001834645D01*
X0003835433Y0001884645D02*
X0003835433Y0001984645D01*
%LPC*%
D11*
X0002654171Y0002129579D03*
X0002654171Y0001995721D03*
X0002248856Y0001395721D03*
X0002248856Y0001529579D03*
D12*
X0003268856Y0001411705D03*
X0003368856Y0001411705D03*
X0003268856Y0001511705D03*
X0003368856Y0001511705D03*
X0003268856Y0001611705D03*
X0003368856Y0001611705D03*
X0003268856Y0001711705D03*
X0003368856Y0001711705D03*
X0003268856Y0001811705D03*
X0003368856Y0001811705D03*
X0003268856Y0001911705D03*
X0003368856Y0001911705D03*
X0003268856Y0002011705D03*
X0003368856Y0002011705D03*
X0003268856Y0002111705D03*
X0003368856Y0002111705D03*
X0003268856Y0002211705D03*
X0003368856Y0002211705D03*
X0003268856Y0002311705D03*
D13*
X0003368856Y0002311705D03*
D11*
X0003554800Y0001829579D03*
X0003554800Y0001695721D03*
X0003464800Y0001595721D03*
X0003464800Y0001729579D03*
X0003554800Y0001495721D03*
X0003554800Y0001629579D03*
X0003464800Y0001529579D03*
X0003464800Y0001395721D03*
X0003554800Y0002229579D03*
X0003554800Y0002095721D03*
X0003464800Y0001995721D03*
X0003464800Y0002129579D03*
X0003554800Y0001895721D03*
X0003554800Y0002029579D03*
X0003464800Y0001929579D03*
X0003464800Y0001795721D03*
X0003464800Y0002329579D03*
X0003464800Y0002195721D03*
D13*
X0002963541Y0002311705D03*
D12*
X0002863541Y0002311705D03*
X0002963541Y0002211705D03*
X0002863541Y0002211705D03*
X0002963541Y0002111705D03*
X0002863541Y0002111705D03*
X0002963541Y0002011705D03*
X0002863541Y0002011705D03*
X0002963541Y0001911705D03*
X0002863541Y0001911705D03*
X0002963541Y0001811705D03*
X0002863541Y0001811705D03*
X0002963541Y0001711705D03*
X0002863541Y0001711705D03*
X0002963541Y0001611705D03*
X0002863541Y0001611705D03*
X0002963541Y0001511705D03*
X0002863541Y0001511705D03*
X0002963541Y0001411705D03*
X0002863541Y0001411705D03*
D11*
X0003149485Y0001695721D03*
X0003149485Y0001829579D03*
X0003059485Y0001729579D03*
X0003059485Y0001595721D03*
X0003149485Y0001629579D03*
X0003149485Y0001495721D03*
X0003059485Y0001395721D03*
X0003059485Y0001529579D03*
X0003149485Y0002095721D03*
X0003149485Y0002229579D03*
X0003059485Y0002129579D03*
X0003059485Y0001995721D03*
X0003149485Y0002029579D03*
X0003149485Y0001895721D03*
X0003059485Y0001795721D03*
X0003059485Y0001929579D03*
X0003059485Y0002195721D03*
X0003059485Y0002329579D03*
D13*
X0002558226Y0002311705D03*
D12*
X0002458226Y0002311705D03*
X0002558226Y0002211705D03*
X0002458226Y0002211705D03*
X0002558226Y0002111705D03*
X0002458226Y0002111705D03*
X0002558226Y0002011705D03*
X0002458226Y0002011705D03*
X0002558226Y0001911705D03*
X0002458226Y0001911705D03*
X0002558226Y0001811705D03*
X0002458226Y0001811705D03*
X0002558226Y0001711705D03*
X0002458226Y0001711705D03*
X0002558226Y0001611705D03*
X0002458226Y0001611705D03*
X0002558226Y0001511705D03*
X0002458226Y0001511705D03*
X0002558226Y0001411705D03*
X0002458226Y0001411705D03*
D11*
X0002744171Y0001695721D03*
X0002744171Y0001829579D03*
X0002654171Y0001729579D03*
X0002654171Y0001595721D03*
X0002744171Y0001629579D03*
X0002744171Y0001495721D03*
X0002654171Y0001395721D03*
X0002654171Y0001529579D03*
X0002744171Y0002095721D03*
X0002744171Y0002229579D03*
X0002744171Y0002029579D03*
X0002744171Y0001895721D03*
X0002654171Y0001795721D03*
X0002654171Y0001929579D03*
X0002654171Y0002195721D03*
X0002654171Y0002329579D03*
X0002338856Y0002095721D03*
X0002338856Y0002229579D03*
X0002338856Y0002029579D03*
X0002338856Y0001895721D03*
X0002338856Y0001695721D03*
X0002338856Y0001829579D03*
X0002338856Y0001629579D03*
X0002338856Y0001495721D03*
X0002248856Y0002195721D03*
X0002248856Y0002329579D03*
X0002248856Y0002129579D03*
X0002248856Y0001995721D03*
X0002248856Y0001795721D03*
X0002248856Y0001929579D03*
X0002248856Y0001729579D03*
X0002248856Y0001595721D03*
D13*
X0002152911Y0002311705D03*
D12*
X0002052911Y0002311705D03*
X0002152911Y0002211705D03*
X0002052911Y0002211705D03*
X0002152911Y0002111705D03*
X0002052911Y0002111705D03*
X0002152911Y0002011705D03*
X0002052911Y0002011705D03*
X0002152911Y0001911705D03*
X0002052911Y0001911705D03*
X0002152911Y0001811705D03*
X0002052911Y0001811705D03*
X0002152911Y0001711705D03*
X0002052911Y0001711705D03*
X0002152911Y0001611705D03*
X0002052911Y0001611705D03*
X0002152911Y0001511705D03*
X0002052911Y0001511705D03*
X0002152911Y0001411705D03*
X0002052911Y0001411705D03*
D14*
X0003641732Y0001835039D03*
D15*
X0003641732Y0001935039D03*
X0003770866Y0001934645D03*
D14*
X0003770866Y0001834645D03*
X0003885433Y0001834645D03*
D15*
X0003885433Y0001934645D03*
G04 next file*
%LPD*%
G01G01G01G01*
D26*
X0003459786Y0002712879D02*
X0003432789Y0002712879D01*
X0003446286Y0002712879D02*
X0003446286Y0002760123D01*
X0003441787Y0002753374D01*
X0003437289Y0002748875D01*
X0003432789Y0002746625D01*
X0003489032Y0002760123D02*
X0003493532Y0002760123D01*
X0003498031Y0002757874D01*
X0003500281Y0002755624D01*
X0003502530Y0002751124D01*
X0003504779Y0002742126D01*
X0003504779Y0002730877D01*
X0003502530Y0002721878D01*
X0003500281Y0002717379D01*
X0003498031Y0002715129D01*
X0003493532Y0002712879D01*
X0003489032Y0002712879D01*
X0003484532Y0002715129D01*
X0003482283Y0002717379D01*
X0003480033Y0002721878D01*
X0003477784Y0002730877D01*
X0003477784Y0002742126D01*
X0003480033Y0002751124D01*
X0003482283Y0002755624D01*
X0003484532Y0002757874D01*
X0003489032Y0002760123D01*
X0003534026Y0002760123D02*
X0003538526Y0002760123D01*
X0003543025Y0002757874D01*
X0003545274Y0002755624D01*
X0003547525Y0002751124D01*
X0003549775Y0002742126D01*
X0003549775Y0002730877D01*
X0003547525Y0002721878D01*
X0003545274Y0002717379D01*
X0003543025Y0002715129D01*
X0003538526Y0002712879D01*
X0003534026Y0002712879D01*
X0003529527Y0002715129D01*
X0003527277Y0002717379D01*
X0003525028Y0002721878D01*
X0003522778Y0002730877D01*
X0003522778Y0002742126D01*
X0003525028Y0002751124D01*
X0003527277Y0002755624D01*
X0003529527Y0002757874D01*
X0003534026Y0002760123D01*
X0003567772Y0002755624D02*
X0003570022Y0002757874D01*
X0003574521Y0002760123D01*
X0003585770Y0002760123D01*
X0003590269Y0002757874D01*
X0003592519Y0002755624D01*
X0003594769Y0002751124D01*
X0003594769Y0002746625D01*
X0003592519Y0002739876D01*
X0003565523Y0002712879D01*
X0003594769Y0002712879D01*
X0003054274Y0002712879D02*
X0003027277Y0002712879D01*
X0003040776Y0002712879D02*
X0003040776Y0002760123D01*
X0003036276Y0002753374D01*
X0003031777Y0002748875D01*
X0003027277Y0002746625D01*
X0003083520Y0002760123D02*
X0003088020Y0002760123D01*
X0003092519Y0002757874D01*
X0003094768Y0002755624D01*
X0003097019Y0002751124D01*
X0003099267Y0002742126D01*
X0003099267Y0002730877D01*
X0003097019Y0002721878D01*
X0003094768Y0002717379D01*
X0003092519Y0002715129D01*
X0003088020Y0002712879D01*
X0003083520Y0002712879D01*
X0003079020Y0002715129D01*
X0003076771Y0002717379D01*
X0003074521Y0002721878D01*
X0003072272Y0002730877D01*
X0003072272Y0002742126D01*
X0003074521Y0002751124D01*
X0003076771Y0002755624D01*
X0003079020Y0002757874D01*
X0003083520Y0002760123D01*
X0003128515Y0002760123D02*
X0003133014Y0002760123D01*
X0003137513Y0002757874D01*
X0003139763Y0002755624D01*
X0003142013Y0002751124D01*
X0003144263Y0002742126D01*
X0003144263Y0002730877D01*
X0003142013Y0002721878D01*
X0003139763Y0002717379D01*
X0003137513Y0002715129D01*
X0003133014Y0002712879D01*
X0003128515Y0002712879D01*
X0003124015Y0002715129D01*
X0003121765Y0002717379D01*
X0003119516Y0002721878D01*
X0003117266Y0002730877D01*
X0003117266Y0002742126D01*
X0003119516Y0002751124D01*
X0003121765Y0002755624D01*
X0003124015Y0002757874D01*
X0003128515Y0002760123D01*
X0003189257Y0002712879D02*
X0003162260Y0002712879D01*
X0003175759Y0002712879D02*
X0003175759Y0002760123D01*
X0003171259Y0002753374D01*
X0003166760Y0002748875D01*
X0003162260Y0002746625D01*
X0002648762Y0002708942D02*
X0002621765Y0002708942D01*
X0002635264Y0002708942D02*
X0002635264Y0002756186D01*
X0002630764Y0002749437D01*
X0002626265Y0002744938D01*
X0002621765Y0002742688D01*
X0002678007Y0002756186D02*
X0002682508Y0002756186D01*
X0002687007Y0002753937D01*
X0002689256Y0002751687D01*
X0002691507Y0002747187D01*
X0002693755Y0002738189D01*
X0002693755Y0002726940D01*
X0002691507Y0002717940D01*
X0002689256Y0002713442D01*
X0002687007Y0002711192D01*
X0002682508Y0002708942D01*
X0002678007Y0002708942D01*
X0002673508Y0002711192D01*
X0002671259Y0002713442D01*
X0002669010Y0002717940D01*
X0002666760Y0002726940D01*
X0002666760Y0002738189D01*
X0002669010Y0002747187D01*
X0002671259Y0002751687D01*
X0002673508Y0002753937D01*
X0002678007Y0002756186D01*
X0002723003Y0002756186D02*
X0002727502Y0002756186D01*
X0002732001Y0002753937D01*
X0002734251Y0002751687D01*
X0002736501Y0002747187D01*
X0002738751Y0002738189D01*
X0002738751Y0002726940D01*
X0002736501Y0002717940D01*
X0002734251Y0002713442D01*
X0002732001Y0002711192D01*
X0002727502Y0002708942D01*
X0002723003Y0002708942D01*
X0002718503Y0002711192D01*
X0002716253Y0002713442D01*
X0002714004Y0002717940D01*
X0002711754Y0002726940D01*
X0002711754Y0002738189D01*
X0002714004Y0002747187D01*
X0002716253Y0002751687D01*
X0002718503Y0002753937D01*
X0002723003Y0002756186D01*
X0002767996Y0002756186D02*
X0002772497Y0002756186D01*
X0002776996Y0002753937D01*
X0002779246Y0002751687D01*
X0002781496Y0002747187D01*
X0002783745Y0002738189D01*
X0002783745Y0002726940D01*
X0002781496Y0002717940D01*
X0002779246Y0002713442D01*
X0002776996Y0002711192D01*
X0002772497Y0002708942D01*
X0002767996Y0002708942D01*
X0002763498Y0002711192D01*
X0002761248Y0002713442D01*
X0002758998Y0002717940D01*
X0002756749Y0002726940D01*
X0002756749Y0002738189D01*
X0002758998Y0002747187D01*
X0002761248Y0002751687D01*
X0002763498Y0002753937D01*
X0002767996Y0002756186D01*
X0002242125Y0002708942D02*
X0002215129Y0002708942D01*
X0002228627Y0002708942D02*
X0002228627Y0002756186D01*
X0002224128Y0002749437D01*
X0002219628Y0002744938D01*
X0002215129Y0002742688D01*
X0002271372Y0002756186D02*
X0002275871Y0002756186D01*
X0002280371Y0002753937D01*
X0002282620Y0002751687D01*
X0002284870Y0002747187D01*
X0002287120Y0002738189D01*
X0002287120Y0002726940D01*
X0002284870Y0002717940D01*
X0002282620Y0002713442D01*
X0002280371Y0002711192D01*
X0002275871Y0002708942D01*
X0002271372Y0002708942D01*
X0002266872Y0002711192D01*
X0002264623Y0002713442D01*
X0002262373Y0002717940D01*
X0002260123Y0002726940D01*
X0002260123Y0002738189D01*
X0002262373Y0002747187D01*
X0002264623Y0002751687D01*
X0002266872Y0002753937D01*
X0002271372Y0002756186D01*
X0002334364Y0002708942D02*
X0002318616Y0002731439D01*
X0002307367Y0002708942D02*
X0002307367Y0002756186D01*
X0002325365Y0002756186D01*
X0002329865Y0002753937D01*
X0002332114Y0002751687D01*
X0002334364Y0002747187D01*
X0002334364Y0002740438D01*
X0002332114Y0002735939D01*
X0002329865Y0002733689D01*
X0002325365Y0002731439D01*
X0002307367Y0002731439D01*
X0002363610Y0002756186D02*
X0002368110Y0002756186D01*
X0002372609Y0002753937D01*
X0002374859Y0002751687D01*
X0002377109Y0002747187D01*
X0002379358Y0002738189D01*
X0002379358Y0002726940D01*
X0002377109Y0002717940D01*
X0002374859Y0002713442D01*
X0002372609Y0002711192D01*
X0002368110Y0002708942D01*
X0002363610Y0002708942D01*
X0002359111Y0002711192D01*
X0002356861Y0002713442D01*
X0002354611Y0002717940D01*
X0002352362Y0002726940D01*
X0002352362Y0002738189D01*
X0002354611Y0002747187D01*
X0002356861Y0002751687D01*
X0002359111Y0002753937D01*
X0002363610Y0002756186D01*
X0002618737Y0003444540D02*
X0002618737Y0003515406D01*
X0002689604Y0003444540D02*
X0002689604Y0003515406D01*
X0002284289Y0002844540D02*
X0002284289Y0002915406D01*
X0002213422Y0002844540D02*
X0002213422Y0002915406D01*
X0003519367Y0003144540D02*
X0003519367Y0003215406D01*
X0003590234Y0003144540D02*
X0003590234Y0003215406D01*
X0003500234Y0003044540D02*
X0003500234Y0003115406D01*
X0003429366Y0003044540D02*
X0003429366Y0003115406D01*
X0003590234Y0002944540D02*
X0003590234Y0003015406D01*
X0003519367Y0002944540D02*
X0003519367Y0003015406D01*
X0003429366Y0002844540D02*
X0003429366Y0002915406D01*
X0003500234Y0002844540D02*
X0003500234Y0002915406D01*
X0003519367Y0003544539D02*
X0003519367Y0003615406D01*
X0003590234Y0003544539D02*
X0003590234Y0003615406D01*
X0003500234Y0003444540D02*
X0003500234Y0003515406D01*
X0003429366Y0003444540D02*
X0003429366Y0003515406D01*
X0003590234Y0003344540D02*
X0003590234Y0003415406D01*
X0003519367Y0003344540D02*
X0003519367Y0003415406D01*
X0003429366Y0003244540D02*
X0003429366Y0003315406D01*
X0003500234Y0003244540D02*
X0003500234Y0003315406D01*
X0003429366Y0003644540D02*
X0003429366Y0003715405D01*
X0003500234Y0003644540D02*
X0003500234Y0003715405D01*
X0003184919Y0003144540D02*
X0003184919Y0003215406D01*
X0003114052Y0003144540D02*
X0003114052Y0003215406D01*
X0003024052Y0003044540D02*
X0003024052Y0003115406D01*
X0003094919Y0003044540D02*
X0003094919Y0003115406D01*
X0003114052Y0002944540D02*
X0003114052Y0003015406D01*
X0003184919Y0002944540D02*
X0003184919Y0003015406D01*
X0003094919Y0002844540D02*
X0003094919Y0002915406D01*
X0003024052Y0002844540D02*
X0003024052Y0002915406D01*
X0003184919Y0003544539D02*
X0003184919Y0003615406D01*
X0003114052Y0003544539D02*
X0003114052Y0003615406D01*
X0003024052Y0003444540D02*
X0003024052Y0003515406D01*
X0003094919Y0003444540D02*
X0003094919Y0003515406D01*
X0003114052Y0003344540D02*
X0003114052Y0003415406D01*
X0003184919Y0003344540D02*
X0003184919Y0003415406D01*
X0003094919Y0003244540D02*
X0003094919Y0003315406D01*
X0003024052Y0003244540D02*
X0003024052Y0003315406D01*
X0003094919Y0003644540D02*
X0003094919Y0003715405D01*
X0003024052Y0003644540D02*
X0003024052Y0003715405D01*
X0002779603Y0003144540D02*
X0002779603Y0003215406D01*
X0002708737Y0003144540D02*
X0002708737Y0003215406D01*
X0002618737Y0003044540D02*
X0002618737Y0003115406D01*
X0002689604Y0003044540D02*
X0002689604Y0003115406D01*
X0002708737Y0002944540D02*
X0002708737Y0003015406D01*
X0002779603Y0002944540D02*
X0002779603Y0003015406D01*
X0002689604Y0002844540D02*
X0002689604Y0002915406D01*
X0002618737Y0002844540D02*
X0002618737Y0002915406D01*
X0002779603Y0003544539D02*
X0002779603Y0003615406D01*
X0002708737Y0003544539D02*
X0002708737Y0003615406D01*
X0002708737Y0003344540D02*
X0002708737Y0003415406D01*
X0002779603Y0003344540D02*
X0002779603Y0003415406D01*
X0002689604Y0003244540D02*
X0002689604Y0003315406D01*
X0002618737Y0003244540D02*
X0002618737Y0003315406D01*
X0002689604Y0003644540D02*
X0002689604Y0003715405D01*
X0002618737Y0003644540D02*
X0002618737Y0003715405D01*
X0002374289Y0003544539D02*
X0002374289Y0003615406D01*
X0002303422Y0003544539D02*
X0002303422Y0003615406D01*
X0002303422Y0003344540D02*
X0002303422Y0003415406D01*
X0002374289Y0003344540D02*
X0002374289Y0003415406D01*
X0002374289Y0003144540D02*
X0002374289Y0003215406D01*
X0002303422Y0003144540D02*
X0002303422Y0003215406D01*
X0002303422Y0002944540D02*
X0002303422Y0003015406D01*
X0002374289Y0002944540D02*
X0002374289Y0003015406D01*
X0002284289Y0003644540D02*
X0002284289Y0003715405D01*
X0002213422Y0003644540D02*
X0002213422Y0003715405D01*
X0002213422Y0003444540D02*
X0002213422Y0003515406D01*
X0002284289Y0003444540D02*
X0002284289Y0003515406D01*
X0002284289Y0003244540D02*
X0002284289Y0003315406D01*
X0002213422Y0003244540D02*
X0002213422Y0003315406D01*
X0002213422Y0003044540D02*
X0002213422Y0003115406D01*
X0002284289Y0003044540D02*
X0002284289Y0003115406D01*
X0003935433Y0003401968D02*
X0003835433Y0003401968D01*
X0003935433Y0003301968D02*
X0003935433Y0003401968D01*
X0003946456Y0003190944D02*
X0003824409Y0003190944D01*
X0003946456Y0003251968D02*
X0003946456Y0003190944D01*
X0003835433Y0003301968D02*
X0003935433Y0003301968D01*
X0003824409Y0003190944D02*
X0003824409Y0003251968D01*
X0003835433Y0003301968D02*
X0003835433Y0003401968D01*
%LPC*%
D27*
X0002654171Y0003546902D03*
X0002654171Y0003413044D03*
X0002248856Y0002813044D03*
X0002248856Y0002946901D03*
D28*
X0003268856Y0002829028D03*
X0003368856Y0002829028D03*
X0003268856Y0002929028D03*
X0003368856Y0002929028D03*
X0003268856Y0003029028D03*
X0003368856Y0003029028D03*
X0003268856Y0003129028D03*
X0003368856Y0003129028D03*
X0003268856Y0003229028D03*
X0003368856Y0003229028D03*
X0003268856Y0003329028D03*
X0003368856Y0003329028D03*
X0003268856Y0003429027D03*
X0003368856Y0003429027D03*
X0003268856Y0003529027D03*
X0003368856Y0003529027D03*
X0003268856Y0003629028D03*
X0003368856Y0003629028D03*
X0003268856Y0003729028D03*
D29*
X0003368856Y0003729028D03*
D27*
X0003554800Y0003246902D03*
X0003554800Y0003113044D03*
X0003464800Y0003013044D03*
X0003464800Y0003146902D03*
X0003554800Y0002913044D03*
X0003554800Y0003046902D03*
X0003464800Y0002946901D03*
X0003464800Y0002813044D03*
X0003554800Y0003646902D03*
X0003554800Y0003513044D03*
X0003464800Y0003413044D03*
X0003464800Y0003546902D03*
X0003554800Y0003313044D03*
X0003554800Y0003446902D03*
X0003464800Y0003346901D03*
X0003464800Y0003213044D03*
X0003464800Y0003746902D03*
X0003464800Y0003613044D03*
D29*
X0002963541Y0003729028D03*
D28*
X0002863540Y0003729028D03*
X0002963541Y0003629028D03*
X0002863540Y0003629028D03*
X0002963541Y0003529027D03*
X0002863540Y0003529027D03*
X0002963541Y0003429027D03*
X0002863540Y0003429027D03*
X0002963541Y0003329028D03*
X0002863540Y0003329028D03*
X0002963541Y0003229028D03*
X0002863540Y0003229028D03*
X0002963541Y0003129028D03*
X0002863540Y0003129028D03*
X0002963541Y0003029028D03*
X0002863540Y0003029028D03*
X0002963541Y0002929028D03*
X0002863540Y0002929028D03*
X0002963541Y0002829028D03*
X0002863540Y0002829028D03*
D27*
X0003149485Y0003113044D03*
X0003149485Y0003246902D03*
X0003059484Y0003146902D03*
X0003059484Y0003013044D03*
X0003149485Y0003046902D03*
X0003149485Y0002913044D03*
X0003059484Y0002813044D03*
X0003059484Y0002946901D03*
X0003149485Y0003513044D03*
X0003149485Y0003646902D03*
X0003059484Y0003546902D03*
X0003059484Y0003413044D03*
X0003149485Y0003446902D03*
X0003149485Y0003313044D03*
X0003059484Y0003213044D03*
X0003059484Y0003346901D03*
X0003059484Y0003613044D03*
X0003059484Y0003746902D03*
D29*
X0002558226Y0003729028D03*
D28*
X0002458226Y0003729028D03*
X0002558226Y0003629028D03*
X0002458226Y0003629028D03*
X0002558226Y0003529027D03*
X0002458226Y0003529027D03*
X0002558226Y0003429027D03*
X0002458226Y0003429027D03*
X0002558226Y0003329028D03*
X0002458226Y0003329028D03*
X0002558226Y0003229028D03*
X0002458226Y0003229028D03*
X0002558226Y0003129028D03*
X0002458226Y0003129028D03*
X0002558226Y0003029028D03*
X0002458226Y0003029028D03*
X0002558226Y0002929028D03*
X0002458226Y0002929028D03*
X0002558226Y0002829028D03*
X0002458226Y0002829028D03*
D27*
X0002744171Y0003113044D03*
X0002744171Y0003246902D03*
X0002654171Y0003146902D03*
X0002654171Y0003013044D03*
X0002744171Y0003046902D03*
X0002744171Y0002913044D03*
X0002654171Y0002813044D03*
X0002654171Y0002946901D03*
X0002744171Y0003513044D03*
X0002744171Y0003646902D03*
X0002744171Y0003446902D03*
X0002744171Y0003313044D03*
X0002654171Y0003213044D03*
X0002654171Y0003346901D03*
X0002654171Y0003613044D03*
X0002654171Y0003746902D03*
X0002338856Y0003513044D03*
X0002338856Y0003646902D03*
X0002338856Y0003446902D03*
X0002338856Y0003313044D03*
X0002338856Y0003113044D03*
X0002338856Y0003246902D03*
X0002338856Y0003046902D03*
X0002338856Y0002913044D03*
X0002248856Y0003613044D03*
X0002248856Y0003746902D03*
X0002248856Y0003546902D03*
X0002248856Y0003413044D03*
X0002248856Y0003213044D03*
X0002248856Y0003346901D03*
X0002248856Y0003146902D03*
X0002248856Y0003013044D03*
D29*
X0002152911Y0003729028D03*
D28*
X0002052911Y0003729028D03*
X0002152911Y0003629028D03*
X0002052911Y0003629028D03*
X0002152911Y0003529027D03*
X0002052911Y0003529027D03*
X0002152911Y0003429027D03*
X0002052911Y0003429027D03*
X0002152911Y0003329028D03*
X0002052911Y0003329028D03*
X0002152911Y0003229028D03*
X0002052911Y0003229028D03*
X0002152911Y0003129028D03*
X0002052911Y0003129028D03*
X0002152911Y0003029028D03*
X0002052911Y0003029028D03*
X0002152911Y0002929028D03*
X0002052911Y0002929028D03*
X0002152911Y0002829028D03*
X0002052911Y0002829028D03*
D30*
X0003641732Y0003252362D03*
D31*
X0003641732Y0003352362D03*
X0003770866Y0003351968D03*
D30*
X0003770866Y0003251968D03*
X0003885433Y0003251968D03*
D31*
X0003885433Y0003351968D03*
G04 next file*
G04 #@! TF.FileFunction,Legend,Top*
G04 Gerber Fmt 4.6, Leading zero omitted, Abs format (unit mm)*
G04 Created by KiCad (PCBNEW (2016-10-28 revision 192d4b8)-makepkg) date 11/16/16 20:27:21*
%LPD*%
G01G01G01G01*
G04 APERTURE LIST*
G04 APERTURE END LIST*
D42*
X0001775309Y0003459786D02*
X0001775309Y0003432789D01*
X0001775309Y0003446286D02*
X0001728064Y0003446286D01*
X0001734814Y0003441787D01*
X0001739313Y0003437289D01*
X0001741563Y0003432789D01*
X0001728064Y0003489032D02*
X0001728064Y0003493532D01*
X0001730314Y0003498031D01*
X0001732564Y0003500281D01*
X0001737064Y0003502530D01*
X0001746062Y0003504779D01*
X0001757311Y0003504779D01*
X0001766310Y0003502530D01*
X0001770808Y0003500281D01*
X0001773059Y0003498031D01*
X0001775309Y0003493532D01*
X0001775309Y0003489032D01*
X0001773059Y0003484532D01*
X0001770808Y0003482283D01*
X0001766310Y0003480033D01*
X0001757311Y0003477784D01*
X0001746062Y0003477784D01*
X0001737064Y0003480033D01*
X0001732564Y0003482283D01*
X0001730314Y0003484532D01*
X0001728064Y0003489032D01*
X0001728064Y0003534026D02*
X0001728064Y0003538526D01*
X0001730314Y0003543025D01*
X0001732564Y0003545274D01*
X0001737064Y0003547525D01*
X0001746062Y0003549775D01*
X0001757311Y0003549775D01*
X0001766310Y0003547525D01*
X0001770808Y0003545274D01*
X0001773059Y0003543025D01*
X0001775309Y0003538526D01*
X0001775309Y0003534026D01*
X0001773059Y0003529527D01*
X0001770808Y0003527277D01*
X0001766310Y0003525028D01*
X0001757311Y0003522778D01*
X0001746062Y0003522778D01*
X0001737064Y0003525028D01*
X0001732564Y0003527277D01*
X0001730314Y0003529527D01*
X0001728064Y0003534026D01*
X0001732564Y0003567772D02*
X0001730314Y0003570022D01*
X0001728064Y0003574521D01*
X0001728064Y0003585770D01*
X0001730314Y0003590269D01*
X0001732564Y0003592519D01*
X0001737064Y0003594769D01*
X0001741563Y0003594769D01*
X0001748312Y0003592519D01*
X0001775309Y0003565523D01*
X0001775309Y0003594769D01*
X0001775309Y0003054274D02*
X0001775309Y0003027277D01*
X0001775309Y0003040776D02*
X0001728064Y0003040776D01*
X0001734814Y0003036276D01*
X0001739313Y0003031777D01*
X0001741563Y0003027277D01*
X0001728064Y0003083520D02*
X0001728064Y0003088020D01*
X0001730314Y0003092519D01*
X0001732564Y0003094768D01*
X0001737064Y0003097019D01*
X0001746062Y0003099267D01*
X0001757311Y0003099267D01*
X0001766310Y0003097019D01*
X0001770808Y0003094768D01*
X0001773059Y0003092519D01*
X0001775309Y0003088020D01*
X0001775309Y0003083520D01*
X0001773059Y0003079020D01*
X0001770808Y0003076771D01*
X0001766310Y0003074521D01*
X0001757311Y0003072272D01*
X0001746062Y0003072272D01*
X0001737064Y0003074521D01*
X0001732564Y0003076771D01*
X0001730314Y0003079020D01*
X0001728064Y0003083520D01*
X0001728064Y0003128515D02*
X0001728064Y0003133014D01*
X0001730314Y0003137513D01*
X0001732564Y0003139763D01*
X0001737064Y0003142013D01*
X0001746062Y0003144263D01*
X0001757311Y0003144263D01*
X0001766310Y0003142013D01*
X0001770808Y0003139763D01*
X0001773059Y0003137513D01*
X0001775309Y0003133014D01*
X0001775309Y0003128515D01*
X0001773059Y0003124015D01*
X0001770808Y0003121765D01*
X0001766310Y0003119516D01*
X0001757311Y0003117266D01*
X0001746062Y0003117266D01*
X0001737064Y0003119516D01*
X0001732564Y0003121765D01*
X0001730314Y0003124015D01*
X0001728064Y0003128515D01*
X0001775309Y0003189257D02*
X0001775309Y0003162260D01*
X0001775309Y0003175759D02*
X0001728064Y0003175759D01*
X0001734814Y0003171259D01*
X0001739313Y0003166760D01*
X0001741563Y0003162260D01*
X0001779246Y0002648762D02*
X0001779246Y0002621765D01*
X0001779246Y0002635264D02*
X0001732002Y0002635264D01*
X0001738751Y0002630764D01*
X0001743250Y0002626265D01*
X0001745499Y0002621765D01*
X0001732002Y0002678007D02*
X0001732002Y0002682508D01*
X0001734250Y0002687007D01*
X0001736501Y0002689256D01*
X0001741001Y0002691507D01*
X0001749999Y0002693755D01*
X0001761248Y0002693755D01*
X0001770247Y0002691507D01*
X0001774746Y0002689256D01*
X0001776996Y0002687007D01*
X0001779246Y0002682508D01*
X0001779246Y0002678007D01*
X0001776996Y0002673508D01*
X0001774746Y0002671259D01*
X0001770247Y0002669010D01*
X0001761248Y0002666760D01*
X0001749999Y0002666760D01*
X0001741001Y0002669010D01*
X0001736501Y0002671259D01*
X0001734250Y0002673508D01*
X0001732002Y0002678007D01*
X0001732002Y0002723003D02*
X0001732002Y0002727502D01*
X0001734250Y0002732001D01*
X0001736501Y0002734251D01*
X0001741001Y0002736501D01*
X0001749999Y0002738751D01*
X0001761248Y0002738751D01*
X0001770247Y0002736501D01*
X0001774746Y0002734251D01*
X0001776996Y0002732001D01*
X0001779246Y0002727502D01*
X0001779246Y0002723003D01*
X0001776996Y0002718503D01*
X0001774746Y0002716253D01*
X0001770247Y0002714004D01*
X0001761248Y0002711754D01*
X0001749999Y0002711754D01*
X0001741001Y0002714004D01*
X0001736501Y0002716253D01*
X0001734250Y0002718503D01*
X0001732002Y0002723003D01*
X0001732002Y0002767996D02*
X0001732002Y0002772497D01*
X0001734250Y0002776996D01*
X0001736501Y0002779246D01*
X0001741001Y0002781496D01*
X0001749999Y0002783745D01*
X0001761248Y0002783745D01*
X0001770247Y0002781496D01*
X0001774746Y0002779246D01*
X0001776996Y0002776996D01*
X0001779246Y0002772497D01*
X0001779246Y0002767996D01*
X0001776996Y0002763498D01*
X0001774746Y0002761248D01*
X0001770247Y0002758998D01*
X0001761248Y0002756749D01*
X0001749999Y0002756749D01*
X0001741001Y0002758998D01*
X0001736501Y0002761248D01*
X0001734250Y0002763498D01*
X0001732002Y0002767996D01*
X0001779246Y0002242125D02*
X0001779246Y0002215129D01*
X0001779246Y0002228627D02*
X0001732002Y0002228627D01*
X0001738751Y0002224128D01*
X0001743250Y0002219628D01*
X0001745499Y0002215129D01*
X0001732002Y0002271372D02*
X0001732002Y0002275871D01*
X0001734250Y0002280371D01*
X0001736501Y0002282620D01*
X0001741001Y0002284870D01*
X0001749999Y0002287120D01*
X0001761248Y0002287120D01*
X0001770247Y0002284870D01*
X0001774746Y0002282620D01*
X0001776996Y0002280371D01*
X0001779246Y0002275871D01*
X0001779246Y0002271372D01*
X0001776996Y0002266872D01*
X0001774746Y0002264623D01*
X0001770247Y0002262373D01*
X0001761248Y0002260123D01*
X0001749999Y0002260123D01*
X0001741001Y0002262373D01*
X0001736501Y0002264623D01*
X0001734250Y0002266872D01*
X0001732002Y0002271372D01*
X0001779246Y0002334364D02*
X0001756749Y0002318616D01*
X0001779246Y0002307367D02*
X0001732002Y0002307367D01*
X0001732002Y0002325365D01*
X0001734250Y0002329865D01*
X0001736501Y0002332114D01*
X0001741001Y0002334364D01*
X0001747750Y0002334364D01*
X0001752249Y0002332114D01*
X0001754499Y0002329865D01*
X0001756749Y0002325365D01*
X0001756749Y0002307367D01*
X0001732002Y0002363610D02*
X0001732002Y0002368110D01*
X0001734250Y0002372609D01*
X0001736501Y0002374859D01*
X0001741001Y0002377109D01*
X0001749999Y0002379358D01*
X0001761248Y0002379358D01*
X0001770247Y0002377109D01*
X0001774746Y0002374859D01*
X0001776996Y0002372609D01*
X0001779246Y0002368110D01*
X0001779246Y0002363610D01*
X0001776996Y0002359111D01*
X0001774746Y0002356861D01*
X0001770247Y0002354611D01*
X0001761248Y0002352362D01*
X0001749999Y0002352362D01*
X0001741001Y0002354611D01*
X0001736501Y0002356861D01*
X0001734250Y0002359111D01*
X0001732002Y0002363610D01*
X0001043647Y0002618737D02*
X0000972782Y0002618737D01*
X0001043647Y0002689604D02*
X0000972782Y0002689604D01*
X0001643648Y0002284289D02*
X0001572782Y0002284289D01*
X0001643648Y0002213422D02*
X0001572782Y0002213422D01*
X0001343648Y0003519367D02*
X0001272782Y0003519367D01*
X0001343648Y0003590234D02*
X0001272782Y0003590234D01*
X0001443648Y0003500234D02*
X0001372782Y0003500234D01*
X0001443648Y0003429366D02*
X0001372782Y0003429366D01*
X0001543647Y0003590234D02*
X0001472782Y0003590234D01*
X0001543647Y0003519367D02*
X0001472782Y0003519367D01*
X0001643648Y0003429366D02*
X0001572782Y0003429366D01*
X0001643648Y0003500234D02*
X0001572782Y0003500234D01*
X0000943648Y0003519367D02*
X0000872782Y0003519367D01*
X0000943648Y0003590234D02*
X0000872782Y0003590234D01*
X0001043647Y0003500234D02*
X0000972782Y0003500234D01*
X0001043647Y0003429366D02*
X0000972782Y0003429366D01*
X0001143648Y0003590234D02*
X0001072782Y0003590234D01*
X0001143648Y0003519367D02*
X0001072782Y0003519367D01*
X0001243648Y0003429366D02*
X0001172782Y0003429366D01*
X0001243648Y0003500234D02*
X0001172782Y0003500234D01*
X0000843648Y0003429366D02*
X0000772782Y0003429366D01*
X0000843648Y0003500234D02*
X0000772782Y0003500234D01*
X0001343648Y0003184919D02*
X0001272782Y0003184919D01*
X0001343648Y0003114052D02*
X0001272782Y0003114052D01*
X0001443648Y0003024052D02*
X0001372782Y0003024052D01*
X0001443648Y0003094919D02*
X0001372782Y0003094919D01*
X0001543647Y0003114052D02*
X0001472782Y0003114052D01*
X0001543647Y0003184919D02*
X0001472782Y0003184919D01*
X0001643648Y0003094919D02*
X0001572782Y0003094919D01*
X0001643648Y0003024052D02*
X0001572782Y0003024052D01*
X0000943648Y0003184919D02*
X0000872782Y0003184919D01*
X0000943648Y0003114052D02*
X0000872782Y0003114052D01*
X0001043647Y0003024052D02*
X0000972782Y0003024052D01*
X0001043647Y0003094919D02*
X0000972782Y0003094919D01*
X0001143648Y0003114052D02*
X0001072782Y0003114052D01*
X0001143648Y0003184919D02*
X0001072782Y0003184919D01*
X0001243648Y0003094919D02*
X0001172782Y0003094919D01*
X0001243648Y0003024052D02*
X0001172782Y0003024052D01*
X0000843648Y0003094919D02*
X0000772782Y0003094919D01*
X0000843648Y0003024052D02*
X0000772782Y0003024052D01*
X0001343648Y0002779603D02*
X0001272782Y0002779603D01*
X0001343648Y0002708737D02*
X0001272782Y0002708737D01*
X0001443648Y0002618737D02*
X0001372782Y0002618737D01*
X0001443648Y0002689604D02*
X0001372782Y0002689604D01*
X0001543647Y0002708737D02*
X0001472782Y0002708737D01*
X0001543647Y0002779603D02*
X0001472782Y0002779603D01*
X0001643648Y0002689604D02*
X0001572782Y0002689604D01*
X0001643648Y0002618737D02*
X0001572782Y0002618737D01*
X0000943648Y0002779603D02*
X0000872782Y0002779603D01*
X0000943648Y0002708737D02*
X0000872782Y0002708737D01*
X0001143648Y0002708737D02*
X0001072782Y0002708737D01*
X0001143648Y0002779603D02*
X0001072782Y0002779603D01*
X0001243648Y0002689604D02*
X0001172782Y0002689604D01*
X0001243648Y0002618737D02*
X0001172782Y0002618737D01*
X0000843648Y0002689604D02*
X0000772782Y0002689604D01*
X0000843648Y0002618737D02*
X0000772782Y0002618737D01*
X0000943648Y0002374289D02*
X0000872782Y0002374289D01*
X0000943648Y0002303422D02*
X0000872782Y0002303422D01*
X0001143648Y0002303422D02*
X0001072782Y0002303422D01*
X0001143648Y0002374289D02*
X0001072782Y0002374289D01*
X0001343648Y0002374289D02*
X0001272782Y0002374289D01*
X0001343648Y0002303422D02*
X0001272782Y0002303422D01*
X0001543647Y0002303422D02*
X0001472782Y0002303422D01*
X0001543647Y0002374289D02*
X0001472782Y0002374289D01*
X0000843648Y0002284289D02*
X0000772782Y0002284289D01*
X0000843648Y0002213422D02*
X0000772782Y0002213422D01*
X0001043647Y0002213422D02*
X0000972782Y0002213422D01*
X0001043647Y0002284289D02*
X0000972782Y0002284289D01*
X0001243648Y0002284289D02*
X0001172782Y0002284289D01*
X0001243648Y0002213422D02*
X0001172782Y0002213422D01*
X0001443648Y0002213422D02*
X0001372782Y0002213422D01*
X0001443648Y0002284289D02*
X0001372782Y0002284289D01*
X0001086220Y0003935433D02*
X0001086220Y0003835433D01*
X0001186220Y0003935433D02*
X0001086220Y0003935433D01*
X0001297244Y0003946456D02*
X0001297244Y0003824409D01*
X0001236220Y0003946456D02*
X0001297244Y0003946456D01*
X0001186220Y0003835433D02*
X0001186220Y0003935433D01*
X0001297244Y0003824409D02*
X0001236220Y0003824409D01*
X0001186220Y0003835433D02*
X0001086220Y0003835433D01*
%LPC*%
D43*
X0000941286Y0002654171D03*
X0001075144Y0002654171D03*
X0001675144Y0002248856D03*
X0001541286Y0002248856D03*
D44*
X0001659160Y0003268856D03*
X0001659160Y0003368856D03*
X0001559159Y0003268856D03*
X0001559159Y0003368856D03*
X0001459160Y0003268856D03*
X0001459160Y0003368856D03*
X0001359160Y0003268856D03*
X0001359160Y0003368856D03*
X0001259160Y0003268856D03*
X0001259160Y0003368856D03*
X0001159160Y0003268856D03*
X0001159160Y0003368856D03*
X0001059160Y0003268856D03*
X0001059160Y0003368856D03*
X0000959160Y0003268856D03*
X0000959160Y0003368856D03*
X0000859160Y0003268856D03*
X0000859160Y0003368856D03*
X0000759160Y0003268856D03*
D45*
X0000759160Y0003368856D03*
D43*
X0001241286Y0003554800D03*
X0001375144Y0003554800D03*
X0001475144Y0003464800D03*
X0001341286Y0003464800D03*
X0001575144Y0003554800D03*
X0001441286Y0003554800D03*
X0001541286Y0003464800D03*
X0001675144Y0003464800D03*
X0000841285Y0003554800D03*
X0000975143Y0003554800D03*
X0001075144Y0003464800D03*
X0000941286Y0003464800D03*
X0001175144Y0003554800D03*
X0001041285Y0003554800D03*
X0001141286Y0003464800D03*
X0001275144Y0003464800D03*
X0000741285Y0003464800D03*
X0000875144Y0003464800D03*
D45*
X0000759160Y0002963541D03*
D44*
X0000759160Y0002863540D03*
X0000859160Y0002963541D03*
X0000859160Y0002863540D03*
X0000959160Y0002963541D03*
X0000959160Y0002863540D03*
X0001059160Y0002963541D03*
X0001059160Y0002863540D03*
X0001159160Y0002963541D03*
X0001159160Y0002863540D03*
X0001259160Y0002963541D03*
X0001259160Y0002863540D03*
X0001359160Y0002963541D03*
X0001359160Y0002863540D03*
X0001459160Y0002963541D03*
X0001459160Y0002863540D03*
X0001559159Y0002963541D03*
X0001559159Y0002863540D03*
X0001659160Y0002963541D03*
X0001659160Y0002863540D03*
D43*
X0001375144Y0003149485D03*
X0001241286Y0003149485D03*
X0001341286Y0003059484D03*
X0001475144Y0003059484D03*
X0001441286Y0003149485D03*
X0001575144Y0003149485D03*
X0001675144Y0003059484D03*
X0001541286Y0003059484D03*
X0000975143Y0003149485D03*
X0000841285Y0003149485D03*
X0000941286Y0003059484D03*
X0001075144Y0003059484D03*
X0001041285Y0003149485D03*
X0001175144Y0003149485D03*
X0001275144Y0003059484D03*
X0001141286Y0003059484D03*
X0000875144Y0003059484D03*
X0000741285Y0003059484D03*
D45*
X0000759160Y0002558226D03*
D44*
X0000759160Y0002458226D03*
X0000859160Y0002558226D03*
X0000859160Y0002458226D03*
X0000959160Y0002558226D03*
X0000959160Y0002458226D03*
X0001059160Y0002558226D03*
X0001059160Y0002458226D03*
X0001159160Y0002558226D03*
X0001159160Y0002458226D03*
X0001259160Y0002558226D03*
X0001259160Y0002458226D03*
X0001359160Y0002558226D03*
X0001359160Y0002458226D03*
X0001459160Y0002558226D03*
X0001459160Y0002458226D03*
X0001559159Y0002558226D03*
X0001559159Y0002458226D03*
X0001659160Y0002558226D03*
X0001659160Y0002458226D03*
D43*
X0001375144Y0002744171D03*
X0001241286Y0002744171D03*
X0001341286Y0002654171D03*
X0001475144Y0002654171D03*
X0001441286Y0002744171D03*
X0001575144Y0002744171D03*
X0001675144Y0002654171D03*
X0001541286Y0002654171D03*
X0000975143Y0002744171D03*
X0000841285Y0002744171D03*
X0001041285Y0002744171D03*
X0001175144Y0002744171D03*
X0001275144Y0002654171D03*
X0001141286Y0002654171D03*
X0000875144Y0002654171D03*
X0000741285Y0002654171D03*
X0000975143Y0002338856D03*
X0000841285Y0002338856D03*
X0001041285Y0002338856D03*
X0001175144Y0002338856D03*
X0001375144Y0002338856D03*
X0001241286Y0002338856D03*
X0001441286Y0002338856D03*
X0001575144Y0002338856D03*
X0000875144Y0002248856D03*
X0000741285Y0002248856D03*
X0000941286Y0002248856D03*
X0001075144Y0002248856D03*
X0001275144Y0002248856D03*
X0001141286Y0002248856D03*
X0001341286Y0002248856D03*
X0001475144Y0002248856D03*
D45*
X0000759160Y0002152911D03*
D44*
X0000759160Y0002052911D03*
X0000859160Y0002152911D03*
X0000859160Y0002052911D03*
X0000959160Y0002152911D03*
X0000959160Y0002052911D03*
X0001059160Y0002152911D03*
X0001059160Y0002052911D03*
X0001159160Y0002152911D03*
X0001159160Y0002052911D03*
X0001259160Y0002152911D03*
X0001259160Y0002052911D03*
X0001359160Y0002152911D03*
X0001359160Y0002052911D03*
X0001459160Y0002152911D03*
X0001459160Y0002052911D03*
X0001559159Y0002152911D03*
X0001559159Y0002052911D03*
X0001659160Y0002152911D03*
X0001659160Y0002052911D03*
D46*
X0001235826Y0003641732D03*
D47*
X0001135826Y0003641732D03*
X0001136220Y0003770866D03*
D46*
X0001236220Y0003770866D03*
X0001236220Y0003885433D03*
D47*
X0001136220Y0003885433D03*
M02*