%MOIN*%
%OFA0B0*%
%FSLAX46Y46*%
%IPPOS*%
%LPD*%
%ADD10C,0.005905511811023622*%
%ADD11R,0.062992125984251982X0.03937007874015748*%
%ADD12O,0.07874015748031496X0.07874015748031496*%
%ADD13R,0.07874015748031496X0.07874015748031496*%
%ADD14R,0.08X0.08*%
%ADD15O,0.08X0.08*%
%ADD16C,0.03937007874015748*%
%ADD27C,0.005905511811023622*%
%ADD28R,0.062992125984251982X0.03937007874015748*%
%ADD29O,0.07874015748031496X0.07874015748031496*%
%ADD30R,0.07874015748031496X0.07874015748031496*%
%ADD31R,0.08X0.08*%
%ADD32O,0.08X0.08*%
%ADD33C,0.03937007874015748*%
%ADD44C,0.005905511811023622*%
%ADD45R,0.03937007874015748X0.062992125984251982*%
%ADD46O,0.07874015748031496X0.07874015748031496*%
%ADD47R,0.07874015748031496X0.07874015748031496*%
%ADD48R,0.08X0.08*%
%ADD49O,0.08X0.08*%
%ADD50C,0.03937007874015748*%
%LPD*%
G01G01*
D10*
X0001993719Y0002456599D02*
X0001989970Y0002458473D01*
X0001988095Y0002462223D01*
X0001988095Y0002495969D01*
X0002025590Y0002482845D02*
X0002025590Y0002456599D01*
X0002008717Y0002482845D02*
X0002008717Y0002462223D01*
X0002010592Y0002458473D01*
X0002014341Y0002456599D01*
X0002019966Y0002456599D01*
X0002023715Y0002458473D01*
X0002025590Y0002460348D01*
X0002038713Y0002482845D02*
X0002053712Y0002482845D01*
X0002044338Y0002456599D02*
X0002044338Y0002490344D01*
X0002046212Y0002494094D01*
X0002049962Y0002495969D01*
X0002053712Y0002495969D01*
X0002061211Y0002482845D02*
X0002076209Y0002482845D01*
X0002066835Y0002495969D02*
X0002066835Y0002462223D01*
X0002068710Y0002458473D01*
X0002072459Y0002456599D01*
X0002076209Y0002456599D01*
X0002104330Y0002458473D02*
X0002100581Y0002456599D01*
X0002093082Y0002456599D01*
X0002089332Y0002458473D01*
X0002087457Y0002462223D01*
X0002087457Y0002477221D01*
X0002089332Y0002480971D01*
X0002093082Y0002482845D01*
X0002100581Y0002482845D01*
X0002104330Y0002480971D01*
X0002106205Y0002477221D01*
X0002106205Y0002473472D01*
X0002087457Y0002469722D01*
X0002123078Y0002456599D02*
X0002123078Y0002495969D01*
X0002126827Y0002471597D02*
X0002138076Y0002456599D01*
X0002138076Y0002482845D02*
X0002123078Y0002467847D01*
X0002213067Y0002492219D02*
X0002214941Y0002494094D01*
X0002218691Y0002495969D01*
X0002228065Y0002495969D01*
X0002231814Y0002494094D01*
X0002233689Y0002492219D01*
X0002235564Y0002488470D01*
X0002235564Y0002484720D01*
X0002233689Y0002479096D01*
X0002211192Y0002456599D01*
X0002235564Y0002456599D01*
X0002259936Y0002495969D02*
X0002263685Y0002495969D01*
X0002267435Y0002494094D01*
X0002269310Y0002492219D01*
X0002271184Y0002488470D01*
X0002273059Y0002480971D01*
X0002273059Y0002471597D01*
X0002271184Y0002464098D01*
X0002269310Y0002460348D01*
X0002267435Y0002458473D01*
X0002263685Y0002456599D01*
X0002259936Y0002456599D01*
X0002256186Y0002458473D01*
X0002254311Y0002460348D01*
X0002252437Y0002464098D01*
X0002250562Y0002471597D01*
X0002250562Y0002480971D01*
X0002252437Y0002488470D01*
X0002254311Y0002492219D01*
X0002256186Y0002494094D01*
X0002259936Y0002495969D01*
X0002310554Y0002456599D02*
X0002288057Y0002456599D01*
X0002299306Y0002456599D02*
X0002299306Y0002495969D01*
X0002295556Y0002490344D01*
X0002291807Y0002486595D01*
X0002288057Y0002484720D01*
X0002344300Y0002495969D02*
X0002336801Y0002495969D01*
X0002333052Y0002494094D01*
X0002331177Y0002492219D01*
X0002327427Y0002486595D01*
X0002325553Y0002479096D01*
X0002325553Y0002464098D01*
X0002327427Y0002460348D01*
X0002329302Y0002458473D01*
X0002333052Y0002456599D01*
X0002340551Y0002456599D01*
X0002344300Y0002458473D01*
X0002346175Y0002460348D01*
X0002348050Y0002464098D01*
X0002348050Y0002473472D01*
X0002346175Y0002477221D01*
X0002344300Y0002479096D01*
X0002340551Y0002480971D01*
X0002333052Y0002480971D01*
X0002329302Y0002479096D01*
X0002327427Y0002477221D01*
X0002325553Y0002473472D01*
X0002385545Y0002456599D02*
X0002363048Y0002456599D01*
X0002374296Y0002456599D02*
X0002374296Y0002495969D01*
X0002370547Y0002490344D01*
X0002366797Y0002486595D01*
X0002363048Y0002484720D01*
X0002409917Y0002495969D02*
X0002413667Y0002495969D01*
X0002417416Y0002494094D01*
X0002419291Y0002492219D01*
X0002421166Y0002488470D01*
X0002423040Y0002480971D01*
X0002423040Y0002471597D01*
X0002421166Y0002464098D01*
X0002419291Y0002460348D01*
X0002417416Y0002458473D01*
X0002413667Y0002456599D01*
X0002409917Y0002456599D01*
X0002406167Y0002458473D01*
X0002404293Y0002460348D01*
X0002402418Y0002464098D01*
X0002400543Y0002471597D01*
X0002400543Y0002480971D01*
X0002402418Y0002488470D01*
X0002404293Y0002492219D01*
X0002406167Y0002494094D01*
X0002409917Y0002495969D01*
X0002460536Y0002456599D02*
X0002438038Y0002456599D01*
X0002449287Y0002456599D02*
X0002449287Y0002495969D01*
X0002445538Y0002490344D01*
X0002441788Y0002486595D01*
X0002438038Y0002484720D01*
X0002479283Y0002456599D02*
X0002486782Y0002456599D01*
X0002490532Y0002458473D01*
X0002492407Y0002460348D01*
X0002496156Y0002465973D01*
X0002498031Y0002473472D01*
X0002498031Y0002488470D01*
X0002496156Y0002492219D01*
X0002494281Y0002494094D01*
X0002490532Y0002495969D01*
X0002483033Y0002495969D01*
X0002479283Y0002494094D01*
X0002477409Y0002492219D01*
X0002475534Y0002488470D01*
X0002475534Y0002479096D01*
X0002477409Y0002475346D01*
X0002479283Y0002473472D01*
X0002483033Y0002471597D01*
X0002490532Y0002471597D01*
X0002494281Y0002473472D01*
X0002496156Y0002475346D01*
X0002498031Y0002479096D01*
D11*
X0002654171Y0002129579D03*
X0002654171Y0001995721D03*
X0002248856Y0001395721D03*
X0002248856Y0001529579D03*
D12*
X0003268856Y0001411705D03*
X0003368856Y0001411705D03*
X0003268856Y0001511705D03*
X0003368856Y0001511705D03*
X0003268856Y0001611705D03*
X0003368856Y0001611705D03*
X0003268856Y0001711705D03*
X0003368856Y0001711705D03*
X0003268856Y0001811705D03*
X0003368856Y0001811705D03*
X0003268856Y0001911705D03*
X0003368856Y0001911705D03*
X0003268856Y0002011705D03*
X0003368856Y0002011705D03*
X0003268856Y0002111705D03*
X0003368856Y0002111705D03*
X0003268856Y0002211705D03*
X0003368856Y0002211705D03*
X0003268856Y0002311705D03*
D13*
X0003368856Y0002311705D03*
D11*
X0003554800Y0001829579D03*
X0003554800Y0001695721D03*
X0003464800Y0001595721D03*
X0003464800Y0001729579D03*
X0003554800Y0001495721D03*
X0003554800Y0001629579D03*
X0003464800Y0001529579D03*
X0003464800Y0001395721D03*
X0003554800Y0002229579D03*
X0003554800Y0002095721D03*
X0003464800Y0001995721D03*
X0003464800Y0002129579D03*
X0003554800Y0001895721D03*
X0003554800Y0002029579D03*
X0003464800Y0001929579D03*
X0003464800Y0001795721D03*
X0003464800Y0002329579D03*
X0003464800Y0002195721D03*
D13*
X0002963541Y0002311705D03*
D12*
X0002863541Y0002311705D03*
X0002963541Y0002211705D03*
X0002863541Y0002211705D03*
X0002963541Y0002111705D03*
X0002863541Y0002111705D03*
X0002963541Y0002011705D03*
X0002863541Y0002011705D03*
X0002963541Y0001911705D03*
X0002863541Y0001911705D03*
X0002963541Y0001811705D03*
X0002863541Y0001811705D03*
X0002963541Y0001711705D03*
X0002863541Y0001711705D03*
X0002963541Y0001611705D03*
X0002863541Y0001611705D03*
X0002963541Y0001511705D03*
X0002863541Y0001511705D03*
X0002963541Y0001411705D03*
X0002863541Y0001411705D03*
D11*
X0003149485Y0001695721D03*
X0003149485Y0001829579D03*
X0003059485Y0001729579D03*
X0003059485Y0001595721D03*
X0003149485Y0001629579D03*
X0003149485Y0001495721D03*
X0003059485Y0001395721D03*
X0003059485Y0001529579D03*
X0003149485Y0002095721D03*
X0003149485Y0002229579D03*
X0003059485Y0002129579D03*
X0003059485Y0001995721D03*
X0003149485Y0002029579D03*
X0003149485Y0001895721D03*
X0003059485Y0001795721D03*
X0003059485Y0001929579D03*
X0003059485Y0002195721D03*
X0003059485Y0002329579D03*
D13*
X0002558226Y0002311705D03*
D12*
X0002458226Y0002311705D03*
X0002558226Y0002211705D03*
X0002458226Y0002211705D03*
X0002558226Y0002111705D03*
X0002458226Y0002111705D03*
X0002558226Y0002011705D03*
X0002458226Y0002011705D03*
X0002558226Y0001911705D03*
X0002458226Y0001911705D03*
X0002558226Y0001811705D03*
X0002458226Y0001811705D03*
X0002558226Y0001711705D03*
X0002458226Y0001711705D03*
X0002558226Y0001611705D03*
X0002458226Y0001611705D03*
X0002558226Y0001511705D03*
X0002458226Y0001511705D03*
X0002558226Y0001411705D03*
X0002458226Y0001411705D03*
D11*
X0002744171Y0001695721D03*
X0002744171Y0001829579D03*
X0002654171Y0001729579D03*
X0002654171Y0001595721D03*
X0002744171Y0001629579D03*
X0002744171Y0001495721D03*
X0002654171Y0001395721D03*
X0002654171Y0001529579D03*
X0002744171Y0002095721D03*
X0002744171Y0002229579D03*
X0002744171Y0002029579D03*
X0002744171Y0001895721D03*
X0002654171Y0001795721D03*
X0002654171Y0001929579D03*
X0002654171Y0002195721D03*
X0002654171Y0002329579D03*
X0002338856Y0002095721D03*
X0002338856Y0002229579D03*
X0002338856Y0002029579D03*
X0002338856Y0001895721D03*
X0002338856Y0001695721D03*
X0002338856Y0001829579D03*
X0002338856Y0001629579D03*
X0002338856Y0001495721D03*
X0002248856Y0002195721D03*
X0002248856Y0002329579D03*
X0002248856Y0002129579D03*
X0002248856Y0001995721D03*
X0002248856Y0001795721D03*
X0002248856Y0001929579D03*
X0002248856Y0001729579D03*
X0002248856Y0001595721D03*
D13*
X0002152911Y0002311705D03*
D12*
X0002052911Y0002311705D03*
X0002152911Y0002211705D03*
X0002052911Y0002211705D03*
X0002152911Y0002111705D03*
X0002052911Y0002111705D03*
X0002152911Y0002011705D03*
X0002052911Y0002011705D03*
X0002152911Y0001911705D03*
X0002052911Y0001911705D03*
X0002152911Y0001811705D03*
X0002052911Y0001811705D03*
X0002152911Y0001711705D03*
X0002052911Y0001711705D03*
X0002152911Y0001611705D03*
X0002052911Y0001611705D03*
X0002152911Y0001511705D03*
X0002052911Y0001511705D03*
X0002152911Y0001411705D03*
X0002052911Y0001411705D03*
D14*
X0003641732Y0001835039D03*
D15*
X0003641732Y0001935039D03*
X0003770866Y0001934645D03*
D14*
X0003770866Y0001834645D03*
X0003885433Y0001834645D03*
D15*
X0003885433Y0001934645D03*
D16*
X0002152911Y0002311705D02*
X0002230982Y0002311705D01*
X0002230982Y0002311705D02*
X0002248856Y0002329579D01*
X0003643800Y0002286750D02*
X0003643800Y0001960529D01*
X0003518800Y0002411750D02*
X0003643800Y0002286750D01*
X0002052911Y0002411695D02*
X0003487299Y0002411695D01*
X0003487299Y0002411695D02*
X0003487354Y0002411750D01*
X0003487354Y0002411750D02*
X0003518800Y0002411750D01*
X0002052911Y0002311705D02*
X0002052911Y0002411695D01*
X0003643800Y0001960529D02*
X0003645669Y0001958661D01*
X0003645669Y0001958661D02*
X0003669291Y0001935039D01*
X0003770866Y0001934645D02*
X0003885433Y0001934645D01*
X0003641732Y0001935039D02*
X0003770866Y0001934645D01*
X0002052911Y0002211705D02*
X0002052911Y0002311705D01*
X0002052911Y0002111705D02*
X0002052911Y0002211705D01*
X0002052911Y0002011705D02*
X0002052911Y0002111705D01*
X0002052911Y0001911705D02*
X0002052911Y0002011705D01*
X0002052911Y0001811705D02*
X0002052911Y0001911705D01*
X0002052911Y0001711705D02*
X0002052911Y0001811705D01*
X0002052911Y0001611705D02*
X0002052911Y0001711705D01*
X0002052911Y0001511705D02*
X0002052911Y0001611705D01*
X0002052911Y0001411705D02*
X0002052911Y0001511705D01*
X0002558226Y0002311705D02*
X0002636297Y0002311705D01*
X0002636297Y0002311705D02*
X0002654171Y0002329579D01*
X0002963541Y0002311705D02*
X0003041611Y0002311705D01*
X0003041611Y0002311705D02*
X0003059485Y0002329579D01*
X0003368856Y0002311705D02*
X0003446926Y0002311705D01*
X0003446926Y0002311705D02*
X0003464800Y0002329579D01*
X0002338856Y0002229579D02*
X0002282714Y0002229579D01*
X0002282714Y0002229579D02*
X0002248856Y0002195721D01*
X0002152911Y0002211705D02*
X0002232871Y0002211705D01*
X0002232871Y0002211705D02*
X0002248856Y0002195721D01*
X0002152911Y0002111705D02*
X0002230982Y0002111705D01*
X0002230982Y0002111705D02*
X0002248856Y0002129579D01*
X0002338856Y0002095721D02*
X0002282714Y0002095721D01*
X0002282714Y0002095721D02*
X0002248856Y0002129579D01*
X0002338856Y0002029579D02*
X0002282714Y0002029579D01*
X0002282714Y0002029579D02*
X0002248856Y0001995721D01*
X0002152911Y0002011705D02*
X0002232871Y0002011705D01*
X0002232871Y0002011705D02*
X0002248856Y0001995721D01*
X0002152911Y0001911705D02*
X0002230982Y0001911705D01*
X0002230982Y0001911705D02*
X0002248856Y0001929579D01*
X0002338856Y0001895721D02*
X0002282714Y0001895721D01*
X0002282714Y0001895721D02*
X0002248856Y0001929579D01*
X0002338856Y0001829579D02*
X0002282714Y0001829579D01*
X0002282714Y0001829579D02*
X0002248856Y0001795721D01*
X0002152911Y0001811705D02*
X0002232871Y0001811705D01*
X0002232871Y0001811705D02*
X0002248856Y0001795721D01*
X0002152911Y0001711705D02*
X0002230982Y0001711705D01*
X0002230982Y0001711705D02*
X0002248856Y0001729579D01*
X0002338856Y0001695721D02*
X0002282714Y0001695721D01*
X0002282714Y0001695721D02*
X0002248856Y0001729579D01*
X0002338856Y0001629579D02*
X0002282714Y0001629579D01*
X0002282714Y0001629579D02*
X0002248856Y0001595721D01*
X0002152911Y0001611705D02*
X0002232871Y0001611705D01*
X0002232871Y0001611705D02*
X0002248856Y0001595721D01*
X0002152911Y0001511705D02*
X0002230982Y0001511705D01*
X0002230982Y0001511705D02*
X0002248856Y0001529579D01*
X0002338856Y0001495721D02*
X0002282714Y0001495721D01*
X0002282714Y0001495721D02*
X0002248856Y0001529579D01*
X0002458226Y0001411705D02*
X0002264840Y0001411705D01*
X0002458226Y0002311705D02*
X0002458226Y0001411705D01*
X0002264840Y0001411705D02*
X0002248856Y0001395721D01*
X0002152911Y0001411705D02*
X0002232871Y0001411705D01*
X0002232871Y0001411705D02*
X0002248856Y0001395721D01*
X0002558226Y0002211705D02*
X0002638186Y0002211705D01*
X0002638186Y0002211705D02*
X0002654171Y0002195721D01*
X0002744171Y0002229579D02*
X0002688029Y0002229579D01*
X0002688029Y0002229579D02*
X0002654171Y0002195721D01*
X0002558226Y0002111705D02*
X0002636297Y0002111705D01*
X0002636297Y0002111705D02*
X0002654171Y0002129579D01*
X0002744171Y0002095721D02*
X0002688029Y0002095721D01*
X0002688029Y0002095721D02*
X0002654171Y0002129579D01*
X0002558226Y0002011705D02*
X0002638186Y0002011705D01*
X0002638186Y0002011705D02*
X0002654171Y0001995721D01*
X0002744171Y0002029579D02*
X0002688029Y0002029579D01*
X0002688029Y0002029579D02*
X0002654171Y0001995721D01*
X0002558226Y0001911705D02*
X0002636297Y0001911705D01*
X0002636297Y0001911705D02*
X0002654171Y0001929579D01*
X0002744171Y0001895721D02*
X0002688029Y0001895721D01*
X0002688029Y0001895721D02*
X0002654171Y0001929579D01*
X0002558226Y0001811705D02*
X0002638186Y0001811705D01*
X0002638186Y0001811705D02*
X0002654171Y0001795721D01*
X0002744171Y0001829579D02*
X0002688029Y0001829579D01*
X0002688029Y0001829579D02*
X0002654171Y0001795721D01*
X0002558226Y0001711705D02*
X0002636297Y0001711705D01*
X0002636297Y0001711705D02*
X0002654171Y0001729579D01*
X0002744171Y0001695721D02*
X0002688029Y0001695721D01*
X0002688029Y0001695721D02*
X0002654171Y0001729579D01*
X0002558226Y0001611705D02*
X0002638186Y0001611705D01*
X0002638186Y0001611705D02*
X0002654171Y0001595721D01*
X0002744171Y0001629579D02*
X0002688029Y0001629579D01*
X0002688029Y0001629579D02*
X0002654171Y0001595721D01*
X0002558226Y0001511705D02*
X0002636297Y0001511705D01*
X0002636297Y0001511705D02*
X0002654171Y0001529579D01*
X0002744171Y0001495721D02*
X0002688029Y0001495721D01*
X0002688029Y0001495721D02*
X0002654171Y0001529579D01*
X0002863541Y0001411705D02*
X0002670155Y0001411705D01*
X0002863541Y0001911705D02*
X0002863541Y0001411705D01*
X0002863541Y0002011705D02*
X0002863541Y0001911705D01*
X0002863541Y0002111705D02*
X0002863541Y0002011705D01*
X0002863541Y0002211705D02*
X0002863541Y0002111705D01*
X0002863541Y0002311705D02*
X0002863541Y0002211705D01*
X0002670155Y0001411705D02*
X0002654171Y0001395721D01*
X0002558226Y0001411705D02*
X0002638186Y0001411705D01*
X0002638186Y0001411705D02*
X0002654171Y0001395721D01*
X0003149485Y0002229579D02*
X0003093344Y0002229579D01*
X0003093344Y0002229579D02*
X0003059485Y0002195721D01*
X0002963541Y0002211705D02*
X0003043501Y0002211705D01*
X0003043501Y0002211705D02*
X0003059485Y0002195721D01*
X0003149485Y0002095721D02*
X0003093344Y0002095721D01*
X0003093344Y0002095721D02*
X0003059485Y0002129579D01*
X0002963541Y0002111705D02*
X0003041611Y0002111705D01*
X0003041611Y0002111705D02*
X0003059485Y0002129579D01*
X0003149485Y0002029579D02*
X0003093344Y0002029579D01*
X0003093344Y0002029579D02*
X0003059485Y0001995721D01*
X0002963541Y0002011705D02*
X0003043501Y0002011705D01*
X0003043501Y0002011705D02*
X0003059485Y0001995721D01*
X0003149485Y0001895721D02*
X0003093344Y0001895721D01*
X0003093344Y0001895721D02*
X0003059485Y0001929579D01*
X0002963541Y0001911705D02*
X0003041611Y0001911705D01*
X0003041611Y0001911705D02*
X0003059485Y0001929579D01*
X0003149485Y0001829579D02*
X0003093344Y0001829579D01*
X0003093344Y0001829579D02*
X0003059485Y0001795721D01*
X0002963541Y0001811705D02*
X0003043501Y0001811705D01*
X0003043501Y0001811705D02*
X0003059485Y0001795721D01*
X0003149485Y0001695721D02*
X0003093344Y0001695721D01*
X0003093344Y0001695721D02*
X0003059485Y0001729579D01*
X0002963541Y0001711705D02*
X0003041611Y0001711705D01*
X0003041611Y0001711705D02*
X0003059485Y0001729579D01*
X0003149485Y0001629579D02*
X0003093344Y0001629579D01*
X0003093344Y0001629579D02*
X0003059485Y0001595721D01*
X0002963541Y0001611705D02*
X0003043501Y0001611705D01*
X0003043501Y0001611705D02*
X0003059485Y0001595721D01*
X0003149485Y0001495721D02*
X0003093344Y0001495721D01*
X0003093344Y0001495721D02*
X0003059485Y0001529579D01*
X0002963541Y0001511705D02*
X0003041611Y0001511705D01*
X0003041611Y0001511705D02*
X0003059485Y0001529579D01*
X0003268856Y0001411705D02*
X0003075470Y0001411705D01*
X0003075470Y0001411705D02*
X0003059485Y0001395721D01*
X0002963541Y0001411705D02*
X0003043501Y0001411705D01*
X0003043501Y0001411705D02*
X0003059485Y0001395721D01*
X0003554800Y0002229579D02*
X0003498659Y0002229579D01*
X0003498659Y0002229579D02*
X0003464800Y0002195721D01*
X0003368856Y0002211705D02*
X0003448816Y0002211705D01*
X0003448816Y0002211705D02*
X0003464800Y0002195721D01*
X0003554800Y0002095721D02*
X0003498659Y0002095721D01*
X0003498659Y0002095721D02*
X0003464800Y0002129579D01*
X0003368856Y0002111705D02*
X0003446926Y0002111705D01*
X0003446926Y0002111705D02*
X0003464800Y0002129579D01*
X0003554800Y0002029579D02*
X0003498659Y0002029579D01*
X0003498659Y0002029579D02*
X0003464800Y0001995721D01*
X0003368856Y0002011705D02*
X0003448816Y0002011705D01*
X0003448816Y0002011705D02*
X0003464800Y0001995721D01*
X0003554800Y0001895721D02*
X0003498659Y0001895721D01*
X0003498659Y0001895721D02*
X0003464800Y0001929579D01*
X0003368856Y0001911705D02*
X0003446926Y0001911705D01*
X0003446926Y0001911705D02*
X0003464800Y0001929579D01*
X0003554800Y0001829579D02*
X0003498659Y0001829579D01*
X0003498659Y0001829579D02*
X0003464800Y0001795721D01*
X0003368856Y0001811705D02*
X0003448816Y0001811705D01*
X0003448816Y0001811705D02*
X0003464800Y0001795721D01*
X0003554800Y0001695721D02*
X0003498659Y0001695721D01*
X0003498659Y0001695721D02*
X0003464800Y0001729579D01*
X0003368856Y0001711705D02*
X0003446926Y0001711705D01*
X0003446926Y0001711705D02*
X0003464800Y0001729579D01*
X0003554800Y0001629579D02*
X0003498659Y0001629579D01*
X0003498659Y0001629579D02*
X0003464800Y0001595721D01*
X0003368856Y0001611705D02*
X0003448816Y0001611705D01*
X0003448816Y0001611705D02*
X0003464800Y0001595721D01*
X0003554800Y0001495721D02*
X0003498659Y0001495721D01*
X0003498659Y0001495721D02*
X0003464800Y0001529579D01*
X0003368856Y0001511705D02*
X0003446926Y0001511705D01*
X0003446926Y0001511705D02*
X0003464800Y0001529579D01*
X0003464800Y0001395721D02*
X0003577771Y0001395721D01*
X0003577771Y0001395721D02*
X0003643800Y0001461750D01*
X0003643800Y0001461750D02*
X0003643800Y0001809549D01*
X0003643800Y0001809549D02*
X0003669291Y0001835039D01*
X0003770866Y0001834645D02*
X0003885433Y0001834645D01*
X0003641732Y0001835039D02*
X0003770866Y0001834645D01*
X0003368856Y0001411705D02*
X0003448816Y0001411705D01*
X0003448816Y0001411705D02*
X0003464800Y0001395721D01*
G04 next file*
G01G01G01G01*
D27*
X0001993719Y0003873922D02*
X0001989970Y0003875796D01*
X0001988095Y0003879546D01*
X0001988095Y0003913292D01*
X0002025589Y0003900168D02*
X0002025589Y0003873922D01*
X0002008716Y0003900168D02*
X0002008716Y0003879546D01*
X0002010592Y0003875796D01*
X0002014341Y0003873922D01*
X0002019966Y0003873922D01*
X0002023715Y0003875796D01*
X0002025589Y0003877671D01*
X0002038713Y0003900168D02*
X0002053712Y0003900168D01*
X0002044338Y0003873922D02*
X0002044338Y0003907667D01*
X0002046212Y0003911417D01*
X0002049961Y0003913292D01*
X0002053712Y0003913292D01*
X0002061211Y0003900168D02*
X0002076209Y0003900168D01*
X0002066835Y0003913292D02*
X0002066835Y0003879546D01*
X0002068709Y0003875796D01*
X0002072458Y0003873922D01*
X0002076209Y0003873922D01*
X0002104330Y0003875796D02*
X0002100581Y0003873922D01*
X0002093082Y0003873922D01*
X0002089332Y0003875796D01*
X0002087457Y0003879546D01*
X0002087457Y0003894544D01*
X0002089332Y0003898293D01*
X0002093082Y0003900168D01*
X0002100581Y0003900168D01*
X0002104330Y0003898293D01*
X0002106205Y0003894544D01*
X0002106205Y0003890793D01*
X0002087457Y0003887045D01*
X0002123078Y0003873922D02*
X0002123078Y0003913292D01*
X0002126827Y0003888920D02*
X0002138076Y0003873922D01*
X0002138076Y0003900168D02*
X0002123078Y0003885170D01*
X0002213067Y0003909542D02*
X0002214941Y0003911417D01*
X0002218691Y0003913292D01*
X0002228065Y0003913292D01*
X0002231814Y0003911417D01*
X0002233689Y0003909542D01*
X0002235564Y0003905793D01*
X0002235564Y0003902042D01*
X0002233689Y0003896419D01*
X0002211192Y0003873922D01*
X0002235564Y0003873922D01*
X0002259936Y0003913292D02*
X0002263685Y0003913292D01*
X0002267435Y0003911417D01*
X0002269310Y0003909542D01*
X0002271184Y0003905793D01*
X0002273059Y0003898293D01*
X0002273059Y0003888920D01*
X0002271184Y0003881421D01*
X0002269310Y0003877671D01*
X0002267435Y0003875796D01*
X0002263685Y0003873922D01*
X0002259936Y0003873922D01*
X0002256186Y0003875796D01*
X0002254311Y0003877671D01*
X0002252437Y0003881421D01*
X0002250562Y0003888920D01*
X0002250562Y0003898293D01*
X0002252437Y0003905793D01*
X0002254311Y0003909542D01*
X0002256186Y0003911417D01*
X0002259936Y0003913292D01*
X0002310554Y0003873922D02*
X0002288057Y0003873922D01*
X0002299306Y0003873922D02*
X0002299306Y0003913292D01*
X0002295556Y0003907667D01*
X0002291807Y0003903918D01*
X0002288057Y0003902042D01*
X0002344300Y0003913292D02*
X0002336801Y0003913292D01*
X0002333052Y0003911417D01*
X0002331177Y0003909542D01*
X0002327427Y0003903918D01*
X0002325553Y0003896419D01*
X0002325553Y0003881421D01*
X0002327427Y0003877671D01*
X0002329302Y0003875796D01*
X0002333052Y0003873922D01*
X0002340551Y0003873922D01*
X0002344300Y0003875796D01*
X0002346175Y0003877671D01*
X0002348050Y0003881421D01*
X0002348050Y0003890793D01*
X0002346175Y0003894544D01*
X0002344300Y0003896419D01*
X0002340551Y0003898293D01*
X0002333052Y0003898293D01*
X0002329302Y0003896419D01*
X0002327427Y0003894544D01*
X0002325553Y0003890793D01*
X0002385545Y0003873922D02*
X0002363048Y0003873922D01*
X0002374296Y0003873922D02*
X0002374296Y0003913292D01*
X0002370547Y0003907667D01*
X0002366797Y0003903918D01*
X0002363048Y0003902042D01*
X0002409917Y0003913292D02*
X0002413667Y0003913292D01*
X0002417416Y0003911417D01*
X0002419291Y0003909542D01*
X0002421166Y0003905793D01*
X0002423040Y0003898293D01*
X0002423040Y0003888920D01*
X0002421166Y0003881421D01*
X0002419291Y0003877671D01*
X0002417416Y0003875796D01*
X0002413667Y0003873922D01*
X0002409917Y0003873922D01*
X0002406167Y0003875796D01*
X0002404293Y0003877671D01*
X0002402418Y0003881421D01*
X0002400543Y0003888920D01*
X0002400543Y0003898293D01*
X0002402418Y0003905793D01*
X0002404293Y0003909542D01*
X0002406167Y0003911417D01*
X0002409917Y0003913292D01*
X0002460536Y0003873922D02*
X0002438038Y0003873922D01*
X0002449287Y0003873922D02*
X0002449287Y0003913292D01*
X0002445538Y0003907667D01*
X0002441788Y0003903918D01*
X0002438038Y0003902042D01*
X0002479283Y0003873922D02*
X0002486782Y0003873922D01*
X0002490532Y0003875796D01*
X0002492407Y0003877671D01*
X0002496156Y0003883295D01*
X0002498031Y0003890793D01*
X0002498031Y0003905793D01*
X0002496156Y0003909542D01*
X0002494281Y0003911417D01*
X0002490532Y0003913292D01*
X0002483033Y0003913292D01*
X0002479283Y0003911417D01*
X0002477409Y0003909542D01*
X0002475534Y0003905793D01*
X0002475534Y0003896419D01*
X0002477409Y0003892669D01*
X0002479283Y0003890793D01*
X0002483033Y0003888920D01*
X0002490532Y0003888920D01*
X0002494281Y0003890793D01*
X0002496156Y0003892669D01*
X0002498031Y0003896419D01*
D28*
X0002654171Y0003546902D03*
X0002654171Y0003413044D03*
X0002248856Y0002813044D03*
X0002248856Y0002946901D03*
D29*
X0003268856Y0002829028D03*
X0003368856Y0002829028D03*
X0003268856Y0002929028D03*
X0003368856Y0002929028D03*
X0003268856Y0003029028D03*
X0003368856Y0003029028D03*
X0003268856Y0003129028D03*
X0003368856Y0003129028D03*
X0003268856Y0003229028D03*
X0003368856Y0003229028D03*
X0003268856Y0003329028D03*
X0003368856Y0003329028D03*
X0003268856Y0003429027D03*
X0003368856Y0003429027D03*
X0003268856Y0003529027D03*
X0003368856Y0003529027D03*
X0003268856Y0003629028D03*
X0003368856Y0003629028D03*
X0003268856Y0003729028D03*
D30*
X0003368856Y0003729028D03*
D28*
X0003554800Y0003246902D03*
X0003554800Y0003113044D03*
X0003464800Y0003013044D03*
X0003464800Y0003146902D03*
X0003554800Y0002913044D03*
X0003554800Y0003046902D03*
X0003464800Y0002946901D03*
X0003464800Y0002813044D03*
X0003554800Y0003646902D03*
X0003554800Y0003513044D03*
X0003464800Y0003413044D03*
X0003464800Y0003546902D03*
X0003554800Y0003313044D03*
X0003554800Y0003446902D03*
X0003464800Y0003346901D03*
X0003464800Y0003213044D03*
X0003464800Y0003746902D03*
X0003464800Y0003613044D03*
D30*
X0002963541Y0003729028D03*
D29*
X0002863540Y0003729028D03*
X0002963541Y0003629028D03*
X0002863540Y0003629028D03*
X0002963541Y0003529027D03*
X0002863540Y0003529027D03*
X0002963541Y0003429027D03*
X0002863540Y0003429027D03*
X0002963541Y0003329028D03*
X0002863540Y0003329028D03*
X0002963541Y0003229028D03*
X0002863540Y0003229028D03*
X0002963541Y0003129028D03*
X0002863540Y0003129028D03*
X0002963541Y0003029028D03*
X0002863540Y0003029028D03*
X0002963541Y0002929028D03*
X0002863540Y0002929028D03*
X0002963541Y0002829028D03*
X0002863540Y0002829028D03*
D28*
X0003149485Y0003113044D03*
X0003149485Y0003246902D03*
X0003059484Y0003146902D03*
X0003059484Y0003013044D03*
X0003149485Y0003046902D03*
X0003149485Y0002913044D03*
X0003059484Y0002813044D03*
X0003059484Y0002946901D03*
X0003149485Y0003513044D03*
X0003149485Y0003646902D03*
X0003059484Y0003546902D03*
X0003059484Y0003413044D03*
X0003149485Y0003446902D03*
X0003149485Y0003313044D03*
X0003059484Y0003213044D03*
X0003059484Y0003346901D03*
X0003059484Y0003613044D03*
X0003059484Y0003746902D03*
D30*
X0002558226Y0003729028D03*
D29*
X0002458226Y0003729028D03*
X0002558226Y0003629028D03*
X0002458226Y0003629028D03*
X0002558226Y0003529027D03*
X0002458226Y0003529027D03*
X0002558226Y0003429027D03*
X0002458226Y0003429027D03*
X0002558226Y0003329028D03*
X0002458226Y0003329028D03*
X0002558226Y0003229028D03*
X0002458226Y0003229028D03*
X0002558226Y0003129028D03*
X0002458226Y0003129028D03*
X0002558226Y0003029028D03*
X0002458226Y0003029028D03*
X0002558226Y0002929028D03*
X0002458226Y0002929028D03*
X0002558226Y0002829028D03*
X0002458226Y0002829028D03*
D28*
X0002744171Y0003113044D03*
X0002744171Y0003246902D03*
X0002654171Y0003146902D03*
X0002654171Y0003013044D03*
X0002744171Y0003046902D03*
X0002744171Y0002913044D03*
X0002654171Y0002813044D03*
X0002654171Y0002946901D03*
X0002744171Y0003513044D03*
X0002744171Y0003646902D03*
X0002744171Y0003446902D03*
X0002744171Y0003313044D03*
X0002654171Y0003213044D03*
X0002654171Y0003346901D03*
X0002654171Y0003613044D03*
X0002654171Y0003746902D03*
X0002338856Y0003513044D03*
X0002338856Y0003646902D03*
X0002338856Y0003446902D03*
X0002338856Y0003313044D03*
X0002338856Y0003113044D03*
X0002338856Y0003246902D03*
X0002338856Y0003046902D03*
X0002338856Y0002913044D03*
X0002248856Y0003613044D03*
X0002248856Y0003746902D03*
X0002248856Y0003546902D03*
X0002248856Y0003413044D03*
X0002248856Y0003213044D03*
X0002248856Y0003346901D03*
X0002248856Y0003146902D03*
X0002248856Y0003013044D03*
D30*
X0002152911Y0003729028D03*
D29*
X0002052911Y0003729028D03*
X0002152911Y0003629028D03*
X0002052911Y0003629028D03*
X0002152911Y0003529027D03*
X0002052911Y0003529027D03*
X0002152911Y0003429027D03*
X0002052911Y0003429027D03*
X0002152911Y0003329028D03*
X0002052911Y0003329028D03*
X0002152911Y0003229028D03*
X0002052911Y0003229028D03*
X0002152911Y0003129028D03*
X0002052911Y0003129028D03*
X0002152911Y0003029028D03*
X0002052911Y0003029028D03*
X0002152911Y0002929028D03*
X0002052911Y0002929028D03*
X0002152911Y0002829028D03*
X0002052911Y0002829028D03*
D31*
X0003641732Y0003252362D03*
D32*
X0003641732Y0003352362D03*
X0003770866Y0003351968D03*
D31*
X0003770866Y0003251968D03*
X0003885433Y0003251968D03*
D32*
X0003885433Y0003351968D03*
D33*
X0002152911Y0003729028D02*
X0002230982Y0003729028D01*
X0002230982Y0003729028D02*
X0002248856Y0003746902D01*
X0003643800Y0003704073D02*
X0003643800Y0003377852D01*
X0003518800Y0003829073D02*
X0003643800Y0003704073D01*
X0002052911Y0003829018D02*
X0003487299Y0003829018D01*
X0003487299Y0003829018D02*
X0003487354Y0003829073D01*
X0003487354Y0003829073D02*
X0003518800Y0003829073D01*
X0002052911Y0003729028D02*
X0002052911Y0003829018D01*
X0003643800Y0003377852D02*
X0003645669Y0003375984D01*
X0003645669Y0003375984D02*
X0003669291Y0003352362D01*
X0003770866Y0003351968D02*
X0003885433Y0003351968D01*
X0003641732Y0003352362D02*
X0003770866Y0003351968D01*
X0002052911Y0003629028D02*
X0002052911Y0003729028D01*
X0002052911Y0003529027D02*
X0002052911Y0003629028D01*
X0002052911Y0003429027D02*
X0002052911Y0003529027D01*
X0002052911Y0003329028D02*
X0002052911Y0003429027D01*
X0002052911Y0003229028D02*
X0002052911Y0003329028D01*
X0002052911Y0003129028D02*
X0002052911Y0003229028D01*
X0002052911Y0003029028D02*
X0002052911Y0003129028D01*
X0002052911Y0002929028D02*
X0002052911Y0003029028D01*
X0002052911Y0002829028D02*
X0002052911Y0002929028D01*
X0002558226Y0003729028D02*
X0002636297Y0003729028D01*
X0002636297Y0003729028D02*
X0002654171Y0003746902D01*
X0002963541Y0003729028D02*
X0003041611Y0003729028D01*
X0003041611Y0003729028D02*
X0003059484Y0003746902D01*
X0003368856Y0003729028D02*
X0003446926Y0003729028D01*
X0003446926Y0003729028D02*
X0003464800Y0003746902D01*
X0002338856Y0003646902D02*
X0002282714Y0003646902D01*
X0002282714Y0003646902D02*
X0002248856Y0003613044D01*
X0002152911Y0003629028D02*
X0002232871Y0003629028D01*
X0002232871Y0003629028D02*
X0002248856Y0003613044D01*
X0002152911Y0003529027D02*
X0002230982Y0003529027D01*
X0002230982Y0003529027D02*
X0002248856Y0003546902D01*
X0002338856Y0003513044D02*
X0002282714Y0003513044D01*
X0002282714Y0003513044D02*
X0002248856Y0003546902D01*
X0002338856Y0003446902D02*
X0002282714Y0003446902D01*
X0002282714Y0003446902D02*
X0002248856Y0003413044D01*
X0002152911Y0003429027D02*
X0002232871Y0003429027D01*
X0002232871Y0003429027D02*
X0002248856Y0003413044D01*
X0002152911Y0003329028D02*
X0002230982Y0003329028D01*
X0002230982Y0003329028D02*
X0002248856Y0003346901D01*
X0002338856Y0003313044D02*
X0002282714Y0003313044D01*
X0002282714Y0003313044D02*
X0002248856Y0003346901D01*
X0002338856Y0003246902D02*
X0002282714Y0003246902D01*
X0002282714Y0003246902D02*
X0002248856Y0003213044D01*
X0002152911Y0003229028D02*
X0002232871Y0003229028D01*
X0002232871Y0003229028D02*
X0002248856Y0003213044D01*
X0002152911Y0003129028D02*
X0002230982Y0003129028D01*
X0002230982Y0003129028D02*
X0002248856Y0003146902D01*
X0002338856Y0003113044D02*
X0002282714Y0003113044D01*
X0002282714Y0003113044D02*
X0002248856Y0003146902D01*
X0002338856Y0003046902D02*
X0002282714Y0003046902D01*
X0002282714Y0003046902D02*
X0002248856Y0003013044D01*
X0002152911Y0003029028D02*
X0002232871Y0003029028D01*
X0002232871Y0003029028D02*
X0002248856Y0003013044D01*
X0002152911Y0002929028D02*
X0002230982Y0002929028D01*
X0002230982Y0002929028D02*
X0002248856Y0002946901D01*
X0002338856Y0002913044D02*
X0002282714Y0002913044D01*
X0002282714Y0002913044D02*
X0002248856Y0002946901D01*
X0002458226Y0002829028D02*
X0002264840Y0002829028D01*
X0002458226Y0003729028D02*
X0002458226Y0002829028D01*
X0002264840Y0002829028D02*
X0002248856Y0002813044D01*
X0002152911Y0002829028D02*
X0002232871Y0002829028D01*
X0002232871Y0002829028D02*
X0002248856Y0002813044D01*
X0002558226Y0003629028D02*
X0002638186Y0003629028D01*
X0002638186Y0003629028D02*
X0002654171Y0003613044D01*
X0002744171Y0003646902D02*
X0002688029Y0003646902D01*
X0002688029Y0003646902D02*
X0002654171Y0003613044D01*
X0002558226Y0003529027D02*
X0002636297Y0003529027D01*
X0002636297Y0003529027D02*
X0002654171Y0003546902D01*
X0002744171Y0003513044D02*
X0002688029Y0003513044D01*
X0002688029Y0003513044D02*
X0002654171Y0003546902D01*
X0002558226Y0003429027D02*
X0002638186Y0003429027D01*
X0002638186Y0003429027D02*
X0002654171Y0003413044D01*
X0002744171Y0003446902D02*
X0002688029Y0003446902D01*
X0002688029Y0003446902D02*
X0002654171Y0003413044D01*
X0002558226Y0003329028D02*
X0002636297Y0003329028D01*
X0002636297Y0003329028D02*
X0002654171Y0003346901D01*
X0002744171Y0003313044D02*
X0002688029Y0003313044D01*
X0002688029Y0003313044D02*
X0002654171Y0003346901D01*
X0002558226Y0003229028D02*
X0002638186Y0003229028D01*
X0002638186Y0003229028D02*
X0002654171Y0003213044D01*
X0002744171Y0003246902D02*
X0002688029Y0003246902D01*
X0002688029Y0003246902D02*
X0002654171Y0003213044D01*
X0002558226Y0003129028D02*
X0002636297Y0003129028D01*
X0002636297Y0003129028D02*
X0002654171Y0003146902D01*
X0002744171Y0003113044D02*
X0002688029Y0003113044D01*
X0002688029Y0003113044D02*
X0002654171Y0003146902D01*
X0002558226Y0003029028D02*
X0002638186Y0003029028D01*
X0002638186Y0003029028D02*
X0002654171Y0003013044D01*
X0002744171Y0003046902D02*
X0002688029Y0003046902D01*
X0002688029Y0003046902D02*
X0002654171Y0003013044D01*
X0002558226Y0002929028D02*
X0002636297Y0002929028D01*
X0002636297Y0002929028D02*
X0002654171Y0002946901D01*
X0002744171Y0002913044D02*
X0002688029Y0002913044D01*
X0002688029Y0002913044D02*
X0002654171Y0002946901D01*
X0002863540Y0002829028D02*
X0002670155Y0002829028D01*
X0002863540Y0003329028D02*
X0002863540Y0002829028D01*
X0002863540Y0003429027D02*
X0002863540Y0003329028D01*
X0002863540Y0003529027D02*
X0002863540Y0003429027D01*
X0002863540Y0003629028D02*
X0002863540Y0003529027D01*
X0002863540Y0003729028D02*
X0002863540Y0003629028D01*
X0002670155Y0002829028D02*
X0002654171Y0002813044D01*
X0002558226Y0002829028D02*
X0002638186Y0002829028D01*
X0002638186Y0002829028D02*
X0002654171Y0002813044D01*
X0003149485Y0003646902D02*
X0003093344Y0003646902D01*
X0003093344Y0003646902D02*
X0003059484Y0003613044D01*
X0002963541Y0003629028D02*
X0003043501Y0003629028D01*
X0003043501Y0003629028D02*
X0003059484Y0003613044D01*
X0003149485Y0003513044D02*
X0003093344Y0003513044D01*
X0003093344Y0003513044D02*
X0003059484Y0003546902D01*
X0002963541Y0003529027D02*
X0003041611Y0003529027D01*
X0003041611Y0003529027D02*
X0003059484Y0003546902D01*
X0003149485Y0003446902D02*
X0003093344Y0003446902D01*
X0003093344Y0003446902D02*
X0003059484Y0003413044D01*
X0002963541Y0003429027D02*
X0003043501Y0003429027D01*
X0003043501Y0003429027D02*
X0003059484Y0003413044D01*
X0003149485Y0003313044D02*
X0003093344Y0003313044D01*
X0003093344Y0003313044D02*
X0003059484Y0003346901D01*
X0002963541Y0003329028D02*
X0003041611Y0003329028D01*
X0003041611Y0003329028D02*
X0003059484Y0003346901D01*
X0003149485Y0003246902D02*
X0003093344Y0003246902D01*
X0003093344Y0003246902D02*
X0003059484Y0003213044D01*
X0002963541Y0003229028D02*
X0003043501Y0003229028D01*
X0003043501Y0003229028D02*
X0003059484Y0003213044D01*
X0003149485Y0003113044D02*
X0003093344Y0003113044D01*
X0003093344Y0003113044D02*
X0003059484Y0003146902D01*
X0002963541Y0003129028D02*
X0003041611Y0003129028D01*
X0003041611Y0003129028D02*
X0003059484Y0003146902D01*
X0003149485Y0003046902D02*
X0003093344Y0003046902D01*
X0003093344Y0003046902D02*
X0003059484Y0003013044D01*
X0002963541Y0003029028D02*
X0003043501Y0003029028D01*
X0003043501Y0003029028D02*
X0003059484Y0003013044D01*
X0003149485Y0002913044D02*
X0003093344Y0002913044D01*
X0003093344Y0002913044D02*
X0003059484Y0002946901D01*
X0002963541Y0002929028D02*
X0003041611Y0002929028D01*
X0003041611Y0002929028D02*
X0003059484Y0002946901D01*
X0003268856Y0002829028D02*
X0003075470Y0002829028D01*
X0003075470Y0002829028D02*
X0003059484Y0002813044D01*
X0002963541Y0002829028D02*
X0003043501Y0002829028D01*
X0003043501Y0002829028D02*
X0003059484Y0002813044D01*
X0003554800Y0003646902D02*
X0003498659Y0003646902D01*
X0003498659Y0003646902D02*
X0003464800Y0003613044D01*
X0003368856Y0003629028D02*
X0003448816Y0003629028D01*
X0003448816Y0003629028D02*
X0003464800Y0003613044D01*
X0003554800Y0003513044D02*
X0003498659Y0003513044D01*
X0003498659Y0003513044D02*
X0003464800Y0003546902D01*
X0003368856Y0003529027D02*
X0003446926Y0003529027D01*
X0003446926Y0003529027D02*
X0003464800Y0003546902D01*
X0003554800Y0003446902D02*
X0003498659Y0003446902D01*
X0003498659Y0003446902D02*
X0003464800Y0003413044D01*
X0003368856Y0003429027D02*
X0003448816Y0003429027D01*
X0003448816Y0003429027D02*
X0003464800Y0003413044D01*
X0003554800Y0003313044D02*
X0003498659Y0003313044D01*
X0003498659Y0003313044D02*
X0003464800Y0003346901D01*
X0003368856Y0003329028D02*
X0003446926Y0003329028D01*
X0003446926Y0003329028D02*
X0003464800Y0003346901D01*
X0003554800Y0003246902D02*
X0003498659Y0003246902D01*
X0003498659Y0003246902D02*
X0003464800Y0003213044D01*
X0003368856Y0003229028D02*
X0003448816Y0003229028D01*
X0003448816Y0003229028D02*
X0003464800Y0003213044D01*
X0003554800Y0003113044D02*
X0003498659Y0003113044D01*
X0003498659Y0003113044D02*
X0003464800Y0003146902D01*
X0003368856Y0003129028D02*
X0003446926Y0003129028D01*
X0003446926Y0003129028D02*
X0003464800Y0003146902D01*
X0003554800Y0003046902D02*
X0003498659Y0003046902D01*
X0003498659Y0003046902D02*
X0003464800Y0003013044D01*
X0003368856Y0003029028D02*
X0003448816Y0003029028D01*
X0003448816Y0003029028D02*
X0003464800Y0003013044D01*
X0003554800Y0002913044D02*
X0003498659Y0002913044D01*
X0003498659Y0002913044D02*
X0003464800Y0002946901D01*
X0003368856Y0002929028D02*
X0003446926Y0002929028D01*
X0003446926Y0002929028D02*
X0003464800Y0002946901D01*
X0003464800Y0002813044D02*
X0003577771Y0002813044D01*
X0003577771Y0002813044D02*
X0003643800Y0002879073D01*
X0003643800Y0002879073D02*
X0003643800Y0003226871D01*
X0003643800Y0003226871D02*
X0003669291Y0003252362D01*
X0003770866Y0003251968D02*
X0003885433Y0003251968D01*
X0003641732Y0003252362D02*
X0003770866Y0003251968D01*
X0003368856Y0002829028D02*
X0003448816Y0002829028D01*
X0003448816Y0002829028D02*
X0003464800Y0002813044D01*
G04 next file*
G04 #@! TF.FileFunction,Copper,L1,Top,Signal*
G04 Gerber Fmt 4.6, Leading zero omitted, Abs format (unit mm)*
G04 Created by KiCad (PCBNEW (2016-10-28 revision 192d4b8)-makepkg) date 11/16/16 20:27:21*
G01G01G01G01*
G04 APERTURE LIST*
G04 APERTURE END LIST*
D44*
X0000614266Y0001993719D02*
X0000612392Y0001989970D01*
X0000608642Y0001988095D01*
X0000574896Y0001988095D01*
X0000588020Y0002025589D02*
X0000614266Y0002025589D01*
X0000588020Y0002008716D02*
X0000608642Y0002008716D01*
X0000612392Y0002010592D01*
X0000614266Y0002014341D01*
X0000614266Y0002019966D01*
X0000612392Y0002023715D01*
X0000610517Y0002025589D01*
X0000588020Y0002038713D02*
X0000588020Y0002053712D01*
X0000614266Y0002044338D02*
X0000580521Y0002044338D01*
X0000576771Y0002046212D01*
X0000574896Y0002049961D01*
X0000574896Y0002053712D01*
X0000588020Y0002061211D02*
X0000588020Y0002076209D01*
X0000574896Y0002066835D02*
X0000608642Y0002066835D01*
X0000612392Y0002068709D01*
X0000614266Y0002072458D01*
X0000614266Y0002076209D01*
X0000612392Y0002104330D02*
X0000614266Y0002100581D01*
X0000614266Y0002093082D01*
X0000612392Y0002089332D01*
X0000608642Y0002087457D01*
X0000593644Y0002087457D01*
X0000589895Y0002089332D01*
X0000588020Y0002093082D01*
X0000588020Y0002100581D01*
X0000589895Y0002104330D01*
X0000593644Y0002106205D01*
X0000597394Y0002106205D01*
X0000601143Y0002087457D01*
X0000614266Y0002123078D02*
X0000574896Y0002123078D01*
X0000599268Y0002126827D02*
X0000614266Y0002138076D01*
X0000588020Y0002138076D02*
X0000603018Y0002123078D01*
X0000578646Y0002213067D02*
X0000576771Y0002214941D01*
X0000574896Y0002218691D01*
X0000574896Y0002228065D01*
X0000576771Y0002231814D01*
X0000578646Y0002233689D01*
X0000582395Y0002235564D01*
X0000586145Y0002235564D01*
X0000591769Y0002233689D01*
X0000614266Y0002211192D01*
X0000614266Y0002235564D01*
X0000574896Y0002259936D02*
X0000574896Y0002263685D01*
X0000576771Y0002267435D01*
X0000578646Y0002269310D01*
X0000582395Y0002271184D01*
X0000589895Y0002273059D01*
X0000599268Y0002273059D01*
X0000606767Y0002271184D01*
X0000610517Y0002269310D01*
X0000612392Y0002267435D01*
X0000614266Y0002263685D01*
X0000614266Y0002259936D01*
X0000612392Y0002256186D01*
X0000610517Y0002254311D01*
X0000606767Y0002252437D01*
X0000599268Y0002250562D01*
X0000589895Y0002250562D01*
X0000582395Y0002252437D01*
X0000578646Y0002254311D01*
X0000576771Y0002256186D01*
X0000574896Y0002259936D01*
X0000614266Y0002310554D02*
X0000614266Y0002288057D01*
X0000614266Y0002299306D02*
X0000574896Y0002299306D01*
X0000580521Y0002295556D01*
X0000584270Y0002291807D01*
X0000586145Y0002288057D01*
X0000574896Y0002344300D02*
X0000574896Y0002336801D01*
X0000576771Y0002333052D01*
X0000578646Y0002331177D01*
X0000584270Y0002327427D01*
X0000591769Y0002325553D01*
X0000606767Y0002325553D01*
X0000610517Y0002327427D01*
X0000612392Y0002329302D01*
X0000614266Y0002333052D01*
X0000614266Y0002340551D01*
X0000612392Y0002344300D01*
X0000610517Y0002346175D01*
X0000606767Y0002348050D01*
X0000597394Y0002348050D01*
X0000593644Y0002346175D01*
X0000591769Y0002344300D01*
X0000589895Y0002340551D01*
X0000589895Y0002333052D01*
X0000591769Y0002329302D01*
X0000593644Y0002327427D01*
X0000597394Y0002325553D01*
X0000614266Y0002385545D02*
X0000614266Y0002363048D01*
X0000614266Y0002374296D02*
X0000574896Y0002374296D01*
X0000580521Y0002370547D01*
X0000584270Y0002366797D01*
X0000586145Y0002363048D01*
X0000574896Y0002409917D02*
X0000574896Y0002413667D01*
X0000576771Y0002417416D01*
X0000578646Y0002419291D01*
X0000582395Y0002421166D01*
X0000589895Y0002423040D01*
X0000599268Y0002423040D01*
X0000606767Y0002421166D01*
X0000610517Y0002419291D01*
X0000612392Y0002417416D01*
X0000614266Y0002413667D01*
X0000614266Y0002409917D01*
X0000612392Y0002406167D01*
X0000610517Y0002404293D01*
X0000606767Y0002402418D01*
X0000599268Y0002400543D01*
X0000589895Y0002400543D01*
X0000582395Y0002402418D01*
X0000578646Y0002404293D01*
X0000576771Y0002406167D01*
X0000574896Y0002409917D01*
X0000614266Y0002460536D02*
X0000614266Y0002438038D01*
X0000614266Y0002449287D02*
X0000574896Y0002449287D01*
X0000580521Y0002445538D01*
X0000584270Y0002441788D01*
X0000586145Y0002438038D01*
X0000614266Y0002479283D02*
X0000614266Y0002486782D01*
X0000612392Y0002490532D01*
X0000610517Y0002492407D01*
X0000604893Y0002496156D01*
X0000597394Y0002498031D01*
X0000582395Y0002498031D01*
X0000578646Y0002496156D01*
X0000576771Y0002494281D01*
X0000574896Y0002490532D01*
X0000574896Y0002483033D01*
X0000576771Y0002479283D01*
X0000578646Y0002477409D01*
X0000582395Y0002475534D01*
X0000591769Y0002475534D01*
X0000595519Y0002477409D01*
X0000597394Y0002479283D01*
X0000599268Y0002483033D01*
X0000599268Y0002490532D01*
X0000597394Y0002494281D01*
X0000595519Y0002496156D01*
X0000591769Y0002498031D01*
D45*
X0000941286Y0002654171D03*
X0001075144Y0002654171D03*
X0001675144Y0002248856D03*
X0001541286Y0002248856D03*
D46*
X0001659160Y0003268856D03*
X0001659160Y0003368856D03*
X0001559159Y0003268856D03*
X0001559159Y0003368856D03*
X0001459160Y0003268856D03*
X0001459160Y0003368856D03*
X0001359160Y0003268856D03*
X0001359160Y0003368856D03*
X0001259160Y0003268856D03*
X0001259160Y0003368856D03*
X0001159160Y0003268856D03*
X0001159160Y0003368856D03*
X0001059160Y0003268856D03*
X0001059160Y0003368856D03*
X0000959160Y0003268856D03*
X0000959160Y0003368856D03*
X0000859160Y0003268856D03*
X0000859160Y0003368856D03*
X0000759160Y0003268856D03*
D47*
X0000759160Y0003368856D03*
D45*
X0001241286Y0003554800D03*
X0001375144Y0003554800D03*
X0001475144Y0003464800D03*
X0001341286Y0003464800D03*
X0001575144Y0003554800D03*
X0001441286Y0003554800D03*
X0001541286Y0003464800D03*
X0001675144Y0003464800D03*
X0000841285Y0003554800D03*
X0000975143Y0003554800D03*
X0001075144Y0003464800D03*
X0000941286Y0003464800D03*
X0001175144Y0003554800D03*
X0001041285Y0003554800D03*
X0001141286Y0003464800D03*
X0001275144Y0003464800D03*
X0000741285Y0003464800D03*
X0000875144Y0003464800D03*
D47*
X0000759160Y0002963541D03*
D46*
X0000759160Y0002863540D03*
X0000859160Y0002963541D03*
X0000859160Y0002863540D03*
X0000959160Y0002963541D03*
X0000959160Y0002863540D03*
X0001059160Y0002963541D03*
X0001059160Y0002863540D03*
X0001159160Y0002963541D03*
X0001159160Y0002863540D03*
X0001259160Y0002963541D03*
X0001259160Y0002863540D03*
X0001359160Y0002963541D03*
X0001359160Y0002863540D03*
X0001459160Y0002963541D03*
X0001459160Y0002863540D03*
X0001559159Y0002963541D03*
X0001559159Y0002863540D03*
X0001659160Y0002963541D03*
X0001659160Y0002863540D03*
D45*
X0001375144Y0003149485D03*
X0001241286Y0003149485D03*
X0001341286Y0003059484D03*
X0001475144Y0003059484D03*
X0001441286Y0003149485D03*
X0001575144Y0003149485D03*
X0001675144Y0003059484D03*
X0001541286Y0003059484D03*
X0000975143Y0003149485D03*
X0000841285Y0003149485D03*
X0000941286Y0003059484D03*
X0001075144Y0003059484D03*
X0001041285Y0003149485D03*
X0001175144Y0003149485D03*
X0001275144Y0003059484D03*
X0001141286Y0003059484D03*
X0000875144Y0003059484D03*
X0000741285Y0003059484D03*
D47*
X0000759160Y0002558226D03*
D46*
X0000759160Y0002458226D03*
X0000859160Y0002558226D03*
X0000859160Y0002458226D03*
X0000959160Y0002558226D03*
X0000959160Y0002458226D03*
X0001059160Y0002558226D03*
X0001059160Y0002458226D03*
X0001159160Y0002558226D03*
X0001159160Y0002458226D03*
X0001259160Y0002558226D03*
X0001259160Y0002458226D03*
X0001359160Y0002558226D03*
X0001359160Y0002458226D03*
X0001459160Y0002558226D03*
X0001459160Y0002458226D03*
X0001559159Y0002558226D03*
X0001559159Y0002458226D03*
X0001659160Y0002558226D03*
X0001659160Y0002458226D03*
D45*
X0001375144Y0002744171D03*
X0001241286Y0002744171D03*
X0001341286Y0002654171D03*
X0001475144Y0002654171D03*
X0001441286Y0002744171D03*
X0001575144Y0002744171D03*
X0001675144Y0002654171D03*
X0001541286Y0002654171D03*
X0000975143Y0002744171D03*
X0000841285Y0002744171D03*
X0001041285Y0002744171D03*
X0001175144Y0002744171D03*
X0001275144Y0002654171D03*
X0001141286Y0002654171D03*
X0000875144Y0002654171D03*
X0000741285Y0002654171D03*
X0000975143Y0002338856D03*
X0000841285Y0002338856D03*
X0001041285Y0002338856D03*
X0001175144Y0002338856D03*
X0001375144Y0002338856D03*
X0001241286Y0002338856D03*
X0001441286Y0002338856D03*
X0001575144Y0002338856D03*
X0000875144Y0002248856D03*
X0000741285Y0002248856D03*
X0000941286Y0002248856D03*
X0001075144Y0002248856D03*
X0001275144Y0002248856D03*
X0001141286Y0002248856D03*
X0001341286Y0002248856D03*
X0001475144Y0002248856D03*
D47*
X0000759160Y0002152911D03*
D46*
X0000759160Y0002052911D03*
X0000859160Y0002152911D03*
X0000859160Y0002052911D03*
X0000959160Y0002152911D03*
X0000959160Y0002052911D03*
X0001059160Y0002152911D03*
X0001059160Y0002052911D03*
X0001159160Y0002152911D03*
X0001159160Y0002052911D03*
X0001259160Y0002152911D03*
X0001259160Y0002052911D03*
X0001359160Y0002152911D03*
X0001359160Y0002052911D03*
X0001459160Y0002152911D03*
X0001459160Y0002052911D03*
X0001559159Y0002152911D03*
X0001559159Y0002052911D03*
X0001659160Y0002152911D03*
X0001659160Y0002052911D03*
D48*
X0001235826Y0003641732D03*
D49*
X0001135826Y0003641732D03*
X0001136220Y0003770866D03*
D48*
X0001236220Y0003770866D03*
X0001236220Y0003885433D03*
D49*
X0001136220Y0003885433D03*
D50*
X0000759160Y0002152911D02*
X0000759160Y0002230982D01*
X0000759160Y0002230982D02*
X0000741285Y0002248856D01*
X0000784115Y0003643800D02*
X0001110336Y0003643800D01*
X0000659115Y0003518800D02*
X0000784115Y0003643800D01*
X0000659170Y0002052911D02*
X0000659170Y0003487299D01*
X0000659170Y0003487299D02*
X0000659115Y0003487354D01*
X0000659115Y0003487354D02*
X0000659115Y0003518800D01*
X0000759160Y0002052911D02*
X0000659170Y0002052911D01*
X0001110336Y0003643800D02*
X0001112204Y0003645669D01*
X0001112204Y0003645669D02*
X0001135826Y0003669291D01*
X0001136220Y0003770866D02*
X0001136220Y0003885433D01*
X0001135826Y0003641732D02*
X0001136220Y0003770866D01*
X0000859160Y0002052911D02*
X0000759160Y0002052911D01*
X0000959160Y0002052911D02*
X0000859160Y0002052911D01*
X0001059160Y0002052911D02*
X0000959160Y0002052911D01*
X0001159160Y0002052911D02*
X0001059160Y0002052911D01*
X0001259160Y0002052911D02*
X0001159160Y0002052911D01*
X0001359160Y0002052911D02*
X0001259160Y0002052911D01*
X0001459160Y0002052911D02*
X0001359160Y0002052911D01*
X0001559159Y0002052911D02*
X0001459160Y0002052911D01*
X0001659160Y0002052911D02*
X0001559159Y0002052911D01*
X0000759160Y0002558226D02*
X0000759160Y0002636297D01*
X0000759160Y0002636297D02*
X0000741285Y0002654171D01*
X0000759160Y0002963541D02*
X0000759160Y0003041611D01*
X0000759160Y0003041611D02*
X0000741285Y0003059484D01*
X0000759160Y0003368856D02*
X0000759160Y0003446926D01*
X0000759160Y0003446926D02*
X0000741285Y0003464800D01*
X0000841285Y0002338856D02*
X0000841285Y0002282714D01*
X0000841285Y0002282714D02*
X0000875144Y0002248856D01*
X0000859160Y0002152911D02*
X0000859160Y0002232871D01*
X0000859160Y0002232871D02*
X0000875144Y0002248856D01*
X0000959160Y0002152911D02*
X0000959160Y0002230982D01*
X0000959160Y0002230982D02*
X0000941286Y0002248856D01*
X0000975143Y0002338856D02*
X0000975143Y0002282714D01*
X0000975143Y0002282714D02*
X0000941286Y0002248856D01*
X0001041285Y0002338856D02*
X0001041285Y0002282714D01*
X0001041285Y0002282714D02*
X0001075144Y0002248856D01*
X0001059160Y0002152911D02*
X0001059160Y0002232871D01*
X0001059160Y0002232871D02*
X0001075144Y0002248856D01*
X0001159160Y0002152911D02*
X0001159160Y0002230982D01*
X0001159160Y0002230982D02*
X0001141286Y0002248856D01*
X0001175144Y0002338856D02*
X0001175144Y0002282714D01*
X0001175144Y0002282714D02*
X0001141286Y0002248856D01*
X0001241286Y0002338856D02*
X0001241286Y0002282714D01*
X0001241286Y0002282714D02*
X0001275144Y0002248856D01*
X0001259160Y0002152911D02*
X0001259160Y0002232871D01*
X0001259160Y0002232871D02*
X0001275144Y0002248856D01*
X0001359160Y0002152911D02*
X0001359160Y0002230982D01*
X0001359160Y0002230982D02*
X0001341286Y0002248856D01*
X0001375144Y0002338856D02*
X0001375144Y0002282714D01*
X0001375144Y0002282714D02*
X0001341286Y0002248856D01*
X0001441286Y0002338856D02*
X0001441286Y0002282714D01*
X0001441286Y0002282714D02*
X0001475144Y0002248856D01*
X0001459160Y0002152911D02*
X0001459160Y0002232871D01*
X0001459160Y0002232871D02*
X0001475144Y0002248856D01*
X0001559159Y0002152911D02*
X0001559159Y0002230982D01*
X0001559159Y0002230982D02*
X0001541286Y0002248856D01*
X0001575144Y0002338856D02*
X0001575144Y0002282714D01*
X0001575144Y0002282714D02*
X0001541286Y0002248856D01*
X0001659160Y0002458226D02*
X0001659160Y0002264840D01*
X0000759160Y0002458226D02*
X0001659160Y0002458226D01*
X0001659160Y0002264840D02*
X0001675144Y0002248856D01*
X0001659160Y0002152911D02*
X0001659160Y0002232871D01*
X0001659160Y0002232871D02*
X0001675144Y0002248856D01*
X0000859160Y0002558226D02*
X0000859160Y0002638186D01*
X0000859160Y0002638186D02*
X0000875144Y0002654171D01*
X0000841285Y0002744171D02*
X0000841285Y0002688029D01*
X0000841285Y0002688029D02*
X0000875144Y0002654171D01*
X0000959160Y0002558226D02*
X0000959160Y0002636297D01*
X0000959160Y0002636297D02*
X0000941286Y0002654171D01*
X0000975143Y0002744171D02*
X0000975143Y0002688029D01*
X0000975143Y0002688029D02*
X0000941286Y0002654171D01*
X0001059160Y0002558226D02*
X0001059160Y0002638186D01*
X0001059160Y0002638186D02*
X0001075144Y0002654171D01*
X0001041285Y0002744171D02*
X0001041285Y0002688029D01*
X0001041285Y0002688029D02*
X0001075144Y0002654171D01*
X0001159160Y0002558226D02*
X0001159160Y0002636297D01*
X0001159160Y0002636297D02*
X0001141286Y0002654171D01*
X0001175144Y0002744171D02*
X0001175144Y0002688029D01*
X0001175144Y0002688029D02*
X0001141286Y0002654171D01*
X0001259160Y0002558226D02*
X0001259160Y0002638186D01*
X0001259160Y0002638186D02*
X0001275144Y0002654171D01*
X0001241286Y0002744171D02*
X0001241286Y0002688029D01*
X0001241286Y0002688029D02*
X0001275144Y0002654171D01*
X0001359160Y0002558226D02*
X0001359160Y0002636297D01*
X0001359160Y0002636297D02*
X0001341286Y0002654171D01*
X0001375144Y0002744171D02*
X0001375144Y0002688029D01*
X0001375144Y0002688029D02*
X0001341286Y0002654171D01*
X0001459160Y0002558226D02*
X0001459160Y0002638186D01*
X0001459160Y0002638186D02*
X0001475144Y0002654171D01*
X0001441286Y0002744171D02*
X0001441286Y0002688029D01*
X0001441286Y0002688029D02*
X0001475144Y0002654171D01*
X0001559159Y0002558226D02*
X0001559159Y0002636297D01*
X0001559159Y0002636297D02*
X0001541286Y0002654171D01*
X0001575144Y0002744171D02*
X0001575144Y0002688029D01*
X0001575144Y0002688029D02*
X0001541286Y0002654171D01*
X0001659160Y0002863540D02*
X0001659160Y0002670155D01*
X0001159160Y0002863540D02*
X0001659160Y0002863540D01*
X0001059160Y0002863540D02*
X0001159160Y0002863540D01*
X0000959160Y0002863540D02*
X0001059160Y0002863540D01*
X0000859160Y0002863540D02*
X0000959160Y0002863540D01*
X0000759160Y0002863540D02*
X0000859160Y0002863540D01*
X0001659160Y0002670155D02*
X0001675144Y0002654171D01*
X0001659160Y0002558226D02*
X0001659160Y0002638186D01*
X0001659160Y0002638186D02*
X0001675144Y0002654171D01*
X0000841285Y0003149485D02*
X0000841285Y0003093344D01*
X0000841285Y0003093344D02*
X0000875144Y0003059484D01*
X0000859160Y0002963541D02*
X0000859160Y0003043501D01*
X0000859160Y0003043501D02*
X0000875144Y0003059484D01*
X0000975143Y0003149485D02*
X0000975143Y0003093344D01*
X0000975143Y0003093344D02*
X0000941286Y0003059484D01*
X0000959160Y0002963541D02*
X0000959160Y0003041611D01*
X0000959160Y0003041611D02*
X0000941286Y0003059484D01*
X0001041285Y0003149485D02*
X0001041285Y0003093344D01*
X0001041285Y0003093344D02*
X0001075144Y0003059484D01*
X0001059160Y0002963541D02*
X0001059160Y0003043501D01*
X0001059160Y0003043501D02*
X0001075144Y0003059484D01*
X0001175144Y0003149485D02*
X0001175144Y0003093344D01*
X0001175144Y0003093344D02*
X0001141286Y0003059484D01*
X0001159160Y0002963541D02*
X0001159160Y0003041611D01*
X0001159160Y0003041611D02*
X0001141286Y0003059484D01*
X0001241286Y0003149485D02*
X0001241286Y0003093344D01*
X0001241286Y0003093344D02*
X0001275144Y0003059484D01*
X0001259160Y0002963541D02*
X0001259160Y0003043501D01*
X0001259160Y0003043501D02*
X0001275144Y0003059484D01*
X0001375144Y0003149485D02*
X0001375144Y0003093344D01*
X0001375144Y0003093344D02*
X0001341286Y0003059484D01*
X0001359160Y0002963541D02*
X0001359160Y0003041611D01*
X0001359160Y0003041611D02*
X0001341286Y0003059484D01*
X0001441286Y0003149485D02*
X0001441286Y0003093344D01*
X0001441286Y0003093344D02*
X0001475144Y0003059484D01*
X0001459160Y0002963541D02*
X0001459160Y0003043501D01*
X0001459160Y0003043501D02*
X0001475144Y0003059484D01*
X0001575144Y0003149485D02*
X0001575144Y0003093344D01*
X0001575144Y0003093344D02*
X0001541286Y0003059484D01*
X0001559159Y0002963541D02*
X0001559159Y0003041611D01*
X0001559159Y0003041611D02*
X0001541286Y0003059484D01*
X0001659160Y0003268856D02*
X0001659160Y0003075470D01*
X0001659160Y0003075470D02*
X0001675144Y0003059484D01*
X0001659160Y0002963541D02*
X0001659160Y0003043501D01*
X0001659160Y0003043501D02*
X0001675144Y0003059484D01*
X0000841285Y0003554800D02*
X0000841285Y0003498659D01*
X0000841285Y0003498659D02*
X0000875144Y0003464800D01*
X0000859160Y0003368856D02*
X0000859160Y0003448816D01*
X0000859160Y0003448816D02*
X0000875144Y0003464800D01*
X0000975143Y0003554800D02*
X0000975143Y0003498659D01*
X0000975143Y0003498659D02*
X0000941286Y0003464800D01*
X0000959160Y0003368856D02*
X0000959160Y0003446926D01*
X0000959160Y0003446926D02*
X0000941286Y0003464800D01*
X0001041285Y0003554800D02*
X0001041285Y0003498659D01*
X0001041285Y0003498659D02*
X0001075144Y0003464800D01*
X0001059160Y0003368856D02*
X0001059160Y0003448816D01*
X0001059160Y0003448816D02*
X0001075144Y0003464800D01*
X0001175144Y0003554800D02*
X0001175144Y0003498659D01*
X0001175144Y0003498659D02*
X0001141286Y0003464800D01*
X0001159160Y0003368856D02*
X0001159160Y0003446926D01*
X0001159160Y0003446926D02*
X0001141286Y0003464800D01*
X0001241286Y0003554800D02*
X0001241286Y0003498659D01*
X0001241286Y0003498659D02*
X0001275144Y0003464800D01*
X0001259160Y0003368856D02*
X0001259160Y0003448816D01*
X0001259160Y0003448816D02*
X0001275144Y0003464800D01*
X0001375144Y0003554800D02*
X0001375144Y0003498659D01*
X0001375144Y0003498659D02*
X0001341286Y0003464800D01*
X0001359160Y0003368856D02*
X0001359160Y0003446926D01*
X0001359160Y0003446926D02*
X0001341286Y0003464800D01*
X0001441286Y0003554800D02*
X0001441286Y0003498659D01*
X0001441286Y0003498659D02*
X0001475144Y0003464800D01*
X0001459160Y0003368856D02*
X0001459160Y0003448816D01*
X0001459160Y0003448816D02*
X0001475144Y0003464800D01*
X0001575144Y0003554800D02*
X0001575144Y0003498659D01*
X0001575144Y0003498659D02*
X0001541286Y0003464800D01*
X0001559159Y0003368856D02*
X0001559159Y0003446926D01*
X0001559159Y0003446926D02*
X0001541286Y0003464800D01*
X0001675144Y0003464800D02*
X0001675144Y0003577771D01*
X0001675144Y0003577771D02*
X0001609115Y0003643800D01*
X0001609115Y0003643800D02*
X0001261317Y0003643800D01*
X0001261317Y0003643800D02*
X0001235826Y0003669291D01*
X0001236220Y0003770866D02*
X0001236220Y0003885433D01*
X0001235826Y0003641732D02*
X0001236220Y0003770866D01*
X0001659160Y0003368856D02*
X0001659160Y0003448816D01*
X0001659160Y0003448816D02*
X0001675144Y0003464800D01*
M02*