%MOIN*%
%OFA0B0*%
%FSLAX46Y46*%
%IPPOS*%
%LPD*%
%ADD10C,0.005905511811023622*%
%ADD11O,0.07874015748031496X0.07874015748031496*%
%ADD12R,0.07874015748031496X0.07874015748031496*%
%ADD13R,0.08X0.08*%
%ADD14O,0.08X0.08*%
%ADD25C,0.005905511811023622*%
%ADD26O,0.07874015748031496X0.07874015748031496*%
%ADD27R,0.07874015748031496X0.07874015748031496*%
%ADD28R,0.08X0.08*%
%ADD29O,0.08X0.08*%
%ADD40C,0.005905511811023622*%
%ADD41O,0.07874015748031496X0.07874015748031496*%
%ADD42R,0.07874015748031496X0.07874015748031496*%
%ADD43R,0.08X0.08*%
%ADD44O,0.08X0.08*%
%LPD*%
G01G01*
D10*
D11*
X0001968503Y0002519685D02*
X0003268856Y0001411705D03*
X0003368856Y0001411705D03*
X0003268856Y0001511705D03*
X0003368856Y0001511705D03*
X0003268856Y0001611705D03*
X0003368856Y0001611705D03*
X0003268856Y0001711705D03*
X0003368856Y0001711705D03*
X0003268856Y0001811705D03*
X0003368856Y0001811705D03*
X0003268856Y0001911705D03*
X0003368856Y0001911705D03*
X0003268856Y0002011705D03*
X0003368856Y0002011705D03*
X0003268856Y0002111705D03*
X0003368856Y0002111705D03*
X0003268856Y0002211705D03*
X0003368856Y0002211705D03*
X0003268856Y0002311705D03*
D12*
X0003368856Y0002311705D03*
X0002963541Y0002311705D03*
D11*
X0002863541Y0002311705D03*
X0002963541Y0002211705D03*
X0002863541Y0002211705D03*
X0002963541Y0002111705D03*
X0002863541Y0002111705D03*
X0002963541Y0002011705D03*
X0002863541Y0002011705D03*
X0002963541Y0001911705D03*
X0002863541Y0001911705D03*
X0002963541Y0001811705D03*
X0002863541Y0001811705D03*
X0002963541Y0001711705D03*
X0002863541Y0001711705D03*
X0002963541Y0001611705D03*
X0002863541Y0001611705D03*
X0002963541Y0001511705D03*
X0002863541Y0001511705D03*
X0002963541Y0001411705D03*
X0002863541Y0001411705D03*
D12*
X0002558226Y0002311705D03*
D11*
X0002458226Y0002311705D03*
X0002558226Y0002211705D03*
X0002458226Y0002211705D03*
X0002558226Y0002111705D03*
X0002458226Y0002111705D03*
X0002558226Y0002011705D03*
X0002458226Y0002011705D03*
X0002558226Y0001911705D03*
X0002458226Y0001911705D03*
X0002558226Y0001811705D03*
X0002458226Y0001811705D03*
X0002558226Y0001711705D03*
X0002458226Y0001711705D03*
X0002558226Y0001611705D03*
X0002458226Y0001611705D03*
X0002558226Y0001511705D03*
X0002458226Y0001511705D03*
X0002558226Y0001411705D03*
X0002458226Y0001411705D03*
D12*
X0002152911Y0002311705D03*
D11*
X0002052911Y0002311705D03*
X0002152911Y0002211705D03*
X0002052911Y0002211705D03*
X0002152911Y0002111705D03*
X0002052911Y0002111705D03*
X0002152911Y0002011705D03*
X0002052911Y0002011705D03*
X0002152911Y0001911705D03*
X0002052911Y0001911705D03*
X0002152911Y0001811705D03*
X0002052911Y0001811705D03*
X0002152911Y0001711705D03*
X0002052911Y0001711705D03*
X0002152911Y0001611705D03*
X0002052911Y0001611705D03*
X0002152911Y0001511705D03*
X0002052911Y0001511705D03*
X0002152911Y0001411705D03*
X0002052911Y0001411705D03*
D13*
X0003641732Y0001835039D03*
D14*
X0003641732Y0001935039D03*
X0003770866Y0001934645D03*
D13*
X0003770866Y0001834645D03*
X0003885433Y0001834645D03*
D14*
X0003885433Y0001934645D03*
G04 next file*
G01G01G01G01*
D25*
D26*
X0001968503Y0003937007D02*
X0003268856Y0002829028D03*
X0003368856Y0002829028D03*
X0003268856Y0002929028D03*
X0003368856Y0002929028D03*
X0003268856Y0003029028D03*
X0003368856Y0003029028D03*
X0003268856Y0003129028D03*
X0003368856Y0003129028D03*
X0003268856Y0003229028D03*
X0003368856Y0003229028D03*
X0003268856Y0003329028D03*
X0003368856Y0003329028D03*
X0003268856Y0003429027D03*
X0003368856Y0003429027D03*
X0003268856Y0003529027D03*
X0003368856Y0003529027D03*
X0003268856Y0003629028D03*
X0003368856Y0003629028D03*
X0003268856Y0003729028D03*
D27*
X0003368856Y0003729028D03*
X0002963541Y0003729028D03*
D26*
X0002863540Y0003729028D03*
X0002963541Y0003629028D03*
X0002863540Y0003629028D03*
X0002963541Y0003529027D03*
X0002863540Y0003529027D03*
X0002963541Y0003429027D03*
X0002863540Y0003429027D03*
X0002963541Y0003329028D03*
X0002863540Y0003329028D03*
X0002963541Y0003229028D03*
X0002863540Y0003229028D03*
X0002963541Y0003129028D03*
X0002863540Y0003129028D03*
X0002963541Y0003029028D03*
X0002863540Y0003029028D03*
X0002963541Y0002929028D03*
X0002863540Y0002929028D03*
X0002963541Y0002829028D03*
X0002863540Y0002829028D03*
D27*
X0002558226Y0003729028D03*
D26*
X0002458226Y0003729028D03*
X0002558226Y0003629028D03*
X0002458226Y0003629028D03*
X0002558226Y0003529027D03*
X0002458226Y0003529027D03*
X0002558226Y0003429027D03*
X0002458226Y0003429027D03*
X0002558226Y0003329028D03*
X0002458226Y0003329028D03*
X0002558226Y0003229028D03*
X0002458226Y0003229028D03*
X0002558226Y0003129028D03*
X0002458226Y0003129028D03*
X0002558226Y0003029028D03*
X0002458226Y0003029028D03*
X0002558226Y0002929028D03*
X0002458226Y0002929028D03*
X0002558226Y0002829028D03*
X0002458226Y0002829028D03*
D27*
X0002152911Y0003729028D03*
D26*
X0002052911Y0003729028D03*
X0002152911Y0003629028D03*
X0002052911Y0003629028D03*
X0002152911Y0003529027D03*
X0002052911Y0003529027D03*
X0002152911Y0003429027D03*
X0002052911Y0003429027D03*
X0002152911Y0003329028D03*
X0002052911Y0003329028D03*
X0002152911Y0003229028D03*
X0002052911Y0003229028D03*
X0002152911Y0003129028D03*
X0002052911Y0003129028D03*
X0002152911Y0003029028D03*
X0002052911Y0003029028D03*
X0002152911Y0002929028D03*
X0002052911Y0002929028D03*
X0002152911Y0002829028D03*
X0002052911Y0002829028D03*
D28*
X0003641732Y0003252362D03*
D29*
X0003641732Y0003352362D03*
X0003770866Y0003351968D03*
D28*
X0003770866Y0003251968D03*
X0003885433Y0003251968D03*
D29*
X0003885433Y0003351968D03*
G04 next file*
G04 #@! TF.FileFunction,Soldermask,Bot*
G04 Gerber Fmt 4.6, Leading zero omitted, Abs format (unit mm)*
G04 Created by KiCad (PCBNEW (2016-10-28 revision 192d4b8)-makepkg) date 11/16/16 20:27:21*
G01G01G01G01*
G04 APERTURE LIST*
G04 APERTURE END LIST*
D40*
D41*
X0000551181Y0001968503D02*
X0001659160Y0003268856D03*
X0001659160Y0003368856D03*
X0001559159Y0003268856D03*
X0001559159Y0003368856D03*
X0001459160Y0003268856D03*
X0001459160Y0003368856D03*
X0001359160Y0003268856D03*
X0001359160Y0003368856D03*
X0001259160Y0003268856D03*
X0001259160Y0003368856D03*
X0001159160Y0003268856D03*
X0001159160Y0003368856D03*
X0001059160Y0003268856D03*
X0001059160Y0003368856D03*
X0000959160Y0003268856D03*
X0000959160Y0003368856D03*
X0000859160Y0003268856D03*
X0000859160Y0003368856D03*
X0000759160Y0003268856D03*
D42*
X0000759160Y0003368856D03*
X0000759160Y0002963541D03*
D41*
X0000759160Y0002863540D03*
X0000859160Y0002963541D03*
X0000859160Y0002863540D03*
X0000959160Y0002963541D03*
X0000959160Y0002863540D03*
X0001059160Y0002963541D03*
X0001059160Y0002863540D03*
X0001159160Y0002963541D03*
X0001159160Y0002863540D03*
X0001259160Y0002963541D03*
X0001259160Y0002863540D03*
X0001359160Y0002963541D03*
X0001359160Y0002863540D03*
X0001459160Y0002963541D03*
X0001459160Y0002863540D03*
X0001559159Y0002963541D03*
X0001559159Y0002863540D03*
X0001659160Y0002963541D03*
X0001659160Y0002863540D03*
D42*
X0000759160Y0002558226D03*
D41*
X0000759160Y0002458226D03*
X0000859160Y0002558226D03*
X0000859160Y0002458226D03*
X0000959160Y0002558226D03*
X0000959160Y0002458226D03*
X0001059160Y0002558226D03*
X0001059160Y0002458226D03*
X0001159160Y0002558226D03*
X0001159160Y0002458226D03*
X0001259160Y0002558226D03*
X0001259160Y0002458226D03*
X0001359160Y0002558226D03*
X0001359160Y0002458226D03*
X0001459160Y0002558226D03*
X0001459160Y0002458226D03*
X0001559159Y0002558226D03*
X0001559159Y0002458226D03*
X0001659160Y0002558226D03*
X0001659160Y0002458226D03*
D42*
X0000759160Y0002152911D03*
D41*
X0000759160Y0002052911D03*
X0000859160Y0002152911D03*
X0000859160Y0002052911D03*
X0000959160Y0002152911D03*
X0000959160Y0002052911D03*
X0001059160Y0002152911D03*
X0001059160Y0002052911D03*
X0001159160Y0002152911D03*
X0001159160Y0002052911D03*
X0001259160Y0002152911D03*
X0001259160Y0002052911D03*
X0001359160Y0002152911D03*
X0001359160Y0002052911D03*
X0001459160Y0002152911D03*
X0001459160Y0002052911D03*
X0001559159Y0002152911D03*
X0001559159Y0002052911D03*
X0001659160Y0002152911D03*
X0001659160Y0002052911D03*
D43*
X0001235826Y0003641732D03*
D44*
X0001135826Y0003641732D03*
X0001136220Y0003770866D03*
D43*
X0001236220Y0003770866D03*
X0001236220Y0003885433D03*
D44*
X0001136220Y0003885433D03*
M02*