%
M48
METRIC,000.000
T01C0.99
T02C1.02
T03C0.99
T04C1.02
T05C0.99
T06C1.02
T07C0.50
%
T01
X052143Y094716
X052143Y092176
X052143Y089636
X052143Y087096
X052143Y084556
X052143Y082016
X052143Y079476
X052143Y076936
X052143Y074396
X052143Y071856
X054683Y094716
X054683Y092176
X054683Y089636
X054683Y087096
X054683Y084556
X054683Y082016
X054683Y079476
X054683Y076936
X054683Y074396
X054683Y071856
X062438Y094716
X062438Y092176
X062438Y089636
X062438Y087096
X062438Y084556
X062438Y082016
X062438Y079476
X062438Y076936
X062438Y074396
X062438Y071856
X064977Y094716
X064977Y092176
X064977Y089636
X064977Y087096
X064977Y084556
X064977Y082016
X064977Y079476
X064977Y076936
X064977Y074396
X064977Y071856
X072733Y094716
X072733Y092176
X072733Y089636
X072733Y087096
X072733Y084556
X072733Y082016
X072733Y079476
X072733Y076936
X072733Y074396
X072733Y071856
X075273Y094716
X075273Y092176
X075273Y089636
X075273Y087096
X075273Y084556
X075273Y082016
X075273Y079476
X075273Y076936
X075273Y074396
X075273Y071856
X083030Y094716
X083030Y092176
X083030Y089636
X083030Y087096
X083030Y084556
X083030Y082016
X083030Y079476
X083030Y076936
X083030Y074396
X083030Y071856
X085570Y094716
X085570Y092176
X085570Y089636
X085570Y087096
X085570Y084556
X085570Y082016
X085570Y079476
X085570Y076936
X085570Y074396
X085570Y071856
T02
X092499Y085151
X092499Y082611
X095780Y085141
X095780Y082601
X098689Y085141
X098689Y082601
T03
X019283Y052143
X021823Y052143
X024363Y052143
X026903Y052143
X029443Y052143
X031983Y052143
X034523Y052143
X037063Y052143
X039603Y052143
X042143Y052143
X019283Y054683
X021823Y054683
X024363Y054683
X026903Y054683
X029443Y054683
X031983Y054683
X034523Y054683
X037063Y054683
X039603Y054683
X042143Y054683
X019283Y062438
X021823Y062438
X024363Y062438
X026903Y062438
X029443Y062438
X031983Y062438
X034523Y062438
X037063Y062438
X039603Y062438
X042143Y062438
X019283Y064977
X021823Y064977
X024363Y064977
X026903Y064977
X029443Y064977
X031983Y064977
X034523Y064977
X037063Y064977
X039603Y064977
X042143Y064977
X019283Y072733
X021823Y072733
X024363Y072733
X026903Y072733
X029443Y072733
X031983Y072733
X034523Y072733
X037063Y072733
X039603Y072733
X042143Y072733
X019283Y075273
X021823Y075273
X024363Y075273
X026903Y075273
X029443Y075273
X031983Y075273
X034523Y075273
X037063Y075273
X039603Y075273
X042143Y075273
X019283Y083030
X021823Y083030
X024363Y083030
X026903Y083030
X029443Y083030
X031983Y083030
X034523Y083030
X037063Y083030
X039603Y083030
X042143Y083030
X019283Y085570
X021823Y085570
X024363Y085570
X026903Y085570
X029443Y085570
X031983Y085570
X034523Y085570
X037063Y085570
X039603Y085570
X042143Y085570
T04
X028848Y092499
X031388Y092499
X028859Y095780
X031399Y095780
X028859Y098689
X031399Y098689
T05
X052143Y058716
X052143Y056176
X052143Y053636
X052143Y051096
X052143Y048556
X052143Y046016
X052143Y043476
X052143Y040936
X052143Y038396
X052143Y035856
X054683Y058716
X054683Y056176
X054683Y053636
X054683Y051096
X054683Y048556
X054683Y046016
X054683Y043476
X054683Y040936
X054683Y038396
X054683Y035856
X062438Y058716
X062438Y056176
X062438Y053636
X062438Y051096
X062438Y048556
X062438Y046016
X062438Y043476
X062438Y040936
X062438Y038396
X062438Y035856
X064977Y058716
X064977Y056176
X064977Y053636
X064977Y051096
X064977Y048556
X064977Y046016
X064977Y043476
X064977Y040936
X064977Y038396
X064977Y035856
X072733Y058716
X072733Y056176
X072733Y053636
X072733Y051096
X072733Y048556
X072733Y046016
X072733Y043476
X072733Y040936
X072733Y038396
X072733Y035856
X075273Y058716
X075273Y056176
X075273Y053636
X075273Y051096
X075273Y048556
X075273Y046016
X075273Y043476
X075273Y040936
X075273Y038396
X075273Y035856
X083030Y058716
X083030Y056176
X083030Y053636
X083030Y051096
X083030Y048556
X083030Y046016
X083030Y043476
X083030Y040936
X083030Y038396
X083030Y035856
X085570Y058716
X085570Y056176
X085570Y053636
X085570Y051096
X085570Y048556
X085570Y046016
X085570Y043476
X085570Y040936
X085570Y038396
X085570Y035856
T06
X092499Y049151
X092499Y046611
X095780Y049141
X095780Y046601
X098689Y049141
X098689Y046601
T07
X047250Y054607
X047250Y055607
X047250Y056607
X047250Y057607
X047250Y058607
X047250Y059607
X049750Y059914
X049750Y058914
X049750Y057914
X049750Y056914
X049750Y055914
X049750Y054914
X049750Y053914
X049750Y083914
X049750Y082914
X049750Y081914
X049750Y080914
X049750Y079914
X049750Y078914
X049750Y077914
X047250Y078607
X047250Y079607
X047250Y080607
X047250Y081607
X047250Y082607
X047250Y083607
X084693Y066750
X085693Y066750
X086693Y066750
X087693Y066750
X088693Y066750
X089693Y066750
X089521Y064250
X088521Y064250
X087521Y064250
X086521Y064250
X085521Y064250
X084521Y064250
M30