%MOIN*%
%OFA0B0*%
%FSLAX46Y46*%
%IPPOS*%
%LPD*%
%ADD10C,0.005905511811023622*%
%ADD11C,0.0070866141732283464*%
%ADD12C,0.013779527559055118*%
%ADD13O,0.07874015748031496X0.07874015748031496*%
%ADD14R,0.07874015748031496X0.07874015748031496*%
%ADD15R,0.08X0.08*%
%ADD16O,0.08X0.08*%
%ADD27C,0.005905511811023622*%
%ADD28C,0.0070866141732283464*%
%ADD29C,0.013779527559055118*%
%ADD30O,0.07874015748031496X0.07874015748031496*%
%ADD31R,0.07874015748031496X0.07874015748031496*%
%ADD32R,0.08X0.08*%
%ADD33O,0.08X0.08*%
%ADD44C,0.005905511811023622*%
%ADD45C,0.0070866141732283464*%
%ADD46C,0.013779527559055118*%
%ADD47O,0.07874015748031496X0.07874015748031496*%
%ADD48R,0.07874015748031496X0.07874015748031496*%
%ADD49R,0.08X0.08*%
%ADD50O,0.08X0.08*%
%LPD*%
G01G01*
D10*
D11*
X0003481356Y0001821829D02*
X0003481356Y0001790333D01*
X0003490730Y0001839827D02*
X0003500104Y0001806081D01*
X0003475732Y0001806081D01*
D10*
X0003558856Y0001961705D02*
X0003418856Y0001961705D01*
D11*
X0003479482Y0001937577D02*
X0003498229Y0001937577D01*
X0003500104Y0001915080D01*
X0003498229Y0001917330D01*
X0003494480Y0001919579D01*
X0003485106Y0001919579D01*
X0003481356Y0001917330D01*
X0003479482Y0001915080D01*
X0003477607Y0001910580D01*
X0003477607Y0001899332D01*
X0003479482Y0001894832D01*
X0003481356Y0001892583D01*
X0003485106Y0001890333D01*
X0003494480Y0001890333D01*
X0003498229Y0001892583D01*
X0003500104Y0001894832D01*
X0003481356Y0002037577D02*
X0003488856Y0002037577D01*
X0003492605Y0002035327D01*
X0003494480Y0002033078D01*
X0003498229Y0002026328D01*
X0003500104Y0002017330D01*
X0003500104Y0001999332D01*
X0003498229Y0001994832D01*
X0003496355Y0001992583D01*
X0003492605Y0001990333D01*
X0003485106Y0001990333D01*
X0003481356Y0001992583D01*
X0003479482Y0001994832D01*
X0003477607Y0001999332D01*
X0003477607Y0002010580D01*
X0003479482Y0002015080D01*
X0003481356Y0002017330D01*
X0003485106Y0002019579D01*
X0003492605Y0002019579D01*
X0003496355Y0002017330D01*
X0003498229Y0002015080D01*
X0003500104Y0002010580D01*
D10*
X0003558856Y0001861705D02*
X0003418856Y0001861705D01*
X0003558856Y0002061705D02*
X0003418856Y0002061705D01*
D11*
X0003501979Y0002137577D02*
X0003475732Y0002137577D01*
X0003492605Y0002090333D01*
D10*
X0003558856Y0002261705D02*
X0003418856Y0002261705D01*
D11*
X0003492605Y0002217330D02*
X0003496355Y0002219579D01*
X0003498229Y0002221829D01*
X0003500104Y0002226328D01*
X0003500104Y0002228578D01*
X0003498229Y0002233078D01*
X0003496355Y0002235327D01*
X0003492605Y0002237577D01*
X0003485106Y0002237577D01*
X0003481356Y0002235327D01*
X0003479482Y0002233078D01*
X0003477607Y0002228578D01*
X0003477607Y0002226328D01*
X0003479482Y0002221829D01*
X0003481356Y0002219579D01*
X0003485106Y0002217330D01*
X0003492605Y0002217330D01*
X0003496355Y0002215080D01*
X0003498229Y0002212830D01*
X0003500104Y0002208331D01*
X0003500104Y0002199332D01*
X0003498229Y0002194832D01*
X0003496355Y0002192583D01*
X0003492605Y0002190333D01*
X0003485106Y0002190333D01*
X0003481356Y0002192583D01*
X0003479482Y0002194832D01*
X0003477607Y0002199332D01*
X0003477607Y0002208331D01*
X0003479482Y0002212830D01*
X0003481356Y0002215080D01*
X0003485106Y0002217330D01*
D10*
X0003558856Y0002161705D02*
X0003418856Y0002161705D01*
X0003558856Y0002361705D02*
X0003418856Y0002361705D01*
D11*
X0003496355Y0002290333D02*
X0003488856Y0002290333D01*
X0003485106Y0002292583D01*
X0003483231Y0002294832D01*
X0003479482Y0002301582D01*
X0003477607Y0002310580D01*
X0003477607Y0002328578D01*
X0003479482Y0002333078D01*
X0003481356Y0002335327D01*
X0003485106Y0002337577D01*
X0003492605Y0002337577D01*
X0003496355Y0002335327D01*
X0003498229Y0002333078D01*
X0003500104Y0002328578D01*
X0003500104Y0002317330D01*
X0003498229Y0002312830D01*
X0003496355Y0002310580D01*
X0003492605Y0002308331D01*
X0003485106Y0002308331D01*
X0003481356Y0002310580D01*
X0003479482Y0002312830D01*
X0003477607Y0002317330D01*
D10*
X0003558856Y0002361705D02*
X0003558856Y0001361705D01*
X0003558856Y0001761705D02*
X0003418856Y0001761705D01*
D11*
X0003501979Y0001737577D02*
X0003477607Y0001737577D01*
X0003490730Y0001719579D01*
X0003485106Y0001719579D01*
X0003481356Y0001717330D01*
X0003479482Y0001715080D01*
X0003477607Y0001710580D01*
X0003477607Y0001699332D01*
X0003479482Y0001694832D01*
X0003481356Y0001692583D01*
X0003485106Y0001690333D01*
X0003496355Y0001690333D01*
X0003500104Y0001692583D01*
X0003501979Y0001694832D01*
D10*
X0003558856Y0001661705D02*
X0003418856Y0001661705D01*
X0003558856Y0001561705D02*
X0003418856Y0001561705D01*
D11*
X0003500104Y0001633078D02*
X0003498229Y0001635327D01*
X0003494480Y0001637577D01*
X0003485106Y0001637577D01*
X0003481356Y0001635327D01*
X0003479482Y0001633078D01*
X0003477607Y0001628578D01*
X0003477607Y0001624079D01*
X0003479482Y0001617330D01*
X0003501979Y0001590333D01*
X0003477607Y0001590333D01*
D12*
X0003378788Y0001256130D02*
X0003423783Y0001256130D01*
X0003401285Y0001256130D02*
X0003401285Y0001334870D01*
X0003408785Y0001323621D01*
X0003416284Y0001316122D01*
X0003423783Y0001312373D01*
X0003330044Y0001334870D02*
X0003322545Y0001334870D01*
X0003315046Y0001331120D01*
X0003311297Y0001327371D01*
X0003307547Y0001319872D01*
X0003303798Y0001304873D01*
X0003303798Y0001286126D01*
X0003307547Y0001271128D01*
X0003311297Y0001263629D01*
X0003315046Y0001259879D01*
X0003322545Y0001256130D01*
X0003330044Y0001256130D01*
X0003337543Y0001259879D01*
X0003341293Y0001263629D01*
X0003345042Y0001271128D01*
X0003348792Y0001286126D01*
X0003348792Y0001304873D01*
X0003345042Y0001319872D01*
X0003341293Y0001327371D01*
X0003337543Y0001331120D01*
X0003330044Y0001334870D01*
X0003270052Y0001256130D02*
X0003270052Y0001334870D01*
X0003262553Y0001286126D02*
X0003240056Y0001256130D01*
X0003240056Y0001308623D02*
X0003270052Y0001278627D01*
D11*
X0003477607Y0001490333D02*
X0003500104Y0001490333D01*
X0003488856Y0001490333D02*
X0003488856Y0001537577D01*
X0003492605Y0001530828D01*
X0003496355Y0001526328D01*
X0003500104Y0001524079D01*
D10*
X0003558856Y0001461705D02*
X0003418856Y0001461705D01*
D11*
X0003490730Y0001437577D02*
X0003486981Y0001437577D01*
X0003483231Y0001435327D01*
X0003481356Y0001433078D01*
X0003479482Y0001428578D01*
X0003477607Y0001419579D01*
X0003477607Y0001408331D01*
X0003479482Y0001399332D01*
X0003481356Y0001394832D01*
X0003483231Y0001392583D01*
X0003486981Y0001390333D01*
X0003490730Y0001390333D01*
X0003494480Y0001392583D01*
X0003496355Y0001394832D01*
X0003498229Y0001399332D01*
X0003500104Y0001408331D01*
X0003500104Y0001419579D01*
X0003498229Y0001428578D01*
X0003496355Y0001433078D01*
X0003494480Y0001435327D01*
X0003490730Y0001437577D01*
D10*
X0003558856Y0001361705D02*
X0003418856Y0001361705D01*
D11*
X0003076042Y0001821829D02*
X0003076042Y0001790333D01*
X0003085415Y0001839827D02*
X0003094789Y0001806081D01*
X0003070417Y0001806081D01*
D10*
X0003153541Y0001961705D02*
X0003013541Y0001961705D01*
D11*
X0003074167Y0001937577D02*
X0003092914Y0001937577D01*
X0003094789Y0001915080D01*
X0003092914Y0001917330D01*
X0003089165Y0001919579D01*
X0003079791Y0001919579D01*
X0003076042Y0001917330D01*
X0003074167Y0001915080D01*
X0003072292Y0001910580D01*
X0003072292Y0001899332D01*
X0003074167Y0001894832D01*
X0003076042Y0001892583D01*
X0003079791Y0001890333D01*
X0003089165Y0001890333D01*
X0003092914Y0001892583D01*
X0003094789Y0001894832D01*
X0003076042Y0002037577D02*
X0003083541Y0002037577D01*
X0003087290Y0002035327D01*
X0003089165Y0002033078D01*
X0003092914Y0002026328D01*
X0003094789Y0002017330D01*
X0003094789Y0001999332D01*
X0003092914Y0001994832D01*
X0003091040Y0001992583D01*
X0003087290Y0001990333D01*
X0003079791Y0001990333D01*
X0003076042Y0001992583D01*
X0003074167Y0001994832D01*
X0003072292Y0001999332D01*
X0003072292Y0002010580D01*
X0003074167Y0002015080D01*
X0003076042Y0002017330D01*
X0003079791Y0002019579D01*
X0003087290Y0002019579D01*
X0003091040Y0002017330D01*
X0003092914Y0002015080D01*
X0003094789Y0002010580D01*
D10*
X0003153541Y0001861705D02*
X0003013541Y0001861705D01*
X0003153541Y0002061705D02*
X0003013541Y0002061705D01*
D11*
X0003096664Y0002137577D02*
X0003070417Y0002137577D01*
X0003087290Y0002090333D01*
D10*
X0003153541Y0002261705D02*
X0003013541Y0002261705D01*
D11*
X0003087290Y0002217330D02*
X0003091040Y0002219579D01*
X0003092914Y0002221829D01*
X0003094789Y0002226328D01*
X0003094789Y0002228578D01*
X0003092914Y0002233078D01*
X0003091040Y0002235327D01*
X0003087290Y0002237577D01*
X0003079791Y0002237577D01*
X0003076042Y0002235327D01*
X0003074167Y0002233078D01*
X0003072292Y0002228578D01*
X0003072292Y0002226328D01*
X0003074167Y0002221829D01*
X0003076042Y0002219579D01*
X0003079791Y0002217330D01*
X0003087290Y0002217330D01*
X0003091040Y0002215080D01*
X0003092914Y0002212830D01*
X0003094789Y0002208331D01*
X0003094789Y0002199332D01*
X0003092914Y0002194832D01*
X0003091040Y0002192583D01*
X0003087290Y0002190333D01*
X0003079791Y0002190333D01*
X0003076042Y0002192583D01*
X0003074167Y0002194832D01*
X0003072292Y0002199332D01*
X0003072292Y0002208331D01*
X0003074167Y0002212830D01*
X0003076042Y0002215080D01*
X0003079791Y0002217330D01*
D10*
X0003153541Y0002161705D02*
X0003013541Y0002161705D01*
X0003153541Y0002361705D02*
X0003013541Y0002361705D01*
D11*
X0003091040Y0002290333D02*
X0003083541Y0002290333D01*
X0003079791Y0002292583D01*
X0003077916Y0002294832D01*
X0003074167Y0002301582D01*
X0003072292Y0002310580D01*
X0003072292Y0002328578D01*
X0003074167Y0002333078D01*
X0003076042Y0002335327D01*
X0003079791Y0002337577D01*
X0003087290Y0002337577D01*
X0003091040Y0002335327D01*
X0003092914Y0002333078D01*
X0003094789Y0002328578D01*
X0003094789Y0002317330D01*
X0003092914Y0002312830D01*
X0003091040Y0002310580D01*
X0003087290Y0002308331D01*
X0003079791Y0002308331D01*
X0003076042Y0002310580D01*
X0003074167Y0002312830D01*
X0003072292Y0002317330D01*
D10*
X0003153541Y0002361705D02*
X0003153541Y0001361705D01*
X0003153541Y0001761705D02*
X0003013541Y0001761705D01*
D11*
X0003096664Y0001737577D02*
X0003072292Y0001737577D01*
X0003085415Y0001719579D01*
X0003079791Y0001719579D01*
X0003076042Y0001717330D01*
X0003074167Y0001715080D01*
X0003072292Y0001710580D01*
X0003072292Y0001699332D01*
X0003074167Y0001694832D01*
X0003076042Y0001692583D01*
X0003079791Y0001690333D01*
X0003091040Y0001690333D01*
X0003094789Y0001692583D01*
X0003096664Y0001694832D01*
D10*
X0003153541Y0001661705D02*
X0003013541Y0001661705D01*
X0003153541Y0001561705D02*
X0003013541Y0001561705D01*
D11*
X0003094789Y0001633078D02*
X0003092914Y0001635327D01*
X0003089165Y0001637577D01*
X0003079791Y0001637577D01*
X0003076042Y0001635327D01*
X0003074167Y0001633078D01*
X0003072292Y0001628578D01*
X0003072292Y0001624079D01*
X0003074167Y0001617330D01*
X0003096664Y0001590333D01*
X0003072292Y0001590333D01*
D12*
X0002899536Y0001256130D02*
X0002944531Y0001256130D01*
X0002922033Y0001256130D02*
X0002922033Y0001334870D01*
X0002929533Y0001323621D01*
X0002937032Y0001316122D01*
X0002944531Y0001312373D01*
X0002865790Y0001256130D02*
X0002865790Y0001334870D01*
X0002858291Y0001286126D02*
X0002835794Y0001256130D01*
X0002835794Y0001308623D02*
X0002865790Y0001278627D01*
D11*
X0003072292Y0001490333D02*
X0003094789Y0001490333D01*
X0003083541Y0001490333D02*
X0003083541Y0001537577D01*
X0003087290Y0001530828D01*
X0003091040Y0001526328D01*
X0003094789Y0001524079D01*
D10*
X0003153541Y0001461705D02*
X0003013541Y0001461705D01*
D11*
X0003085415Y0001437577D02*
X0003081666Y0001437577D01*
X0003077916Y0001435327D01*
X0003076042Y0001433078D01*
X0003074167Y0001428578D01*
X0003072292Y0001419579D01*
X0003072292Y0001408331D01*
X0003074167Y0001399332D01*
X0003076042Y0001394832D01*
X0003077916Y0001392583D01*
X0003081666Y0001390333D01*
X0003085415Y0001390333D01*
X0003089165Y0001392583D01*
X0003091040Y0001394832D01*
X0003092914Y0001399332D01*
X0003094789Y0001408331D01*
X0003094789Y0001419579D01*
X0003092914Y0001428578D01*
X0003091040Y0001433078D01*
X0003089165Y0001435327D01*
X0003085415Y0001437577D01*
D10*
X0003153541Y0001361705D02*
X0003013541Y0001361705D01*
D11*
X0002670727Y0001821829D02*
X0002670727Y0001790333D01*
X0002680100Y0001839827D02*
X0002689474Y0001806081D01*
X0002665102Y0001806081D01*
D10*
X0002748226Y0001961705D02*
X0002608226Y0001961705D01*
D11*
X0002668852Y0001937577D02*
X0002687599Y0001937577D01*
X0002689474Y0001915080D01*
X0002687599Y0001917330D01*
X0002683850Y0001919579D01*
X0002674476Y0001919579D01*
X0002670727Y0001917330D01*
X0002668852Y0001915080D01*
X0002666977Y0001910580D01*
X0002666977Y0001899332D01*
X0002668852Y0001894832D01*
X0002670727Y0001892583D01*
X0002674476Y0001890333D01*
X0002683850Y0001890333D01*
X0002687599Y0001892583D01*
X0002689474Y0001894832D01*
X0002670727Y0002037577D02*
X0002678226Y0002037577D01*
X0002681975Y0002035327D01*
X0002683850Y0002033078D01*
X0002687599Y0002026328D01*
X0002689474Y0002017330D01*
X0002689474Y0001999332D01*
X0002687599Y0001994832D01*
X0002685725Y0001992583D01*
X0002681975Y0001990333D01*
X0002674476Y0001990333D01*
X0002670727Y0001992583D01*
X0002668852Y0001994832D01*
X0002666977Y0001999332D01*
X0002666977Y0002010580D01*
X0002668852Y0002015080D01*
X0002670727Y0002017330D01*
X0002674476Y0002019579D01*
X0002681975Y0002019579D01*
X0002685725Y0002017330D01*
X0002687599Y0002015080D01*
X0002689474Y0002010580D01*
D10*
X0002748226Y0001861705D02*
X0002608226Y0001861705D01*
X0002748226Y0002061705D02*
X0002608226Y0002061705D01*
D11*
X0002691349Y0002137577D02*
X0002665102Y0002137577D01*
X0002681975Y0002090333D01*
D10*
X0002748226Y0002261705D02*
X0002608226Y0002261705D01*
D11*
X0002681975Y0002217330D02*
X0002685725Y0002219579D01*
X0002687599Y0002221829D01*
X0002689474Y0002226328D01*
X0002689474Y0002228578D01*
X0002687599Y0002233078D01*
X0002685725Y0002235327D01*
X0002681975Y0002237577D01*
X0002674476Y0002237577D01*
X0002670727Y0002235327D01*
X0002668852Y0002233078D01*
X0002666977Y0002228578D01*
X0002666977Y0002226328D01*
X0002668852Y0002221829D01*
X0002670727Y0002219579D01*
X0002674476Y0002217330D01*
X0002681975Y0002217330D01*
X0002685725Y0002215080D01*
X0002687599Y0002212830D01*
X0002689474Y0002208331D01*
X0002689474Y0002199332D01*
X0002687599Y0002194832D01*
X0002685725Y0002192583D01*
X0002681975Y0002190333D01*
X0002674476Y0002190333D01*
X0002670727Y0002192583D01*
X0002668852Y0002194832D01*
X0002666977Y0002199332D01*
X0002666977Y0002208331D01*
X0002668852Y0002212830D01*
X0002670727Y0002215080D01*
X0002674476Y0002217330D01*
D10*
X0002748226Y0002161705D02*
X0002608226Y0002161705D01*
X0002748226Y0002361705D02*
X0002608226Y0002361705D01*
D11*
X0002685725Y0002290333D02*
X0002678226Y0002290333D01*
X0002674476Y0002292583D01*
X0002672601Y0002294832D01*
X0002668852Y0002301582D01*
X0002666977Y0002310580D01*
X0002666977Y0002328578D01*
X0002668852Y0002333078D01*
X0002670727Y0002335327D01*
X0002674476Y0002337577D01*
X0002681975Y0002337577D01*
X0002685725Y0002335327D01*
X0002687599Y0002333078D01*
X0002689474Y0002328578D01*
X0002689474Y0002317330D01*
X0002687599Y0002312830D01*
X0002685725Y0002310580D01*
X0002681975Y0002308331D01*
X0002674476Y0002308331D01*
X0002670727Y0002310580D01*
X0002668852Y0002312830D01*
X0002666977Y0002317330D01*
D10*
X0002748226Y0002361705D02*
X0002748226Y0001361705D01*
X0002748226Y0001761705D02*
X0002608226Y0001761705D01*
D11*
X0002691349Y0001737577D02*
X0002666977Y0001737577D01*
X0002680100Y0001719579D01*
X0002674476Y0001719579D01*
X0002670727Y0001717330D01*
X0002668852Y0001715080D01*
X0002666977Y0001710580D01*
X0002666977Y0001699332D01*
X0002668852Y0001694832D01*
X0002670727Y0001692583D01*
X0002674476Y0001690333D01*
X0002685725Y0001690333D01*
X0002689474Y0001692583D01*
X0002691349Y0001694832D01*
D10*
X0002748226Y0001661705D02*
X0002608226Y0001661705D01*
X0002748226Y0001561705D02*
X0002608226Y0001561705D01*
D11*
X0002689474Y0001633078D02*
X0002687599Y0001635327D01*
X0002683850Y0001637577D01*
X0002674476Y0001637577D01*
X0002670727Y0001635327D01*
X0002668852Y0001633078D01*
X0002666977Y0001628578D01*
X0002666977Y0001624079D01*
X0002668852Y0001617330D01*
X0002691349Y0001590333D01*
X0002666977Y0001590333D01*
D12*
X0002570127Y0001256130D02*
X0002615121Y0001256130D01*
X0002592624Y0001256130D02*
X0002592624Y0001334870D01*
X0002600123Y0001323621D01*
X0002607622Y0001316122D01*
X0002615121Y0001312373D01*
X0002521383Y0001334870D02*
X0002513884Y0001334870D01*
X0002506385Y0001331120D01*
X0002502635Y0001327371D01*
X0002498886Y0001319872D01*
X0002495136Y0001304873D01*
X0002495136Y0001286126D01*
X0002498886Y0001271128D01*
X0002502635Y0001263629D01*
X0002506385Y0001259879D01*
X0002513884Y0001256130D01*
X0002521383Y0001256130D01*
X0002528882Y0001259879D01*
X0002532631Y0001263629D01*
X0002536381Y0001271128D01*
X0002540131Y0001286126D01*
X0002540131Y0001304873D01*
X0002536381Y0001319872D01*
X0002532631Y0001327371D01*
X0002528882Y0001331120D01*
X0002521383Y0001334870D01*
X0002446392Y0001334870D02*
X0002438893Y0001334870D01*
X0002431394Y0001331120D01*
X0002427645Y0001327371D01*
X0002423895Y0001319872D01*
X0002420146Y0001304873D01*
X0002420146Y0001286126D01*
X0002423895Y0001271128D01*
X0002427645Y0001263629D01*
X0002431394Y0001259879D01*
X0002438893Y0001256130D01*
X0002446392Y0001256130D01*
X0002453891Y0001259879D01*
X0002457641Y0001263629D01*
X0002461390Y0001271128D01*
X0002465140Y0001286126D01*
X0002465140Y0001304873D01*
X0002461390Y0001319872D01*
X0002457641Y0001327371D01*
X0002453891Y0001331120D01*
X0002446392Y0001334870D01*
D11*
X0002666977Y0001490333D02*
X0002689474Y0001490333D01*
X0002678226Y0001490333D02*
X0002678226Y0001537577D01*
X0002681975Y0001530828D01*
X0002685725Y0001526328D01*
X0002689474Y0001524079D01*
D10*
X0002748226Y0001461705D02*
X0002608226Y0001461705D01*
D11*
X0002680100Y0001437577D02*
X0002676351Y0001437577D01*
X0002672601Y0001435327D01*
X0002670727Y0001433078D01*
X0002668852Y0001428578D01*
X0002666977Y0001419579D01*
X0002666977Y0001408331D01*
X0002668852Y0001399332D01*
X0002670727Y0001394832D01*
X0002672601Y0001392583D01*
X0002676351Y0001390333D01*
X0002680100Y0001390333D01*
X0002683850Y0001392583D01*
X0002685725Y0001394832D01*
X0002687599Y0001399332D01*
X0002689474Y0001408331D01*
X0002689474Y0001419579D01*
X0002687599Y0001428578D01*
X0002685725Y0001433078D01*
X0002683850Y0001435327D01*
X0002680100Y0001437577D01*
D10*
X0002748226Y0001361705D02*
X0002608226Y0001361705D01*
D11*
X0002274785Y0001437577D02*
X0002271036Y0001437577D01*
X0002267286Y0001435327D01*
X0002265412Y0001433078D01*
X0002263537Y0001428578D01*
X0002261662Y0001419579D01*
X0002261662Y0001408331D01*
X0002263537Y0001399332D01*
X0002265412Y0001394832D01*
X0002267286Y0001392583D01*
X0002271036Y0001390333D01*
X0002274785Y0001390333D01*
X0002278535Y0001392583D01*
X0002280410Y0001394832D01*
X0002282285Y0001399332D01*
X0002284159Y0001408331D01*
X0002284159Y0001419579D01*
X0002282285Y0001428578D01*
X0002280410Y0001433078D01*
X0002278535Y0001435327D01*
X0002274785Y0001437577D01*
X0002261662Y0001490333D02*
X0002284159Y0001490333D01*
X0002272911Y0001490333D02*
X0002272911Y0001537577D01*
X0002276660Y0001530828D01*
X0002280410Y0001526328D01*
X0002284159Y0001524079D01*
X0002284159Y0001633078D02*
X0002282285Y0001635327D01*
X0002278535Y0001637577D01*
X0002269161Y0001637577D01*
X0002265412Y0001635327D01*
X0002263537Y0001633078D01*
X0002261662Y0001628578D01*
X0002261662Y0001624079D01*
X0002263537Y0001617330D01*
X0002286034Y0001590333D01*
X0002261662Y0001590333D01*
X0002286034Y0001737577D02*
X0002261662Y0001737577D01*
X0002274785Y0001719579D01*
X0002269161Y0001719579D01*
X0002265412Y0001717330D01*
X0002263537Y0001715080D01*
X0002261662Y0001710580D01*
X0002261662Y0001699332D01*
X0002263537Y0001694832D01*
X0002265412Y0001692583D01*
X0002269161Y0001690333D01*
X0002280410Y0001690333D01*
X0002284159Y0001692583D01*
X0002286034Y0001694832D01*
X0002265412Y0001821829D02*
X0002265412Y0001790333D01*
X0002274785Y0001839827D02*
X0002284159Y0001806081D01*
X0002259787Y0001806081D01*
X0002263537Y0001937577D02*
X0002282285Y0001937577D01*
X0002284159Y0001915080D01*
X0002282285Y0001917330D01*
X0002278535Y0001919579D01*
X0002269161Y0001919579D01*
X0002265412Y0001917330D01*
X0002263537Y0001915080D01*
X0002261662Y0001910580D01*
X0002261662Y0001899332D01*
X0002263537Y0001894832D01*
X0002265412Y0001892583D01*
X0002269161Y0001890333D01*
X0002278535Y0001890333D01*
X0002282285Y0001892583D01*
X0002284159Y0001894832D01*
X0002265412Y0002037577D02*
X0002272911Y0002037577D01*
X0002276660Y0002035327D01*
X0002278535Y0002033078D01*
X0002282285Y0002026328D01*
X0002284159Y0002017330D01*
X0002284159Y0001999332D01*
X0002282285Y0001994832D01*
X0002280410Y0001992583D01*
X0002276660Y0001990333D01*
X0002269161Y0001990333D01*
X0002265412Y0001992583D01*
X0002263537Y0001994832D01*
X0002261662Y0001999332D01*
X0002261662Y0002010580D01*
X0002263537Y0002015080D01*
X0002265412Y0002017330D01*
X0002269161Y0002019579D01*
X0002276660Y0002019579D01*
X0002280410Y0002017330D01*
X0002282285Y0002015080D01*
X0002284159Y0002010580D01*
X0002286034Y0002137577D02*
X0002259787Y0002137577D01*
X0002276660Y0002090333D01*
X0002276660Y0002217330D02*
X0002280410Y0002219579D01*
X0002282285Y0002221829D01*
X0002284159Y0002226328D01*
X0002284159Y0002228578D01*
X0002282285Y0002233078D01*
X0002280410Y0002235327D01*
X0002276660Y0002237577D01*
X0002269161Y0002237577D01*
X0002265412Y0002235327D01*
X0002263537Y0002233078D01*
X0002261662Y0002228578D01*
X0002261662Y0002226328D01*
X0002263537Y0002221829D01*
X0002265412Y0002219579D01*
X0002269161Y0002217330D01*
X0002276660Y0002217330D01*
X0002280410Y0002215080D01*
X0002282285Y0002212830D01*
X0002284159Y0002208331D01*
X0002284159Y0002199332D01*
X0002282285Y0002194832D01*
X0002280410Y0002192583D01*
X0002276660Y0002190333D01*
X0002269161Y0002190333D01*
X0002265412Y0002192583D01*
X0002263537Y0002194832D01*
X0002261662Y0002199332D01*
X0002261662Y0002208331D01*
X0002263537Y0002212830D01*
X0002265412Y0002215080D01*
X0002269161Y0002217330D01*
D10*
X0002342911Y0002361705D02*
X0002342911Y0001361705D01*
X0002342911Y0001361705D02*
X0002202911Y0001361705D01*
X0002342911Y0001461705D02*
X0002202911Y0001461705D01*
X0002342911Y0001561705D02*
X0002202911Y0001561705D01*
X0002342911Y0001661705D02*
X0002202911Y0001661705D01*
X0002342911Y0001761705D02*
X0002202911Y0001761705D01*
X0002342911Y0001861705D02*
X0002202911Y0001861705D01*
X0002342911Y0001961705D02*
X0002202911Y0001961705D01*
X0002342911Y0002061705D02*
X0002202911Y0002061705D01*
X0002342911Y0002161705D02*
X0002202911Y0002161705D01*
X0002342911Y0002261705D02*
X0002202911Y0002261705D01*
X0002342911Y0002361705D02*
X0002202911Y0002361705D01*
D12*
X0003273464Y0002397539D02*
X0003273464Y0002495965D01*
X0003254716Y0002495965D01*
X0003243468Y0002491278D01*
X0003235969Y0002481904D01*
X0003232219Y0002472530D01*
X0003228470Y0002453782D01*
X0003228470Y0002439722D01*
X0003232219Y0002420974D01*
X0003235969Y0002411600D01*
X0003243468Y0002402226D01*
X0003254716Y0002397539D01*
X0003273464Y0002397539D01*
X0003164727Y0002402226D02*
X0003172227Y0002397539D01*
X0003187225Y0002397539D01*
X0003194724Y0002402226D01*
X0003198473Y0002411600D01*
X0003198473Y0002449095D01*
X0003194724Y0002458469D01*
X0003187225Y0002463156D01*
X0003172227Y0002463156D01*
X0003164727Y0002458469D01*
X0003160978Y0002449095D01*
X0003160978Y0002439722D01*
X0003198473Y0002430348D01*
X0003127232Y0002397539D02*
X0003127232Y0002495965D01*
X0003119733Y0002435035D02*
X0003097236Y0002397539D01*
X0003097236Y0002463156D02*
X0003127232Y0002425661D01*
X0003029744Y0002397539D02*
X0003029744Y0002449095D01*
X0003033494Y0002458469D01*
X0003040993Y0002463156D01*
X0003055991Y0002463156D01*
X0003063490Y0002458469D01*
X0003029744Y0002402226D02*
X0003037243Y0002397539D01*
X0003055991Y0002397539D01*
X0003063490Y0002402226D01*
X0003067240Y0002411600D01*
X0003067240Y0002420974D01*
X0003063490Y0002430348D01*
X0003055991Y0002435035D01*
X0003037243Y0002435035D01*
X0003029744Y0002439722D01*
X0002958503Y0002397539D02*
X0002958503Y0002495965D01*
X0002958503Y0002402226D02*
X0002966002Y0002397539D01*
X0002981000Y0002397539D01*
X0002988500Y0002402226D01*
X0002992249Y0002406913D01*
X0002995999Y0002416287D01*
X0002995999Y0002444409D01*
X0002992249Y0002453782D01*
X0002988500Y0002458469D01*
X0002981000Y0002463156D01*
X0002966002Y0002463156D01*
X0002958503Y0002458469D01*
X0002887262Y0002397539D02*
X0002887262Y0002449095D01*
X0002891012Y0002458469D01*
X0002898511Y0002463156D01*
X0002913509Y0002463156D01*
X0002921008Y0002458469D01*
X0002887262Y0002402226D02*
X0002894761Y0002397539D01*
X0002913509Y0002397539D01*
X0002921008Y0002402226D01*
X0002924757Y0002411600D01*
X0002924757Y0002420974D01*
X0002921008Y0002430348D01*
X0002913509Y0002435035D01*
X0002894761Y0002435035D01*
X0002887262Y0002439722D01*
X0002786025Y0002397539D02*
X0002771027Y0002397539D01*
X0002763528Y0002402226D01*
X0002759778Y0002406913D01*
X0002752279Y0002420974D01*
X0002748530Y0002439722D01*
X0002748530Y0002477217D01*
X0002752279Y0002486591D01*
X0002756029Y0002491278D01*
X0002763528Y0002495965D01*
X0002778526Y0002495965D01*
X0002786025Y0002491278D01*
X0002789774Y0002486591D01*
X0002793524Y0002477217D01*
X0002793524Y0002453782D01*
X0002789774Y0002444409D01*
X0002786025Y0002439722D01*
X0002778526Y0002435035D01*
X0002763528Y0002435035D01*
X0002756029Y0002439722D01*
X0002752279Y0002444409D01*
X0002748530Y0002453782D01*
X0002711034Y0002397539D02*
X0002696036Y0002397539D01*
X0002688537Y0002402226D01*
X0002684787Y0002406913D01*
X0002677288Y0002420974D01*
X0002673539Y0002439722D01*
X0002673539Y0002477217D01*
X0002677288Y0002486591D01*
X0002681038Y0002491278D01*
X0002688537Y0002495965D01*
X0002703535Y0002495965D01*
X0002711034Y0002491278D01*
X0002714784Y0002486591D01*
X0002718533Y0002477217D01*
X0002718533Y0002453782D01*
X0002714784Y0002444409D01*
X0002711034Y0002439722D01*
X0002703535Y0002435035D01*
X0002688537Y0002435035D01*
X0002681038Y0002439722D01*
X0002677288Y0002444409D01*
X0002673539Y0002453782D01*
X0002639793Y0002397539D02*
X0002639793Y0002495965D01*
X0002632294Y0002435035D02*
X0002609797Y0002397539D01*
X0002609797Y0002463156D02*
X0002639793Y0002425661D01*
X0002572302Y0002397539D02*
X0002557303Y0002397539D01*
X0002549804Y0002402226D01*
X0002546055Y0002406913D01*
X0002538556Y0002420974D01*
X0002534806Y0002439722D01*
X0002534806Y0002477217D01*
X0002538556Y0002486591D01*
X0002542305Y0002491278D01*
X0002549804Y0002495965D01*
X0002564802Y0002495965D01*
X0002572302Y0002491278D01*
X0002576051Y0002486591D01*
X0002579801Y0002477217D01*
X0002579801Y0002453782D01*
X0002576051Y0002444409D01*
X0002572302Y0002439722D01*
X0002564802Y0002435035D01*
X0002549804Y0002435035D01*
X0002542305Y0002439722D01*
X0002538556Y0002444409D01*
X0002534806Y0002453782D01*
X0002497311Y0002397539D02*
X0002482313Y0002397539D01*
X0002474814Y0002402226D01*
X0002471064Y0002406913D01*
X0002463565Y0002420974D01*
X0002459816Y0002439722D01*
X0002459816Y0002477217D01*
X0002463565Y0002486591D01*
X0002467315Y0002491278D01*
X0002474814Y0002495965D01*
X0002489812Y0002495965D01*
X0002497311Y0002491278D01*
X0002501060Y0002486591D01*
X0002504810Y0002477217D01*
X0002504810Y0002453782D01*
X0002501060Y0002444409D01*
X0002497311Y0002439722D01*
X0002489812Y0002435035D01*
X0002474814Y0002435035D01*
X0002467315Y0002439722D01*
X0002463565Y0002444409D01*
X0002459816Y0002453782D01*
X0002366077Y0002435035D02*
X0002306085Y0002435035D01*
X0002167352Y0002397539D02*
X0002212347Y0002397539D01*
X0002189849Y0002397539D02*
X0002189849Y0002495965D01*
X0002197348Y0002481904D01*
X0002204847Y0002472530D01*
X0002212347Y0002467843D01*
X0002118608Y0002495965D02*
X0002111109Y0002495965D01*
X0002103610Y0002491278D01*
X0002099861Y0002486591D01*
X0002096111Y0002477217D01*
X0002092362Y0002458469D01*
X0002092362Y0002435035D01*
X0002096111Y0002416287D01*
X0002099861Y0002406913D01*
X0002103610Y0002402226D01*
X0002111109Y0002397539D01*
X0002118608Y0002397539D01*
X0002126107Y0002402226D01*
X0002129857Y0002406913D01*
X0002133606Y0002416287D01*
X0002137356Y0002435035D01*
X0002137356Y0002458469D01*
X0002133606Y0002477217D01*
X0002129857Y0002486591D01*
X0002126107Y0002491278D01*
X0002118608Y0002495965D01*
X0002013621Y0002397539D02*
X0002039868Y0002444409D01*
X0002058616Y0002397539D02*
X0002058616Y0002495965D01*
X0002028620Y0002495965D01*
X0002021120Y0002491278D01*
X0002017371Y0002486591D01*
X0002013621Y0002477217D01*
X0002013621Y0002463156D01*
X0002017371Y0002453782D01*
X0002021120Y0002449095D01*
X0002028620Y0002444409D01*
X0002058616Y0002444409D01*
D11*
X0002280410Y0002290333D02*
X0002272911Y0002290333D01*
X0002269161Y0002292583D01*
X0002267286Y0002294832D01*
X0002263537Y0002301582D01*
X0002261662Y0002310580D01*
X0002261662Y0002328578D01*
X0002263537Y0002333078D01*
X0002265412Y0002335327D01*
X0002269161Y0002337577D01*
X0002276660Y0002337577D01*
X0002280410Y0002335327D01*
X0002282285Y0002333078D01*
X0002284159Y0002328578D01*
X0002284159Y0002317330D01*
X0002282285Y0002312830D01*
X0002280410Y0002310580D01*
X0002276660Y0002308331D01*
X0002269161Y0002308331D01*
X0002265412Y0002310580D01*
X0002263537Y0002312830D01*
X0002261662Y0002317330D01*
D12*
X0002088906Y0001256130D02*
X0002133901Y0001256130D01*
X0002111404Y0001256130D02*
X0002111404Y0001334870D01*
X0002118903Y0001323621D01*
X0002126402Y0001316122D01*
X0002133901Y0001312373D01*
X0002040162Y0001334870D02*
X0002032663Y0001334870D01*
X0002025164Y0001331120D01*
X0002021415Y0001327371D01*
X0002017665Y0001319872D01*
X0002013916Y0001304873D01*
X0002013916Y0001286126D01*
X0002017665Y0001271128D01*
X0002021415Y0001263629D01*
X0002025164Y0001259879D01*
X0002032663Y0001256130D01*
X0002040162Y0001256130D01*
X0002047662Y0001259879D01*
X0002051411Y0001263629D01*
X0002055161Y0001271128D01*
X0002058910Y0001286126D01*
X0002058910Y0001304873D01*
X0002055161Y0001319872D01*
X0002051411Y0001327371D01*
X0002047662Y0001331120D01*
X0002040162Y0001334870D01*
D10*
X0003218856Y0001361705D02*
X0003218856Y0002361705D01*
X0003418856Y0002261705D02*
X0003418856Y0001361705D01*
X0003218856Y0001361705D02*
X0003418856Y0001361705D01*
X0003218856Y0002361705D02*
X0003318856Y0002361705D01*
X0003318856Y0002361705D02*
X0003318856Y0002261705D01*
X0003318856Y0002261705D02*
X0003418856Y0002261705D01*
X0003338856Y0002361705D02*
X0003418856Y0002361705D01*
X0003418856Y0002361705D02*
X0003418856Y0002281705D01*
X0003013541Y0002361705D02*
X0003013541Y0002281705D01*
X0002933541Y0002361705D02*
X0003013541Y0002361705D01*
X0002913541Y0002261705D02*
X0003013541Y0002261705D01*
X0002913541Y0002361705D02*
X0002913541Y0002261705D01*
X0002813541Y0002361705D02*
X0002913541Y0002361705D01*
X0002813541Y0001361705D02*
X0003013541Y0001361705D01*
X0003013541Y0002261705D02*
X0003013541Y0001361705D01*
X0002813541Y0001361705D02*
X0002813541Y0002361705D01*
X0002608226Y0002361705D02*
X0002608226Y0002281705D01*
X0002528226Y0002361705D02*
X0002608226Y0002361705D01*
X0002508226Y0002261705D02*
X0002608226Y0002261705D01*
X0002508226Y0002361705D02*
X0002508226Y0002261705D01*
X0002408226Y0002361705D02*
X0002508226Y0002361705D01*
X0002408226Y0001361705D02*
X0002608226Y0001361705D01*
X0002608226Y0002261705D02*
X0002608226Y0001361705D01*
X0002408226Y0001361705D02*
X0002408226Y0002361705D01*
X0002202911Y0002361705D02*
X0002202911Y0002281705D01*
X0002122911Y0002361705D02*
X0002202911Y0002361705D01*
X0002102911Y0002261705D02*
X0002202911Y0002261705D01*
X0002102911Y0002361705D02*
X0002102911Y0002261705D01*
X0002002911Y0002361705D02*
X0002102911Y0002361705D01*
X0002002911Y0001361705D02*
X0002202911Y0001361705D01*
X0002202911Y0002261705D02*
X0002202911Y0001361705D01*
X0002002911Y0001361705D02*
X0002002911Y0002361705D01*
X0003591732Y0001985039D02*
X0003691732Y0001985039D01*
X0003591732Y0001885039D02*
X0003591732Y0001985039D01*
X0003580708Y0001774015D02*
X0003702755Y0001774015D01*
X0003580708Y0001835039D02*
X0003580708Y0001774015D01*
X0003691732Y0001885039D02*
X0003591732Y0001885039D01*
X0003702755Y0001774015D02*
X0003702755Y0001835039D01*
X0003691732Y0001885039D02*
X0003691732Y0001985039D01*
X0003820866Y0001884645D02*
X0003820866Y0001984645D01*
X0003831889Y0001773622D02*
X0003831889Y0001834645D01*
X0003820866Y0001884645D02*
X0003720866Y0001884645D01*
X0003709842Y0001834645D02*
X0003709842Y0001773622D01*
X0003709842Y0001773622D02*
X0003831889Y0001773622D01*
X0003720866Y0001884645D02*
X0003720866Y0001984645D01*
X0003720866Y0001984645D02*
X0003820866Y0001984645D01*
%LPC*%
D13*
X0003268856Y0001411705D03*
X0003368856Y0001411705D03*
X0003268856Y0001511705D03*
X0003368856Y0001511705D03*
X0003268856Y0001611705D03*
X0003368856Y0001611705D03*
X0003268856Y0001711705D03*
X0003368856Y0001711705D03*
X0003268856Y0001811705D03*
X0003368856Y0001811705D03*
X0003268856Y0001911705D03*
X0003368856Y0001911705D03*
X0003268856Y0002011705D03*
X0003368856Y0002011705D03*
X0003268856Y0002111705D03*
X0003368856Y0002111705D03*
X0003268856Y0002211705D03*
X0003368856Y0002211705D03*
X0003268856Y0002311705D03*
D14*
X0003368856Y0002311705D03*
X0002963541Y0002311705D03*
D13*
X0002863541Y0002311705D03*
X0002963541Y0002211705D03*
X0002863541Y0002211705D03*
X0002963541Y0002111705D03*
X0002863541Y0002111705D03*
X0002963541Y0002011705D03*
X0002863541Y0002011705D03*
X0002963541Y0001911705D03*
X0002863541Y0001911705D03*
X0002963541Y0001811705D03*
X0002863541Y0001811705D03*
X0002963541Y0001711705D03*
X0002863541Y0001711705D03*
X0002963541Y0001611705D03*
X0002863541Y0001611705D03*
X0002963541Y0001511705D03*
X0002863541Y0001511705D03*
X0002963541Y0001411705D03*
X0002863541Y0001411705D03*
D14*
X0002558226Y0002311705D03*
D13*
X0002458226Y0002311705D03*
X0002558226Y0002211705D03*
X0002458226Y0002211705D03*
X0002558226Y0002111705D03*
X0002458226Y0002111705D03*
X0002558226Y0002011705D03*
X0002458226Y0002011705D03*
X0002558226Y0001911705D03*
X0002458226Y0001911705D03*
X0002558226Y0001811705D03*
X0002458226Y0001811705D03*
X0002558226Y0001711705D03*
X0002458226Y0001711705D03*
X0002558226Y0001611705D03*
X0002458226Y0001611705D03*
X0002558226Y0001511705D03*
X0002458226Y0001511705D03*
X0002558226Y0001411705D03*
X0002458226Y0001411705D03*
D14*
X0002152911Y0002311705D03*
D13*
X0002052911Y0002311705D03*
X0002152911Y0002211705D03*
X0002052911Y0002211705D03*
X0002152911Y0002111705D03*
X0002052911Y0002111705D03*
X0002152911Y0002011705D03*
X0002052911Y0002011705D03*
X0002152911Y0001911705D03*
X0002052911Y0001911705D03*
X0002152911Y0001811705D03*
X0002052911Y0001811705D03*
X0002152911Y0001711705D03*
X0002052911Y0001711705D03*
X0002152911Y0001611705D03*
X0002052911Y0001611705D03*
X0002152911Y0001511705D03*
X0002052911Y0001511705D03*
X0002152911Y0001411705D03*
X0002052911Y0001411705D03*
D15*
X0003641732Y0001835039D03*
D16*
X0003641732Y0001935039D03*
X0003770866Y0001934645D03*
D15*
X0003770866Y0001834645D03*
X0003885433Y0001834645D03*
D16*
X0003885433Y0001934645D03*
G04 next file*
%LPD*%
G01G01G01G01*
D27*
D28*
X0003481356Y0003239152D02*
X0003481356Y0003207656D01*
X0003490730Y0003257150D02*
X0003500104Y0003223404D01*
X0003475732Y0003223404D01*
D27*
X0003558856Y0003379028D02*
X0003418856Y0003379028D01*
D28*
X0003479482Y0003354900D02*
X0003498229Y0003354900D01*
X0003500104Y0003332402D01*
X0003498229Y0003334652D01*
X0003494480Y0003336901D01*
X0003485106Y0003336901D01*
X0003481356Y0003334652D01*
X0003479482Y0003332402D01*
X0003477607Y0003327903D01*
X0003477607Y0003316654D01*
X0003479482Y0003312155D01*
X0003481356Y0003309905D01*
X0003485106Y0003307656D01*
X0003494480Y0003307656D01*
X0003498229Y0003309905D01*
X0003500104Y0003312155D01*
X0003481356Y0003454900D02*
X0003488856Y0003454900D01*
X0003492604Y0003452650D01*
X0003494480Y0003450400D01*
X0003498229Y0003443651D01*
X0003500104Y0003434651D01*
X0003500104Y0003416655D01*
X0003498229Y0003412155D01*
X0003496355Y0003409905D01*
X0003492604Y0003407656D01*
X0003485106Y0003407656D01*
X0003481356Y0003409905D01*
X0003479482Y0003412155D01*
X0003477607Y0003416655D01*
X0003477607Y0003427903D01*
X0003479482Y0003432403D01*
X0003481356Y0003434651D01*
X0003485106Y0003436902D01*
X0003492604Y0003436902D01*
X0003496355Y0003434651D01*
X0003498229Y0003432403D01*
X0003500104Y0003427903D01*
D27*
X0003558856Y0003279028D02*
X0003418856Y0003279028D01*
X0003558856Y0003479027D02*
X0003418856Y0003479027D01*
D28*
X0003501979Y0003554899D02*
X0003475732Y0003554899D01*
X0003492604Y0003507656D01*
D27*
X0003558856Y0003679028D02*
X0003418856Y0003679028D01*
D28*
X0003492604Y0003634652D02*
X0003496355Y0003636902D01*
X0003498229Y0003639152D01*
X0003500104Y0003643651D01*
X0003500104Y0003645901D01*
X0003498229Y0003650400D01*
X0003496355Y0003652650D01*
X0003492604Y0003654900D01*
X0003485106Y0003654900D01*
X0003481356Y0003652650D01*
X0003479482Y0003650400D01*
X0003477607Y0003645901D01*
X0003477607Y0003643651D01*
X0003479482Y0003639152D01*
X0003481356Y0003636902D01*
X0003485106Y0003634652D01*
X0003492604Y0003634652D01*
X0003496355Y0003632403D01*
X0003498229Y0003630153D01*
X0003500104Y0003625653D01*
X0003500104Y0003616655D01*
X0003498229Y0003612155D01*
X0003496355Y0003609905D01*
X0003492604Y0003607656D01*
X0003485106Y0003607656D01*
X0003481356Y0003609905D01*
X0003479482Y0003612155D01*
X0003477607Y0003616655D01*
X0003477607Y0003625653D01*
X0003479482Y0003630153D01*
X0003481356Y0003632403D01*
X0003485106Y0003634652D01*
D27*
X0003558856Y0003579028D02*
X0003418856Y0003579028D01*
X0003558856Y0003779028D02*
X0003418856Y0003779028D01*
D28*
X0003496355Y0003707656D02*
X0003488856Y0003707656D01*
X0003485106Y0003709905D01*
X0003483231Y0003712155D01*
X0003479482Y0003718904D01*
X0003477607Y0003727903D01*
X0003477607Y0003745901D01*
X0003479482Y0003750400D01*
X0003481356Y0003752650D01*
X0003485106Y0003754900D01*
X0003492604Y0003754900D01*
X0003496355Y0003752650D01*
X0003498229Y0003750400D01*
X0003500104Y0003745901D01*
X0003500104Y0003734652D01*
X0003498229Y0003730153D01*
X0003496355Y0003727903D01*
X0003492604Y0003725653D01*
X0003485106Y0003725653D01*
X0003481356Y0003727903D01*
X0003479482Y0003730153D01*
X0003477607Y0003734652D01*
D27*
X0003558856Y0003779028D02*
X0003558856Y0002779028D01*
X0003558856Y0003179028D02*
X0003418856Y0003179028D01*
D28*
X0003501979Y0003154899D02*
X0003477607Y0003154899D01*
X0003490730Y0003136902D01*
X0003485106Y0003136902D01*
X0003481356Y0003134652D01*
X0003479482Y0003132403D01*
X0003477607Y0003127903D01*
X0003477607Y0003116655D01*
X0003479482Y0003112155D01*
X0003481356Y0003109905D01*
X0003485106Y0003107656D01*
X0003496355Y0003107656D01*
X0003500104Y0003109905D01*
X0003501979Y0003112155D01*
D27*
X0003558856Y0003079027D02*
X0003418856Y0003079027D01*
X0003558856Y0002979028D02*
X0003418856Y0002979028D01*
D28*
X0003500104Y0003050399D02*
X0003498229Y0003052650D01*
X0003494480Y0003054900D01*
X0003485106Y0003054900D01*
X0003481356Y0003052650D01*
X0003479482Y0003050399D01*
X0003477607Y0003045901D01*
X0003477607Y0003041402D01*
X0003479482Y0003034651D01*
X0003501979Y0003007656D01*
X0003477607Y0003007656D01*
D29*
X0003378788Y0002673452D02*
X0003423783Y0002673452D01*
X0003401285Y0002673452D02*
X0003401285Y0002752192D01*
X0003408785Y0002740944D01*
X0003416284Y0002733445D01*
X0003423783Y0002729694D01*
X0003330044Y0002752192D02*
X0003322545Y0002752192D01*
X0003315046Y0002748443D01*
X0003311297Y0002744693D01*
X0003307546Y0002737194D01*
X0003303798Y0002722196D01*
X0003303798Y0002703448D01*
X0003307546Y0002688451D01*
X0003311297Y0002680950D01*
X0003315046Y0002677202D01*
X0003322545Y0002673452D01*
X0003330044Y0002673452D01*
X0003337543Y0002677202D01*
X0003341293Y0002680950D01*
X0003345042Y0002688451D01*
X0003348792Y0002703448D01*
X0003348792Y0002722196D01*
X0003345042Y0002737194D01*
X0003341293Y0002744693D01*
X0003337543Y0002748443D01*
X0003330044Y0002752192D01*
X0003270052Y0002673452D02*
X0003270052Y0002752192D01*
X0003262553Y0002703448D02*
X0003240056Y0002673452D01*
X0003240056Y0002725946D02*
X0003270052Y0002695950D01*
D28*
X0003477607Y0002907656D02*
X0003500104Y0002907656D01*
X0003488856Y0002907656D02*
X0003488856Y0002954900D01*
X0003492604Y0002948151D01*
X0003496355Y0002943651D01*
X0003500104Y0002941402D01*
D27*
X0003558856Y0002879028D02*
X0003418856Y0002879028D01*
D28*
X0003490730Y0002854900D02*
X0003486981Y0002854900D01*
X0003483231Y0002852649D01*
X0003481356Y0002850400D01*
X0003479482Y0002845901D01*
X0003477607Y0002836902D01*
X0003477607Y0002825653D01*
X0003479482Y0002816655D01*
X0003481356Y0002812155D01*
X0003483231Y0002809905D01*
X0003486981Y0002807656D01*
X0003490730Y0002807656D01*
X0003494480Y0002809905D01*
X0003496355Y0002812155D01*
X0003498229Y0002816655D01*
X0003500104Y0002825653D01*
X0003500104Y0002836902D01*
X0003498229Y0002845901D01*
X0003496355Y0002850400D01*
X0003494480Y0002852649D01*
X0003490730Y0002854900D01*
D27*
X0003558856Y0002779028D02*
X0003418856Y0002779028D01*
D28*
X0003076042Y0003239152D02*
X0003076042Y0003207656D01*
X0003085414Y0003257150D02*
X0003094789Y0003223404D01*
X0003070417Y0003223404D01*
D27*
X0003153541Y0003379028D02*
X0003013541Y0003379028D01*
D28*
X0003074167Y0003354900D02*
X0003092914Y0003354900D01*
X0003094789Y0003332402D01*
X0003092914Y0003334652D01*
X0003089165Y0003336901D01*
X0003079790Y0003336901D01*
X0003076042Y0003334652D01*
X0003074167Y0003332402D01*
X0003072292Y0003327903D01*
X0003072292Y0003316654D01*
X0003074167Y0003312155D01*
X0003076042Y0003309905D01*
X0003079790Y0003307656D01*
X0003089165Y0003307656D01*
X0003092914Y0003309905D01*
X0003094789Y0003312155D01*
X0003076042Y0003454900D02*
X0003083540Y0003454900D01*
X0003087290Y0003452650D01*
X0003089165Y0003450400D01*
X0003092914Y0003443651D01*
X0003094789Y0003434651D01*
X0003094789Y0003416655D01*
X0003092914Y0003412155D01*
X0003091040Y0003409905D01*
X0003087290Y0003407656D01*
X0003079790Y0003407656D01*
X0003076042Y0003409905D01*
X0003074167Y0003412155D01*
X0003072292Y0003416655D01*
X0003072292Y0003427903D01*
X0003074167Y0003432403D01*
X0003076042Y0003434651D01*
X0003079790Y0003436902D01*
X0003087290Y0003436902D01*
X0003091040Y0003434651D01*
X0003092914Y0003432403D01*
X0003094789Y0003427903D01*
D27*
X0003153541Y0003279028D02*
X0003013541Y0003279028D01*
X0003153541Y0003479027D02*
X0003013541Y0003479027D01*
D28*
X0003096664Y0003554899D02*
X0003070417Y0003554899D01*
X0003087290Y0003507656D01*
D27*
X0003153541Y0003679028D02*
X0003013541Y0003679028D01*
D28*
X0003087290Y0003634652D02*
X0003091040Y0003636902D01*
X0003092914Y0003639152D01*
X0003094789Y0003643651D01*
X0003094789Y0003645901D01*
X0003092914Y0003650400D01*
X0003091040Y0003652650D01*
X0003087290Y0003654900D01*
X0003079790Y0003654900D01*
X0003076042Y0003652650D01*
X0003074167Y0003650400D01*
X0003072292Y0003645901D01*
X0003072292Y0003643651D01*
X0003074167Y0003639152D01*
X0003076042Y0003636902D01*
X0003079790Y0003634652D01*
X0003087290Y0003634652D01*
X0003091040Y0003632403D01*
X0003092914Y0003630153D01*
X0003094789Y0003625653D01*
X0003094789Y0003616655D01*
X0003092914Y0003612155D01*
X0003091040Y0003609905D01*
X0003087290Y0003607656D01*
X0003079790Y0003607656D01*
X0003076042Y0003609905D01*
X0003074167Y0003612155D01*
X0003072292Y0003616655D01*
X0003072292Y0003625653D01*
X0003074167Y0003630153D01*
X0003076042Y0003632403D01*
X0003079790Y0003634652D01*
D27*
X0003153541Y0003579028D02*
X0003013541Y0003579028D01*
X0003153541Y0003779028D02*
X0003013541Y0003779028D01*
D28*
X0003091040Y0003707656D02*
X0003083540Y0003707656D01*
X0003079790Y0003709905D01*
X0003077916Y0003712155D01*
X0003074167Y0003718904D01*
X0003072292Y0003727903D01*
X0003072292Y0003745901D01*
X0003074167Y0003750400D01*
X0003076042Y0003752650D01*
X0003079790Y0003754900D01*
X0003087290Y0003754900D01*
X0003091040Y0003752650D01*
X0003092914Y0003750400D01*
X0003094789Y0003745901D01*
X0003094789Y0003734652D01*
X0003092914Y0003730153D01*
X0003091040Y0003727903D01*
X0003087290Y0003725653D01*
X0003079790Y0003725653D01*
X0003076042Y0003727903D01*
X0003074167Y0003730153D01*
X0003072292Y0003734652D01*
D27*
X0003153541Y0003779028D02*
X0003153541Y0002779028D01*
X0003153541Y0003179028D02*
X0003013541Y0003179028D01*
D28*
X0003096664Y0003154899D02*
X0003072292Y0003154899D01*
X0003085414Y0003136902D01*
X0003079790Y0003136902D01*
X0003076042Y0003134652D01*
X0003074167Y0003132403D01*
X0003072292Y0003127903D01*
X0003072292Y0003116655D01*
X0003074167Y0003112155D01*
X0003076042Y0003109905D01*
X0003079790Y0003107656D01*
X0003091040Y0003107656D01*
X0003094789Y0003109905D01*
X0003096664Y0003112155D01*
D27*
X0003153541Y0003079027D02*
X0003013541Y0003079027D01*
X0003153541Y0002979028D02*
X0003013541Y0002979028D01*
D28*
X0003094789Y0003050399D02*
X0003092914Y0003052650D01*
X0003089165Y0003054900D01*
X0003079790Y0003054900D01*
X0003076042Y0003052650D01*
X0003074167Y0003050399D01*
X0003072292Y0003045901D01*
X0003072292Y0003041402D01*
X0003074167Y0003034651D01*
X0003096664Y0003007656D01*
X0003072292Y0003007656D01*
D29*
X0002899535Y0002673452D02*
X0002944531Y0002673452D01*
X0002922033Y0002673452D02*
X0002922033Y0002752192D01*
X0002929533Y0002740944D01*
X0002937032Y0002733445D01*
X0002944531Y0002729694D01*
X0002865790Y0002673452D02*
X0002865790Y0002752192D01*
X0002858291Y0002703448D02*
X0002835794Y0002673452D01*
X0002835794Y0002725946D02*
X0002865790Y0002695950D01*
D28*
X0003072292Y0002907656D02*
X0003094789Y0002907656D01*
X0003083540Y0002907656D02*
X0003083540Y0002954900D01*
X0003087290Y0002948151D01*
X0003091040Y0002943651D01*
X0003094789Y0002941402D01*
D27*
X0003153541Y0002879028D02*
X0003013541Y0002879028D01*
D28*
X0003085414Y0002854900D02*
X0003081666Y0002854900D01*
X0003077916Y0002852649D01*
X0003076042Y0002850400D01*
X0003074167Y0002845901D01*
X0003072292Y0002836902D01*
X0003072292Y0002825653D01*
X0003074167Y0002816655D01*
X0003076042Y0002812155D01*
X0003077916Y0002809905D01*
X0003081666Y0002807656D01*
X0003085414Y0002807656D01*
X0003089165Y0002809905D01*
X0003091040Y0002812155D01*
X0003092914Y0002816655D01*
X0003094789Y0002825653D01*
X0003094789Y0002836902D01*
X0003092914Y0002845901D01*
X0003091040Y0002850400D01*
X0003089165Y0002852649D01*
X0003085414Y0002854900D01*
D27*
X0003153541Y0002779028D02*
X0003013541Y0002779028D01*
D28*
X0002670727Y0003239152D02*
X0002670727Y0003207656D01*
X0002680100Y0003257150D02*
X0002689474Y0003223404D01*
X0002665102Y0003223404D01*
D27*
X0002748226Y0003379028D02*
X0002608226Y0003379028D01*
D28*
X0002668852Y0003354900D02*
X0002687599Y0003354900D01*
X0002689474Y0003332402D01*
X0002687599Y0003334652D01*
X0002683849Y0003336901D01*
X0002674476Y0003336901D01*
X0002670727Y0003334652D01*
X0002668852Y0003332402D01*
X0002666977Y0003327903D01*
X0002666977Y0003316654D01*
X0002668852Y0003312155D01*
X0002670727Y0003309905D01*
X0002674476Y0003307656D01*
X0002683849Y0003307656D01*
X0002687599Y0003309905D01*
X0002689474Y0003312155D01*
X0002670727Y0003454900D02*
X0002678226Y0003454900D01*
X0002681975Y0003452650D01*
X0002683849Y0003450400D01*
X0002687599Y0003443651D01*
X0002689474Y0003434651D01*
X0002689474Y0003416655D01*
X0002687599Y0003412155D01*
X0002685725Y0003409905D01*
X0002681975Y0003407656D01*
X0002674476Y0003407656D01*
X0002670727Y0003409905D01*
X0002668852Y0003412155D01*
X0002666977Y0003416655D01*
X0002666977Y0003427903D01*
X0002668852Y0003432403D01*
X0002670727Y0003434651D01*
X0002674476Y0003436902D01*
X0002681975Y0003436902D01*
X0002685725Y0003434651D01*
X0002687599Y0003432403D01*
X0002689474Y0003427903D01*
D27*
X0002748226Y0003279028D02*
X0002608226Y0003279028D01*
X0002748226Y0003479027D02*
X0002608226Y0003479027D01*
D28*
X0002691349Y0003554899D02*
X0002665102Y0003554899D01*
X0002681975Y0003507656D01*
D27*
X0002748226Y0003679028D02*
X0002608226Y0003679028D01*
D28*
X0002681975Y0003634652D02*
X0002685725Y0003636902D01*
X0002687599Y0003639152D01*
X0002689474Y0003643651D01*
X0002689474Y0003645901D01*
X0002687599Y0003650400D01*
X0002685725Y0003652650D01*
X0002681975Y0003654900D01*
X0002674476Y0003654900D01*
X0002670727Y0003652650D01*
X0002668852Y0003650400D01*
X0002666977Y0003645901D01*
X0002666977Y0003643651D01*
X0002668852Y0003639152D01*
X0002670727Y0003636902D01*
X0002674476Y0003634652D01*
X0002681975Y0003634652D01*
X0002685725Y0003632403D01*
X0002687599Y0003630153D01*
X0002689474Y0003625653D01*
X0002689474Y0003616655D01*
X0002687599Y0003612155D01*
X0002685725Y0003609905D01*
X0002681975Y0003607656D01*
X0002674476Y0003607656D01*
X0002670727Y0003609905D01*
X0002668852Y0003612155D01*
X0002666977Y0003616655D01*
X0002666977Y0003625653D01*
X0002668852Y0003630153D01*
X0002670727Y0003632403D01*
X0002674476Y0003634652D01*
D27*
X0002748226Y0003579028D02*
X0002608226Y0003579028D01*
X0002748226Y0003779028D02*
X0002608226Y0003779028D01*
D28*
X0002685725Y0003707656D02*
X0002678226Y0003707656D01*
X0002674476Y0003709905D01*
X0002672601Y0003712155D01*
X0002668852Y0003718904D01*
X0002666977Y0003727903D01*
X0002666977Y0003745901D01*
X0002668852Y0003750400D01*
X0002670727Y0003752650D01*
X0002674476Y0003754900D01*
X0002681975Y0003754900D01*
X0002685725Y0003752650D01*
X0002687599Y0003750400D01*
X0002689474Y0003745901D01*
X0002689474Y0003734652D01*
X0002687599Y0003730153D01*
X0002685725Y0003727903D01*
X0002681975Y0003725653D01*
X0002674476Y0003725653D01*
X0002670727Y0003727903D01*
X0002668852Y0003730153D01*
X0002666977Y0003734652D01*
D27*
X0002748226Y0003779028D02*
X0002748226Y0002779028D01*
X0002748226Y0003179028D02*
X0002608226Y0003179028D01*
D28*
X0002691349Y0003154899D02*
X0002666977Y0003154899D01*
X0002680100Y0003136902D01*
X0002674476Y0003136902D01*
X0002670727Y0003134652D01*
X0002668852Y0003132403D01*
X0002666977Y0003127903D01*
X0002666977Y0003116655D01*
X0002668852Y0003112155D01*
X0002670727Y0003109905D01*
X0002674476Y0003107656D01*
X0002685725Y0003107656D01*
X0002689474Y0003109905D01*
X0002691349Y0003112155D01*
D27*
X0002748226Y0003079027D02*
X0002608226Y0003079027D01*
X0002748226Y0002979028D02*
X0002608226Y0002979028D01*
D28*
X0002689474Y0003050399D02*
X0002687599Y0003052650D01*
X0002683849Y0003054900D01*
X0002674476Y0003054900D01*
X0002670727Y0003052650D01*
X0002668852Y0003050399D01*
X0002666977Y0003045901D01*
X0002666977Y0003041402D01*
X0002668852Y0003034651D01*
X0002691349Y0003007656D01*
X0002666977Y0003007656D01*
D29*
X0002570127Y0002673452D02*
X0002615121Y0002673452D01*
X0002592624Y0002673452D02*
X0002592624Y0002752192D01*
X0002600123Y0002740944D01*
X0002607622Y0002733445D01*
X0002615121Y0002729694D01*
X0002521383Y0002752192D02*
X0002513884Y0002752192D01*
X0002506385Y0002748443D01*
X0002502635Y0002744693D01*
X0002498886Y0002737194D01*
X0002495136Y0002722196D01*
X0002495136Y0002703448D01*
X0002498886Y0002688451D01*
X0002502635Y0002680950D01*
X0002506385Y0002677202D01*
X0002513884Y0002673452D01*
X0002521383Y0002673452D01*
X0002528881Y0002677202D01*
X0002532631Y0002680950D01*
X0002536381Y0002688451D01*
X0002540131Y0002703448D01*
X0002540131Y0002722196D01*
X0002536381Y0002737194D01*
X0002532631Y0002744693D01*
X0002528881Y0002748443D01*
X0002521383Y0002752192D01*
X0002446392Y0002752192D02*
X0002438893Y0002752192D01*
X0002431394Y0002748443D01*
X0002427645Y0002744693D01*
X0002423895Y0002737194D01*
X0002420146Y0002722196D01*
X0002420146Y0002703448D01*
X0002423895Y0002688451D01*
X0002427645Y0002680950D01*
X0002431394Y0002677202D01*
X0002438893Y0002673452D01*
X0002446392Y0002673452D01*
X0002453891Y0002677202D01*
X0002457641Y0002680950D01*
X0002461390Y0002688451D01*
X0002465140Y0002703448D01*
X0002465140Y0002722196D01*
X0002461390Y0002737194D01*
X0002457641Y0002744693D01*
X0002453891Y0002748443D01*
X0002446392Y0002752192D01*
D28*
X0002666977Y0002907656D02*
X0002689474Y0002907656D01*
X0002678226Y0002907656D02*
X0002678226Y0002954900D01*
X0002681975Y0002948151D01*
X0002685725Y0002943651D01*
X0002689474Y0002941402D01*
D27*
X0002748226Y0002879028D02*
X0002608226Y0002879028D01*
D28*
X0002680100Y0002854900D02*
X0002676351Y0002854900D01*
X0002672601Y0002852649D01*
X0002670727Y0002850400D01*
X0002668852Y0002845901D01*
X0002666977Y0002836902D01*
X0002666977Y0002825653D01*
X0002668852Y0002816655D01*
X0002670727Y0002812155D01*
X0002672601Y0002809905D01*
X0002676351Y0002807656D01*
X0002680100Y0002807656D01*
X0002683849Y0002809905D01*
X0002685725Y0002812155D01*
X0002687599Y0002816655D01*
X0002689474Y0002825653D01*
X0002689474Y0002836902D01*
X0002687599Y0002845901D01*
X0002685725Y0002850400D01*
X0002683849Y0002852649D01*
X0002680100Y0002854900D01*
D27*
X0002748226Y0002779028D02*
X0002608226Y0002779028D01*
D28*
X0002274785Y0002854900D02*
X0002271036Y0002854900D01*
X0002267286Y0002852649D01*
X0002265412Y0002850400D01*
X0002263537Y0002845901D01*
X0002261662Y0002836902D01*
X0002261662Y0002825653D01*
X0002263537Y0002816655D01*
X0002265412Y0002812155D01*
X0002267286Y0002809905D01*
X0002271036Y0002807656D01*
X0002274785Y0002807656D01*
X0002278535Y0002809905D01*
X0002280410Y0002812155D01*
X0002282285Y0002816655D01*
X0002284159Y0002825653D01*
X0002284159Y0002836902D01*
X0002282285Y0002845901D01*
X0002280410Y0002850400D01*
X0002278535Y0002852649D01*
X0002274785Y0002854900D01*
X0002261662Y0002907656D02*
X0002284159Y0002907656D01*
X0002272911Y0002907656D02*
X0002272911Y0002954900D01*
X0002276660Y0002948151D01*
X0002280410Y0002943651D01*
X0002284159Y0002941402D01*
X0002284159Y0003050399D02*
X0002282285Y0003052650D01*
X0002278535Y0003054900D01*
X0002269161Y0003054900D01*
X0002265412Y0003052650D01*
X0002263537Y0003050399D01*
X0002261662Y0003045901D01*
X0002261662Y0003041402D01*
X0002263537Y0003034651D01*
X0002286034Y0003007656D01*
X0002261662Y0003007656D01*
X0002286034Y0003154899D02*
X0002261662Y0003154899D01*
X0002274785Y0003136902D01*
X0002269161Y0003136902D01*
X0002265412Y0003134652D01*
X0002263537Y0003132403D01*
X0002261662Y0003127903D01*
X0002261662Y0003116655D01*
X0002263537Y0003112155D01*
X0002265412Y0003109905D01*
X0002269161Y0003107656D01*
X0002280410Y0003107656D01*
X0002284159Y0003109905D01*
X0002286034Y0003112155D01*
X0002265412Y0003239152D02*
X0002265412Y0003207656D01*
X0002274785Y0003257150D02*
X0002284159Y0003223404D01*
X0002259787Y0003223404D01*
X0002263537Y0003354900D02*
X0002282285Y0003354900D01*
X0002284159Y0003332402D01*
X0002282285Y0003334652D01*
X0002278535Y0003336901D01*
X0002269161Y0003336901D01*
X0002265412Y0003334652D01*
X0002263537Y0003332402D01*
X0002261662Y0003327903D01*
X0002261662Y0003316654D01*
X0002263537Y0003312155D01*
X0002265412Y0003309905D01*
X0002269161Y0003307656D01*
X0002278535Y0003307656D01*
X0002282285Y0003309905D01*
X0002284159Y0003312155D01*
X0002265412Y0003454900D02*
X0002272911Y0003454900D01*
X0002276660Y0003452650D01*
X0002278535Y0003450400D01*
X0002282285Y0003443651D01*
X0002284159Y0003434651D01*
X0002284159Y0003416655D01*
X0002282285Y0003412155D01*
X0002280410Y0003409905D01*
X0002276660Y0003407656D01*
X0002269161Y0003407656D01*
X0002265412Y0003409905D01*
X0002263537Y0003412155D01*
X0002261662Y0003416655D01*
X0002261662Y0003427903D01*
X0002263537Y0003432403D01*
X0002265412Y0003434651D01*
X0002269161Y0003436902D01*
X0002276660Y0003436902D01*
X0002280410Y0003434651D01*
X0002282285Y0003432403D01*
X0002284159Y0003427903D01*
X0002286034Y0003554899D02*
X0002259787Y0003554899D01*
X0002276660Y0003507656D01*
X0002276660Y0003634652D02*
X0002280410Y0003636902D01*
X0002282285Y0003639152D01*
X0002284159Y0003643651D01*
X0002284159Y0003645901D01*
X0002282285Y0003650400D01*
X0002280410Y0003652650D01*
X0002276660Y0003654900D01*
X0002269161Y0003654900D01*
X0002265412Y0003652650D01*
X0002263537Y0003650400D01*
X0002261662Y0003645901D01*
X0002261662Y0003643651D01*
X0002263537Y0003639152D01*
X0002265412Y0003636902D01*
X0002269161Y0003634652D01*
X0002276660Y0003634652D01*
X0002280410Y0003632403D01*
X0002282285Y0003630153D01*
X0002284159Y0003625653D01*
X0002284159Y0003616655D01*
X0002282285Y0003612155D01*
X0002280410Y0003609905D01*
X0002276660Y0003607656D01*
X0002269161Y0003607656D01*
X0002265412Y0003609905D01*
X0002263537Y0003612155D01*
X0002261662Y0003616655D01*
X0002261662Y0003625653D01*
X0002263537Y0003630153D01*
X0002265412Y0003632403D01*
X0002269161Y0003634652D01*
D27*
X0002342911Y0003779028D02*
X0002342911Y0002779028D01*
X0002342911Y0002779028D02*
X0002202911Y0002779028D01*
X0002342911Y0002879028D02*
X0002202911Y0002879028D01*
X0002342911Y0002979028D02*
X0002202911Y0002979028D01*
X0002342911Y0003079027D02*
X0002202911Y0003079027D01*
X0002342911Y0003179028D02*
X0002202911Y0003179028D01*
X0002342911Y0003279028D02*
X0002202911Y0003279028D01*
X0002342911Y0003379028D02*
X0002202911Y0003379028D01*
X0002342911Y0003479027D02*
X0002202911Y0003479027D01*
X0002342911Y0003579028D02*
X0002202911Y0003579028D01*
X0002342911Y0003679028D02*
X0002202911Y0003679028D01*
X0002342911Y0003779028D02*
X0002202911Y0003779028D01*
D29*
X0003273464Y0003814862D02*
X0003273464Y0003913287D01*
X0003254715Y0003913287D01*
X0003243468Y0003908600D01*
X0003235969Y0003899227D01*
X0003232219Y0003889853D01*
X0003228469Y0003871105D01*
X0003228469Y0003857044D01*
X0003232219Y0003838297D01*
X0003235969Y0003828923D01*
X0003243468Y0003819549D01*
X0003254715Y0003814862D01*
X0003273464Y0003814862D01*
X0003164727Y0003819549D02*
X0003172227Y0003814862D01*
X0003187225Y0003814862D01*
X0003194724Y0003819549D01*
X0003198473Y0003828923D01*
X0003198473Y0003866418D01*
X0003194724Y0003875792D01*
X0003187225Y0003880479D01*
X0003172227Y0003880479D01*
X0003164727Y0003875792D01*
X0003160978Y0003866418D01*
X0003160978Y0003857044D01*
X0003198473Y0003847671D01*
X0003127232Y0003814862D02*
X0003127232Y0003913287D01*
X0003119732Y0003852358D02*
X0003097236Y0003814862D01*
X0003097236Y0003880479D02*
X0003127232Y0003842984D01*
X0003029744Y0003814862D02*
X0003029744Y0003866418D01*
X0003033494Y0003875792D01*
X0003040993Y0003880479D01*
X0003055991Y0003880479D01*
X0003063490Y0003875792D01*
X0003029744Y0003819549D02*
X0003037243Y0003814862D01*
X0003055991Y0003814862D01*
X0003063490Y0003819549D01*
X0003067240Y0003828923D01*
X0003067240Y0003838297D01*
X0003063490Y0003847671D01*
X0003055991Y0003852358D01*
X0003037243Y0003852358D01*
X0003029744Y0003857044D01*
X0002958503Y0003814862D02*
X0002958503Y0003913287D01*
X0002958503Y0003819549D02*
X0002966002Y0003814862D01*
X0002981000Y0003814862D01*
X0002988500Y0003819549D01*
X0002992249Y0003824235D01*
X0002995998Y0003833610D01*
X0002995998Y0003861731D01*
X0002992249Y0003871105D01*
X0002988500Y0003875792D01*
X0002981000Y0003880479D01*
X0002966002Y0003880479D01*
X0002958503Y0003875792D01*
X0002887262Y0003814862D02*
X0002887262Y0003866418D01*
X0002891012Y0003875792D01*
X0002898511Y0003880479D01*
X0002913509Y0003880479D01*
X0002921008Y0003875792D01*
X0002887262Y0003819549D02*
X0002894761Y0003814862D01*
X0002913509Y0003814862D01*
X0002921008Y0003819549D01*
X0002924757Y0003828923D01*
X0002924757Y0003838297D01*
X0002921008Y0003847671D01*
X0002913509Y0003852358D01*
X0002894761Y0003852358D01*
X0002887262Y0003857044D01*
X0002786025Y0003814862D02*
X0002771027Y0003814862D01*
X0002763528Y0003819549D01*
X0002759777Y0003824235D01*
X0002752279Y0003838297D01*
X0002748530Y0003857044D01*
X0002748530Y0003894539D01*
X0002752279Y0003903914D01*
X0002756029Y0003908600D01*
X0002763528Y0003913287D01*
X0002778526Y0003913287D01*
X0002786025Y0003908600D01*
X0002789774Y0003903914D01*
X0002793524Y0003894539D01*
X0002793524Y0003871105D01*
X0002789774Y0003861731D01*
X0002786025Y0003857044D01*
X0002778526Y0003852358D01*
X0002763528Y0003852358D01*
X0002756029Y0003857044D01*
X0002752279Y0003861731D01*
X0002748530Y0003871105D01*
X0002711034Y0003814862D02*
X0002696036Y0003814862D01*
X0002688537Y0003819549D01*
X0002684787Y0003824235D01*
X0002677288Y0003838297D01*
X0002673538Y0003857044D01*
X0002673538Y0003894539D01*
X0002677288Y0003903914D01*
X0002681038Y0003908600D01*
X0002688537Y0003913287D01*
X0002703535Y0003913287D01*
X0002711034Y0003908600D01*
X0002714784Y0003903914D01*
X0002718533Y0003894539D01*
X0002718533Y0003871105D01*
X0002714784Y0003861731D01*
X0002711034Y0003857044D01*
X0002703535Y0003852358D01*
X0002688537Y0003852358D01*
X0002681038Y0003857044D01*
X0002677288Y0003861731D01*
X0002673538Y0003871105D01*
X0002639793Y0003814862D02*
X0002639793Y0003913287D01*
X0002632294Y0003852358D02*
X0002609797Y0003814862D01*
X0002609797Y0003880479D02*
X0002639793Y0003842984D01*
X0002572302Y0003814862D02*
X0002557303Y0003814862D01*
X0002549804Y0003819549D01*
X0002546054Y0003824235D01*
X0002538556Y0003838297D01*
X0002534806Y0003857044D01*
X0002534806Y0003894539D01*
X0002538556Y0003903914D01*
X0002542305Y0003908600D01*
X0002549804Y0003913287D01*
X0002564802Y0003913287D01*
X0002572302Y0003908600D01*
X0002576051Y0003903914D01*
X0002579801Y0003894539D01*
X0002579801Y0003871105D01*
X0002576051Y0003861731D01*
X0002572302Y0003857044D01*
X0002564802Y0003852358D01*
X0002549804Y0003852358D01*
X0002542305Y0003857044D01*
X0002538556Y0003861731D01*
X0002534806Y0003871105D01*
X0002497311Y0003814862D02*
X0002482313Y0003814862D01*
X0002474814Y0003819549D01*
X0002471064Y0003824235D01*
X0002463565Y0003838297D01*
X0002459816Y0003857044D01*
X0002459816Y0003894539D01*
X0002463565Y0003903914D01*
X0002467315Y0003908600D01*
X0002474814Y0003913287D01*
X0002489812Y0003913287D01*
X0002497311Y0003908600D01*
X0002501060Y0003903914D01*
X0002504810Y0003894539D01*
X0002504810Y0003871105D01*
X0002501060Y0003861731D01*
X0002497311Y0003857044D01*
X0002489812Y0003852358D01*
X0002474814Y0003852358D01*
X0002467315Y0003857044D01*
X0002463565Y0003861731D01*
X0002459816Y0003871105D01*
X0002366077Y0003852358D02*
X0002306085Y0003852358D01*
X0002167352Y0003814862D02*
X0002212347Y0003814862D01*
X0002189849Y0003814862D02*
X0002189849Y0003913287D01*
X0002197348Y0003899227D01*
X0002204847Y0003889853D01*
X0002212347Y0003885166D01*
X0002118608Y0003913287D02*
X0002111109Y0003913287D01*
X0002103610Y0003908600D01*
X0002099861Y0003903914D01*
X0002096111Y0003894539D01*
X0002092362Y0003875792D01*
X0002092362Y0003852358D01*
X0002096111Y0003833610D01*
X0002099861Y0003824235D01*
X0002103610Y0003819549D01*
X0002111109Y0003814862D01*
X0002118608Y0003814862D01*
X0002126107Y0003819549D01*
X0002129857Y0003824235D01*
X0002133606Y0003833610D01*
X0002137356Y0003852358D01*
X0002137356Y0003875792D01*
X0002133606Y0003894539D01*
X0002129857Y0003903914D01*
X0002126107Y0003908600D01*
X0002118608Y0003913287D01*
X0002013621Y0003814862D02*
X0002039867Y0003861731D01*
X0002058615Y0003814862D02*
X0002058615Y0003913287D01*
X0002028620Y0003913287D01*
X0002021119Y0003908600D01*
X0002017370Y0003903914D01*
X0002013621Y0003894539D01*
X0002013621Y0003880479D01*
X0002017370Y0003871105D01*
X0002021119Y0003866418D01*
X0002028620Y0003861731D01*
X0002058615Y0003861731D01*
D28*
X0002280410Y0003707656D02*
X0002272911Y0003707656D01*
X0002269161Y0003709905D01*
X0002267286Y0003712155D01*
X0002263537Y0003718904D01*
X0002261662Y0003727903D01*
X0002261662Y0003745901D01*
X0002263537Y0003750400D01*
X0002265412Y0003752650D01*
X0002269161Y0003754900D01*
X0002276660Y0003754900D01*
X0002280410Y0003752650D01*
X0002282285Y0003750400D01*
X0002284159Y0003745901D01*
X0002284159Y0003734652D01*
X0002282285Y0003730153D01*
X0002280410Y0003727903D01*
X0002276660Y0003725653D01*
X0002269161Y0003725653D01*
X0002265412Y0003727903D01*
X0002263537Y0003730153D01*
X0002261662Y0003734652D01*
D29*
X0002088906Y0002673452D02*
X0002133901Y0002673452D01*
X0002111404Y0002673452D02*
X0002111404Y0002752192D01*
X0002118903Y0002740944D01*
X0002126402Y0002733445D01*
X0002133901Y0002729694D01*
X0002040162Y0002752192D02*
X0002032663Y0002752192D01*
X0002025164Y0002748443D01*
X0002021415Y0002744693D01*
X0002017665Y0002737194D01*
X0002013916Y0002722196D01*
X0002013916Y0002703448D01*
X0002017665Y0002688451D01*
X0002021415Y0002680950D01*
X0002025164Y0002677202D01*
X0002032663Y0002673452D01*
X0002040162Y0002673452D01*
X0002047661Y0002677202D01*
X0002051410Y0002680950D01*
X0002055161Y0002688451D01*
X0002058910Y0002703448D01*
X0002058910Y0002722196D01*
X0002055161Y0002737194D01*
X0002051410Y0002744693D01*
X0002047661Y0002748443D01*
X0002040162Y0002752192D01*
D27*
X0003218856Y0002779028D02*
X0003218856Y0003779028D01*
X0003418856Y0003679028D02*
X0003418856Y0002779028D01*
X0003218856Y0002779028D02*
X0003418856Y0002779028D01*
X0003218856Y0003779028D02*
X0003318856Y0003779028D01*
X0003318856Y0003779028D02*
X0003318856Y0003679028D01*
X0003318856Y0003679028D02*
X0003418856Y0003679028D01*
X0003338856Y0003779028D02*
X0003418856Y0003779028D01*
X0003418856Y0003779028D02*
X0003418856Y0003699028D01*
X0003013541Y0003779028D02*
X0003013541Y0003699028D01*
X0002933541Y0003779028D02*
X0003013541Y0003779028D01*
X0002913540Y0003679028D02*
X0003013541Y0003679028D01*
X0002913540Y0003779028D02*
X0002913540Y0003679028D01*
X0002813541Y0003779028D02*
X0002913540Y0003779028D01*
X0002813541Y0002779028D02*
X0003013541Y0002779028D01*
X0003013541Y0003679028D02*
X0003013541Y0002779028D01*
X0002813541Y0002779028D02*
X0002813541Y0003779028D01*
X0002608226Y0003779028D02*
X0002608226Y0003699028D01*
X0002528226Y0003779028D02*
X0002608226Y0003779028D01*
X0002508226Y0003679028D02*
X0002608226Y0003679028D01*
X0002508226Y0003779028D02*
X0002508226Y0003679028D01*
X0002408226Y0003779028D02*
X0002508226Y0003779028D01*
X0002408226Y0002779028D02*
X0002608226Y0002779028D01*
X0002608226Y0003679028D02*
X0002608226Y0002779028D01*
X0002408226Y0002779028D02*
X0002408226Y0003779028D01*
X0002202911Y0003779028D02*
X0002202911Y0003699028D01*
X0002122911Y0003779028D02*
X0002202911Y0003779028D01*
X0002102911Y0003679028D02*
X0002202911Y0003679028D01*
X0002102911Y0003779028D02*
X0002102911Y0003679028D01*
X0002002911Y0003779028D02*
X0002102911Y0003779028D01*
X0002002911Y0002779028D02*
X0002202911Y0002779028D01*
X0002202911Y0003679028D02*
X0002202911Y0002779028D01*
X0002002911Y0002779028D02*
X0002002911Y0003779028D01*
X0003591732Y0003402362D02*
X0003691732Y0003402362D01*
X0003591732Y0003302362D02*
X0003591732Y0003402362D01*
X0003580708Y0003191338D02*
X0003702755Y0003191338D01*
X0003580708Y0003252362D02*
X0003580708Y0003191338D01*
X0003691732Y0003302362D02*
X0003591732Y0003302362D01*
X0003702755Y0003191338D02*
X0003702755Y0003252362D01*
X0003691732Y0003302362D02*
X0003691732Y0003402362D01*
X0003820866Y0003301968D02*
X0003820866Y0003401968D01*
X0003831888Y0003190944D02*
X0003831888Y0003251968D01*
X0003820866Y0003301968D02*
X0003720866Y0003301968D01*
X0003709842Y0003251968D02*
X0003709842Y0003190944D01*
X0003709842Y0003190944D02*
X0003831888Y0003190944D01*
X0003720866Y0003301968D02*
X0003720866Y0003401968D01*
X0003720866Y0003401968D02*
X0003820866Y0003401968D01*
%LPC*%
D30*
X0003268856Y0002829028D03*
X0003368856Y0002829028D03*
X0003268856Y0002929028D03*
X0003368856Y0002929028D03*
X0003268856Y0003029028D03*
X0003368856Y0003029028D03*
X0003268856Y0003129028D03*
X0003368856Y0003129028D03*
X0003268856Y0003229028D03*
X0003368856Y0003229028D03*
X0003268856Y0003329028D03*
X0003368856Y0003329028D03*
X0003268856Y0003429027D03*
X0003368856Y0003429027D03*
X0003268856Y0003529027D03*
X0003368856Y0003529027D03*
X0003268856Y0003629028D03*
X0003368856Y0003629028D03*
X0003268856Y0003729028D03*
D31*
X0003368856Y0003729028D03*
X0002963541Y0003729028D03*
D30*
X0002863540Y0003729028D03*
X0002963541Y0003629028D03*
X0002863540Y0003629028D03*
X0002963541Y0003529027D03*
X0002863540Y0003529027D03*
X0002963541Y0003429027D03*
X0002863540Y0003429027D03*
X0002963541Y0003329028D03*
X0002863540Y0003329028D03*
X0002963541Y0003229028D03*
X0002863540Y0003229028D03*
X0002963541Y0003129028D03*
X0002863540Y0003129028D03*
X0002963541Y0003029028D03*
X0002863540Y0003029028D03*
X0002963541Y0002929028D03*
X0002863540Y0002929028D03*
X0002963541Y0002829028D03*
X0002863540Y0002829028D03*
D31*
X0002558226Y0003729028D03*
D30*
X0002458226Y0003729028D03*
X0002558226Y0003629028D03*
X0002458226Y0003629028D03*
X0002558226Y0003529027D03*
X0002458226Y0003529027D03*
X0002558226Y0003429027D03*
X0002458226Y0003429027D03*
X0002558226Y0003329028D03*
X0002458226Y0003329028D03*
X0002558226Y0003229028D03*
X0002458226Y0003229028D03*
X0002558226Y0003129028D03*
X0002458226Y0003129028D03*
X0002558226Y0003029028D03*
X0002458226Y0003029028D03*
X0002558226Y0002929028D03*
X0002458226Y0002929028D03*
X0002558226Y0002829028D03*
X0002458226Y0002829028D03*
D31*
X0002152911Y0003729028D03*
D30*
X0002052911Y0003729028D03*
X0002152911Y0003629028D03*
X0002052911Y0003629028D03*
X0002152911Y0003529027D03*
X0002052911Y0003529027D03*
X0002152911Y0003429027D03*
X0002052911Y0003429027D03*
X0002152911Y0003329028D03*
X0002052911Y0003329028D03*
X0002152911Y0003229028D03*
X0002052911Y0003229028D03*
X0002152911Y0003129028D03*
X0002052911Y0003129028D03*
X0002152911Y0003029028D03*
X0002052911Y0003029028D03*
X0002152911Y0002929028D03*
X0002052911Y0002929028D03*
X0002152911Y0002829028D03*
X0002052911Y0002829028D03*
D32*
X0003641732Y0003252362D03*
D33*
X0003641732Y0003352362D03*
X0003770866Y0003351968D03*
D32*
X0003770866Y0003251968D03*
X0003885433Y0003251968D03*
D33*
X0003885433Y0003351968D03*
G04 next file*
G04 #@! TF.FileFunction,Legend,Bot*
G04 Gerber Fmt 4.6, Leading zero omitted, Abs format (unit mm)*
G04 Created by KiCad (PCBNEW (2016-10-28 revision 192d4b8)-makepkg) date 11/16/16 20:27:21*
%LPD*%
G01G01G01G01*
G04 APERTURE LIST*
G04 APERTURE END LIST*
D44*
D45*
X0001249036Y0003481356D02*
X0001280532Y0003481356D01*
X0001231038Y0003490730D02*
X0001264784Y0003500104D01*
X0001264784Y0003475732D01*
D44*
X0001109160Y0003558856D02*
X0001109160Y0003418856D01*
D45*
X0001133288Y0003479482D02*
X0001133288Y0003498229D01*
X0001155785Y0003500104D01*
X0001153536Y0003498229D01*
X0001151286Y0003494480D01*
X0001151286Y0003485106D01*
X0001153536Y0003481356D01*
X0001155785Y0003479482D01*
X0001160285Y0003477607D01*
X0001171533Y0003477607D01*
X0001176033Y0003479482D01*
X0001178283Y0003481356D01*
X0001180532Y0003485106D01*
X0001180532Y0003494480D01*
X0001178283Y0003498229D01*
X0001176033Y0003500104D01*
X0001033288Y0003481356D02*
X0001033288Y0003488856D01*
X0001035538Y0003492604D01*
X0001037787Y0003494480D01*
X0001044537Y0003498229D01*
X0001053536Y0003500104D01*
X0001071533Y0003500104D01*
X0001076033Y0003498229D01*
X0001078283Y0003496355D01*
X0001080532Y0003492604D01*
X0001080532Y0003485106D01*
X0001078283Y0003481356D01*
X0001076033Y0003479482D01*
X0001071533Y0003477607D01*
X0001060285Y0003477607D01*
X0001055785Y0003479482D01*
X0001053536Y0003481356D01*
X0001051286Y0003485106D01*
X0001051286Y0003492604D01*
X0001053536Y0003496355D01*
X0001055785Y0003498229D01*
X0001060285Y0003500104D01*
D44*
X0001209160Y0003558856D02*
X0001209160Y0003418856D01*
X0001009160Y0003558856D02*
X0001009160Y0003418856D01*
D45*
X0000933287Y0003501979D02*
X0000933287Y0003475732D01*
X0000980532Y0003492604D01*
D44*
X0000809160Y0003558856D02*
X0000809160Y0003418856D01*
D45*
X0000853536Y0003492604D02*
X0000851286Y0003496355D01*
X0000849036Y0003498229D01*
X0000844537Y0003500104D01*
X0000842287Y0003500104D01*
X0000837788Y0003498229D01*
X0000835538Y0003496355D01*
X0000833287Y0003492604D01*
X0000833287Y0003485106D01*
X0000835538Y0003481356D01*
X0000837788Y0003479482D01*
X0000842287Y0003477607D01*
X0000844537Y0003477607D01*
X0000849036Y0003479482D01*
X0000851286Y0003481356D01*
X0000853536Y0003485106D01*
X0000853536Y0003492604D01*
X0000855785Y0003496355D01*
X0000858035Y0003498229D01*
X0000862535Y0003500104D01*
X0000871533Y0003500104D01*
X0000876032Y0003498229D01*
X0000878283Y0003496355D01*
X0000880532Y0003492604D01*
X0000880532Y0003485106D01*
X0000878283Y0003481356D01*
X0000876032Y0003479482D01*
X0000871533Y0003477607D01*
X0000862535Y0003477607D01*
X0000858035Y0003479482D01*
X0000855785Y0003481356D01*
X0000853536Y0003485106D01*
D44*
X0000909160Y0003558856D02*
X0000909160Y0003418856D01*
X0000709160Y0003558856D02*
X0000709160Y0003418856D01*
D45*
X0000780532Y0003496355D02*
X0000780532Y0003488856D01*
X0000778283Y0003485106D01*
X0000776033Y0003483231D01*
X0000769284Y0003479482D01*
X0000760284Y0003477607D01*
X0000742287Y0003477607D01*
X0000737788Y0003479482D01*
X0000735538Y0003481356D01*
X0000733287Y0003485106D01*
X0000733287Y0003492604D01*
X0000735538Y0003496355D01*
X0000737788Y0003498229D01*
X0000742287Y0003500104D01*
X0000753536Y0003500104D01*
X0000758035Y0003498229D01*
X0000760284Y0003496355D01*
X0000762535Y0003492604D01*
X0000762535Y0003485106D01*
X0000760284Y0003481356D01*
X0000758035Y0003479482D01*
X0000753536Y0003477607D01*
D44*
X0000709160Y0003558856D02*
X0001709160Y0003558856D01*
X0001309160Y0003558856D02*
X0001309160Y0003418856D01*
D45*
X0001333288Y0003501979D02*
X0001333288Y0003477607D01*
X0001351286Y0003490730D01*
X0001351286Y0003485106D01*
X0001353536Y0003481356D01*
X0001355784Y0003479482D01*
X0001360285Y0003477607D01*
X0001371533Y0003477607D01*
X0001376033Y0003479482D01*
X0001378283Y0003481356D01*
X0001380532Y0003485106D01*
X0001380532Y0003496355D01*
X0001378283Y0003500104D01*
X0001376033Y0003501979D01*
D44*
X0001409160Y0003558856D02*
X0001409160Y0003418856D01*
X0001509160Y0003558856D02*
X0001509160Y0003418856D01*
D45*
X0001437787Y0003500104D02*
X0001435538Y0003498229D01*
X0001433288Y0003494480D01*
X0001433288Y0003485106D01*
X0001435538Y0003481356D01*
X0001437787Y0003479482D01*
X0001442287Y0003477607D01*
X0001446785Y0003477607D01*
X0001453536Y0003479482D01*
X0001480532Y0003501979D01*
X0001480532Y0003477607D01*
D46*
X0001814736Y0003378788D02*
X0001814736Y0003423783D01*
X0001814736Y0003401285D02*
X0001735995Y0003401285D01*
X0001747244Y0003408785D01*
X0001754743Y0003416284D01*
X0001758493Y0003423783D01*
X0001735995Y0003330044D02*
X0001735995Y0003322545D01*
X0001739745Y0003315046D01*
X0001743495Y0003311297D01*
X0001750994Y0003307546D01*
X0001765992Y0003303798D01*
X0001784739Y0003303798D01*
X0001799737Y0003307546D01*
X0001807236Y0003311297D01*
X0001810986Y0003315046D01*
X0001814736Y0003322545D01*
X0001814736Y0003330044D01*
X0001810986Y0003337543D01*
X0001807236Y0003341293D01*
X0001799737Y0003345042D01*
X0001784739Y0003348792D01*
X0001765992Y0003348792D01*
X0001750994Y0003345042D01*
X0001743495Y0003341293D01*
X0001739745Y0003337543D01*
X0001735995Y0003330044D01*
X0001814736Y0003270052D02*
X0001735995Y0003270052D01*
X0001784739Y0003262553D02*
X0001814736Y0003240056D01*
X0001762242Y0003240056D02*
X0001792238Y0003270052D01*
D45*
X0001580532Y0003477607D02*
X0001580532Y0003500104D01*
X0001580532Y0003488856D02*
X0001533288Y0003488856D01*
X0001540036Y0003492604D01*
X0001544537Y0003496355D01*
X0001546786Y0003500104D01*
D44*
X0001609160Y0003558856D02*
X0001609160Y0003418856D01*
D45*
X0001633288Y0003490730D02*
X0001633288Y0003486981D01*
X0001635538Y0003483231D01*
X0001637787Y0003481356D01*
X0001642287Y0003479482D01*
X0001651286Y0003477607D01*
X0001662535Y0003477607D01*
X0001671533Y0003479482D01*
X0001676033Y0003481356D01*
X0001678283Y0003483231D01*
X0001680532Y0003486981D01*
X0001680532Y0003490730D01*
X0001678283Y0003494480D01*
X0001676033Y0003496355D01*
X0001671533Y0003498229D01*
X0001662535Y0003500104D01*
X0001651286Y0003500104D01*
X0001642287Y0003498229D01*
X0001637787Y0003496355D01*
X0001635538Y0003494480D01*
X0001633288Y0003490730D01*
D44*
X0001709160Y0003558856D02*
X0001709160Y0003418856D01*
D45*
X0001249036Y0003076042D02*
X0001280532Y0003076042D01*
X0001231038Y0003085414D02*
X0001264784Y0003094789D01*
X0001264784Y0003070417D01*
D44*
X0001109160Y0003153541D02*
X0001109160Y0003013541D01*
D45*
X0001133288Y0003074167D02*
X0001133288Y0003092914D01*
X0001155785Y0003094789D01*
X0001153536Y0003092914D01*
X0001151286Y0003089165D01*
X0001151286Y0003079790D01*
X0001153536Y0003076042D01*
X0001155785Y0003074167D01*
X0001160285Y0003072292D01*
X0001171533Y0003072292D01*
X0001176033Y0003074167D01*
X0001178283Y0003076042D01*
X0001180532Y0003079790D01*
X0001180532Y0003089165D01*
X0001178283Y0003092914D01*
X0001176033Y0003094789D01*
X0001033288Y0003076042D02*
X0001033288Y0003083540D01*
X0001035538Y0003087290D01*
X0001037787Y0003089165D01*
X0001044537Y0003092914D01*
X0001053536Y0003094789D01*
X0001071533Y0003094789D01*
X0001076033Y0003092914D01*
X0001078283Y0003091040D01*
X0001080532Y0003087290D01*
X0001080532Y0003079790D01*
X0001078283Y0003076042D01*
X0001076033Y0003074167D01*
X0001071533Y0003072292D01*
X0001060285Y0003072292D01*
X0001055785Y0003074167D01*
X0001053536Y0003076042D01*
X0001051286Y0003079790D01*
X0001051286Y0003087290D01*
X0001053536Y0003091040D01*
X0001055785Y0003092914D01*
X0001060285Y0003094789D01*
D44*
X0001209160Y0003153541D02*
X0001209160Y0003013541D01*
X0001009160Y0003153541D02*
X0001009160Y0003013541D01*
D45*
X0000933287Y0003096664D02*
X0000933287Y0003070417D01*
X0000980532Y0003087290D01*
D44*
X0000809160Y0003153541D02*
X0000809160Y0003013541D01*
D45*
X0000853536Y0003087290D02*
X0000851286Y0003091040D01*
X0000849036Y0003092914D01*
X0000844537Y0003094789D01*
X0000842287Y0003094789D01*
X0000837788Y0003092914D01*
X0000835538Y0003091040D01*
X0000833287Y0003087290D01*
X0000833287Y0003079790D01*
X0000835538Y0003076042D01*
X0000837788Y0003074167D01*
X0000842287Y0003072292D01*
X0000844537Y0003072292D01*
X0000849036Y0003074167D01*
X0000851286Y0003076042D01*
X0000853536Y0003079790D01*
X0000853536Y0003087290D01*
X0000855785Y0003091040D01*
X0000858035Y0003092914D01*
X0000862535Y0003094789D01*
X0000871533Y0003094789D01*
X0000876032Y0003092914D01*
X0000878283Y0003091040D01*
X0000880532Y0003087290D01*
X0000880532Y0003079790D01*
X0000878283Y0003076042D01*
X0000876032Y0003074167D01*
X0000871533Y0003072292D01*
X0000862535Y0003072292D01*
X0000858035Y0003074167D01*
X0000855785Y0003076042D01*
X0000853536Y0003079790D01*
D44*
X0000909160Y0003153541D02*
X0000909160Y0003013541D01*
X0000709160Y0003153541D02*
X0000709160Y0003013541D01*
D45*
X0000780532Y0003091040D02*
X0000780532Y0003083540D01*
X0000778283Y0003079790D01*
X0000776033Y0003077916D01*
X0000769284Y0003074167D01*
X0000760284Y0003072292D01*
X0000742287Y0003072292D01*
X0000737788Y0003074167D01*
X0000735538Y0003076042D01*
X0000733287Y0003079790D01*
X0000733287Y0003087290D01*
X0000735538Y0003091040D01*
X0000737788Y0003092914D01*
X0000742287Y0003094789D01*
X0000753536Y0003094789D01*
X0000758035Y0003092914D01*
X0000760284Y0003091040D01*
X0000762535Y0003087290D01*
X0000762535Y0003079790D01*
X0000760284Y0003076042D01*
X0000758035Y0003074167D01*
X0000753536Y0003072292D01*
D44*
X0000709160Y0003153541D02*
X0001709160Y0003153541D01*
X0001309160Y0003153541D02*
X0001309160Y0003013541D01*
D45*
X0001333288Y0003096664D02*
X0001333288Y0003072292D01*
X0001351286Y0003085414D01*
X0001351286Y0003079790D01*
X0001353536Y0003076042D01*
X0001355784Y0003074167D01*
X0001360285Y0003072292D01*
X0001371533Y0003072292D01*
X0001376033Y0003074167D01*
X0001378283Y0003076042D01*
X0001380532Y0003079790D01*
X0001380532Y0003091040D01*
X0001378283Y0003094789D01*
X0001376033Y0003096664D01*
D44*
X0001409160Y0003153541D02*
X0001409160Y0003013541D01*
X0001509160Y0003153541D02*
X0001509160Y0003013541D01*
D45*
X0001437787Y0003094789D02*
X0001435538Y0003092914D01*
X0001433288Y0003089165D01*
X0001433288Y0003079790D01*
X0001435538Y0003076042D01*
X0001437787Y0003074167D01*
X0001442287Y0003072292D01*
X0001446785Y0003072292D01*
X0001453536Y0003074167D01*
X0001480532Y0003096664D01*
X0001480532Y0003072292D01*
D46*
X0001814736Y0002899535D02*
X0001814736Y0002944531D01*
X0001814736Y0002922033D02*
X0001735995Y0002922033D01*
X0001747244Y0002929533D01*
X0001754743Y0002937032D01*
X0001758493Y0002944531D01*
X0001814736Y0002865790D02*
X0001735995Y0002865790D01*
X0001784739Y0002858291D02*
X0001814736Y0002835794D01*
X0001762242Y0002835794D02*
X0001792238Y0002865790D01*
D45*
X0001580532Y0003072292D02*
X0001580532Y0003094789D01*
X0001580532Y0003083540D02*
X0001533288Y0003083540D01*
X0001540036Y0003087290D01*
X0001544537Y0003091040D01*
X0001546786Y0003094789D01*
D44*
X0001609160Y0003153541D02*
X0001609160Y0003013541D01*
D45*
X0001633288Y0003085414D02*
X0001633288Y0003081666D01*
X0001635538Y0003077916D01*
X0001637787Y0003076042D01*
X0001642287Y0003074167D01*
X0001651286Y0003072292D01*
X0001662535Y0003072292D01*
X0001671533Y0003074167D01*
X0001676033Y0003076042D01*
X0001678283Y0003077916D01*
X0001680532Y0003081666D01*
X0001680532Y0003085414D01*
X0001678283Y0003089165D01*
X0001676033Y0003091040D01*
X0001671533Y0003092914D01*
X0001662535Y0003094789D01*
X0001651286Y0003094789D01*
X0001642287Y0003092914D01*
X0001637787Y0003091040D01*
X0001635538Y0003089165D01*
X0001633288Y0003085414D01*
D44*
X0001709160Y0003153541D02*
X0001709160Y0003013541D01*
D45*
X0001249036Y0002670727D02*
X0001280532Y0002670727D01*
X0001231038Y0002680100D02*
X0001264784Y0002689474D01*
X0001264784Y0002665102D01*
D44*
X0001109160Y0002748226D02*
X0001109160Y0002608226D01*
D45*
X0001133288Y0002668852D02*
X0001133288Y0002687599D01*
X0001155785Y0002689474D01*
X0001153536Y0002687599D01*
X0001151286Y0002683849D01*
X0001151286Y0002674476D01*
X0001153536Y0002670727D01*
X0001155785Y0002668852D01*
X0001160285Y0002666977D01*
X0001171533Y0002666977D01*
X0001176033Y0002668852D01*
X0001178283Y0002670727D01*
X0001180532Y0002674476D01*
X0001180532Y0002683849D01*
X0001178283Y0002687599D01*
X0001176033Y0002689474D01*
X0001033288Y0002670727D02*
X0001033288Y0002678226D01*
X0001035538Y0002681975D01*
X0001037787Y0002683849D01*
X0001044537Y0002687599D01*
X0001053536Y0002689474D01*
X0001071533Y0002689474D01*
X0001076033Y0002687599D01*
X0001078283Y0002685725D01*
X0001080532Y0002681975D01*
X0001080532Y0002674476D01*
X0001078283Y0002670727D01*
X0001076033Y0002668852D01*
X0001071533Y0002666977D01*
X0001060285Y0002666977D01*
X0001055785Y0002668852D01*
X0001053536Y0002670727D01*
X0001051286Y0002674476D01*
X0001051286Y0002681975D01*
X0001053536Y0002685725D01*
X0001055785Y0002687599D01*
X0001060285Y0002689474D01*
D44*
X0001209160Y0002748226D02*
X0001209160Y0002608226D01*
X0001009160Y0002748226D02*
X0001009160Y0002608226D01*
D45*
X0000933287Y0002691349D02*
X0000933287Y0002665102D01*
X0000980532Y0002681975D01*
D44*
X0000809160Y0002748226D02*
X0000809160Y0002608226D01*
D45*
X0000853536Y0002681975D02*
X0000851286Y0002685725D01*
X0000849036Y0002687599D01*
X0000844537Y0002689474D01*
X0000842287Y0002689474D01*
X0000837788Y0002687599D01*
X0000835538Y0002685725D01*
X0000833287Y0002681975D01*
X0000833287Y0002674476D01*
X0000835538Y0002670727D01*
X0000837788Y0002668852D01*
X0000842287Y0002666977D01*
X0000844537Y0002666977D01*
X0000849036Y0002668852D01*
X0000851286Y0002670727D01*
X0000853536Y0002674476D01*
X0000853536Y0002681975D01*
X0000855785Y0002685725D01*
X0000858035Y0002687599D01*
X0000862535Y0002689474D01*
X0000871533Y0002689474D01*
X0000876032Y0002687599D01*
X0000878283Y0002685725D01*
X0000880532Y0002681975D01*
X0000880532Y0002674476D01*
X0000878283Y0002670727D01*
X0000876032Y0002668852D01*
X0000871533Y0002666977D01*
X0000862535Y0002666977D01*
X0000858035Y0002668852D01*
X0000855785Y0002670727D01*
X0000853536Y0002674476D01*
D44*
X0000909160Y0002748226D02*
X0000909160Y0002608226D01*
X0000709160Y0002748226D02*
X0000709160Y0002608226D01*
D45*
X0000780532Y0002685725D02*
X0000780532Y0002678226D01*
X0000778283Y0002674476D01*
X0000776033Y0002672601D01*
X0000769284Y0002668852D01*
X0000760284Y0002666977D01*
X0000742287Y0002666977D01*
X0000737788Y0002668852D01*
X0000735538Y0002670727D01*
X0000733287Y0002674476D01*
X0000733287Y0002681975D01*
X0000735538Y0002685725D01*
X0000737788Y0002687599D01*
X0000742287Y0002689474D01*
X0000753536Y0002689474D01*
X0000758035Y0002687599D01*
X0000760284Y0002685725D01*
X0000762535Y0002681975D01*
X0000762535Y0002674476D01*
X0000760284Y0002670727D01*
X0000758035Y0002668852D01*
X0000753536Y0002666977D01*
D44*
X0000709160Y0002748226D02*
X0001709160Y0002748226D01*
X0001309160Y0002748226D02*
X0001309160Y0002608226D01*
D45*
X0001333288Y0002691349D02*
X0001333288Y0002666977D01*
X0001351286Y0002680100D01*
X0001351286Y0002674476D01*
X0001353536Y0002670727D01*
X0001355784Y0002668852D01*
X0001360285Y0002666977D01*
X0001371533Y0002666977D01*
X0001376033Y0002668852D01*
X0001378283Y0002670727D01*
X0001380532Y0002674476D01*
X0001380532Y0002685725D01*
X0001378283Y0002689474D01*
X0001376033Y0002691349D01*
D44*
X0001409160Y0002748226D02*
X0001409160Y0002608226D01*
X0001509160Y0002748226D02*
X0001509160Y0002608226D01*
D45*
X0001437787Y0002689474D02*
X0001435538Y0002687599D01*
X0001433288Y0002683849D01*
X0001433288Y0002674476D01*
X0001435538Y0002670727D01*
X0001437787Y0002668852D01*
X0001442287Y0002666977D01*
X0001446785Y0002666977D01*
X0001453536Y0002668852D01*
X0001480532Y0002691349D01*
X0001480532Y0002666977D01*
D46*
X0001814736Y0002570127D02*
X0001814736Y0002615121D01*
X0001814736Y0002592624D02*
X0001735995Y0002592624D01*
X0001747244Y0002600123D01*
X0001754743Y0002607622D01*
X0001758493Y0002615121D01*
X0001735995Y0002521383D02*
X0001735995Y0002513884D01*
X0001739745Y0002506385D01*
X0001743495Y0002502635D01*
X0001750994Y0002498886D01*
X0001765992Y0002495136D01*
X0001784739Y0002495136D01*
X0001799737Y0002498886D01*
X0001807236Y0002502635D01*
X0001810986Y0002506385D01*
X0001814736Y0002513884D01*
X0001814736Y0002521383D01*
X0001810986Y0002528881D01*
X0001807236Y0002532631D01*
X0001799737Y0002536381D01*
X0001784739Y0002540131D01*
X0001765992Y0002540131D01*
X0001750994Y0002536381D01*
X0001743495Y0002532631D01*
X0001739745Y0002528881D01*
X0001735995Y0002521383D01*
X0001735995Y0002446392D02*
X0001735995Y0002438893D01*
X0001739745Y0002431394D01*
X0001743495Y0002427645D01*
X0001750994Y0002423895D01*
X0001765992Y0002420146D01*
X0001784739Y0002420146D01*
X0001799737Y0002423895D01*
X0001807236Y0002427645D01*
X0001810986Y0002431394D01*
X0001814736Y0002438893D01*
X0001814736Y0002446392D01*
X0001810986Y0002453891D01*
X0001807236Y0002457641D01*
X0001799737Y0002461390D01*
X0001784739Y0002465140D01*
X0001765992Y0002465140D01*
X0001750994Y0002461390D01*
X0001743495Y0002457641D01*
X0001739745Y0002453891D01*
X0001735995Y0002446392D01*
D45*
X0001580532Y0002666977D02*
X0001580532Y0002689474D01*
X0001580532Y0002678226D02*
X0001533288Y0002678226D01*
X0001540036Y0002681975D01*
X0001544537Y0002685725D01*
X0001546786Y0002689474D01*
D44*
X0001609160Y0002748226D02*
X0001609160Y0002608226D01*
D45*
X0001633288Y0002680100D02*
X0001633288Y0002676351D01*
X0001635538Y0002672601D01*
X0001637787Y0002670727D01*
X0001642287Y0002668852D01*
X0001651286Y0002666977D01*
X0001662535Y0002666977D01*
X0001671533Y0002668852D01*
X0001676033Y0002670727D01*
X0001678283Y0002672601D01*
X0001680532Y0002676351D01*
X0001680532Y0002680100D01*
X0001678283Y0002683849D01*
X0001676033Y0002685725D01*
X0001671533Y0002687599D01*
X0001662535Y0002689474D01*
X0001651286Y0002689474D01*
X0001642287Y0002687599D01*
X0001637787Y0002685725D01*
X0001635538Y0002683849D01*
X0001633288Y0002680100D01*
D44*
X0001709160Y0002748226D02*
X0001709160Y0002608226D01*
D45*
X0001633288Y0002274785D02*
X0001633288Y0002271036D01*
X0001635538Y0002267286D01*
X0001637787Y0002265412D01*
X0001642287Y0002263537D01*
X0001651286Y0002261662D01*
X0001662535Y0002261662D01*
X0001671533Y0002263537D01*
X0001676033Y0002265412D01*
X0001678283Y0002267286D01*
X0001680532Y0002271036D01*
X0001680532Y0002274785D01*
X0001678283Y0002278535D01*
X0001676033Y0002280410D01*
X0001671533Y0002282285D01*
X0001662535Y0002284159D01*
X0001651286Y0002284159D01*
X0001642287Y0002282285D01*
X0001637787Y0002280410D01*
X0001635538Y0002278535D01*
X0001633288Y0002274785D01*
X0001580532Y0002261662D02*
X0001580532Y0002284159D01*
X0001580532Y0002272911D02*
X0001533288Y0002272911D01*
X0001540036Y0002276660D01*
X0001544537Y0002280410D01*
X0001546786Y0002284159D01*
X0001437787Y0002284159D02*
X0001435538Y0002282285D01*
X0001433288Y0002278535D01*
X0001433288Y0002269161D01*
X0001435538Y0002265412D01*
X0001437787Y0002263537D01*
X0001442287Y0002261662D01*
X0001446785Y0002261662D01*
X0001453536Y0002263537D01*
X0001480532Y0002286034D01*
X0001480532Y0002261662D01*
X0001333288Y0002286034D02*
X0001333288Y0002261662D01*
X0001351286Y0002274785D01*
X0001351286Y0002269161D01*
X0001353536Y0002265412D01*
X0001355784Y0002263537D01*
X0001360285Y0002261662D01*
X0001371533Y0002261662D01*
X0001376033Y0002263537D01*
X0001378283Y0002265412D01*
X0001380532Y0002269161D01*
X0001380532Y0002280410D01*
X0001378283Y0002284159D01*
X0001376033Y0002286034D01*
X0001249036Y0002265412D02*
X0001280532Y0002265412D01*
X0001231038Y0002274785D02*
X0001264784Y0002284159D01*
X0001264784Y0002259787D01*
X0001133288Y0002263537D02*
X0001133288Y0002282285D01*
X0001155785Y0002284159D01*
X0001153536Y0002282285D01*
X0001151286Y0002278535D01*
X0001151286Y0002269161D01*
X0001153536Y0002265412D01*
X0001155785Y0002263537D01*
X0001160285Y0002261662D01*
X0001171533Y0002261662D01*
X0001176033Y0002263537D01*
X0001178283Y0002265412D01*
X0001180532Y0002269161D01*
X0001180532Y0002278535D01*
X0001178283Y0002282285D01*
X0001176033Y0002284159D01*
X0001033288Y0002265412D02*
X0001033288Y0002272911D01*
X0001035538Y0002276660D01*
X0001037787Y0002278535D01*
X0001044537Y0002282285D01*
X0001053536Y0002284159D01*
X0001071533Y0002284159D01*
X0001076033Y0002282285D01*
X0001078283Y0002280410D01*
X0001080532Y0002276660D01*
X0001080532Y0002269161D01*
X0001078283Y0002265412D01*
X0001076033Y0002263537D01*
X0001071533Y0002261662D01*
X0001060285Y0002261662D01*
X0001055785Y0002263537D01*
X0001053536Y0002265412D01*
X0001051286Y0002269161D01*
X0001051286Y0002276660D01*
X0001053536Y0002280410D01*
X0001055785Y0002282285D01*
X0001060285Y0002284159D01*
X0000933287Y0002286034D02*
X0000933287Y0002259787D01*
X0000980532Y0002276660D01*
X0000853536Y0002276660D02*
X0000851286Y0002280410D01*
X0000849036Y0002282285D01*
X0000844537Y0002284159D01*
X0000842287Y0002284159D01*
X0000837788Y0002282285D01*
X0000835538Y0002280410D01*
X0000833287Y0002276660D01*
X0000833287Y0002269161D01*
X0000835538Y0002265412D01*
X0000837788Y0002263537D01*
X0000842287Y0002261662D01*
X0000844537Y0002261662D01*
X0000849036Y0002263537D01*
X0000851286Y0002265412D01*
X0000853536Y0002269161D01*
X0000853536Y0002276660D01*
X0000855785Y0002280410D01*
X0000858035Y0002282285D01*
X0000862535Y0002284159D01*
X0000871533Y0002284159D01*
X0000876032Y0002282285D01*
X0000878283Y0002280410D01*
X0000880532Y0002276660D01*
X0000880532Y0002269161D01*
X0000878283Y0002265412D01*
X0000876032Y0002263537D01*
X0000871533Y0002261662D01*
X0000862535Y0002261662D01*
X0000858035Y0002263537D01*
X0000855785Y0002265412D01*
X0000853536Y0002269161D01*
D44*
X0000709160Y0002342911D02*
X0001709160Y0002342911D01*
X0001709160Y0002342911D02*
X0001709160Y0002202911D01*
X0001609160Y0002342911D02*
X0001609160Y0002202911D01*
X0001509160Y0002342911D02*
X0001509160Y0002202911D01*
X0001409160Y0002342911D02*
X0001409160Y0002202911D01*
X0001309160Y0002342911D02*
X0001309160Y0002202911D01*
X0001209160Y0002342911D02*
X0001209160Y0002202911D01*
X0001109160Y0002342911D02*
X0001109160Y0002202911D01*
X0001009160Y0002342911D02*
X0001009160Y0002202911D01*
X0000909160Y0002342911D02*
X0000909160Y0002202911D01*
X0000809160Y0002342911D02*
X0000809160Y0002202911D01*
X0000709160Y0002342911D02*
X0000709160Y0002202911D01*
D46*
X0000673326Y0003273464D02*
X0000574901Y0003273464D01*
X0000574901Y0003254715D01*
X0000579587Y0003243468D01*
X0000588961Y0003235969D01*
X0000598335Y0003232219D01*
X0000617083Y0003228469D01*
X0000631144Y0003228469D01*
X0000649891Y0003232219D01*
X0000659265Y0003235969D01*
X0000668639Y0003243468D01*
X0000673326Y0003254715D01*
X0000673326Y0003273464D01*
X0000668639Y0003164727D02*
X0000673326Y0003172227D01*
X0000673326Y0003187225D01*
X0000668639Y0003194724D01*
X0000659265Y0003198473D01*
X0000621770Y0003198473D01*
X0000612396Y0003194724D01*
X0000607709Y0003187225D01*
X0000607709Y0003172227D01*
X0000612396Y0003164727D01*
X0000621770Y0003160978D01*
X0000631144Y0003160978D01*
X0000640517Y0003198473D01*
X0000673326Y0003127232D02*
X0000574901Y0003127232D01*
X0000635829Y0003119732D02*
X0000673326Y0003097236D01*
X0000607709Y0003097236D02*
X0000645204Y0003127232D01*
X0000673326Y0003029744D02*
X0000621770Y0003029744D01*
X0000612396Y0003033494D01*
X0000607709Y0003040993D01*
X0000607709Y0003055991D01*
X0000612396Y0003063490D01*
X0000668639Y0003029744D02*
X0000673326Y0003037243D01*
X0000673326Y0003055991D01*
X0000668639Y0003063490D01*
X0000659265Y0003067240D01*
X0000649891Y0003067240D01*
X0000640517Y0003063490D01*
X0000635829Y0003055991D01*
X0000635829Y0003037243D01*
X0000631144Y0003029744D01*
X0000673326Y0002958503D02*
X0000574901Y0002958503D01*
X0000668639Y0002958503D02*
X0000673326Y0002966002D01*
X0000673326Y0002981000D01*
X0000668639Y0002988500D01*
X0000663952Y0002992249D01*
X0000654578Y0002995998D01*
X0000626457Y0002995998D01*
X0000617083Y0002992249D01*
X0000612396Y0002988500D01*
X0000607709Y0002981000D01*
X0000607709Y0002966002D01*
X0000612396Y0002958503D01*
X0000673326Y0002887262D02*
X0000621770Y0002887262D01*
X0000612396Y0002891012D01*
X0000607709Y0002898511D01*
X0000607709Y0002913509D01*
X0000612396Y0002921008D01*
X0000668639Y0002887262D02*
X0000673326Y0002894761D01*
X0000673326Y0002913509D01*
X0000668639Y0002921008D01*
X0000659265Y0002924757D01*
X0000649891Y0002924757D01*
X0000640517Y0002921008D01*
X0000635829Y0002913509D01*
X0000635829Y0002894761D01*
X0000631144Y0002887262D01*
X0000673326Y0002786025D02*
X0000673326Y0002771027D01*
X0000668639Y0002763528D01*
X0000663952Y0002759777D01*
X0000649891Y0002752279D01*
X0000631144Y0002748530D01*
X0000593648Y0002748530D01*
X0000584274Y0002752279D01*
X0000579587Y0002756029D01*
X0000574901Y0002763528D01*
X0000574901Y0002778526D01*
X0000579587Y0002786025D01*
X0000584274Y0002789774D01*
X0000593648Y0002793524D01*
X0000617083Y0002793524D01*
X0000626457Y0002789774D01*
X0000631144Y0002786025D01*
X0000635829Y0002778526D01*
X0000635829Y0002763528D01*
X0000631144Y0002756029D01*
X0000626457Y0002752279D01*
X0000617083Y0002748530D01*
X0000673326Y0002711034D02*
X0000673326Y0002696036D01*
X0000668639Y0002688537D01*
X0000663952Y0002684787D01*
X0000649891Y0002677288D01*
X0000631144Y0002673538D01*
X0000593648Y0002673538D01*
X0000584274Y0002677288D01*
X0000579587Y0002681038D01*
X0000574901Y0002688537D01*
X0000574901Y0002703535D01*
X0000579587Y0002711034D01*
X0000584274Y0002714784D01*
X0000593648Y0002718533D01*
X0000617083Y0002718533D01*
X0000626457Y0002714784D01*
X0000631144Y0002711034D01*
X0000635829Y0002703535D01*
X0000635829Y0002688537D01*
X0000631144Y0002681038D01*
X0000626457Y0002677288D01*
X0000617083Y0002673538D01*
X0000673326Y0002639793D02*
X0000574901Y0002639793D01*
X0000635829Y0002632294D02*
X0000673326Y0002609797D01*
X0000607709Y0002609797D02*
X0000645204Y0002639793D01*
X0000673326Y0002572302D02*
X0000673326Y0002557303D01*
X0000668639Y0002549804D01*
X0000663952Y0002546054D01*
X0000649891Y0002538556D01*
X0000631144Y0002534806D01*
X0000593648Y0002534806D01*
X0000584274Y0002538556D01*
X0000579587Y0002542305D01*
X0000574901Y0002549804D01*
X0000574901Y0002564802D01*
X0000579587Y0002572302D01*
X0000584274Y0002576051D01*
X0000593648Y0002579801D01*
X0000617083Y0002579801D01*
X0000626457Y0002576051D01*
X0000631144Y0002572302D01*
X0000635829Y0002564802D01*
X0000635829Y0002549804D01*
X0000631144Y0002542305D01*
X0000626457Y0002538556D01*
X0000617083Y0002534806D01*
X0000673326Y0002497311D02*
X0000673326Y0002482313D01*
X0000668639Y0002474814D01*
X0000663952Y0002471064D01*
X0000649891Y0002463565D01*
X0000631144Y0002459816D01*
X0000593648Y0002459816D01*
X0000584274Y0002463565D01*
X0000579587Y0002467315D01*
X0000574901Y0002474814D01*
X0000574901Y0002489812D01*
X0000579587Y0002497311D01*
X0000584274Y0002501060D01*
X0000593648Y0002504810D01*
X0000617083Y0002504810D01*
X0000626457Y0002501060D01*
X0000631144Y0002497311D01*
X0000635829Y0002489812D01*
X0000635829Y0002474814D01*
X0000631144Y0002467315D01*
X0000626457Y0002463565D01*
X0000617083Y0002459816D01*
X0000635829Y0002366077D02*
X0000635829Y0002306085D01*
X0000673326Y0002167352D02*
X0000673326Y0002212347D01*
X0000673326Y0002189849D02*
X0000574901Y0002189849D01*
X0000588961Y0002197348D01*
X0000598335Y0002204847D01*
X0000603022Y0002212347D01*
X0000574901Y0002118608D02*
X0000574901Y0002111109D01*
X0000579587Y0002103610D01*
X0000584274Y0002099861D01*
X0000593648Y0002096111D01*
X0000612396Y0002092362D01*
X0000635829Y0002092362D01*
X0000654578Y0002096111D01*
X0000663952Y0002099861D01*
X0000668639Y0002103610D01*
X0000673326Y0002111109D01*
X0000673326Y0002118608D01*
X0000668639Y0002126107D01*
X0000663952Y0002129857D01*
X0000654578Y0002133606D01*
X0000635829Y0002137356D01*
X0000612396Y0002137356D01*
X0000593648Y0002133606D01*
X0000584274Y0002129857D01*
X0000579587Y0002126107D01*
X0000574901Y0002118608D01*
X0000673326Y0002013621D02*
X0000626457Y0002039867D01*
X0000673326Y0002058615D02*
X0000574901Y0002058615D01*
X0000574901Y0002028620D01*
X0000579587Y0002021119D01*
X0000584274Y0002017370D01*
X0000593648Y0002013621D01*
X0000607709Y0002013621D01*
X0000617083Y0002017370D01*
X0000621770Y0002021119D01*
X0000626457Y0002028620D01*
X0000626457Y0002058615D01*
D45*
X0000780532Y0002280410D02*
X0000780532Y0002272911D01*
X0000778283Y0002269161D01*
X0000776033Y0002267286D01*
X0000769284Y0002263537D01*
X0000760284Y0002261662D01*
X0000742287Y0002261662D01*
X0000737788Y0002263537D01*
X0000735538Y0002265412D01*
X0000733287Y0002269161D01*
X0000733287Y0002276660D01*
X0000735538Y0002280410D01*
X0000737788Y0002282285D01*
X0000742287Y0002284159D01*
X0000753536Y0002284159D01*
X0000758035Y0002282285D01*
X0000760284Y0002280410D01*
X0000762535Y0002276660D01*
X0000762535Y0002269161D01*
X0000760284Y0002265412D01*
X0000758035Y0002263537D01*
X0000753536Y0002261662D01*
D46*
X0001814736Y0002088906D02*
X0001814736Y0002133901D01*
X0001814736Y0002111404D02*
X0001735995Y0002111404D01*
X0001747244Y0002118903D01*
X0001754743Y0002126402D01*
X0001758493Y0002133901D01*
X0001735995Y0002040162D02*
X0001735995Y0002032663D01*
X0001739745Y0002025164D01*
X0001743495Y0002021415D01*
X0001750994Y0002017665D01*
X0001765992Y0002013916D01*
X0001784739Y0002013916D01*
X0001799737Y0002017665D01*
X0001807236Y0002021415D01*
X0001810986Y0002025164D01*
X0001814736Y0002032663D01*
X0001814736Y0002040162D01*
X0001810986Y0002047661D01*
X0001807236Y0002051410D01*
X0001799737Y0002055161D01*
X0001784739Y0002058910D01*
X0001765992Y0002058910D01*
X0001750994Y0002055161D01*
X0001743495Y0002051410D01*
X0001739745Y0002047661D01*
X0001735995Y0002040162D01*
D44*
X0001709160Y0003218856D02*
X0000709160Y0003218856D01*
X0000809160Y0003418856D02*
X0001709160Y0003418856D01*
X0001709160Y0003218856D02*
X0001709160Y0003418856D01*
X0000709160Y0003218856D02*
X0000709160Y0003318856D01*
X0000709160Y0003318856D02*
X0000809160Y0003318856D01*
X0000809160Y0003318856D02*
X0000809160Y0003418856D01*
X0000709160Y0003338856D02*
X0000709160Y0003418856D01*
X0000709160Y0003418856D02*
X0000789160Y0003418856D01*
X0000709160Y0003013541D02*
X0000789160Y0003013541D01*
X0000709160Y0002933541D02*
X0000709160Y0003013541D01*
X0000809160Y0002913540D02*
X0000809160Y0003013541D01*
X0000709160Y0002913540D02*
X0000809160Y0002913540D01*
X0000709160Y0002813541D02*
X0000709160Y0002913540D01*
X0001709160Y0002813541D02*
X0001709160Y0003013541D01*
X0000809160Y0003013541D02*
X0001709160Y0003013541D01*
X0001709160Y0002813541D02*
X0000709160Y0002813541D01*
X0000709160Y0002608226D02*
X0000789160Y0002608226D01*
X0000709160Y0002528226D02*
X0000709160Y0002608226D01*
X0000809160Y0002508226D02*
X0000809160Y0002608226D01*
X0000709160Y0002508226D02*
X0000809160Y0002508226D01*
X0000709160Y0002408226D02*
X0000709160Y0002508226D01*
X0001709160Y0002408226D02*
X0001709160Y0002608226D01*
X0000809160Y0002608226D02*
X0001709160Y0002608226D01*
X0001709160Y0002408226D02*
X0000709160Y0002408226D01*
X0000709160Y0002202911D02*
X0000789160Y0002202911D01*
X0000709160Y0002122911D02*
X0000709160Y0002202911D01*
X0000809160Y0002102911D02*
X0000809160Y0002202911D01*
X0000709160Y0002102911D02*
X0000809160Y0002102911D01*
X0000709160Y0002002911D02*
X0000709160Y0002102911D01*
X0001709160Y0002002911D02*
X0001709160Y0002202911D01*
X0000809160Y0002202911D02*
X0001709160Y0002202911D01*
X0001709160Y0002002911D02*
X0000709160Y0002002911D01*
X0001085826Y0003591732D02*
X0001085826Y0003691732D01*
X0001185826Y0003591732D02*
X0001085826Y0003591732D01*
X0001296850Y0003580708D02*
X0001296850Y0003702755D01*
X0001235826Y0003580708D02*
X0001296850Y0003580708D01*
X0001185826Y0003691732D02*
X0001185826Y0003591732D01*
X0001296850Y0003702755D02*
X0001235826Y0003702755D01*
X0001185826Y0003691732D02*
X0001085826Y0003691732D01*
X0001186220Y0003820866D02*
X0001086220Y0003820866D01*
X0001297244Y0003831888D02*
X0001236220Y0003831888D01*
X0001186220Y0003820866D02*
X0001186220Y0003720866D01*
X0001236220Y0003709842D02*
X0001297244Y0003709842D01*
X0001297244Y0003709842D02*
X0001297244Y0003831888D01*
X0001186220Y0003720866D02*
X0001086220Y0003720866D01*
X0001086220Y0003720866D02*
X0001086220Y0003820866D01*
%LPC*%
D47*
X0001659160Y0003268856D03*
X0001659160Y0003368856D03*
X0001559159Y0003268856D03*
X0001559159Y0003368856D03*
X0001459160Y0003268856D03*
X0001459160Y0003368856D03*
X0001359160Y0003268856D03*
X0001359160Y0003368856D03*
X0001259160Y0003268856D03*
X0001259160Y0003368856D03*
X0001159160Y0003268856D03*
X0001159160Y0003368856D03*
X0001059160Y0003268856D03*
X0001059160Y0003368856D03*
X0000959160Y0003268856D03*
X0000959160Y0003368856D03*
X0000859160Y0003268856D03*
X0000859160Y0003368856D03*
X0000759160Y0003268856D03*
D48*
X0000759160Y0003368856D03*
X0000759160Y0002963541D03*
D47*
X0000759160Y0002863540D03*
X0000859160Y0002963541D03*
X0000859160Y0002863540D03*
X0000959160Y0002963541D03*
X0000959160Y0002863540D03*
X0001059160Y0002963541D03*
X0001059160Y0002863540D03*
X0001159160Y0002963541D03*
X0001159160Y0002863540D03*
X0001259160Y0002963541D03*
X0001259160Y0002863540D03*
X0001359160Y0002963541D03*
X0001359160Y0002863540D03*
X0001459160Y0002963541D03*
X0001459160Y0002863540D03*
X0001559159Y0002963541D03*
X0001559159Y0002863540D03*
X0001659160Y0002963541D03*
X0001659160Y0002863540D03*
D48*
X0000759160Y0002558226D03*
D47*
X0000759160Y0002458226D03*
X0000859160Y0002558226D03*
X0000859160Y0002458226D03*
X0000959160Y0002558226D03*
X0000959160Y0002458226D03*
X0001059160Y0002558226D03*
X0001059160Y0002458226D03*
X0001159160Y0002558226D03*
X0001159160Y0002458226D03*
X0001259160Y0002558226D03*
X0001259160Y0002458226D03*
X0001359160Y0002558226D03*
X0001359160Y0002458226D03*
X0001459160Y0002558226D03*
X0001459160Y0002458226D03*
X0001559159Y0002558226D03*
X0001559159Y0002458226D03*
X0001659160Y0002558226D03*
X0001659160Y0002458226D03*
D48*
X0000759160Y0002152911D03*
D47*
X0000759160Y0002052911D03*
X0000859160Y0002152911D03*
X0000859160Y0002052911D03*
X0000959160Y0002152911D03*
X0000959160Y0002052911D03*
X0001059160Y0002152911D03*
X0001059160Y0002052911D03*
X0001159160Y0002152911D03*
X0001159160Y0002052911D03*
X0001259160Y0002152911D03*
X0001259160Y0002052911D03*
X0001359160Y0002152911D03*
X0001359160Y0002052911D03*
X0001459160Y0002152911D03*
X0001459160Y0002052911D03*
X0001559159Y0002152911D03*
X0001559159Y0002052911D03*
X0001659160Y0002152911D03*
X0001659160Y0002052911D03*
D49*
X0001235826Y0003641732D03*
D50*
X0001135826Y0003641732D03*
X0001136220Y0003770866D03*
D49*
X0001236220Y0003770866D03*
X0001236220Y0003885433D03*
D50*
X0001136220Y0003885433D03*
M02*