%MOIN*%
%OFA0B0*%
%FSLAX46Y46*%
%IPPOS*%
%LPD*%
%ADD10C,0.005905511811023622*%
%ADD11R,0.062992125984251982X0.03937007874015748*%
%ADD12O,0.07874015748031496X0.07874015748031496*%
%ADD13R,0.07874015748031496X0.07874015748031496*%
%ADD14R,0.08X0.08*%
%ADD15O,0.08X0.08*%
%ADD26C,0.005905511811023622*%
%ADD27R,0.062992125984251982X0.03937007874015748*%
%ADD28O,0.07874015748031496X0.07874015748031496*%
%ADD29R,0.07874015748031496X0.07874015748031496*%
%ADD30R,0.08X0.08*%
%ADD31O,0.08X0.08*%
%ADD42C,0.005905511811023622*%
%ADD43R,0.03937007874015748X0.062992125984251982*%
%ADD44O,0.07874015748031496X0.07874015748031496*%
%ADD45R,0.07874015748031496X0.07874015748031496*%
%ADD46R,0.08X0.08*%
%ADD47O,0.08X0.08*%
%LPD*%
G01G01*
D10*
D11*
X0001968503Y0002519685D02*
X0002654171Y0002129579D03*
X0002654171Y0001995721D03*
X0002248856Y0001395721D03*
X0002248856Y0001529579D03*
D12*
X0003268856Y0001411705D03*
X0003368856Y0001411705D03*
X0003268856Y0001511705D03*
X0003368856Y0001511705D03*
X0003268856Y0001611705D03*
X0003368856Y0001611705D03*
X0003268856Y0001711705D03*
X0003368856Y0001711705D03*
X0003268856Y0001811705D03*
X0003368856Y0001811705D03*
X0003268856Y0001911705D03*
X0003368856Y0001911705D03*
X0003268856Y0002011705D03*
X0003368856Y0002011705D03*
X0003268856Y0002111705D03*
X0003368856Y0002111705D03*
X0003268856Y0002211705D03*
X0003368856Y0002211705D03*
X0003268856Y0002311705D03*
D13*
X0003368856Y0002311705D03*
D11*
X0003554800Y0001829579D03*
X0003554800Y0001695721D03*
X0003464800Y0001595721D03*
X0003464800Y0001729579D03*
X0003554800Y0001495721D03*
X0003554800Y0001629579D03*
X0003464800Y0001529579D03*
X0003464800Y0001395721D03*
X0003554800Y0002229579D03*
X0003554800Y0002095721D03*
X0003464800Y0001995721D03*
X0003464800Y0002129579D03*
X0003554800Y0001895721D03*
X0003554800Y0002029579D03*
X0003464800Y0001929579D03*
X0003464800Y0001795721D03*
X0003464800Y0002329579D03*
X0003464800Y0002195721D03*
D13*
X0002963541Y0002311705D03*
D12*
X0002863541Y0002311705D03*
X0002963541Y0002211705D03*
X0002863541Y0002211705D03*
X0002963541Y0002111705D03*
X0002863541Y0002111705D03*
X0002963541Y0002011705D03*
X0002863541Y0002011705D03*
X0002963541Y0001911705D03*
X0002863541Y0001911705D03*
X0002963541Y0001811705D03*
X0002863541Y0001811705D03*
X0002963541Y0001711705D03*
X0002863541Y0001711705D03*
X0002963541Y0001611705D03*
X0002863541Y0001611705D03*
X0002963541Y0001511705D03*
X0002863541Y0001511705D03*
X0002963541Y0001411705D03*
X0002863541Y0001411705D03*
D11*
X0003149485Y0001695721D03*
X0003149485Y0001829579D03*
X0003059485Y0001729579D03*
X0003059485Y0001595721D03*
X0003149485Y0001629579D03*
X0003149485Y0001495721D03*
X0003059485Y0001395721D03*
X0003059485Y0001529579D03*
X0003149485Y0002095721D03*
X0003149485Y0002229579D03*
X0003059485Y0002129579D03*
X0003059485Y0001995721D03*
X0003149485Y0002029579D03*
X0003149485Y0001895721D03*
X0003059485Y0001795721D03*
X0003059485Y0001929579D03*
X0003059485Y0002195721D03*
X0003059485Y0002329579D03*
D13*
X0002558226Y0002311705D03*
D12*
X0002458226Y0002311705D03*
X0002558226Y0002211705D03*
X0002458226Y0002211705D03*
X0002558226Y0002111705D03*
X0002458226Y0002111705D03*
X0002558226Y0002011705D03*
X0002458226Y0002011705D03*
X0002558226Y0001911705D03*
X0002458226Y0001911705D03*
X0002558226Y0001811705D03*
X0002458226Y0001811705D03*
X0002558226Y0001711705D03*
X0002458226Y0001711705D03*
X0002558226Y0001611705D03*
X0002458226Y0001611705D03*
X0002558226Y0001511705D03*
X0002458226Y0001511705D03*
X0002558226Y0001411705D03*
X0002458226Y0001411705D03*
D11*
X0002744171Y0001695721D03*
X0002744171Y0001829579D03*
X0002654171Y0001729579D03*
X0002654171Y0001595721D03*
X0002744171Y0001629579D03*
X0002744171Y0001495721D03*
X0002654171Y0001395721D03*
X0002654171Y0001529579D03*
X0002744171Y0002095721D03*
X0002744171Y0002229579D03*
X0002744171Y0002029579D03*
X0002744171Y0001895721D03*
X0002654171Y0001795721D03*
X0002654171Y0001929579D03*
X0002654171Y0002195721D03*
X0002654171Y0002329579D03*
X0002338856Y0002095721D03*
X0002338856Y0002229579D03*
X0002338856Y0002029579D03*
X0002338856Y0001895721D03*
X0002338856Y0001695721D03*
X0002338856Y0001829579D03*
X0002338856Y0001629579D03*
X0002338856Y0001495721D03*
X0002248856Y0002195721D03*
X0002248856Y0002329579D03*
X0002248856Y0002129579D03*
X0002248856Y0001995721D03*
X0002248856Y0001795721D03*
X0002248856Y0001929579D03*
X0002248856Y0001729579D03*
X0002248856Y0001595721D03*
D13*
X0002152911Y0002311705D03*
D12*
X0002052911Y0002311705D03*
X0002152911Y0002211705D03*
X0002052911Y0002211705D03*
X0002152911Y0002111705D03*
X0002052911Y0002111705D03*
X0002152911Y0002011705D03*
X0002052911Y0002011705D03*
X0002152911Y0001911705D03*
X0002052911Y0001911705D03*
X0002152911Y0001811705D03*
X0002052911Y0001811705D03*
X0002152911Y0001711705D03*
X0002052911Y0001711705D03*
X0002152911Y0001611705D03*
X0002052911Y0001611705D03*
X0002152911Y0001511705D03*
X0002052911Y0001511705D03*
X0002152911Y0001411705D03*
X0002052911Y0001411705D03*
D14*
X0003641732Y0001835039D03*
D15*
X0003641732Y0001935039D03*
X0003770866Y0001934645D03*
D14*
X0003770866Y0001834645D03*
X0003885433Y0001834645D03*
D15*
X0003885433Y0001934645D03*
G04 next file*
G01G01G01G01*
D26*
D27*
X0001968503Y0003937007D02*
X0002654171Y0003546902D03*
X0002654171Y0003413044D03*
X0002248856Y0002813044D03*
X0002248856Y0002946901D03*
D28*
X0003268856Y0002829028D03*
X0003368856Y0002829028D03*
X0003268856Y0002929028D03*
X0003368856Y0002929028D03*
X0003268856Y0003029028D03*
X0003368856Y0003029028D03*
X0003268856Y0003129028D03*
X0003368856Y0003129028D03*
X0003268856Y0003229028D03*
X0003368856Y0003229028D03*
X0003268856Y0003329028D03*
X0003368856Y0003329028D03*
X0003268856Y0003429027D03*
X0003368856Y0003429027D03*
X0003268856Y0003529027D03*
X0003368856Y0003529027D03*
X0003268856Y0003629028D03*
X0003368856Y0003629028D03*
X0003268856Y0003729028D03*
D29*
X0003368856Y0003729028D03*
D27*
X0003554800Y0003246902D03*
X0003554800Y0003113044D03*
X0003464800Y0003013044D03*
X0003464800Y0003146902D03*
X0003554800Y0002913044D03*
X0003554800Y0003046902D03*
X0003464800Y0002946901D03*
X0003464800Y0002813044D03*
X0003554800Y0003646902D03*
X0003554800Y0003513044D03*
X0003464800Y0003413044D03*
X0003464800Y0003546902D03*
X0003554800Y0003313044D03*
X0003554800Y0003446902D03*
X0003464800Y0003346901D03*
X0003464800Y0003213044D03*
X0003464800Y0003746902D03*
X0003464800Y0003613044D03*
D29*
X0002963541Y0003729028D03*
D28*
X0002863540Y0003729028D03*
X0002963541Y0003629028D03*
X0002863540Y0003629028D03*
X0002963541Y0003529027D03*
X0002863540Y0003529027D03*
X0002963541Y0003429027D03*
X0002863540Y0003429027D03*
X0002963541Y0003329028D03*
X0002863540Y0003329028D03*
X0002963541Y0003229028D03*
X0002863540Y0003229028D03*
X0002963541Y0003129028D03*
X0002863540Y0003129028D03*
X0002963541Y0003029028D03*
X0002863540Y0003029028D03*
X0002963541Y0002929028D03*
X0002863540Y0002929028D03*
X0002963541Y0002829028D03*
X0002863540Y0002829028D03*
D27*
X0003149485Y0003113044D03*
X0003149485Y0003246902D03*
X0003059484Y0003146902D03*
X0003059484Y0003013044D03*
X0003149485Y0003046902D03*
X0003149485Y0002913044D03*
X0003059484Y0002813044D03*
X0003059484Y0002946901D03*
X0003149485Y0003513044D03*
X0003149485Y0003646902D03*
X0003059484Y0003546902D03*
X0003059484Y0003413044D03*
X0003149485Y0003446902D03*
X0003149485Y0003313044D03*
X0003059484Y0003213044D03*
X0003059484Y0003346901D03*
X0003059484Y0003613044D03*
X0003059484Y0003746902D03*
D29*
X0002558226Y0003729028D03*
D28*
X0002458226Y0003729028D03*
X0002558226Y0003629028D03*
X0002458226Y0003629028D03*
X0002558226Y0003529027D03*
X0002458226Y0003529027D03*
X0002558226Y0003429027D03*
X0002458226Y0003429027D03*
X0002558226Y0003329028D03*
X0002458226Y0003329028D03*
X0002558226Y0003229028D03*
X0002458226Y0003229028D03*
X0002558226Y0003129028D03*
X0002458226Y0003129028D03*
X0002558226Y0003029028D03*
X0002458226Y0003029028D03*
X0002558226Y0002929028D03*
X0002458226Y0002929028D03*
X0002558226Y0002829028D03*
X0002458226Y0002829028D03*
D27*
X0002744171Y0003113044D03*
X0002744171Y0003246902D03*
X0002654171Y0003146902D03*
X0002654171Y0003013044D03*
X0002744171Y0003046902D03*
X0002744171Y0002913044D03*
X0002654171Y0002813044D03*
X0002654171Y0002946901D03*
X0002744171Y0003513044D03*
X0002744171Y0003646902D03*
X0002744171Y0003446902D03*
X0002744171Y0003313044D03*
X0002654171Y0003213044D03*
X0002654171Y0003346901D03*
X0002654171Y0003613044D03*
X0002654171Y0003746902D03*
X0002338856Y0003513044D03*
X0002338856Y0003646902D03*
X0002338856Y0003446902D03*
X0002338856Y0003313044D03*
X0002338856Y0003113044D03*
X0002338856Y0003246902D03*
X0002338856Y0003046902D03*
X0002338856Y0002913044D03*
X0002248856Y0003613044D03*
X0002248856Y0003746902D03*
X0002248856Y0003546902D03*
X0002248856Y0003413044D03*
X0002248856Y0003213044D03*
X0002248856Y0003346901D03*
X0002248856Y0003146902D03*
X0002248856Y0003013044D03*
D29*
X0002152911Y0003729028D03*
D28*
X0002052911Y0003729028D03*
X0002152911Y0003629028D03*
X0002052911Y0003629028D03*
X0002152911Y0003529027D03*
X0002052911Y0003529027D03*
X0002152911Y0003429027D03*
X0002052911Y0003429027D03*
X0002152911Y0003329028D03*
X0002052911Y0003329028D03*
X0002152911Y0003229028D03*
X0002052911Y0003229028D03*
X0002152911Y0003129028D03*
X0002052911Y0003129028D03*
X0002152911Y0003029028D03*
X0002052911Y0003029028D03*
X0002152911Y0002929028D03*
X0002052911Y0002929028D03*
X0002152911Y0002829028D03*
X0002052911Y0002829028D03*
D30*
X0003641732Y0003252362D03*
D31*
X0003641732Y0003352362D03*
X0003770866Y0003351968D03*
D30*
X0003770866Y0003251968D03*
X0003885433Y0003251968D03*
D31*
X0003885433Y0003351968D03*
G04 next file*
G04 #@! TF.FileFunction,Soldermask,Top*
G04 Gerber Fmt 4.6, Leading zero omitted, Abs format (unit mm)*
G04 Created by KiCad (PCBNEW (2016-10-28 revision 192d4b8)-makepkg) date 11/16/16 20:27:21*
G01G01G01G01*
G04 APERTURE LIST*
G04 APERTURE END LIST*
D42*
D43*
X0000551181Y0001968503D02*
X0000941286Y0002654171D03*
X0001075144Y0002654171D03*
X0001675144Y0002248856D03*
X0001541286Y0002248856D03*
D44*
X0001659160Y0003268856D03*
X0001659160Y0003368856D03*
X0001559159Y0003268856D03*
X0001559159Y0003368856D03*
X0001459160Y0003268856D03*
X0001459160Y0003368856D03*
X0001359160Y0003268856D03*
X0001359160Y0003368856D03*
X0001259160Y0003268856D03*
X0001259160Y0003368856D03*
X0001159160Y0003268856D03*
X0001159160Y0003368856D03*
X0001059160Y0003268856D03*
X0001059160Y0003368856D03*
X0000959160Y0003268856D03*
X0000959160Y0003368856D03*
X0000859160Y0003268856D03*
X0000859160Y0003368856D03*
X0000759160Y0003268856D03*
D45*
X0000759160Y0003368856D03*
D43*
X0001241286Y0003554800D03*
X0001375144Y0003554800D03*
X0001475144Y0003464800D03*
X0001341286Y0003464800D03*
X0001575144Y0003554800D03*
X0001441286Y0003554800D03*
X0001541286Y0003464800D03*
X0001675144Y0003464800D03*
X0000841285Y0003554800D03*
X0000975143Y0003554800D03*
X0001075144Y0003464800D03*
X0000941286Y0003464800D03*
X0001175144Y0003554800D03*
X0001041285Y0003554800D03*
X0001141286Y0003464800D03*
X0001275144Y0003464800D03*
X0000741285Y0003464800D03*
X0000875144Y0003464800D03*
D45*
X0000759160Y0002963541D03*
D44*
X0000759160Y0002863540D03*
X0000859160Y0002963541D03*
X0000859160Y0002863540D03*
X0000959160Y0002963541D03*
X0000959160Y0002863540D03*
X0001059160Y0002963541D03*
X0001059160Y0002863540D03*
X0001159160Y0002963541D03*
X0001159160Y0002863540D03*
X0001259160Y0002963541D03*
X0001259160Y0002863540D03*
X0001359160Y0002963541D03*
X0001359160Y0002863540D03*
X0001459160Y0002963541D03*
X0001459160Y0002863540D03*
X0001559159Y0002963541D03*
X0001559159Y0002863540D03*
X0001659160Y0002963541D03*
X0001659160Y0002863540D03*
D43*
X0001375144Y0003149485D03*
X0001241286Y0003149485D03*
X0001341286Y0003059484D03*
X0001475144Y0003059484D03*
X0001441286Y0003149485D03*
X0001575144Y0003149485D03*
X0001675144Y0003059484D03*
X0001541286Y0003059484D03*
X0000975143Y0003149485D03*
X0000841285Y0003149485D03*
X0000941286Y0003059484D03*
X0001075144Y0003059484D03*
X0001041285Y0003149485D03*
X0001175144Y0003149485D03*
X0001275144Y0003059484D03*
X0001141286Y0003059484D03*
X0000875144Y0003059484D03*
X0000741285Y0003059484D03*
D45*
X0000759160Y0002558226D03*
D44*
X0000759160Y0002458226D03*
X0000859160Y0002558226D03*
X0000859160Y0002458226D03*
X0000959160Y0002558226D03*
X0000959160Y0002458226D03*
X0001059160Y0002558226D03*
X0001059160Y0002458226D03*
X0001159160Y0002558226D03*
X0001159160Y0002458226D03*
X0001259160Y0002558226D03*
X0001259160Y0002458226D03*
X0001359160Y0002558226D03*
X0001359160Y0002458226D03*
X0001459160Y0002558226D03*
X0001459160Y0002458226D03*
X0001559159Y0002558226D03*
X0001559159Y0002458226D03*
X0001659160Y0002558226D03*
X0001659160Y0002458226D03*
D43*
X0001375144Y0002744171D03*
X0001241286Y0002744171D03*
X0001341286Y0002654171D03*
X0001475144Y0002654171D03*
X0001441286Y0002744171D03*
X0001575144Y0002744171D03*
X0001675144Y0002654171D03*
X0001541286Y0002654171D03*
X0000975143Y0002744171D03*
X0000841285Y0002744171D03*
X0001041285Y0002744171D03*
X0001175144Y0002744171D03*
X0001275144Y0002654171D03*
X0001141286Y0002654171D03*
X0000875144Y0002654171D03*
X0000741285Y0002654171D03*
X0000975143Y0002338856D03*
X0000841285Y0002338856D03*
X0001041285Y0002338856D03*
X0001175144Y0002338856D03*
X0001375144Y0002338856D03*
X0001241286Y0002338856D03*
X0001441286Y0002338856D03*
X0001575144Y0002338856D03*
X0000875144Y0002248856D03*
X0000741285Y0002248856D03*
X0000941286Y0002248856D03*
X0001075144Y0002248856D03*
X0001275144Y0002248856D03*
X0001141286Y0002248856D03*
X0001341286Y0002248856D03*
X0001475144Y0002248856D03*
D45*
X0000759160Y0002152911D03*
D44*
X0000759160Y0002052911D03*
X0000859160Y0002152911D03*
X0000859160Y0002052911D03*
X0000959160Y0002152911D03*
X0000959160Y0002052911D03*
X0001059160Y0002152911D03*
X0001059160Y0002052911D03*
X0001159160Y0002152911D03*
X0001159160Y0002052911D03*
X0001259160Y0002152911D03*
X0001259160Y0002052911D03*
X0001359160Y0002152911D03*
X0001359160Y0002052911D03*
X0001459160Y0002152911D03*
X0001459160Y0002052911D03*
X0001559159Y0002152911D03*
X0001559159Y0002052911D03*
X0001659160Y0002152911D03*
X0001659160Y0002052911D03*
D46*
X0001235826Y0003641732D03*
D47*
X0001135826Y0003641732D03*
X0001136220Y0003770866D03*
D46*
X0001236220Y0003770866D03*
X0001236220Y0003885433D03*
D47*
X0001136220Y0003885433D03*
M02*