%MOIN*%
%OFA0B0*%
%FSLAX46Y46*%
%IPPOS*%
%LPD*%
%ADD10C,0.005905511811023622*%
%ADD11O,0.07874015748031496X0.07874015748031496*%
%ADD12R,0.07874015748031496X0.07874015748031496*%
%ADD13R,0.08X0.08*%
%ADD14O,0.08X0.08*%
%ADD15C,0.01*%
%ADD26C,0.005905511811023622*%
%ADD27O,0.07874015748031496X0.07874015748031496*%
%ADD28R,0.07874015748031496X0.07874015748031496*%
%ADD29R,0.08X0.08*%
%ADD30O,0.08X0.08*%
%ADD31C,0.01*%
%ADD42C,0.005905511811023622*%
%ADD43O,0.07874015748031496X0.07874015748031496*%
%ADD44R,0.07874015748031496X0.07874015748031496*%
%ADD45R,0.08X0.08*%
%ADD46O,0.08X0.08*%
%ADD47C,0.01*%
%LPD*%
G01G01*
D10*
D11*
X0001968503Y0002519685D02*
X0003268856Y0001411705D03*
X0003368856Y0001411705D03*
X0003268856Y0001511705D03*
X0003368856Y0001511705D03*
X0003268856Y0001611705D03*
X0003368856Y0001611705D03*
X0003268856Y0001711705D03*
X0003368856Y0001711705D03*
X0003268856Y0001811705D03*
X0003368856Y0001811705D03*
X0003268856Y0001911705D03*
X0003368856Y0001911705D03*
X0003268856Y0002011705D03*
X0003368856Y0002011705D03*
X0003268856Y0002111705D03*
X0003368856Y0002111705D03*
X0003268856Y0002211705D03*
X0003368856Y0002211705D03*
X0003268856Y0002311705D03*
D12*
X0003368856Y0002311705D03*
X0002963541Y0002311705D03*
D11*
X0002863541Y0002311705D03*
X0002963541Y0002211705D03*
X0002863541Y0002211705D03*
X0002963541Y0002111705D03*
X0002863541Y0002111705D03*
X0002963541Y0002011705D03*
X0002863541Y0002011705D03*
X0002963541Y0001911705D03*
X0002863541Y0001911705D03*
X0002963541Y0001811705D03*
X0002863541Y0001811705D03*
X0002963541Y0001711705D03*
X0002863541Y0001711705D03*
X0002963541Y0001611705D03*
X0002863541Y0001611705D03*
X0002963541Y0001511705D03*
X0002863541Y0001511705D03*
X0002963541Y0001411705D03*
X0002863541Y0001411705D03*
D12*
X0002558226Y0002311705D03*
D11*
X0002458226Y0002311705D03*
X0002558226Y0002211705D03*
X0002458226Y0002211705D03*
X0002558226Y0002111705D03*
X0002458226Y0002111705D03*
X0002558226Y0002011705D03*
X0002458226Y0002011705D03*
X0002558226Y0001911705D03*
X0002458226Y0001911705D03*
X0002558226Y0001811705D03*
X0002458226Y0001811705D03*
X0002558226Y0001711705D03*
X0002458226Y0001711705D03*
X0002558226Y0001611705D03*
X0002458226Y0001611705D03*
X0002558226Y0001511705D03*
X0002458226Y0001511705D03*
X0002558226Y0001411705D03*
X0002458226Y0001411705D03*
D12*
X0002152911Y0002311705D03*
D11*
X0002052911Y0002311705D03*
X0002152911Y0002211705D03*
X0002052911Y0002211705D03*
X0002152911Y0002111705D03*
X0002052911Y0002111705D03*
X0002152911Y0002011705D03*
X0002052911Y0002011705D03*
X0002152911Y0001911705D03*
X0002052911Y0001911705D03*
X0002152911Y0001811705D03*
X0002052911Y0001811705D03*
X0002152911Y0001711705D03*
X0002052911Y0001711705D03*
X0002152911Y0001611705D03*
X0002052911Y0001611705D03*
X0002152911Y0001511705D03*
X0002052911Y0001511705D03*
X0002152911Y0001411705D03*
X0002052911Y0001411705D03*
D13*
X0003641732Y0001835039D03*
D14*
X0003641732Y0001935039D03*
X0003770866Y0001934645D03*
D13*
X0003770866Y0001834645D03*
X0003885433Y0001834645D03*
D14*
X0003885433Y0001934645D03*
D15*
G36*
X0002342856Y0001241750D02*
X0002002919Y0001241750D01*
X0002002919Y0001388946D01*
X0002013400Y0001373260D01*
X0002031039Y0001361474D01*
X0002051846Y0001357335D01*
X0002053976Y0001357335D01*
X0002074782Y0001361474D01*
X0002092421Y0001373260D01*
X0002102911Y0001388958D01*
X0002113400Y0001373260D01*
X0002131039Y0001361474D01*
X0002151846Y0001357335D01*
X0002153976Y0001357335D01*
X0002174782Y0001361474D01*
X0002192421Y0001373260D01*
X0002204207Y0001390899D01*
X0002208346Y0001411705D01*
X0002204207Y0001432512D01*
X0002192421Y0001450151D01*
X0002175129Y0001461705D01*
X0002192421Y0001473260D01*
X0002204207Y0001490899D01*
X0002208346Y0001511705D01*
X0002204207Y0001532512D01*
X0002192421Y0001550151D01*
X0002175129Y0001561705D01*
X0002192421Y0001573260D01*
X0002204207Y0001590899D01*
X0002208346Y0001611705D01*
X0002204207Y0001632512D01*
X0002192421Y0001650151D01*
X0002175129Y0001661705D01*
X0002192421Y0001673260D01*
X0002204207Y0001690899D01*
X0002208346Y0001711705D01*
X0002204207Y0001732512D01*
X0002192421Y0001750151D01*
X0002175129Y0001761705D01*
X0002192421Y0001773260D01*
X0002204207Y0001790899D01*
X0002208346Y0001811705D01*
X0002204207Y0001832512D01*
X0002192421Y0001850151D01*
X0002175129Y0001861705D01*
X0002192421Y0001873260D01*
X0002204207Y0001890899D01*
X0002208346Y0001911705D01*
X0002204207Y0001932512D01*
X0002192421Y0001950151D01*
X0002175129Y0001961705D01*
X0002192421Y0001973260D01*
X0002204207Y0001990899D01*
X0002208346Y0002011705D01*
X0002204207Y0002032512D01*
X0002192421Y0002050151D01*
X0002175129Y0002061705D01*
X0002192421Y0002073260D01*
X0002204207Y0002090899D01*
X0002208346Y0002111705D01*
X0002204207Y0002132512D01*
X0002192421Y0002150151D01*
X0002175129Y0002161705D01*
X0002192421Y0002173260D01*
X0002204207Y0002190899D01*
X0002208346Y0002211705D01*
X0002204207Y0002232512D01*
X0002192421Y0002250151D01*
X0002182109Y0002257041D01*
X0002192281Y0002257041D01*
X0002198133Y0002258205D01*
X0002203095Y0002261521D01*
X0002206410Y0002266482D01*
X0002207575Y0002272335D01*
X0002207575Y0002351075D01*
X0002206410Y0002356928D01*
X0002203188Y0002361750D01*
X0002342919Y0002361750D01*
X0002342856Y0001241750D01*
X0002342856Y0001241750D01*
G37*
X0002342856Y0001241750D02*
X0002002919Y0001241750D01*
X0002002919Y0001388946D01*
X0002013400Y0001373260D01*
X0002031039Y0001361474D01*
X0002051846Y0001357335D01*
X0002053976Y0001357335D01*
X0002074782Y0001361474D01*
X0002092421Y0001373260D01*
X0002102911Y0001388958D01*
X0002113400Y0001373260D01*
X0002131039Y0001361474D01*
X0002151846Y0001357335D01*
X0002153976Y0001357335D01*
X0002174782Y0001361474D01*
X0002192421Y0001373260D01*
X0002204207Y0001390899D01*
X0002208346Y0001411705D01*
X0002204207Y0001432512D01*
X0002192421Y0001450151D01*
X0002175129Y0001461705D01*
X0002192421Y0001473260D01*
X0002204207Y0001490899D01*
X0002208346Y0001511705D01*
X0002204207Y0001532512D01*
X0002192421Y0001550151D01*
X0002175129Y0001561705D01*
X0002192421Y0001573260D01*
X0002204207Y0001590899D01*
X0002208346Y0001611705D01*
X0002204207Y0001632512D01*
X0002192421Y0001650151D01*
X0002175129Y0001661705D01*
X0002192421Y0001673260D01*
X0002204207Y0001690899D01*
X0002208346Y0001711705D01*
X0002204207Y0001732512D01*
X0002192421Y0001750151D01*
X0002175129Y0001761705D01*
X0002192421Y0001773260D01*
X0002204207Y0001790899D01*
X0002208346Y0001811705D01*
X0002204207Y0001832512D01*
X0002192421Y0001850151D01*
X0002175129Y0001861705D01*
X0002192421Y0001873260D01*
X0002204207Y0001890899D01*
X0002208346Y0001911705D01*
X0002204207Y0001932512D01*
X0002192421Y0001950151D01*
X0002175129Y0001961705D01*
X0002192421Y0001973260D01*
X0002204207Y0001990899D01*
X0002208346Y0002011705D01*
X0002204207Y0002032512D01*
X0002192421Y0002050151D01*
X0002175129Y0002061705D01*
X0002192421Y0002073260D01*
X0002204207Y0002090899D01*
X0002208346Y0002111705D01*
X0002204207Y0002132512D01*
X0002192421Y0002150151D01*
X0002175129Y0002161705D01*
X0002192421Y0002173260D01*
X0002204207Y0002190899D01*
X0002208346Y0002211705D01*
X0002204207Y0002232512D01*
X0002192421Y0002250151D01*
X0002182109Y0002257041D01*
X0002192281Y0002257041D01*
X0002198133Y0002258205D01*
X0002203095Y0002261521D01*
X0002206410Y0002266482D01*
X0002207575Y0002272335D01*
X0002207575Y0002351075D01*
X0002206410Y0002356928D01*
X0002203188Y0002361750D01*
X0002342919Y0002361750D01*
X0002342856Y0001241750D01*
G36*
X0002113400Y0001473260D02*
X0002130693Y0001461705D01*
X0002113400Y0001450151D01*
X0002102911Y0001434452D01*
X0002092421Y0001450151D01*
X0002075129Y0001461705D01*
X0002092421Y0001473260D01*
X0002102911Y0001488958D01*
X0002113400Y0001473260D01*
X0002113400Y0001473260D01*
G37*
X0002113400Y0001473260D02*
X0002130693Y0001461705D01*
X0002113400Y0001450151D01*
X0002102911Y0001434452D01*
X0002092421Y0001450151D01*
X0002075129Y0001461705D01*
X0002092421Y0001473260D01*
X0002102911Y0001488958D01*
X0002113400Y0001473260D01*
G36*
X0002013400Y0001473260D02*
X0002030693Y0001461705D01*
X0002013400Y0001450151D01*
X0002002919Y0001434465D01*
X0002002919Y0001488946D01*
X0002013400Y0001473260D01*
X0002013400Y0001473260D01*
G37*
X0002013400Y0001473260D02*
X0002030693Y0001461705D01*
X0002013400Y0001450151D01*
X0002002919Y0001434465D01*
X0002002919Y0001488946D01*
X0002013400Y0001473260D01*
G36*
X0002113400Y0001573260D02*
X0002130693Y0001561705D01*
X0002113400Y0001550151D01*
X0002102911Y0001534452D01*
X0002092421Y0001550151D01*
X0002075129Y0001561705D01*
X0002092421Y0001573260D01*
X0002102911Y0001588958D01*
X0002113400Y0001573260D01*
X0002113400Y0001573260D01*
G37*
X0002113400Y0001573260D02*
X0002130693Y0001561705D01*
X0002113400Y0001550151D01*
X0002102911Y0001534452D01*
X0002092421Y0001550151D01*
X0002075129Y0001561705D01*
X0002092421Y0001573260D01*
X0002102911Y0001588958D01*
X0002113400Y0001573260D01*
G36*
X0002013400Y0001573260D02*
X0002030693Y0001561705D01*
X0002013400Y0001550151D01*
X0002002919Y0001534465D01*
X0002002919Y0001588946D01*
X0002013400Y0001573260D01*
X0002013400Y0001573260D01*
G37*
X0002013400Y0001573260D02*
X0002030693Y0001561705D01*
X0002013400Y0001550151D01*
X0002002919Y0001534465D01*
X0002002919Y0001588946D01*
X0002013400Y0001573260D01*
G36*
X0002113400Y0001673260D02*
X0002130693Y0001661705D01*
X0002113400Y0001650151D01*
X0002102911Y0001634452D01*
X0002092421Y0001650151D01*
X0002075129Y0001661705D01*
X0002092421Y0001673260D01*
X0002102911Y0001688958D01*
X0002113400Y0001673260D01*
X0002113400Y0001673260D01*
G37*
X0002113400Y0001673260D02*
X0002130693Y0001661705D01*
X0002113400Y0001650151D01*
X0002102911Y0001634452D01*
X0002092421Y0001650151D01*
X0002075129Y0001661705D01*
X0002092421Y0001673260D01*
X0002102911Y0001688958D01*
X0002113400Y0001673260D01*
G36*
X0002013400Y0001673260D02*
X0002030693Y0001661705D01*
X0002013400Y0001650151D01*
X0002002919Y0001634465D01*
X0002002919Y0001688946D01*
X0002013400Y0001673260D01*
X0002013400Y0001673260D01*
G37*
X0002013400Y0001673260D02*
X0002030693Y0001661705D01*
X0002013400Y0001650151D01*
X0002002919Y0001634465D01*
X0002002919Y0001688946D01*
X0002013400Y0001673260D01*
G36*
X0002113400Y0001773260D02*
X0002130693Y0001761705D01*
X0002113400Y0001750151D01*
X0002102911Y0001734452D01*
X0002092421Y0001750151D01*
X0002075129Y0001761705D01*
X0002092421Y0001773260D01*
X0002102911Y0001788958D01*
X0002113400Y0001773260D01*
X0002113400Y0001773260D01*
G37*
X0002113400Y0001773260D02*
X0002130693Y0001761705D01*
X0002113400Y0001750151D01*
X0002102911Y0001734452D01*
X0002092421Y0001750151D01*
X0002075129Y0001761705D01*
X0002092421Y0001773260D01*
X0002102911Y0001788958D01*
X0002113400Y0001773260D01*
G36*
X0002013400Y0001773260D02*
X0002030693Y0001761705D01*
X0002013400Y0001750151D01*
X0002002919Y0001734465D01*
X0002002919Y0001788946D01*
X0002013400Y0001773260D01*
X0002013400Y0001773260D01*
G37*
X0002013400Y0001773260D02*
X0002030693Y0001761705D01*
X0002013400Y0001750151D01*
X0002002919Y0001734465D01*
X0002002919Y0001788946D01*
X0002013400Y0001773260D01*
G36*
X0002113400Y0001873260D02*
X0002130693Y0001861705D01*
X0002113400Y0001850151D01*
X0002102911Y0001834452D01*
X0002092421Y0001850151D01*
X0002075129Y0001861705D01*
X0002092421Y0001873260D01*
X0002102911Y0001888958D01*
X0002113400Y0001873260D01*
X0002113400Y0001873260D01*
G37*
X0002113400Y0001873260D02*
X0002130693Y0001861705D01*
X0002113400Y0001850151D01*
X0002102911Y0001834452D01*
X0002092421Y0001850151D01*
X0002075129Y0001861705D01*
X0002092421Y0001873260D01*
X0002102911Y0001888958D01*
X0002113400Y0001873260D01*
G36*
X0002013400Y0001873260D02*
X0002030693Y0001861705D01*
X0002013400Y0001850151D01*
X0002002919Y0001834465D01*
X0002002919Y0001888946D01*
X0002013400Y0001873260D01*
X0002013400Y0001873260D01*
G37*
X0002013400Y0001873260D02*
X0002030693Y0001861705D01*
X0002013400Y0001850151D01*
X0002002919Y0001834465D01*
X0002002919Y0001888946D01*
X0002013400Y0001873260D01*
G36*
X0002113400Y0001973260D02*
X0002130693Y0001961705D01*
X0002113400Y0001950151D01*
X0002102911Y0001934452D01*
X0002092421Y0001950151D01*
X0002075129Y0001961705D01*
X0002092421Y0001973260D01*
X0002102911Y0001988958D01*
X0002113400Y0001973260D01*
X0002113400Y0001973260D01*
G37*
X0002113400Y0001973260D02*
X0002130693Y0001961705D01*
X0002113400Y0001950151D01*
X0002102911Y0001934452D01*
X0002092421Y0001950151D01*
X0002075129Y0001961705D01*
X0002092421Y0001973260D01*
X0002102911Y0001988958D01*
X0002113400Y0001973260D01*
G36*
X0002013400Y0001973260D02*
X0002030693Y0001961705D01*
X0002013400Y0001950151D01*
X0002002919Y0001934465D01*
X0002002919Y0001988946D01*
X0002013400Y0001973260D01*
X0002013400Y0001973260D01*
G37*
X0002013400Y0001973260D02*
X0002030693Y0001961705D01*
X0002013400Y0001950151D01*
X0002002919Y0001934465D01*
X0002002919Y0001988946D01*
X0002013400Y0001973260D01*
G36*
X0002113400Y0002073260D02*
X0002130693Y0002061705D01*
X0002113400Y0002050151D01*
X0002102911Y0002034452D01*
X0002092421Y0002050151D01*
X0002075129Y0002061705D01*
X0002092421Y0002073260D01*
X0002102911Y0002088958D01*
X0002113400Y0002073260D01*
X0002113400Y0002073260D01*
G37*
X0002113400Y0002073260D02*
X0002130693Y0002061705D01*
X0002113400Y0002050151D01*
X0002102911Y0002034452D01*
X0002092421Y0002050151D01*
X0002075129Y0002061705D01*
X0002092421Y0002073260D01*
X0002102911Y0002088958D01*
X0002113400Y0002073260D01*
G36*
X0002013400Y0002073260D02*
X0002030693Y0002061705D01*
X0002013400Y0002050151D01*
X0002002919Y0002034465D01*
X0002002919Y0002088946D01*
X0002013400Y0002073260D01*
X0002013400Y0002073260D01*
G37*
X0002013400Y0002073260D02*
X0002030693Y0002061705D01*
X0002013400Y0002050151D01*
X0002002919Y0002034465D01*
X0002002919Y0002088946D01*
X0002013400Y0002073260D01*
G36*
X0002113400Y0002173260D02*
X0002130693Y0002161705D01*
X0002113400Y0002150151D01*
X0002102911Y0002134452D01*
X0002092421Y0002150151D01*
X0002075129Y0002161705D01*
X0002092421Y0002173260D01*
X0002102911Y0002188958D01*
X0002113400Y0002173260D01*
X0002113400Y0002173260D01*
G37*
X0002113400Y0002173260D02*
X0002130693Y0002161705D01*
X0002113400Y0002150151D01*
X0002102911Y0002134452D01*
X0002092421Y0002150151D01*
X0002075129Y0002161705D01*
X0002092421Y0002173260D01*
X0002102911Y0002188958D01*
X0002113400Y0002173260D01*
G36*
X0002013400Y0002173260D02*
X0002030693Y0002161705D01*
X0002013400Y0002150151D01*
X0002002919Y0002134465D01*
X0002002919Y0002188946D01*
X0002013400Y0002173260D01*
X0002013400Y0002173260D01*
G37*
X0002013400Y0002173260D02*
X0002030693Y0002161705D01*
X0002013400Y0002150151D01*
X0002002919Y0002134465D01*
X0002002919Y0002188946D01*
X0002013400Y0002173260D01*
G36*
X0002098247Y0002272335D02*
X0002099411Y0002266482D01*
X0002102726Y0002261521D01*
X0002107688Y0002258205D01*
X0002113541Y0002257041D01*
X0002123713Y0002257041D01*
X0002113400Y0002250151D01*
X0002102911Y0002234452D01*
X0002092421Y0002250151D01*
X0002075129Y0002261705D01*
X0002092421Y0002273260D01*
X0002098247Y0002281978D01*
X0002098247Y0002272335D01*
X0002098247Y0002272335D01*
G37*
X0002098247Y0002272335D02*
X0002099411Y0002266482D01*
X0002102726Y0002261521D01*
X0002107688Y0002258205D01*
X0002113541Y0002257041D01*
X0002123713Y0002257041D01*
X0002113400Y0002250151D01*
X0002102911Y0002234452D01*
X0002092421Y0002250151D01*
X0002075129Y0002261705D01*
X0002092421Y0002273260D01*
X0002098247Y0002281978D01*
X0002098247Y0002272335D01*
G36*
X0002013400Y0002273260D02*
X0002030693Y0002261705D01*
X0002013400Y0002250151D01*
X0002002919Y0002234465D01*
X0002002919Y0002288946D01*
X0002013400Y0002273260D01*
X0002013400Y0002273260D01*
G37*
X0002013400Y0002273260D02*
X0002030693Y0002261705D01*
X0002013400Y0002250151D01*
X0002002919Y0002234465D01*
X0002002919Y0002288946D01*
X0002013400Y0002273260D01*
G36*
X0002013400Y0002350151D02*
X0002002919Y0002334465D01*
X0002002919Y0002361750D01*
X0002030760Y0002361750D01*
X0002013400Y0002350151D01*
X0002013400Y0002350151D01*
G37*
X0002013400Y0002350151D02*
X0002002919Y0002334465D01*
X0002002919Y0002361750D01*
X0002030760Y0002361750D01*
X0002013400Y0002350151D01*
G36*
X0002099411Y0002356928D02*
X0002098247Y0002351075D01*
X0002098247Y0002341432D01*
X0002092421Y0002350151D01*
X0002075062Y0002361750D01*
X0002102633Y0002361750D01*
X0002099411Y0002356928D01*
X0002099411Y0002356928D01*
G37*
X0002099411Y0002356928D02*
X0002098247Y0002351075D01*
X0002098247Y0002341432D01*
X0002092421Y0002350151D01*
X0002075062Y0002361750D01*
X0002102633Y0002361750D01*
X0002099411Y0002356928D01*
G36*
X0002748171Y0001241750D02*
X0002408234Y0001241750D01*
X0002408234Y0001388946D01*
X0002418715Y0001373260D01*
X0002436354Y0001361474D01*
X0002457160Y0001357335D01*
X0002459291Y0001357335D01*
X0002480097Y0001361474D01*
X0002497736Y0001373260D01*
X0002508226Y0001388958D01*
X0002518715Y0001373260D01*
X0002536354Y0001361474D01*
X0002557160Y0001357335D01*
X0002559291Y0001357335D01*
X0002580097Y0001361474D01*
X0002597736Y0001373260D01*
X0002609522Y0001390899D01*
X0002613661Y0001411705D01*
X0002609522Y0001432512D01*
X0002597736Y0001450151D01*
X0002580444Y0001461705D01*
X0002597736Y0001473260D01*
X0002609522Y0001490899D01*
X0002613661Y0001511705D01*
X0002609522Y0001532512D01*
X0002597736Y0001550151D01*
X0002580444Y0001561705D01*
X0002597736Y0001573260D01*
X0002609522Y0001590899D01*
X0002613661Y0001611705D01*
X0002609522Y0001632512D01*
X0002597736Y0001650151D01*
X0002580444Y0001661705D01*
X0002597736Y0001673260D01*
X0002609522Y0001690899D01*
X0002613661Y0001711705D01*
X0002609522Y0001732512D01*
X0002597736Y0001750151D01*
X0002580444Y0001761705D01*
X0002597736Y0001773260D01*
X0002609522Y0001790899D01*
X0002613661Y0001811705D01*
X0002609522Y0001832512D01*
X0002597736Y0001850151D01*
X0002580444Y0001861705D01*
X0002597736Y0001873260D01*
X0002609522Y0001890899D01*
X0002613661Y0001911705D01*
X0002609522Y0001932512D01*
X0002597736Y0001950151D01*
X0002580444Y0001961705D01*
X0002597736Y0001973260D01*
X0002609522Y0001990899D01*
X0002613661Y0002011705D01*
X0002609522Y0002032512D01*
X0002597736Y0002050151D01*
X0002580444Y0002061705D01*
X0002597736Y0002073260D01*
X0002609522Y0002090899D01*
X0002613661Y0002111705D01*
X0002609522Y0002132512D01*
X0002597736Y0002150151D01*
X0002580444Y0002161705D01*
X0002597736Y0002173260D01*
X0002609522Y0002190899D01*
X0002613661Y0002211705D01*
X0002609522Y0002232512D01*
X0002597736Y0002250151D01*
X0002587424Y0002257041D01*
X0002597596Y0002257041D01*
X0002603448Y0002258205D01*
X0002608410Y0002261521D01*
X0002611725Y0002266482D01*
X0002612890Y0002272335D01*
X0002612890Y0002351075D01*
X0002611725Y0002356928D01*
X0002608503Y0002361750D01*
X0002748234Y0002361750D01*
X0002748171Y0001241750D01*
X0002748171Y0001241750D01*
G37*
X0002748171Y0001241750D02*
X0002408234Y0001241750D01*
X0002408234Y0001388946D01*
X0002418715Y0001373260D01*
X0002436354Y0001361474D01*
X0002457160Y0001357335D01*
X0002459291Y0001357335D01*
X0002480097Y0001361474D01*
X0002497736Y0001373260D01*
X0002508226Y0001388958D01*
X0002518715Y0001373260D01*
X0002536354Y0001361474D01*
X0002557160Y0001357335D01*
X0002559291Y0001357335D01*
X0002580097Y0001361474D01*
X0002597736Y0001373260D01*
X0002609522Y0001390899D01*
X0002613661Y0001411705D01*
X0002609522Y0001432512D01*
X0002597736Y0001450151D01*
X0002580444Y0001461705D01*
X0002597736Y0001473260D01*
X0002609522Y0001490899D01*
X0002613661Y0001511705D01*
X0002609522Y0001532512D01*
X0002597736Y0001550151D01*
X0002580444Y0001561705D01*
X0002597736Y0001573260D01*
X0002609522Y0001590899D01*
X0002613661Y0001611705D01*
X0002609522Y0001632512D01*
X0002597736Y0001650151D01*
X0002580444Y0001661705D01*
X0002597736Y0001673260D01*
X0002609522Y0001690899D01*
X0002613661Y0001711705D01*
X0002609522Y0001732512D01*
X0002597736Y0001750151D01*
X0002580444Y0001761705D01*
X0002597736Y0001773260D01*
X0002609522Y0001790899D01*
X0002613661Y0001811705D01*
X0002609522Y0001832512D01*
X0002597736Y0001850151D01*
X0002580444Y0001861705D01*
X0002597736Y0001873260D01*
X0002609522Y0001890899D01*
X0002613661Y0001911705D01*
X0002609522Y0001932512D01*
X0002597736Y0001950151D01*
X0002580444Y0001961705D01*
X0002597736Y0001973260D01*
X0002609522Y0001990899D01*
X0002613661Y0002011705D01*
X0002609522Y0002032512D01*
X0002597736Y0002050151D01*
X0002580444Y0002061705D01*
X0002597736Y0002073260D01*
X0002609522Y0002090899D01*
X0002613661Y0002111705D01*
X0002609522Y0002132512D01*
X0002597736Y0002150151D01*
X0002580444Y0002161705D01*
X0002597736Y0002173260D01*
X0002609522Y0002190899D01*
X0002613661Y0002211705D01*
X0002609522Y0002232512D01*
X0002597736Y0002250151D01*
X0002587424Y0002257041D01*
X0002597596Y0002257041D01*
X0002603448Y0002258205D01*
X0002608410Y0002261521D01*
X0002611725Y0002266482D01*
X0002612890Y0002272335D01*
X0002612890Y0002351075D01*
X0002611725Y0002356928D01*
X0002608503Y0002361750D01*
X0002748234Y0002361750D01*
X0002748171Y0001241750D01*
G36*
X0002518715Y0001473260D02*
X0002536008Y0001461705D01*
X0002518715Y0001450151D01*
X0002508226Y0001434452D01*
X0002497736Y0001450151D01*
X0002480444Y0001461705D01*
X0002497736Y0001473260D01*
X0002508226Y0001488958D01*
X0002518715Y0001473260D01*
X0002518715Y0001473260D01*
G37*
X0002518715Y0001473260D02*
X0002536008Y0001461705D01*
X0002518715Y0001450151D01*
X0002508226Y0001434452D01*
X0002497736Y0001450151D01*
X0002480444Y0001461705D01*
X0002497736Y0001473260D01*
X0002508226Y0001488958D01*
X0002518715Y0001473260D01*
G36*
X0002418715Y0001473260D02*
X0002436008Y0001461705D01*
X0002418715Y0001450151D01*
X0002408234Y0001434465D01*
X0002408234Y0001488946D01*
X0002418715Y0001473260D01*
X0002418715Y0001473260D01*
G37*
X0002418715Y0001473260D02*
X0002436008Y0001461705D01*
X0002418715Y0001450151D01*
X0002408234Y0001434465D01*
X0002408234Y0001488946D01*
X0002418715Y0001473260D01*
G36*
X0002518715Y0001573260D02*
X0002536008Y0001561705D01*
X0002518715Y0001550151D01*
X0002508226Y0001534452D01*
X0002497736Y0001550151D01*
X0002480444Y0001561705D01*
X0002497736Y0001573260D01*
X0002508226Y0001588958D01*
X0002518715Y0001573260D01*
X0002518715Y0001573260D01*
G37*
X0002518715Y0001573260D02*
X0002536008Y0001561705D01*
X0002518715Y0001550151D01*
X0002508226Y0001534452D01*
X0002497736Y0001550151D01*
X0002480444Y0001561705D01*
X0002497736Y0001573260D01*
X0002508226Y0001588958D01*
X0002518715Y0001573260D01*
G36*
X0002418715Y0001573260D02*
X0002436008Y0001561705D01*
X0002418715Y0001550151D01*
X0002408234Y0001534465D01*
X0002408234Y0001588946D01*
X0002418715Y0001573260D01*
X0002418715Y0001573260D01*
G37*
X0002418715Y0001573260D02*
X0002436008Y0001561705D01*
X0002418715Y0001550151D01*
X0002408234Y0001534465D01*
X0002408234Y0001588946D01*
X0002418715Y0001573260D01*
G36*
X0002518715Y0001673260D02*
X0002536008Y0001661705D01*
X0002518715Y0001650151D01*
X0002508226Y0001634452D01*
X0002497736Y0001650151D01*
X0002480444Y0001661705D01*
X0002497736Y0001673260D01*
X0002508226Y0001688958D01*
X0002518715Y0001673260D01*
X0002518715Y0001673260D01*
G37*
X0002518715Y0001673260D02*
X0002536008Y0001661705D01*
X0002518715Y0001650151D01*
X0002508226Y0001634452D01*
X0002497736Y0001650151D01*
X0002480444Y0001661705D01*
X0002497736Y0001673260D01*
X0002508226Y0001688958D01*
X0002518715Y0001673260D01*
G36*
X0002418715Y0001673260D02*
X0002436008Y0001661705D01*
X0002418715Y0001650151D01*
X0002408234Y0001634465D01*
X0002408234Y0001688946D01*
X0002418715Y0001673260D01*
X0002418715Y0001673260D01*
G37*
X0002418715Y0001673260D02*
X0002436008Y0001661705D01*
X0002418715Y0001650151D01*
X0002408234Y0001634465D01*
X0002408234Y0001688946D01*
X0002418715Y0001673260D01*
G36*
X0002518715Y0001773260D02*
X0002536008Y0001761705D01*
X0002518715Y0001750151D01*
X0002508226Y0001734452D01*
X0002497736Y0001750151D01*
X0002480444Y0001761705D01*
X0002497736Y0001773260D01*
X0002508226Y0001788958D01*
X0002518715Y0001773260D01*
X0002518715Y0001773260D01*
G37*
X0002518715Y0001773260D02*
X0002536008Y0001761705D01*
X0002518715Y0001750151D01*
X0002508226Y0001734452D01*
X0002497736Y0001750151D01*
X0002480444Y0001761705D01*
X0002497736Y0001773260D01*
X0002508226Y0001788958D01*
X0002518715Y0001773260D01*
G36*
X0002418715Y0001773260D02*
X0002436008Y0001761705D01*
X0002418715Y0001750151D01*
X0002408234Y0001734465D01*
X0002408234Y0001788946D01*
X0002418715Y0001773260D01*
X0002418715Y0001773260D01*
G37*
X0002418715Y0001773260D02*
X0002436008Y0001761705D01*
X0002418715Y0001750151D01*
X0002408234Y0001734465D01*
X0002408234Y0001788946D01*
X0002418715Y0001773260D01*
G36*
X0002518715Y0001873260D02*
X0002536008Y0001861705D01*
X0002518715Y0001850151D01*
X0002508226Y0001834452D01*
X0002497736Y0001850151D01*
X0002480444Y0001861705D01*
X0002497736Y0001873260D01*
X0002508226Y0001888958D01*
X0002518715Y0001873260D01*
X0002518715Y0001873260D01*
G37*
X0002518715Y0001873260D02*
X0002536008Y0001861705D01*
X0002518715Y0001850151D01*
X0002508226Y0001834452D01*
X0002497736Y0001850151D01*
X0002480444Y0001861705D01*
X0002497736Y0001873260D01*
X0002508226Y0001888958D01*
X0002518715Y0001873260D01*
G36*
X0002418715Y0001873260D02*
X0002436008Y0001861705D01*
X0002418715Y0001850151D01*
X0002408234Y0001834465D01*
X0002408234Y0001888946D01*
X0002418715Y0001873260D01*
X0002418715Y0001873260D01*
G37*
X0002418715Y0001873260D02*
X0002436008Y0001861705D01*
X0002418715Y0001850151D01*
X0002408234Y0001834465D01*
X0002408234Y0001888946D01*
X0002418715Y0001873260D01*
G36*
X0002518715Y0001973260D02*
X0002536008Y0001961705D01*
X0002518715Y0001950151D01*
X0002508226Y0001934452D01*
X0002497736Y0001950151D01*
X0002480444Y0001961705D01*
X0002497736Y0001973260D01*
X0002508226Y0001988958D01*
X0002518715Y0001973260D01*
X0002518715Y0001973260D01*
G37*
X0002518715Y0001973260D02*
X0002536008Y0001961705D01*
X0002518715Y0001950151D01*
X0002508226Y0001934452D01*
X0002497736Y0001950151D01*
X0002480444Y0001961705D01*
X0002497736Y0001973260D01*
X0002508226Y0001988958D01*
X0002518715Y0001973260D01*
G36*
X0002418715Y0001973260D02*
X0002436008Y0001961705D01*
X0002418715Y0001950151D01*
X0002408234Y0001934465D01*
X0002408234Y0001988946D01*
X0002418715Y0001973260D01*
X0002418715Y0001973260D01*
G37*
X0002418715Y0001973260D02*
X0002436008Y0001961705D01*
X0002418715Y0001950151D01*
X0002408234Y0001934465D01*
X0002408234Y0001988946D01*
X0002418715Y0001973260D01*
G36*
X0002518715Y0002073260D02*
X0002536008Y0002061705D01*
X0002518715Y0002050151D01*
X0002508226Y0002034452D01*
X0002497736Y0002050151D01*
X0002480444Y0002061705D01*
X0002497736Y0002073260D01*
X0002508226Y0002088958D01*
X0002518715Y0002073260D01*
X0002518715Y0002073260D01*
G37*
X0002518715Y0002073260D02*
X0002536008Y0002061705D01*
X0002518715Y0002050151D01*
X0002508226Y0002034452D01*
X0002497736Y0002050151D01*
X0002480444Y0002061705D01*
X0002497736Y0002073260D01*
X0002508226Y0002088958D01*
X0002518715Y0002073260D01*
G36*
X0002418715Y0002073260D02*
X0002436008Y0002061705D01*
X0002418715Y0002050151D01*
X0002408234Y0002034465D01*
X0002408234Y0002088946D01*
X0002418715Y0002073260D01*
X0002418715Y0002073260D01*
G37*
X0002418715Y0002073260D02*
X0002436008Y0002061705D01*
X0002418715Y0002050151D01*
X0002408234Y0002034465D01*
X0002408234Y0002088946D01*
X0002418715Y0002073260D01*
G36*
X0002518715Y0002173260D02*
X0002536008Y0002161705D01*
X0002518715Y0002150151D01*
X0002508226Y0002134452D01*
X0002497736Y0002150151D01*
X0002480444Y0002161705D01*
X0002497736Y0002173260D01*
X0002508226Y0002188958D01*
X0002518715Y0002173260D01*
X0002518715Y0002173260D01*
G37*
X0002518715Y0002173260D02*
X0002536008Y0002161705D01*
X0002518715Y0002150151D01*
X0002508226Y0002134452D01*
X0002497736Y0002150151D01*
X0002480444Y0002161705D01*
X0002497736Y0002173260D01*
X0002508226Y0002188958D01*
X0002518715Y0002173260D01*
G36*
X0002418715Y0002173260D02*
X0002436008Y0002161705D01*
X0002418715Y0002150151D01*
X0002408234Y0002134465D01*
X0002408234Y0002188946D01*
X0002418715Y0002173260D01*
X0002418715Y0002173260D01*
G37*
X0002418715Y0002173260D02*
X0002436008Y0002161705D01*
X0002418715Y0002150151D01*
X0002408234Y0002134465D01*
X0002408234Y0002188946D01*
X0002418715Y0002173260D01*
G36*
X0002503562Y0002272335D02*
X0002504726Y0002266482D01*
X0002508041Y0002261521D01*
X0002513003Y0002258205D01*
X0002518856Y0002257041D01*
X0002529028Y0002257041D01*
X0002518715Y0002250151D01*
X0002508226Y0002234452D01*
X0002497736Y0002250151D01*
X0002480444Y0002261705D01*
X0002497736Y0002273260D01*
X0002503562Y0002281978D01*
X0002503562Y0002272335D01*
X0002503562Y0002272335D01*
G37*
X0002503562Y0002272335D02*
X0002504726Y0002266482D01*
X0002508041Y0002261521D01*
X0002513003Y0002258205D01*
X0002518856Y0002257041D01*
X0002529028Y0002257041D01*
X0002518715Y0002250151D01*
X0002508226Y0002234452D01*
X0002497736Y0002250151D01*
X0002480444Y0002261705D01*
X0002497736Y0002273260D01*
X0002503562Y0002281978D01*
X0002503562Y0002272335D01*
G36*
X0002418715Y0002273260D02*
X0002436008Y0002261705D01*
X0002418715Y0002250151D01*
X0002408234Y0002234465D01*
X0002408234Y0002288946D01*
X0002418715Y0002273260D01*
X0002418715Y0002273260D01*
G37*
X0002418715Y0002273260D02*
X0002436008Y0002261705D01*
X0002418715Y0002250151D01*
X0002408234Y0002234465D01*
X0002408234Y0002288946D01*
X0002418715Y0002273260D01*
G36*
X0002418715Y0002350151D02*
X0002408234Y0002334465D01*
X0002408234Y0002361750D01*
X0002436075Y0002361750D01*
X0002418715Y0002350151D01*
X0002418715Y0002350151D01*
G37*
X0002418715Y0002350151D02*
X0002408234Y0002334465D01*
X0002408234Y0002361750D01*
X0002436075Y0002361750D01*
X0002418715Y0002350151D01*
G36*
X0002504726Y0002356928D02*
X0002503562Y0002351075D01*
X0002503562Y0002341432D01*
X0002497736Y0002350151D01*
X0002480377Y0002361750D01*
X0002507948Y0002361750D01*
X0002504726Y0002356928D01*
X0002504726Y0002356928D01*
G37*
X0002504726Y0002356928D02*
X0002503562Y0002351075D01*
X0002503562Y0002341432D01*
X0002497736Y0002350151D01*
X0002480377Y0002361750D01*
X0002507948Y0002361750D01*
X0002504726Y0002356928D01*
G36*
X0003153486Y0001241750D02*
X0002813549Y0001241750D01*
X0002813549Y0001388946D01*
X0002824030Y0001373260D01*
X0002841669Y0001361474D01*
X0002862475Y0001357335D01*
X0002864606Y0001357335D01*
X0002885412Y0001361474D01*
X0002903051Y0001373260D01*
X0002913541Y0001388958D01*
X0002924030Y0001373260D01*
X0002941669Y0001361474D01*
X0002962475Y0001357335D01*
X0002964606Y0001357335D01*
X0002985412Y0001361474D01*
X0003003051Y0001373260D01*
X0003014837Y0001390899D01*
X0003018976Y0001411705D01*
X0003014837Y0001432512D01*
X0003003051Y0001450151D01*
X0002985759Y0001461705D01*
X0003003051Y0001473260D01*
X0003014837Y0001490899D01*
X0003018976Y0001511705D01*
X0003014837Y0001532512D01*
X0003003051Y0001550151D01*
X0002985759Y0001561705D01*
X0003003051Y0001573260D01*
X0003014837Y0001590899D01*
X0003018976Y0001611705D01*
X0003014837Y0001632512D01*
X0003003051Y0001650151D01*
X0002985759Y0001661705D01*
X0003003051Y0001673260D01*
X0003014837Y0001690899D01*
X0003018976Y0001711705D01*
X0003014837Y0001732512D01*
X0003003051Y0001750151D01*
X0002985759Y0001761705D01*
X0003003051Y0001773260D01*
X0003014837Y0001790899D01*
X0003018976Y0001811705D01*
X0003014837Y0001832512D01*
X0003003051Y0001850151D01*
X0002985759Y0001861705D01*
X0003003051Y0001873260D01*
X0003014837Y0001890899D01*
X0003018976Y0001911705D01*
X0003014837Y0001932512D01*
X0003003051Y0001950151D01*
X0002985759Y0001961705D01*
X0003003051Y0001973260D01*
X0003014837Y0001990899D01*
X0003018976Y0002011705D01*
X0003014837Y0002032512D01*
X0003003051Y0002050151D01*
X0002985759Y0002061705D01*
X0003003051Y0002073260D01*
X0003014837Y0002090899D01*
X0003018976Y0002111705D01*
X0003014837Y0002132512D01*
X0003003051Y0002150151D01*
X0002985759Y0002161705D01*
X0003003051Y0002173260D01*
X0003014837Y0002190899D01*
X0003018976Y0002211705D01*
X0003014837Y0002232512D01*
X0003003051Y0002250151D01*
X0002992739Y0002257041D01*
X0003002911Y0002257041D01*
X0003008763Y0002258205D01*
X0003013725Y0002261521D01*
X0003017040Y0002266482D01*
X0003018205Y0002272335D01*
X0003018205Y0002351075D01*
X0003017040Y0002356928D01*
X0003013818Y0002361750D01*
X0003153549Y0002361750D01*
X0003153486Y0001241750D01*
X0003153486Y0001241750D01*
G37*
X0003153486Y0001241750D02*
X0002813549Y0001241750D01*
X0002813549Y0001388946D01*
X0002824030Y0001373260D01*
X0002841669Y0001361474D01*
X0002862475Y0001357335D01*
X0002864606Y0001357335D01*
X0002885412Y0001361474D01*
X0002903051Y0001373260D01*
X0002913541Y0001388958D01*
X0002924030Y0001373260D01*
X0002941669Y0001361474D01*
X0002962475Y0001357335D01*
X0002964606Y0001357335D01*
X0002985412Y0001361474D01*
X0003003051Y0001373260D01*
X0003014837Y0001390899D01*
X0003018976Y0001411705D01*
X0003014837Y0001432512D01*
X0003003051Y0001450151D01*
X0002985759Y0001461705D01*
X0003003051Y0001473260D01*
X0003014837Y0001490899D01*
X0003018976Y0001511705D01*
X0003014837Y0001532512D01*
X0003003051Y0001550151D01*
X0002985759Y0001561705D01*
X0003003051Y0001573260D01*
X0003014837Y0001590899D01*
X0003018976Y0001611705D01*
X0003014837Y0001632512D01*
X0003003051Y0001650151D01*
X0002985759Y0001661705D01*
X0003003051Y0001673260D01*
X0003014837Y0001690899D01*
X0003018976Y0001711705D01*
X0003014837Y0001732512D01*
X0003003051Y0001750151D01*
X0002985759Y0001761705D01*
X0003003051Y0001773260D01*
X0003014837Y0001790899D01*
X0003018976Y0001811705D01*
X0003014837Y0001832512D01*
X0003003051Y0001850151D01*
X0002985759Y0001861705D01*
X0003003051Y0001873260D01*
X0003014837Y0001890899D01*
X0003018976Y0001911705D01*
X0003014837Y0001932512D01*
X0003003051Y0001950151D01*
X0002985759Y0001961705D01*
X0003003051Y0001973260D01*
X0003014837Y0001990899D01*
X0003018976Y0002011705D01*
X0003014837Y0002032512D01*
X0003003051Y0002050151D01*
X0002985759Y0002061705D01*
X0003003051Y0002073260D01*
X0003014837Y0002090899D01*
X0003018976Y0002111705D01*
X0003014837Y0002132512D01*
X0003003051Y0002150151D01*
X0002985759Y0002161705D01*
X0003003051Y0002173260D01*
X0003014837Y0002190899D01*
X0003018976Y0002211705D01*
X0003014837Y0002232512D01*
X0003003051Y0002250151D01*
X0002992739Y0002257041D01*
X0003002911Y0002257041D01*
X0003008763Y0002258205D01*
X0003013725Y0002261521D01*
X0003017040Y0002266482D01*
X0003018205Y0002272335D01*
X0003018205Y0002351075D01*
X0003017040Y0002356928D01*
X0003013818Y0002361750D01*
X0003153549Y0002361750D01*
X0003153486Y0001241750D01*
G36*
X0002924030Y0001473260D02*
X0002941323Y0001461705D01*
X0002924030Y0001450151D01*
X0002913541Y0001434452D01*
X0002903051Y0001450151D01*
X0002885759Y0001461705D01*
X0002903051Y0001473260D01*
X0002913541Y0001488958D01*
X0002924030Y0001473260D01*
X0002924030Y0001473260D01*
G37*
X0002924030Y0001473260D02*
X0002941323Y0001461705D01*
X0002924030Y0001450151D01*
X0002913541Y0001434452D01*
X0002903051Y0001450151D01*
X0002885759Y0001461705D01*
X0002903051Y0001473260D01*
X0002913541Y0001488958D01*
X0002924030Y0001473260D01*
G36*
X0002824030Y0001473260D02*
X0002841323Y0001461705D01*
X0002824030Y0001450151D01*
X0002813549Y0001434465D01*
X0002813549Y0001488946D01*
X0002824030Y0001473260D01*
X0002824030Y0001473260D01*
G37*
X0002824030Y0001473260D02*
X0002841323Y0001461705D01*
X0002824030Y0001450151D01*
X0002813549Y0001434465D01*
X0002813549Y0001488946D01*
X0002824030Y0001473260D01*
G36*
X0002924030Y0001573260D02*
X0002941323Y0001561705D01*
X0002924030Y0001550151D01*
X0002913541Y0001534452D01*
X0002903051Y0001550151D01*
X0002885759Y0001561705D01*
X0002903051Y0001573260D01*
X0002913541Y0001588958D01*
X0002924030Y0001573260D01*
X0002924030Y0001573260D01*
G37*
X0002924030Y0001573260D02*
X0002941323Y0001561705D01*
X0002924030Y0001550151D01*
X0002913541Y0001534452D01*
X0002903051Y0001550151D01*
X0002885759Y0001561705D01*
X0002903051Y0001573260D01*
X0002913541Y0001588958D01*
X0002924030Y0001573260D01*
G36*
X0002824030Y0001573260D02*
X0002841323Y0001561705D01*
X0002824030Y0001550151D01*
X0002813549Y0001534465D01*
X0002813549Y0001588946D01*
X0002824030Y0001573260D01*
X0002824030Y0001573260D01*
G37*
X0002824030Y0001573260D02*
X0002841323Y0001561705D01*
X0002824030Y0001550151D01*
X0002813549Y0001534465D01*
X0002813549Y0001588946D01*
X0002824030Y0001573260D01*
G36*
X0002924030Y0001673260D02*
X0002941323Y0001661705D01*
X0002924030Y0001650151D01*
X0002913541Y0001634452D01*
X0002903051Y0001650151D01*
X0002885759Y0001661705D01*
X0002903051Y0001673260D01*
X0002913541Y0001688958D01*
X0002924030Y0001673260D01*
X0002924030Y0001673260D01*
G37*
X0002924030Y0001673260D02*
X0002941323Y0001661705D01*
X0002924030Y0001650151D01*
X0002913541Y0001634452D01*
X0002903051Y0001650151D01*
X0002885759Y0001661705D01*
X0002903051Y0001673260D01*
X0002913541Y0001688958D01*
X0002924030Y0001673260D01*
G36*
X0002824030Y0001673260D02*
X0002841323Y0001661705D01*
X0002824030Y0001650151D01*
X0002813549Y0001634465D01*
X0002813549Y0001688946D01*
X0002824030Y0001673260D01*
X0002824030Y0001673260D01*
G37*
X0002824030Y0001673260D02*
X0002841323Y0001661705D01*
X0002824030Y0001650151D01*
X0002813549Y0001634465D01*
X0002813549Y0001688946D01*
X0002824030Y0001673260D01*
G36*
X0002924030Y0001773260D02*
X0002941323Y0001761705D01*
X0002924030Y0001750151D01*
X0002913541Y0001734452D01*
X0002903051Y0001750151D01*
X0002885759Y0001761705D01*
X0002903051Y0001773260D01*
X0002913541Y0001788958D01*
X0002924030Y0001773260D01*
X0002924030Y0001773260D01*
G37*
X0002924030Y0001773260D02*
X0002941323Y0001761705D01*
X0002924030Y0001750151D01*
X0002913541Y0001734452D01*
X0002903051Y0001750151D01*
X0002885759Y0001761705D01*
X0002903051Y0001773260D01*
X0002913541Y0001788958D01*
X0002924030Y0001773260D01*
G36*
X0002824030Y0001773260D02*
X0002841323Y0001761705D01*
X0002824030Y0001750151D01*
X0002813549Y0001734465D01*
X0002813549Y0001788946D01*
X0002824030Y0001773260D01*
X0002824030Y0001773260D01*
G37*
X0002824030Y0001773260D02*
X0002841323Y0001761705D01*
X0002824030Y0001750151D01*
X0002813549Y0001734465D01*
X0002813549Y0001788946D01*
X0002824030Y0001773260D01*
G36*
X0002924030Y0001873260D02*
X0002941323Y0001861705D01*
X0002924030Y0001850151D01*
X0002913541Y0001834452D01*
X0002903051Y0001850151D01*
X0002885759Y0001861705D01*
X0002903051Y0001873260D01*
X0002913541Y0001888958D01*
X0002924030Y0001873260D01*
X0002924030Y0001873260D01*
G37*
X0002924030Y0001873260D02*
X0002941323Y0001861705D01*
X0002924030Y0001850151D01*
X0002913541Y0001834452D01*
X0002903051Y0001850151D01*
X0002885759Y0001861705D01*
X0002903051Y0001873260D01*
X0002913541Y0001888958D01*
X0002924030Y0001873260D01*
G36*
X0002824030Y0001873260D02*
X0002841323Y0001861705D01*
X0002824030Y0001850151D01*
X0002813549Y0001834465D01*
X0002813549Y0001888946D01*
X0002824030Y0001873260D01*
X0002824030Y0001873260D01*
G37*
X0002824030Y0001873260D02*
X0002841323Y0001861705D01*
X0002824030Y0001850151D01*
X0002813549Y0001834465D01*
X0002813549Y0001888946D01*
X0002824030Y0001873260D01*
G36*
X0002924030Y0001973260D02*
X0002941323Y0001961705D01*
X0002924030Y0001950151D01*
X0002913541Y0001934452D01*
X0002903051Y0001950151D01*
X0002885759Y0001961705D01*
X0002903051Y0001973260D01*
X0002913541Y0001988958D01*
X0002924030Y0001973260D01*
X0002924030Y0001973260D01*
G37*
X0002924030Y0001973260D02*
X0002941323Y0001961705D01*
X0002924030Y0001950151D01*
X0002913541Y0001934452D01*
X0002903051Y0001950151D01*
X0002885759Y0001961705D01*
X0002903051Y0001973260D01*
X0002913541Y0001988958D01*
X0002924030Y0001973260D01*
G36*
X0002824030Y0001973260D02*
X0002841323Y0001961705D01*
X0002824030Y0001950151D01*
X0002813549Y0001934465D01*
X0002813549Y0001988946D01*
X0002824030Y0001973260D01*
X0002824030Y0001973260D01*
G37*
X0002824030Y0001973260D02*
X0002841323Y0001961705D01*
X0002824030Y0001950151D01*
X0002813549Y0001934465D01*
X0002813549Y0001988946D01*
X0002824030Y0001973260D01*
G36*
X0002924030Y0002073260D02*
X0002941323Y0002061705D01*
X0002924030Y0002050151D01*
X0002913541Y0002034452D01*
X0002903051Y0002050151D01*
X0002885759Y0002061705D01*
X0002903051Y0002073260D01*
X0002913541Y0002088958D01*
X0002924030Y0002073260D01*
X0002924030Y0002073260D01*
G37*
X0002924030Y0002073260D02*
X0002941323Y0002061705D01*
X0002924030Y0002050151D01*
X0002913541Y0002034452D01*
X0002903051Y0002050151D01*
X0002885759Y0002061705D01*
X0002903051Y0002073260D01*
X0002913541Y0002088958D01*
X0002924030Y0002073260D01*
G36*
X0002824030Y0002073260D02*
X0002841323Y0002061705D01*
X0002824030Y0002050151D01*
X0002813549Y0002034465D01*
X0002813549Y0002088946D01*
X0002824030Y0002073260D01*
X0002824030Y0002073260D01*
G37*
X0002824030Y0002073260D02*
X0002841323Y0002061705D01*
X0002824030Y0002050151D01*
X0002813549Y0002034465D01*
X0002813549Y0002088946D01*
X0002824030Y0002073260D01*
G36*
X0002924030Y0002173260D02*
X0002941323Y0002161705D01*
X0002924030Y0002150151D01*
X0002913541Y0002134452D01*
X0002903051Y0002150151D01*
X0002885759Y0002161705D01*
X0002903051Y0002173260D01*
X0002913541Y0002188958D01*
X0002924030Y0002173260D01*
X0002924030Y0002173260D01*
G37*
X0002924030Y0002173260D02*
X0002941323Y0002161705D01*
X0002924030Y0002150151D01*
X0002913541Y0002134452D01*
X0002903051Y0002150151D01*
X0002885759Y0002161705D01*
X0002903051Y0002173260D01*
X0002913541Y0002188958D01*
X0002924030Y0002173260D01*
G36*
X0002824030Y0002173260D02*
X0002841323Y0002161705D01*
X0002824030Y0002150151D01*
X0002813549Y0002134465D01*
X0002813549Y0002188946D01*
X0002824030Y0002173260D01*
X0002824030Y0002173260D01*
G37*
X0002824030Y0002173260D02*
X0002841323Y0002161705D01*
X0002824030Y0002150151D01*
X0002813549Y0002134465D01*
X0002813549Y0002188946D01*
X0002824030Y0002173260D01*
G36*
X0002908877Y0002272335D02*
X0002910041Y0002266482D01*
X0002913356Y0002261521D01*
X0002918318Y0002258205D01*
X0002924171Y0002257041D01*
X0002934343Y0002257041D01*
X0002924030Y0002250151D01*
X0002913541Y0002234452D01*
X0002903051Y0002250151D01*
X0002885759Y0002261705D01*
X0002903051Y0002273260D01*
X0002908877Y0002281978D01*
X0002908877Y0002272335D01*
X0002908877Y0002272335D01*
G37*
X0002908877Y0002272335D02*
X0002910041Y0002266482D01*
X0002913356Y0002261521D01*
X0002918318Y0002258205D01*
X0002924171Y0002257041D01*
X0002934343Y0002257041D01*
X0002924030Y0002250151D01*
X0002913541Y0002234452D01*
X0002903051Y0002250151D01*
X0002885759Y0002261705D01*
X0002903051Y0002273260D01*
X0002908877Y0002281978D01*
X0002908877Y0002272335D01*
G36*
X0002824030Y0002273260D02*
X0002841323Y0002261705D01*
X0002824030Y0002250151D01*
X0002813549Y0002234465D01*
X0002813549Y0002288946D01*
X0002824030Y0002273260D01*
X0002824030Y0002273260D01*
G37*
X0002824030Y0002273260D02*
X0002841323Y0002261705D01*
X0002824030Y0002250151D01*
X0002813549Y0002234465D01*
X0002813549Y0002288946D01*
X0002824030Y0002273260D01*
G36*
X0002824030Y0002350151D02*
X0002813549Y0002334465D01*
X0002813549Y0002361750D01*
X0002841390Y0002361750D01*
X0002824030Y0002350151D01*
X0002824030Y0002350151D01*
G37*
X0002824030Y0002350151D02*
X0002813549Y0002334465D01*
X0002813549Y0002361750D01*
X0002841390Y0002361750D01*
X0002824030Y0002350151D01*
G36*
X0002910041Y0002356928D02*
X0002908877Y0002351075D01*
X0002908877Y0002341432D01*
X0002903051Y0002350151D01*
X0002885691Y0002361750D01*
X0002913263Y0002361750D01*
X0002910041Y0002356928D01*
X0002910041Y0002356928D01*
G37*
X0002910041Y0002356928D02*
X0002908877Y0002351075D01*
X0002908877Y0002341432D01*
X0002903051Y0002350151D01*
X0002885691Y0002361750D01*
X0002913263Y0002361750D01*
X0002910041Y0002356928D01*
G36*
X0003558801Y0001241750D02*
X0003218864Y0001241750D01*
X0003218864Y0001388946D01*
X0003229345Y0001373260D01*
X0003246984Y0001361474D01*
X0003267790Y0001357335D01*
X0003269921Y0001357335D01*
X0003290727Y0001361474D01*
X0003308366Y0001373260D01*
X0003318856Y0001388958D01*
X0003329345Y0001373260D01*
X0003346984Y0001361474D01*
X0003367790Y0001357335D01*
X0003369921Y0001357335D01*
X0003390727Y0001361474D01*
X0003408366Y0001373260D01*
X0003420152Y0001390899D01*
X0003424291Y0001411705D01*
X0003420152Y0001432512D01*
X0003408366Y0001450151D01*
X0003391074Y0001461705D01*
X0003408366Y0001473260D01*
X0003420152Y0001490899D01*
X0003424291Y0001511705D01*
X0003420152Y0001532512D01*
X0003408366Y0001550151D01*
X0003391074Y0001561705D01*
X0003408366Y0001573260D01*
X0003420152Y0001590899D01*
X0003424291Y0001611705D01*
X0003420152Y0001632512D01*
X0003408366Y0001650151D01*
X0003391074Y0001661705D01*
X0003408366Y0001673260D01*
X0003420152Y0001690899D01*
X0003424291Y0001711705D01*
X0003420152Y0001732512D01*
X0003408366Y0001750151D01*
X0003391074Y0001761705D01*
X0003408366Y0001773260D01*
X0003420152Y0001790899D01*
X0003424291Y0001811705D01*
X0003420152Y0001832512D01*
X0003408366Y0001850151D01*
X0003391074Y0001861705D01*
X0003408366Y0001873260D01*
X0003420152Y0001890899D01*
X0003424291Y0001911705D01*
X0003420152Y0001932512D01*
X0003408366Y0001950151D01*
X0003391074Y0001961705D01*
X0003408366Y0001973260D01*
X0003420152Y0001990899D01*
X0003424291Y0002011705D01*
X0003420152Y0002032512D01*
X0003408366Y0002050151D01*
X0003391074Y0002061705D01*
X0003408366Y0002073260D01*
X0003420152Y0002090899D01*
X0003424291Y0002111705D01*
X0003420152Y0002132512D01*
X0003408366Y0002150151D01*
X0003391074Y0002161705D01*
X0003408366Y0002173260D01*
X0003420152Y0002190899D01*
X0003424291Y0002211705D01*
X0003420152Y0002232512D01*
X0003408366Y0002250151D01*
X0003398054Y0002257041D01*
X0003408226Y0002257041D01*
X0003414078Y0002258205D01*
X0003419040Y0002261521D01*
X0003422355Y0002266482D01*
X0003423520Y0002272335D01*
X0003423520Y0002351075D01*
X0003422355Y0002356928D01*
X0003419133Y0002361750D01*
X0003558864Y0002361750D01*
X0003558801Y0001241750D01*
X0003558801Y0001241750D01*
G37*
X0003558801Y0001241750D02*
X0003218864Y0001241750D01*
X0003218864Y0001388946D01*
X0003229345Y0001373260D01*
X0003246984Y0001361474D01*
X0003267790Y0001357335D01*
X0003269921Y0001357335D01*
X0003290727Y0001361474D01*
X0003308366Y0001373260D01*
X0003318856Y0001388958D01*
X0003329345Y0001373260D01*
X0003346984Y0001361474D01*
X0003367790Y0001357335D01*
X0003369921Y0001357335D01*
X0003390727Y0001361474D01*
X0003408366Y0001373260D01*
X0003420152Y0001390899D01*
X0003424291Y0001411705D01*
X0003420152Y0001432512D01*
X0003408366Y0001450151D01*
X0003391074Y0001461705D01*
X0003408366Y0001473260D01*
X0003420152Y0001490899D01*
X0003424291Y0001511705D01*
X0003420152Y0001532512D01*
X0003408366Y0001550151D01*
X0003391074Y0001561705D01*
X0003408366Y0001573260D01*
X0003420152Y0001590899D01*
X0003424291Y0001611705D01*
X0003420152Y0001632512D01*
X0003408366Y0001650151D01*
X0003391074Y0001661705D01*
X0003408366Y0001673260D01*
X0003420152Y0001690899D01*
X0003424291Y0001711705D01*
X0003420152Y0001732512D01*
X0003408366Y0001750151D01*
X0003391074Y0001761705D01*
X0003408366Y0001773260D01*
X0003420152Y0001790899D01*
X0003424291Y0001811705D01*
X0003420152Y0001832512D01*
X0003408366Y0001850151D01*
X0003391074Y0001861705D01*
X0003408366Y0001873260D01*
X0003420152Y0001890899D01*
X0003424291Y0001911705D01*
X0003420152Y0001932512D01*
X0003408366Y0001950151D01*
X0003391074Y0001961705D01*
X0003408366Y0001973260D01*
X0003420152Y0001990899D01*
X0003424291Y0002011705D01*
X0003420152Y0002032512D01*
X0003408366Y0002050151D01*
X0003391074Y0002061705D01*
X0003408366Y0002073260D01*
X0003420152Y0002090899D01*
X0003424291Y0002111705D01*
X0003420152Y0002132512D01*
X0003408366Y0002150151D01*
X0003391074Y0002161705D01*
X0003408366Y0002173260D01*
X0003420152Y0002190899D01*
X0003424291Y0002211705D01*
X0003420152Y0002232512D01*
X0003408366Y0002250151D01*
X0003398054Y0002257041D01*
X0003408226Y0002257041D01*
X0003414078Y0002258205D01*
X0003419040Y0002261521D01*
X0003422355Y0002266482D01*
X0003423520Y0002272335D01*
X0003423520Y0002351075D01*
X0003422355Y0002356928D01*
X0003419133Y0002361750D01*
X0003558864Y0002361750D01*
X0003558801Y0001241750D01*
G36*
X0003329345Y0001473260D02*
X0003346638Y0001461705D01*
X0003329345Y0001450151D01*
X0003318856Y0001434452D01*
X0003308366Y0001450151D01*
X0003291074Y0001461705D01*
X0003308366Y0001473260D01*
X0003318856Y0001488958D01*
X0003329345Y0001473260D01*
X0003329345Y0001473260D01*
G37*
X0003329345Y0001473260D02*
X0003346638Y0001461705D01*
X0003329345Y0001450151D01*
X0003318856Y0001434452D01*
X0003308366Y0001450151D01*
X0003291074Y0001461705D01*
X0003308366Y0001473260D01*
X0003318856Y0001488958D01*
X0003329345Y0001473260D01*
G36*
X0003229345Y0001473260D02*
X0003246638Y0001461705D01*
X0003229345Y0001450151D01*
X0003218864Y0001434465D01*
X0003218864Y0001488946D01*
X0003229345Y0001473260D01*
X0003229345Y0001473260D01*
G37*
X0003229345Y0001473260D02*
X0003246638Y0001461705D01*
X0003229345Y0001450151D01*
X0003218864Y0001434465D01*
X0003218864Y0001488946D01*
X0003229345Y0001473260D01*
G36*
X0003329345Y0001573260D02*
X0003346638Y0001561705D01*
X0003329345Y0001550151D01*
X0003318856Y0001534452D01*
X0003308366Y0001550151D01*
X0003291074Y0001561705D01*
X0003308366Y0001573260D01*
X0003318856Y0001588958D01*
X0003329345Y0001573260D01*
X0003329345Y0001573260D01*
G37*
X0003329345Y0001573260D02*
X0003346638Y0001561705D01*
X0003329345Y0001550151D01*
X0003318856Y0001534452D01*
X0003308366Y0001550151D01*
X0003291074Y0001561705D01*
X0003308366Y0001573260D01*
X0003318856Y0001588958D01*
X0003329345Y0001573260D01*
G36*
X0003229345Y0001573260D02*
X0003246638Y0001561705D01*
X0003229345Y0001550151D01*
X0003218864Y0001534465D01*
X0003218864Y0001588946D01*
X0003229345Y0001573260D01*
X0003229345Y0001573260D01*
G37*
X0003229345Y0001573260D02*
X0003246638Y0001561705D01*
X0003229345Y0001550151D01*
X0003218864Y0001534465D01*
X0003218864Y0001588946D01*
X0003229345Y0001573260D01*
G36*
X0003329345Y0001673260D02*
X0003346638Y0001661705D01*
X0003329345Y0001650151D01*
X0003318856Y0001634452D01*
X0003308366Y0001650151D01*
X0003291074Y0001661705D01*
X0003308366Y0001673260D01*
X0003318856Y0001688958D01*
X0003329345Y0001673260D01*
X0003329345Y0001673260D01*
G37*
X0003329345Y0001673260D02*
X0003346638Y0001661705D01*
X0003329345Y0001650151D01*
X0003318856Y0001634452D01*
X0003308366Y0001650151D01*
X0003291074Y0001661705D01*
X0003308366Y0001673260D01*
X0003318856Y0001688958D01*
X0003329345Y0001673260D01*
G36*
X0003229345Y0001673260D02*
X0003246638Y0001661705D01*
X0003229345Y0001650151D01*
X0003218864Y0001634465D01*
X0003218864Y0001688946D01*
X0003229345Y0001673260D01*
X0003229345Y0001673260D01*
G37*
X0003229345Y0001673260D02*
X0003246638Y0001661705D01*
X0003229345Y0001650151D01*
X0003218864Y0001634465D01*
X0003218864Y0001688946D01*
X0003229345Y0001673260D01*
G36*
X0003329345Y0001773260D02*
X0003346638Y0001761705D01*
X0003329345Y0001750151D01*
X0003318856Y0001734452D01*
X0003308366Y0001750151D01*
X0003291074Y0001761705D01*
X0003308366Y0001773260D01*
X0003318856Y0001788958D01*
X0003329345Y0001773260D01*
X0003329345Y0001773260D01*
G37*
X0003329345Y0001773260D02*
X0003346638Y0001761705D01*
X0003329345Y0001750151D01*
X0003318856Y0001734452D01*
X0003308366Y0001750151D01*
X0003291074Y0001761705D01*
X0003308366Y0001773260D01*
X0003318856Y0001788958D01*
X0003329345Y0001773260D01*
G36*
X0003229345Y0001773260D02*
X0003246638Y0001761705D01*
X0003229345Y0001750151D01*
X0003218864Y0001734465D01*
X0003218864Y0001788946D01*
X0003229345Y0001773260D01*
X0003229345Y0001773260D01*
G37*
X0003229345Y0001773260D02*
X0003246638Y0001761705D01*
X0003229345Y0001750151D01*
X0003218864Y0001734465D01*
X0003218864Y0001788946D01*
X0003229345Y0001773260D01*
G36*
X0003329345Y0001873260D02*
X0003346638Y0001861705D01*
X0003329345Y0001850151D01*
X0003318856Y0001834452D01*
X0003308366Y0001850151D01*
X0003291074Y0001861705D01*
X0003308366Y0001873260D01*
X0003318856Y0001888958D01*
X0003329345Y0001873260D01*
X0003329345Y0001873260D01*
G37*
X0003329345Y0001873260D02*
X0003346638Y0001861705D01*
X0003329345Y0001850151D01*
X0003318856Y0001834452D01*
X0003308366Y0001850151D01*
X0003291074Y0001861705D01*
X0003308366Y0001873260D01*
X0003318856Y0001888958D01*
X0003329345Y0001873260D01*
G36*
X0003229345Y0001873260D02*
X0003246638Y0001861705D01*
X0003229345Y0001850151D01*
X0003218864Y0001834465D01*
X0003218864Y0001888946D01*
X0003229345Y0001873260D01*
X0003229345Y0001873260D01*
G37*
X0003229345Y0001873260D02*
X0003246638Y0001861705D01*
X0003229345Y0001850151D01*
X0003218864Y0001834465D01*
X0003218864Y0001888946D01*
X0003229345Y0001873260D01*
G36*
X0003329345Y0001973260D02*
X0003346638Y0001961705D01*
X0003329345Y0001950151D01*
X0003318856Y0001934452D01*
X0003308366Y0001950151D01*
X0003291074Y0001961705D01*
X0003308366Y0001973260D01*
X0003318856Y0001988958D01*
X0003329345Y0001973260D01*
X0003329345Y0001973260D01*
G37*
X0003329345Y0001973260D02*
X0003346638Y0001961705D01*
X0003329345Y0001950151D01*
X0003318856Y0001934452D01*
X0003308366Y0001950151D01*
X0003291074Y0001961705D01*
X0003308366Y0001973260D01*
X0003318856Y0001988958D01*
X0003329345Y0001973260D01*
G36*
X0003229345Y0001973260D02*
X0003246638Y0001961705D01*
X0003229345Y0001950151D01*
X0003218864Y0001934465D01*
X0003218864Y0001988946D01*
X0003229345Y0001973260D01*
X0003229345Y0001973260D01*
G37*
X0003229345Y0001973260D02*
X0003246638Y0001961705D01*
X0003229345Y0001950151D01*
X0003218864Y0001934465D01*
X0003218864Y0001988946D01*
X0003229345Y0001973260D01*
G36*
X0003329345Y0002073260D02*
X0003346638Y0002061705D01*
X0003329345Y0002050151D01*
X0003318856Y0002034452D01*
X0003308366Y0002050151D01*
X0003291074Y0002061705D01*
X0003308366Y0002073260D01*
X0003318856Y0002088958D01*
X0003329345Y0002073260D01*
X0003329345Y0002073260D01*
G37*
X0003329345Y0002073260D02*
X0003346638Y0002061705D01*
X0003329345Y0002050151D01*
X0003318856Y0002034452D01*
X0003308366Y0002050151D01*
X0003291074Y0002061705D01*
X0003308366Y0002073260D01*
X0003318856Y0002088958D01*
X0003329345Y0002073260D01*
G36*
X0003229345Y0002073260D02*
X0003246638Y0002061705D01*
X0003229345Y0002050151D01*
X0003218864Y0002034465D01*
X0003218864Y0002088946D01*
X0003229345Y0002073260D01*
X0003229345Y0002073260D01*
G37*
X0003229345Y0002073260D02*
X0003246638Y0002061705D01*
X0003229345Y0002050151D01*
X0003218864Y0002034465D01*
X0003218864Y0002088946D01*
X0003229345Y0002073260D01*
G36*
X0003329345Y0002173260D02*
X0003346638Y0002161705D01*
X0003329345Y0002150151D01*
X0003318856Y0002134452D01*
X0003308366Y0002150151D01*
X0003291074Y0002161705D01*
X0003308366Y0002173260D01*
X0003318856Y0002188958D01*
X0003329345Y0002173260D01*
X0003329345Y0002173260D01*
G37*
X0003329345Y0002173260D02*
X0003346638Y0002161705D01*
X0003329345Y0002150151D01*
X0003318856Y0002134452D01*
X0003308366Y0002150151D01*
X0003291074Y0002161705D01*
X0003308366Y0002173260D01*
X0003318856Y0002188958D01*
X0003329345Y0002173260D01*
G36*
X0003229345Y0002173260D02*
X0003246638Y0002161705D01*
X0003229345Y0002150151D01*
X0003218864Y0002134465D01*
X0003218864Y0002188946D01*
X0003229345Y0002173260D01*
X0003229345Y0002173260D01*
G37*
X0003229345Y0002173260D02*
X0003246638Y0002161705D01*
X0003229345Y0002150151D01*
X0003218864Y0002134465D01*
X0003218864Y0002188946D01*
X0003229345Y0002173260D01*
G36*
X0003314192Y0002272335D02*
X0003315356Y0002266482D01*
X0003318671Y0002261521D01*
X0003323633Y0002258205D01*
X0003329485Y0002257041D01*
X0003339657Y0002257041D01*
X0003329345Y0002250151D01*
X0003318856Y0002234452D01*
X0003308366Y0002250151D01*
X0003291074Y0002261705D01*
X0003308366Y0002273260D01*
X0003314192Y0002281978D01*
X0003314192Y0002272335D01*
X0003314192Y0002272335D01*
G37*
X0003314192Y0002272335D02*
X0003315356Y0002266482D01*
X0003318671Y0002261521D01*
X0003323633Y0002258205D01*
X0003329485Y0002257041D01*
X0003339657Y0002257041D01*
X0003329345Y0002250151D01*
X0003318856Y0002234452D01*
X0003308366Y0002250151D01*
X0003291074Y0002261705D01*
X0003308366Y0002273260D01*
X0003314192Y0002281978D01*
X0003314192Y0002272335D01*
G36*
X0003229345Y0002273260D02*
X0003246638Y0002261705D01*
X0003229345Y0002250151D01*
X0003218864Y0002234465D01*
X0003218864Y0002288946D01*
X0003229345Y0002273260D01*
X0003229345Y0002273260D01*
G37*
X0003229345Y0002273260D02*
X0003246638Y0002261705D01*
X0003229345Y0002250151D01*
X0003218864Y0002234465D01*
X0003218864Y0002288946D01*
X0003229345Y0002273260D01*
G36*
X0003229345Y0002350151D02*
X0003218864Y0002334465D01*
X0003218864Y0002361750D01*
X0003246705Y0002361750D01*
X0003229345Y0002350151D01*
X0003229345Y0002350151D01*
G37*
X0003229345Y0002350151D02*
X0003218864Y0002334465D01*
X0003218864Y0002361750D01*
X0003246705Y0002361750D01*
X0003229345Y0002350151D01*
G36*
X0003315356Y0002356928D02*
X0003314192Y0002351075D01*
X0003314192Y0002341432D01*
X0003308366Y0002350151D01*
X0003291006Y0002361750D01*
X0003318578Y0002361750D01*
X0003315356Y0002356928D01*
X0003315356Y0002356928D01*
G37*
X0003315356Y0002356928D02*
X0003314192Y0002351075D01*
X0003314192Y0002341432D01*
X0003308366Y0002350151D01*
X0003291006Y0002361750D01*
X0003318578Y0002361750D01*
X0003315356Y0002356928D01*
G04 next file*
G01G01G01G01*
D26*
D27*
X0001968503Y0003937007D02*
X0003268856Y0002829028D03*
X0003368856Y0002829028D03*
X0003268856Y0002929028D03*
X0003368856Y0002929028D03*
X0003268856Y0003029028D03*
X0003368856Y0003029028D03*
X0003268856Y0003129028D03*
X0003368856Y0003129028D03*
X0003268856Y0003229028D03*
X0003368856Y0003229028D03*
X0003268856Y0003329028D03*
X0003368856Y0003329028D03*
X0003268856Y0003429027D03*
X0003368856Y0003429027D03*
X0003268856Y0003529027D03*
X0003368856Y0003529027D03*
X0003268856Y0003629028D03*
X0003368856Y0003629028D03*
X0003268856Y0003729028D03*
D28*
X0003368856Y0003729028D03*
X0002963541Y0003729028D03*
D27*
X0002863540Y0003729028D03*
X0002963541Y0003629028D03*
X0002863540Y0003629028D03*
X0002963541Y0003529027D03*
X0002863540Y0003529027D03*
X0002963541Y0003429027D03*
X0002863540Y0003429027D03*
X0002963541Y0003329028D03*
X0002863540Y0003329028D03*
X0002963541Y0003229028D03*
X0002863540Y0003229028D03*
X0002963541Y0003129028D03*
X0002863540Y0003129028D03*
X0002963541Y0003029028D03*
X0002863540Y0003029028D03*
X0002963541Y0002929028D03*
X0002863540Y0002929028D03*
X0002963541Y0002829028D03*
X0002863540Y0002829028D03*
D28*
X0002558226Y0003729028D03*
D27*
X0002458226Y0003729028D03*
X0002558226Y0003629028D03*
X0002458226Y0003629028D03*
X0002558226Y0003529027D03*
X0002458226Y0003529027D03*
X0002558226Y0003429027D03*
X0002458226Y0003429027D03*
X0002558226Y0003329028D03*
X0002458226Y0003329028D03*
X0002558226Y0003229028D03*
X0002458226Y0003229028D03*
X0002558226Y0003129028D03*
X0002458226Y0003129028D03*
X0002558226Y0003029028D03*
X0002458226Y0003029028D03*
X0002558226Y0002929028D03*
X0002458226Y0002929028D03*
X0002558226Y0002829028D03*
X0002458226Y0002829028D03*
D28*
X0002152911Y0003729028D03*
D27*
X0002052911Y0003729028D03*
X0002152911Y0003629028D03*
X0002052911Y0003629028D03*
X0002152911Y0003529027D03*
X0002052911Y0003529027D03*
X0002152911Y0003429027D03*
X0002052911Y0003429027D03*
X0002152911Y0003329028D03*
X0002052911Y0003329028D03*
X0002152911Y0003229028D03*
X0002052911Y0003229028D03*
X0002152911Y0003129028D03*
X0002052911Y0003129028D03*
X0002152911Y0003029028D03*
X0002052911Y0003029028D03*
X0002152911Y0002929028D03*
X0002052911Y0002929028D03*
X0002152911Y0002829028D03*
X0002052911Y0002829028D03*
D29*
X0003641732Y0003252362D03*
D30*
X0003641732Y0003352362D03*
X0003770866Y0003351968D03*
D29*
X0003770866Y0003251968D03*
X0003885433Y0003251968D03*
D30*
X0003885433Y0003351968D03*
D31*
G36*
X0002342856Y0002659072D02*
X0002002919Y0002659072D01*
X0002002919Y0002806269D01*
X0002013399Y0002790583D01*
X0002031038Y0002778796D01*
X0002051845Y0002774658D01*
X0002053976Y0002774658D01*
X0002074782Y0002778796D01*
X0002092420Y0002790583D01*
X0002102911Y0002806281D01*
X0002113400Y0002790583D01*
X0002131039Y0002778796D01*
X0002151846Y0002774658D01*
X0002153976Y0002774658D01*
X0002174782Y0002778796D01*
X0002192421Y0002790583D01*
X0002204207Y0002808222D01*
X0002208346Y0002829028D01*
X0002204207Y0002849835D01*
X0002192421Y0002867473D01*
X0002175129Y0002879028D01*
X0002192421Y0002890583D01*
X0002204207Y0002908222D01*
X0002208346Y0002929028D01*
X0002204207Y0002949835D01*
X0002192421Y0002967473D01*
X0002175129Y0002979028D01*
X0002192421Y0002990583D01*
X0002204207Y0003008222D01*
X0002208346Y0003029028D01*
X0002204207Y0003049835D01*
X0002192421Y0003067473D01*
X0002175129Y0003079027D01*
X0002192421Y0003090583D01*
X0002204207Y0003108221D01*
X0002208346Y0003129028D01*
X0002204207Y0003149835D01*
X0002192421Y0003167473D01*
X0002175129Y0003179028D01*
X0002192421Y0003190583D01*
X0002204207Y0003208222D01*
X0002208346Y0003229028D01*
X0002204207Y0003249835D01*
X0002192421Y0003267473D01*
X0002175129Y0003279028D01*
X0002192421Y0003290583D01*
X0002204207Y0003308222D01*
X0002208346Y0003329028D01*
X0002204207Y0003349835D01*
X0002192421Y0003367473D01*
X0002175129Y0003379028D01*
X0002192421Y0003390583D01*
X0002204207Y0003408222D01*
X0002208346Y0003429027D01*
X0002204207Y0003449835D01*
X0002192421Y0003467473D01*
X0002175129Y0003479027D01*
X0002192421Y0003490583D01*
X0002204207Y0003508221D01*
X0002208346Y0003529027D01*
X0002204207Y0003549835D01*
X0002192421Y0003567473D01*
X0002175129Y0003579028D01*
X0002192421Y0003590583D01*
X0002204207Y0003608222D01*
X0002208346Y0003629028D01*
X0002204207Y0003649835D01*
X0002192421Y0003667473D01*
X0002182109Y0003674364D01*
X0002192281Y0003674364D01*
X0002198133Y0003675528D01*
X0002203095Y0003678843D01*
X0002206410Y0003683805D01*
X0002207575Y0003689658D01*
X0002207575Y0003768398D01*
X0002206410Y0003774251D01*
X0002203188Y0003779073D01*
X0002342919Y0003779073D01*
X0002342856Y0002659072D01*
X0002342856Y0002659072D01*
G37*
X0002342856Y0002659072D02*
X0002002919Y0002659072D01*
X0002002919Y0002806269D01*
X0002013399Y0002790583D01*
X0002031038Y0002778796D01*
X0002051845Y0002774658D01*
X0002053976Y0002774658D01*
X0002074782Y0002778796D01*
X0002092420Y0002790583D01*
X0002102911Y0002806281D01*
X0002113400Y0002790583D01*
X0002131039Y0002778796D01*
X0002151846Y0002774658D01*
X0002153976Y0002774658D01*
X0002174782Y0002778796D01*
X0002192421Y0002790583D01*
X0002204207Y0002808222D01*
X0002208346Y0002829028D01*
X0002204207Y0002849835D01*
X0002192421Y0002867473D01*
X0002175129Y0002879028D01*
X0002192421Y0002890583D01*
X0002204207Y0002908222D01*
X0002208346Y0002929028D01*
X0002204207Y0002949835D01*
X0002192421Y0002967473D01*
X0002175129Y0002979028D01*
X0002192421Y0002990583D01*
X0002204207Y0003008222D01*
X0002208346Y0003029028D01*
X0002204207Y0003049835D01*
X0002192421Y0003067473D01*
X0002175129Y0003079027D01*
X0002192421Y0003090583D01*
X0002204207Y0003108221D01*
X0002208346Y0003129028D01*
X0002204207Y0003149835D01*
X0002192421Y0003167473D01*
X0002175129Y0003179028D01*
X0002192421Y0003190583D01*
X0002204207Y0003208222D01*
X0002208346Y0003229028D01*
X0002204207Y0003249835D01*
X0002192421Y0003267473D01*
X0002175129Y0003279028D01*
X0002192421Y0003290583D01*
X0002204207Y0003308222D01*
X0002208346Y0003329028D01*
X0002204207Y0003349835D01*
X0002192421Y0003367473D01*
X0002175129Y0003379028D01*
X0002192421Y0003390583D01*
X0002204207Y0003408222D01*
X0002208346Y0003429027D01*
X0002204207Y0003449835D01*
X0002192421Y0003467473D01*
X0002175129Y0003479027D01*
X0002192421Y0003490583D01*
X0002204207Y0003508221D01*
X0002208346Y0003529027D01*
X0002204207Y0003549835D01*
X0002192421Y0003567473D01*
X0002175129Y0003579028D01*
X0002192421Y0003590583D01*
X0002204207Y0003608222D01*
X0002208346Y0003629028D01*
X0002204207Y0003649835D01*
X0002192421Y0003667473D01*
X0002182109Y0003674364D01*
X0002192281Y0003674364D01*
X0002198133Y0003675528D01*
X0002203095Y0003678843D01*
X0002206410Y0003683805D01*
X0002207575Y0003689658D01*
X0002207575Y0003768398D01*
X0002206410Y0003774251D01*
X0002203188Y0003779073D01*
X0002342919Y0003779073D01*
X0002342856Y0002659072D01*
G36*
X0002113400Y0002890583D02*
X0002130693Y0002879028D01*
X0002113400Y0002867473D01*
X0002102911Y0002851775D01*
X0002092420Y0002867473D01*
X0002075129Y0002879028D01*
X0002092420Y0002890583D01*
X0002102911Y0002906280D01*
X0002113400Y0002890583D01*
X0002113400Y0002890583D01*
G37*
X0002113400Y0002890583D02*
X0002130693Y0002879028D01*
X0002113400Y0002867473D01*
X0002102911Y0002851775D01*
X0002092420Y0002867473D01*
X0002075129Y0002879028D01*
X0002092420Y0002890583D01*
X0002102911Y0002906280D01*
X0002113400Y0002890583D01*
G36*
X0002013399Y0002890583D02*
X0002030692Y0002879028D01*
X0002013399Y0002867473D01*
X0002002919Y0002851787D01*
X0002002919Y0002906269D01*
X0002013399Y0002890583D01*
X0002013399Y0002890583D01*
G37*
X0002013399Y0002890583D02*
X0002030692Y0002879028D01*
X0002013399Y0002867473D01*
X0002002919Y0002851787D01*
X0002002919Y0002906269D01*
X0002013399Y0002890583D01*
G36*
X0002113400Y0002990583D02*
X0002130693Y0002979028D01*
X0002113400Y0002967473D01*
X0002102911Y0002951775D01*
X0002092420Y0002967473D01*
X0002075129Y0002979028D01*
X0002092420Y0002990583D01*
X0002102911Y0003006281D01*
X0002113400Y0002990583D01*
X0002113400Y0002990583D01*
G37*
X0002113400Y0002990583D02*
X0002130693Y0002979028D01*
X0002113400Y0002967473D01*
X0002102911Y0002951775D01*
X0002092420Y0002967473D01*
X0002075129Y0002979028D01*
X0002092420Y0002990583D01*
X0002102911Y0003006281D01*
X0002113400Y0002990583D01*
G36*
X0002013399Y0002990583D02*
X0002030692Y0002979028D01*
X0002013399Y0002967473D01*
X0002002919Y0002951786D01*
X0002002919Y0003006269D01*
X0002013399Y0002990583D01*
X0002013399Y0002990583D01*
G37*
X0002013399Y0002990583D02*
X0002030692Y0002979028D01*
X0002013399Y0002967473D01*
X0002002919Y0002951786D01*
X0002002919Y0003006269D01*
X0002013399Y0002990583D01*
G36*
X0002113400Y0003090583D02*
X0002130693Y0003079027D01*
X0002113400Y0003067473D01*
X0002102911Y0003051775D01*
X0002092420Y0003067473D01*
X0002075129Y0003079027D01*
X0002092420Y0003090583D01*
X0002102911Y0003106281D01*
X0002113400Y0003090583D01*
X0002113400Y0003090583D01*
G37*
X0002113400Y0003090583D02*
X0002130693Y0003079027D01*
X0002113400Y0003067473D01*
X0002102911Y0003051775D01*
X0002092420Y0003067473D01*
X0002075129Y0003079027D01*
X0002092420Y0003090583D01*
X0002102911Y0003106281D01*
X0002113400Y0003090583D01*
G36*
X0002013399Y0003090583D02*
X0002030692Y0003079027D01*
X0002013399Y0003067473D01*
X0002002919Y0003051787D01*
X0002002919Y0003106269D01*
X0002013399Y0003090583D01*
X0002013399Y0003090583D01*
G37*
X0002013399Y0003090583D02*
X0002030692Y0003079027D01*
X0002013399Y0003067473D01*
X0002002919Y0003051787D01*
X0002002919Y0003106269D01*
X0002013399Y0003090583D01*
G36*
X0002113400Y0003190583D02*
X0002130693Y0003179028D01*
X0002113400Y0003167473D01*
X0002102911Y0003151775D01*
X0002092420Y0003167473D01*
X0002075129Y0003179028D01*
X0002092420Y0003190583D01*
X0002102911Y0003206281D01*
X0002113400Y0003190583D01*
X0002113400Y0003190583D01*
G37*
X0002113400Y0003190583D02*
X0002130693Y0003179028D01*
X0002113400Y0003167473D01*
X0002102911Y0003151775D01*
X0002092420Y0003167473D01*
X0002075129Y0003179028D01*
X0002092420Y0003190583D01*
X0002102911Y0003206281D01*
X0002113400Y0003190583D01*
G36*
X0002013399Y0003190583D02*
X0002030692Y0003179028D01*
X0002013399Y0003167473D01*
X0002002919Y0003151787D01*
X0002002919Y0003206269D01*
X0002013399Y0003190583D01*
X0002013399Y0003190583D01*
G37*
X0002013399Y0003190583D02*
X0002030692Y0003179028D01*
X0002013399Y0003167473D01*
X0002002919Y0003151787D01*
X0002002919Y0003206269D01*
X0002013399Y0003190583D01*
G36*
X0002113400Y0003290583D02*
X0002130693Y0003279028D01*
X0002113400Y0003267473D01*
X0002102911Y0003251775D01*
X0002092420Y0003267473D01*
X0002075129Y0003279028D01*
X0002092420Y0003290583D01*
X0002102911Y0003306280D01*
X0002113400Y0003290583D01*
X0002113400Y0003290583D01*
G37*
X0002113400Y0003290583D02*
X0002130693Y0003279028D01*
X0002113400Y0003267473D01*
X0002102911Y0003251775D01*
X0002092420Y0003267473D01*
X0002075129Y0003279028D01*
X0002092420Y0003290583D01*
X0002102911Y0003306280D01*
X0002113400Y0003290583D01*
G36*
X0002013399Y0003290583D02*
X0002030692Y0003279028D01*
X0002013399Y0003267473D01*
X0002002919Y0003251787D01*
X0002002919Y0003306269D01*
X0002013399Y0003290583D01*
X0002013399Y0003290583D01*
G37*
X0002013399Y0003290583D02*
X0002030692Y0003279028D01*
X0002013399Y0003267473D01*
X0002002919Y0003251787D01*
X0002002919Y0003306269D01*
X0002013399Y0003290583D01*
G36*
X0002113400Y0003390583D02*
X0002130693Y0003379028D01*
X0002113400Y0003367473D01*
X0002102911Y0003351775D01*
X0002092420Y0003367473D01*
X0002075129Y0003379028D01*
X0002092420Y0003390583D01*
X0002102911Y0003406281D01*
X0002113400Y0003390583D01*
X0002113400Y0003390583D01*
G37*
X0002113400Y0003390583D02*
X0002130693Y0003379028D01*
X0002113400Y0003367473D01*
X0002102911Y0003351775D01*
X0002092420Y0003367473D01*
X0002075129Y0003379028D01*
X0002092420Y0003390583D01*
X0002102911Y0003406281D01*
X0002113400Y0003390583D01*
G36*
X0002013399Y0003390583D02*
X0002030692Y0003379028D01*
X0002013399Y0003367473D01*
X0002002919Y0003351786D01*
X0002002919Y0003406269D01*
X0002013399Y0003390583D01*
X0002013399Y0003390583D01*
G37*
X0002013399Y0003390583D02*
X0002030692Y0003379028D01*
X0002013399Y0003367473D01*
X0002002919Y0003351786D01*
X0002002919Y0003406269D01*
X0002013399Y0003390583D01*
G36*
X0002113400Y0003490583D02*
X0002130693Y0003479027D01*
X0002113400Y0003467473D01*
X0002102911Y0003451775D01*
X0002092420Y0003467473D01*
X0002075129Y0003479027D01*
X0002092420Y0003490583D01*
X0002102911Y0003506281D01*
X0002113400Y0003490583D01*
X0002113400Y0003490583D01*
G37*
X0002113400Y0003490583D02*
X0002130693Y0003479027D01*
X0002113400Y0003467473D01*
X0002102911Y0003451775D01*
X0002092420Y0003467473D01*
X0002075129Y0003479027D01*
X0002092420Y0003490583D01*
X0002102911Y0003506281D01*
X0002113400Y0003490583D01*
G36*
X0002013399Y0003490583D02*
X0002030692Y0003479027D01*
X0002013399Y0003467473D01*
X0002002919Y0003451787D01*
X0002002919Y0003506269D01*
X0002013399Y0003490583D01*
X0002013399Y0003490583D01*
G37*
X0002013399Y0003490583D02*
X0002030692Y0003479027D01*
X0002013399Y0003467473D01*
X0002002919Y0003451787D01*
X0002002919Y0003506269D01*
X0002013399Y0003490583D01*
G36*
X0002113400Y0003590583D02*
X0002130693Y0003579028D01*
X0002113400Y0003567473D01*
X0002102911Y0003551775D01*
X0002092420Y0003567473D01*
X0002075129Y0003579028D01*
X0002092420Y0003590583D01*
X0002102911Y0003606281D01*
X0002113400Y0003590583D01*
X0002113400Y0003590583D01*
G37*
X0002113400Y0003590583D02*
X0002130693Y0003579028D01*
X0002113400Y0003567473D01*
X0002102911Y0003551775D01*
X0002092420Y0003567473D01*
X0002075129Y0003579028D01*
X0002092420Y0003590583D01*
X0002102911Y0003606281D01*
X0002113400Y0003590583D01*
G36*
X0002013399Y0003590583D02*
X0002030692Y0003579028D01*
X0002013399Y0003567473D01*
X0002002919Y0003551787D01*
X0002002919Y0003606268D01*
X0002013399Y0003590583D01*
X0002013399Y0003590583D01*
G37*
X0002013399Y0003590583D02*
X0002030692Y0003579028D01*
X0002013399Y0003567473D01*
X0002002919Y0003551787D01*
X0002002919Y0003606268D01*
X0002013399Y0003590583D01*
G36*
X0002098247Y0003689658D02*
X0002099411Y0003683805D01*
X0002102726Y0003678843D01*
X0002107688Y0003675528D01*
X0002113541Y0003674364D01*
X0002123713Y0003674364D01*
X0002113400Y0003667473D01*
X0002102911Y0003651775D01*
X0002092420Y0003667473D01*
X0002075129Y0003679028D01*
X0002092420Y0003690583D01*
X0002098247Y0003699301D01*
X0002098247Y0003689658D01*
X0002098247Y0003689658D01*
G37*
X0002098247Y0003689658D02*
X0002099411Y0003683805D01*
X0002102726Y0003678843D01*
X0002107688Y0003675528D01*
X0002113541Y0003674364D01*
X0002123713Y0003674364D01*
X0002113400Y0003667473D01*
X0002102911Y0003651775D01*
X0002092420Y0003667473D01*
X0002075129Y0003679028D01*
X0002092420Y0003690583D01*
X0002098247Y0003699301D01*
X0002098247Y0003689658D01*
G36*
X0002013399Y0003690583D02*
X0002030692Y0003679028D01*
X0002013399Y0003667473D01*
X0002002919Y0003651787D01*
X0002002919Y0003706269D01*
X0002013399Y0003690583D01*
X0002013399Y0003690583D01*
G37*
X0002013399Y0003690583D02*
X0002030692Y0003679028D01*
X0002013399Y0003667473D01*
X0002002919Y0003651787D01*
X0002002919Y0003706269D01*
X0002013399Y0003690583D01*
G36*
X0002013399Y0003767473D02*
X0002002919Y0003751787D01*
X0002002919Y0003779073D01*
X0002030760Y0003779073D01*
X0002013399Y0003767473D01*
X0002013399Y0003767473D01*
G37*
X0002013399Y0003767473D02*
X0002002919Y0003751787D01*
X0002002919Y0003779073D01*
X0002030760Y0003779073D01*
X0002013399Y0003767473D01*
G36*
X0002099411Y0003774251D02*
X0002098247Y0003768398D01*
X0002098247Y0003758755D01*
X0002092420Y0003767473D01*
X0002075062Y0003779073D01*
X0002102633Y0003779073D01*
X0002099411Y0003774251D01*
X0002099411Y0003774251D01*
G37*
X0002099411Y0003774251D02*
X0002098247Y0003768398D01*
X0002098247Y0003758755D01*
X0002092420Y0003767473D01*
X0002075062Y0003779073D01*
X0002102633Y0003779073D01*
X0002099411Y0003774251D01*
G36*
X0002748171Y0002659072D02*
X0002408234Y0002659072D01*
X0002408234Y0002806269D01*
X0002418715Y0002790583D01*
X0002436354Y0002778796D01*
X0002457160Y0002774658D01*
X0002459291Y0002774658D01*
X0002480097Y0002778796D01*
X0002497736Y0002790583D01*
X0002508226Y0002806281D01*
X0002518715Y0002790583D01*
X0002536354Y0002778796D01*
X0002557160Y0002774658D01*
X0002559291Y0002774658D01*
X0002580097Y0002778796D01*
X0002597736Y0002790583D01*
X0002609522Y0002808222D01*
X0002613660Y0002829028D01*
X0002609522Y0002849835D01*
X0002597736Y0002867473D01*
X0002580444Y0002879028D01*
X0002597736Y0002890583D01*
X0002609522Y0002908222D01*
X0002613660Y0002929028D01*
X0002609522Y0002949835D01*
X0002597736Y0002967473D01*
X0002580444Y0002979028D01*
X0002597736Y0002990583D01*
X0002609522Y0003008222D01*
X0002613660Y0003029028D01*
X0002609522Y0003049835D01*
X0002597736Y0003067473D01*
X0002580444Y0003079027D01*
X0002597736Y0003090583D01*
X0002609522Y0003108221D01*
X0002613660Y0003129028D01*
X0002609522Y0003149835D01*
X0002597736Y0003167473D01*
X0002580444Y0003179028D01*
X0002597736Y0003190583D01*
X0002609522Y0003208222D01*
X0002613660Y0003229028D01*
X0002609522Y0003249835D01*
X0002597736Y0003267473D01*
X0002580444Y0003279028D01*
X0002597736Y0003290583D01*
X0002609522Y0003308222D01*
X0002613660Y0003329028D01*
X0002609522Y0003349835D01*
X0002597736Y0003367473D01*
X0002580444Y0003379028D01*
X0002597736Y0003390583D01*
X0002609522Y0003408222D01*
X0002613660Y0003429027D01*
X0002609522Y0003449835D01*
X0002597736Y0003467473D01*
X0002580444Y0003479027D01*
X0002597736Y0003490583D01*
X0002609522Y0003508221D01*
X0002613660Y0003529027D01*
X0002609522Y0003549835D01*
X0002597736Y0003567473D01*
X0002580444Y0003579028D01*
X0002597736Y0003590583D01*
X0002609522Y0003608222D01*
X0002613660Y0003629028D01*
X0002609522Y0003649835D01*
X0002597736Y0003667473D01*
X0002587424Y0003674364D01*
X0002597596Y0003674364D01*
X0002603448Y0003675528D01*
X0002608410Y0003678843D01*
X0002611725Y0003683805D01*
X0002612890Y0003689658D01*
X0002612890Y0003768398D01*
X0002611725Y0003774251D01*
X0002608503Y0003779073D01*
X0002748234Y0003779073D01*
X0002748171Y0002659072D01*
X0002748171Y0002659072D01*
G37*
X0002748171Y0002659072D02*
X0002408234Y0002659072D01*
X0002408234Y0002806269D01*
X0002418715Y0002790583D01*
X0002436354Y0002778796D01*
X0002457160Y0002774658D01*
X0002459291Y0002774658D01*
X0002480097Y0002778796D01*
X0002497736Y0002790583D01*
X0002508226Y0002806281D01*
X0002518715Y0002790583D01*
X0002536354Y0002778796D01*
X0002557160Y0002774658D01*
X0002559291Y0002774658D01*
X0002580097Y0002778796D01*
X0002597736Y0002790583D01*
X0002609522Y0002808222D01*
X0002613660Y0002829028D01*
X0002609522Y0002849835D01*
X0002597736Y0002867473D01*
X0002580444Y0002879028D01*
X0002597736Y0002890583D01*
X0002609522Y0002908222D01*
X0002613660Y0002929028D01*
X0002609522Y0002949835D01*
X0002597736Y0002967473D01*
X0002580444Y0002979028D01*
X0002597736Y0002990583D01*
X0002609522Y0003008222D01*
X0002613660Y0003029028D01*
X0002609522Y0003049835D01*
X0002597736Y0003067473D01*
X0002580444Y0003079027D01*
X0002597736Y0003090583D01*
X0002609522Y0003108221D01*
X0002613660Y0003129028D01*
X0002609522Y0003149835D01*
X0002597736Y0003167473D01*
X0002580444Y0003179028D01*
X0002597736Y0003190583D01*
X0002609522Y0003208222D01*
X0002613660Y0003229028D01*
X0002609522Y0003249835D01*
X0002597736Y0003267473D01*
X0002580444Y0003279028D01*
X0002597736Y0003290583D01*
X0002609522Y0003308222D01*
X0002613660Y0003329028D01*
X0002609522Y0003349835D01*
X0002597736Y0003367473D01*
X0002580444Y0003379028D01*
X0002597736Y0003390583D01*
X0002609522Y0003408222D01*
X0002613660Y0003429027D01*
X0002609522Y0003449835D01*
X0002597736Y0003467473D01*
X0002580444Y0003479027D01*
X0002597736Y0003490583D01*
X0002609522Y0003508221D01*
X0002613660Y0003529027D01*
X0002609522Y0003549835D01*
X0002597736Y0003567473D01*
X0002580444Y0003579028D01*
X0002597736Y0003590583D01*
X0002609522Y0003608222D01*
X0002613660Y0003629028D01*
X0002609522Y0003649835D01*
X0002597736Y0003667473D01*
X0002587424Y0003674364D01*
X0002597596Y0003674364D01*
X0002603448Y0003675528D01*
X0002608410Y0003678843D01*
X0002611725Y0003683805D01*
X0002612890Y0003689658D01*
X0002612890Y0003768398D01*
X0002611725Y0003774251D01*
X0002608503Y0003779073D01*
X0002748234Y0003779073D01*
X0002748171Y0002659072D01*
G36*
X0002518715Y0002890583D02*
X0002536008Y0002879028D01*
X0002518715Y0002867473D01*
X0002508226Y0002851775D01*
X0002497736Y0002867473D01*
X0002480444Y0002879028D01*
X0002497736Y0002890583D01*
X0002508226Y0002906280D01*
X0002518715Y0002890583D01*
X0002518715Y0002890583D01*
G37*
X0002518715Y0002890583D02*
X0002536008Y0002879028D01*
X0002518715Y0002867473D01*
X0002508226Y0002851775D01*
X0002497736Y0002867473D01*
X0002480444Y0002879028D01*
X0002497736Y0002890583D01*
X0002508226Y0002906280D01*
X0002518715Y0002890583D01*
G36*
X0002418715Y0002890583D02*
X0002436008Y0002879028D01*
X0002418715Y0002867473D01*
X0002408234Y0002851787D01*
X0002408234Y0002906269D01*
X0002418715Y0002890583D01*
X0002418715Y0002890583D01*
G37*
X0002418715Y0002890583D02*
X0002436008Y0002879028D01*
X0002418715Y0002867473D01*
X0002408234Y0002851787D01*
X0002408234Y0002906269D01*
X0002418715Y0002890583D01*
G36*
X0002518715Y0002990583D02*
X0002536008Y0002979028D01*
X0002518715Y0002967473D01*
X0002508226Y0002951775D01*
X0002497736Y0002967473D01*
X0002480444Y0002979028D01*
X0002497736Y0002990583D01*
X0002508226Y0003006281D01*
X0002518715Y0002990583D01*
X0002518715Y0002990583D01*
G37*
X0002518715Y0002990583D02*
X0002536008Y0002979028D01*
X0002518715Y0002967473D01*
X0002508226Y0002951775D01*
X0002497736Y0002967473D01*
X0002480444Y0002979028D01*
X0002497736Y0002990583D01*
X0002508226Y0003006281D01*
X0002518715Y0002990583D01*
G36*
X0002418715Y0002990583D02*
X0002436008Y0002979028D01*
X0002418715Y0002967473D01*
X0002408234Y0002951786D01*
X0002408234Y0003006269D01*
X0002418715Y0002990583D01*
X0002418715Y0002990583D01*
G37*
X0002418715Y0002990583D02*
X0002436008Y0002979028D01*
X0002418715Y0002967473D01*
X0002408234Y0002951786D01*
X0002408234Y0003006269D01*
X0002418715Y0002990583D01*
G36*
X0002518715Y0003090583D02*
X0002536008Y0003079027D01*
X0002518715Y0003067473D01*
X0002508226Y0003051775D01*
X0002497736Y0003067473D01*
X0002480444Y0003079027D01*
X0002497736Y0003090583D01*
X0002508226Y0003106281D01*
X0002518715Y0003090583D01*
X0002518715Y0003090583D01*
G37*
X0002518715Y0003090583D02*
X0002536008Y0003079027D01*
X0002518715Y0003067473D01*
X0002508226Y0003051775D01*
X0002497736Y0003067473D01*
X0002480444Y0003079027D01*
X0002497736Y0003090583D01*
X0002508226Y0003106281D01*
X0002518715Y0003090583D01*
G36*
X0002418715Y0003090583D02*
X0002436008Y0003079027D01*
X0002418715Y0003067473D01*
X0002408234Y0003051787D01*
X0002408234Y0003106269D01*
X0002418715Y0003090583D01*
X0002418715Y0003090583D01*
G37*
X0002418715Y0003090583D02*
X0002436008Y0003079027D01*
X0002418715Y0003067473D01*
X0002408234Y0003051787D01*
X0002408234Y0003106269D01*
X0002418715Y0003090583D01*
G36*
X0002518715Y0003190583D02*
X0002536008Y0003179028D01*
X0002518715Y0003167473D01*
X0002508226Y0003151775D01*
X0002497736Y0003167473D01*
X0002480444Y0003179028D01*
X0002497736Y0003190583D01*
X0002508226Y0003206281D01*
X0002518715Y0003190583D01*
X0002518715Y0003190583D01*
G37*
X0002518715Y0003190583D02*
X0002536008Y0003179028D01*
X0002518715Y0003167473D01*
X0002508226Y0003151775D01*
X0002497736Y0003167473D01*
X0002480444Y0003179028D01*
X0002497736Y0003190583D01*
X0002508226Y0003206281D01*
X0002518715Y0003190583D01*
G36*
X0002418715Y0003190583D02*
X0002436008Y0003179028D01*
X0002418715Y0003167473D01*
X0002408234Y0003151787D01*
X0002408234Y0003206269D01*
X0002418715Y0003190583D01*
X0002418715Y0003190583D01*
G37*
X0002418715Y0003190583D02*
X0002436008Y0003179028D01*
X0002418715Y0003167473D01*
X0002408234Y0003151787D01*
X0002408234Y0003206269D01*
X0002418715Y0003190583D01*
G36*
X0002518715Y0003290583D02*
X0002536008Y0003279028D01*
X0002518715Y0003267473D01*
X0002508226Y0003251775D01*
X0002497736Y0003267473D01*
X0002480444Y0003279028D01*
X0002497736Y0003290583D01*
X0002508226Y0003306280D01*
X0002518715Y0003290583D01*
X0002518715Y0003290583D01*
G37*
X0002518715Y0003290583D02*
X0002536008Y0003279028D01*
X0002518715Y0003267473D01*
X0002508226Y0003251775D01*
X0002497736Y0003267473D01*
X0002480444Y0003279028D01*
X0002497736Y0003290583D01*
X0002508226Y0003306280D01*
X0002518715Y0003290583D01*
G36*
X0002418715Y0003290583D02*
X0002436008Y0003279028D01*
X0002418715Y0003267473D01*
X0002408234Y0003251787D01*
X0002408234Y0003306269D01*
X0002418715Y0003290583D01*
X0002418715Y0003290583D01*
G37*
X0002418715Y0003290583D02*
X0002436008Y0003279028D01*
X0002418715Y0003267473D01*
X0002408234Y0003251787D01*
X0002408234Y0003306269D01*
X0002418715Y0003290583D01*
G36*
X0002518715Y0003390583D02*
X0002536008Y0003379028D01*
X0002518715Y0003367473D01*
X0002508226Y0003351775D01*
X0002497736Y0003367473D01*
X0002480444Y0003379028D01*
X0002497736Y0003390583D01*
X0002508226Y0003406281D01*
X0002518715Y0003390583D01*
X0002518715Y0003390583D01*
G37*
X0002518715Y0003390583D02*
X0002536008Y0003379028D01*
X0002518715Y0003367473D01*
X0002508226Y0003351775D01*
X0002497736Y0003367473D01*
X0002480444Y0003379028D01*
X0002497736Y0003390583D01*
X0002508226Y0003406281D01*
X0002518715Y0003390583D01*
G36*
X0002418715Y0003390583D02*
X0002436008Y0003379028D01*
X0002418715Y0003367473D01*
X0002408234Y0003351786D01*
X0002408234Y0003406269D01*
X0002418715Y0003390583D01*
X0002418715Y0003390583D01*
G37*
X0002418715Y0003390583D02*
X0002436008Y0003379028D01*
X0002418715Y0003367473D01*
X0002408234Y0003351786D01*
X0002408234Y0003406269D01*
X0002418715Y0003390583D01*
G36*
X0002518715Y0003490583D02*
X0002536008Y0003479027D01*
X0002518715Y0003467473D01*
X0002508226Y0003451775D01*
X0002497736Y0003467473D01*
X0002480444Y0003479027D01*
X0002497736Y0003490583D01*
X0002508226Y0003506281D01*
X0002518715Y0003490583D01*
X0002518715Y0003490583D01*
G37*
X0002518715Y0003490583D02*
X0002536008Y0003479027D01*
X0002518715Y0003467473D01*
X0002508226Y0003451775D01*
X0002497736Y0003467473D01*
X0002480444Y0003479027D01*
X0002497736Y0003490583D01*
X0002508226Y0003506281D01*
X0002518715Y0003490583D01*
G36*
X0002418715Y0003490583D02*
X0002436008Y0003479027D01*
X0002418715Y0003467473D01*
X0002408234Y0003451787D01*
X0002408234Y0003506269D01*
X0002418715Y0003490583D01*
X0002418715Y0003490583D01*
G37*
X0002418715Y0003490583D02*
X0002436008Y0003479027D01*
X0002418715Y0003467473D01*
X0002408234Y0003451787D01*
X0002408234Y0003506269D01*
X0002418715Y0003490583D01*
G36*
X0002518715Y0003590583D02*
X0002536008Y0003579028D01*
X0002518715Y0003567473D01*
X0002508226Y0003551775D01*
X0002497736Y0003567473D01*
X0002480444Y0003579028D01*
X0002497736Y0003590583D01*
X0002508226Y0003606281D01*
X0002518715Y0003590583D01*
X0002518715Y0003590583D01*
G37*
X0002518715Y0003590583D02*
X0002536008Y0003579028D01*
X0002518715Y0003567473D01*
X0002508226Y0003551775D01*
X0002497736Y0003567473D01*
X0002480444Y0003579028D01*
X0002497736Y0003590583D01*
X0002508226Y0003606281D01*
X0002518715Y0003590583D01*
G36*
X0002418715Y0003590583D02*
X0002436008Y0003579028D01*
X0002418715Y0003567473D01*
X0002408234Y0003551787D01*
X0002408234Y0003606268D01*
X0002418715Y0003590583D01*
X0002418715Y0003590583D01*
G37*
X0002418715Y0003590583D02*
X0002436008Y0003579028D01*
X0002418715Y0003567473D01*
X0002408234Y0003551787D01*
X0002408234Y0003606268D01*
X0002418715Y0003590583D01*
G36*
X0002503562Y0003689658D02*
X0002504726Y0003683805D01*
X0002508041Y0003678843D01*
X0002513003Y0003675528D01*
X0002518856Y0003674364D01*
X0002529028Y0003674364D01*
X0002518715Y0003667473D01*
X0002508226Y0003651775D01*
X0002497736Y0003667473D01*
X0002480444Y0003679028D01*
X0002497736Y0003690583D01*
X0002503562Y0003699301D01*
X0002503562Y0003689658D01*
X0002503562Y0003689658D01*
G37*
X0002503562Y0003689658D02*
X0002504726Y0003683805D01*
X0002508041Y0003678843D01*
X0002513003Y0003675528D01*
X0002518856Y0003674364D01*
X0002529028Y0003674364D01*
X0002518715Y0003667473D01*
X0002508226Y0003651775D01*
X0002497736Y0003667473D01*
X0002480444Y0003679028D01*
X0002497736Y0003690583D01*
X0002503562Y0003699301D01*
X0002503562Y0003689658D01*
G36*
X0002418715Y0003690583D02*
X0002436008Y0003679028D01*
X0002418715Y0003667473D01*
X0002408234Y0003651787D01*
X0002408234Y0003706269D01*
X0002418715Y0003690583D01*
X0002418715Y0003690583D01*
G37*
X0002418715Y0003690583D02*
X0002436008Y0003679028D01*
X0002418715Y0003667473D01*
X0002408234Y0003651787D01*
X0002408234Y0003706269D01*
X0002418715Y0003690583D01*
G36*
X0002418715Y0003767473D02*
X0002408234Y0003751787D01*
X0002408234Y0003779073D01*
X0002436075Y0003779073D01*
X0002418715Y0003767473D01*
X0002418715Y0003767473D01*
G37*
X0002418715Y0003767473D02*
X0002408234Y0003751787D01*
X0002408234Y0003779073D01*
X0002436075Y0003779073D01*
X0002418715Y0003767473D01*
G36*
X0002504726Y0003774251D02*
X0002503562Y0003768398D01*
X0002503562Y0003758755D01*
X0002497736Y0003767473D01*
X0002480377Y0003779073D01*
X0002507948Y0003779073D01*
X0002504726Y0003774251D01*
X0002504726Y0003774251D01*
G37*
X0002504726Y0003774251D02*
X0002503562Y0003768398D01*
X0002503562Y0003758755D01*
X0002497736Y0003767473D01*
X0002480377Y0003779073D01*
X0002507948Y0003779073D01*
X0002504726Y0003774251D01*
G36*
X0003153486Y0002659072D02*
X0002813549Y0002659072D01*
X0002813549Y0002806269D01*
X0002824030Y0002790583D01*
X0002841669Y0002778796D01*
X0002862475Y0002774658D01*
X0002864606Y0002774658D01*
X0002885412Y0002778796D01*
X0002903051Y0002790583D01*
X0002913540Y0002806281D01*
X0002924030Y0002790583D01*
X0002941669Y0002778796D01*
X0002962475Y0002774658D01*
X0002964606Y0002774658D01*
X0002985412Y0002778796D01*
X0003003050Y0002790583D01*
X0003014837Y0002808222D01*
X0003018976Y0002829028D01*
X0003014837Y0002849835D01*
X0003003050Y0002867473D01*
X0002985759Y0002879028D01*
X0003003050Y0002890583D01*
X0003014837Y0002908222D01*
X0003018976Y0002929028D01*
X0003014837Y0002949835D01*
X0003003050Y0002967473D01*
X0002985759Y0002979028D01*
X0003003050Y0002990583D01*
X0003014837Y0003008222D01*
X0003018976Y0003029028D01*
X0003014837Y0003049835D01*
X0003003050Y0003067473D01*
X0002985759Y0003079027D01*
X0003003050Y0003090583D01*
X0003014837Y0003108221D01*
X0003018976Y0003129028D01*
X0003014837Y0003149835D01*
X0003003050Y0003167473D01*
X0002985759Y0003179028D01*
X0003003050Y0003190583D01*
X0003014837Y0003208222D01*
X0003018976Y0003229028D01*
X0003014837Y0003249835D01*
X0003003050Y0003267473D01*
X0002985759Y0003279028D01*
X0003003050Y0003290583D01*
X0003014837Y0003308222D01*
X0003018976Y0003329028D01*
X0003014837Y0003349835D01*
X0003003050Y0003367473D01*
X0002985759Y0003379028D01*
X0003003050Y0003390583D01*
X0003014837Y0003408222D01*
X0003018976Y0003429027D01*
X0003014837Y0003449835D01*
X0003003050Y0003467473D01*
X0002985759Y0003479027D01*
X0003003050Y0003490583D01*
X0003014837Y0003508221D01*
X0003018976Y0003529027D01*
X0003014837Y0003549835D01*
X0003003050Y0003567473D01*
X0002985759Y0003579028D01*
X0003003050Y0003590583D01*
X0003014837Y0003608222D01*
X0003018976Y0003629028D01*
X0003014837Y0003649835D01*
X0003003050Y0003667473D01*
X0002992739Y0003674364D01*
X0003002911Y0003674364D01*
X0003008763Y0003675528D01*
X0003013725Y0003678843D01*
X0003017040Y0003683805D01*
X0003018205Y0003689658D01*
X0003018205Y0003768398D01*
X0003017040Y0003774251D01*
X0003013818Y0003779073D01*
X0003153549Y0003779073D01*
X0003153486Y0002659072D01*
X0003153486Y0002659072D01*
G37*
X0003153486Y0002659072D02*
X0002813549Y0002659072D01*
X0002813549Y0002806269D01*
X0002824030Y0002790583D01*
X0002841669Y0002778796D01*
X0002862475Y0002774658D01*
X0002864606Y0002774658D01*
X0002885412Y0002778796D01*
X0002903051Y0002790583D01*
X0002913540Y0002806281D01*
X0002924030Y0002790583D01*
X0002941669Y0002778796D01*
X0002962475Y0002774658D01*
X0002964606Y0002774658D01*
X0002985412Y0002778796D01*
X0003003050Y0002790583D01*
X0003014837Y0002808222D01*
X0003018976Y0002829028D01*
X0003014837Y0002849835D01*
X0003003050Y0002867473D01*
X0002985759Y0002879028D01*
X0003003050Y0002890583D01*
X0003014837Y0002908222D01*
X0003018976Y0002929028D01*
X0003014837Y0002949835D01*
X0003003050Y0002967473D01*
X0002985759Y0002979028D01*
X0003003050Y0002990583D01*
X0003014837Y0003008222D01*
X0003018976Y0003029028D01*
X0003014837Y0003049835D01*
X0003003050Y0003067473D01*
X0002985759Y0003079027D01*
X0003003050Y0003090583D01*
X0003014837Y0003108221D01*
X0003018976Y0003129028D01*
X0003014837Y0003149835D01*
X0003003050Y0003167473D01*
X0002985759Y0003179028D01*
X0003003050Y0003190583D01*
X0003014837Y0003208222D01*
X0003018976Y0003229028D01*
X0003014837Y0003249835D01*
X0003003050Y0003267473D01*
X0002985759Y0003279028D01*
X0003003050Y0003290583D01*
X0003014837Y0003308222D01*
X0003018976Y0003329028D01*
X0003014837Y0003349835D01*
X0003003050Y0003367473D01*
X0002985759Y0003379028D01*
X0003003050Y0003390583D01*
X0003014837Y0003408222D01*
X0003018976Y0003429027D01*
X0003014837Y0003449835D01*
X0003003050Y0003467473D01*
X0002985759Y0003479027D01*
X0003003050Y0003490583D01*
X0003014837Y0003508221D01*
X0003018976Y0003529027D01*
X0003014837Y0003549835D01*
X0003003050Y0003567473D01*
X0002985759Y0003579028D01*
X0003003050Y0003590583D01*
X0003014837Y0003608222D01*
X0003018976Y0003629028D01*
X0003014837Y0003649835D01*
X0003003050Y0003667473D01*
X0002992739Y0003674364D01*
X0003002911Y0003674364D01*
X0003008763Y0003675528D01*
X0003013725Y0003678843D01*
X0003017040Y0003683805D01*
X0003018205Y0003689658D01*
X0003018205Y0003768398D01*
X0003017040Y0003774251D01*
X0003013818Y0003779073D01*
X0003153549Y0003779073D01*
X0003153486Y0002659072D01*
G36*
X0002924030Y0002890583D02*
X0002941323Y0002879028D01*
X0002924030Y0002867473D01*
X0002913540Y0002851775D01*
X0002903051Y0002867473D01*
X0002885759Y0002879028D01*
X0002903051Y0002890583D01*
X0002913540Y0002906280D01*
X0002924030Y0002890583D01*
X0002924030Y0002890583D01*
G37*
X0002924030Y0002890583D02*
X0002941323Y0002879028D01*
X0002924030Y0002867473D01*
X0002913540Y0002851775D01*
X0002903051Y0002867473D01*
X0002885759Y0002879028D01*
X0002903051Y0002890583D01*
X0002913540Y0002906280D01*
X0002924030Y0002890583D01*
G36*
X0002824030Y0002890583D02*
X0002841323Y0002879028D01*
X0002824030Y0002867473D01*
X0002813549Y0002851787D01*
X0002813549Y0002906269D01*
X0002824030Y0002890583D01*
X0002824030Y0002890583D01*
G37*
X0002824030Y0002890583D02*
X0002841323Y0002879028D01*
X0002824030Y0002867473D01*
X0002813549Y0002851787D01*
X0002813549Y0002906269D01*
X0002824030Y0002890583D01*
G36*
X0002924030Y0002990583D02*
X0002941323Y0002979028D01*
X0002924030Y0002967473D01*
X0002913540Y0002951775D01*
X0002903051Y0002967473D01*
X0002885759Y0002979028D01*
X0002903051Y0002990583D01*
X0002913540Y0003006281D01*
X0002924030Y0002990583D01*
X0002924030Y0002990583D01*
G37*
X0002924030Y0002990583D02*
X0002941323Y0002979028D01*
X0002924030Y0002967473D01*
X0002913540Y0002951775D01*
X0002903051Y0002967473D01*
X0002885759Y0002979028D01*
X0002903051Y0002990583D01*
X0002913540Y0003006281D01*
X0002924030Y0002990583D01*
G36*
X0002824030Y0002990583D02*
X0002841323Y0002979028D01*
X0002824030Y0002967473D01*
X0002813549Y0002951786D01*
X0002813549Y0003006269D01*
X0002824030Y0002990583D01*
X0002824030Y0002990583D01*
G37*
X0002824030Y0002990583D02*
X0002841323Y0002979028D01*
X0002824030Y0002967473D01*
X0002813549Y0002951786D01*
X0002813549Y0003006269D01*
X0002824030Y0002990583D01*
G36*
X0002924030Y0003090583D02*
X0002941323Y0003079027D01*
X0002924030Y0003067473D01*
X0002913540Y0003051775D01*
X0002903051Y0003067473D01*
X0002885759Y0003079027D01*
X0002903051Y0003090583D01*
X0002913540Y0003106281D01*
X0002924030Y0003090583D01*
X0002924030Y0003090583D01*
G37*
X0002924030Y0003090583D02*
X0002941323Y0003079027D01*
X0002924030Y0003067473D01*
X0002913540Y0003051775D01*
X0002903051Y0003067473D01*
X0002885759Y0003079027D01*
X0002903051Y0003090583D01*
X0002913540Y0003106281D01*
X0002924030Y0003090583D01*
G36*
X0002824030Y0003090583D02*
X0002841323Y0003079027D01*
X0002824030Y0003067473D01*
X0002813549Y0003051787D01*
X0002813549Y0003106269D01*
X0002824030Y0003090583D01*
X0002824030Y0003090583D01*
G37*
X0002824030Y0003090583D02*
X0002841323Y0003079027D01*
X0002824030Y0003067473D01*
X0002813549Y0003051787D01*
X0002813549Y0003106269D01*
X0002824030Y0003090583D01*
G36*
X0002924030Y0003190583D02*
X0002941323Y0003179028D01*
X0002924030Y0003167473D01*
X0002913540Y0003151775D01*
X0002903051Y0003167473D01*
X0002885759Y0003179028D01*
X0002903051Y0003190583D01*
X0002913540Y0003206281D01*
X0002924030Y0003190583D01*
X0002924030Y0003190583D01*
G37*
X0002924030Y0003190583D02*
X0002941323Y0003179028D01*
X0002924030Y0003167473D01*
X0002913540Y0003151775D01*
X0002903051Y0003167473D01*
X0002885759Y0003179028D01*
X0002903051Y0003190583D01*
X0002913540Y0003206281D01*
X0002924030Y0003190583D01*
G36*
X0002824030Y0003190583D02*
X0002841323Y0003179028D01*
X0002824030Y0003167473D01*
X0002813549Y0003151787D01*
X0002813549Y0003206269D01*
X0002824030Y0003190583D01*
X0002824030Y0003190583D01*
G37*
X0002824030Y0003190583D02*
X0002841323Y0003179028D01*
X0002824030Y0003167473D01*
X0002813549Y0003151787D01*
X0002813549Y0003206269D01*
X0002824030Y0003190583D01*
G36*
X0002924030Y0003290583D02*
X0002941323Y0003279028D01*
X0002924030Y0003267473D01*
X0002913540Y0003251775D01*
X0002903051Y0003267473D01*
X0002885759Y0003279028D01*
X0002903051Y0003290583D01*
X0002913540Y0003306280D01*
X0002924030Y0003290583D01*
X0002924030Y0003290583D01*
G37*
X0002924030Y0003290583D02*
X0002941323Y0003279028D01*
X0002924030Y0003267473D01*
X0002913540Y0003251775D01*
X0002903051Y0003267473D01*
X0002885759Y0003279028D01*
X0002903051Y0003290583D01*
X0002913540Y0003306280D01*
X0002924030Y0003290583D01*
G36*
X0002824030Y0003290583D02*
X0002841323Y0003279028D01*
X0002824030Y0003267473D01*
X0002813549Y0003251787D01*
X0002813549Y0003306269D01*
X0002824030Y0003290583D01*
X0002824030Y0003290583D01*
G37*
X0002824030Y0003290583D02*
X0002841323Y0003279028D01*
X0002824030Y0003267473D01*
X0002813549Y0003251787D01*
X0002813549Y0003306269D01*
X0002824030Y0003290583D01*
G36*
X0002924030Y0003390583D02*
X0002941323Y0003379028D01*
X0002924030Y0003367473D01*
X0002913540Y0003351775D01*
X0002903051Y0003367473D01*
X0002885759Y0003379028D01*
X0002903051Y0003390583D01*
X0002913540Y0003406281D01*
X0002924030Y0003390583D01*
X0002924030Y0003390583D01*
G37*
X0002924030Y0003390583D02*
X0002941323Y0003379028D01*
X0002924030Y0003367473D01*
X0002913540Y0003351775D01*
X0002903051Y0003367473D01*
X0002885759Y0003379028D01*
X0002903051Y0003390583D01*
X0002913540Y0003406281D01*
X0002924030Y0003390583D01*
G36*
X0002824030Y0003390583D02*
X0002841323Y0003379028D01*
X0002824030Y0003367473D01*
X0002813549Y0003351786D01*
X0002813549Y0003406269D01*
X0002824030Y0003390583D01*
X0002824030Y0003390583D01*
G37*
X0002824030Y0003390583D02*
X0002841323Y0003379028D01*
X0002824030Y0003367473D01*
X0002813549Y0003351786D01*
X0002813549Y0003406269D01*
X0002824030Y0003390583D01*
G36*
X0002924030Y0003490583D02*
X0002941323Y0003479027D01*
X0002924030Y0003467473D01*
X0002913540Y0003451775D01*
X0002903051Y0003467473D01*
X0002885759Y0003479027D01*
X0002903051Y0003490583D01*
X0002913540Y0003506281D01*
X0002924030Y0003490583D01*
X0002924030Y0003490583D01*
G37*
X0002924030Y0003490583D02*
X0002941323Y0003479027D01*
X0002924030Y0003467473D01*
X0002913540Y0003451775D01*
X0002903051Y0003467473D01*
X0002885759Y0003479027D01*
X0002903051Y0003490583D01*
X0002913540Y0003506281D01*
X0002924030Y0003490583D01*
G36*
X0002824030Y0003490583D02*
X0002841323Y0003479027D01*
X0002824030Y0003467473D01*
X0002813549Y0003451787D01*
X0002813549Y0003506269D01*
X0002824030Y0003490583D01*
X0002824030Y0003490583D01*
G37*
X0002824030Y0003490583D02*
X0002841323Y0003479027D01*
X0002824030Y0003467473D01*
X0002813549Y0003451787D01*
X0002813549Y0003506269D01*
X0002824030Y0003490583D01*
G36*
X0002924030Y0003590583D02*
X0002941323Y0003579028D01*
X0002924030Y0003567473D01*
X0002913540Y0003551775D01*
X0002903051Y0003567473D01*
X0002885759Y0003579028D01*
X0002903051Y0003590583D01*
X0002913540Y0003606281D01*
X0002924030Y0003590583D01*
X0002924030Y0003590583D01*
G37*
X0002924030Y0003590583D02*
X0002941323Y0003579028D01*
X0002924030Y0003567473D01*
X0002913540Y0003551775D01*
X0002903051Y0003567473D01*
X0002885759Y0003579028D01*
X0002903051Y0003590583D01*
X0002913540Y0003606281D01*
X0002924030Y0003590583D01*
G36*
X0002824030Y0003590583D02*
X0002841323Y0003579028D01*
X0002824030Y0003567473D01*
X0002813549Y0003551787D01*
X0002813549Y0003606268D01*
X0002824030Y0003590583D01*
X0002824030Y0003590583D01*
G37*
X0002824030Y0003590583D02*
X0002841323Y0003579028D01*
X0002824030Y0003567473D01*
X0002813549Y0003551787D01*
X0002813549Y0003606268D01*
X0002824030Y0003590583D01*
G36*
X0002908877Y0003689658D02*
X0002910040Y0003683805D01*
X0002913355Y0003678843D01*
X0002918318Y0003675528D01*
X0002924171Y0003674364D01*
X0002934342Y0003674364D01*
X0002924030Y0003667473D01*
X0002913540Y0003651775D01*
X0002903051Y0003667473D01*
X0002885759Y0003679028D01*
X0002903051Y0003690583D01*
X0002908877Y0003699301D01*
X0002908877Y0003689658D01*
X0002908877Y0003689658D01*
G37*
X0002908877Y0003689658D02*
X0002910040Y0003683805D01*
X0002913355Y0003678843D01*
X0002918318Y0003675528D01*
X0002924171Y0003674364D01*
X0002934342Y0003674364D01*
X0002924030Y0003667473D01*
X0002913540Y0003651775D01*
X0002903051Y0003667473D01*
X0002885759Y0003679028D01*
X0002903051Y0003690583D01*
X0002908877Y0003699301D01*
X0002908877Y0003689658D01*
G36*
X0002824030Y0003690583D02*
X0002841323Y0003679028D01*
X0002824030Y0003667473D01*
X0002813549Y0003651787D01*
X0002813549Y0003706269D01*
X0002824030Y0003690583D01*
X0002824030Y0003690583D01*
G37*
X0002824030Y0003690583D02*
X0002841323Y0003679028D01*
X0002824030Y0003667473D01*
X0002813549Y0003651787D01*
X0002813549Y0003706269D01*
X0002824030Y0003690583D01*
G36*
X0002824030Y0003767473D02*
X0002813549Y0003751787D01*
X0002813549Y0003779073D01*
X0002841390Y0003779073D01*
X0002824030Y0003767473D01*
X0002824030Y0003767473D01*
G37*
X0002824030Y0003767473D02*
X0002813549Y0003751787D01*
X0002813549Y0003779073D01*
X0002841390Y0003779073D01*
X0002824030Y0003767473D01*
G36*
X0002910040Y0003774251D02*
X0002908877Y0003768398D01*
X0002908877Y0003758755D01*
X0002903051Y0003767473D01*
X0002885691Y0003779073D01*
X0002913263Y0003779073D01*
X0002910040Y0003774251D01*
X0002910040Y0003774251D01*
G37*
X0002910040Y0003774251D02*
X0002908877Y0003768398D01*
X0002908877Y0003758755D01*
X0002903051Y0003767473D01*
X0002885691Y0003779073D01*
X0002913263Y0003779073D01*
X0002910040Y0003774251D01*
G36*
X0003558801Y0002659072D02*
X0003218864Y0002659072D01*
X0003218864Y0002806269D01*
X0003229345Y0002790583D01*
X0003246984Y0002778796D01*
X0003267790Y0002774658D01*
X0003269920Y0002774658D01*
X0003290727Y0002778796D01*
X0003308366Y0002790583D01*
X0003318856Y0002806281D01*
X0003329345Y0002790583D01*
X0003346984Y0002778796D01*
X0003367789Y0002774658D01*
X0003369921Y0002774658D01*
X0003390727Y0002778796D01*
X0003408366Y0002790583D01*
X0003420152Y0002808222D01*
X0003424291Y0002829028D01*
X0003420152Y0002849835D01*
X0003408366Y0002867473D01*
X0003391074Y0002879028D01*
X0003408366Y0002890583D01*
X0003420152Y0002908222D01*
X0003424291Y0002929028D01*
X0003420152Y0002949835D01*
X0003408366Y0002967473D01*
X0003391074Y0002979028D01*
X0003408366Y0002990583D01*
X0003420152Y0003008222D01*
X0003424291Y0003029028D01*
X0003420152Y0003049835D01*
X0003408366Y0003067473D01*
X0003391074Y0003079027D01*
X0003408366Y0003090583D01*
X0003420152Y0003108221D01*
X0003424291Y0003129028D01*
X0003420152Y0003149835D01*
X0003408366Y0003167473D01*
X0003391074Y0003179028D01*
X0003408366Y0003190583D01*
X0003420152Y0003208222D01*
X0003424291Y0003229028D01*
X0003420152Y0003249835D01*
X0003408366Y0003267473D01*
X0003391074Y0003279028D01*
X0003408366Y0003290583D01*
X0003420152Y0003308222D01*
X0003424291Y0003329028D01*
X0003420152Y0003349835D01*
X0003408366Y0003367473D01*
X0003391074Y0003379028D01*
X0003408366Y0003390583D01*
X0003420152Y0003408222D01*
X0003424291Y0003429027D01*
X0003420152Y0003449835D01*
X0003408366Y0003467473D01*
X0003391074Y0003479027D01*
X0003408366Y0003490583D01*
X0003420152Y0003508221D01*
X0003424291Y0003529027D01*
X0003420152Y0003549835D01*
X0003408366Y0003567473D01*
X0003391074Y0003579028D01*
X0003408366Y0003590583D01*
X0003420152Y0003608222D01*
X0003424291Y0003629028D01*
X0003420152Y0003649835D01*
X0003408366Y0003667473D01*
X0003398054Y0003674364D01*
X0003408225Y0003674364D01*
X0003414078Y0003675528D01*
X0003419040Y0003678843D01*
X0003422354Y0003683805D01*
X0003423519Y0003689658D01*
X0003423519Y0003768398D01*
X0003422354Y0003774251D01*
X0003419133Y0003779073D01*
X0003558864Y0003779073D01*
X0003558801Y0002659072D01*
X0003558801Y0002659072D01*
G37*
X0003558801Y0002659072D02*
X0003218864Y0002659072D01*
X0003218864Y0002806269D01*
X0003229345Y0002790583D01*
X0003246984Y0002778796D01*
X0003267790Y0002774658D01*
X0003269920Y0002774658D01*
X0003290727Y0002778796D01*
X0003308366Y0002790583D01*
X0003318856Y0002806281D01*
X0003329345Y0002790583D01*
X0003346984Y0002778796D01*
X0003367789Y0002774658D01*
X0003369921Y0002774658D01*
X0003390727Y0002778796D01*
X0003408366Y0002790583D01*
X0003420152Y0002808222D01*
X0003424291Y0002829028D01*
X0003420152Y0002849835D01*
X0003408366Y0002867473D01*
X0003391074Y0002879028D01*
X0003408366Y0002890583D01*
X0003420152Y0002908222D01*
X0003424291Y0002929028D01*
X0003420152Y0002949835D01*
X0003408366Y0002967473D01*
X0003391074Y0002979028D01*
X0003408366Y0002990583D01*
X0003420152Y0003008222D01*
X0003424291Y0003029028D01*
X0003420152Y0003049835D01*
X0003408366Y0003067473D01*
X0003391074Y0003079027D01*
X0003408366Y0003090583D01*
X0003420152Y0003108221D01*
X0003424291Y0003129028D01*
X0003420152Y0003149835D01*
X0003408366Y0003167473D01*
X0003391074Y0003179028D01*
X0003408366Y0003190583D01*
X0003420152Y0003208222D01*
X0003424291Y0003229028D01*
X0003420152Y0003249835D01*
X0003408366Y0003267473D01*
X0003391074Y0003279028D01*
X0003408366Y0003290583D01*
X0003420152Y0003308222D01*
X0003424291Y0003329028D01*
X0003420152Y0003349835D01*
X0003408366Y0003367473D01*
X0003391074Y0003379028D01*
X0003408366Y0003390583D01*
X0003420152Y0003408222D01*
X0003424291Y0003429027D01*
X0003420152Y0003449835D01*
X0003408366Y0003467473D01*
X0003391074Y0003479027D01*
X0003408366Y0003490583D01*
X0003420152Y0003508221D01*
X0003424291Y0003529027D01*
X0003420152Y0003549835D01*
X0003408366Y0003567473D01*
X0003391074Y0003579028D01*
X0003408366Y0003590583D01*
X0003420152Y0003608222D01*
X0003424291Y0003629028D01*
X0003420152Y0003649835D01*
X0003408366Y0003667473D01*
X0003398054Y0003674364D01*
X0003408225Y0003674364D01*
X0003414078Y0003675528D01*
X0003419040Y0003678843D01*
X0003422354Y0003683805D01*
X0003423519Y0003689658D01*
X0003423519Y0003768398D01*
X0003422354Y0003774251D01*
X0003419133Y0003779073D01*
X0003558864Y0003779073D01*
X0003558801Y0002659072D01*
G36*
X0003329345Y0002890583D02*
X0003346638Y0002879028D01*
X0003329345Y0002867473D01*
X0003318856Y0002851775D01*
X0003308366Y0002867473D01*
X0003291074Y0002879028D01*
X0003308366Y0002890583D01*
X0003318856Y0002906280D01*
X0003329345Y0002890583D01*
X0003329345Y0002890583D01*
G37*
X0003329345Y0002890583D02*
X0003346638Y0002879028D01*
X0003329345Y0002867473D01*
X0003318856Y0002851775D01*
X0003308366Y0002867473D01*
X0003291074Y0002879028D01*
X0003308366Y0002890583D01*
X0003318856Y0002906280D01*
X0003329345Y0002890583D01*
G36*
X0003229345Y0002890583D02*
X0003246638Y0002879028D01*
X0003229345Y0002867473D01*
X0003218864Y0002851787D01*
X0003218864Y0002906269D01*
X0003229345Y0002890583D01*
X0003229345Y0002890583D01*
G37*
X0003229345Y0002890583D02*
X0003246638Y0002879028D01*
X0003229345Y0002867473D01*
X0003218864Y0002851787D01*
X0003218864Y0002906269D01*
X0003229345Y0002890583D01*
G36*
X0003329345Y0002990583D02*
X0003346638Y0002979028D01*
X0003329345Y0002967473D01*
X0003318856Y0002951775D01*
X0003308366Y0002967473D01*
X0003291074Y0002979028D01*
X0003308366Y0002990583D01*
X0003318856Y0003006281D01*
X0003329345Y0002990583D01*
X0003329345Y0002990583D01*
G37*
X0003329345Y0002990583D02*
X0003346638Y0002979028D01*
X0003329345Y0002967473D01*
X0003318856Y0002951775D01*
X0003308366Y0002967473D01*
X0003291074Y0002979028D01*
X0003308366Y0002990583D01*
X0003318856Y0003006281D01*
X0003329345Y0002990583D01*
G36*
X0003229345Y0002990583D02*
X0003246638Y0002979028D01*
X0003229345Y0002967473D01*
X0003218864Y0002951786D01*
X0003218864Y0003006269D01*
X0003229345Y0002990583D01*
X0003229345Y0002990583D01*
G37*
X0003229345Y0002990583D02*
X0003246638Y0002979028D01*
X0003229345Y0002967473D01*
X0003218864Y0002951786D01*
X0003218864Y0003006269D01*
X0003229345Y0002990583D01*
G36*
X0003329345Y0003090583D02*
X0003346638Y0003079027D01*
X0003329345Y0003067473D01*
X0003318856Y0003051775D01*
X0003308366Y0003067473D01*
X0003291074Y0003079027D01*
X0003308366Y0003090583D01*
X0003318856Y0003106281D01*
X0003329345Y0003090583D01*
X0003329345Y0003090583D01*
G37*
X0003329345Y0003090583D02*
X0003346638Y0003079027D01*
X0003329345Y0003067473D01*
X0003318856Y0003051775D01*
X0003308366Y0003067473D01*
X0003291074Y0003079027D01*
X0003308366Y0003090583D01*
X0003318856Y0003106281D01*
X0003329345Y0003090583D01*
G36*
X0003229345Y0003090583D02*
X0003246638Y0003079027D01*
X0003229345Y0003067473D01*
X0003218864Y0003051787D01*
X0003218864Y0003106269D01*
X0003229345Y0003090583D01*
X0003229345Y0003090583D01*
G37*
X0003229345Y0003090583D02*
X0003246638Y0003079027D01*
X0003229345Y0003067473D01*
X0003218864Y0003051787D01*
X0003218864Y0003106269D01*
X0003229345Y0003090583D01*
G36*
X0003329345Y0003190583D02*
X0003346638Y0003179028D01*
X0003329345Y0003167473D01*
X0003318856Y0003151775D01*
X0003308366Y0003167473D01*
X0003291074Y0003179028D01*
X0003308366Y0003190583D01*
X0003318856Y0003206281D01*
X0003329345Y0003190583D01*
X0003329345Y0003190583D01*
G37*
X0003329345Y0003190583D02*
X0003346638Y0003179028D01*
X0003329345Y0003167473D01*
X0003318856Y0003151775D01*
X0003308366Y0003167473D01*
X0003291074Y0003179028D01*
X0003308366Y0003190583D01*
X0003318856Y0003206281D01*
X0003329345Y0003190583D01*
G36*
X0003229345Y0003190583D02*
X0003246638Y0003179028D01*
X0003229345Y0003167473D01*
X0003218864Y0003151787D01*
X0003218864Y0003206269D01*
X0003229345Y0003190583D01*
X0003229345Y0003190583D01*
G37*
X0003229345Y0003190583D02*
X0003246638Y0003179028D01*
X0003229345Y0003167473D01*
X0003218864Y0003151787D01*
X0003218864Y0003206269D01*
X0003229345Y0003190583D01*
G36*
X0003329345Y0003290583D02*
X0003346638Y0003279028D01*
X0003329345Y0003267473D01*
X0003318856Y0003251775D01*
X0003308366Y0003267473D01*
X0003291074Y0003279028D01*
X0003308366Y0003290583D01*
X0003318856Y0003306280D01*
X0003329345Y0003290583D01*
X0003329345Y0003290583D01*
G37*
X0003329345Y0003290583D02*
X0003346638Y0003279028D01*
X0003329345Y0003267473D01*
X0003318856Y0003251775D01*
X0003308366Y0003267473D01*
X0003291074Y0003279028D01*
X0003308366Y0003290583D01*
X0003318856Y0003306280D01*
X0003329345Y0003290583D01*
G36*
X0003229345Y0003290583D02*
X0003246638Y0003279028D01*
X0003229345Y0003267473D01*
X0003218864Y0003251787D01*
X0003218864Y0003306269D01*
X0003229345Y0003290583D01*
X0003229345Y0003290583D01*
G37*
X0003229345Y0003290583D02*
X0003246638Y0003279028D01*
X0003229345Y0003267473D01*
X0003218864Y0003251787D01*
X0003218864Y0003306269D01*
X0003229345Y0003290583D01*
G36*
X0003329345Y0003390583D02*
X0003346638Y0003379028D01*
X0003329345Y0003367473D01*
X0003318856Y0003351775D01*
X0003308366Y0003367473D01*
X0003291074Y0003379028D01*
X0003308366Y0003390583D01*
X0003318856Y0003406281D01*
X0003329345Y0003390583D01*
X0003329345Y0003390583D01*
G37*
X0003329345Y0003390583D02*
X0003346638Y0003379028D01*
X0003329345Y0003367473D01*
X0003318856Y0003351775D01*
X0003308366Y0003367473D01*
X0003291074Y0003379028D01*
X0003308366Y0003390583D01*
X0003318856Y0003406281D01*
X0003329345Y0003390583D01*
G36*
X0003229345Y0003390583D02*
X0003246638Y0003379028D01*
X0003229345Y0003367473D01*
X0003218864Y0003351786D01*
X0003218864Y0003406269D01*
X0003229345Y0003390583D01*
X0003229345Y0003390583D01*
G37*
X0003229345Y0003390583D02*
X0003246638Y0003379028D01*
X0003229345Y0003367473D01*
X0003218864Y0003351786D01*
X0003218864Y0003406269D01*
X0003229345Y0003390583D01*
G36*
X0003329345Y0003490583D02*
X0003346638Y0003479027D01*
X0003329345Y0003467473D01*
X0003318856Y0003451775D01*
X0003308366Y0003467473D01*
X0003291074Y0003479027D01*
X0003308366Y0003490583D01*
X0003318856Y0003506281D01*
X0003329345Y0003490583D01*
X0003329345Y0003490583D01*
G37*
X0003329345Y0003490583D02*
X0003346638Y0003479027D01*
X0003329345Y0003467473D01*
X0003318856Y0003451775D01*
X0003308366Y0003467473D01*
X0003291074Y0003479027D01*
X0003308366Y0003490583D01*
X0003318856Y0003506281D01*
X0003329345Y0003490583D01*
G36*
X0003229345Y0003490583D02*
X0003246638Y0003479027D01*
X0003229345Y0003467473D01*
X0003218864Y0003451787D01*
X0003218864Y0003506269D01*
X0003229345Y0003490583D01*
X0003229345Y0003490583D01*
G37*
X0003229345Y0003490583D02*
X0003246638Y0003479027D01*
X0003229345Y0003467473D01*
X0003218864Y0003451787D01*
X0003218864Y0003506269D01*
X0003229345Y0003490583D01*
G36*
X0003329345Y0003590583D02*
X0003346638Y0003579028D01*
X0003329345Y0003567473D01*
X0003318856Y0003551775D01*
X0003308366Y0003567473D01*
X0003291074Y0003579028D01*
X0003308366Y0003590583D01*
X0003318856Y0003606281D01*
X0003329345Y0003590583D01*
X0003329345Y0003590583D01*
G37*
X0003329345Y0003590583D02*
X0003346638Y0003579028D01*
X0003329345Y0003567473D01*
X0003318856Y0003551775D01*
X0003308366Y0003567473D01*
X0003291074Y0003579028D01*
X0003308366Y0003590583D01*
X0003318856Y0003606281D01*
X0003329345Y0003590583D01*
G36*
X0003229345Y0003590583D02*
X0003246638Y0003579028D01*
X0003229345Y0003567473D01*
X0003218864Y0003551787D01*
X0003218864Y0003606268D01*
X0003229345Y0003590583D01*
X0003229345Y0003590583D01*
G37*
X0003229345Y0003590583D02*
X0003246638Y0003579028D01*
X0003229345Y0003567473D01*
X0003218864Y0003551787D01*
X0003218864Y0003606268D01*
X0003229345Y0003590583D01*
G36*
X0003314192Y0003689658D02*
X0003315356Y0003683805D01*
X0003318671Y0003678843D01*
X0003323633Y0003675528D01*
X0003329485Y0003674364D01*
X0003339657Y0003674364D01*
X0003329345Y0003667473D01*
X0003318856Y0003651775D01*
X0003308366Y0003667473D01*
X0003291074Y0003679028D01*
X0003308366Y0003690583D01*
X0003314192Y0003699301D01*
X0003314192Y0003689658D01*
X0003314192Y0003689658D01*
G37*
X0003314192Y0003689658D02*
X0003315356Y0003683805D01*
X0003318671Y0003678843D01*
X0003323633Y0003675528D01*
X0003329485Y0003674364D01*
X0003339657Y0003674364D01*
X0003329345Y0003667473D01*
X0003318856Y0003651775D01*
X0003308366Y0003667473D01*
X0003291074Y0003679028D01*
X0003308366Y0003690583D01*
X0003314192Y0003699301D01*
X0003314192Y0003689658D01*
G36*
X0003229345Y0003690583D02*
X0003246638Y0003679028D01*
X0003229345Y0003667473D01*
X0003218864Y0003651787D01*
X0003218864Y0003706269D01*
X0003229345Y0003690583D01*
X0003229345Y0003690583D01*
G37*
X0003229345Y0003690583D02*
X0003246638Y0003679028D01*
X0003229345Y0003667473D01*
X0003218864Y0003651787D01*
X0003218864Y0003706269D01*
X0003229345Y0003690583D01*
G36*
X0003229345Y0003767473D02*
X0003218864Y0003751787D01*
X0003218864Y0003779073D01*
X0003246705Y0003779073D01*
X0003229345Y0003767473D01*
X0003229345Y0003767473D01*
G37*
X0003229345Y0003767473D02*
X0003218864Y0003751787D01*
X0003218864Y0003779073D01*
X0003246705Y0003779073D01*
X0003229345Y0003767473D01*
G36*
X0003315356Y0003774251D02*
X0003314192Y0003768398D01*
X0003314192Y0003758755D01*
X0003308366Y0003767473D01*
X0003291006Y0003779073D01*
X0003318578Y0003779073D01*
X0003315356Y0003774251D01*
X0003315356Y0003774251D01*
G37*
X0003315356Y0003774251D02*
X0003314192Y0003768398D01*
X0003314192Y0003758755D01*
X0003308366Y0003767473D01*
X0003291006Y0003779073D01*
X0003318578Y0003779073D01*
X0003315356Y0003774251D01*
G04 next file*
G04 #@! TF.FileFunction,Copper,L2,Bot,Signal*
G04 Gerber Fmt 4.6, Leading zero omitted, Abs format (unit mm)*
G04 Created by KiCad (PCBNEW (2016-10-28 revision 192d4b8)-makepkg) date 11/16/16 20:27:21*
G01G01G01G01*
G04 APERTURE LIST*
G04 APERTURE END LIST*
D42*
D43*
X0000551181Y0001968503D02*
X0001659160Y0003268856D03*
X0001659160Y0003368856D03*
X0001559159Y0003268856D03*
X0001559159Y0003368856D03*
X0001459160Y0003268856D03*
X0001459160Y0003368856D03*
X0001359160Y0003268856D03*
X0001359160Y0003368856D03*
X0001259160Y0003268856D03*
X0001259160Y0003368856D03*
X0001159160Y0003268856D03*
X0001159160Y0003368856D03*
X0001059160Y0003268856D03*
X0001059160Y0003368856D03*
X0000959160Y0003268856D03*
X0000959160Y0003368856D03*
X0000859160Y0003268856D03*
X0000859160Y0003368856D03*
X0000759160Y0003268856D03*
D44*
X0000759160Y0003368856D03*
X0000759160Y0002963541D03*
D43*
X0000759160Y0002863540D03*
X0000859160Y0002963541D03*
X0000859160Y0002863540D03*
X0000959160Y0002963541D03*
X0000959160Y0002863540D03*
X0001059160Y0002963541D03*
X0001059160Y0002863540D03*
X0001159160Y0002963541D03*
X0001159160Y0002863540D03*
X0001259160Y0002963541D03*
X0001259160Y0002863540D03*
X0001359160Y0002963541D03*
X0001359160Y0002863540D03*
X0001459160Y0002963541D03*
X0001459160Y0002863540D03*
X0001559159Y0002963541D03*
X0001559159Y0002863540D03*
X0001659160Y0002963541D03*
X0001659160Y0002863540D03*
D44*
X0000759160Y0002558226D03*
D43*
X0000759160Y0002458226D03*
X0000859160Y0002558226D03*
X0000859160Y0002458226D03*
X0000959160Y0002558226D03*
X0000959160Y0002458226D03*
X0001059160Y0002558226D03*
X0001059160Y0002458226D03*
X0001159160Y0002558226D03*
X0001159160Y0002458226D03*
X0001259160Y0002558226D03*
X0001259160Y0002458226D03*
X0001359160Y0002558226D03*
X0001359160Y0002458226D03*
X0001459160Y0002558226D03*
X0001459160Y0002458226D03*
X0001559159Y0002558226D03*
X0001559159Y0002458226D03*
X0001659160Y0002558226D03*
X0001659160Y0002458226D03*
D44*
X0000759160Y0002152911D03*
D43*
X0000759160Y0002052911D03*
X0000859160Y0002152911D03*
X0000859160Y0002052911D03*
X0000959160Y0002152911D03*
X0000959160Y0002052911D03*
X0001059160Y0002152911D03*
X0001059160Y0002052911D03*
X0001159160Y0002152911D03*
X0001159160Y0002052911D03*
X0001259160Y0002152911D03*
X0001259160Y0002052911D03*
X0001359160Y0002152911D03*
X0001359160Y0002052911D03*
X0001459160Y0002152911D03*
X0001459160Y0002052911D03*
X0001559159Y0002152911D03*
X0001559159Y0002052911D03*
X0001659160Y0002152911D03*
X0001659160Y0002052911D03*
D45*
X0001235826Y0003641732D03*
D46*
X0001135826Y0003641732D03*
X0001136220Y0003770866D03*
D45*
X0001236220Y0003770866D03*
X0001236220Y0003885433D03*
D46*
X0001136220Y0003885433D03*
D47*
G36*
X0001829114Y0002342856D02*
X0001829114Y0002002919D01*
X0001681919Y0002002919D01*
X0001697605Y0002013399D01*
X0001709391Y0002031038D01*
X0001713529Y0002051845D01*
X0001713529Y0002053976D01*
X0001709391Y0002074782D01*
X0001697605Y0002092420D01*
X0001681907Y0002102911D01*
X0001697605Y0002113400D01*
X0001709391Y0002131039D01*
X0001713529Y0002151846D01*
X0001713529Y0002153976D01*
X0001709391Y0002174782D01*
X0001697605Y0002192421D01*
X0001679966Y0002204207D01*
X0001659160Y0002208346D01*
X0001638353Y0002204207D01*
X0001620715Y0002192421D01*
X0001609160Y0002175129D01*
X0001597605Y0002192421D01*
X0001579966Y0002204207D01*
X0001559159Y0002208346D01*
X0001538353Y0002204207D01*
X0001520714Y0002192421D01*
X0001509160Y0002175129D01*
X0001497605Y0002192421D01*
X0001479966Y0002204207D01*
X0001459160Y0002208346D01*
X0001438352Y0002204207D01*
X0001420715Y0002192421D01*
X0001409160Y0002175129D01*
X0001397605Y0002192421D01*
X0001379966Y0002204207D01*
X0001359160Y0002208346D01*
X0001338353Y0002204207D01*
X0001320714Y0002192421D01*
X0001309160Y0002175129D01*
X0001297605Y0002192421D01*
X0001279966Y0002204207D01*
X0001259160Y0002208346D01*
X0001238353Y0002204207D01*
X0001220715Y0002192421D01*
X0001209160Y0002175129D01*
X0001197605Y0002192421D01*
X0001179966Y0002204207D01*
X0001159160Y0002208346D01*
X0001138353Y0002204207D01*
X0001120715Y0002192421D01*
X0001109160Y0002175129D01*
X0001097605Y0002192421D01*
X0001079966Y0002204207D01*
X0001059160Y0002208346D01*
X0001038353Y0002204207D01*
X0001020715Y0002192421D01*
X0001009160Y0002175129D01*
X0000997604Y0002192421D01*
X0000979965Y0002204207D01*
X0000959160Y0002208346D01*
X0000938353Y0002204207D01*
X0000920715Y0002192421D01*
X0000909160Y0002175129D01*
X0000897605Y0002192421D01*
X0000879965Y0002204207D01*
X0000859160Y0002208346D01*
X0000838353Y0002204207D01*
X0000820715Y0002192421D01*
X0000813823Y0002182109D01*
X0000813823Y0002192281D01*
X0000812660Y0002198133D01*
X0000809344Y0002203095D01*
X0000804383Y0002206410D01*
X0000798530Y0002207575D01*
X0000719790Y0002207575D01*
X0000713937Y0002206410D01*
X0000709115Y0002203188D01*
X0000709115Y0002342919D01*
X0001829114Y0002342856D01*
X0001829114Y0002342856D01*
G37*
X0001829114Y0002342856D02*
X0001829114Y0002002919D01*
X0001681919Y0002002919D01*
X0001697605Y0002013399D01*
X0001709391Y0002031038D01*
X0001713529Y0002051845D01*
X0001713529Y0002053976D01*
X0001709391Y0002074782D01*
X0001697605Y0002092420D01*
X0001681907Y0002102911D01*
X0001697605Y0002113400D01*
X0001709391Y0002131039D01*
X0001713529Y0002151846D01*
X0001713529Y0002153976D01*
X0001709391Y0002174782D01*
X0001697605Y0002192421D01*
X0001679966Y0002204207D01*
X0001659160Y0002208346D01*
X0001638353Y0002204207D01*
X0001620715Y0002192421D01*
X0001609160Y0002175129D01*
X0001597605Y0002192421D01*
X0001579966Y0002204207D01*
X0001559159Y0002208346D01*
X0001538353Y0002204207D01*
X0001520714Y0002192421D01*
X0001509160Y0002175129D01*
X0001497605Y0002192421D01*
X0001479966Y0002204207D01*
X0001459160Y0002208346D01*
X0001438352Y0002204207D01*
X0001420715Y0002192421D01*
X0001409160Y0002175129D01*
X0001397605Y0002192421D01*
X0001379966Y0002204207D01*
X0001359160Y0002208346D01*
X0001338353Y0002204207D01*
X0001320714Y0002192421D01*
X0001309160Y0002175129D01*
X0001297605Y0002192421D01*
X0001279966Y0002204207D01*
X0001259160Y0002208346D01*
X0001238353Y0002204207D01*
X0001220715Y0002192421D01*
X0001209160Y0002175129D01*
X0001197605Y0002192421D01*
X0001179966Y0002204207D01*
X0001159160Y0002208346D01*
X0001138353Y0002204207D01*
X0001120715Y0002192421D01*
X0001109160Y0002175129D01*
X0001097605Y0002192421D01*
X0001079966Y0002204207D01*
X0001059160Y0002208346D01*
X0001038353Y0002204207D01*
X0001020715Y0002192421D01*
X0001009160Y0002175129D01*
X0000997604Y0002192421D01*
X0000979965Y0002204207D01*
X0000959160Y0002208346D01*
X0000938353Y0002204207D01*
X0000920715Y0002192421D01*
X0000909160Y0002175129D01*
X0000897605Y0002192421D01*
X0000879965Y0002204207D01*
X0000859160Y0002208346D01*
X0000838353Y0002204207D01*
X0000820715Y0002192421D01*
X0000813823Y0002182109D01*
X0000813823Y0002192281D01*
X0000812660Y0002198133D01*
X0000809344Y0002203095D01*
X0000804383Y0002206410D01*
X0000798530Y0002207575D01*
X0000719790Y0002207575D01*
X0000713937Y0002206410D01*
X0000709115Y0002203188D01*
X0000709115Y0002342919D01*
X0001829114Y0002342856D01*
G36*
X0001597605Y0002113400D02*
X0001609160Y0002130693D01*
X0001620715Y0002113400D01*
X0001636413Y0002102911D01*
X0001620715Y0002092420D01*
X0001609160Y0002075129D01*
X0001597605Y0002092420D01*
X0001581907Y0002102911D01*
X0001597605Y0002113400D01*
X0001597605Y0002113400D01*
G37*
X0001597605Y0002113400D02*
X0001609160Y0002130693D01*
X0001620715Y0002113400D01*
X0001636413Y0002102911D01*
X0001620715Y0002092420D01*
X0001609160Y0002075129D01*
X0001597605Y0002092420D01*
X0001581907Y0002102911D01*
X0001597605Y0002113400D01*
G36*
X0001597605Y0002013399D02*
X0001609160Y0002030692D01*
X0001620715Y0002013399D01*
X0001636401Y0002002919D01*
X0001581919Y0002002919D01*
X0001597605Y0002013399D01*
X0001597605Y0002013399D01*
G37*
X0001597605Y0002013399D02*
X0001609160Y0002030692D01*
X0001620715Y0002013399D01*
X0001636401Y0002002919D01*
X0001581919Y0002002919D01*
X0001597605Y0002013399D01*
G36*
X0001497605Y0002113400D02*
X0001509160Y0002130693D01*
X0001520714Y0002113400D01*
X0001536413Y0002102911D01*
X0001520714Y0002092420D01*
X0001509160Y0002075129D01*
X0001497605Y0002092420D01*
X0001481907Y0002102911D01*
X0001497605Y0002113400D01*
X0001497605Y0002113400D01*
G37*
X0001497605Y0002113400D02*
X0001509160Y0002130693D01*
X0001520714Y0002113400D01*
X0001536413Y0002102911D01*
X0001520714Y0002092420D01*
X0001509160Y0002075129D01*
X0001497605Y0002092420D01*
X0001481907Y0002102911D01*
X0001497605Y0002113400D01*
G36*
X0001497605Y0002013399D02*
X0001509160Y0002030692D01*
X0001520714Y0002013399D01*
X0001536400Y0002002919D01*
X0001481919Y0002002919D01*
X0001497605Y0002013399D01*
X0001497605Y0002013399D01*
G37*
X0001497605Y0002013399D02*
X0001509160Y0002030692D01*
X0001520714Y0002013399D01*
X0001536400Y0002002919D01*
X0001481919Y0002002919D01*
X0001497605Y0002013399D01*
G36*
X0001397605Y0002113400D02*
X0001409160Y0002130693D01*
X0001420715Y0002113400D01*
X0001436413Y0002102911D01*
X0001420715Y0002092420D01*
X0001409160Y0002075129D01*
X0001397605Y0002092420D01*
X0001381906Y0002102911D01*
X0001397605Y0002113400D01*
X0001397605Y0002113400D01*
G37*
X0001397605Y0002113400D02*
X0001409160Y0002130693D01*
X0001420715Y0002113400D01*
X0001436413Y0002102911D01*
X0001420715Y0002092420D01*
X0001409160Y0002075129D01*
X0001397605Y0002092420D01*
X0001381906Y0002102911D01*
X0001397605Y0002113400D01*
G36*
X0001397605Y0002013399D02*
X0001409160Y0002030692D01*
X0001420715Y0002013399D01*
X0001436401Y0002002919D01*
X0001381919Y0002002919D01*
X0001397605Y0002013399D01*
X0001397605Y0002013399D01*
G37*
X0001397605Y0002013399D02*
X0001409160Y0002030692D01*
X0001420715Y0002013399D01*
X0001436401Y0002002919D01*
X0001381919Y0002002919D01*
X0001397605Y0002013399D01*
G36*
X0001297605Y0002113400D02*
X0001309160Y0002130693D01*
X0001320714Y0002113400D01*
X0001336413Y0002102911D01*
X0001320714Y0002092420D01*
X0001309160Y0002075129D01*
X0001297605Y0002092420D01*
X0001281907Y0002102911D01*
X0001297605Y0002113400D01*
X0001297605Y0002113400D01*
G37*
X0001297605Y0002113400D02*
X0001309160Y0002130693D01*
X0001320714Y0002113400D01*
X0001336413Y0002102911D01*
X0001320714Y0002092420D01*
X0001309160Y0002075129D01*
X0001297605Y0002092420D01*
X0001281907Y0002102911D01*
X0001297605Y0002113400D01*
G36*
X0001297605Y0002013399D02*
X0001309160Y0002030692D01*
X0001320714Y0002013399D01*
X0001336401Y0002002919D01*
X0001281919Y0002002919D01*
X0001297605Y0002013399D01*
X0001297605Y0002013399D01*
G37*
X0001297605Y0002013399D02*
X0001309160Y0002030692D01*
X0001320714Y0002013399D01*
X0001336401Y0002002919D01*
X0001281919Y0002002919D01*
X0001297605Y0002013399D01*
G36*
X0001197605Y0002113400D02*
X0001209160Y0002130693D01*
X0001220715Y0002113400D01*
X0001236413Y0002102911D01*
X0001220715Y0002092420D01*
X0001209160Y0002075129D01*
X0001197605Y0002092420D01*
X0001181907Y0002102911D01*
X0001197605Y0002113400D01*
X0001197605Y0002113400D01*
G37*
X0001197605Y0002113400D02*
X0001209160Y0002130693D01*
X0001220715Y0002113400D01*
X0001236413Y0002102911D01*
X0001220715Y0002092420D01*
X0001209160Y0002075129D01*
X0001197605Y0002092420D01*
X0001181907Y0002102911D01*
X0001197605Y0002113400D01*
G36*
X0001197605Y0002013399D02*
X0001209160Y0002030692D01*
X0001220715Y0002013399D01*
X0001236401Y0002002919D01*
X0001181919Y0002002919D01*
X0001197605Y0002013399D01*
X0001197605Y0002013399D01*
G37*
X0001197605Y0002013399D02*
X0001209160Y0002030692D01*
X0001220715Y0002013399D01*
X0001236401Y0002002919D01*
X0001181919Y0002002919D01*
X0001197605Y0002013399D01*
G36*
X0001097605Y0002113400D02*
X0001109160Y0002130693D01*
X0001120715Y0002113400D01*
X0001136413Y0002102911D01*
X0001120715Y0002092420D01*
X0001109160Y0002075129D01*
X0001097605Y0002092420D01*
X0001081907Y0002102911D01*
X0001097605Y0002113400D01*
X0001097605Y0002113400D01*
G37*
X0001097605Y0002113400D02*
X0001109160Y0002130693D01*
X0001120715Y0002113400D01*
X0001136413Y0002102911D01*
X0001120715Y0002092420D01*
X0001109160Y0002075129D01*
X0001097605Y0002092420D01*
X0001081907Y0002102911D01*
X0001097605Y0002113400D01*
G36*
X0001097605Y0002013399D02*
X0001109160Y0002030692D01*
X0001120715Y0002013399D01*
X0001136401Y0002002919D01*
X0001081919Y0002002919D01*
X0001097605Y0002013399D01*
X0001097605Y0002013399D01*
G37*
X0001097605Y0002013399D02*
X0001109160Y0002030692D01*
X0001120715Y0002013399D01*
X0001136401Y0002002919D01*
X0001081919Y0002002919D01*
X0001097605Y0002013399D01*
G36*
X0000997604Y0002113400D02*
X0001009160Y0002130693D01*
X0001020715Y0002113400D01*
X0001036413Y0002102911D01*
X0001020715Y0002092420D01*
X0001009160Y0002075129D01*
X0000997604Y0002092420D01*
X0000981907Y0002102911D01*
X0000997604Y0002113400D01*
X0000997604Y0002113400D01*
G37*
X0000997604Y0002113400D02*
X0001009160Y0002130693D01*
X0001020715Y0002113400D01*
X0001036413Y0002102911D01*
X0001020715Y0002092420D01*
X0001009160Y0002075129D01*
X0000997604Y0002092420D01*
X0000981907Y0002102911D01*
X0000997604Y0002113400D01*
G36*
X0000997604Y0002013399D02*
X0001009160Y0002030692D01*
X0001020715Y0002013399D01*
X0001036400Y0002002919D01*
X0000981918Y0002002919D01*
X0000997604Y0002013399D01*
X0000997604Y0002013399D01*
G37*
X0000997604Y0002013399D02*
X0001009160Y0002030692D01*
X0001020715Y0002013399D01*
X0001036400Y0002002919D01*
X0000981918Y0002002919D01*
X0000997604Y0002013399D01*
G36*
X0000897605Y0002113400D02*
X0000909160Y0002130693D01*
X0000920715Y0002113400D01*
X0000936413Y0002102911D01*
X0000920715Y0002092420D01*
X0000909160Y0002075129D01*
X0000897605Y0002092420D01*
X0000881907Y0002102911D01*
X0000897605Y0002113400D01*
X0000897605Y0002113400D01*
G37*
X0000897605Y0002113400D02*
X0000909160Y0002130693D01*
X0000920715Y0002113400D01*
X0000936413Y0002102911D01*
X0000920715Y0002092420D01*
X0000909160Y0002075129D01*
X0000897605Y0002092420D01*
X0000881907Y0002102911D01*
X0000897605Y0002113400D01*
G36*
X0000897605Y0002013399D02*
X0000909160Y0002030692D01*
X0000920715Y0002013399D01*
X0000936401Y0002002919D01*
X0000881918Y0002002919D01*
X0000897605Y0002013399D01*
X0000897605Y0002013399D01*
G37*
X0000897605Y0002013399D02*
X0000909160Y0002030692D01*
X0000920715Y0002013399D01*
X0000936401Y0002002919D01*
X0000881918Y0002002919D01*
X0000897605Y0002013399D01*
G36*
X0000798530Y0002098247D02*
X0000804383Y0002099411D01*
X0000809344Y0002102726D01*
X0000812660Y0002107688D01*
X0000813823Y0002113541D01*
X0000813823Y0002123713D01*
X0000820715Y0002113400D01*
X0000836413Y0002102911D01*
X0000820715Y0002092420D01*
X0000809160Y0002075129D01*
X0000797605Y0002092420D01*
X0000788886Y0002098247D01*
X0000798530Y0002098247D01*
X0000798530Y0002098247D01*
G37*
X0000798530Y0002098247D02*
X0000804383Y0002099411D01*
X0000809344Y0002102726D01*
X0000812660Y0002107688D01*
X0000813823Y0002113541D01*
X0000813823Y0002123713D01*
X0000820715Y0002113400D01*
X0000836413Y0002102911D01*
X0000820715Y0002092420D01*
X0000809160Y0002075129D01*
X0000797605Y0002092420D01*
X0000788886Y0002098247D01*
X0000798530Y0002098247D01*
G36*
X0000797605Y0002013399D02*
X0000809160Y0002030692D01*
X0000820715Y0002013399D01*
X0000836401Y0002002919D01*
X0000781918Y0002002919D01*
X0000797605Y0002013399D01*
X0000797605Y0002013399D01*
G37*
X0000797605Y0002013399D02*
X0000809160Y0002030692D01*
X0000820715Y0002013399D01*
X0000836401Y0002002919D01*
X0000781918Y0002002919D01*
X0000797605Y0002013399D01*
G36*
X0000720715Y0002013399D02*
X0000736401Y0002002919D01*
X0000709115Y0002002919D01*
X0000709115Y0002030760D01*
X0000720715Y0002013399D01*
X0000720715Y0002013399D01*
G37*
X0000720715Y0002013399D02*
X0000736401Y0002002919D01*
X0000709115Y0002002919D01*
X0000709115Y0002030760D01*
X0000720715Y0002013399D01*
G36*
X0000713937Y0002099411D02*
X0000719790Y0002098247D01*
X0000729433Y0002098247D01*
X0000720715Y0002092420D01*
X0000709115Y0002075062D01*
X0000709115Y0002102633D01*
X0000713937Y0002099411D01*
X0000713937Y0002099411D01*
G37*
X0000713937Y0002099411D02*
X0000719790Y0002098247D01*
X0000729433Y0002098247D01*
X0000720715Y0002092420D01*
X0000709115Y0002075062D01*
X0000709115Y0002102633D01*
X0000713937Y0002099411D01*
G36*
X0001829114Y0002748171D02*
X0001829114Y0002408234D01*
X0001681919Y0002408234D01*
X0001697605Y0002418715D01*
X0001709391Y0002436354D01*
X0001713529Y0002457160D01*
X0001713529Y0002459291D01*
X0001709391Y0002480097D01*
X0001697605Y0002497736D01*
X0001681907Y0002508226D01*
X0001697605Y0002518715D01*
X0001709391Y0002536354D01*
X0001713529Y0002557160D01*
X0001713529Y0002559291D01*
X0001709391Y0002580097D01*
X0001697605Y0002597736D01*
X0001679966Y0002609522D01*
X0001659160Y0002613660D01*
X0001638353Y0002609522D01*
X0001620715Y0002597736D01*
X0001609160Y0002580444D01*
X0001597605Y0002597736D01*
X0001579966Y0002609522D01*
X0001559159Y0002613660D01*
X0001538353Y0002609522D01*
X0001520714Y0002597736D01*
X0001509160Y0002580444D01*
X0001497605Y0002597736D01*
X0001479966Y0002609522D01*
X0001459160Y0002613660D01*
X0001438352Y0002609522D01*
X0001420715Y0002597736D01*
X0001409160Y0002580444D01*
X0001397605Y0002597736D01*
X0001379966Y0002609522D01*
X0001359160Y0002613660D01*
X0001338353Y0002609522D01*
X0001320714Y0002597736D01*
X0001309160Y0002580444D01*
X0001297605Y0002597736D01*
X0001279966Y0002609522D01*
X0001259160Y0002613660D01*
X0001238353Y0002609522D01*
X0001220715Y0002597736D01*
X0001209160Y0002580444D01*
X0001197605Y0002597736D01*
X0001179966Y0002609522D01*
X0001159160Y0002613660D01*
X0001138353Y0002609522D01*
X0001120715Y0002597736D01*
X0001109160Y0002580444D01*
X0001097605Y0002597736D01*
X0001079966Y0002609522D01*
X0001059160Y0002613660D01*
X0001038353Y0002609522D01*
X0001020715Y0002597736D01*
X0001009160Y0002580444D01*
X0000997604Y0002597736D01*
X0000979965Y0002609522D01*
X0000959160Y0002613660D01*
X0000938353Y0002609522D01*
X0000920715Y0002597736D01*
X0000909160Y0002580444D01*
X0000897605Y0002597736D01*
X0000879965Y0002609522D01*
X0000859160Y0002613660D01*
X0000838353Y0002609522D01*
X0000820715Y0002597736D01*
X0000813823Y0002587424D01*
X0000813823Y0002597596D01*
X0000812660Y0002603448D01*
X0000809344Y0002608410D01*
X0000804383Y0002611725D01*
X0000798530Y0002612890D01*
X0000719790Y0002612890D01*
X0000713937Y0002611725D01*
X0000709115Y0002608503D01*
X0000709115Y0002748234D01*
X0001829114Y0002748171D01*
X0001829114Y0002748171D01*
G37*
X0001829114Y0002748171D02*
X0001829114Y0002408234D01*
X0001681919Y0002408234D01*
X0001697605Y0002418715D01*
X0001709391Y0002436354D01*
X0001713529Y0002457160D01*
X0001713529Y0002459291D01*
X0001709391Y0002480097D01*
X0001697605Y0002497736D01*
X0001681907Y0002508226D01*
X0001697605Y0002518715D01*
X0001709391Y0002536354D01*
X0001713529Y0002557160D01*
X0001713529Y0002559291D01*
X0001709391Y0002580097D01*
X0001697605Y0002597736D01*
X0001679966Y0002609522D01*
X0001659160Y0002613660D01*
X0001638353Y0002609522D01*
X0001620715Y0002597736D01*
X0001609160Y0002580444D01*
X0001597605Y0002597736D01*
X0001579966Y0002609522D01*
X0001559159Y0002613660D01*
X0001538353Y0002609522D01*
X0001520714Y0002597736D01*
X0001509160Y0002580444D01*
X0001497605Y0002597736D01*
X0001479966Y0002609522D01*
X0001459160Y0002613660D01*
X0001438352Y0002609522D01*
X0001420715Y0002597736D01*
X0001409160Y0002580444D01*
X0001397605Y0002597736D01*
X0001379966Y0002609522D01*
X0001359160Y0002613660D01*
X0001338353Y0002609522D01*
X0001320714Y0002597736D01*
X0001309160Y0002580444D01*
X0001297605Y0002597736D01*
X0001279966Y0002609522D01*
X0001259160Y0002613660D01*
X0001238353Y0002609522D01*
X0001220715Y0002597736D01*
X0001209160Y0002580444D01*
X0001197605Y0002597736D01*
X0001179966Y0002609522D01*
X0001159160Y0002613660D01*
X0001138353Y0002609522D01*
X0001120715Y0002597736D01*
X0001109160Y0002580444D01*
X0001097605Y0002597736D01*
X0001079966Y0002609522D01*
X0001059160Y0002613660D01*
X0001038353Y0002609522D01*
X0001020715Y0002597736D01*
X0001009160Y0002580444D01*
X0000997604Y0002597736D01*
X0000979965Y0002609522D01*
X0000959160Y0002613660D01*
X0000938353Y0002609522D01*
X0000920715Y0002597736D01*
X0000909160Y0002580444D01*
X0000897605Y0002597736D01*
X0000879965Y0002609522D01*
X0000859160Y0002613660D01*
X0000838353Y0002609522D01*
X0000820715Y0002597736D01*
X0000813823Y0002587424D01*
X0000813823Y0002597596D01*
X0000812660Y0002603448D01*
X0000809344Y0002608410D01*
X0000804383Y0002611725D01*
X0000798530Y0002612890D01*
X0000719790Y0002612890D01*
X0000713937Y0002611725D01*
X0000709115Y0002608503D01*
X0000709115Y0002748234D01*
X0001829114Y0002748171D01*
G36*
X0001597605Y0002518715D02*
X0001609160Y0002536008D01*
X0001620715Y0002518715D01*
X0001636413Y0002508226D01*
X0001620715Y0002497736D01*
X0001609160Y0002480444D01*
X0001597605Y0002497736D01*
X0001581907Y0002508226D01*
X0001597605Y0002518715D01*
X0001597605Y0002518715D01*
G37*
X0001597605Y0002518715D02*
X0001609160Y0002536008D01*
X0001620715Y0002518715D01*
X0001636413Y0002508226D01*
X0001620715Y0002497736D01*
X0001609160Y0002480444D01*
X0001597605Y0002497736D01*
X0001581907Y0002508226D01*
X0001597605Y0002518715D01*
G36*
X0001597605Y0002418715D02*
X0001609160Y0002436008D01*
X0001620715Y0002418715D01*
X0001636401Y0002408234D01*
X0001581919Y0002408234D01*
X0001597605Y0002418715D01*
X0001597605Y0002418715D01*
G37*
X0001597605Y0002418715D02*
X0001609160Y0002436008D01*
X0001620715Y0002418715D01*
X0001636401Y0002408234D01*
X0001581919Y0002408234D01*
X0001597605Y0002418715D01*
G36*
X0001497605Y0002518715D02*
X0001509160Y0002536008D01*
X0001520714Y0002518715D01*
X0001536413Y0002508226D01*
X0001520714Y0002497736D01*
X0001509160Y0002480444D01*
X0001497605Y0002497736D01*
X0001481907Y0002508226D01*
X0001497605Y0002518715D01*
X0001497605Y0002518715D01*
G37*
X0001497605Y0002518715D02*
X0001509160Y0002536008D01*
X0001520714Y0002518715D01*
X0001536413Y0002508226D01*
X0001520714Y0002497736D01*
X0001509160Y0002480444D01*
X0001497605Y0002497736D01*
X0001481907Y0002508226D01*
X0001497605Y0002518715D01*
G36*
X0001497605Y0002418715D02*
X0001509160Y0002436008D01*
X0001520714Y0002418715D01*
X0001536400Y0002408234D01*
X0001481919Y0002408234D01*
X0001497605Y0002418715D01*
X0001497605Y0002418715D01*
G37*
X0001497605Y0002418715D02*
X0001509160Y0002436008D01*
X0001520714Y0002418715D01*
X0001536400Y0002408234D01*
X0001481919Y0002408234D01*
X0001497605Y0002418715D01*
G36*
X0001397605Y0002518715D02*
X0001409160Y0002536008D01*
X0001420715Y0002518715D01*
X0001436413Y0002508226D01*
X0001420715Y0002497736D01*
X0001409160Y0002480444D01*
X0001397605Y0002497736D01*
X0001381906Y0002508226D01*
X0001397605Y0002518715D01*
X0001397605Y0002518715D01*
G37*
X0001397605Y0002518715D02*
X0001409160Y0002536008D01*
X0001420715Y0002518715D01*
X0001436413Y0002508226D01*
X0001420715Y0002497736D01*
X0001409160Y0002480444D01*
X0001397605Y0002497736D01*
X0001381906Y0002508226D01*
X0001397605Y0002518715D01*
G36*
X0001397605Y0002418715D02*
X0001409160Y0002436008D01*
X0001420715Y0002418715D01*
X0001436401Y0002408234D01*
X0001381919Y0002408234D01*
X0001397605Y0002418715D01*
X0001397605Y0002418715D01*
G37*
X0001397605Y0002418715D02*
X0001409160Y0002436008D01*
X0001420715Y0002418715D01*
X0001436401Y0002408234D01*
X0001381919Y0002408234D01*
X0001397605Y0002418715D01*
G36*
X0001297605Y0002518715D02*
X0001309160Y0002536008D01*
X0001320714Y0002518715D01*
X0001336413Y0002508226D01*
X0001320714Y0002497736D01*
X0001309160Y0002480444D01*
X0001297605Y0002497736D01*
X0001281907Y0002508226D01*
X0001297605Y0002518715D01*
X0001297605Y0002518715D01*
G37*
X0001297605Y0002518715D02*
X0001309160Y0002536008D01*
X0001320714Y0002518715D01*
X0001336413Y0002508226D01*
X0001320714Y0002497736D01*
X0001309160Y0002480444D01*
X0001297605Y0002497736D01*
X0001281907Y0002508226D01*
X0001297605Y0002518715D01*
G36*
X0001297605Y0002418715D02*
X0001309160Y0002436008D01*
X0001320714Y0002418715D01*
X0001336401Y0002408234D01*
X0001281919Y0002408234D01*
X0001297605Y0002418715D01*
X0001297605Y0002418715D01*
G37*
X0001297605Y0002418715D02*
X0001309160Y0002436008D01*
X0001320714Y0002418715D01*
X0001336401Y0002408234D01*
X0001281919Y0002408234D01*
X0001297605Y0002418715D01*
G36*
X0001197605Y0002518715D02*
X0001209160Y0002536008D01*
X0001220715Y0002518715D01*
X0001236413Y0002508226D01*
X0001220715Y0002497736D01*
X0001209160Y0002480444D01*
X0001197605Y0002497736D01*
X0001181907Y0002508226D01*
X0001197605Y0002518715D01*
X0001197605Y0002518715D01*
G37*
X0001197605Y0002518715D02*
X0001209160Y0002536008D01*
X0001220715Y0002518715D01*
X0001236413Y0002508226D01*
X0001220715Y0002497736D01*
X0001209160Y0002480444D01*
X0001197605Y0002497736D01*
X0001181907Y0002508226D01*
X0001197605Y0002518715D01*
G36*
X0001197605Y0002418715D02*
X0001209160Y0002436008D01*
X0001220715Y0002418715D01*
X0001236401Y0002408234D01*
X0001181919Y0002408234D01*
X0001197605Y0002418715D01*
X0001197605Y0002418715D01*
G37*
X0001197605Y0002418715D02*
X0001209160Y0002436008D01*
X0001220715Y0002418715D01*
X0001236401Y0002408234D01*
X0001181919Y0002408234D01*
X0001197605Y0002418715D01*
G36*
X0001097605Y0002518715D02*
X0001109160Y0002536008D01*
X0001120715Y0002518715D01*
X0001136413Y0002508226D01*
X0001120715Y0002497736D01*
X0001109160Y0002480444D01*
X0001097605Y0002497736D01*
X0001081907Y0002508226D01*
X0001097605Y0002518715D01*
X0001097605Y0002518715D01*
G37*
X0001097605Y0002518715D02*
X0001109160Y0002536008D01*
X0001120715Y0002518715D01*
X0001136413Y0002508226D01*
X0001120715Y0002497736D01*
X0001109160Y0002480444D01*
X0001097605Y0002497736D01*
X0001081907Y0002508226D01*
X0001097605Y0002518715D01*
G36*
X0001097605Y0002418715D02*
X0001109160Y0002436008D01*
X0001120715Y0002418715D01*
X0001136401Y0002408234D01*
X0001081919Y0002408234D01*
X0001097605Y0002418715D01*
X0001097605Y0002418715D01*
G37*
X0001097605Y0002418715D02*
X0001109160Y0002436008D01*
X0001120715Y0002418715D01*
X0001136401Y0002408234D01*
X0001081919Y0002408234D01*
X0001097605Y0002418715D01*
G36*
X0000997604Y0002518715D02*
X0001009160Y0002536008D01*
X0001020715Y0002518715D01*
X0001036413Y0002508226D01*
X0001020715Y0002497736D01*
X0001009160Y0002480444D01*
X0000997604Y0002497736D01*
X0000981907Y0002508226D01*
X0000997604Y0002518715D01*
X0000997604Y0002518715D01*
G37*
X0000997604Y0002518715D02*
X0001009160Y0002536008D01*
X0001020715Y0002518715D01*
X0001036413Y0002508226D01*
X0001020715Y0002497736D01*
X0001009160Y0002480444D01*
X0000997604Y0002497736D01*
X0000981907Y0002508226D01*
X0000997604Y0002518715D01*
G36*
X0000997604Y0002418715D02*
X0001009160Y0002436008D01*
X0001020715Y0002418715D01*
X0001036400Y0002408234D01*
X0000981918Y0002408234D01*
X0000997604Y0002418715D01*
X0000997604Y0002418715D01*
G37*
X0000997604Y0002418715D02*
X0001009160Y0002436008D01*
X0001020715Y0002418715D01*
X0001036400Y0002408234D01*
X0000981918Y0002408234D01*
X0000997604Y0002418715D01*
G36*
X0000897605Y0002518715D02*
X0000909160Y0002536008D01*
X0000920715Y0002518715D01*
X0000936413Y0002508226D01*
X0000920715Y0002497736D01*
X0000909160Y0002480444D01*
X0000897605Y0002497736D01*
X0000881907Y0002508226D01*
X0000897605Y0002518715D01*
X0000897605Y0002518715D01*
G37*
X0000897605Y0002518715D02*
X0000909160Y0002536008D01*
X0000920715Y0002518715D01*
X0000936413Y0002508226D01*
X0000920715Y0002497736D01*
X0000909160Y0002480444D01*
X0000897605Y0002497736D01*
X0000881907Y0002508226D01*
X0000897605Y0002518715D01*
G36*
X0000897605Y0002418715D02*
X0000909160Y0002436008D01*
X0000920715Y0002418715D01*
X0000936401Y0002408234D01*
X0000881918Y0002408234D01*
X0000897605Y0002418715D01*
X0000897605Y0002418715D01*
G37*
X0000897605Y0002418715D02*
X0000909160Y0002436008D01*
X0000920715Y0002418715D01*
X0000936401Y0002408234D01*
X0000881918Y0002408234D01*
X0000897605Y0002418715D01*
G36*
X0000798530Y0002503562D02*
X0000804383Y0002504726D01*
X0000809344Y0002508041D01*
X0000812660Y0002513003D01*
X0000813823Y0002518856D01*
X0000813823Y0002529028D01*
X0000820715Y0002518715D01*
X0000836413Y0002508226D01*
X0000820715Y0002497736D01*
X0000809160Y0002480444D01*
X0000797605Y0002497736D01*
X0000788886Y0002503562D01*
X0000798530Y0002503562D01*
X0000798530Y0002503562D01*
G37*
X0000798530Y0002503562D02*
X0000804383Y0002504726D01*
X0000809344Y0002508041D01*
X0000812660Y0002513003D01*
X0000813823Y0002518856D01*
X0000813823Y0002529028D01*
X0000820715Y0002518715D01*
X0000836413Y0002508226D01*
X0000820715Y0002497736D01*
X0000809160Y0002480444D01*
X0000797605Y0002497736D01*
X0000788886Y0002503562D01*
X0000798530Y0002503562D01*
G36*
X0000797605Y0002418715D02*
X0000809160Y0002436008D01*
X0000820715Y0002418715D01*
X0000836401Y0002408234D01*
X0000781918Y0002408234D01*
X0000797605Y0002418715D01*
X0000797605Y0002418715D01*
G37*
X0000797605Y0002418715D02*
X0000809160Y0002436008D01*
X0000820715Y0002418715D01*
X0000836401Y0002408234D01*
X0000781918Y0002408234D01*
X0000797605Y0002418715D01*
G36*
X0000720715Y0002418715D02*
X0000736401Y0002408234D01*
X0000709115Y0002408234D01*
X0000709115Y0002436075D01*
X0000720715Y0002418715D01*
X0000720715Y0002418715D01*
G37*
X0000720715Y0002418715D02*
X0000736401Y0002408234D01*
X0000709115Y0002408234D01*
X0000709115Y0002436075D01*
X0000720715Y0002418715D01*
G36*
X0000713937Y0002504726D02*
X0000719790Y0002503562D01*
X0000729433Y0002503562D01*
X0000720715Y0002497736D01*
X0000709115Y0002480377D01*
X0000709115Y0002507948D01*
X0000713937Y0002504726D01*
X0000713937Y0002504726D01*
G37*
X0000713937Y0002504726D02*
X0000719790Y0002503562D01*
X0000729433Y0002503562D01*
X0000720715Y0002497736D01*
X0000709115Y0002480377D01*
X0000709115Y0002507948D01*
X0000713937Y0002504726D01*
G36*
X0001829114Y0003153486D02*
X0001829114Y0002813549D01*
X0001681919Y0002813549D01*
X0001697605Y0002824030D01*
X0001709391Y0002841669D01*
X0001713529Y0002862475D01*
X0001713529Y0002864606D01*
X0001709391Y0002885412D01*
X0001697605Y0002903051D01*
X0001681907Y0002913540D01*
X0001697605Y0002924030D01*
X0001709391Y0002941669D01*
X0001713529Y0002962475D01*
X0001713529Y0002964606D01*
X0001709391Y0002985412D01*
X0001697605Y0003003050D01*
X0001679966Y0003014837D01*
X0001659160Y0003018976D01*
X0001638353Y0003014837D01*
X0001620715Y0003003050D01*
X0001609160Y0002985759D01*
X0001597605Y0003003050D01*
X0001579966Y0003014837D01*
X0001559159Y0003018976D01*
X0001538353Y0003014837D01*
X0001520714Y0003003050D01*
X0001509160Y0002985759D01*
X0001497605Y0003003050D01*
X0001479966Y0003014837D01*
X0001459160Y0003018976D01*
X0001438352Y0003014837D01*
X0001420715Y0003003050D01*
X0001409160Y0002985759D01*
X0001397605Y0003003050D01*
X0001379966Y0003014837D01*
X0001359160Y0003018976D01*
X0001338353Y0003014837D01*
X0001320714Y0003003050D01*
X0001309160Y0002985759D01*
X0001297605Y0003003050D01*
X0001279966Y0003014837D01*
X0001259160Y0003018976D01*
X0001238353Y0003014837D01*
X0001220715Y0003003050D01*
X0001209160Y0002985759D01*
X0001197605Y0003003050D01*
X0001179966Y0003014837D01*
X0001159160Y0003018976D01*
X0001138353Y0003014837D01*
X0001120715Y0003003050D01*
X0001109160Y0002985759D01*
X0001097605Y0003003050D01*
X0001079966Y0003014837D01*
X0001059160Y0003018976D01*
X0001038353Y0003014837D01*
X0001020715Y0003003050D01*
X0001009160Y0002985759D01*
X0000997604Y0003003050D01*
X0000979965Y0003014837D01*
X0000959160Y0003018976D01*
X0000938353Y0003014837D01*
X0000920715Y0003003050D01*
X0000909160Y0002985759D01*
X0000897605Y0003003050D01*
X0000879965Y0003014837D01*
X0000859160Y0003018976D01*
X0000838353Y0003014837D01*
X0000820715Y0003003050D01*
X0000813823Y0002992739D01*
X0000813823Y0003002911D01*
X0000812660Y0003008763D01*
X0000809344Y0003013725D01*
X0000804383Y0003017040D01*
X0000798530Y0003018205D01*
X0000719790Y0003018205D01*
X0000713937Y0003017040D01*
X0000709115Y0003013818D01*
X0000709115Y0003153549D01*
X0001829114Y0003153486D01*
X0001829114Y0003153486D01*
G37*
X0001829114Y0003153486D02*
X0001829114Y0002813549D01*
X0001681919Y0002813549D01*
X0001697605Y0002824030D01*
X0001709391Y0002841669D01*
X0001713529Y0002862475D01*
X0001713529Y0002864606D01*
X0001709391Y0002885412D01*
X0001697605Y0002903051D01*
X0001681907Y0002913540D01*
X0001697605Y0002924030D01*
X0001709391Y0002941669D01*
X0001713529Y0002962475D01*
X0001713529Y0002964606D01*
X0001709391Y0002985412D01*
X0001697605Y0003003050D01*
X0001679966Y0003014837D01*
X0001659160Y0003018976D01*
X0001638353Y0003014837D01*
X0001620715Y0003003050D01*
X0001609160Y0002985759D01*
X0001597605Y0003003050D01*
X0001579966Y0003014837D01*
X0001559159Y0003018976D01*
X0001538353Y0003014837D01*
X0001520714Y0003003050D01*
X0001509160Y0002985759D01*
X0001497605Y0003003050D01*
X0001479966Y0003014837D01*
X0001459160Y0003018976D01*
X0001438352Y0003014837D01*
X0001420715Y0003003050D01*
X0001409160Y0002985759D01*
X0001397605Y0003003050D01*
X0001379966Y0003014837D01*
X0001359160Y0003018976D01*
X0001338353Y0003014837D01*
X0001320714Y0003003050D01*
X0001309160Y0002985759D01*
X0001297605Y0003003050D01*
X0001279966Y0003014837D01*
X0001259160Y0003018976D01*
X0001238353Y0003014837D01*
X0001220715Y0003003050D01*
X0001209160Y0002985759D01*
X0001197605Y0003003050D01*
X0001179966Y0003014837D01*
X0001159160Y0003018976D01*
X0001138353Y0003014837D01*
X0001120715Y0003003050D01*
X0001109160Y0002985759D01*
X0001097605Y0003003050D01*
X0001079966Y0003014837D01*
X0001059160Y0003018976D01*
X0001038353Y0003014837D01*
X0001020715Y0003003050D01*
X0001009160Y0002985759D01*
X0000997604Y0003003050D01*
X0000979965Y0003014837D01*
X0000959160Y0003018976D01*
X0000938353Y0003014837D01*
X0000920715Y0003003050D01*
X0000909160Y0002985759D01*
X0000897605Y0003003050D01*
X0000879965Y0003014837D01*
X0000859160Y0003018976D01*
X0000838353Y0003014837D01*
X0000820715Y0003003050D01*
X0000813823Y0002992739D01*
X0000813823Y0003002911D01*
X0000812660Y0003008763D01*
X0000809344Y0003013725D01*
X0000804383Y0003017040D01*
X0000798530Y0003018205D01*
X0000719790Y0003018205D01*
X0000713937Y0003017040D01*
X0000709115Y0003013818D01*
X0000709115Y0003153549D01*
X0001829114Y0003153486D01*
G36*
X0001597605Y0002924030D02*
X0001609160Y0002941323D01*
X0001620715Y0002924030D01*
X0001636413Y0002913540D01*
X0001620715Y0002903051D01*
X0001609160Y0002885759D01*
X0001597605Y0002903051D01*
X0001581907Y0002913540D01*
X0001597605Y0002924030D01*
X0001597605Y0002924030D01*
G37*
X0001597605Y0002924030D02*
X0001609160Y0002941323D01*
X0001620715Y0002924030D01*
X0001636413Y0002913540D01*
X0001620715Y0002903051D01*
X0001609160Y0002885759D01*
X0001597605Y0002903051D01*
X0001581907Y0002913540D01*
X0001597605Y0002924030D01*
G36*
X0001597605Y0002824030D02*
X0001609160Y0002841323D01*
X0001620715Y0002824030D01*
X0001636401Y0002813549D01*
X0001581919Y0002813549D01*
X0001597605Y0002824030D01*
X0001597605Y0002824030D01*
G37*
X0001597605Y0002824030D02*
X0001609160Y0002841323D01*
X0001620715Y0002824030D01*
X0001636401Y0002813549D01*
X0001581919Y0002813549D01*
X0001597605Y0002824030D01*
G36*
X0001497605Y0002924030D02*
X0001509160Y0002941323D01*
X0001520714Y0002924030D01*
X0001536413Y0002913540D01*
X0001520714Y0002903051D01*
X0001509160Y0002885759D01*
X0001497605Y0002903051D01*
X0001481907Y0002913540D01*
X0001497605Y0002924030D01*
X0001497605Y0002924030D01*
G37*
X0001497605Y0002924030D02*
X0001509160Y0002941323D01*
X0001520714Y0002924030D01*
X0001536413Y0002913540D01*
X0001520714Y0002903051D01*
X0001509160Y0002885759D01*
X0001497605Y0002903051D01*
X0001481907Y0002913540D01*
X0001497605Y0002924030D01*
G36*
X0001497605Y0002824030D02*
X0001509160Y0002841323D01*
X0001520714Y0002824030D01*
X0001536400Y0002813549D01*
X0001481919Y0002813549D01*
X0001497605Y0002824030D01*
X0001497605Y0002824030D01*
G37*
X0001497605Y0002824030D02*
X0001509160Y0002841323D01*
X0001520714Y0002824030D01*
X0001536400Y0002813549D01*
X0001481919Y0002813549D01*
X0001497605Y0002824030D01*
G36*
X0001397605Y0002924030D02*
X0001409160Y0002941323D01*
X0001420715Y0002924030D01*
X0001436413Y0002913540D01*
X0001420715Y0002903051D01*
X0001409160Y0002885759D01*
X0001397605Y0002903051D01*
X0001381906Y0002913540D01*
X0001397605Y0002924030D01*
X0001397605Y0002924030D01*
G37*
X0001397605Y0002924030D02*
X0001409160Y0002941323D01*
X0001420715Y0002924030D01*
X0001436413Y0002913540D01*
X0001420715Y0002903051D01*
X0001409160Y0002885759D01*
X0001397605Y0002903051D01*
X0001381906Y0002913540D01*
X0001397605Y0002924030D01*
G36*
X0001397605Y0002824030D02*
X0001409160Y0002841323D01*
X0001420715Y0002824030D01*
X0001436401Y0002813549D01*
X0001381919Y0002813549D01*
X0001397605Y0002824030D01*
X0001397605Y0002824030D01*
G37*
X0001397605Y0002824030D02*
X0001409160Y0002841323D01*
X0001420715Y0002824030D01*
X0001436401Y0002813549D01*
X0001381919Y0002813549D01*
X0001397605Y0002824030D01*
G36*
X0001297605Y0002924030D02*
X0001309160Y0002941323D01*
X0001320714Y0002924030D01*
X0001336413Y0002913540D01*
X0001320714Y0002903051D01*
X0001309160Y0002885759D01*
X0001297605Y0002903051D01*
X0001281907Y0002913540D01*
X0001297605Y0002924030D01*
X0001297605Y0002924030D01*
G37*
X0001297605Y0002924030D02*
X0001309160Y0002941323D01*
X0001320714Y0002924030D01*
X0001336413Y0002913540D01*
X0001320714Y0002903051D01*
X0001309160Y0002885759D01*
X0001297605Y0002903051D01*
X0001281907Y0002913540D01*
X0001297605Y0002924030D01*
G36*
X0001297605Y0002824030D02*
X0001309160Y0002841323D01*
X0001320714Y0002824030D01*
X0001336401Y0002813549D01*
X0001281919Y0002813549D01*
X0001297605Y0002824030D01*
X0001297605Y0002824030D01*
G37*
X0001297605Y0002824030D02*
X0001309160Y0002841323D01*
X0001320714Y0002824030D01*
X0001336401Y0002813549D01*
X0001281919Y0002813549D01*
X0001297605Y0002824030D01*
G36*
X0001197605Y0002924030D02*
X0001209160Y0002941323D01*
X0001220715Y0002924030D01*
X0001236413Y0002913540D01*
X0001220715Y0002903051D01*
X0001209160Y0002885759D01*
X0001197605Y0002903051D01*
X0001181907Y0002913540D01*
X0001197605Y0002924030D01*
X0001197605Y0002924030D01*
G37*
X0001197605Y0002924030D02*
X0001209160Y0002941323D01*
X0001220715Y0002924030D01*
X0001236413Y0002913540D01*
X0001220715Y0002903051D01*
X0001209160Y0002885759D01*
X0001197605Y0002903051D01*
X0001181907Y0002913540D01*
X0001197605Y0002924030D01*
G36*
X0001197605Y0002824030D02*
X0001209160Y0002841323D01*
X0001220715Y0002824030D01*
X0001236401Y0002813549D01*
X0001181919Y0002813549D01*
X0001197605Y0002824030D01*
X0001197605Y0002824030D01*
G37*
X0001197605Y0002824030D02*
X0001209160Y0002841323D01*
X0001220715Y0002824030D01*
X0001236401Y0002813549D01*
X0001181919Y0002813549D01*
X0001197605Y0002824030D01*
G36*
X0001097605Y0002924030D02*
X0001109160Y0002941323D01*
X0001120715Y0002924030D01*
X0001136413Y0002913540D01*
X0001120715Y0002903051D01*
X0001109160Y0002885759D01*
X0001097605Y0002903051D01*
X0001081907Y0002913540D01*
X0001097605Y0002924030D01*
X0001097605Y0002924030D01*
G37*
X0001097605Y0002924030D02*
X0001109160Y0002941323D01*
X0001120715Y0002924030D01*
X0001136413Y0002913540D01*
X0001120715Y0002903051D01*
X0001109160Y0002885759D01*
X0001097605Y0002903051D01*
X0001081907Y0002913540D01*
X0001097605Y0002924030D01*
G36*
X0001097605Y0002824030D02*
X0001109160Y0002841323D01*
X0001120715Y0002824030D01*
X0001136401Y0002813549D01*
X0001081919Y0002813549D01*
X0001097605Y0002824030D01*
X0001097605Y0002824030D01*
G37*
X0001097605Y0002824030D02*
X0001109160Y0002841323D01*
X0001120715Y0002824030D01*
X0001136401Y0002813549D01*
X0001081919Y0002813549D01*
X0001097605Y0002824030D01*
G36*
X0000997604Y0002924030D02*
X0001009160Y0002941323D01*
X0001020715Y0002924030D01*
X0001036413Y0002913540D01*
X0001020715Y0002903051D01*
X0001009160Y0002885759D01*
X0000997604Y0002903051D01*
X0000981907Y0002913540D01*
X0000997604Y0002924030D01*
X0000997604Y0002924030D01*
G37*
X0000997604Y0002924030D02*
X0001009160Y0002941323D01*
X0001020715Y0002924030D01*
X0001036413Y0002913540D01*
X0001020715Y0002903051D01*
X0001009160Y0002885759D01*
X0000997604Y0002903051D01*
X0000981907Y0002913540D01*
X0000997604Y0002924030D01*
G36*
X0000997604Y0002824030D02*
X0001009160Y0002841323D01*
X0001020715Y0002824030D01*
X0001036400Y0002813549D01*
X0000981918Y0002813549D01*
X0000997604Y0002824030D01*
X0000997604Y0002824030D01*
G37*
X0000997604Y0002824030D02*
X0001009160Y0002841323D01*
X0001020715Y0002824030D01*
X0001036400Y0002813549D01*
X0000981918Y0002813549D01*
X0000997604Y0002824030D01*
G36*
X0000897605Y0002924030D02*
X0000909160Y0002941323D01*
X0000920715Y0002924030D01*
X0000936413Y0002913540D01*
X0000920715Y0002903051D01*
X0000909160Y0002885759D01*
X0000897605Y0002903051D01*
X0000881907Y0002913540D01*
X0000897605Y0002924030D01*
X0000897605Y0002924030D01*
G37*
X0000897605Y0002924030D02*
X0000909160Y0002941323D01*
X0000920715Y0002924030D01*
X0000936413Y0002913540D01*
X0000920715Y0002903051D01*
X0000909160Y0002885759D01*
X0000897605Y0002903051D01*
X0000881907Y0002913540D01*
X0000897605Y0002924030D01*
G36*
X0000897605Y0002824030D02*
X0000909160Y0002841323D01*
X0000920715Y0002824030D01*
X0000936401Y0002813549D01*
X0000881918Y0002813549D01*
X0000897605Y0002824030D01*
X0000897605Y0002824030D01*
G37*
X0000897605Y0002824030D02*
X0000909160Y0002841323D01*
X0000920715Y0002824030D01*
X0000936401Y0002813549D01*
X0000881918Y0002813549D01*
X0000897605Y0002824030D01*
G36*
X0000798530Y0002908877D02*
X0000804383Y0002910040D01*
X0000809344Y0002913355D01*
X0000812660Y0002918318D01*
X0000813823Y0002924171D01*
X0000813823Y0002934342D01*
X0000820715Y0002924030D01*
X0000836413Y0002913540D01*
X0000820715Y0002903051D01*
X0000809160Y0002885759D01*
X0000797605Y0002903051D01*
X0000788886Y0002908877D01*
X0000798530Y0002908877D01*
X0000798530Y0002908877D01*
G37*
X0000798530Y0002908877D02*
X0000804383Y0002910040D01*
X0000809344Y0002913355D01*
X0000812660Y0002918318D01*
X0000813823Y0002924171D01*
X0000813823Y0002934342D01*
X0000820715Y0002924030D01*
X0000836413Y0002913540D01*
X0000820715Y0002903051D01*
X0000809160Y0002885759D01*
X0000797605Y0002903051D01*
X0000788886Y0002908877D01*
X0000798530Y0002908877D01*
G36*
X0000797605Y0002824030D02*
X0000809160Y0002841323D01*
X0000820715Y0002824030D01*
X0000836401Y0002813549D01*
X0000781918Y0002813549D01*
X0000797605Y0002824030D01*
X0000797605Y0002824030D01*
G37*
X0000797605Y0002824030D02*
X0000809160Y0002841323D01*
X0000820715Y0002824030D01*
X0000836401Y0002813549D01*
X0000781918Y0002813549D01*
X0000797605Y0002824030D01*
G36*
X0000720715Y0002824030D02*
X0000736401Y0002813549D01*
X0000709115Y0002813549D01*
X0000709115Y0002841390D01*
X0000720715Y0002824030D01*
X0000720715Y0002824030D01*
G37*
X0000720715Y0002824030D02*
X0000736401Y0002813549D01*
X0000709115Y0002813549D01*
X0000709115Y0002841390D01*
X0000720715Y0002824030D01*
G36*
X0000713937Y0002910040D02*
X0000719790Y0002908877D01*
X0000729433Y0002908877D01*
X0000720715Y0002903051D01*
X0000709115Y0002885691D01*
X0000709115Y0002913263D01*
X0000713937Y0002910040D01*
X0000713937Y0002910040D01*
G37*
X0000713937Y0002910040D02*
X0000719790Y0002908877D01*
X0000729433Y0002908877D01*
X0000720715Y0002903051D01*
X0000709115Y0002885691D01*
X0000709115Y0002913263D01*
X0000713937Y0002910040D01*
G36*
X0001829114Y0003558801D02*
X0001829114Y0003218864D01*
X0001681919Y0003218864D01*
X0001697605Y0003229345D01*
X0001709391Y0003246984D01*
X0001713529Y0003267790D01*
X0001713529Y0003269920D01*
X0001709391Y0003290727D01*
X0001697605Y0003308366D01*
X0001681907Y0003318856D01*
X0001697605Y0003329345D01*
X0001709391Y0003346984D01*
X0001713529Y0003367789D01*
X0001713529Y0003369921D01*
X0001709391Y0003390727D01*
X0001697605Y0003408366D01*
X0001679966Y0003420152D01*
X0001659160Y0003424291D01*
X0001638353Y0003420152D01*
X0001620715Y0003408366D01*
X0001609160Y0003391074D01*
X0001597605Y0003408366D01*
X0001579966Y0003420152D01*
X0001559159Y0003424291D01*
X0001538353Y0003420152D01*
X0001520715Y0003408366D01*
X0001509160Y0003391074D01*
X0001497605Y0003408366D01*
X0001479966Y0003420152D01*
X0001459160Y0003424291D01*
X0001438352Y0003420152D01*
X0001420715Y0003408366D01*
X0001409160Y0003391074D01*
X0001397605Y0003408366D01*
X0001379966Y0003420152D01*
X0001359160Y0003424291D01*
X0001338353Y0003420152D01*
X0001320715Y0003408366D01*
X0001309160Y0003391074D01*
X0001297605Y0003408366D01*
X0001279966Y0003420152D01*
X0001259160Y0003424291D01*
X0001238353Y0003420152D01*
X0001220715Y0003408366D01*
X0001209160Y0003391074D01*
X0001197605Y0003408366D01*
X0001179966Y0003420152D01*
X0001159160Y0003424291D01*
X0001138353Y0003420152D01*
X0001120715Y0003408366D01*
X0001109160Y0003391074D01*
X0001097605Y0003408366D01*
X0001079966Y0003420152D01*
X0001059160Y0003424291D01*
X0001038353Y0003420152D01*
X0001020715Y0003408366D01*
X0001009160Y0003391074D01*
X0000997604Y0003408366D01*
X0000979965Y0003420152D01*
X0000959160Y0003424291D01*
X0000938353Y0003420152D01*
X0000920715Y0003408366D01*
X0000909160Y0003391074D01*
X0000897605Y0003408366D01*
X0000879965Y0003420152D01*
X0000859160Y0003424291D01*
X0000838353Y0003420152D01*
X0000820715Y0003408366D01*
X0000813823Y0003398054D01*
X0000813823Y0003408225D01*
X0000812660Y0003414078D01*
X0000809344Y0003419040D01*
X0000804383Y0003422354D01*
X0000798530Y0003423519D01*
X0000719790Y0003423519D01*
X0000713937Y0003422354D01*
X0000709115Y0003419133D01*
X0000709115Y0003558864D01*
X0001829114Y0003558801D01*
X0001829114Y0003558801D01*
G37*
X0001829114Y0003558801D02*
X0001829114Y0003218864D01*
X0001681919Y0003218864D01*
X0001697605Y0003229345D01*
X0001709391Y0003246984D01*
X0001713529Y0003267790D01*
X0001713529Y0003269920D01*
X0001709391Y0003290727D01*
X0001697605Y0003308366D01*
X0001681907Y0003318856D01*
X0001697605Y0003329345D01*
X0001709391Y0003346984D01*
X0001713529Y0003367789D01*
X0001713529Y0003369921D01*
X0001709391Y0003390727D01*
X0001697605Y0003408366D01*
X0001679966Y0003420152D01*
X0001659160Y0003424291D01*
X0001638353Y0003420152D01*
X0001620715Y0003408366D01*
X0001609160Y0003391074D01*
X0001597605Y0003408366D01*
X0001579966Y0003420152D01*
X0001559159Y0003424291D01*
X0001538353Y0003420152D01*
X0001520715Y0003408366D01*
X0001509160Y0003391074D01*
X0001497605Y0003408366D01*
X0001479966Y0003420152D01*
X0001459160Y0003424291D01*
X0001438352Y0003420152D01*
X0001420715Y0003408366D01*
X0001409160Y0003391074D01*
X0001397605Y0003408366D01*
X0001379966Y0003420152D01*
X0001359160Y0003424291D01*
X0001338353Y0003420152D01*
X0001320715Y0003408366D01*
X0001309160Y0003391074D01*
X0001297605Y0003408366D01*
X0001279966Y0003420152D01*
X0001259160Y0003424291D01*
X0001238353Y0003420152D01*
X0001220715Y0003408366D01*
X0001209160Y0003391074D01*
X0001197605Y0003408366D01*
X0001179966Y0003420152D01*
X0001159160Y0003424291D01*
X0001138353Y0003420152D01*
X0001120715Y0003408366D01*
X0001109160Y0003391074D01*
X0001097605Y0003408366D01*
X0001079966Y0003420152D01*
X0001059160Y0003424291D01*
X0001038353Y0003420152D01*
X0001020715Y0003408366D01*
X0001009160Y0003391074D01*
X0000997604Y0003408366D01*
X0000979965Y0003420152D01*
X0000959160Y0003424291D01*
X0000938353Y0003420152D01*
X0000920715Y0003408366D01*
X0000909160Y0003391074D01*
X0000897605Y0003408366D01*
X0000879965Y0003420152D01*
X0000859160Y0003424291D01*
X0000838353Y0003420152D01*
X0000820715Y0003408366D01*
X0000813823Y0003398054D01*
X0000813823Y0003408225D01*
X0000812660Y0003414078D01*
X0000809344Y0003419040D01*
X0000804383Y0003422354D01*
X0000798530Y0003423519D01*
X0000719790Y0003423519D01*
X0000713937Y0003422354D01*
X0000709115Y0003419133D01*
X0000709115Y0003558864D01*
X0001829114Y0003558801D01*
G36*
X0001597605Y0003329345D02*
X0001609160Y0003346638D01*
X0001620715Y0003329345D01*
X0001636413Y0003318856D01*
X0001620715Y0003308366D01*
X0001609160Y0003291074D01*
X0001597605Y0003308366D01*
X0001581907Y0003318856D01*
X0001597605Y0003329345D01*
X0001597605Y0003329345D01*
G37*
X0001597605Y0003329345D02*
X0001609160Y0003346638D01*
X0001620715Y0003329345D01*
X0001636413Y0003318856D01*
X0001620715Y0003308366D01*
X0001609160Y0003291074D01*
X0001597605Y0003308366D01*
X0001581907Y0003318856D01*
X0001597605Y0003329345D01*
G36*
X0001597605Y0003229345D02*
X0001609160Y0003246638D01*
X0001620715Y0003229345D01*
X0001636401Y0003218864D01*
X0001581919Y0003218864D01*
X0001597605Y0003229345D01*
X0001597605Y0003229345D01*
G37*
X0001597605Y0003229345D02*
X0001609160Y0003246638D01*
X0001620715Y0003229345D01*
X0001636401Y0003218864D01*
X0001581919Y0003218864D01*
X0001597605Y0003229345D01*
G36*
X0001497605Y0003329345D02*
X0001509160Y0003346638D01*
X0001520715Y0003329345D01*
X0001536413Y0003318856D01*
X0001520715Y0003308366D01*
X0001509160Y0003291074D01*
X0001497605Y0003308366D01*
X0001481907Y0003318856D01*
X0001497605Y0003329345D01*
X0001497605Y0003329345D01*
G37*
X0001497605Y0003329345D02*
X0001509160Y0003346638D01*
X0001520715Y0003329345D01*
X0001536413Y0003318856D01*
X0001520715Y0003308366D01*
X0001509160Y0003291074D01*
X0001497605Y0003308366D01*
X0001481907Y0003318856D01*
X0001497605Y0003329345D01*
G36*
X0001497605Y0003229345D02*
X0001509160Y0003246638D01*
X0001520715Y0003229345D01*
X0001536400Y0003218864D01*
X0001481919Y0003218864D01*
X0001497605Y0003229345D01*
X0001497605Y0003229345D01*
G37*
X0001497605Y0003229345D02*
X0001509160Y0003246638D01*
X0001520715Y0003229345D01*
X0001536400Y0003218864D01*
X0001481919Y0003218864D01*
X0001497605Y0003229345D01*
G36*
X0001397605Y0003329345D02*
X0001409160Y0003346638D01*
X0001420715Y0003329345D01*
X0001436413Y0003318856D01*
X0001420715Y0003308366D01*
X0001409160Y0003291074D01*
X0001397605Y0003308366D01*
X0001381906Y0003318856D01*
X0001397605Y0003329345D01*
X0001397605Y0003329345D01*
G37*
X0001397605Y0003329345D02*
X0001409160Y0003346638D01*
X0001420715Y0003329345D01*
X0001436413Y0003318856D01*
X0001420715Y0003308366D01*
X0001409160Y0003291074D01*
X0001397605Y0003308366D01*
X0001381906Y0003318856D01*
X0001397605Y0003329345D01*
G36*
X0001397605Y0003229345D02*
X0001409160Y0003246638D01*
X0001420715Y0003229345D01*
X0001436401Y0003218864D01*
X0001381919Y0003218864D01*
X0001397605Y0003229345D01*
X0001397605Y0003229345D01*
G37*
X0001397605Y0003229345D02*
X0001409160Y0003246638D01*
X0001420715Y0003229345D01*
X0001436401Y0003218864D01*
X0001381919Y0003218864D01*
X0001397605Y0003229345D01*
G36*
X0001297605Y0003329345D02*
X0001309160Y0003346638D01*
X0001320715Y0003329345D01*
X0001336413Y0003318856D01*
X0001320715Y0003308366D01*
X0001309160Y0003291074D01*
X0001297605Y0003308366D01*
X0001281907Y0003318856D01*
X0001297605Y0003329345D01*
X0001297605Y0003329345D01*
G37*
X0001297605Y0003329345D02*
X0001309160Y0003346638D01*
X0001320715Y0003329345D01*
X0001336413Y0003318856D01*
X0001320715Y0003308366D01*
X0001309160Y0003291074D01*
X0001297605Y0003308366D01*
X0001281907Y0003318856D01*
X0001297605Y0003329345D01*
G36*
X0001297605Y0003229345D02*
X0001309160Y0003246638D01*
X0001320715Y0003229345D01*
X0001336401Y0003218864D01*
X0001281919Y0003218864D01*
X0001297605Y0003229345D01*
X0001297605Y0003229345D01*
G37*
X0001297605Y0003229345D02*
X0001309160Y0003246638D01*
X0001320715Y0003229345D01*
X0001336401Y0003218864D01*
X0001281919Y0003218864D01*
X0001297605Y0003229345D01*
G36*
X0001197605Y0003329345D02*
X0001209160Y0003346638D01*
X0001220715Y0003329345D01*
X0001236413Y0003318856D01*
X0001220715Y0003308366D01*
X0001209160Y0003291074D01*
X0001197605Y0003308366D01*
X0001181907Y0003318856D01*
X0001197605Y0003329345D01*
X0001197605Y0003329345D01*
G37*
X0001197605Y0003329345D02*
X0001209160Y0003346638D01*
X0001220715Y0003329345D01*
X0001236413Y0003318856D01*
X0001220715Y0003308366D01*
X0001209160Y0003291074D01*
X0001197605Y0003308366D01*
X0001181907Y0003318856D01*
X0001197605Y0003329345D01*
G36*
X0001197605Y0003229345D02*
X0001209160Y0003246638D01*
X0001220715Y0003229345D01*
X0001236401Y0003218864D01*
X0001181919Y0003218864D01*
X0001197605Y0003229345D01*
X0001197605Y0003229345D01*
G37*
X0001197605Y0003229345D02*
X0001209160Y0003246638D01*
X0001220715Y0003229345D01*
X0001236401Y0003218864D01*
X0001181919Y0003218864D01*
X0001197605Y0003229345D01*
G36*
X0001097605Y0003329345D02*
X0001109160Y0003346638D01*
X0001120715Y0003329345D01*
X0001136413Y0003318856D01*
X0001120715Y0003308366D01*
X0001109160Y0003291074D01*
X0001097605Y0003308366D01*
X0001081907Y0003318856D01*
X0001097605Y0003329345D01*
X0001097605Y0003329345D01*
G37*
X0001097605Y0003329345D02*
X0001109160Y0003346638D01*
X0001120715Y0003329345D01*
X0001136413Y0003318856D01*
X0001120715Y0003308366D01*
X0001109160Y0003291074D01*
X0001097605Y0003308366D01*
X0001081907Y0003318856D01*
X0001097605Y0003329345D01*
G36*
X0001097605Y0003229345D02*
X0001109160Y0003246638D01*
X0001120715Y0003229345D01*
X0001136401Y0003218864D01*
X0001081919Y0003218864D01*
X0001097605Y0003229345D01*
X0001097605Y0003229345D01*
G37*
X0001097605Y0003229345D02*
X0001109160Y0003246638D01*
X0001120715Y0003229345D01*
X0001136401Y0003218864D01*
X0001081919Y0003218864D01*
X0001097605Y0003229345D01*
G36*
X0000997604Y0003329345D02*
X0001009160Y0003346638D01*
X0001020715Y0003329345D01*
X0001036413Y0003318856D01*
X0001020715Y0003308366D01*
X0001009160Y0003291074D01*
X0000997604Y0003308366D01*
X0000981907Y0003318856D01*
X0000997604Y0003329345D01*
X0000997604Y0003329345D01*
G37*
X0000997604Y0003329345D02*
X0001009160Y0003346638D01*
X0001020715Y0003329345D01*
X0001036413Y0003318856D01*
X0001020715Y0003308366D01*
X0001009160Y0003291074D01*
X0000997604Y0003308366D01*
X0000981907Y0003318856D01*
X0000997604Y0003329345D01*
G36*
X0000997604Y0003229345D02*
X0001009160Y0003246638D01*
X0001020715Y0003229345D01*
X0001036400Y0003218864D01*
X0000981918Y0003218864D01*
X0000997604Y0003229345D01*
X0000997604Y0003229345D01*
G37*
X0000997604Y0003229345D02*
X0001009160Y0003246638D01*
X0001020715Y0003229345D01*
X0001036400Y0003218864D01*
X0000981918Y0003218864D01*
X0000997604Y0003229345D01*
G36*
X0000897605Y0003329345D02*
X0000909160Y0003346638D01*
X0000920715Y0003329345D01*
X0000936413Y0003318856D01*
X0000920715Y0003308366D01*
X0000909160Y0003291074D01*
X0000897605Y0003308366D01*
X0000881907Y0003318856D01*
X0000897605Y0003329345D01*
X0000897605Y0003329345D01*
G37*
X0000897605Y0003329345D02*
X0000909160Y0003346638D01*
X0000920715Y0003329345D01*
X0000936413Y0003318856D01*
X0000920715Y0003308366D01*
X0000909160Y0003291074D01*
X0000897605Y0003308366D01*
X0000881907Y0003318856D01*
X0000897605Y0003329345D01*
G36*
X0000897605Y0003229345D02*
X0000909160Y0003246638D01*
X0000920715Y0003229345D01*
X0000936401Y0003218864D01*
X0000881918Y0003218864D01*
X0000897605Y0003229345D01*
X0000897605Y0003229345D01*
G37*
X0000897605Y0003229345D02*
X0000909160Y0003246638D01*
X0000920715Y0003229345D01*
X0000936401Y0003218864D01*
X0000881918Y0003218864D01*
X0000897605Y0003229345D01*
G36*
X0000798530Y0003314192D02*
X0000804383Y0003315356D01*
X0000809344Y0003318671D01*
X0000812660Y0003323633D01*
X0000813823Y0003329485D01*
X0000813823Y0003339657D01*
X0000820715Y0003329345D01*
X0000836413Y0003318856D01*
X0000820715Y0003308366D01*
X0000809160Y0003291074D01*
X0000797605Y0003308366D01*
X0000788886Y0003314192D01*
X0000798530Y0003314192D01*
X0000798530Y0003314192D01*
G37*
X0000798530Y0003314192D02*
X0000804383Y0003315356D01*
X0000809344Y0003318671D01*
X0000812660Y0003323633D01*
X0000813823Y0003329485D01*
X0000813823Y0003339657D01*
X0000820715Y0003329345D01*
X0000836413Y0003318856D01*
X0000820715Y0003308366D01*
X0000809160Y0003291074D01*
X0000797605Y0003308366D01*
X0000788886Y0003314192D01*
X0000798530Y0003314192D01*
G36*
X0000797605Y0003229345D02*
X0000809160Y0003246638D01*
X0000820715Y0003229345D01*
X0000836401Y0003218864D01*
X0000781918Y0003218864D01*
X0000797605Y0003229345D01*
X0000797605Y0003229345D01*
G37*
X0000797605Y0003229345D02*
X0000809160Y0003246638D01*
X0000820715Y0003229345D01*
X0000836401Y0003218864D01*
X0000781918Y0003218864D01*
X0000797605Y0003229345D01*
G36*
X0000720715Y0003229345D02*
X0000736401Y0003218864D01*
X0000709115Y0003218864D01*
X0000709115Y0003246705D01*
X0000720715Y0003229345D01*
X0000720715Y0003229345D01*
G37*
X0000720715Y0003229345D02*
X0000736401Y0003218864D01*
X0000709115Y0003218864D01*
X0000709115Y0003246705D01*
X0000720715Y0003229345D01*
G36*
X0000713937Y0003315356D02*
X0000719790Y0003314192D01*
X0000729433Y0003314192D01*
X0000720715Y0003308366D01*
X0000709115Y0003291006D01*
X0000709115Y0003318578D01*
X0000713937Y0003315356D01*
X0000713937Y0003315356D01*
G37*
X0000713937Y0003315356D02*
X0000719790Y0003314192D01*
X0000729433Y0003314192D01*
X0000720715Y0003308366D01*
X0000709115Y0003291006D01*
X0000709115Y0003318578D01*
X0000713937Y0003315356D01*
M02*