M48
;DRILL file {KiCad (2016-10-28 revision 192d4b8)-makepkg} date 11/16/16 20:28:17
;FORMAT={2:4/ absolute / inch / keep zeros}
FMAT,2
INCH,TZ
T1C0.039
T2C0.040
%
G90
G05
M72
T1
X000844Y-002080
X000844Y-003080
X000844Y-004080
X000844Y-005080
X000844Y-006080
X000844Y-007080
X000844Y-008080
X000844Y-009080
X000844Y-010080
X000844Y-011080
X001844Y-002080
X001844Y-003080
X001844Y-004080
X001844Y-005080
X001844Y-006080
X001844Y-007080
X001844Y-008080
X001844Y-009080
X001844Y-010080
X001844Y-011080
X004897Y-002080
X004897Y-003080
X004897Y-004080
X004897Y-005080
X004897Y-006080
X004897Y-007080
X004897Y-008080
X004897Y-009080
X004897Y-010080
X004897Y-011080
X005897Y-002080
X005897Y-003080
X005897Y-004080
X005897Y-005080
X005897Y-006080
X005897Y-007080
X005897Y-008080
X005897Y-009080
X005897Y-010080
X005897Y-011080
X008950Y-002080
X008950Y-003080
X008950Y-004080
X008950Y-005080
X008950Y-006080
X008950Y-007080
X008950Y-008080
X008950Y-009080
X008950Y-010080
X008950Y-011080
X009950Y-002080
X009950Y-003080
X009950Y-004080
X009950Y-005080
X009950Y-006080
X009950Y-007080
X009950Y-008080
X009950Y-009080
X009950Y-010080
X009950Y-011080
X013004Y-002080
X013004Y-003080
X013004Y-004080
X013004Y-005080
X013004Y-006080
X013004Y-007080
X013004Y-008080
X013004Y-009080
X013004Y-010080
X013004Y-011080
X014004Y-002080
X014004Y-003080
X014004Y-004080
X014004Y-005080
X014004Y-006080
X014004Y-007080
X014004Y-008080
X014004Y-009080
X014004Y-010080
X014004Y-011080
T2
X016732Y-005846
X016732Y-006846
X018024Y-005850
X018024Y-006850
X019169Y-005850
X019169Y-006850
T0
M30
