G04 #@! TF.FileFunction,Legend,Top*
%FSLAX46Y46*%
G04 Gerber Fmt 4.6, Leading zero omitted, Abs format (unit mm)*
G04 Created by KiCad (PCBNEW (2016-10-28 revision 192d4b8)-makepkg) date 11/16/16 20:27:21*
%MOMM*%
%LPD*%
G01*
G04 APERTURE LIST*
%ADD10C,0.150000*%
%ADD11R,1.600000X1.000000*%
%ADD12O,2.000000X2.000000*%
%ADD13R,2.000000X2.000000*%
%ADD14R,2.032000X2.032000*%
%ADD15O,2.032000X2.032000*%
G04 APERTURE END LIST*
D10*
X37878571Y-31092855D02*
X37192857Y-31092855D01*
X37535714Y-31092855D02*
X37535714Y-29892855D01*
X37421428Y-30064283D01*
X37307142Y-30178569D01*
X37192857Y-30235712D01*
X38621428Y-29892855D02*
X38735714Y-29892855D01*
X38850000Y-29949998D01*
X38907142Y-30007140D01*
X38964285Y-30121426D01*
X39021428Y-30349998D01*
X39021428Y-30635712D01*
X38964285Y-30864283D01*
X38907142Y-30978569D01*
X38850000Y-31035712D01*
X38735714Y-31092855D01*
X38621428Y-31092855D01*
X38507142Y-31035712D01*
X38450000Y-30978569D01*
X38392857Y-30864283D01*
X38335714Y-30635712D01*
X38335714Y-30349998D01*
X38392857Y-30121426D01*
X38450000Y-30007140D01*
X38507142Y-29949998D01*
X38621428Y-29892855D01*
X39764285Y-29892855D02*
X39878571Y-29892855D01*
X39992857Y-29949998D01*
X40050000Y-30007140D01*
X40107142Y-30121426D01*
X40164285Y-30349998D01*
X40164285Y-30635712D01*
X40107142Y-30864283D01*
X40050000Y-30978569D01*
X39992857Y-31035712D01*
X39878571Y-31092855D01*
X39764285Y-31092855D01*
X39650000Y-31035712D01*
X39592857Y-30978569D01*
X39535714Y-30864283D01*
X39478571Y-30635712D01*
X39478571Y-30349998D01*
X39535714Y-30121426D01*
X39592857Y-30007140D01*
X39650000Y-29949998D01*
X39764285Y-29892855D01*
X40621428Y-30007140D02*
X40678571Y-29949998D01*
X40792857Y-29892855D01*
X41078571Y-29892855D01*
X41192857Y-29949998D01*
X41250000Y-30007140D01*
X41307142Y-30121426D01*
X41307142Y-30235712D01*
X41250000Y-30407140D01*
X40564285Y-31092855D01*
X41307142Y-31092855D01*
X27578571Y-31092855D02*
X26892857Y-31092855D01*
X27235714Y-31092855D02*
X27235714Y-29892855D01*
X27121428Y-30064283D01*
X27007142Y-30178569D01*
X26892857Y-30235712D01*
X28321428Y-29892855D02*
X28435714Y-29892855D01*
X28550000Y-29949998D01*
X28607142Y-30007140D01*
X28664285Y-30121426D01*
X28721428Y-30349998D01*
X28721428Y-30635712D01*
X28664285Y-30864283D01*
X28607142Y-30978569D01*
X28550000Y-31035712D01*
X28435714Y-31092855D01*
X28321428Y-31092855D01*
X28207142Y-31035712D01*
X28150000Y-30978569D01*
X28092857Y-30864283D01*
X28035714Y-30635712D01*
X28035714Y-30349998D01*
X28092857Y-30121426D01*
X28150000Y-30007140D01*
X28207142Y-29949998D01*
X28321428Y-29892855D01*
X29464285Y-29892855D02*
X29578571Y-29892855D01*
X29692857Y-29949998D01*
X29750000Y-30007140D01*
X29807142Y-30121426D01*
X29864285Y-30349998D01*
X29864285Y-30635712D01*
X29807142Y-30864283D01*
X29750000Y-30978569D01*
X29692857Y-31035712D01*
X29578571Y-31092855D01*
X29464285Y-31092855D01*
X29350000Y-31035712D01*
X29292857Y-30978569D01*
X29235714Y-30864283D01*
X29178571Y-30635712D01*
X29178571Y-30349998D01*
X29235714Y-30121426D01*
X29292857Y-30007140D01*
X29350000Y-29949998D01*
X29464285Y-29892855D01*
X31007142Y-31092855D02*
X30321428Y-31092855D01*
X30664285Y-31092855D02*
X30664285Y-29892855D01*
X30550000Y-30064283D01*
X30435714Y-30178569D01*
X30321428Y-30235712D01*
X17278571Y-31192855D02*
X16592857Y-31192855D01*
X16935714Y-31192855D02*
X16935714Y-29992855D01*
X16821428Y-30164283D01*
X16707142Y-30278569D01*
X16592857Y-30335712D01*
X18021428Y-29992855D02*
X18135714Y-29992855D01*
X18250000Y-30049998D01*
X18307142Y-30107140D01*
X18364285Y-30221426D01*
X18421428Y-30449998D01*
X18421428Y-30735712D01*
X18364285Y-30964283D01*
X18307142Y-31078569D01*
X18250000Y-31135712D01*
X18135714Y-31192855D01*
X18021428Y-31192855D01*
X17907142Y-31135712D01*
X17850000Y-31078569D01*
X17792857Y-30964283D01*
X17735714Y-30735712D01*
X17735714Y-30449998D01*
X17792857Y-30221426D01*
X17850000Y-30107140D01*
X17907142Y-30049998D01*
X18021428Y-29992855D01*
X19164285Y-29992855D02*
X19278571Y-29992855D01*
X19392857Y-30049998D01*
X19450000Y-30107140D01*
X19507142Y-30221426D01*
X19564285Y-30449998D01*
X19564285Y-30735712D01*
X19507142Y-30964283D01*
X19450000Y-31078569D01*
X19392857Y-31135712D01*
X19278571Y-31192855D01*
X19164285Y-31192855D01*
X19050000Y-31135712D01*
X18992857Y-31078569D01*
X18935714Y-30964283D01*
X18878571Y-30735712D01*
X18878571Y-30449998D01*
X18935714Y-30221426D01*
X18992857Y-30107140D01*
X19050000Y-30049998D01*
X19164285Y-29992855D01*
X20307142Y-29992855D02*
X20421428Y-29992855D01*
X20535714Y-30049998D01*
X20592857Y-30107140D01*
X20650000Y-30221426D01*
X20707142Y-30449998D01*
X20707142Y-30735712D01*
X20650000Y-30964283D01*
X20592857Y-31078569D01*
X20535714Y-31135712D01*
X20421428Y-31192855D01*
X20307142Y-31192855D01*
X20192857Y-31135712D01*
X20135714Y-31078569D01*
X20078571Y-30964283D01*
X20021428Y-30735712D01*
X20021428Y-30449998D01*
X20078571Y-30221426D01*
X20135714Y-30107140D01*
X20192857Y-30049998D01*
X20307142Y-29992855D01*
X6950000Y-31192855D02*
X6264285Y-31192855D01*
X6607142Y-31192855D02*
X6607142Y-29992855D01*
X6492857Y-30164283D01*
X6378571Y-30278569D01*
X6264285Y-30335712D01*
X7692857Y-29992855D02*
X7807142Y-29992855D01*
X7921428Y-30049998D01*
X7978571Y-30107140D01*
X8035714Y-30221426D01*
X8092857Y-30449998D01*
X8092857Y-30735712D01*
X8035714Y-30964283D01*
X7978571Y-31078569D01*
X7921428Y-31135712D01*
X7807142Y-31192855D01*
X7692857Y-31192855D01*
X7578571Y-31135712D01*
X7521428Y-31078569D01*
X7464285Y-30964283D01*
X7407142Y-30735712D01*
X7407142Y-30449998D01*
X7464285Y-30221426D01*
X7521428Y-30107140D01*
X7578571Y-30049998D01*
X7692857Y-29992855D01*
X9292857Y-31192855D02*
X8892857Y-30621426D01*
X8607142Y-31192855D02*
X8607142Y-29992855D01*
X9064285Y-29992855D01*
X9178571Y-30049998D01*
X9235714Y-30107140D01*
X9292857Y-30221426D01*
X9292857Y-30392855D01*
X9235714Y-30507140D01*
X9178571Y-30564283D01*
X9064285Y-30621426D01*
X8607142Y-30621426D01*
X10035714Y-29992855D02*
X10150000Y-29992855D01*
X10264285Y-30049998D01*
X10321428Y-30107140D01*
X10378571Y-30221426D01*
X10435714Y-30449998D01*
X10435714Y-30735712D01*
X10378571Y-30964283D01*
X10321428Y-31078569D01*
X10264285Y-31135712D01*
X10150000Y-31192855D01*
X10035714Y-31192855D01*
X9921428Y-31135712D01*
X9864285Y-31078569D01*
X9807142Y-30964283D01*
X9750000Y-30735712D01*
X9750000Y-30449998D01*
X9807142Y-30221426D01*
X9864285Y-30107140D01*
X9921428Y-30049998D01*
X10035714Y-29992855D01*
X16515944Y-12508675D02*
X16515944Y-10708675D01*
X18315944Y-12508675D02*
X18315944Y-10708675D01*
X8020944Y-27748675D02*
X8020944Y-25948675D01*
X6220944Y-27748675D02*
X6220944Y-25948675D01*
X39391944Y-20128675D02*
X39391944Y-18328675D01*
X41191944Y-20128675D02*
X41191944Y-18328675D01*
X38905944Y-22668675D02*
X38905944Y-20868675D01*
X37105944Y-22668675D02*
X37105944Y-20868675D01*
X41191944Y-25208675D02*
X41191944Y-23408675D01*
X39391944Y-25208675D02*
X39391944Y-23408675D01*
X37105944Y-27748675D02*
X37105944Y-25948675D01*
X38905944Y-27748675D02*
X38905944Y-25948675D01*
X39391944Y-9968675D02*
X39391944Y-8168675D01*
X41191944Y-9968675D02*
X41191944Y-8168675D01*
X38905944Y-12508675D02*
X38905944Y-10708675D01*
X37105944Y-12508675D02*
X37105944Y-10708675D01*
X41191944Y-15048675D02*
X41191944Y-13248675D01*
X39391944Y-15048675D02*
X39391944Y-13248675D01*
X37105944Y-17588675D02*
X37105944Y-15788675D01*
X38905944Y-17588675D02*
X38905944Y-15788675D01*
X37105944Y-7428675D02*
X37105944Y-5628675D01*
X38905944Y-7428675D02*
X38905944Y-5628675D01*
X30896944Y-20128675D02*
X30896944Y-18328675D01*
X29096944Y-20128675D02*
X29096944Y-18328675D01*
X26810944Y-22668675D02*
X26810944Y-20868675D01*
X28610944Y-22668675D02*
X28610944Y-20868675D01*
X29096944Y-25208675D02*
X29096944Y-23408675D01*
X30896944Y-25208675D02*
X30896944Y-23408675D01*
X28610944Y-27748675D02*
X28610944Y-25948675D01*
X26810944Y-27748675D02*
X26810944Y-25948675D01*
X30896944Y-9968675D02*
X30896944Y-8168675D01*
X29096944Y-9968675D02*
X29096944Y-8168675D01*
X26810944Y-12508675D02*
X26810944Y-10708675D01*
X28610944Y-12508675D02*
X28610944Y-10708675D01*
X29096944Y-15048675D02*
X29096944Y-13248675D01*
X30896944Y-15048675D02*
X30896944Y-13248675D01*
X28610944Y-17588675D02*
X28610944Y-15788675D01*
X26810944Y-17588675D02*
X26810944Y-15788675D01*
X28610944Y-7428675D02*
X28610944Y-5628675D01*
X26810944Y-7428675D02*
X26810944Y-5628675D01*
X20601944Y-20128675D02*
X20601944Y-18328675D01*
X18801944Y-20128675D02*
X18801944Y-18328675D01*
X16515944Y-22668675D02*
X16515944Y-20868675D01*
X18315944Y-22668675D02*
X18315944Y-20868675D01*
X18801944Y-25208675D02*
X18801944Y-23408675D01*
X20601944Y-25208675D02*
X20601944Y-23408675D01*
X18315944Y-27748675D02*
X18315944Y-25948675D01*
X16515944Y-27748675D02*
X16515944Y-25948675D01*
X20601944Y-9968675D02*
X20601944Y-8168675D01*
X18801944Y-9968675D02*
X18801944Y-8168675D01*
X18801944Y-15048675D02*
X18801944Y-13248675D01*
X20601944Y-15048675D02*
X20601944Y-13248675D01*
X18315944Y-17588675D02*
X18315944Y-15788675D01*
X16515944Y-17588675D02*
X16515944Y-15788675D01*
X18315944Y-7428675D02*
X18315944Y-5628675D01*
X16515944Y-7428675D02*
X16515944Y-5628675D01*
X10306944Y-9968675D02*
X10306944Y-8168675D01*
X8506944Y-9968675D02*
X8506944Y-8168675D01*
X8506944Y-15048675D02*
X8506944Y-13248675D01*
X10306944Y-15048675D02*
X10306944Y-13248675D01*
X10306944Y-20128675D02*
X10306944Y-18328675D01*
X8506944Y-20128675D02*
X8506944Y-18328675D01*
X8506944Y-25208675D02*
X8506944Y-23408675D01*
X10306944Y-25208675D02*
X10306944Y-23408675D01*
X8020944Y-7428675D02*
X8020944Y-5628675D01*
X6220944Y-7428675D02*
X6220944Y-5628675D01*
X6220944Y-12508675D02*
X6220944Y-10708675D01*
X8020944Y-12508675D02*
X8020944Y-10708675D01*
X8020944Y-17588675D02*
X8020944Y-15788675D01*
X6220944Y-17588675D02*
X6220944Y-15788675D01*
X6220944Y-22668675D02*
X6220944Y-20868675D01*
X8020944Y-22668675D02*
X8020944Y-20868675D01*
X49960000Y-13590000D02*
X47420000Y-13590000D01*
X49960000Y-16130000D02*
X49960000Y-13590000D01*
X50240000Y-18950000D02*
X47140000Y-18950000D01*
X50240000Y-17400000D02*
X50240000Y-18950000D01*
X47420000Y-16130000D02*
X49960000Y-16130000D01*
X47140000Y-18950000D02*
X47140000Y-17400000D01*
X47420000Y-16130000D02*
X47420000Y-13590000D01*
%LPC*%
D11*
X17415944Y-9908675D03*
X17415944Y-13308675D03*
X7120944Y-28548675D03*
X7120944Y-25148675D03*
D12*
X33028944Y-28142675D03*
X35568944Y-28142675D03*
X33028944Y-25602675D03*
X35568944Y-25602675D03*
X33028944Y-23062675D03*
X35568944Y-23062675D03*
X33028944Y-20522675D03*
X35568944Y-20522675D03*
X33028944Y-17982675D03*
X35568944Y-17982675D03*
X33028944Y-15442675D03*
X35568944Y-15442675D03*
X33028944Y-12902675D03*
X35568944Y-12902675D03*
X33028944Y-10362675D03*
X35568944Y-10362675D03*
X33028944Y-7822675D03*
X35568944Y-7822675D03*
X33028944Y-5282675D03*
D13*
X35568944Y-5282675D03*
D11*
X40291944Y-17528675D03*
X40291944Y-20928675D03*
X38005944Y-23468675D03*
X38005944Y-20068675D03*
X40291944Y-26008675D03*
X40291944Y-22608675D03*
X38005944Y-25148675D03*
X38005944Y-28548675D03*
X40291944Y-7368675D03*
X40291944Y-10768675D03*
X38005944Y-13308675D03*
X38005944Y-9908675D03*
X40291944Y-15848675D03*
X40291944Y-12448675D03*
X38005944Y-14988675D03*
X38005944Y-18388675D03*
X38005944Y-4828675D03*
X38005944Y-8228675D03*
D13*
X25273944Y-5282675D03*
D12*
X22733944Y-5282675D03*
X25273944Y-7822675D03*
X22733944Y-7822675D03*
X25273944Y-10362675D03*
X22733944Y-10362675D03*
X25273944Y-12902675D03*
X22733944Y-12902675D03*
X25273944Y-15442675D03*
X22733944Y-15442675D03*
X25273944Y-17982675D03*
X22733944Y-17982675D03*
X25273944Y-20522675D03*
X22733944Y-20522675D03*
X25273944Y-23062675D03*
X22733944Y-23062675D03*
X25273944Y-25602675D03*
X22733944Y-25602675D03*
X25273944Y-28142675D03*
X22733944Y-28142675D03*
D11*
X29996944Y-20928675D03*
X29996944Y-17528675D03*
X27710944Y-20068675D03*
X27710944Y-23468675D03*
X29996944Y-22608675D03*
X29996944Y-26008675D03*
X27710944Y-28548675D03*
X27710944Y-25148675D03*
X29996944Y-10768675D03*
X29996944Y-7368675D03*
X27710944Y-9908675D03*
X27710944Y-13308675D03*
X29996944Y-12448675D03*
X29996944Y-15848675D03*
X27710944Y-18388675D03*
X27710944Y-14988675D03*
X27710944Y-8228675D03*
X27710944Y-4828675D03*
D13*
X14978944Y-5282675D03*
D12*
X12438944Y-5282675D03*
X14978944Y-7822675D03*
X12438944Y-7822675D03*
X14978944Y-10362675D03*
X12438944Y-10362675D03*
X14978944Y-12902675D03*
X12438944Y-12902675D03*
X14978944Y-15442675D03*
X12438944Y-15442675D03*
X14978944Y-17982675D03*
X12438944Y-17982675D03*
X14978944Y-20522675D03*
X12438944Y-20522675D03*
X14978944Y-23062675D03*
X12438944Y-23062675D03*
X14978944Y-25602675D03*
X12438944Y-25602675D03*
X14978944Y-28142675D03*
X12438944Y-28142675D03*
D11*
X19701944Y-20928675D03*
X19701944Y-17528675D03*
X17415944Y-20068675D03*
X17415944Y-23468675D03*
X19701944Y-22608675D03*
X19701944Y-26008675D03*
X17415944Y-28548675D03*
X17415944Y-25148675D03*
X19701944Y-10768675D03*
X19701944Y-7368675D03*
X19701944Y-12448675D03*
X19701944Y-15848675D03*
X17415944Y-18388675D03*
X17415944Y-14988675D03*
X17415944Y-8228675D03*
X17415944Y-4828675D03*
X9406944Y-10768675D03*
X9406944Y-7368675D03*
X9406944Y-12448675D03*
X9406944Y-15848675D03*
X9406944Y-20928675D03*
X9406944Y-17528675D03*
X9406944Y-22608675D03*
X9406944Y-26008675D03*
X7120944Y-8228675D03*
X7120944Y-4828675D03*
X7120944Y-9908675D03*
X7120944Y-13308675D03*
X7120944Y-18388675D03*
X7120944Y-14988675D03*
X7120944Y-20068675D03*
X7120944Y-23468675D03*
D13*
X4683944Y-5282675D03*
D12*
X2143944Y-5282675D03*
X4683944Y-7822675D03*
X2143944Y-7822675D03*
X4683944Y-10362675D03*
X2143944Y-10362675D03*
X4683944Y-12902675D03*
X2143944Y-12902675D03*
X4683944Y-15442675D03*
X2143944Y-15442675D03*
X4683944Y-17982675D03*
X2143944Y-17982675D03*
X4683944Y-20522675D03*
X2143944Y-20522675D03*
X4683944Y-23062675D03*
X2143944Y-23062675D03*
X4683944Y-25602675D03*
X2143944Y-25602675D03*
X4683944Y-28142675D03*
X2143944Y-28142675D03*
D14*
X42500000Y-17389998D03*
D15*
X42500000Y-14849998D03*
X45780000Y-14860000D03*
D14*
X45780000Y-17400000D03*
X48690000Y-17400000D03*
D15*
X48690000Y-14860000D03*
M02*
