G04 #@! TF.FileFunction,Copper,L2,Bot,Signal*
%FSLAX46Y46*%
G04 Gerber Fmt 4.6, Leading zero omitted, Abs format (unit mm)*
G04 Created by KiCad (PCBNEW (2016-10-28 revision 192d4b8)-makepkg) date 11/16/16 20:27:21*
%MOMM*%
%LPD*%
G01*
G04 APERTURE LIST*
%ADD10C,0.150000*%
%ADD11O,2.000000X2.000000*%
%ADD12R,2.000000X2.000000*%
%ADD13R,2.032000X2.032000*%
%ADD14O,2.032000X2.032000*%
%ADD15C,0.254000*%
G04 APERTURE END LIST*
D10*
D11*
X33028944Y-28142675D03*
X35568944Y-28142675D03*
X33028944Y-25602675D03*
X35568944Y-25602675D03*
X33028944Y-23062675D03*
X35568944Y-23062675D03*
X33028944Y-20522675D03*
X35568944Y-20522675D03*
X33028944Y-17982675D03*
X35568944Y-17982675D03*
X33028944Y-15442675D03*
X35568944Y-15442675D03*
X33028944Y-12902675D03*
X35568944Y-12902675D03*
X33028944Y-10362675D03*
X35568944Y-10362675D03*
X33028944Y-7822675D03*
X35568944Y-7822675D03*
X33028944Y-5282675D03*
D12*
X35568944Y-5282675D03*
X25273944Y-5282675D03*
D11*
X22733944Y-5282675D03*
X25273944Y-7822675D03*
X22733944Y-7822675D03*
X25273944Y-10362675D03*
X22733944Y-10362675D03*
X25273944Y-12902675D03*
X22733944Y-12902675D03*
X25273944Y-15442675D03*
X22733944Y-15442675D03*
X25273944Y-17982675D03*
X22733944Y-17982675D03*
X25273944Y-20522675D03*
X22733944Y-20522675D03*
X25273944Y-23062675D03*
X22733944Y-23062675D03*
X25273944Y-25602675D03*
X22733944Y-25602675D03*
X25273944Y-28142675D03*
X22733944Y-28142675D03*
D12*
X14978944Y-5282675D03*
D11*
X12438944Y-5282675D03*
X14978944Y-7822675D03*
X12438944Y-7822675D03*
X14978944Y-10362675D03*
X12438944Y-10362675D03*
X14978944Y-12902675D03*
X12438944Y-12902675D03*
X14978944Y-15442675D03*
X12438944Y-15442675D03*
X14978944Y-17982675D03*
X12438944Y-17982675D03*
X14978944Y-20522675D03*
X12438944Y-20522675D03*
X14978944Y-23062675D03*
X12438944Y-23062675D03*
X14978944Y-25602675D03*
X12438944Y-25602675D03*
X14978944Y-28142675D03*
X12438944Y-28142675D03*
D12*
X4683944Y-5282675D03*
D11*
X2143944Y-5282675D03*
X4683944Y-7822675D03*
X2143944Y-7822675D03*
X4683944Y-10362675D03*
X2143944Y-10362675D03*
X4683944Y-12902675D03*
X2143944Y-12902675D03*
X4683944Y-15442675D03*
X2143944Y-15442675D03*
X4683944Y-17982675D03*
X2143944Y-17982675D03*
X4683944Y-20522675D03*
X2143944Y-20522675D03*
X4683944Y-23062675D03*
X2143944Y-23062675D03*
X4683944Y-25602675D03*
X2143944Y-25602675D03*
X4683944Y-28142675D03*
X2143944Y-28142675D03*
D13*
X42500000Y-17389998D03*
D14*
X42500000Y-14849998D03*
X45780000Y-14860000D03*
D13*
X45780000Y-17400000D03*
X48690000Y-17400000D03*
D14*
X48690000Y-14860000D03*
D15*
G36*
X9508551Y-32459535D02*
X874154Y-32459535D01*
X874154Y-28720763D01*
X1140375Y-29119189D01*
X1588403Y-29418553D01*
X2116889Y-29523675D01*
X2170999Y-29523675D01*
X2699485Y-29418553D01*
X3147513Y-29119189D01*
X3413944Y-28720449D01*
X3680375Y-29119189D01*
X4128403Y-29418553D01*
X4656889Y-29523675D01*
X4710999Y-29523675D01*
X5239485Y-29418553D01*
X5687513Y-29119189D01*
X5986877Y-28671161D01*
X6091999Y-28142675D01*
X5986877Y-27614189D01*
X5687513Y-27166161D01*
X5248282Y-26872675D01*
X5687513Y-26579189D01*
X5986877Y-26131161D01*
X6091999Y-25602675D01*
X5986877Y-25074189D01*
X5687513Y-24626161D01*
X5248282Y-24332675D01*
X5687513Y-24039189D01*
X5986877Y-23591161D01*
X6091999Y-23062675D01*
X5986877Y-22534189D01*
X5687513Y-22086161D01*
X5248282Y-21792675D01*
X5687513Y-21499189D01*
X5986877Y-21051161D01*
X6091999Y-20522675D01*
X5986877Y-19994189D01*
X5687513Y-19546161D01*
X5248282Y-19252675D01*
X5687513Y-18959189D01*
X5986877Y-18511161D01*
X6091999Y-17982675D01*
X5986877Y-17454189D01*
X5687513Y-17006161D01*
X5248282Y-16712675D01*
X5687513Y-16419189D01*
X5986877Y-15971161D01*
X6091999Y-15442675D01*
X5986877Y-14914189D01*
X5687513Y-14466161D01*
X5248282Y-14172675D01*
X5687513Y-13879189D01*
X5986877Y-13431161D01*
X6091999Y-12902675D01*
X5986877Y-12374189D01*
X5687513Y-11926161D01*
X5248282Y-11632675D01*
X5687513Y-11339189D01*
X5986877Y-10891161D01*
X6091999Y-10362675D01*
X5986877Y-9834189D01*
X5687513Y-9386161D01*
X5248282Y-9092675D01*
X5687513Y-8799189D01*
X5986877Y-8351161D01*
X6091999Y-7822675D01*
X5986877Y-7294189D01*
X5687513Y-6846161D01*
X5425575Y-6671139D01*
X5683944Y-6671139D01*
X5832603Y-6641569D01*
X5958630Y-6557361D01*
X6042838Y-6431334D01*
X6072408Y-6282675D01*
X6072408Y-4282675D01*
X6042838Y-4134016D01*
X5960999Y-4011535D01*
X9510147Y-4011535D01*
X9508551Y-32459535D01*
X9508551Y-32459535D01*
G37*
X9508551Y-32459535D02*
X874154Y-32459535D01*
X874154Y-28720763D01*
X1140375Y-29119189D01*
X1588403Y-29418553D01*
X2116889Y-29523675D01*
X2170999Y-29523675D01*
X2699485Y-29418553D01*
X3147513Y-29119189D01*
X3413944Y-28720449D01*
X3680375Y-29119189D01*
X4128403Y-29418553D01*
X4656889Y-29523675D01*
X4710999Y-29523675D01*
X5239485Y-29418553D01*
X5687513Y-29119189D01*
X5986877Y-28671161D01*
X6091999Y-28142675D01*
X5986877Y-27614189D01*
X5687513Y-27166161D01*
X5248282Y-26872675D01*
X5687513Y-26579189D01*
X5986877Y-26131161D01*
X6091999Y-25602675D01*
X5986877Y-25074189D01*
X5687513Y-24626161D01*
X5248282Y-24332675D01*
X5687513Y-24039189D01*
X5986877Y-23591161D01*
X6091999Y-23062675D01*
X5986877Y-22534189D01*
X5687513Y-22086161D01*
X5248282Y-21792675D01*
X5687513Y-21499189D01*
X5986877Y-21051161D01*
X6091999Y-20522675D01*
X5986877Y-19994189D01*
X5687513Y-19546161D01*
X5248282Y-19252675D01*
X5687513Y-18959189D01*
X5986877Y-18511161D01*
X6091999Y-17982675D01*
X5986877Y-17454189D01*
X5687513Y-17006161D01*
X5248282Y-16712675D01*
X5687513Y-16419189D01*
X5986877Y-15971161D01*
X6091999Y-15442675D01*
X5986877Y-14914189D01*
X5687513Y-14466161D01*
X5248282Y-14172675D01*
X5687513Y-13879189D01*
X5986877Y-13431161D01*
X6091999Y-12902675D01*
X5986877Y-12374189D01*
X5687513Y-11926161D01*
X5248282Y-11632675D01*
X5687513Y-11339189D01*
X5986877Y-10891161D01*
X6091999Y-10362675D01*
X5986877Y-9834189D01*
X5687513Y-9386161D01*
X5248282Y-9092675D01*
X5687513Y-8799189D01*
X5986877Y-8351161D01*
X6091999Y-7822675D01*
X5986877Y-7294189D01*
X5687513Y-6846161D01*
X5425575Y-6671139D01*
X5683944Y-6671139D01*
X5832603Y-6641569D01*
X5958630Y-6557361D01*
X6042838Y-6431334D01*
X6072408Y-6282675D01*
X6072408Y-4282675D01*
X6042838Y-4134016D01*
X5960999Y-4011535D01*
X9510147Y-4011535D01*
X9508551Y-32459535D01*
G36*
X3680375Y-26579189D02*
X4119606Y-26872675D01*
X3680375Y-27166161D01*
X3413944Y-27564901D01*
X3147513Y-27166161D01*
X2708282Y-26872675D01*
X3147513Y-26579189D01*
X3413944Y-26180449D01*
X3680375Y-26579189D01*
X3680375Y-26579189D01*
G37*
X3680375Y-26579189D02*
X4119606Y-26872675D01*
X3680375Y-27166161D01*
X3413944Y-27564901D01*
X3147513Y-27166161D01*
X2708282Y-26872675D01*
X3147513Y-26579189D01*
X3413944Y-26180449D01*
X3680375Y-26579189D01*
G36*
X1140375Y-26579189D02*
X1579606Y-26872675D01*
X1140375Y-27166161D01*
X874154Y-27564587D01*
X874154Y-26180763D01*
X1140375Y-26579189D01*
X1140375Y-26579189D01*
G37*
X1140375Y-26579189D02*
X1579606Y-26872675D01*
X1140375Y-27166161D01*
X874154Y-27564587D01*
X874154Y-26180763D01*
X1140375Y-26579189D01*
G36*
X3680375Y-24039189D02*
X4119606Y-24332675D01*
X3680375Y-24626161D01*
X3413944Y-25024901D01*
X3147513Y-24626161D01*
X2708282Y-24332675D01*
X3147513Y-24039189D01*
X3413944Y-23640449D01*
X3680375Y-24039189D01*
X3680375Y-24039189D01*
G37*
X3680375Y-24039189D02*
X4119606Y-24332675D01*
X3680375Y-24626161D01*
X3413944Y-25024901D01*
X3147513Y-24626161D01*
X2708282Y-24332675D01*
X3147513Y-24039189D01*
X3413944Y-23640449D01*
X3680375Y-24039189D01*
G36*
X1140375Y-24039189D02*
X1579606Y-24332675D01*
X1140375Y-24626161D01*
X874154Y-25024587D01*
X874154Y-23640763D01*
X1140375Y-24039189D01*
X1140375Y-24039189D01*
G37*
X1140375Y-24039189D02*
X1579606Y-24332675D01*
X1140375Y-24626161D01*
X874154Y-25024587D01*
X874154Y-23640763D01*
X1140375Y-24039189D01*
G36*
X3680375Y-21499189D02*
X4119606Y-21792675D01*
X3680375Y-22086161D01*
X3413944Y-22484901D01*
X3147513Y-22086161D01*
X2708282Y-21792675D01*
X3147513Y-21499189D01*
X3413944Y-21100449D01*
X3680375Y-21499189D01*
X3680375Y-21499189D01*
G37*
X3680375Y-21499189D02*
X4119606Y-21792675D01*
X3680375Y-22086161D01*
X3413944Y-22484901D01*
X3147513Y-22086161D01*
X2708282Y-21792675D01*
X3147513Y-21499189D01*
X3413944Y-21100449D01*
X3680375Y-21499189D01*
G36*
X1140375Y-21499189D02*
X1579606Y-21792675D01*
X1140375Y-22086161D01*
X874154Y-22484587D01*
X874154Y-21100763D01*
X1140375Y-21499189D01*
X1140375Y-21499189D01*
G37*
X1140375Y-21499189D02*
X1579606Y-21792675D01*
X1140375Y-22086161D01*
X874154Y-22484587D01*
X874154Y-21100763D01*
X1140375Y-21499189D01*
G36*
X3680375Y-18959189D02*
X4119606Y-19252675D01*
X3680375Y-19546161D01*
X3413944Y-19944901D01*
X3147513Y-19546161D01*
X2708282Y-19252675D01*
X3147513Y-18959189D01*
X3413944Y-18560449D01*
X3680375Y-18959189D01*
X3680375Y-18959189D01*
G37*
X3680375Y-18959189D02*
X4119606Y-19252675D01*
X3680375Y-19546161D01*
X3413944Y-19944901D01*
X3147513Y-19546161D01*
X2708282Y-19252675D01*
X3147513Y-18959189D01*
X3413944Y-18560449D01*
X3680375Y-18959189D01*
G36*
X1140375Y-18959189D02*
X1579606Y-19252675D01*
X1140375Y-19546161D01*
X874154Y-19944587D01*
X874154Y-18560763D01*
X1140375Y-18959189D01*
X1140375Y-18959189D01*
G37*
X1140375Y-18959189D02*
X1579606Y-19252675D01*
X1140375Y-19546161D01*
X874154Y-19944587D01*
X874154Y-18560763D01*
X1140375Y-18959189D01*
G36*
X3680375Y-16419189D02*
X4119606Y-16712675D01*
X3680375Y-17006161D01*
X3413944Y-17404901D01*
X3147513Y-17006161D01*
X2708282Y-16712675D01*
X3147513Y-16419189D01*
X3413944Y-16020449D01*
X3680375Y-16419189D01*
X3680375Y-16419189D01*
G37*
X3680375Y-16419189D02*
X4119606Y-16712675D01*
X3680375Y-17006161D01*
X3413944Y-17404901D01*
X3147513Y-17006161D01*
X2708282Y-16712675D01*
X3147513Y-16419189D01*
X3413944Y-16020449D01*
X3680375Y-16419189D01*
G36*
X1140375Y-16419189D02*
X1579606Y-16712675D01*
X1140375Y-17006161D01*
X874154Y-17404587D01*
X874154Y-16020763D01*
X1140375Y-16419189D01*
X1140375Y-16419189D01*
G37*
X1140375Y-16419189D02*
X1579606Y-16712675D01*
X1140375Y-17006161D01*
X874154Y-17404587D01*
X874154Y-16020763D01*
X1140375Y-16419189D01*
G36*
X3680375Y-13879189D02*
X4119606Y-14172675D01*
X3680375Y-14466161D01*
X3413944Y-14864901D01*
X3147513Y-14466161D01*
X2708282Y-14172675D01*
X3147513Y-13879189D01*
X3413944Y-13480449D01*
X3680375Y-13879189D01*
X3680375Y-13879189D01*
G37*
X3680375Y-13879189D02*
X4119606Y-14172675D01*
X3680375Y-14466161D01*
X3413944Y-14864901D01*
X3147513Y-14466161D01*
X2708282Y-14172675D01*
X3147513Y-13879189D01*
X3413944Y-13480449D01*
X3680375Y-13879189D01*
G36*
X1140375Y-13879189D02*
X1579606Y-14172675D01*
X1140375Y-14466161D01*
X874154Y-14864587D01*
X874154Y-13480763D01*
X1140375Y-13879189D01*
X1140375Y-13879189D01*
G37*
X1140375Y-13879189D02*
X1579606Y-14172675D01*
X1140375Y-14466161D01*
X874154Y-14864587D01*
X874154Y-13480763D01*
X1140375Y-13879189D01*
G36*
X3680375Y-11339189D02*
X4119606Y-11632675D01*
X3680375Y-11926161D01*
X3413944Y-12324901D01*
X3147513Y-11926161D01*
X2708282Y-11632675D01*
X3147513Y-11339189D01*
X3413944Y-10940449D01*
X3680375Y-11339189D01*
X3680375Y-11339189D01*
G37*
X3680375Y-11339189D02*
X4119606Y-11632675D01*
X3680375Y-11926161D01*
X3413944Y-12324901D01*
X3147513Y-11926161D01*
X2708282Y-11632675D01*
X3147513Y-11339189D01*
X3413944Y-10940449D01*
X3680375Y-11339189D01*
G36*
X1140375Y-11339189D02*
X1579606Y-11632675D01*
X1140375Y-11926161D01*
X874154Y-12324587D01*
X874154Y-10940763D01*
X1140375Y-11339189D01*
X1140375Y-11339189D01*
G37*
X1140375Y-11339189D02*
X1579606Y-11632675D01*
X1140375Y-11926161D01*
X874154Y-12324587D01*
X874154Y-10940763D01*
X1140375Y-11339189D01*
G36*
X3680375Y-8799189D02*
X4119606Y-9092675D01*
X3680375Y-9386161D01*
X3413944Y-9784901D01*
X3147513Y-9386161D01*
X2708282Y-9092675D01*
X3147513Y-8799189D01*
X3413944Y-8400449D01*
X3680375Y-8799189D01*
X3680375Y-8799189D01*
G37*
X3680375Y-8799189D02*
X4119606Y-9092675D01*
X3680375Y-9386161D01*
X3413944Y-9784901D01*
X3147513Y-9386161D01*
X2708282Y-9092675D01*
X3147513Y-8799189D01*
X3413944Y-8400449D01*
X3680375Y-8799189D01*
G36*
X1140375Y-8799189D02*
X1579606Y-9092675D01*
X1140375Y-9386161D01*
X874154Y-9784587D01*
X874154Y-8400763D01*
X1140375Y-8799189D01*
X1140375Y-8799189D01*
G37*
X1140375Y-8799189D02*
X1579606Y-9092675D01*
X1140375Y-9386161D01*
X874154Y-9784587D01*
X874154Y-8400763D01*
X1140375Y-8799189D01*
G36*
X3295480Y-6282675D02*
X3325050Y-6431334D01*
X3409258Y-6557361D01*
X3535285Y-6641569D01*
X3683944Y-6671139D01*
X3942313Y-6671139D01*
X3680375Y-6846161D01*
X3413944Y-7244901D01*
X3147513Y-6846161D01*
X2708282Y-6552675D01*
X3147513Y-6259189D01*
X3295480Y-6037742D01*
X3295480Y-6282675D01*
X3295480Y-6282675D01*
G37*
X3295480Y-6282675D02*
X3325050Y-6431334D01*
X3409258Y-6557361D01*
X3535285Y-6641569D01*
X3683944Y-6671139D01*
X3942313Y-6671139D01*
X3680375Y-6846161D01*
X3413944Y-7244901D01*
X3147513Y-6846161D01*
X2708282Y-6552675D01*
X3147513Y-6259189D01*
X3295480Y-6037742D01*
X3295480Y-6282675D01*
G36*
X1140375Y-6259189D02*
X1579606Y-6552675D01*
X1140375Y-6846161D01*
X874154Y-7244587D01*
X874154Y-5860763D01*
X1140375Y-6259189D01*
X1140375Y-6259189D01*
G37*
X1140375Y-6259189D02*
X1579606Y-6552675D01*
X1140375Y-6846161D01*
X874154Y-7244587D01*
X874154Y-5860763D01*
X1140375Y-6259189D01*
G36*
X1140375Y-4306161D02*
X874154Y-4704587D01*
X874154Y-4011535D01*
X1581312Y-4011535D01*
X1140375Y-4306161D01*
X1140375Y-4306161D01*
G37*
X1140375Y-4306161D02*
X874154Y-4704587D01*
X874154Y-4011535D01*
X1581312Y-4011535D01*
X1140375Y-4306161D01*
G36*
X3325050Y-4134016D02*
X3295480Y-4282675D01*
X3295480Y-4527608D01*
X3147513Y-4306161D01*
X2706576Y-4011535D01*
X3406889Y-4011535D01*
X3325050Y-4134016D01*
X3325050Y-4134016D01*
G37*
X3325050Y-4134016D02*
X3295480Y-4282675D01*
X3295480Y-4527608D01*
X3147513Y-4306161D01*
X2706576Y-4011535D01*
X3406889Y-4011535D01*
X3325050Y-4134016D01*
G36*
X19803551Y-32459535D02*
X11169154Y-32459535D01*
X11169154Y-28720763D01*
X11435375Y-29119189D01*
X11883403Y-29418553D01*
X12411889Y-29523675D01*
X12465999Y-29523675D01*
X12994485Y-29418553D01*
X13442513Y-29119189D01*
X13708944Y-28720449D01*
X13975375Y-29119189D01*
X14423403Y-29418553D01*
X14951889Y-29523675D01*
X15005999Y-29523675D01*
X15534485Y-29418553D01*
X15982513Y-29119189D01*
X16281877Y-28671161D01*
X16386999Y-28142675D01*
X16281877Y-27614189D01*
X15982513Y-27166161D01*
X15543282Y-26872675D01*
X15982513Y-26579189D01*
X16281877Y-26131161D01*
X16386999Y-25602675D01*
X16281877Y-25074189D01*
X15982513Y-24626161D01*
X15543282Y-24332675D01*
X15982513Y-24039189D01*
X16281877Y-23591161D01*
X16386999Y-23062675D01*
X16281877Y-22534189D01*
X15982513Y-22086161D01*
X15543282Y-21792675D01*
X15982513Y-21499189D01*
X16281877Y-21051161D01*
X16386999Y-20522675D01*
X16281877Y-19994189D01*
X15982513Y-19546161D01*
X15543282Y-19252675D01*
X15982513Y-18959189D01*
X16281877Y-18511161D01*
X16386999Y-17982675D01*
X16281877Y-17454189D01*
X15982513Y-17006161D01*
X15543282Y-16712675D01*
X15982513Y-16419189D01*
X16281877Y-15971161D01*
X16386999Y-15442675D01*
X16281877Y-14914189D01*
X15982513Y-14466161D01*
X15543282Y-14172675D01*
X15982513Y-13879189D01*
X16281877Y-13431161D01*
X16386999Y-12902675D01*
X16281877Y-12374189D01*
X15982513Y-11926161D01*
X15543282Y-11632675D01*
X15982513Y-11339189D01*
X16281877Y-10891161D01*
X16386999Y-10362675D01*
X16281877Y-9834189D01*
X15982513Y-9386161D01*
X15543282Y-9092675D01*
X15982513Y-8799189D01*
X16281877Y-8351161D01*
X16386999Y-7822675D01*
X16281877Y-7294189D01*
X15982513Y-6846161D01*
X15720575Y-6671139D01*
X15978944Y-6671139D01*
X16127603Y-6641569D01*
X16253630Y-6557361D01*
X16337838Y-6431334D01*
X16367408Y-6282675D01*
X16367408Y-4282675D01*
X16337838Y-4134016D01*
X16255999Y-4011535D01*
X19805147Y-4011535D01*
X19803551Y-32459535D01*
X19803551Y-32459535D01*
G37*
X19803551Y-32459535D02*
X11169154Y-32459535D01*
X11169154Y-28720763D01*
X11435375Y-29119189D01*
X11883403Y-29418553D01*
X12411889Y-29523675D01*
X12465999Y-29523675D01*
X12994485Y-29418553D01*
X13442513Y-29119189D01*
X13708944Y-28720449D01*
X13975375Y-29119189D01*
X14423403Y-29418553D01*
X14951889Y-29523675D01*
X15005999Y-29523675D01*
X15534485Y-29418553D01*
X15982513Y-29119189D01*
X16281877Y-28671161D01*
X16386999Y-28142675D01*
X16281877Y-27614189D01*
X15982513Y-27166161D01*
X15543282Y-26872675D01*
X15982513Y-26579189D01*
X16281877Y-26131161D01*
X16386999Y-25602675D01*
X16281877Y-25074189D01*
X15982513Y-24626161D01*
X15543282Y-24332675D01*
X15982513Y-24039189D01*
X16281877Y-23591161D01*
X16386999Y-23062675D01*
X16281877Y-22534189D01*
X15982513Y-22086161D01*
X15543282Y-21792675D01*
X15982513Y-21499189D01*
X16281877Y-21051161D01*
X16386999Y-20522675D01*
X16281877Y-19994189D01*
X15982513Y-19546161D01*
X15543282Y-19252675D01*
X15982513Y-18959189D01*
X16281877Y-18511161D01*
X16386999Y-17982675D01*
X16281877Y-17454189D01*
X15982513Y-17006161D01*
X15543282Y-16712675D01*
X15982513Y-16419189D01*
X16281877Y-15971161D01*
X16386999Y-15442675D01*
X16281877Y-14914189D01*
X15982513Y-14466161D01*
X15543282Y-14172675D01*
X15982513Y-13879189D01*
X16281877Y-13431161D01*
X16386999Y-12902675D01*
X16281877Y-12374189D01*
X15982513Y-11926161D01*
X15543282Y-11632675D01*
X15982513Y-11339189D01*
X16281877Y-10891161D01*
X16386999Y-10362675D01*
X16281877Y-9834189D01*
X15982513Y-9386161D01*
X15543282Y-9092675D01*
X15982513Y-8799189D01*
X16281877Y-8351161D01*
X16386999Y-7822675D01*
X16281877Y-7294189D01*
X15982513Y-6846161D01*
X15720575Y-6671139D01*
X15978944Y-6671139D01*
X16127603Y-6641569D01*
X16253630Y-6557361D01*
X16337838Y-6431334D01*
X16367408Y-6282675D01*
X16367408Y-4282675D01*
X16337838Y-4134016D01*
X16255999Y-4011535D01*
X19805147Y-4011535D01*
X19803551Y-32459535D01*
G36*
X13975375Y-26579189D02*
X14414606Y-26872675D01*
X13975375Y-27166161D01*
X13708944Y-27564901D01*
X13442513Y-27166161D01*
X13003282Y-26872675D01*
X13442513Y-26579189D01*
X13708944Y-26180449D01*
X13975375Y-26579189D01*
X13975375Y-26579189D01*
G37*
X13975375Y-26579189D02*
X14414606Y-26872675D01*
X13975375Y-27166161D01*
X13708944Y-27564901D01*
X13442513Y-27166161D01*
X13003282Y-26872675D01*
X13442513Y-26579189D01*
X13708944Y-26180449D01*
X13975375Y-26579189D01*
G36*
X11435375Y-26579189D02*
X11874606Y-26872675D01*
X11435375Y-27166161D01*
X11169154Y-27564587D01*
X11169154Y-26180763D01*
X11435375Y-26579189D01*
X11435375Y-26579189D01*
G37*
X11435375Y-26579189D02*
X11874606Y-26872675D01*
X11435375Y-27166161D01*
X11169154Y-27564587D01*
X11169154Y-26180763D01*
X11435375Y-26579189D01*
G36*
X13975375Y-24039189D02*
X14414606Y-24332675D01*
X13975375Y-24626161D01*
X13708944Y-25024901D01*
X13442513Y-24626161D01*
X13003282Y-24332675D01*
X13442513Y-24039189D01*
X13708944Y-23640449D01*
X13975375Y-24039189D01*
X13975375Y-24039189D01*
G37*
X13975375Y-24039189D02*
X14414606Y-24332675D01*
X13975375Y-24626161D01*
X13708944Y-25024901D01*
X13442513Y-24626161D01*
X13003282Y-24332675D01*
X13442513Y-24039189D01*
X13708944Y-23640449D01*
X13975375Y-24039189D01*
G36*
X11435375Y-24039189D02*
X11874606Y-24332675D01*
X11435375Y-24626161D01*
X11169154Y-25024587D01*
X11169154Y-23640763D01*
X11435375Y-24039189D01*
X11435375Y-24039189D01*
G37*
X11435375Y-24039189D02*
X11874606Y-24332675D01*
X11435375Y-24626161D01*
X11169154Y-25024587D01*
X11169154Y-23640763D01*
X11435375Y-24039189D01*
G36*
X13975375Y-21499189D02*
X14414606Y-21792675D01*
X13975375Y-22086161D01*
X13708944Y-22484901D01*
X13442513Y-22086161D01*
X13003282Y-21792675D01*
X13442513Y-21499189D01*
X13708944Y-21100449D01*
X13975375Y-21499189D01*
X13975375Y-21499189D01*
G37*
X13975375Y-21499189D02*
X14414606Y-21792675D01*
X13975375Y-22086161D01*
X13708944Y-22484901D01*
X13442513Y-22086161D01*
X13003282Y-21792675D01*
X13442513Y-21499189D01*
X13708944Y-21100449D01*
X13975375Y-21499189D01*
G36*
X11435375Y-21499189D02*
X11874606Y-21792675D01*
X11435375Y-22086161D01*
X11169154Y-22484587D01*
X11169154Y-21100763D01*
X11435375Y-21499189D01*
X11435375Y-21499189D01*
G37*
X11435375Y-21499189D02*
X11874606Y-21792675D01*
X11435375Y-22086161D01*
X11169154Y-22484587D01*
X11169154Y-21100763D01*
X11435375Y-21499189D01*
G36*
X13975375Y-18959189D02*
X14414606Y-19252675D01*
X13975375Y-19546161D01*
X13708944Y-19944901D01*
X13442513Y-19546161D01*
X13003282Y-19252675D01*
X13442513Y-18959189D01*
X13708944Y-18560449D01*
X13975375Y-18959189D01*
X13975375Y-18959189D01*
G37*
X13975375Y-18959189D02*
X14414606Y-19252675D01*
X13975375Y-19546161D01*
X13708944Y-19944901D01*
X13442513Y-19546161D01*
X13003282Y-19252675D01*
X13442513Y-18959189D01*
X13708944Y-18560449D01*
X13975375Y-18959189D01*
G36*
X11435375Y-18959189D02*
X11874606Y-19252675D01*
X11435375Y-19546161D01*
X11169154Y-19944587D01*
X11169154Y-18560763D01*
X11435375Y-18959189D01*
X11435375Y-18959189D01*
G37*
X11435375Y-18959189D02*
X11874606Y-19252675D01*
X11435375Y-19546161D01*
X11169154Y-19944587D01*
X11169154Y-18560763D01*
X11435375Y-18959189D01*
G36*
X13975375Y-16419189D02*
X14414606Y-16712675D01*
X13975375Y-17006161D01*
X13708944Y-17404901D01*
X13442513Y-17006161D01*
X13003282Y-16712675D01*
X13442513Y-16419189D01*
X13708944Y-16020449D01*
X13975375Y-16419189D01*
X13975375Y-16419189D01*
G37*
X13975375Y-16419189D02*
X14414606Y-16712675D01*
X13975375Y-17006161D01*
X13708944Y-17404901D01*
X13442513Y-17006161D01*
X13003282Y-16712675D01*
X13442513Y-16419189D01*
X13708944Y-16020449D01*
X13975375Y-16419189D01*
G36*
X11435375Y-16419189D02*
X11874606Y-16712675D01*
X11435375Y-17006161D01*
X11169154Y-17404587D01*
X11169154Y-16020763D01*
X11435375Y-16419189D01*
X11435375Y-16419189D01*
G37*
X11435375Y-16419189D02*
X11874606Y-16712675D01*
X11435375Y-17006161D01*
X11169154Y-17404587D01*
X11169154Y-16020763D01*
X11435375Y-16419189D01*
G36*
X13975375Y-13879189D02*
X14414606Y-14172675D01*
X13975375Y-14466161D01*
X13708944Y-14864901D01*
X13442513Y-14466161D01*
X13003282Y-14172675D01*
X13442513Y-13879189D01*
X13708944Y-13480449D01*
X13975375Y-13879189D01*
X13975375Y-13879189D01*
G37*
X13975375Y-13879189D02*
X14414606Y-14172675D01*
X13975375Y-14466161D01*
X13708944Y-14864901D01*
X13442513Y-14466161D01*
X13003282Y-14172675D01*
X13442513Y-13879189D01*
X13708944Y-13480449D01*
X13975375Y-13879189D01*
G36*
X11435375Y-13879189D02*
X11874606Y-14172675D01*
X11435375Y-14466161D01*
X11169154Y-14864587D01*
X11169154Y-13480763D01*
X11435375Y-13879189D01*
X11435375Y-13879189D01*
G37*
X11435375Y-13879189D02*
X11874606Y-14172675D01*
X11435375Y-14466161D01*
X11169154Y-14864587D01*
X11169154Y-13480763D01*
X11435375Y-13879189D01*
G36*
X13975375Y-11339189D02*
X14414606Y-11632675D01*
X13975375Y-11926161D01*
X13708944Y-12324901D01*
X13442513Y-11926161D01*
X13003282Y-11632675D01*
X13442513Y-11339189D01*
X13708944Y-10940449D01*
X13975375Y-11339189D01*
X13975375Y-11339189D01*
G37*
X13975375Y-11339189D02*
X14414606Y-11632675D01*
X13975375Y-11926161D01*
X13708944Y-12324901D01*
X13442513Y-11926161D01*
X13003282Y-11632675D01*
X13442513Y-11339189D01*
X13708944Y-10940449D01*
X13975375Y-11339189D01*
G36*
X11435375Y-11339189D02*
X11874606Y-11632675D01*
X11435375Y-11926161D01*
X11169154Y-12324587D01*
X11169154Y-10940763D01*
X11435375Y-11339189D01*
X11435375Y-11339189D01*
G37*
X11435375Y-11339189D02*
X11874606Y-11632675D01*
X11435375Y-11926161D01*
X11169154Y-12324587D01*
X11169154Y-10940763D01*
X11435375Y-11339189D01*
G36*
X13975375Y-8799189D02*
X14414606Y-9092675D01*
X13975375Y-9386161D01*
X13708944Y-9784901D01*
X13442513Y-9386161D01*
X13003282Y-9092675D01*
X13442513Y-8799189D01*
X13708944Y-8400449D01*
X13975375Y-8799189D01*
X13975375Y-8799189D01*
G37*
X13975375Y-8799189D02*
X14414606Y-9092675D01*
X13975375Y-9386161D01*
X13708944Y-9784901D01*
X13442513Y-9386161D01*
X13003282Y-9092675D01*
X13442513Y-8799189D01*
X13708944Y-8400449D01*
X13975375Y-8799189D01*
G36*
X11435375Y-8799189D02*
X11874606Y-9092675D01*
X11435375Y-9386161D01*
X11169154Y-9784587D01*
X11169154Y-8400763D01*
X11435375Y-8799189D01*
X11435375Y-8799189D01*
G37*
X11435375Y-8799189D02*
X11874606Y-9092675D01*
X11435375Y-9386161D01*
X11169154Y-9784587D01*
X11169154Y-8400763D01*
X11435375Y-8799189D01*
G36*
X13590480Y-6282675D02*
X13620050Y-6431334D01*
X13704258Y-6557361D01*
X13830285Y-6641569D01*
X13978944Y-6671139D01*
X14237313Y-6671139D01*
X13975375Y-6846161D01*
X13708944Y-7244901D01*
X13442513Y-6846161D01*
X13003282Y-6552675D01*
X13442513Y-6259189D01*
X13590480Y-6037742D01*
X13590480Y-6282675D01*
X13590480Y-6282675D01*
G37*
X13590480Y-6282675D02*
X13620050Y-6431334D01*
X13704258Y-6557361D01*
X13830285Y-6641569D01*
X13978944Y-6671139D01*
X14237313Y-6671139D01*
X13975375Y-6846161D01*
X13708944Y-7244901D01*
X13442513Y-6846161D01*
X13003282Y-6552675D01*
X13442513Y-6259189D01*
X13590480Y-6037742D01*
X13590480Y-6282675D01*
G36*
X11435375Y-6259189D02*
X11874606Y-6552675D01*
X11435375Y-6846161D01*
X11169154Y-7244587D01*
X11169154Y-5860763D01*
X11435375Y-6259189D01*
X11435375Y-6259189D01*
G37*
X11435375Y-6259189D02*
X11874606Y-6552675D01*
X11435375Y-6846161D01*
X11169154Y-7244587D01*
X11169154Y-5860763D01*
X11435375Y-6259189D01*
G36*
X11435375Y-4306161D02*
X11169154Y-4704587D01*
X11169154Y-4011535D01*
X11876312Y-4011535D01*
X11435375Y-4306161D01*
X11435375Y-4306161D01*
G37*
X11435375Y-4306161D02*
X11169154Y-4704587D01*
X11169154Y-4011535D01*
X11876312Y-4011535D01*
X11435375Y-4306161D01*
G36*
X13620050Y-4134016D02*
X13590480Y-4282675D01*
X13590480Y-4527608D01*
X13442513Y-4306161D01*
X13001576Y-4011535D01*
X13701889Y-4011535D01*
X13620050Y-4134016D01*
X13620050Y-4134016D01*
G37*
X13620050Y-4134016D02*
X13590480Y-4282675D01*
X13590480Y-4527608D01*
X13442513Y-4306161D01*
X13001576Y-4011535D01*
X13701889Y-4011535D01*
X13620050Y-4134016D01*
G36*
X30098551Y-32459535D02*
X21464154Y-32459535D01*
X21464154Y-28720763D01*
X21730375Y-29119189D01*
X22178403Y-29418553D01*
X22706889Y-29523675D01*
X22760999Y-29523675D01*
X23289485Y-29418553D01*
X23737513Y-29119189D01*
X24003944Y-28720449D01*
X24270375Y-29119189D01*
X24718403Y-29418553D01*
X25246889Y-29523675D01*
X25300999Y-29523675D01*
X25829485Y-29418553D01*
X26277513Y-29119189D01*
X26576877Y-28671161D01*
X26681999Y-28142675D01*
X26576877Y-27614189D01*
X26277513Y-27166161D01*
X25838282Y-26872675D01*
X26277513Y-26579189D01*
X26576877Y-26131161D01*
X26681999Y-25602675D01*
X26576877Y-25074189D01*
X26277513Y-24626161D01*
X25838282Y-24332675D01*
X26277513Y-24039189D01*
X26576877Y-23591161D01*
X26681999Y-23062675D01*
X26576877Y-22534189D01*
X26277513Y-22086161D01*
X25838282Y-21792675D01*
X26277513Y-21499189D01*
X26576877Y-21051161D01*
X26681999Y-20522675D01*
X26576877Y-19994189D01*
X26277513Y-19546161D01*
X25838282Y-19252675D01*
X26277513Y-18959189D01*
X26576877Y-18511161D01*
X26681999Y-17982675D01*
X26576877Y-17454189D01*
X26277513Y-17006161D01*
X25838282Y-16712675D01*
X26277513Y-16419189D01*
X26576877Y-15971161D01*
X26681999Y-15442675D01*
X26576877Y-14914189D01*
X26277513Y-14466161D01*
X25838282Y-14172675D01*
X26277513Y-13879189D01*
X26576877Y-13431161D01*
X26681999Y-12902675D01*
X26576877Y-12374189D01*
X26277513Y-11926161D01*
X25838282Y-11632675D01*
X26277513Y-11339189D01*
X26576877Y-10891161D01*
X26681999Y-10362675D01*
X26576877Y-9834189D01*
X26277513Y-9386161D01*
X25838282Y-9092675D01*
X26277513Y-8799189D01*
X26576877Y-8351161D01*
X26681999Y-7822675D01*
X26576877Y-7294189D01*
X26277513Y-6846161D01*
X26015575Y-6671139D01*
X26273944Y-6671139D01*
X26422603Y-6641569D01*
X26548630Y-6557361D01*
X26632838Y-6431334D01*
X26662408Y-6282675D01*
X26662408Y-4282675D01*
X26632838Y-4134016D01*
X26550999Y-4011535D01*
X30100147Y-4011535D01*
X30098551Y-32459535D01*
X30098551Y-32459535D01*
G37*
X30098551Y-32459535D02*
X21464154Y-32459535D01*
X21464154Y-28720763D01*
X21730375Y-29119189D01*
X22178403Y-29418553D01*
X22706889Y-29523675D01*
X22760999Y-29523675D01*
X23289485Y-29418553D01*
X23737513Y-29119189D01*
X24003944Y-28720449D01*
X24270375Y-29119189D01*
X24718403Y-29418553D01*
X25246889Y-29523675D01*
X25300999Y-29523675D01*
X25829485Y-29418553D01*
X26277513Y-29119189D01*
X26576877Y-28671161D01*
X26681999Y-28142675D01*
X26576877Y-27614189D01*
X26277513Y-27166161D01*
X25838282Y-26872675D01*
X26277513Y-26579189D01*
X26576877Y-26131161D01*
X26681999Y-25602675D01*
X26576877Y-25074189D01*
X26277513Y-24626161D01*
X25838282Y-24332675D01*
X26277513Y-24039189D01*
X26576877Y-23591161D01*
X26681999Y-23062675D01*
X26576877Y-22534189D01*
X26277513Y-22086161D01*
X25838282Y-21792675D01*
X26277513Y-21499189D01*
X26576877Y-21051161D01*
X26681999Y-20522675D01*
X26576877Y-19994189D01*
X26277513Y-19546161D01*
X25838282Y-19252675D01*
X26277513Y-18959189D01*
X26576877Y-18511161D01*
X26681999Y-17982675D01*
X26576877Y-17454189D01*
X26277513Y-17006161D01*
X25838282Y-16712675D01*
X26277513Y-16419189D01*
X26576877Y-15971161D01*
X26681999Y-15442675D01*
X26576877Y-14914189D01*
X26277513Y-14466161D01*
X25838282Y-14172675D01*
X26277513Y-13879189D01*
X26576877Y-13431161D01*
X26681999Y-12902675D01*
X26576877Y-12374189D01*
X26277513Y-11926161D01*
X25838282Y-11632675D01*
X26277513Y-11339189D01*
X26576877Y-10891161D01*
X26681999Y-10362675D01*
X26576877Y-9834189D01*
X26277513Y-9386161D01*
X25838282Y-9092675D01*
X26277513Y-8799189D01*
X26576877Y-8351161D01*
X26681999Y-7822675D01*
X26576877Y-7294189D01*
X26277513Y-6846161D01*
X26015575Y-6671139D01*
X26273944Y-6671139D01*
X26422603Y-6641569D01*
X26548630Y-6557361D01*
X26632838Y-6431334D01*
X26662408Y-6282675D01*
X26662408Y-4282675D01*
X26632838Y-4134016D01*
X26550999Y-4011535D01*
X30100147Y-4011535D01*
X30098551Y-32459535D01*
G36*
X24270375Y-26579189D02*
X24709606Y-26872675D01*
X24270375Y-27166161D01*
X24003944Y-27564901D01*
X23737513Y-27166161D01*
X23298282Y-26872675D01*
X23737513Y-26579189D01*
X24003944Y-26180449D01*
X24270375Y-26579189D01*
X24270375Y-26579189D01*
G37*
X24270375Y-26579189D02*
X24709606Y-26872675D01*
X24270375Y-27166161D01*
X24003944Y-27564901D01*
X23737513Y-27166161D01*
X23298282Y-26872675D01*
X23737513Y-26579189D01*
X24003944Y-26180449D01*
X24270375Y-26579189D01*
G36*
X21730375Y-26579189D02*
X22169606Y-26872675D01*
X21730375Y-27166161D01*
X21464154Y-27564587D01*
X21464154Y-26180763D01*
X21730375Y-26579189D01*
X21730375Y-26579189D01*
G37*
X21730375Y-26579189D02*
X22169606Y-26872675D01*
X21730375Y-27166161D01*
X21464154Y-27564587D01*
X21464154Y-26180763D01*
X21730375Y-26579189D01*
G36*
X24270375Y-24039189D02*
X24709606Y-24332675D01*
X24270375Y-24626161D01*
X24003944Y-25024901D01*
X23737513Y-24626161D01*
X23298282Y-24332675D01*
X23737513Y-24039189D01*
X24003944Y-23640449D01*
X24270375Y-24039189D01*
X24270375Y-24039189D01*
G37*
X24270375Y-24039189D02*
X24709606Y-24332675D01*
X24270375Y-24626161D01*
X24003944Y-25024901D01*
X23737513Y-24626161D01*
X23298282Y-24332675D01*
X23737513Y-24039189D01*
X24003944Y-23640449D01*
X24270375Y-24039189D01*
G36*
X21730375Y-24039189D02*
X22169606Y-24332675D01*
X21730375Y-24626161D01*
X21464154Y-25024587D01*
X21464154Y-23640763D01*
X21730375Y-24039189D01*
X21730375Y-24039189D01*
G37*
X21730375Y-24039189D02*
X22169606Y-24332675D01*
X21730375Y-24626161D01*
X21464154Y-25024587D01*
X21464154Y-23640763D01*
X21730375Y-24039189D01*
G36*
X24270375Y-21499189D02*
X24709606Y-21792675D01*
X24270375Y-22086161D01*
X24003944Y-22484901D01*
X23737513Y-22086161D01*
X23298282Y-21792675D01*
X23737513Y-21499189D01*
X24003944Y-21100449D01*
X24270375Y-21499189D01*
X24270375Y-21499189D01*
G37*
X24270375Y-21499189D02*
X24709606Y-21792675D01*
X24270375Y-22086161D01*
X24003944Y-22484901D01*
X23737513Y-22086161D01*
X23298282Y-21792675D01*
X23737513Y-21499189D01*
X24003944Y-21100449D01*
X24270375Y-21499189D01*
G36*
X21730375Y-21499189D02*
X22169606Y-21792675D01*
X21730375Y-22086161D01*
X21464154Y-22484587D01*
X21464154Y-21100763D01*
X21730375Y-21499189D01*
X21730375Y-21499189D01*
G37*
X21730375Y-21499189D02*
X22169606Y-21792675D01*
X21730375Y-22086161D01*
X21464154Y-22484587D01*
X21464154Y-21100763D01*
X21730375Y-21499189D01*
G36*
X24270375Y-18959189D02*
X24709606Y-19252675D01*
X24270375Y-19546161D01*
X24003944Y-19944901D01*
X23737513Y-19546161D01*
X23298282Y-19252675D01*
X23737513Y-18959189D01*
X24003944Y-18560449D01*
X24270375Y-18959189D01*
X24270375Y-18959189D01*
G37*
X24270375Y-18959189D02*
X24709606Y-19252675D01*
X24270375Y-19546161D01*
X24003944Y-19944901D01*
X23737513Y-19546161D01*
X23298282Y-19252675D01*
X23737513Y-18959189D01*
X24003944Y-18560449D01*
X24270375Y-18959189D01*
G36*
X21730375Y-18959189D02*
X22169606Y-19252675D01*
X21730375Y-19546161D01*
X21464154Y-19944587D01*
X21464154Y-18560763D01*
X21730375Y-18959189D01*
X21730375Y-18959189D01*
G37*
X21730375Y-18959189D02*
X22169606Y-19252675D01*
X21730375Y-19546161D01*
X21464154Y-19944587D01*
X21464154Y-18560763D01*
X21730375Y-18959189D01*
G36*
X24270375Y-16419189D02*
X24709606Y-16712675D01*
X24270375Y-17006161D01*
X24003944Y-17404901D01*
X23737513Y-17006161D01*
X23298282Y-16712675D01*
X23737513Y-16419189D01*
X24003944Y-16020449D01*
X24270375Y-16419189D01*
X24270375Y-16419189D01*
G37*
X24270375Y-16419189D02*
X24709606Y-16712675D01*
X24270375Y-17006161D01*
X24003944Y-17404901D01*
X23737513Y-17006161D01*
X23298282Y-16712675D01*
X23737513Y-16419189D01*
X24003944Y-16020449D01*
X24270375Y-16419189D01*
G36*
X21730375Y-16419189D02*
X22169606Y-16712675D01*
X21730375Y-17006161D01*
X21464154Y-17404587D01*
X21464154Y-16020763D01*
X21730375Y-16419189D01*
X21730375Y-16419189D01*
G37*
X21730375Y-16419189D02*
X22169606Y-16712675D01*
X21730375Y-17006161D01*
X21464154Y-17404587D01*
X21464154Y-16020763D01*
X21730375Y-16419189D01*
G36*
X24270375Y-13879189D02*
X24709606Y-14172675D01*
X24270375Y-14466161D01*
X24003944Y-14864901D01*
X23737513Y-14466161D01*
X23298282Y-14172675D01*
X23737513Y-13879189D01*
X24003944Y-13480449D01*
X24270375Y-13879189D01*
X24270375Y-13879189D01*
G37*
X24270375Y-13879189D02*
X24709606Y-14172675D01*
X24270375Y-14466161D01*
X24003944Y-14864901D01*
X23737513Y-14466161D01*
X23298282Y-14172675D01*
X23737513Y-13879189D01*
X24003944Y-13480449D01*
X24270375Y-13879189D01*
G36*
X21730375Y-13879189D02*
X22169606Y-14172675D01*
X21730375Y-14466161D01*
X21464154Y-14864587D01*
X21464154Y-13480763D01*
X21730375Y-13879189D01*
X21730375Y-13879189D01*
G37*
X21730375Y-13879189D02*
X22169606Y-14172675D01*
X21730375Y-14466161D01*
X21464154Y-14864587D01*
X21464154Y-13480763D01*
X21730375Y-13879189D01*
G36*
X24270375Y-11339189D02*
X24709606Y-11632675D01*
X24270375Y-11926161D01*
X24003944Y-12324901D01*
X23737513Y-11926161D01*
X23298282Y-11632675D01*
X23737513Y-11339189D01*
X24003944Y-10940449D01*
X24270375Y-11339189D01*
X24270375Y-11339189D01*
G37*
X24270375Y-11339189D02*
X24709606Y-11632675D01*
X24270375Y-11926161D01*
X24003944Y-12324901D01*
X23737513Y-11926161D01*
X23298282Y-11632675D01*
X23737513Y-11339189D01*
X24003944Y-10940449D01*
X24270375Y-11339189D01*
G36*
X21730375Y-11339189D02*
X22169606Y-11632675D01*
X21730375Y-11926161D01*
X21464154Y-12324587D01*
X21464154Y-10940763D01*
X21730375Y-11339189D01*
X21730375Y-11339189D01*
G37*
X21730375Y-11339189D02*
X22169606Y-11632675D01*
X21730375Y-11926161D01*
X21464154Y-12324587D01*
X21464154Y-10940763D01*
X21730375Y-11339189D01*
G36*
X24270375Y-8799189D02*
X24709606Y-9092675D01*
X24270375Y-9386161D01*
X24003944Y-9784901D01*
X23737513Y-9386161D01*
X23298282Y-9092675D01*
X23737513Y-8799189D01*
X24003944Y-8400449D01*
X24270375Y-8799189D01*
X24270375Y-8799189D01*
G37*
X24270375Y-8799189D02*
X24709606Y-9092675D01*
X24270375Y-9386161D01*
X24003944Y-9784901D01*
X23737513Y-9386161D01*
X23298282Y-9092675D01*
X23737513Y-8799189D01*
X24003944Y-8400449D01*
X24270375Y-8799189D01*
G36*
X21730375Y-8799189D02*
X22169606Y-9092675D01*
X21730375Y-9386161D01*
X21464154Y-9784587D01*
X21464154Y-8400763D01*
X21730375Y-8799189D01*
X21730375Y-8799189D01*
G37*
X21730375Y-8799189D02*
X22169606Y-9092675D01*
X21730375Y-9386161D01*
X21464154Y-9784587D01*
X21464154Y-8400763D01*
X21730375Y-8799189D01*
G36*
X23885480Y-6282675D02*
X23915050Y-6431334D01*
X23999258Y-6557361D01*
X24125285Y-6641569D01*
X24273944Y-6671139D01*
X24532313Y-6671139D01*
X24270375Y-6846161D01*
X24003944Y-7244901D01*
X23737513Y-6846161D01*
X23298282Y-6552675D01*
X23737513Y-6259189D01*
X23885480Y-6037742D01*
X23885480Y-6282675D01*
X23885480Y-6282675D01*
G37*
X23885480Y-6282675D02*
X23915050Y-6431334D01*
X23999258Y-6557361D01*
X24125285Y-6641569D01*
X24273944Y-6671139D01*
X24532313Y-6671139D01*
X24270375Y-6846161D01*
X24003944Y-7244901D01*
X23737513Y-6846161D01*
X23298282Y-6552675D01*
X23737513Y-6259189D01*
X23885480Y-6037742D01*
X23885480Y-6282675D01*
G36*
X21730375Y-6259189D02*
X22169606Y-6552675D01*
X21730375Y-6846161D01*
X21464154Y-7244587D01*
X21464154Y-5860763D01*
X21730375Y-6259189D01*
X21730375Y-6259189D01*
G37*
X21730375Y-6259189D02*
X22169606Y-6552675D01*
X21730375Y-6846161D01*
X21464154Y-7244587D01*
X21464154Y-5860763D01*
X21730375Y-6259189D01*
G36*
X21730375Y-4306161D02*
X21464154Y-4704587D01*
X21464154Y-4011535D01*
X22171312Y-4011535D01*
X21730375Y-4306161D01*
X21730375Y-4306161D01*
G37*
X21730375Y-4306161D02*
X21464154Y-4704587D01*
X21464154Y-4011535D01*
X22171312Y-4011535D01*
X21730375Y-4306161D01*
G36*
X23915050Y-4134016D02*
X23885480Y-4282675D01*
X23885480Y-4527608D01*
X23737513Y-4306161D01*
X23296576Y-4011535D01*
X23996889Y-4011535D01*
X23915050Y-4134016D01*
X23915050Y-4134016D01*
G37*
X23915050Y-4134016D02*
X23885480Y-4282675D01*
X23885480Y-4527608D01*
X23737513Y-4306161D01*
X23296576Y-4011535D01*
X23996889Y-4011535D01*
X23915050Y-4134016D01*
G36*
X40393551Y-32459535D02*
X31759154Y-32459535D01*
X31759154Y-28720763D01*
X32025375Y-29119189D01*
X32473403Y-29418553D01*
X33001889Y-29523675D01*
X33055999Y-29523675D01*
X33584485Y-29418553D01*
X34032513Y-29119189D01*
X34298944Y-28720449D01*
X34565375Y-29119189D01*
X35013403Y-29418553D01*
X35541889Y-29523675D01*
X35595999Y-29523675D01*
X36124485Y-29418553D01*
X36572513Y-29119189D01*
X36871877Y-28671161D01*
X36976999Y-28142675D01*
X36871877Y-27614189D01*
X36572513Y-27166161D01*
X36133282Y-26872675D01*
X36572513Y-26579189D01*
X36871877Y-26131161D01*
X36976999Y-25602675D01*
X36871877Y-25074189D01*
X36572513Y-24626161D01*
X36133282Y-24332675D01*
X36572513Y-24039189D01*
X36871877Y-23591161D01*
X36976999Y-23062675D01*
X36871877Y-22534189D01*
X36572513Y-22086161D01*
X36133282Y-21792675D01*
X36572513Y-21499189D01*
X36871877Y-21051161D01*
X36976999Y-20522675D01*
X36871877Y-19994189D01*
X36572513Y-19546161D01*
X36133282Y-19252675D01*
X36572513Y-18959189D01*
X36871877Y-18511161D01*
X36976999Y-17982675D01*
X36871877Y-17454189D01*
X36572513Y-17006161D01*
X36133282Y-16712675D01*
X36572513Y-16419189D01*
X36871877Y-15971161D01*
X36976999Y-15442675D01*
X36871877Y-14914189D01*
X36572513Y-14466161D01*
X36133282Y-14172675D01*
X36572513Y-13879189D01*
X36871877Y-13431161D01*
X36976999Y-12902675D01*
X36871877Y-12374189D01*
X36572513Y-11926161D01*
X36133282Y-11632675D01*
X36572513Y-11339189D01*
X36871877Y-10891161D01*
X36976999Y-10362675D01*
X36871877Y-9834189D01*
X36572513Y-9386161D01*
X36133282Y-9092675D01*
X36572513Y-8799189D01*
X36871877Y-8351161D01*
X36976999Y-7822675D01*
X36871877Y-7294189D01*
X36572513Y-6846161D01*
X36310575Y-6671139D01*
X36568944Y-6671139D01*
X36717603Y-6641569D01*
X36843630Y-6557361D01*
X36927838Y-6431334D01*
X36957408Y-6282675D01*
X36957408Y-4282675D01*
X36927838Y-4134016D01*
X36845999Y-4011535D01*
X40395147Y-4011535D01*
X40393551Y-32459535D01*
X40393551Y-32459535D01*
G37*
X40393551Y-32459535D02*
X31759154Y-32459535D01*
X31759154Y-28720763D01*
X32025375Y-29119189D01*
X32473403Y-29418553D01*
X33001889Y-29523675D01*
X33055999Y-29523675D01*
X33584485Y-29418553D01*
X34032513Y-29119189D01*
X34298944Y-28720449D01*
X34565375Y-29119189D01*
X35013403Y-29418553D01*
X35541889Y-29523675D01*
X35595999Y-29523675D01*
X36124485Y-29418553D01*
X36572513Y-29119189D01*
X36871877Y-28671161D01*
X36976999Y-28142675D01*
X36871877Y-27614189D01*
X36572513Y-27166161D01*
X36133282Y-26872675D01*
X36572513Y-26579189D01*
X36871877Y-26131161D01*
X36976999Y-25602675D01*
X36871877Y-25074189D01*
X36572513Y-24626161D01*
X36133282Y-24332675D01*
X36572513Y-24039189D01*
X36871877Y-23591161D01*
X36976999Y-23062675D01*
X36871877Y-22534189D01*
X36572513Y-22086161D01*
X36133282Y-21792675D01*
X36572513Y-21499189D01*
X36871877Y-21051161D01*
X36976999Y-20522675D01*
X36871877Y-19994189D01*
X36572513Y-19546161D01*
X36133282Y-19252675D01*
X36572513Y-18959189D01*
X36871877Y-18511161D01*
X36976999Y-17982675D01*
X36871877Y-17454189D01*
X36572513Y-17006161D01*
X36133282Y-16712675D01*
X36572513Y-16419189D01*
X36871877Y-15971161D01*
X36976999Y-15442675D01*
X36871877Y-14914189D01*
X36572513Y-14466161D01*
X36133282Y-14172675D01*
X36572513Y-13879189D01*
X36871877Y-13431161D01*
X36976999Y-12902675D01*
X36871877Y-12374189D01*
X36572513Y-11926161D01*
X36133282Y-11632675D01*
X36572513Y-11339189D01*
X36871877Y-10891161D01*
X36976999Y-10362675D01*
X36871877Y-9834189D01*
X36572513Y-9386161D01*
X36133282Y-9092675D01*
X36572513Y-8799189D01*
X36871877Y-8351161D01*
X36976999Y-7822675D01*
X36871877Y-7294189D01*
X36572513Y-6846161D01*
X36310575Y-6671139D01*
X36568944Y-6671139D01*
X36717603Y-6641569D01*
X36843630Y-6557361D01*
X36927838Y-6431334D01*
X36957408Y-6282675D01*
X36957408Y-4282675D01*
X36927838Y-4134016D01*
X36845999Y-4011535D01*
X40395147Y-4011535D01*
X40393551Y-32459535D01*
G36*
X34565375Y-26579189D02*
X35004606Y-26872675D01*
X34565375Y-27166161D01*
X34298944Y-27564901D01*
X34032513Y-27166161D01*
X33593282Y-26872675D01*
X34032513Y-26579189D01*
X34298944Y-26180449D01*
X34565375Y-26579189D01*
X34565375Y-26579189D01*
G37*
X34565375Y-26579189D02*
X35004606Y-26872675D01*
X34565375Y-27166161D01*
X34298944Y-27564901D01*
X34032513Y-27166161D01*
X33593282Y-26872675D01*
X34032513Y-26579189D01*
X34298944Y-26180449D01*
X34565375Y-26579189D01*
G36*
X32025375Y-26579189D02*
X32464606Y-26872675D01*
X32025375Y-27166161D01*
X31759154Y-27564587D01*
X31759154Y-26180763D01*
X32025375Y-26579189D01*
X32025375Y-26579189D01*
G37*
X32025375Y-26579189D02*
X32464606Y-26872675D01*
X32025375Y-27166161D01*
X31759154Y-27564587D01*
X31759154Y-26180763D01*
X32025375Y-26579189D01*
G36*
X34565375Y-24039189D02*
X35004606Y-24332675D01*
X34565375Y-24626161D01*
X34298944Y-25024901D01*
X34032513Y-24626161D01*
X33593282Y-24332675D01*
X34032513Y-24039189D01*
X34298944Y-23640449D01*
X34565375Y-24039189D01*
X34565375Y-24039189D01*
G37*
X34565375Y-24039189D02*
X35004606Y-24332675D01*
X34565375Y-24626161D01*
X34298944Y-25024901D01*
X34032513Y-24626161D01*
X33593282Y-24332675D01*
X34032513Y-24039189D01*
X34298944Y-23640449D01*
X34565375Y-24039189D01*
G36*
X32025375Y-24039189D02*
X32464606Y-24332675D01*
X32025375Y-24626161D01*
X31759154Y-25024587D01*
X31759154Y-23640763D01*
X32025375Y-24039189D01*
X32025375Y-24039189D01*
G37*
X32025375Y-24039189D02*
X32464606Y-24332675D01*
X32025375Y-24626161D01*
X31759154Y-25024587D01*
X31759154Y-23640763D01*
X32025375Y-24039189D01*
G36*
X34565375Y-21499189D02*
X35004606Y-21792675D01*
X34565375Y-22086161D01*
X34298944Y-22484901D01*
X34032513Y-22086161D01*
X33593282Y-21792675D01*
X34032513Y-21499189D01*
X34298944Y-21100449D01*
X34565375Y-21499189D01*
X34565375Y-21499189D01*
G37*
X34565375Y-21499189D02*
X35004606Y-21792675D01*
X34565375Y-22086161D01*
X34298944Y-22484901D01*
X34032513Y-22086161D01*
X33593282Y-21792675D01*
X34032513Y-21499189D01*
X34298944Y-21100449D01*
X34565375Y-21499189D01*
G36*
X32025375Y-21499189D02*
X32464606Y-21792675D01*
X32025375Y-22086161D01*
X31759154Y-22484587D01*
X31759154Y-21100763D01*
X32025375Y-21499189D01*
X32025375Y-21499189D01*
G37*
X32025375Y-21499189D02*
X32464606Y-21792675D01*
X32025375Y-22086161D01*
X31759154Y-22484587D01*
X31759154Y-21100763D01*
X32025375Y-21499189D01*
G36*
X34565375Y-18959189D02*
X35004606Y-19252675D01*
X34565375Y-19546161D01*
X34298944Y-19944901D01*
X34032513Y-19546161D01*
X33593282Y-19252675D01*
X34032513Y-18959189D01*
X34298944Y-18560449D01*
X34565375Y-18959189D01*
X34565375Y-18959189D01*
G37*
X34565375Y-18959189D02*
X35004606Y-19252675D01*
X34565375Y-19546161D01*
X34298944Y-19944901D01*
X34032513Y-19546161D01*
X33593282Y-19252675D01*
X34032513Y-18959189D01*
X34298944Y-18560449D01*
X34565375Y-18959189D01*
G36*
X32025375Y-18959189D02*
X32464606Y-19252675D01*
X32025375Y-19546161D01*
X31759154Y-19944587D01*
X31759154Y-18560763D01*
X32025375Y-18959189D01*
X32025375Y-18959189D01*
G37*
X32025375Y-18959189D02*
X32464606Y-19252675D01*
X32025375Y-19546161D01*
X31759154Y-19944587D01*
X31759154Y-18560763D01*
X32025375Y-18959189D01*
G36*
X34565375Y-16419189D02*
X35004606Y-16712675D01*
X34565375Y-17006161D01*
X34298944Y-17404901D01*
X34032513Y-17006161D01*
X33593282Y-16712675D01*
X34032513Y-16419189D01*
X34298944Y-16020449D01*
X34565375Y-16419189D01*
X34565375Y-16419189D01*
G37*
X34565375Y-16419189D02*
X35004606Y-16712675D01*
X34565375Y-17006161D01*
X34298944Y-17404901D01*
X34032513Y-17006161D01*
X33593282Y-16712675D01*
X34032513Y-16419189D01*
X34298944Y-16020449D01*
X34565375Y-16419189D01*
G36*
X32025375Y-16419189D02*
X32464606Y-16712675D01*
X32025375Y-17006161D01*
X31759154Y-17404587D01*
X31759154Y-16020763D01*
X32025375Y-16419189D01*
X32025375Y-16419189D01*
G37*
X32025375Y-16419189D02*
X32464606Y-16712675D01*
X32025375Y-17006161D01*
X31759154Y-17404587D01*
X31759154Y-16020763D01*
X32025375Y-16419189D01*
G36*
X34565375Y-13879189D02*
X35004606Y-14172675D01*
X34565375Y-14466161D01*
X34298944Y-14864901D01*
X34032513Y-14466161D01*
X33593282Y-14172675D01*
X34032513Y-13879189D01*
X34298944Y-13480449D01*
X34565375Y-13879189D01*
X34565375Y-13879189D01*
G37*
X34565375Y-13879189D02*
X35004606Y-14172675D01*
X34565375Y-14466161D01*
X34298944Y-14864901D01*
X34032513Y-14466161D01*
X33593282Y-14172675D01*
X34032513Y-13879189D01*
X34298944Y-13480449D01*
X34565375Y-13879189D01*
G36*
X32025375Y-13879189D02*
X32464606Y-14172675D01*
X32025375Y-14466161D01*
X31759154Y-14864587D01*
X31759154Y-13480763D01*
X32025375Y-13879189D01*
X32025375Y-13879189D01*
G37*
X32025375Y-13879189D02*
X32464606Y-14172675D01*
X32025375Y-14466161D01*
X31759154Y-14864587D01*
X31759154Y-13480763D01*
X32025375Y-13879189D01*
G36*
X34565375Y-11339189D02*
X35004606Y-11632675D01*
X34565375Y-11926161D01*
X34298944Y-12324901D01*
X34032513Y-11926161D01*
X33593282Y-11632675D01*
X34032513Y-11339189D01*
X34298944Y-10940449D01*
X34565375Y-11339189D01*
X34565375Y-11339189D01*
G37*
X34565375Y-11339189D02*
X35004606Y-11632675D01*
X34565375Y-11926161D01*
X34298944Y-12324901D01*
X34032513Y-11926161D01*
X33593282Y-11632675D01*
X34032513Y-11339189D01*
X34298944Y-10940449D01*
X34565375Y-11339189D01*
G36*
X32025375Y-11339189D02*
X32464606Y-11632675D01*
X32025375Y-11926161D01*
X31759154Y-12324587D01*
X31759154Y-10940763D01*
X32025375Y-11339189D01*
X32025375Y-11339189D01*
G37*
X32025375Y-11339189D02*
X32464606Y-11632675D01*
X32025375Y-11926161D01*
X31759154Y-12324587D01*
X31759154Y-10940763D01*
X32025375Y-11339189D01*
G36*
X34565375Y-8799189D02*
X35004606Y-9092675D01*
X34565375Y-9386161D01*
X34298944Y-9784901D01*
X34032513Y-9386161D01*
X33593282Y-9092675D01*
X34032513Y-8799189D01*
X34298944Y-8400449D01*
X34565375Y-8799189D01*
X34565375Y-8799189D01*
G37*
X34565375Y-8799189D02*
X35004606Y-9092675D01*
X34565375Y-9386161D01*
X34298944Y-9784901D01*
X34032513Y-9386161D01*
X33593282Y-9092675D01*
X34032513Y-8799189D01*
X34298944Y-8400449D01*
X34565375Y-8799189D01*
G36*
X32025375Y-8799189D02*
X32464606Y-9092675D01*
X32025375Y-9386161D01*
X31759154Y-9784587D01*
X31759154Y-8400763D01*
X32025375Y-8799189D01*
X32025375Y-8799189D01*
G37*
X32025375Y-8799189D02*
X32464606Y-9092675D01*
X32025375Y-9386161D01*
X31759154Y-9784587D01*
X31759154Y-8400763D01*
X32025375Y-8799189D01*
G36*
X34180480Y-6282675D02*
X34210050Y-6431334D01*
X34294258Y-6557361D01*
X34420285Y-6641569D01*
X34568944Y-6671139D01*
X34827313Y-6671139D01*
X34565375Y-6846161D01*
X34298944Y-7244901D01*
X34032513Y-6846161D01*
X33593282Y-6552675D01*
X34032513Y-6259189D01*
X34180480Y-6037742D01*
X34180480Y-6282675D01*
X34180480Y-6282675D01*
G37*
X34180480Y-6282675D02*
X34210050Y-6431334D01*
X34294258Y-6557361D01*
X34420285Y-6641569D01*
X34568944Y-6671139D01*
X34827313Y-6671139D01*
X34565375Y-6846161D01*
X34298944Y-7244901D01*
X34032513Y-6846161D01*
X33593282Y-6552675D01*
X34032513Y-6259189D01*
X34180480Y-6037742D01*
X34180480Y-6282675D01*
G36*
X32025375Y-6259189D02*
X32464606Y-6552675D01*
X32025375Y-6846161D01*
X31759154Y-7244587D01*
X31759154Y-5860763D01*
X32025375Y-6259189D01*
X32025375Y-6259189D01*
G37*
X32025375Y-6259189D02*
X32464606Y-6552675D01*
X32025375Y-6846161D01*
X31759154Y-7244587D01*
X31759154Y-5860763D01*
X32025375Y-6259189D01*
G36*
X32025375Y-4306161D02*
X31759154Y-4704587D01*
X31759154Y-4011535D01*
X32466312Y-4011535D01*
X32025375Y-4306161D01*
X32025375Y-4306161D01*
G37*
X32025375Y-4306161D02*
X31759154Y-4704587D01*
X31759154Y-4011535D01*
X32466312Y-4011535D01*
X32025375Y-4306161D01*
G36*
X34210050Y-4134016D02*
X34180480Y-4282675D01*
X34180480Y-4527608D01*
X34032513Y-4306161D01*
X33591576Y-4011535D01*
X34291889Y-4011535D01*
X34210050Y-4134016D01*
X34210050Y-4134016D01*
G37*
X34210050Y-4134016D02*
X34180480Y-4282675D01*
X34180480Y-4527608D01*
X34032513Y-4306161D01*
X33591576Y-4011535D01*
X34291889Y-4011535D01*
X34210050Y-4134016D01*
M02*
