G04 #@! TF.FileFunction,Soldermask,Top*
%FSLAX46Y46*%
G04 Gerber Fmt 4.6, Leading zero omitted, Abs format (unit mm)*
G04 Created by KiCad (PCBNEW (2016-10-28 revision 192d4b8)-makepkg) date 11/16/16 20:27:21*
%MOMM*%
%LPD*%
G01*
G04 APERTURE LIST*
%ADD10C,0.150000*%
%ADD11R,1.600000X1.000000*%
%ADD12O,2.000000X2.000000*%
%ADD13R,2.000000X2.000000*%
%ADD14R,2.032000X2.032000*%
%ADD15O,2.032000X2.032000*%
G04 APERTURE END LIST*
D10*
D11*
X17415944Y-9908675D03*
X17415944Y-13308675D03*
X7120944Y-28548675D03*
X7120944Y-25148675D03*
D12*
X33028944Y-28142675D03*
X35568944Y-28142675D03*
X33028944Y-25602675D03*
X35568944Y-25602675D03*
X33028944Y-23062675D03*
X35568944Y-23062675D03*
X33028944Y-20522675D03*
X35568944Y-20522675D03*
X33028944Y-17982675D03*
X35568944Y-17982675D03*
X33028944Y-15442675D03*
X35568944Y-15442675D03*
X33028944Y-12902675D03*
X35568944Y-12902675D03*
X33028944Y-10362675D03*
X35568944Y-10362675D03*
X33028944Y-7822675D03*
X35568944Y-7822675D03*
X33028944Y-5282675D03*
D13*
X35568944Y-5282675D03*
D11*
X40291944Y-17528675D03*
X40291944Y-20928675D03*
X38005944Y-23468675D03*
X38005944Y-20068675D03*
X40291944Y-26008675D03*
X40291944Y-22608675D03*
X38005944Y-25148675D03*
X38005944Y-28548675D03*
X40291944Y-7368675D03*
X40291944Y-10768675D03*
X38005944Y-13308675D03*
X38005944Y-9908675D03*
X40291944Y-15848675D03*
X40291944Y-12448675D03*
X38005944Y-14988675D03*
X38005944Y-18388675D03*
X38005944Y-4828675D03*
X38005944Y-8228675D03*
D13*
X25273944Y-5282675D03*
D12*
X22733944Y-5282675D03*
X25273944Y-7822675D03*
X22733944Y-7822675D03*
X25273944Y-10362675D03*
X22733944Y-10362675D03*
X25273944Y-12902675D03*
X22733944Y-12902675D03*
X25273944Y-15442675D03*
X22733944Y-15442675D03*
X25273944Y-17982675D03*
X22733944Y-17982675D03*
X25273944Y-20522675D03*
X22733944Y-20522675D03*
X25273944Y-23062675D03*
X22733944Y-23062675D03*
X25273944Y-25602675D03*
X22733944Y-25602675D03*
X25273944Y-28142675D03*
X22733944Y-28142675D03*
D11*
X29996944Y-20928675D03*
X29996944Y-17528675D03*
X27710944Y-20068675D03*
X27710944Y-23468675D03*
X29996944Y-22608675D03*
X29996944Y-26008675D03*
X27710944Y-28548675D03*
X27710944Y-25148675D03*
X29996944Y-10768675D03*
X29996944Y-7368675D03*
X27710944Y-9908675D03*
X27710944Y-13308675D03*
X29996944Y-12448675D03*
X29996944Y-15848675D03*
X27710944Y-18388675D03*
X27710944Y-14988675D03*
X27710944Y-8228675D03*
X27710944Y-4828675D03*
D13*
X14978944Y-5282675D03*
D12*
X12438944Y-5282675D03*
X14978944Y-7822675D03*
X12438944Y-7822675D03*
X14978944Y-10362675D03*
X12438944Y-10362675D03*
X14978944Y-12902675D03*
X12438944Y-12902675D03*
X14978944Y-15442675D03*
X12438944Y-15442675D03*
X14978944Y-17982675D03*
X12438944Y-17982675D03*
X14978944Y-20522675D03*
X12438944Y-20522675D03*
X14978944Y-23062675D03*
X12438944Y-23062675D03*
X14978944Y-25602675D03*
X12438944Y-25602675D03*
X14978944Y-28142675D03*
X12438944Y-28142675D03*
D11*
X19701944Y-20928675D03*
X19701944Y-17528675D03*
X17415944Y-20068675D03*
X17415944Y-23468675D03*
X19701944Y-22608675D03*
X19701944Y-26008675D03*
X17415944Y-28548675D03*
X17415944Y-25148675D03*
X19701944Y-10768675D03*
X19701944Y-7368675D03*
X19701944Y-12448675D03*
X19701944Y-15848675D03*
X17415944Y-18388675D03*
X17415944Y-14988675D03*
X17415944Y-8228675D03*
X17415944Y-4828675D03*
X9406944Y-10768675D03*
X9406944Y-7368675D03*
X9406944Y-12448675D03*
X9406944Y-15848675D03*
X9406944Y-20928675D03*
X9406944Y-17528675D03*
X9406944Y-22608675D03*
X9406944Y-26008675D03*
X7120944Y-8228675D03*
X7120944Y-4828675D03*
X7120944Y-9908675D03*
X7120944Y-13308675D03*
X7120944Y-18388675D03*
X7120944Y-14988675D03*
X7120944Y-20068675D03*
X7120944Y-23468675D03*
D13*
X4683944Y-5282675D03*
D12*
X2143944Y-5282675D03*
X4683944Y-7822675D03*
X2143944Y-7822675D03*
X4683944Y-10362675D03*
X2143944Y-10362675D03*
X4683944Y-12902675D03*
X2143944Y-12902675D03*
X4683944Y-15442675D03*
X2143944Y-15442675D03*
X4683944Y-17982675D03*
X2143944Y-17982675D03*
X4683944Y-20522675D03*
X2143944Y-20522675D03*
X4683944Y-23062675D03*
X2143944Y-23062675D03*
X4683944Y-25602675D03*
X2143944Y-25602675D03*
X4683944Y-28142675D03*
X2143944Y-28142675D03*
D14*
X42500000Y-17389998D03*
D15*
X42500000Y-14849998D03*
X45780000Y-14860000D03*
D14*
X45780000Y-17400000D03*
X48690000Y-17400000D03*
D15*
X48690000Y-14860000D03*
M02*
