%MOIN*%
%OFA0B0*%
%FSLAX44Y44*%
%IPPOS*%
%LPD*%
%ADD10C,0*%
D10*
X00019252Y00008395D02*
X00019252Y00008395D01*
X00019252Y00013073D01*
X00010729Y00013073D01*
X00010698Y00013074D01*
X00010667Y00013077D01*
X00010637Y00013083D01*
X00010607Y00013092D01*
X00010579Y00013102D01*
X00010551Y00013115D01*
X00010524Y00013130D01*
X00010498Y00013147D01*
X00010474Y00013166D01*
X00010451Y00013187D01*
X00010430Y00013209D01*
X00010411Y00013233D01*
X00010394Y00013259D01*
X00010379Y00013286D01*
X00010366Y00013314D01*
X00010355Y00013342D01*
X00010346Y00013372D01*
X00010340Y00013402D01*
X00010336Y00013433D01*
X00010335Y00013463D01*
X00010333Y00013700D01*
X00010334Y00013731D01*
X00010338Y00013761D01*
X00010343Y00013792D01*
X00010352Y00013822D01*
X00010362Y00013851D01*
X00010375Y00013879D01*
X00010390Y00013907D01*
X00010407Y00013932D01*
X00010426Y00013957D01*
X00010447Y00013980D01*
X00010470Y00014001D01*
X00010494Y00014020D01*
X00010520Y00014038D01*
X00010547Y00014053D01*
X00010575Y00014066D01*
X00010605Y00014077D01*
X00010634Y00014085D01*
X00010665Y00014091D01*
X00010696Y00014095D01*
X00010727Y00014096D01*
X00019252Y00014096D01*
X00019252Y00026065D01*
X00010729Y00026065D01*
X00010698Y00026066D01*
X00010667Y00026069D01*
X00010637Y00026075D01*
X00010607Y00026084D01*
X00010579Y00026094D01*
X00010551Y00026107D01*
X00010524Y00026122D01*
X00010498Y00026139D01*
X00010474Y00026158D01*
X00010451Y00026179D01*
X00010430Y00026201D01*
X00010411Y00026226D01*
X00010394Y00026251D01*
X00010379Y00026278D01*
X00010366Y00026306D01*
X00010355Y00026335D01*
X00010346Y00026364D01*
X00010340Y00026394D01*
X00010336Y00026425D01*
X00010335Y00026455D01*
X00010333Y00026692D01*
X00010334Y00026723D01*
X00010338Y00026754D01*
X00010343Y00026784D01*
X00010352Y00026814D01*
X00010362Y00026843D01*
X00010375Y00026872D01*
X00010390Y00026899D01*
X00010407Y00026925D01*
X00010426Y00026949D01*
X00010447Y00026972D01*
X00010470Y00026993D01*
X00010494Y00027012D01*
X00010520Y00027030D01*
X00010547Y00027045D01*
X00010575Y00027058D01*
X00010605Y00027069D01*
X00010634Y00027077D01*
X00010665Y00027083D01*
X00010696Y00027087D01*
X00010727Y00027088D01*
X00019252Y00027088D01*
X00019252Y00031762D01*
X00019254Y00031793D01*
X00019257Y00031823D01*
X00019263Y00031854D01*
X00019272Y00031884D01*
X00019282Y00031913D01*
X00019295Y00031941D01*
X00019310Y00031968D01*
X00019328Y00031993D01*
X00019347Y00032018D01*
X00019368Y00032040D01*
X00019390Y00032061D01*
X00019415Y00032080D01*
X00019440Y00032098D01*
X00019467Y00032113D01*
X00019495Y00032126D01*
X00019524Y00032136D01*
X00019554Y00032145D01*
X00019585Y00032151D01*
X00019615Y00032154D01*
X00019646Y00032156D01*
X00019723Y00032156D01*
X00019754Y00032154D01*
X00019785Y00032151D01*
X00019815Y00032145D01*
X00019845Y00032136D01*
X00019874Y00032126D01*
X00019902Y00032113D01*
X00019929Y00032098D01*
X00019954Y00032080D01*
X00019979Y00032061D01*
X00020001Y00032040D01*
X00020022Y00032018D01*
X00020041Y00031993D01*
X00020059Y00031968D01*
X00020074Y00031941D01*
X00020087Y00031913D01*
X00020097Y00031884D01*
X00020106Y00031854D01*
X00020112Y00031823D01*
X00020115Y00031793D01*
X00020117Y00031762D01*
X00020117Y00027084D01*
X00028247Y00027084D01*
X00028278Y00027083D01*
X00028308Y00027079D01*
X00028338Y00027073D01*
X00028368Y00027065D01*
X00028397Y00027054D01*
X00028425Y00027041D01*
X00028452Y00027026D01*
X00028477Y00027009D01*
X00028501Y00026990D01*
X00028524Y00026970D01*
X00028545Y00026947D01*
X00028564Y00026923D01*
X00028581Y00026898D01*
X00028597Y00026871D01*
X00028610Y00026843D01*
X00028621Y00026814D01*
X00028629Y00026785D01*
X00028635Y00026754D01*
X00028639Y00026724D01*
X00028640Y00026693D01*
X00028642Y00026457D01*
X00028641Y00026426D01*
X00028638Y00026395D01*
X00028632Y00026365D01*
X00028624Y00026335D01*
X00028613Y00026305D01*
X00028600Y00026277D01*
X00028585Y00026250D01*
X00028568Y00026224D01*
X00028549Y00026200D01*
X00028528Y00026177D01*
X00028505Y00026155D01*
X00028481Y00026136D01*
X00028455Y00026119D01*
X00028428Y00026104D01*
X00028400Y00026091D01*
X00028371Y00026080D01*
X00028341Y00026071D01*
X00028310Y00026065D01*
X00028280Y00026062D01*
X00028249Y00026060D01*
X00020117Y00026060D01*
X00020117Y00014092D01*
X00028444Y00014092D01*
X00028474Y00014091D01*
X00028505Y00014087D01*
X00028535Y00014081D01*
X00028565Y00014073D01*
X00028594Y00014062D01*
X00028622Y00014049D01*
X00028648Y00014034D01*
X00028674Y00014017D01*
X00028698Y00013998D01*
X00028721Y00013978D01*
X00028742Y00013955D01*
X00028761Y00013931D01*
X00028778Y00013905D01*
X00028794Y00013879D01*
X00028807Y00013851D01*
X00028817Y00013822D01*
X00028826Y00013792D01*
X00028832Y00013762D01*
X00028836Y00013732D01*
X00028837Y00013701D01*
X00028839Y00013465D01*
X00028838Y00013434D01*
X00028835Y00013403D01*
X00028829Y00013372D01*
X00028821Y00013342D01*
X00028810Y00013313D01*
X00028797Y00013285D01*
X00028782Y00013258D01*
X00028765Y00013232D01*
X00028746Y00013207D01*
X00028725Y00013185D01*
X00028702Y00013163D01*
X00028678Y00013144D01*
X00028652Y00013127D01*
X00028625Y00013111D01*
X00028597Y00013098D01*
X00028568Y00013088D01*
X00028538Y00013079D01*
X00028507Y00013073D01*
X00028476Y00013069D01*
X00028445Y00013068D01*
X00020117Y00013068D01*
X00020117Y00008395D01*
X00020115Y00008364D01*
X00020112Y00008333D01*
X00020106Y00008303D01*
X00020097Y00008273D01*
X00020087Y00008244D01*
X00020074Y00008216D01*
X00020059Y00008189D01*
X00020041Y00008163D01*
X00020022Y00008139D01*
X00020001Y00008116D01*
X00019979Y00008095D01*
X00019954Y00008076D01*
X00019929Y00008059D01*
X00019902Y00008044D01*
X00019874Y00008031D01*
X00019845Y00008020D01*
X00019815Y00008012D01*
X00019785Y00008006D01*
X00019754Y00008002D01*
X00019723Y00008001D01*
X00019646Y00008001D01*
X00019615Y00008002D01*
X00019585Y00008006D01*
X00019554Y00008012D01*
X00019524Y00008020D01*
X00019495Y00008031D01*
X00019467Y00008044D01*
X00019440Y00008059D01*
X00019415Y00008076D01*
X00019390Y00008095D01*
X00019368Y00008116D01*
X00019347Y00008139D01*
X00019328Y00008163D01*
X00019310Y00008189D01*
X00019295Y00008216D01*
X00019282Y00008244D01*
X00019272Y00008273D01*
X00019263Y00008303D01*
X00019257Y00008333D01*
X00019254Y00008364D01*
X00019252Y00008395D01*
X00002245Y00013073D02*
X00002245Y00013073D01*
X00002047Y00013057D01*
X00001855Y00013011D01*
X00001673Y00012935D01*
X00001504Y00012832D01*
X00001354Y00012704D01*
X00001225Y00012553D01*
X00001122Y00012385D01*
X00001046Y00012202D01*
X00001000Y00012010D01*
X00000985Y00011813D01*
X00000984Y00008818D01*
X00000975Y00008708D01*
X00000949Y00008599D01*
X00000907Y00008497D01*
X00000848Y00008402D01*
X00000776Y00008317D01*
X00000692Y00008245D01*
X00000597Y00008187D01*
X00000494Y00008144D01*
X00000386Y00008118D01*
X00000275Y00008110D01*
X00000000Y00008110D01*
X00000000Y00005905D01*
X00000276Y00005905D01*
X00000387Y00005896D01*
X00000495Y00005870D01*
X00000598Y00005828D01*
X00000693Y00005770D01*
X00000777Y00005697D01*
X00000849Y00005613D01*
X00000907Y00005518D01*
X00000950Y00005415D01*
X00000976Y00005307D01*
X00000985Y00005196D01*
X00000985Y00002364D01*
X00001000Y00002167D01*
X00001046Y00001975D01*
X00001122Y00001792D01*
X00001225Y00001623D01*
X00001354Y00001473D01*
X00001504Y00001345D01*
X00001673Y00001241D01*
X00001855Y00001166D01*
X00002047Y00001120D01*
X00002245Y00001104D01*
X00019252Y00001104D01*
X00019252Y00005778D01*
X00019254Y00005809D01*
X00019257Y00005839D01*
X00019263Y00005870D01*
X00019272Y00005899D01*
X00019282Y00005928D01*
X00019295Y00005956D01*
X00019310Y00005983D01*
X00019328Y00006009D01*
X00019347Y00006033D01*
X00019368Y00006056D01*
X00019390Y00006077D01*
X00019415Y00006096D01*
X00019440Y00006113D01*
X00019467Y00006128D01*
X00019495Y00006141D01*
X00019524Y00006152D01*
X00019554Y00006160D01*
X00019585Y00006167D01*
X00019615Y00006170D01*
X00019646Y00006171D01*
X00019723Y00006171D01*
X00019754Y00006170D01*
X00019785Y00006167D01*
X00019815Y00006160D01*
X00019845Y00006152D01*
X00019874Y00006141D01*
X00019902Y00006128D01*
X00019929Y00006113D01*
X00019954Y00006096D01*
X00019979Y00006077D01*
X00020001Y00006056D01*
X00020022Y00006033D01*
X00020041Y00006009D01*
X00020059Y00005983D01*
X00020074Y00005956D01*
X00020087Y00005928D01*
X00020097Y00005899D01*
X00020106Y00005870D01*
X00020112Y00005839D01*
X00020115Y00005809D01*
X00020117Y00005778D01*
X00020117Y00001100D01*
X00037125Y00001100D01*
X00037322Y00001115D01*
X00037514Y00001161D01*
X00037696Y00001237D01*
X00037865Y00001340D01*
X00038015Y00001469D01*
X00038144Y00001619D01*
X00038247Y00001788D01*
X00038323Y00001970D01*
X00038369Y00002162D01*
X00038384Y00002360D01*
X00038385Y00005354D01*
X00038394Y00005465D01*
X00038420Y00005573D01*
X00038463Y00005676D01*
X00038521Y00005770D01*
X00038593Y00005855D01*
X00038677Y00005927D01*
X00038772Y00005985D01*
X00038875Y00006028D01*
X00038983Y00006054D01*
X00039094Y00006062D01*
X00039370Y00006062D01*
X00039370Y00008267D01*
X00039093Y00008267D01*
X00038982Y00008276D01*
X00038874Y00008302D01*
X00038771Y00008344D01*
X00038676Y00008403D01*
X00038592Y00008475D01*
X00038520Y00008559D01*
X00038462Y00008654D01*
X00038419Y00008757D01*
X00038393Y00008865D01*
X00038384Y00008976D01*
X00038384Y00011808D01*
X00038369Y00012005D01*
X00038323Y00012198D01*
X00038247Y00012380D01*
X00038144Y00012549D01*
X00038015Y00012699D01*
X00037865Y00012828D01*
X00037696Y00012931D01*
X00037514Y00013006D01*
X00037322Y00013053D01*
X00037125Y00013068D01*
X00031002Y00013068D01*
X00030971Y00013069D01*
X00030941Y00013073D01*
X00030910Y00013079D01*
X00030880Y00013088D01*
X00030851Y00013098D01*
X00030823Y00013111D01*
X00030796Y00013127D01*
X00030770Y00013144D01*
X00030746Y00013163D01*
X00030723Y00013185D01*
X00030702Y00013207D01*
X00030683Y00013232D01*
X00030666Y00013258D01*
X00030651Y00013285D01*
X00030638Y00013313D01*
X00030627Y00013342D01*
X00030619Y00013372D01*
X00030613Y00013403D01*
X00030610Y00013434D01*
X00030609Y00013465D01*
X00030610Y00013701D01*
X00030612Y00013732D01*
X00030616Y00013762D01*
X00030622Y00013792D01*
X00030630Y00013822D01*
X00030641Y00013851D01*
X00030654Y00013879D01*
X00030669Y00013905D01*
X00030687Y00013931D01*
X00030706Y00013955D01*
X00030727Y00013978D01*
X00030749Y00013998D01*
X00030774Y00014017D01*
X00030799Y00014034D01*
X00030826Y00014049D01*
X00030854Y00014062D01*
X00030883Y00014073D01*
X00030913Y00014081D01*
X00030943Y00014087D01*
X00030973Y00014091D01*
X00031004Y00014092D01*
X00037125Y00014092D01*
X00037322Y00014107D01*
X00037514Y00014153D01*
X00037696Y00014229D01*
X00037865Y00014332D01*
X00038015Y00014461D01*
X00038144Y00014611D01*
X00038247Y00014780D01*
X00038323Y00014962D01*
X00038369Y00015155D01*
X00038384Y00015352D01*
X00038385Y00018346D01*
X00038394Y00018457D01*
X00038420Y00018565D01*
X00038463Y00018668D01*
X00038521Y00018763D01*
X00038593Y00018847D01*
X00038677Y00018919D01*
X00038772Y00018977D01*
X00038875Y00019020D01*
X00038983Y00019046D01*
X00039094Y00019055D01*
X00039370Y00019055D01*
X00039370Y00021259D01*
X00039093Y00021259D01*
X00038982Y00021268D01*
X00038874Y00021294D01*
X00038771Y00021337D01*
X00038676Y00021395D01*
X00038592Y00021467D01*
X00038520Y00021551D01*
X00038462Y00021646D01*
X00038419Y00021749D01*
X00038393Y00021857D01*
X00038384Y00021968D01*
X00038384Y00024800D01*
X00038369Y00024998D01*
X00038323Y00025190D01*
X00038247Y00025372D01*
X00038144Y00025541D01*
X00038015Y00025691D01*
X00037865Y00025820D01*
X00037696Y00025923D01*
X00037514Y00025999D01*
X00037322Y00026045D01*
X00037125Y00026060D01*
X00030806Y00026060D01*
X00030775Y00026062D01*
X00030744Y00026065D01*
X00030713Y00026071D01*
X00030683Y00026080D01*
X00030654Y00026091D01*
X00030626Y00026104D01*
X00030599Y00026119D01*
X00030573Y00026136D01*
X00030549Y00026155D01*
X00030526Y00026177D01*
X00030505Y00026200D01*
X00030486Y00026224D01*
X00030469Y00026250D01*
X00030454Y00026277D01*
X00030441Y00026305D01*
X00030430Y00026335D01*
X00030422Y00026365D01*
X00030416Y00026395D01*
X00030413Y00026426D01*
X00030412Y00026457D01*
X00030414Y00026693D01*
X00030415Y00026724D01*
X00030419Y00026754D01*
X00030425Y00026785D01*
X00030434Y00026814D01*
X00030444Y00026843D01*
X00030457Y00026871D01*
X00030473Y00026898D01*
X00030490Y00026923D01*
X00030509Y00026947D01*
X00030530Y00026970D01*
X00030553Y00026990D01*
X00030577Y00027009D01*
X00030602Y00027026D01*
X00030629Y00027041D01*
X00030657Y00027054D01*
X00030686Y00027065D01*
X00030716Y00027073D01*
X00030746Y00027079D01*
X00030777Y00027083D01*
X00030807Y00027084D01*
X00037125Y00027084D01*
X00037322Y00027099D01*
X00037514Y00027146D01*
X00037696Y00027221D01*
X00037865Y00027325D01*
X00038015Y00027453D01*
X00038144Y00027603D01*
X00038247Y00027772D01*
X00038323Y00027954D01*
X00038369Y00028147D01*
X00038384Y00028344D01*
X00038385Y00031338D01*
X00038394Y00031449D01*
X00038420Y00031557D01*
X00038463Y00031660D01*
X00038521Y00031755D01*
X00038593Y00031839D01*
X00038677Y00031911D01*
X00038772Y00031970D01*
X00038875Y00032012D01*
X00038983Y00032038D01*
X00039094Y00032047D01*
X00039370Y00032047D01*
X00039370Y00034251D01*
X00039093Y00034251D01*
X00038982Y00034260D01*
X00038874Y00034286D01*
X00038771Y00034329D01*
X00038676Y00034387D01*
X00038592Y00034459D01*
X00038520Y00034544D01*
X00038462Y00034638D01*
X00038419Y00034741D01*
X00038393Y00034849D01*
X00038384Y00034960D01*
X00038384Y00037793D01*
X00038369Y00037990D01*
X00038323Y00038182D01*
X00038247Y00038365D01*
X00038144Y00038533D01*
X00038015Y00038683D01*
X00037865Y00038812D01*
X00037696Y00038915D01*
X00037514Y00038991D01*
X00037322Y00039037D01*
X00037125Y00039052D01*
X00020117Y00039052D01*
X00020117Y00034379D01*
X00020115Y00034348D01*
X00020112Y00034317D01*
X00020106Y00034287D01*
X00020097Y00034257D01*
X00020087Y00034228D01*
X00020074Y00034200D01*
X00020059Y00034173D01*
X00020041Y00034147D01*
X00020022Y00034123D01*
X00020001Y00034100D01*
X00019979Y00034079D01*
X00019954Y00034060D01*
X00019929Y00034043D01*
X00019902Y00034028D01*
X00019874Y00034015D01*
X00019845Y00034004D01*
X00019815Y00033996D01*
X00019785Y00033990D01*
X00019754Y00033986D01*
X00019723Y00033985D01*
X00019646Y00033985D01*
X00019615Y00033986D01*
X00019585Y00033990D01*
X00019554Y00033996D01*
X00019524Y00034004D01*
X00019495Y00034015D01*
X00019467Y00034028D01*
X00019440Y00034043D01*
X00019415Y00034060D01*
X00019390Y00034079D01*
X00019368Y00034100D01*
X00019347Y00034123D01*
X00019328Y00034147D01*
X00019310Y00034173D01*
X00019295Y00034200D01*
X00019282Y00034228D01*
X00019272Y00034257D01*
X00019263Y00034287D01*
X00019257Y00034317D01*
X00019254Y00034348D01*
X00019252Y00034379D01*
X00019252Y00039057D01*
X00002245Y00039057D01*
X00002047Y00039041D01*
X00001855Y00038995D01*
X00001673Y00038920D01*
X00001504Y00038816D01*
X00001354Y00038688D01*
X00001225Y00038538D01*
X00001122Y00038369D01*
X00001046Y00038186D01*
X00001000Y00037994D01*
X00000985Y00037797D01*
X00000984Y00034803D01*
X00000975Y00034692D01*
X00000949Y00034584D01*
X00000907Y00034481D01*
X00000848Y00034386D01*
X00000776Y00034302D01*
X00000692Y00034229D01*
X00000597Y00034171D01*
X00000494Y00034129D01*
X00000386Y00034103D01*
X00000275Y00034094D01*
X00000000Y00034094D01*
X00000000Y00031889D01*
X00000276Y00031889D01*
X00000387Y00031881D01*
X00000495Y00031855D01*
X00000598Y00031812D01*
X00000693Y00031754D01*
X00000777Y00031682D01*
X00000849Y00031597D01*
X00000907Y00031502D01*
X00000950Y00031400D01*
X00000976Y00031291D01*
X00000985Y00031181D01*
X00000985Y00028348D01*
X00001000Y00028151D01*
X00001046Y00027959D01*
X00001122Y00027776D01*
X00001225Y00027608D01*
X00001354Y00027457D01*
X00001504Y00027329D01*
X00001673Y00027226D01*
X00001855Y00027150D01*
X00002047Y00027104D01*
X00002245Y00027088D01*
X00008170Y00027088D01*
X00008201Y00027087D01*
X00008232Y00027083D01*
X00008262Y00027077D01*
X00008292Y00027069D01*
X00008321Y00027058D01*
X00008349Y00027045D01*
X00008376Y00027030D01*
X00008402Y00027012D01*
X00008427Y00026993D01*
X00008449Y00026972D01*
X00008470Y00026949D01*
X00008489Y00026925D01*
X00008507Y00026899D01*
X00008522Y00026872D01*
X00008534Y00026843D01*
X00008545Y00026814D01*
X00008553Y00026784D01*
X00008559Y00026754D01*
X00008563Y00026723D01*
X00008564Y00026692D01*
X00008562Y00026455D01*
X00008560Y00026425D01*
X00008556Y00026394D01*
X00008550Y00026364D01*
X00008542Y00026335D01*
X00008531Y00026306D01*
X00008518Y00026278D01*
X00008503Y00026251D01*
X00008486Y00026226D01*
X00008466Y00026201D01*
X00008445Y00026179D01*
X00008423Y00026158D01*
X00008399Y00026139D01*
X00008373Y00026122D01*
X00008346Y00026107D01*
X00008318Y00026094D01*
X00008289Y00026084D01*
X00008260Y00026075D01*
X00008229Y00026069D01*
X00008199Y00026066D01*
X00008168Y00026065D01*
X00002245Y00026065D01*
X00002047Y00026049D01*
X00001855Y00026003D01*
X00001673Y00025927D01*
X00001504Y00025824D01*
X00001354Y00025696D01*
X00001225Y00025545D01*
X00001122Y00025377D01*
X00001046Y00025194D01*
X00001000Y00025002D01*
X00000985Y00024805D01*
X00000984Y00021811D01*
X00000975Y00021700D01*
X00000949Y00021592D01*
X00000907Y00021489D01*
X00000848Y00021394D01*
X00000776Y00021309D01*
X00000692Y00021237D01*
X00000597Y00021179D01*
X00000494Y00021137D01*
X00000386Y00021111D01*
X00000275Y00021102D01*
X00000000Y00021102D01*
X00000000Y00018897D01*
X00000276Y00018897D01*
X00000387Y00018888D01*
X00000495Y00018862D01*
X00000598Y00018820D01*
X00000693Y00018762D01*
X00000777Y00018690D01*
X00000849Y00018605D01*
X00000907Y00018510D01*
X00000950Y00018407D01*
X00000976Y00018299D01*
X00000985Y00018188D01*
X00000985Y00015356D01*
X00001000Y00015159D01*
X00001046Y00014967D01*
X00001122Y00014784D01*
X00001225Y00014616D01*
X00001354Y00014465D01*
X00001504Y00014337D01*
X00001673Y00014234D01*
X00001855Y00014158D01*
X00002047Y00014112D01*
X00002245Y00014096D01*
X00008170Y00014096D01*
X00008201Y00014095D01*
X00008232Y00014091D01*
X00008262Y00014085D01*
X00008292Y00014077D01*
X00008321Y00014066D01*
X00008349Y00014053D01*
X00008376Y00014038D01*
X00008402Y00014020D01*
X00008427Y00014001D01*
X00008449Y00013980D01*
X00008470Y00013957D01*
X00008489Y00013932D01*
X00008507Y00013907D01*
X00008522Y00013879D01*
X00008534Y00013851D01*
X00008545Y00013822D01*
X00008553Y00013792D01*
X00008559Y00013761D01*
X00008563Y00013731D01*
X00008564Y00013700D01*
X00008562Y00013463D01*
X00008560Y00013433D01*
X00008556Y00013402D01*
X00008550Y00013372D01*
X00008542Y00013342D01*
X00008531Y00013314D01*
X00008518Y00013286D01*
X00008503Y00013259D01*
X00008486Y00013233D01*
X00008466Y00013209D01*
X00008445Y00013187D01*
X00008423Y00013166D01*
X00008399Y00013147D01*
X00008373Y00013130D01*
X00008346Y00013115D01*
X00008318Y00013102D01*
X00008289Y00013092D01*
X00008260Y00013083D01*
X00008229Y00013077D01*
X00008199Y00013074D01*
X00008168Y00013073D01*
X00002245Y00013073D01*
M02*