%MOIN*%
%OFA0B0*%
%FSLAX46Y46*%
%IPPOS*%
%LPD*%
%ADD10C,0.0019685039370078744*%
%ADD11O,0.07874015748031496X0.07874015748031496*%
%ADD12R,0.07874015748031496X0.07874015748031496*%
%ADD13O,0.08X0.08*%
%ADD14R,0.08X0.08*%
%ADD25C,0.0019685039370078744*%
%ADD26O,0.07874015748031496X0.07874015748031496*%
%ADD27R,0.07874015748031496X0.07874015748031496*%
%ADD28O,0.08X0.08*%
%ADD29R,0.08X0.08*%
%ADD40C,0.0019685039370078744*%
%ADD41O,0.07874015748031496X0.07874015748031496*%
%ADD42R,0.07874015748031496X0.07874015748031496*%
%ADD43O,0.08X0.08*%
%ADD44R,0.08X0.08*%
%ADD55C,0.0019685039370078744*%
%ADD56O,0.07874015748031496X0.07874015748031496*%
%ADD57R,0.07874015748031496X0.07874015748031496*%
%ADD58O,0.08X0.08*%
%ADD59R,0.08X0.08*%
%ADD70C,0.0019685039370078744*%
%ADD71O,0.07874015748031496X0.07874015748031496*%
%ADD72R,0.07874015748031496X0.07874015748031496*%
%ADD73O,0.08X0.08*%
%ADD74R,0.08X0.08*%
%ADD85C,0.0019685039370078744*%
%ADD86O,0.07874015748031496X0.07874015748031496*%
%ADD87R,0.07874015748031496X0.07874015748031496*%
%ADD88O,0.08X0.08*%
%ADD89R,0.08X0.08*%
%LPD*%
G01*
D10*
D11*
X0003937007Y0002125984D02*
X0002056861Y0001568435D03*
X0002156861Y0001568435D03*
X0002056861Y0001668435D03*
X0002156861Y0001668435D03*
X0002056861Y0001768435D03*
X0002156861Y0001768435D03*
X0002056861Y0001868435D03*
X0002156861Y0001868435D03*
X0002056861Y0001968435D03*
X0002156861Y0001968435D03*
X0002056861Y0002068435D03*
X0002156861Y0002068435D03*
X0002056861Y0002168435D03*
X0002156861Y0002168435D03*
X0002056861Y0002268435D03*
X0002156861Y0002268435D03*
X0002056861Y0002368435D03*
X0002156861Y0002368435D03*
X0002056861Y0002468435D03*
D12*
X0002156861Y0002468435D03*
D13*
X0003897637Y0002071689D03*
D14*
X0003897637Y0001971690D03*
X0003799816Y0001972083D03*
D13*
X0003799816Y0002072083D03*
D11*
X0002407255Y0001568435D03*
X0002507255Y0001568435D03*
X0002407255Y0001668435D03*
X0002507255Y0001668435D03*
X0002407255Y0001768435D03*
X0002507255Y0001768435D03*
X0002407255Y0001868435D03*
X0002507255Y0001868435D03*
X0002407255Y0001968435D03*
X0002507255Y0001968435D03*
X0002407255Y0002068435D03*
X0002507255Y0002068435D03*
X0002407255Y0002168435D03*
X0002507255Y0002168435D03*
X0002407255Y0002268435D03*
X0002507255Y0002268435D03*
X0002407255Y0002368435D03*
X0002507255Y0002368435D03*
X0002407255Y0002468435D03*
D12*
X0002507255Y0002468435D03*
D11*
X0002757649Y0001568435D03*
X0002857649Y0001568435D03*
X0002757649Y0001668435D03*
X0002857649Y0001668435D03*
X0002757649Y0001768435D03*
X0002857649Y0001768435D03*
X0002757649Y0001868435D03*
X0002857649Y0001868435D03*
X0002757649Y0001968435D03*
X0002857649Y0001968435D03*
X0002757649Y0002068435D03*
X0002857649Y0002068435D03*
X0002757649Y0002168435D03*
X0002857649Y0002168435D03*
X0002757649Y0002268435D03*
X0002857649Y0002268435D03*
X0002757649Y0002368435D03*
X0002857649Y0002368435D03*
X0002757649Y0002468435D03*
D12*
X0002857649Y0002468435D03*
D11*
X0003108041Y0001568435D03*
X0003208042Y0001568435D03*
X0003108041Y0001668435D03*
X0003208042Y0001668435D03*
X0003108041Y0001768435D03*
X0003208042Y0001768435D03*
X0003108041Y0001868435D03*
X0003208042Y0001868435D03*
X0003108041Y0001968435D03*
X0003208042Y0001968435D03*
X0003108041Y0002068435D03*
X0003208042Y0002068435D03*
X0003108041Y0002168435D03*
X0003208042Y0002168435D03*
X0003108041Y0002268435D03*
X0003208042Y0002268435D03*
X0003108041Y0002368435D03*
X0003208042Y0002368435D03*
X0003108041Y0002468435D03*
D12*
X0003208042Y0002468435D03*
X0003558436Y0002468435D03*
D11*
X0003458436Y0002468435D03*
X0003558436Y0002368435D03*
X0003458436Y0002368435D03*
X0003558436Y0002268435D03*
X0003458436Y0002268435D03*
X0003558436Y0002168435D03*
X0003458436Y0002168435D03*
X0003558436Y0002068435D03*
X0003458436Y0002068435D03*
X0003558436Y0001968435D03*
X0003458436Y0001968435D03*
X0003558436Y0001868435D03*
X0003458436Y0001868435D03*
X0003558436Y0001768435D03*
X0003458436Y0001768435D03*
X0003558436Y0001668435D03*
X0003458436Y0001668435D03*
X0003558436Y0001568435D03*
X0003458436Y0001568435D03*
G01*
D25*
D26*
X0003937007Y0003425196D02*
X0002056861Y0002867647D03*
X0002156861Y0002867647D03*
X0002056861Y0002967647D03*
X0002156861Y0002967647D03*
X0002056861Y0003067647D03*
X0002156861Y0003067647D03*
X0002056861Y0003167647D03*
X0002156861Y0003167647D03*
X0002056861Y0003267646D03*
X0002156861Y0003267646D03*
X0002056861Y0003367647D03*
X0002156861Y0003367647D03*
X0002056861Y0003467647D03*
X0002156861Y0003467647D03*
X0002056861Y0003567647D03*
X0002156861Y0003567647D03*
X0002056861Y0003667646D03*
X0002156861Y0003667646D03*
X0002056861Y0003767647D03*
D27*
X0002156861Y0003767647D03*
D28*
X0003897637Y0003370901D03*
D29*
X0003897637Y0003270902D03*
X0003799816Y0003271296D03*
D28*
X0003799816Y0003371296D03*
D26*
X0002407255Y0002867647D03*
X0002507255Y0002867647D03*
X0002407255Y0002967647D03*
X0002507255Y0002967647D03*
X0002407255Y0003067647D03*
X0002507255Y0003067647D03*
X0002407255Y0003167647D03*
X0002507255Y0003167647D03*
X0002407255Y0003267646D03*
X0002507255Y0003267646D03*
X0002407255Y0003367647D03*
X0002507255Y0003367647D03*
X0002407255Y0003467647D03*
X0002507255Y0003467647D03*
X0002407255Y0003567647D03*
X0002507255Y0003567647D03*
X0002407255Y0003667646D03*
X0002507255Y0003667646D03*
X0002407255Y0003767647D03*
D27*
X0002507255Y0003767647D03*
D26*
X0002757649Y0002867647D03*
X0002857649Y0002867647D03*
X0002757649Y0002967647D03*
X0002857649Y0002967647D03*
X0002757649Y0003067647D03*
X0002857649Y0003067647D03*
X0002757649Y0003167647D03*
X0002857649Y0003167647D03*
X0002757649Y0003267646D03*
X0002857649Y0003267646D03*
X0002757649Y0003367647D03*
X0002857649Y0003367647D03*
X0002757649Y0003467647D03*
X0002857649Y0003467647D03*
X0002757649Y0003567647D03*
X0002857649Y0003567647D03*
X0002757649Y0003667646D03*
X0002857649Y0003667646D03*
X0002757649Y0003767647D03*
D27*
X0002857649Y0003767647D03*
D26*
X0003108041Y0002867647D03*
X0003208042Y0002867647D03*
X0003108041Y0002967647D03*
X0003208042Y0002967647D03*
X0003108041Y0003067647D03*
X0003208042Y0003067647D03*
X0003108041Y0003167647D03*
X0003208042Y0003167647D03*
X0003108041Y0003267646D03*
X0003208042Y0003267646D03*
X0003108041Y0003367647D03*
X0003208042Y0003367647D03*
X0003108041Y0003467647D03*
X0003208042Y0003467647D03*
X0003108041Y0003567647D03*
X0003208042Y0003567647D03*
X0003108041Y0003667646D03*
X0003208042Y0003667646D03*
X0003108041Y0003767647D03*
D27*
X0003208042Y0003767647D03*
X0003558436Y0003767647D03*
D26*
X0003458436Y0003767647D03*
X0003558436Y0003667646D03*
X0003458436Y0003667646D03*
X0003558436Y0003567647D03*
X0003458436Y0003567647D03*
X0003558436Y0003467647D03*
X0003458436Y0003467647D03*
X0003558436Y0003367647D03*
X0003458436Y0003367647D03*
X0003558436Y0003267646D03*
X0003458436Y0003267646D03*
X0003558436Y0003167647D03*
X0003458436Y0003167647D03*
X0003558436Y0003067647D03*
X0003458436Y0003067647D03*
X0003558436Y0002967647D03*
X0003458436Y0002967647D03*
X0003558436Y0002867647D03*
X0003458436Y0002867647D03*
G04 next file*
%LPD*%
G01*
D40*
D41*
X0000000000Y0000590551D02*
X0001880146Y0001148100D03*
X0001780146Y0001148100D03*
X0001880146Y0001048100D03*
X0001780146Y0001048100D03*
X0001880146Y0000948100D03*
X0001780146Y0000948100D03*
X0001880146Y0000848100D03*
X0001780146Y0000848100D03*
X0001880146Y0000748100D03*
X0001780146Y0000748100D03*
X0001880146Y0000648100D03*
X0001780146Y0000648100D03*
X0001880146Y0000548100D03*
X0001780146Y0000548100D03*
X0001880146Y0000448100D03*
X0001780146Y0000448100D03*
X0001880146Y0000348100D03*
X0001780146Y0000348100D03*
X0001880146Y0000248100D03*
D42*
X0001780146Y0000248100D03*
D43*
X0000039370Y0000644845D03*
D44*
X0000039370Y0000744845D03*
X0000137191Y0000744451D03*
D43*
X0000137191Y0000644451D03*
D41*
X0001529752Y0001148100D03*
X0001429752Y0001148100D03*
X0001529752Y0001048100D03*
X0001429752Y0001048100D03*
X0001529752Y0000948100D03*
X0001429752Y0000948100D03*
X0001529752Y0000848100D03*
X0001429752Y0000848100D03*
X0001529752Y0000748100D03*
X0001429752Y0000748100D03*
X0001529752Y0000648100D03*
X0001429752Y0000648100D03*
X0001529752Y0000548100D03*
X0001429752Y0000548100D03*
X0001529752Y0000448100D03*
X0001429752Y0000448100D03*
X0001529752Y0000348100D03*
X0001429752Y0000348100D03*
X0001529752Y0000248100D03*
D42*
X0001429752Y0000248100D03*
D41*
X0001179358Y0001148100D03*
X0001079358Y0001148100D03*
X0001179358Y0001048100D03*
X0001079358Y0001048100D03*
X0001179358Y0000948100D03*
X0001079358Y0000948100D03*
X0001179358Y0000848100D03*
X0001079358Y0000848100D03*
X0001179358Y0000748100D03*
X0001079358Y0000748100D03*
X0001179358Y0000648100D03*
X0001079358Y0000648100D03*
X0001179358Y0000548100D03*
X0001079358Y0000548100D03*
X0001179358Y0000448100D03*
X0001079358Y0000448100D03*
X0001179358Y0000348100D03*
X0001079358Y0000348100D03*
X0001179358Y0000248100D03*
D42*
X0001079358Y0000248100D03*
D41*
X0000828965Y0001148100D03*
X0000728965Y0001148100D03*
X0000828965Y0001048100D03*
X0000728965Y0001048100D03*
X0000828965Y0000948100D03*
X0000728965Y0000948100D03*
X0000828965Y0000848100D03*
X0000728965Y0000848100D03*
X0000828965Y0000748100D03*
X0000728965Y0000748100D03*
X0000828965Y0000648100D03*
X0000728965Y0000648100D03*
X0000828965Y0000548100D03*
X0000728965Y0000548100D03*
X0000828965Y0000448100D03*
X0000728965Y0000448100D03*
X0000828965Y0000348100D03*
X0000728965Y0000348100D03*
X0000828965Y0000248100D03*
D42*
X0000728965Y0000248100D03*
X0000378571Y0000248100D03*
D41*
X0000478571Y0000248100D03*
X0000378571Y0000348100D03*
X0000478571Y0000348100D03*
X0000378571Y0000448100D03*
X0000478571Y0000448100D03*
X0000378571Y0000548100D03*
X0000478571Y0000548100D03*
X0000378571Y0000648100D03*
X0000478571Y0000648100D03*
X0000378571Y0000748100D03*
X0000478571Y0000748100D03*
X0000378571Y0000848100D03*
X0000478571Y0000848100D03*
X0000378571Y0000948100D03*
X0000478571Y0000948100D03*
X0000378571Y0001048100D03*
X0000478571Y0001048100D03*
X0000378571Y0001148100D03*
X0000478571Y0001148100D03*
G01*
D55*
D56*
X0003937007Y0000826771D02*
X0002056861Y0000269222D03*
X0002156861Y0000269222D03*
X0002056861Y0000369222D03*
X0002156861Y0000369222D03*
X0002056861Y0000469222D03*
X0002156861Y0000469222D03*
X0002056861Y0000569222D03*
X0002156861Y0000569222D03*
X0002056861Y0000669222D03*
X0002156861Y0000669222D03*
X0002056861Y0000769222D03*
X0002156861Y0000769222D03*
X0002056861Y0000869222D03*
X0002156861Y0000869222D03*
X0002056861Y0000969222D03*
X0002156861Y0000969222D03*
X0002056861Y0001069222D03*
X0002156861Y0001069222D03*
X0002056861Y0001169222D03*
D57*
X0002156861Y0001169222D03*
D58*
X0003897637Y0000772477D03*
D59*
X0003897637Y0000672477D03*
X0003799816Y0000672871D03*
D58*
X0003799816Y0000772870D03*
D56*
X0002407255Y0000269222D03*
X0002507255Y0000269222D03*
X0002407255Y0000369222D03*
X0002507255Y0000369222D03*
X0002407255Y0000469222D03*
X0002507255Y0000469222D03*
X0002407255Y0000569222D03*
X0002507255Y0000569222D03*
X0002407255Y0000669222D03*
X0002507255Y0000669222D03*
X0002407255Y0000769222D03*
X0002507255Y0000769222D03*
X0002407255Y0000869222D03*
X0002507255Y0000869222D03*
X0002407255Y0000969222D03*
X0002507255Y0000969222D03*
X0002407255Y0001069222D03*
X0002507255Y0001069222D03*
X0002407255Y0001169222D03*
D57*
X0002507255Y0001169222D03*
D56*
X0002757649Y0000269222D03*
X0002857649Y0000269222D03*
X0002757649Y0000369222D03*
X0002857649Y0000369222D03*
X0002757649Y0000469222D03*
X0002857649Y0000469222D03*
X0002757649Y0000569222D03*
X0002857649Y0000569222D03*
X0002757649Y0000669222D03*
X0002857649Y0000669222D03*
X0002757649Y0000769222D03*
X0002857649Y0000769222D03*
X0002757649Y0000869222D03*
X0002857649Y0000869222D03*
X0002757649Y0000969222D03*
X0002857649Y0000969222D03*
X0002757649Y0001069222D03*
X0002857649Y0001069222D03*
X0002757649Y0001169222D03*
D57*
X0002857649Y0001169222D03*
D56*
X0003108041Y0000269222D03*
X0003208042Y0000269222D03*
X0003108041Y0000369222D03*
X0003208042Y0000369222D03*
X0003108041Y0000469222D03*
X0003208042Y0000469222D03*
X0003108041Y0000569222D03*
X0003208042Y0000569222D03*
X0003108041Y0000669222D03*
X0003208042Y0000669222D03*
X0003108041Y0000769222D03*
X0003208042Y0000769222D03*
X0003108041Y0000869222D03*
X0003208042Y0000869222D03*
X0003108041Y0000969222D03*
X0003208042Y0000969222D03*
X0003108041Y0001069222D03*
X0003208042Y0001069222D03*
X0003108041Y0001169222D03*
D57*
X0003208042Y0001169222D03*
X0003558436Y0001169222D03*
D56*
X0003458436Y0001169222D03*
X0003558436Y0001069222D03*
X0003458436Y0001069222D03*
X0003558436Y0000969222D03*
X0003458436Y0000969222D03*
X0003558436Y0000869222D03*
X0003458436Y0000869222D03*
X0003558436Y0000769222D03*
X0003458436Y0000769222D03*
X0003558436Y0000669222D03*
X0003458436Y0000669222D03*
X0003558436Y0000569222D03*
X0003458436Y0000569222D03*
X0003558436Y0000469222D03*
X0003458436Y0000469222D03*
X0003558436Y0000369222D03*
X0003458436Y0000369222D03*
X0003558436Y0000269222D03*
X0003458436Y0000269222D03*
G04 next file*
G01*
D70*
D71*
X0000000000Y0001889762D02*
X0001880146Y0002447312D03*
X0001780146Y0002447312D03*
X0001880146Y0002347312D03*
X0001780146Y0002347312D03*
X0001880146Y0002247312D03*
X0001780146Y0002247312D03*
X0001880146Y0002147312D03*
X0001780146Y0002147312D03*
X0001880146Y0002047311D03*
X0001780146Y0002047311D03*
X0001880146Y0001947312D03*
X0001780146Y0001947312D03*
X0001880146Y0001847312D03*
X0001780146Y0001847312D03*
X0001880146Y0001747311D03*
X0001780146Y0001747311D03*
X0001880146Y0001647312D03*
X0001780146Y0001647312D03*
X0001880146Y0001547311D03*
D72*
X0001780146Y0001547311D03*
D73*
X0000039370Y0001944057D03*
D74*
X0000039370Y0002044057D03*
X0000137191Y0002043664D03*
D73*
X0000137191Y0001943664D03*
D71*
X0001529752Y0002447312D03*
X0001429752Y0002447312D03*
X0001529752Y0002347312D03*
X0001429752Y0002347312D03*
X0001529752Y0002247312D03*
X0001429752Y0002247312D03*
X0001529752Y0002147312D03*
X0001429752Y0002147312D03*
X0001529752Y0002047311D03*
X0001429752Y0002047311D03*
X0001529752Y0001947312D03*
X0001429752Y0001947312D03*
X0001529752Y0001847312D03*
X0001429752Y0001847312D03*
X0001529752Y0001747311D03*
X0001429752Y0001747311D03*
X0001529752Y0001647312D03*
X0001429752Y0001647312D03*
X0001529752Y0001547311D03*
D72*
X0001429752Y0001547311D03*
D71*
X0001179358Y0002447312D03*
X0001079358Y0002447312D03*
X0001179358Y0002347312D03*
X0001079358Y0002347312D03*
X0001179358Y0002247312D03*
X0001079358Y0002247312D03*
X0001179358Y0002147312D03*
X0001079358Y0002147312D03*
X0001179358Y0002047311D03*
X0001079358Y0002047311D03*
X0001179358Y0001947312D03*
X0001079358Y0001947312D03*
X0001179358Y0001847312D03*
X0001079358Y0001847312D03*
X0001179358Y0001747311D03*
X0001079358Y0001747311D03*
X0001179358Y0001647312D03*
X0001079358Y0001647312D03*
X0001179358Y0001547311D03*
D72*
X0001079358Y0001547311D03*
D71*
X0000828965Y0002447312D03*
X0000728965Y0002447312D03*
X0000828965Y0002347312D03*
X0000728965Y0002347312D03*
X0000828965Y0002247312D03*
X0000728965Y0002247312D03*
X0000828965Y0002147312D03*
X0000728965Y0002147312D03*
X0000828965Y0002047311D03*
X0000728965Y0002047311D03*
X0000828965Y0001947312D03*
X0000728965Y0001947312D03*
X0000828965Y0001847312D03*
X0000728965Y0001847312D03*
X0000828965Y0001747311D03*
X0000728965Y0001747311D03*
X0000828965Y0001647312D03*
X0000728965Y0001647312D03*
X0000828965Y0001547311D03*
D72*
X0000728965Y0001547311D03*
X0000378571Y0001547311D03*
D71*
X0000478571Y0001547311D03*
X0000378571Y0001647312D03*
X0000478571Y0001647312D03*
X0000378571Y0001747311D03*
X0000478571Y0001747311D03*
X0000378571Y0001847312D03*
X0000478571Y0001847312D03*
X0000378571Y0001947312D03*
X0000478571Y0001947312D03*
X0000378571Y0002047311D03*
X0000478571Y0002047311D03*
X0000378571Y0002147312D03*
X0000478571Y0002147312D03*
X0000378571Y0002247312D03*
X0000478571Y0002247312D03*
X0000378571Y0002347312D03*
X0000478571Y0002347312D03*
X0000378571Y0002447312D03*
X0000478571Y0002447312D03*
G04 next file*
G04 #@! TF.GenerationSoftware,KiCad,Pcbnew,(2017-01-20 revision 550a1ea)-makepkg*
G04 #@! TF.CreationDate,2017-01-21T19:12:54+01:00*
G04 #@! TF.ProjectId,dekada,64656B6164612E6B696361645F706362,rev?*
G04 #@! TF.FileFunction,Soldermask,Bot*
G04 #@! TF.FilePolarity,Negative*
G04 Gerber Fmt 4.6, Leading zero omitted, Abs format (unit mm)*
G04 Created by KiCad (PCBNEW (2017-01-20 revision 550a1ea)-makepkg) date 01/21/17 19:12:54*
G01*
G04 APERTURE LIST*
G04 APERTURE END LIST*
D85*
D86*
X0000000000Y0003188976D02*
X0001880146Y0003746525D03*
X0001780146Y0003746525D03*
X0001880146Y0003646525D03*
X0001780146Y0003646525D03*
X0001880146Y0003546525D03*
X0001780146Y0003546525D03*
X0001880146Y0003446525D03*
X0001780146Y0003446525D03*
X0001880146Y0003346525D03*
X0001780146Y0003346525D03*
X0001880146Y0003246525D03*
X0001780146Y0003246525D03*
X0001880146Y0003146525D03*
X0001780146Y0003146525D03*
X0001880146Y0003046525D03*
X0001780146Y0003046525D03*
X0001880146Y0002946524D03*
X0001780146Y0002946524D03*
X0001880146Y0002846525D03*
D87*
X0001780146Y0002846525D03*
D88*
X0000039370Y0003243269D03*
D89*
X0000039370Y0003343270D03*
X0000137191Y0003342876D03*
D88*
X0000137191Y0003242876D03*
D86*
X0001529752Y0003746525D03*
X0001429752Y0003746525D03*
X0001529752Y0003646525D03*
X0001429752Y0003646525D03*
X0001529752Y0003546525D03*
X0001429752Y0003546525D03*
X0001529752Y0003446525D03*
X0001429752Y0003446525D03*
X0001529752Y0003346525D03*
X0001429752Y0003346525D03*
X0001529752Y0003246525D03*
X0001429752Y0003246525D03*
X0001529752Y0003146525D03*
X0001429752Y0003146525D03*
X0001529752Y0003046525D03*
X0001429752Y0003046525D03*
X0001529752Y0002946524D03*
X0001429752Y0002946524D03*
X0001529752Y0002846525D03*
D87*
X0001429752Y0002846525D03*
D86*
X0001179358Y0003746525D03*
X0001079358Y0003746525D03*
X0001179358Y0003646525D03*
X0001079358Y0003646525D03*
X0001179358Y0003546525D03*
X0001079358Y0003546525D03*
X0001179358Y0003446525D03*
X0001079358Y0003446525D03*
X0001179358Y0003346525D03*
X0001079358Y0003346525D03*
X0001179358Y0003246525D03*
X0001079358Y0003246525D03*
X0001179358Y0003146525D03*
X0001079358Y0003146525D03*
X0001179358Y0003046525D03*
X0001079358Y0003046525D03*
X0001179358Y0002946524D03*
X0001079358Y0002946524D03*
X0001179358Y0002846525D03*
D87*
X0001079358Y0002846525D03*
D86*
X0000828965Y0003746525D03*
X0000728965Y0003746525D03*
X0000828965Y0003646525D03*
X0000728965Y0003646525D03*
X0000828965Y0003546525D03*
X0000728965Y0003546525D03*
X0000828965Y0003446525D03*
X0000728965Y0003446525D03*
X0000828965Y0003346525D03*
X0000728965Y0003346525D03*
X0000828965Y0003246525D03*
X0000728965Y0003246525D03*
X0000828965Y0003146525D03*
X0000728965Y0003146525D03*
X0000828965Y0003046525D03*
X0000728965Y0003046525D03*
X0000828965Y0002946524D03*
X0000728965Y0002946524D03*
X0000828965Y0002846525D03*
D87*
X0000728965Y0002846525D03*
X0000378571Y0002846525D03*
D86*
X0000478571Y0002846525D03*
X0000378571Y0002946524D03*
X0000478571Y0002946524D03*
X0000378571Y0003046525D03*
X0000478571Y0003046525D03*
X0000378571Y0003146525D03*
X0000478571Y0003146525D03*
X0000378571Y0003246525D03*
X0000478571Y0003246525D03*
X0000378571Y0003346525D03*
X0000478571Y0003346525D03*
X0000378571Y0003446525D03*
X0000478571Y0003446525D03*
X0000378571Y0003546525D03*
X0000478571Y0003546525D03*
X0000378571Y0003646525D03*
X0000478571Y0003646525D03*
X0000378571Y0003746525D03*
X0000478571Y0003746525D03*
M02*