%MOIN*%
%OFA0B0*%
%FSLAX46Y46*%
%IPPOS*%
%LPD*%
%ADD10C,0.0019685039370078744*%
%ADD11C,0.005905511811023622*%
%ADD12O,0.07874015748031496X0.07874015748031496*%
%ADD13R,0.07874015748031496X0.07874015748031496*%
%ADD14O,0.08X0.08*%
%ADD15R,0.08X0.08*%
%ADD16R,0.062992125984251982X0.03937007874015748*%
%ADD17C,0.03937007874015748*%
%ADD18C,0.059055118110236227*%
%ADD29C,0.0019685039370078744*%
%ADD30C,0.005905511811023622*%
%ADD31O,0.07874015748031496X0.07874015748031496*%
%ADD32R,0.07874015748031496X0.07874015748031496*%
%ADD33O,0.08X0.08*%
%ADD34R,0.08X0.08*%
%ADD35R,0.062992125984251982X0.03937007874015748*%
%ADD36C,0.03937007874015748*%
%ADD37C,0.059055118110236227*%
%ADD48C,0.0019685039370078744*%
%ADD49C,0.005905511811023622*%
%ADD50O,0.07874015748031496X0.07874015748031496*%
%ADD51R,0.07874015748031496X0.07874015748031496*%
%ADD52O,0.08X0.08*%
%ADD53R,0.08X0.08*%
%ADD54R,0.062992125984251982X0.03937007874015748*%
%ADD55C,0.03937007874015748*%
%ADD56C,0.059055118110236227*%
%ADD67C,0.0019685039370078744*%
%ADD68C,0.005905511811023622*%
%ADD69O,0.07874015748031496X0.07874015748031496*%
%ADD70R,0.07874015748031496X0.07874015748031496*%
%ADD71O,0.08X0.08*%
%ADD72R,0.08X0.08*%
%ADD73R,0.062992125984251982X0.03937007874015748*%
%ADD74C,0.03937007874015748*%
%ADD75C,0.059055118110236227*%
%ADD86C,0.0019685039370078744*%
%ADD87C,0.005905511811023622*%
%ADD88O,0.07874015748031496X0.07874015748031496*%
%ADD89R,0.07874015748031496X0.07874015748031496*%
%ADD90O,0.08X0.08*%
%ADD91R,0.08X0.08*%
%ADD92R,0.062992125984251982X0.03937007874015748*%
%ADD93C,0.03937007874015748*%
%ADD94C,0.059055118110236227*%
%ADD105C,0.0019685039370078744*%
%ADD106C,0.005905511811023622*%
%ADD107O,0.07874015748031496X0.07874015748031496*%
%ADD108R,0.07874015748031496X0.07874015748031496*%
%ADD109O,0.08X0.08*%
%ADD110R,0.08X0.08*%
%ADD111R,0.062992125984251982X0.03937007874015748*%
%ADD112C,0.03937007874015748*%
%ADD113C,0.059055118110236227*%
%LPD*%
G01*
D10*
D11*
X0002042932Y0001434945D02*
X0002039181Y0001436820D01*
X0002037307Y0001440569D01*
X0002037307Y0001474315D01*
X0002074803Y0001461192D02*
X0002074803Y0001434945D01*
X0002057929Y0001461192D02*
X0002057929Y0001440569D01*
X0002059805Y0001436820D01*
X0002063554Y0001434945D01*
X0002069178Y0001434945D01*
X0002072928Y0001436820D01*
X0002074803Y0001438695D01*
X0002087926Y0001461192D02*
X0002102924Y0001461192D01*
X0002093550Y0001434945D02*
X0002093550Y0001468691D01*
X0002095425Y0001472440D01*
X0002099175Y0001474315D01*
X0002102924Y0001474315D01*
X0002110423Y0001461192D02*
X0002125421Y0001461192D01*
X0002116047Y0001474315D02*
X0002116047Y0001440569D01*
X0002117922Y0001436820D01*
X0002121672Y0001434945D01*
X0002125421Y0001434945D01*
X0002153543Y0001436820D02*
X0002149793Y0001434945D01*
X0002142294Y0001434945D01*
X0002138545Y0001436820D01*
X0002136670Y0001440569D01*
X0002136670Y0001455567D01*
X0002138545Y0001459317D01*
X0002142294Y0001461192D01*
X0002149793Y0001461192D01*
X0002153543Y0001459317D01*
X0002155418Y0001455567D01*
X0002155418Y0001451818D01*
X0002136670Y0001448069D01*
X0002172290Y0001434945D02*
X0002172290Y0001474315D01*
X0002176040Y0001449943D02*
X0002187289Y0001434945D01*
X0002187289Y0001461192D02*
X0002172290Y0001446194D01*
X0002262279Y0001470566D02*
X0002264154Y0001472440D01*
X0002267903Y0001474315D01*
X0002277277Y0001474315D01*
X0002281027Y0001472440D01*
X0002282902Y0001470566D01*
X0002284776Y0001466816D01*
X0002284776Y0001463067D01*
X0002282902Y0001457442D01*
X0002260404Y0001434945D01*
X0002284776Y0001434945D01*
X0002309148Y0001474315D02*
X0002312898Y0001474315D01*
X0002316647Y0001472440D01*
X0002318522Y0001470566D01*
X0002320397Y0001466816D01*
X0002322272Y0001459317D01*
X0002322272Y0001449943D01*
X0002320397Y0001442444D01*
X0002318522Y0001438695D01*
X0002316647Y0001436820D01*
X0002312898Y0001434945D01*
X0002309148Y0001434945D01*
X0002305399Y0001436820D01*
X0002303524Y0001438695D01*
X0002301649Y0001442444D01*
X0002299775Y0001449943D01*
X0002299775Y0001459317D01*
X0002301649Y0001466816D01*
X0002303524Y0001470566D01*
X0002305399Y0001472440D01*
X0002309148Y0001474315D01*
X0002359767Y0001434945D02*
X0002337270Y0001434945D01*
X0002348518Y0001434945D02*
X0002348518Y0001474315D01*
X0002344769Y0001468691D01*
X0002341019Y0001464941D01*
X0002337270Y0001463067D01*
X0002372890Y0001474315D02*
X0002399137Y0001474315D01*
X0002382264Y0001434945D01*
X0002421634Y0001474315D02*
X0002425384Y0001474315D01*
X0002429133Y0001472440D01*
X0002431008Y0001470566D01*
X0002432883Y0001466816D01*
X0002434758Y0001459317D01*
X0002434758Y0001449943D01*
X0002432883Y0001442444D01*
X0002431008Y0001438695D01*
X0002429133Y0001436820D01*
X0002425384Y0001434945D01*
X0002421634Y0001434945D01*
X0002417885Y0001436820D01*
X0002416010Y0001438695D01*
X0002414135Y0001442444D01*
X0002412260Y0001449943D01*
X0002412260Y0001459317D01*
X0002414135Y0001466816D01*
X0002416010Y0001470566D01*
X0002417885Y0001472440D01*
X0002421634Y0001474315D01*
X0002472253Y0001434945D02*
X0002449756Y0001434945D01*
X0002461004Y0001434945D02*
X0002461004Y0001474315D01*
X0002457255Y0001468691D01*
X0002453505Y0001464941D01*
X0002449756Y0001463067D01*
X0002487251Y0001470566D02*
X0002489126Y0001472440D01*
X0002492875Y0001474315D01*
X0002502249Y0001474315D01*
X0002505999Y0001472440D01*
X0002507874Y0001470566D01*
X0002509748Y0001466816D01*
X0002509748Y0001463067D01*
X0002507874Y0001457442D01*
X0002485376Y0001434945D01*
X0002509748Y0001434945D01*
X0002547244Y0001434945D02*
X0002524746Y0001434945D01*
X0002535995Y0001434945D02*
X0002535995Y0001474315D01*
X0002532245Y0001468691D01*
X0002528495Y0001464941D01*
X0002524746Y0001463067D01*
D12*
X0002056861Y0001568435D03*
X0002156861Y0001568435D03*
X0002056861Y0001668435D03*
X0002156861Y0001668435D03*
X0002056861Y0001768435D03*
X0002156861Y0001768435D03*
X0002056861Y0001868435D03*
X0002156861Y0001868435D03*
X0002056861Y0001968435D03*
X0002156861Y0001968435D03*
X0002056861Y0002068435D03*
X0002156861Y0002068435D03*
X0002056861Y0002168435D03*
X0002156861Y0002168435D03*
X0002056861Y0002268435D03*
X0002156861Y0002268435D03*
X0002056861Y0002368435D03*
X0002156861Y0002368435D03*
X0002056861Y0002468435D03*
D13*
X0002156861Y0002468435D03*
D14*
X0003897637Y0002071689D03*
D15*
X0003897637Y0001971690D03*
X0003799816Y0001972083D03*
D14*
X0003799816Y0002072083D03*
D12*
X0002407255Y0001568435D03*
X0002507255Y0001568435D03*
X0002407255Y0001668435D03*
X0002507255Y0001668435D03*
X0002407255Y0001768435D03*
X0002507255Y0001768435D03*
X0002407255Y0001868435D03*
X0002507255Y0001868435D03*
X0002407255Y0001968435D03*
X0002507255Y0001968435D03*
X0002407255Y0002068435D03*
X0002507255Y0002068435D03*
X0002407255Y0002168435D03*
X0002507255Y0002168435D03*
X0002407255Y0002268435D03*
X0002507255Y0002268435D03*
X0002407255Y0002368435D03*
X0002507255Y0002368435D03*
X0002407255Y0002468435D03*
D13*
X0002507255Y0002468435D03*
D12*
X0002757649Y0001568435D03*
X0002857649Y0001568435D03*
X0002757649Y0001668435D03*
X0002857649Y0001668435D03*
X0002757649Y0001768435D03*
X0002857649Y0001768435D03*
X0002757649Y0001868435D03*
X0002857649Y0001868435D03*
X0002757649Y0001968435D03*
X0002857649Y0001968435D03*
X0002757649Y0002068435D03*
X0002857649Y0002068435D03*
X0002757649Y0002168435D03*
X0002857649Y0002168435D03*
X0002757649Y0002268435D03*
X0002857649Y0002268435D03*
X0002757649Y0002368435D03*
X0002857649Y0002368435D03*
X0002757649Y0002468435D03*
D13*
X0002857649Y0002468435D03*
D12*
X0003108041Y0001568435D03*
X0003208042Y0001568435D03*
X0003108041Y0001668435D03*
X0003208042Y0001668435D03*
X0003108041Y0001768435D03*
X0003208042Y0001768435D03*
X0003108041Y0001868435D03*
X0003208042Y0001868435D03*
X0003108041Y0001968435D03*
X0003208042Y0001968435D03*
X0003108041Y0002068435D03*
X0003208042Y0002068435D03*
X0003108041Y0002168435D03*
X0003208042Y0002168435D03*
X0003108041Y0002268435D03*
X0003208042Y0002268435D03*
X0003108041Y0002368435D03*
X0003208042Y0002368435D03*
X0003108041Y0002468435D03*
D13*
X0003208042Y0002468435D03*
D16*
X0002240995Y0001952450D03*
X0002240995Y0002086309D03*
X0002591389Y0001952450D03*
X0002591389Y0002086309D03*
X0002941782Y0001952450D03*
X0002941782Y0002086309D03*
X0003292176Y0001952450D03*
X0003292176Y0002086309D03*
X0002315247Y0002186309D03*
X0002315247Y0002052450D03*
X0002665641Y0002186309D03*
X0002665641Y0002052450D03*
X0003016034Y0002186309D03*
X0003016034Y0002052450D03*
X0003366428Y0002186309D03*
X0003366428Y0002052450D03*
X0002315247Y0001786309D03*
X0002315247Y0001652450D03*
X0002665641Y0001786309D03*
X0002665641Y0001652450D03*
X0003016034Y0001786309D03*
X0003016034Y0001652450D03*
X0003366428Y0001786309D03*
X0003366428Y0001652450D03*
X0002240995Y0001552450D03*
X0002240995Y0001686309D03*
X0002591389Y0001552450D03*
X0002591389Y0001686309D03*
X0002941782Y0001552450D03*
X0002941782Y0001686309D03*
X0003292176Y0001552450D03*
X0003292176Y0001686309D03*
X0002315247Y0001852450D03*
X0002315247Y0001986309D03*
X0002665641Y0001852450D03*
X0002665641Y0001986309D03*
X0003016034Y0001852450D03*
X0003016034Y0001986309D03*
X0003366428Y0001852450D03*
X0003366428Y0001986309D03*
X0002240995Y0002286309D03*
X0002240995Y0002152450D03*
X0002591389Y0002286309D03*
X0002591389Y0002152450D03*
X0002941782Y0002286309D03*
X0002941782Y0002152450D03*
X0003292176Y0002286309D03*
X0003292176Y0002152450D03*
X0002240995Y0001886309D03*
X0002240995Y0001752450D03*
X0002591389Y0001886309D03*
X0002591389Y0001752450D03*
X0002941782Y0001886309D03*
X0002941782Y0001752450D03*
X0003292176Y0001886309D03*
X0003292176Y0001752450D03*
X0002315247Y0002252450D03*
X0002315247Y0002386309D03*
X0002665641Y0002252450D03*
X0002665641Y0002386309D03*
X0003016034Y0002252450D03*
X0003016034Y0002386309D03*
X0003366428Y0002252450D03*
X0003366428Y0002386309D03*
X0002240995Y0002352450D03*
X0002240995Y0002486309D03*
X0002591389Y0002352450D03*
X0002591389Y0002486309D03*
X0002941782Y0002352450D03*
X0002941782Y0002486309D03*
X0003292176Y0002352450D03*
X0003292176Y0002486309D03*
D13*
X0003558436Y0002468435D03*
D12*
X0003458436Y0002468435D03*
X0003558436Y0002368435D03*
X0003458436Y0002368435D03*
X0003558436Y0002268435D03*
X0003458436Y0002268435D03*
X0003558436Y0002168435D03*
X0003458436Y0002168435D03*
X0003558436Y0002068435D03*
X0003458436Y0002068435D03*
X0003558436Y0001968435D03*
X0003458436Y0001968435D03*
X0003558436Y0001868435D03*
X0003458436Y0001868435D03*
X0003558436Y0001768435D03*
X0003458436Y0001768435D03*
X0003558436Y0001668435D03*
X0003458436Y0001668435D03*
X0003558436Y0001568435D03*
X0003458436Y0001568435D03*
D16*
X0003642570Y0002086309D03*
X0003642570Y0001952450D03*
X0003642570Y0002152450D03*
X0003642570Y0002286309D03*
X0003716822Y0001986309D03*
X0003716822Y0001852450D03*
X0003642570Y0001752450D03*
X0003642570Y0001886309D03*
X0003716822Y0001652450D03*
X0003716822Y0001786309D03*
X0003642570Y0001686309D03*
X0003642570Y0001552450D03*
X0003716822Y0002386309D03*
X0003716822Y0002252450D03*
X0003716822Y0002052450D03*
X0003716822Y0002186309D03*
X0003642570Y0002486309D03*
X0003642570Y0002352450D03*
D17*
X0002507255Y0002468435D02*
X0002573515Y0002468435D01*
X0002573515Y0002468435D02*
X0002591389Y0002486309D01*
X0002507255Y0002368435D02*
X0002575405Y0002368435D01*
X0002575405Y0002368435D02*
X0002591389Y0002352450D01*
X0002677452Y0002386309D02*
X0002637058Y0002386309D01*
X0002637058Y0002386309D02*
X0002603200Y0002352450D01*
X0002507255Y0002268435D02*
X0002573515Y0002268435D01*
X0002573515Y0002268435D02*
X0002591389Y0002286309D01*
X0002637058Y0002252450D02*
X0002603200Y0002286309D01*
X0002677452Y0002252450D02*
X0002637058Y0002252450D01*
X0002507255Y0002168435D02*
X0002575405Y0002168435D01*
X0002575405Y0002168435D02*
X0002591389Y0002152450D01*
X0002637058Y0002186309D02*
X0002603200Y0002152450D01*
X0002677452Y0002186309D02*
X0002637058Y0002186309D01*
X0002507255Y0002068435D02*
X0002573515Y0002068435D01*
X0002573515Y0002068435D02*
X0002591389Y0002086309D01*
X0002637058Y0002052450D02*
X0002603200Y0002086309D01*
X0002677452Y0002052450D02*
X0002637058Y0002052450D01*
X0002507255Y0001968435D02*
X0002575405Y0001968435D01*
X0002575405Y0001968435D02*
X0002591389Y0001952450D01*
X0002637058Y0001986309D02*
X0002603200Y0001952450D01*
X0002677452Y0001986309D02*
X0002637058Y0001986309D01*
X0002507255Y0001868435D02*
X0002573515Y0001868435D01*
X0002573515Y0001868435D02*
X0002591389Y0001886309D01*
X0002637058Y0001852450D02*
X0002603200Y0001886309D01*
X0002677452Y0001852450D02*
X0002637058Y0001852450D01*
X0002507255Y0001768435D02*
X0002575405Y0001768435D01*
X0002575405Y0001768435D02*
X0002591389Y0001752450D01*
X0002677452Y0001786309D02*
X0002637058Y0001786309D01*
X0002637058Y0001786309D02*
X0002603200Y0001752450D01*
X0002507255Y0001668435D02*
X0002573515Y0001668435D01*
X0002573515Y0001668435D02*
X0002591389Y0001686309D01*
X0002677452Y0001652450D02*
X0002637058Y0001652450D01*
X0002637058Y0001652450D02*
X0002603200Y0001686309D01*
X0002923907Y0002468435D02*
X0002941782Y0002486309D01*
X0002857649Y0002468435D02*
X0002923907Y0002468435D01*
X0003274302Y0002468435D02*
X0003292176Y0002486309D01*
X0003208042Y0002468435D02*
X0003274302Y0002468435D01*
X0002156861Y0002468435D02*
X0002223121Y0002468435D01*
X0002223121Y0002468435D02*
X0002240995Y0002486309D01*
X0002156861Y0002368435D02*
X0002225011Y0002368435D01*
X0002225011Y0002368435D02*
X0002240995Y0002352450D01*
X0002327058Y0002386309D02*
X0002286664Y0002386309D01*
X0002286664Y0002386309D02*
X0002252806Y0002352450D01*
X0002156861Y0002268435D02*
X0002223121Y0002268435D01*
X0002223121Y0002268435D02*
X0002240995Y0002286309D01*
X0002286664Y0002252450D02*
X0002252806Y0002286309D01*
X0002327058Y0002252450D02*
X0002286664Y0002252450D01*
X0002156861Y0002168435D02*
X0002225011Y0002168435D01*
X0002225011Y0002168435D02*
X0002240995Y0002152450D01*
X0002286664Y0002186309D02*
X0002252806Y0002152450D01*
X0002327058Y0002186309D02*
X0002286664Y0002186309D01*
X0002156861Y0002068435D02*
X0002223121Y0002068435D01*
X0002223121Y0002068435D02*
X0002240995Y0002086309D01*
X0002286664Y0002052450D02*
X0002252806Y0002086309D01*
X0002327058Y0002052450D02*
X0002286664Y0002052450D01*
X0002156861Y0001968435D02*
X0002225011Y0001968435D01*
X0002225011Y0001968435D02*
X0002240995Y0001952450D01*
X0002286664Y0001986309D02*
X0002252806Y0001952450D01*
X0002327058Y0001986309D02*
X0002286664Y0001986309D01*
X0002156861Y0001868435D02*
X0002223121Y0001868435D01*
X0002327058Y0001852450D02*
X0002286664Y0001852450D01*
X0002223121Y0001868435D02*
X0002240995Y0001886309D01*
X0002286664Y0001852450D02*
X0002252806Y0001886309D01*
X0002156861Y0001768435D02*
X0002225011Y0001768435D01*
X0002225011Y0001768435D02*
X0002240995Y0001752450D01*
X0002286664Y0001786309D02*
X0002252806Y0001752450D01*
X0002327058Y0001786309D02*
X0002286664Y0001786309D01*
X0002156861Y0001668435D02*
X0002223121Y0001668435D01*
X0002223121Y0001668435D02*
X0002240995Y0001686309D01*
X0002286664Y0001652450D02*
X0002252806Y0001686309D01*
X0002327058Y0001652450D02*
X0002286664Y0001652450D01*
X0002925798Y0002368435D02*
X0002941782Y0002352450D01*
X0003027845Y0002386309D02*
X0002987452Y0002386309D01*
X0002987452Y0002386309D02*
X0002953594Y0002352450D01*
X0002857649Y0002368435D02*
X0002925798Y0002368435D01*
X0002923907Y0002268435D02*
X0002941782Y0002286309D01*
X0002987452Y0002252450D02*
X0002953594Y0002286309D01*
X0003027845Y0002252450D02*
X0002987452Y0002252450D01*
X0002857649Y0002268435D02*
X0002923907Y0002268435D01*
X0002925798Y0002168435D02*
X0002941782Y0002152450D01*
X0002987452Y0002186309D02*
X0002953594Y0002152450D01*
X0003027845Y0002186309D02*
X0002987452Y0002186309D01*
X0002857649Y0002168435D02*
X0002925798Y0002168435D01*
X0002923907Y0002068435D02*
X0002941782Y0002086309D01*
X0002987452Y0002052450D02*
X0002953594Y0002086309D01*
X0003027845Y0002052450D02*
X0002987452Y0002052450D01*
X0002857649Y0002068435D02*
X0002923907Y0002068435D01*
X0002925798Y0001968435D02*
X0002941782Y0001952450D01*
X0002987452Y0001986309D02*
X0002953594Y0001952450D01*
X0003027845Y0001986309D02*
X0002987452Y0001986309D01*
X0002857649Y0001968435D02*
X0002925798Y0001968435D01*
X0002923907Y0001868435D02*
X0002941782Y0001886309D01*
X0002987452Y0001852450D02*
X0002953594Y0001886309D01*
X0003027845Y0001852450D02*
X0002987452Y0001852450D01*
X0002857649Y0001868435D02*
X0002923907Y0001868435D01*
X0002925798Y0001768435D02*
X0002941782Y0001752450D01*
X0003027845Y0001786309D02*
X0002987452Y0001786309D01*
X0002987452Y0001786309D02*
X0002953594Y0001752450D01*
X0002857649Y0001768435D02*
X0002925798Y0001768435D01*
X0002923907Y0001668435D02*
X0002941782Y0001686309D01*
X0003027845Y0001652450D02*
X0002987452Y0001652450D01*
X0002987452Y0001652450D02*
X0002953594Y0001686309D01*
X0002857649Y0001668435D02*
X0002923907Y0001668435D01*
X0003276192Y0002368435D02*
X0003292176Y0002352450D01*
X0003378239Y0002386309D02*
X0003337845Y0002386309D01*
X0003337845Y0002386309D02*
X0003303987Y0002352450D01*
X0003208042Y0002368435D02*
X0003276192Y0002368435D01*
X0003274302Y0002268435D02*
X0003292176Y0002286309D01*
X0003337845Y0002252450D02*
X0003303987Y0002286309D01*
X0003378239Y0002252450D02*
X0003337845Y0002252450D01*
X0003208042Y0002268435D02*
X0003274302Y0002268435D01*
X0003276192Y0002168435D02*
X0003292176Y0002152450D01*
X0003337845Y0002186309D02*
X0003303987Y0002152450D01*
X0003378239Y0002186309D02*
X0003337845Y0002186309D01*
X0003208042Y0002168435D02*
X0003276192Y0002168435D01*
X0003274302Y0002068435D02*
X0003292176Y0002086309D01*
X0003337845Y0002052450D02*
X0003303987Y0002086309D01*
X0003378239Y0002052450D02*
X0003337845Y0002052450D01*
X0003208042Y0002068435D02*
X0003274302Y0002068435D01*
X0003276192Y0001968435D02*
X0003292176Y0001952450D01*
X0003337845Y0001986309D02*
X0003303987Y0001952450D01*
X0003378239Y0001986309D02*
X0003337845Y0001986309D01*
X0003208042Y0001968435D02*
X0003276192Y0001968435D01*
X0003274302Y0001868435D02*
X0003292176Y0001886309D01*
X0003337845Y0001852450D02*
X0003303987Y0001886309D01*
X0003378239Y0001852450D02*
X0003337845Y0001852450D01*
X0003208042Y0001868435D02*
X0003274302Y0001868435D01*
X0003276192Y0001768435D02*
X0003292176Y0001752450D01*
X0003378239Y0001786309D02*
X0003337845Y0001786309D01*
X0003337845Y0001786309D02*
X0003303987Y0001752450D01*
X0003208042Y0001768435D02*
X0003276192Y0001768435D01*
X0003274302Y0001668435D02*
X0003292176Y0001686309D01*
X0003378239Y0001652450D02*
X0003337845Y0001652450D01*
X0003337845Y0001652450D02*
X0003303987Y0001686309D01*
X0003208042Y0001668435D02*
X0003274302Y0001668435D01*
X0003624695Y0002468435D02*
X0003642570Y0002486309D01*
X0003558436Y0002468435D02*
X0003624695Y0002468435D01*
X0003626586Y0002368435D02*
X0003642570Y0002352450D01*
X0003728633Y0002386309D02*
X0003688239Y0002386309D01*
X0003688239Y0002386309D02*
X0003654380Y0002352450D01*
X0003558436Y0002368435D02*
X0003626586Y0002368435D01*
X0003624695Y0002268435D02*
X0003642570Y0002286309D01*
X0003728633Y0002252450D02*
X0003688239Y0002252450D01*
X0003688239Y0002252450D02*
X0003654380Y0002286309D01*
X0003558436Y0002268435D02*
X0003624695Y0002268435D01*
X0003626586Y0002168435D02*
X0003642570Y0002152450D01*
X0003728633Y0002186309D02*
X0003688239Y0002186309D01*
X0003688239Y0002186309D02*
X0003654380Y0002152450D01*
X0003558436Y0002168435D02*
X0003626586Y0002168435D01*
X0003624695Y0002068435D02*
X0003642570Y0002086309D01*
X0003728633Y0002052450D02*
X0003688239Y0002052450D01*
X0003688239Y0002052450D02*
X0003654380Y0002086309D01*
X0003558436Y0002068435D02*
X0003624695Y0002068435D01*
X0003626586Y0001968435D02*
X0003642570Y0001952450D01*
X0003728633Y0001986309D02*
X0003688239Y0001986309D01*
X0003688239Y0001986309D02*
X0003654380Y0001952450D01*
X0003558436Y0001968435D02*
X0003626586Y0001968435D01*
X0003624695Y0001868435D02*
X0003642570Y0001886309D01*
X0003728633Y0001852450D02*
X0003688239Y0001852450D01*
X0003688239Y0001852450D02*
X0003654380Y0001886309D01*
X0003558436Y0001868435D02*
X0003624695Y0001868435D01*
X0003626586Y0001768435D02*
X0003642570Y0001752450D01*
X0003728633Y0001786309D02*
X0003688239Y0001786309D01*
X0003688239Y0001786309D02*
X0003654380Y0001752450D01*
X0003558436Y0001768435D02*
X0003626586Y0001768435D01*
X0003624695Y0001668435D02*
X0003642570Y0001686309D01*
X0003728633Y0001652450D02*
X0003688239Y0001652450D01*
X0003688239Y0001652450D02*
X0003654380Y0001686309D01*
X0003558436Y0001668435D02*
X0003624695Y0001668435D01*
D18*
X0003735856Y0001552450D02*
X0003642570Y0001552450D01*
D17*
X0003626586Y0001568435D02*
X0003642570Y0001552450D01*
D18*
X0003799816Y0001616411D02*
X0003735856Y0001552450D01*
D17*
X0003558436Y0001568435D02*
X0003626586Y0001568435D01*
D18*
X0003799816Y0001972083D02*
X0003799816Y0001616411D01*
X0003799816Y0001972083D02*
X0003897244Y0001972083D01*
X0002056861Y0001668435D02*
X0002056861Y0001768435D01*
X0002056861Y0002368435D02*
X0002056861Y0002468435D01*
X0002056861Y0002268435D02*
X0002056861Y0002368435D01*
X0002056861Y0002168435D02*
X0002056861Y0002268435D01*
X0002056861Y0002068435D02*
X0002056861Y0002168435D01*
X0002056861Y0001968435D02*
X0002056861Y0002068435D01*
X0002056861Y0001868435D02*
X0002056861Y0001968435D01*
X0002056861Y0001768435D02*
X0002056861Y0001868435D01*
X0002056861Y0001568435D02*
X0002056861Y0001668435D01*
X0002056861Y0002468435D02*
X0002056861Y0001751665D01*
X0003799816Y0002072083D02*
X0003799816Y0002445488D01*
X0003799816Y0002445488D02*
X0003676878Y0002568423D01*
X0003676878Y0002568423D02*
X0002101173Y0002568423D01*
X0002101173Y0002568423D02*
X0002056861Y0002524112D01*
X0002056861Y0002524112D02*
X0002056861Y0002468435D01*
X0003799816Y0002072083D02*
X0003897244Y0002072083D01*
X0002407255Y0002368435D02*
X0002407255Y0002468435D01*
X0002407255Y0002268435D02*
X0002407255Y0002368435D01*
X0002407255Y0002168435D02*
X0002407255Y0002268435D01*
X0002407255Y0002068435D02*
X0002407255Y0002168435D01*
X0002407255Y0001968435D02*
X0002407255Y0002068435D01*
X0002407255Y0001868435D02*
X0002407255Y0001968435D01*
X0002407255Y0001768435D02*
X0002407255Y0001868435D01*
X0002407255Y0001668435D02*
X0002407255Y0001768435D01*
X0002407255Y0001568435D02*
X0002407255Y0001668435D01*
X0002240995Y0001552450D02*
X0002391271Y0001552450D01*
X0002391271Y0001552450D02*
X0002407255Y0001568435D01*
D17*
X0002225011Y0001568435D02*
X0002240995Y0001552450D01*
X0002156861Y0001568435D02*
X0002225011Y0001568435D01*
D18*
X0002757649Y0001668435D02*
X0002757649Y0001568435D01*
X0002757649Y0001768435D02*
X0002757649Y0001668435D01*
X0002757649Y0001868435D02*
X0002757649Y0001768435D01*
X0002757649Y0001968435D02*
X0002757649Y0001868435D01*
X0002757649Y0002068435D02*
X0002757649Y0001968435D01*
X0002757649Y0002168435D02*
X0002757649Y0002068435D01*
X0002757649Y0002268435D02*
X0002757649Y0002168435D01*
X0002757649Y0002368435D02*
X0002757649Y0002268435D01*
X0002757649Y0002468435D02*
X0002757649Y0002368435D01*
X0002591389Y0001552450D02*
X0002741664Y0001552450D01*
X0002741664Y0001552450D02*
X0002757649Y0001568435D01*
D17*
X0002507255Y0001568435D02*
X0002575405Y0001568435D01*
X0002575405Y0001568435D02*
X0002591389Y0001552450D01*
D18*
X0003108041Y0002368435D02*
X0003108041Y0002468435D01*
X0003108041Y0002268435D02*
X0003108041Y0002368435D01*
X0003108041Y0002168435D02*
X0003108041Y0002268435D01*
X0003108041Y0002068435D02*
X0003108041Y0002168435D01*
X0003108041Y0001968435D02*
X0003108041Y0002068435D01*
X0003108041Y0001868435D02*
X0003108041Y0001968435D01*
X0003108041Y0001768435D02*
X0003108041Y0001868435D01*
X0003108041Y0001668435D02*
X0003108041Y0001768435D01*
X0003108041Y0001568435D02*
X0003108041Y0001668435D01*
X0002941782Y0001552450D02*
X0003092058Y0001552450D01*
X0003092058Y0001552450D02*
X0003108041Y0001568435D01*
D17*
X0002925798Y0001568435D02*
X0002941782Y0001552450D01*
X0002857649Y0001568435D02*
X0002925798Y0001568435D01*
D18*
X0003458436Y0001668435D02*
X0003458436Y0001568435D01*
X0003458436Y0001768435D02*
X0003458436Y0001668435D01*
X0003458436Y0001868435D02*
X0003458436Y0001768435D01*
X0003458436Y0001968435D02*
X0003458436Y0001868435D01*
X0003458436Y0002068435D02*
X0003458436Y0001968435D01*
X0003458436Y0002168435D02*
X0003458436Y0002068435D01*
X0003458436Y0002268435D02*
X0003458436Y0002168435D01*
X0003458436Y0002368435D02*
X0003458436Y0002268435D01*
X0003458436Y0002468435D02*
X0003458436Y0002368435D01*
X0003292176Y0001552450D02*
X0003442452Y0001552450D01*
X0003442452Y0001552450D02*
X0003458436Y0001568435D01*
D17*
X0003276192Y0001568435D02*
X0003292176Y0001552450D01*
X0003208042Y0001568435D02*
X0003276192Y0001568435D01*
G01*
D29*
D30*
X0002042932Y0002734158D02*
X0002039181Y0002736032D01*
X0002037307Y0002739782D01*
X0002037307Y0002773528D01*
X0002074803Y0002760404D02*
X0002074803Y0002734158D01*
X0002057929Y0002760404D02*
X0002057929Y0002739782D01*
X0002059805Y0002736032D01*
X0002063554Y0002734158D01*
X0002069178Y0002734158D01*
X0002072928Y0002736032D01*
X0002074803Y0002737906D01*
X0002087926Y0002760404D02*
X0002102924Y0002760404D01*
X0002093550Y0002734158D02*
X0002093550Y0002767904D01*
X0002095425Y0002771653D01*
X0002099175Y0002773528D01*
X0002102924Y0002773528D01*
X0002110423Y0002760404D02*
X0002125421Y0002760404D01*
X0002116047Y0002773528D02*
X0002116047Y0002739782D01*
X0002117922Y0002736032D01*
X0002121672Y0002734158D01*
X0002125421Y0002734158D01*
X0002153543Y0002736032D02*
X0002149793Y0002734158D01*
X0002142294Y0002734158D01*
X0002138545Y0002736032D01*
X0002136670Y0002739782D01*
X0002136670Y0002754780D01*
X0002138545Y0002758530D01*
X0002142294Y0002760404D01*
X0002149793Y0002760404D01*
X0002153543Y0002758530D01*
X0002155418Y0002754780D01*
X0002155418Y0002751031D01*
X0002136670Y0002747281D01*
X0002172290Y0002734158D02*
X0002172290Y0002773528D01*
X0002176040Y0002749156D02*
X0002187289Y0002734158D01*
X0002187289Y0002760404D02*
X0002172290Y0002745406D01*
X0002262279Y0002769778D02*
X0002264154Y0002771653D01*
X0002267903Y0002773528D01*
X0002277277Y0002773528D01*
X0002281027Y0002771653D01*
X0002282902Y0002769778D01*
X0002284776Y0002766029D01*
X0002284776Y0002762278D01*
X0002282902Y0002756655D01*
X0002260404Y0002734158D01*
X0002284776Y0002734158D01*
X0002309148Y0002773528D02*
X0002312898Y0002773528D01*
X0002316647Y0002771653D01*
X0002318522Y0002769778D01*
X0002320397Y0002766029D01*
X0002322272Y0002758530D01*
X0002322272Y0002749156D01*
X0002320397Y0002741657D01*
X0002318522Y0002737906D01*
X0002316647Y0002736032D01*
X0002312898Y0002734158D01*
X0002309148Y0002734158D01*
X0002305399Y0002736032D01*
X0002303524Y0002737906D01*
X0002301649Y0002741657D01*
X0002299775Y0002749156D01*
X0002299775Y0002758530D01*
X0002301649Y0002766029D01*
X0002303524Y0002769778D01*
X0002305399Y0002771653D01*
X0002309148Y0002773528D01*
X0002359767Y0002734158D02*
X0002337270Y0002734158D01*
X0002348518Y0002734158D02*
X0002348518Y0002773528D01*
X0002344769Y0002767904D01*
X0002341019Y0002764154D01*
X0002337270Y0002762278D01*
X0002372890Y0002773528D02*
X0002399137Y0002773528D01*
X0002382264Y0002734158D01*
X0002421634Y0002773528D02*
X0002425384Y0002773528D01*
X0002429133Y0002771653D01*
X0002431008Y0002769778D01*
X0002432883Y0002766029D01*
X0002434758Y0002758530D01*
X0002434758Y0002749156D01*
X0002432883Y0002741657D01*
X0002431008Y0002737906D01*
X0002429133Y0002736032D01*
X0002425384Y0002734158D01*
X0002421634Y0002734158D01*
X0002417885Y0002736032D01*
X0002416010Y0002737906D01*
X0002414135Y0002741657D01*
X0002412260Y0002749156D01*
X0002412260Y0002758530D01*
X0002414135Y0002766029D01*
X0002416010Y0002769778D01*
X0002417885Y0002771653D01*
X0002421634Y0002773528D01*
X0002472253Y0002734158D02*
X0002449756Y0002734158D01*
X0002461004Y0002734158D02*
X0002461004Y0002773528D01*
X0002457255Y0002767904D01*
X0002453505Y0002764154D01*
X0002449756Y0002762278D01*
X0002487251Y0002769778D02*
X0002489126Y0002771653D01*
X0002492875Y0002773528D01*
X0002502249Y0002773528D01*
X0002505999Y0002771653D01*
X0002507874Y0002769778D01*
X0002509748Y0002766029D01*
X0002509748Y0002762278D01*
X0002507874Y0002756655D01*
X0002485376Y0002734158D01*
X0002509748Y0002734158D01*
X0002547244Y0002734158D02*
X0002524746Y0002734158D01*
X0002535995Y0002734158D02*
X0002535995Y0002773528D01*
X0002532245Y0002767904D01*
X0002528495Y0002764154D01*
X0002524746Y0002762278D01*
D31*
X0002056861Y0002867647D03*
X0002156861Y0002867647D03*
X0002056861Y0002967647D03*
X0002156861Y0002967647D03*
X0002056861Y0003067647D03*
X0002156861Y0003067647D03*
X0002056861Y0003167647D03*
X0002156861Y0003167647D03*
X0002056861Y0003267646D03*
X0002156861Y0003267646D03*
X0002056861Y0003367647D03*
X0002156861Y0003367647D03*
X0002056861Y0003467647D03*
X0002156861Y0003467647D03*
X0002056861Y0003567647D03*
X0002156861Y0003567647D03*
X0002056861Y0003667646D03*
X0002156861Y0003667646D03*
X0002056861Y0003767647D03*
D32*
X0002156861Y0003767647D03*
D33*
X0003897637Y0003370901D03*
D34*
X0003897637Y0003270902D03*
X0003799816Y0003271296D03*
D33*
X0003799816Y0003371296D03*
D31*
X0002407255Y0002867647D03*
X0002507255Y0002867647D03*
X0002407255Y0002967647D03*
X0002507255Y0002967647D03*
X0002407255Y0003067647D03*
X0002507255Y0003067647D03*
X0002407255Y0003167647D03*
X0002507255Y0003167647D03*
X0002407255Y0003267646D03*
X0002507255Y0003267646D03*
X0002407255Y0003367647D03*
X0002507255Y0003367647D03*
X0002407255Y0003467647D03*
X0002507255Y0003467647D03*
X0002407255Y0003567647D03*
X0002507255Y0003567647D03*
X0002407255Y0003667646D03*
X0002507255Y0003667646D03*
X0002407255Y0003767647D03*
D32*
X0002507255Y0003767647D03*
D31*
X0002757649Y0002867647D03*
X0002857649Y0002867647D03*
X0002757649Y0002967647D03*
X0002857649Y0002967647D03*
X0002757649Y0003067647D03*
X0002857649Y0003067647D03*
X0002757649Y0003167647D03*
X0002857649Y0003167647D03*
X0002757649Y0003267646D03*
X0002857649Y0003267646D03*
X0002757649Y0003367647D03*
X0002857649Y0003367647D03*
X0002757649Y0003467647D03*
X0002857649Y0003467647D03*
X0002757649Y0003567647D03*
X0002857649Y0003567647D03*
X0002757649Y0003667646D03*
X0002857649Y0003667646D03*
X0002757649Y0003767647D03*
D32*
X0002857649Y0003767647D03*
D31*
X0003108041Y0002867647D03*
X0003208042Y0002867647D03*
X0003108041Y0002967647D03*
X0003208042Y0002967647D03*
X0003108041Y0003067647D03*
X0003208042Y0003067647D03*
X0003108041Y0003167647D03*
X0003208042Y0003167647D03*
X0003108041Y0003267646D03*
X0003208042Y0003267646D03*
X0003108041Y0003367647D03*
X0003208042Y0003367647D03*
X0003108041Y0003467647D03*
X0003208042Y0003467647D03*
X0003108041Y0003567647D03*
X0003208042Y0003567647D03*
X0003108041Y0003667646D03*
X0003208042Y0003667646D03*
X0003108041Y0003767647D03*
D32*
X0003208042Y0003767647D03*
D35*
X0002240995Y0003251663D03*
X0002240995Y0003385521D03*
X0002591389Y0003251663D03*
X0002591389Y0003385521D03*
X0002941782Y0003251663D03*
X0002941782Y0003385521D03*
X0003292176Y0003251663D03*
X0003292176Y0003385521D03*
X0002315247Y0003485521D03*
X0002315247Y0003351662D03*
X0002665641Y0003485521D03*
X0002665641Y0003351662D03*
X0003016034Y0003485521D03*
X0003016034Y0003351662D03*
X0003366428Y0003485521D03*
X0003366428Y0003351662D03*
X0002315247Y0003085521D03*
X0002315247Y0002951662D03*
X0002665641Y0003085521D03*
X0002665641Y0002951662D03*
X0003016034Y0003085521D03*
X0003016034Y0002951662D03*
X0003366428Y0003085521D03*
X0003366428Y0002951662D03*
X0002240995Y0002851663D03*
X0002240995Y0002985521D03*
X0002591389Y0002851663D03*
X0002591389Y0002985521D03*
X0002941782Y0002851663D03*
X0002941782Y0002985521D03*
X0003292176Y0002851663D03*
X0003292176Y0002985521D03*
X0002315247Y0003151663D03*
X0002315247Y0003285521D03*
X0002665641Y0003151663D03*
X0002665641Y0003285521D03*
X0003016034Y0003151663D03*
X0003016034Y0003285521D03*
X0003366428Y0003151663D03*
X0003366428Y0003285521D03*
X0002240995Y0003585520D03*
X0002240995Y0003451663D03*
X0002591389Y0003585520D03*
X0002591389Y0003451663D03*
X0002941782Y0003585520D03*
X0002941782Y0003451663D03*
X0003292176Y0003585520D03*
X0003292176Y0003451663D03*
X0002240995Y0003185520D03*
X0002240995Y0003051663D03*
X0002591389Y0003185520D03*
X0002591389Y0003051663D03*
X0002941782Y0003185520D03*
X0002941782Y0003051663D03*
X0003292176Y0003185520D03*
X0003292176Y0003051663D03*
X0002315247Y0003551663D03*
X0002315247Y0003685521D03*
X0002665641Y0003551663D03*
X0002665641Y0003685521D03*
X0003016034Y0003551663D03*
X0003016034Y0003685521D03*
X0003366428Y0003551663D03*
X0003366428Y0003685521D03*
X0002240995Y0003651663D03*
X0002240995Y0003785521D03*
X0002591389Y0003651663D03*
X0002591389Y0003785521D03*
X0002941782Y0003651663D03*
X0002941782Y0003785521D03*
X0003292176Y0003651663D03*
X0003292176Y0003785521D03*
D32*
X0003558436Y0003767647D03*
D31*
X0003458436Y0003767647D03*
X0003558436Y0003667646D03*
X0003458436Y0003667646D03*
X0003558436Y0003567647D03*
X0003458436Y0003567647D03*
X0003558436Y0003467647D03*
X0003458436Y0003467647D03*
X0003558436Y0003367647D03*
X0003458436Y0003367647D03*
X0003558436Y0003267646D03*
X0003458436Y0003267646D03*
X0003558436Y0003167647D03*
X0003458436Y0003167647D03*
X0003558436Y0003067647D03*
X0003458436Y0003067647D03*
X0003558436Y0002967647D03*
X0003458436Y0002967647D03*
X0003558436Y0002867647D03*
X0003458436Y0002867647D03*
D35*
X0003642570Y0003385521D03*
X0003642570Y0003251663D03*
X0003642570Y0003451663D03*
X0003642570Y0003585520D03*
X0003716822Y0003285521D03*
X0003716822Y0003151663D03*
X0003642570Y0003051663D03*
X0003642570Y0003185520D03*
X0003716822Y0002951662D03*
X0003716822Y0003085521D03*
X0003642570Y0002985521D03*
X0003642570Y0002851663D03*
X0003716822Y0003685521D03*
X0003716822Y0003551663D03*
X0003716822Y0003351662D03*
X0003716822Y0003485521D03*
X0003642570Y0003785521D03*
X0003642570Y0003651663D03*
D36*
X0002507255Y0003767647D02*
X0002573515Y0003767647D01*
X0002573515Y0003767647D02*
X0002591389Y0003785521D01*
X0002507255Y0003667646D02*
X0002575405Y0003667646D01*
X0002575405Y0003667646D02*
X0002591389Y0003651663D01*
X0002677452Y0003685521D02*
X0002637058Y0003685521D01*
X0002637058Y0003685521D02*
X0002603200Y0003651663D01*
X0002507255Y0003567647D02*
X0002573515Y0003567647D01*
X0002573515Y0003567647D02*
X0002591389Y0003585520D01*
X0002637058Y0003551663D02*
X0002603200Y0003585520D01*
X0002677452Y0003551663D02*
X0002637058Y0003551663D01*
X0002507255Y0003467647D02*
X0002575405Y0003467647D01*
X0002575405Y0003467647D02*
X0002591389Y0003451663D01*
X0002637058Y0003485521D02*
X0002603200Y0003451663D01*
X0002677452Y0003485521D02*
X0002637058Y0003485521D01*
X0002507255Y0003367647D02*
X0002573515Y0003367647D01*
X0002573515Y0003367647D02*
X0002591389Y0003385521D01*
X0002637058Y0003351662D02*
X0002603200Y0003385521D01*
X0002677452Y0003351662D02*
X0002637058Y0003351662D01*
X0002507255Y0003267646D02*
X0002575405Y0003267646D01*
X0002575405Y0003267646D02*
X0002591389Y0003251663D01*
X0002637058Y0003285521D02*
X0002603200Y0003251663D01*
X0002677452Y0003285521D02*
X0002637058Y0003285521D01*
X0002507255Y0003167647D02*
X0002573515Y0003167647D01*
X0002573515Y0003167647D02*
X0002591389Y0003185520D01*
X0002637058Y0003151663D02*
X0002603200Y0003185520D01*
X0002677452Y0003151663D02*
X0002637058Y0003151663D01*
X0002507255Y0003067647D02*
X0002575405Y0003067647D01*
X0002575405Y0003067647D02*
X0002591389Y0003051663D01*
X0002677452Y0003085521D02*
X0002637058Y0003085521D01*
X0002637058Y0003085521D02*
X0002603200Y0003051663D01*
X0002507255Y0002967647D02*
X0002573515Y0002967647D01*
X0002573515Y0002967647D02*
X0002591389Y0002985521D01*
X0002677452Y0002951662D02*
X0002637058Y0002951662D01*
X0002637058Y0002951662D02*
X0002603200Y0002985521D01*
X0002923907Y0003767647D02*
X0002941782Y0003785521D01*
X0002857649Y0003767647D02*
X0002923907Y0003767647D01*
X0003274302Y0003767647D02*
X0003292176Y0003785521D01*
X0003208042Y0003767647D02*
X0003274302Y0003767647D01*
X0002156861Y0003767647D02*
X0002223121Y0003767647D01*
X0002223121Y0003767647D02*
X0002240995Y0003785521D01*
X0002156861Y0003667646D02*
X0002225011Y0003667646D01*
X0002225011Y0003667646D02*
X0002240995Y0003651663D01*
X0002327058Y0003685521D02*
X0002286664Y0003685521D01*
X0002286664Y0003685521D02*
X0002252806Y0003651663D01*
X0002156861Y0003567647D02*
X0002223121Y0003567647D01*
X0002223121Y0003567647D02*
X0002240995Y0003585520D01*
X0002286664Y0003551663D02*
X0002252806Y0003585520D01*
X0002327058Y0003551663D02*
X0002286664Y0003551663D01*
X0002156861Y0003467647D02*
X0002225011Y0003467647D01*
X0002225011Y0003467647D02*
X0002240995Y0003451663D01*
X0002286664Y0003485521D02*
X0002252806Y0003451663D01*
X0002327058Y0003485521D02*
X0002286664Y0003485521D01*
X0002156861Y0003367647D02*
X0002223121Y0003367647D01*
X0002223121Y0003367647D02*
X0002240995Y0003385521D01*
X0002286664Y0003351662D02*
X0002252806Y0003385521D01*
X0002327058Y0003351662D02*
X0002286664Y0003351662D01*
X0002156861Y0003267646D02*
X0002225011Y0003267646D01*
X0002225011Y0003267646D02*
X0002240995Y0003251663D01*
X0002286664Y0003285521D02*
X0002252806Y0003251663D01*
X0002327058Y0003285521D02*
X0002286664Y0003285521D01*
X0002156861Y0003167647D02*
X0002223121Y0003167647D01*
X0002327058Y0003151663D02*
X0002286664Y0003151663D01*
X0002223121Y0003167647D02*
X0002240995Y0003185520D01*
X0002286664Y0003151663D02*
X0002252806Y0003185520D01*
X0002156861Y0003067647D02*
X0002225011Y0003067647D01*
X0002225011Y0003067647D02*
X0002240995Y0003051663D01*
X0002286664Y0003085521D02*
X0002252806Y0003051663D01*
X0002327058Y0003085521D02*
X0002286664Y0003085521D01*
X0002156861Y0002967647D02*
X0002223121Y0002967647D01*
X0002223121Y0002967647D02*
X0002240995Y0002985521D01*
X0002286664Y0002951662D02*
X0002252806Y0002985521D01*
X0002327058Y0002951662D02*
X0002286664Y0002951662D01*
X0002925798Y0003667646D02*
X0002941782Y0003651663D01*
X0003027845Y0003685521D02*
X0002987452Y0003685521D01*
X0002987452Y0003685521D02*
X0002953594Y0003651663D01*
X0002857649Y0003667646D02*
X0002925798Y0003667646D01*
X0002923907Y0003567647D02*
X0002941782Y0003585520D01*
X0002987452Y0003551663D02*
X0002953594Y0003585520D01*
X0003027845Y0003551663D02*
X0002987452Y0003551663D01*
X0002857649Y0003567647D02*
X0002923907Y0003567647D01*
X0002925798Y0003467647D02*
X0002941782Y0003451663D01*
X0002987452Y0003485521D02*
X0002953594Y0003451663D01*
X0003027845Y0003485521D02*
X0002987452Y0003485521D01*
X0002857649Y0003467647D02*
X0002925798Y0003467647D01*
X0002923907Y0003367647D02*
X0002941782Y0003385521D01*
X0002987452Y0003351662D02*
X0002953594Y0003385521D01*
X0003027845Y0003351662D02*
X0002987452Y0003351662D01*
X0002857649Y0003367647D02*
X0002923907Y0003367647D01*
X0002925798Y0003267646D02*
X0002941782Y0003251663D01*
X0002987452Y0003285521D02*
X0002953594Y0003251663D01*
X0003027845Y0003285521D02*
X0002987452Y0003285521D01*
X0002857649Y0003267646D02*
X0002925798Y0003267646D01*
X0002923907Y0003167647D02*
X0002941782Y0003185520D01*
X0002987452Y0003151663D02*
X0002953594Y0003185520D01*
X0003027845Y0003151663D02*
X0002987452Y0003151663D01*
X0002857649Y0003167647D02*
X0002923907Y0003167647D01*
X0002925798Y0003067647D02*
X0002941782Y0003051663D01*
X0003027845Y0003085521D02*
X0002987452Y0003085521D01*
X0002987452Y0003085521D02*
X0002953594Y0003051663D01*
X0002857649Y0003067647D02*
X0002925798Y0003067647D01*
X0002923907Y0002967647D02*
X0002941782Y0002985521D01*
X0003027845Y0002951662D02*
X0002987452Y0002951662D01*
X0002987452Y0002951662D02*
X0002953594Y0002985521D01*
X0002857649Y0002967647D02*
X0002923907Y0002967647D01*
X0003276192Y0003667646D02*
X0003292176Y0003651663D01*
X0003378239Y0003685521D02*
X0003337845Y0003685521D01*
X0003337845Y0003685521D02*
X0003303987Y0003651663D01*
X0003208042Y0003667646D02*
X0003276192Y0003667646D01*
X0003274302Y0003567647D02*
X0003292176Y0003585520D01*
X0003337845Y0003551663D02*
X0003303987Y0003585520D01*
X0003378239Y0003551663D02*
X0003337845Y0003551663D01*
X0003208042Y0003567647D02*
X0003274302Y0003567647D01*
X0003276192Y0003467647D02*
X0003292176Y0003451663D01*
X0003337845Y0003485521D02*
X0003303987Y0003451663D01*
X0003378239Y0003485521D02*
X0003337845Y0003485521D01*
X0003208042Y0003467647D02*
X0003276192Y0003467647D01*
X0003274302Y0003367647D02*
X0003292176Y0003385521D01*
X0003337845Y0003351662D02*
X0003303987Y0003385521D01*
X0003378239Y0003351662D02*
X0003337845Y0003351662D01*
X0003208042Y0003367647D02*
X0003274302Y0003367647D01*
X0003276192Y0003267646D02*
X0003292176Y0003251663D01*
X0003337845Y0003285521D02*
X0003303987Y0003251663D01*
X0003378239Y0003285521D02*
X0003337845Y0003285521D01*
X0003208042Y0003267646D02*
X0003276192Y0003267646D01*
X0003274302Y0003167647D02*
X0003292176Y0003185520D01*
X0003337845Y0003151663D02*
X0003303987Y0003185520D01*
X0003378239Y0003151663D02*
X0003337845Y0003151663D01*
X0003208042Y0003167647D02*
X0003274302Y0003167647D01*
X0003276192Y0003067647D02*
X0003292176Y0003051663D01*
X0003378239Y0003085521D02*
X0003337845Y0003085521D01*
X0003337845Y0003085521D02*
X0003303987Y0003051663D01*
X0003208042Y0003067647D02*
X0003276192Y0003067647D01*
X0003274302Y0002967647D02*
X0003292176Y0002985521D01*
X0003378239Y0002951662D02*
X0003337845Y0002951662D01*
X0003337845Y0002951662D02*
X0003303987Y0002985521D01*
X0003208042Y0002967647D02*
X0003274302Y0002967647D01*
X0003624695Y0003767647D02*
X0003642570Y0003785521D01*
X0003558436Y0003767647D02*
X0003624695Y0003767647D01*
X0003626586Y0003667646D02*
X0003642570Y0003651663D01*
X0003728633Y0003685521D02*
X0003688239Y0003685521D01*
X0003688239Y0003685521D02*
X0003654380Y0003651663D01*
X0003558436Y0003667646D02*
X0003626586Y0003667646D01*
X0003624695Y0003567647D02*
X0003642570Y0003585520D01*
X0003728633Y0003551663D02*
X0003688239Y0003551663D01*
X0003688239Y0003551663D02*
X0003654380Y0003585520D01*
X0003558436Y0003567647D02*
X0003624695Y0003567647D01*
X0003626586Y0003467647D02*
X0003642570Y0003451663D01*
X0003728633Y0003485521D02*
X0003688239Y0003485521D01*
X0003688239Y0003485521D02*
X0003654380Y0003451663D01*
X0003558436Y0003467647D02*
X0003626586Y0003467647D01*
X0003624695Y0003367647D02*
X0003642570Y0003385521D01*
X0003728633Y0003351662D02*
X0003688239Y0003351662D01*
X0003688239Y0003351662D02*
X0003654380Y0003385521D01*
X0003558436Y0003367647D02*
X0003624695Y0003367647D01*
X0003626586Y0003267646D02*
X0003642570Y0003251663D01*
X0003728633Y0003285521D02*
X0003688239Y0003285521D01*
X0003688239Y0003285521D02*
X0003654380Y0003251663D01*
X0003558436Y0003267646D02*
X0003626586Y0003267646D01*
X0003624695Y0003167647D02*
X0003642570Y0003185520D01*
X0003728633Y0003151663D02*
X0003688239Y0003151663D01*
X0003688239Y0003151663D02*
X0003654380Y0003185520D01*
X0003558436Y0003167647D02*
X0003624695Y0003167647D01*
X0003626586Y0003067647D02*
X0003642570Y0003051663D01*
X0003728633Y0003085521D02*
X0003688239Y0003085521D01*
X0003688239Y0003085521D02*
X0003654380Y0003051663D01*
X0003558436Y0003067647D02*
X0003626586Y0003067647D01*
X0003624695Y0002967647D02*
X0003642570Y0002985521D01*
X0003728633Y0002951662D02*
X0003688239Y0002951662D01*
X0003688239Y0002951662D02*
X0003654380Y0002985521D01*
X0003558436Y0002967647D02*
X0003624695Y0002967647D01*
D37*
X0003735856Y0002851663D02*
X0003642570Y0002851663D01*
D36*
X0003626586Y0002867647D02*
X0003642570Y0002851663D01*
D37*
X0003799816Y0002915623D02*
X0003735856Y0002851663D01*
D36*
X0003558436Y0002867647D02*
X0003626586Y0002867647D01*
D37*
X0003799816Y0003271296D02*
X0003799816Y0002915623D01*
X0003799816Y0003271296D02*
X0003897244Y0003271296D01*
X0002056861Y0002967647D02*
X0002056861Y0003067647D01*
X0002056861Y0003667646D02*
X0002056861Y0003767647D01*
X0002056861Y0003567647D02*
X0002056861Y0003667646D01*
X0002056861Y0003467647D02*
X0002056861Y0003567647D01*
X0002056861Y0003367647D02*
X0002056861Y0003467647D01*
X0002056861Y0003267646D02*
X0002056861Y0003367647D01*
X0002056861Y0003167647D02*
X0002056861Y0003267646D01*
X0002056861Y0003067647D02*
X0002056861Y0003167647D01*
X0002056861Y0002867647D02*
X0002056861Y0002967647D01*
X0002056861Y0003767647D02*
X0002056861Y0003050879D01*
X0003799816Y0003371296D02*
X0003799816Y0003744700D01*
X0003799816Y0003744700D02*
X0003676878Y0003867637D01*
X0003676878Y0003867637D02*
X0002101173Y0003867637D01*
X0002101173Y0003867637D02*
X0002056861Y0003823325D01*
X0002056861Y0003823325D02*
X0002056861Y0003767647D01*
X0003799816Y0003371296D02*
X0003897244Y0003371296D01*
X0002407255Y0003667646D02*
X0002407255Y0003767647D01*
X0002407255Y0003567647D02*
X0002407255Y0003667646D01*
X0002407255Y0003467647D02*
X0002407255Y0003567647D01*
X0002407255Y0003367647D02*
X0002407255Y0003467647D01*
X0002407255Y0003267646D02*
X0002407255Y0003367647D01*
X0002407255Y0003167647D02*
X0002407255Y0003267646D01*
X0002407255Y0003067647D02*
X0002407255Y0003167647D01*
X0002407255Y0002967647D02*
X0002407255Y0003067647D01*
X0002407255Y0002867647D02*
X0002407255Y0002967647D01*
X0002240995Y0002851663D02*
X0002391271Y0002851663D01*
X0002391271Y0002851663D02*
X0002407255Y0002867647D01*
D36*
X0002225011Y0002867647D02*
X0002240995Y0002851663D01*
X0002156861Y0002867647D02*
X0002225011Y0002867647D01*
D37*
X0002757649Y0002967647D02*
X0002757649Y0002867647D01*
X0002757649Y0003067647D02*
X0002757649Y0002967647D01*
X0002757649Y0003167647D02*
X0002757649Y0003067647D01*
X0002757649Y0003267646D02*
X0002757649Y0003167647D01*
X0002757649Y0003367647D02*
X0002757649Y0003267646D01*
X0002757649Y0003467647D02*
X0002757649Y0003367647D01*
X0002757649Y0003567647D02*
X0002757649Y0003467647D01*
X0002757649Y0003667646D02*
X0002757649Y0003567647D01*
X0002757649Y0003767647D02*
X0002757649Y0003667646D01*
X0002591389Y0002851663D02*
X0002741664Y0002851663D01*
X0002741664Y0002851663D02*
X0002757649Y0002867647D01*
D36*
X0002507255Y0002867647D02*
X0002575405Y0002867647D01*
X0002575405Y0002867647D02*
X0002591389Y0002851663D01*
D37*
X0003108041Y0003667646D02*
X0003108041Y0003767647D01*
X0003108041Y0003567647D02*
X0003108041Y0003667646D01*
X0003108041Y0003467647D02*
X0003108041Y0003567647D01*
X0003108041Y0003367647D02*
X0003108041Y0003467647D01*
X0003108041Y0003267646D02*
X0003108041Y0003367647D01*
X0003108041Y0003167647D02*
X0003108041Y0003267646D01*
X0003108041Y0003067647D02*
X0003108041Y0003167647D01*
X0003108041Y0002967647D02*
X0003108041Y0003067647D01*
X0003108041Y0002867647D02*
X0003108041Y0002967647D01*
X0002941782Y0002851663D02*
X0003092058Y0002851663D01*
X0003092058Y0002851663D02*
X0003108041Y0002867647D01*
D36*
X0002925798Y0002867647D02*
X0002941782Y0002851663D01*
X0002857649Y0002867647D02*
X0002925798Y0002867647D01*
D37*
X0003458436Y0002967647D02*
X0003458436Y0002867647D01*
X0003458436Y0003067647D02*
X0003458436Y0002967647D01*
X0003458436Y0003167647D02*
X0003458436Y0003067647D01*
X0003458436Y0003267646D02*
X0003458436Y0003167647D01*
X0003458436Y0003367647D02*
X0003458436Y0003267646D01*
X0003458436Y0003467647D02*
X0003458436Y0003367647D01*
X0003458436Y0003567647D02*
X0003458436Y0003467647D01*
X0003458436Y0003667646D02*
X0003458436Y0003567647D01*
X0003458436Y0003767647D02*
X0003458436Y0003667646D01*
X0003292176Y0002851663D02*
X0003442452Y0002851663D01*
X0003442452Y0002851663D02*
X0003458436Y0002867647D01*
D36*
X0003276192Y0002867647D02*
X0003292176Y0002851663D01*
X0003208042Y0002867647D02*
X0003276192Y0002867647D01*
G04 next file*
%LPD*%
G01*
D48*
D49*
X0001894075Y0001281589D02*
X0001897825Y0001279714D01*
X0001899700Y0001275965D01*
X0001899700Y0001242219D01*
X0001862204Y0001255343D02*
X0001862204Y0001281589D01*
X0001879077Y0001255343D02*
X0001879077Y0001275965D01*
X0001877202Y0001279714D01*
X0001873453Y0001281589D01*
X0001867829Y0001281589D01*
X0001864079Y0001279714D01*
X0001862204Y0001277840D01*
X0001849081Y0001255343D02*
X0001834081Y0001255343D01*
X0001843457Y0001281589D02*
X0001843457Y0001247843D01*
X0001841582Y0001244094D01*
X0001837832Y0001242219D01*
X0001834081Y0001242219D01*
X0001826584Y0001255343D02*
X0001811586Y0001255343D01*
X0001820958Y0001242219D02*
X0001820958Y0001275965D01*
X0001819084Y0001279714D01*
X0001815335Y0001281589D01*
X0001811586Y0001281589D01*
X0001783464Y0001279714D02*
X0001787214Y0001281589D01*
X0001794712Y0001281589D01*
X0001798462Y0001279714D01*
X0001800337Y0001275965D01*
X0001800337Y0001260967D01*
X0001798462Y0001257217D01*
X0001794712Y0001255343D01*
X0001787214Y0001255343D01*
X0001783464Y0001257217D01*
X0001781589Y0001260967D01*
X0001781589Y0001264716D01*
X0001800337Y0001268466D01*
X0001764716Y0001281589D02*
X0001764716Y0001242219D01*
X0001760967Y0001266591D02*
X0001749718Y0001281589D01*
X0001749718Y0001255343D02*
X0001764716Y0001270341D01*
X0001674728Y0001245969D02*
X0001672853Y0001244094D01*
X0001669103Y0001242219D01*
X0001659730Y0001242219D01*
X0001655980Y0001244094D01*
X0001654105Y0001245969D01*
X0001652230Y0001249718D01*
X0001652230Y0001253468D01*
X0001654105Y0001259092D01*
X0001676602Y0001281589D01*
X0001652230Y0001281589D01*
X0001627859Y0001242219D02*
X0001624109Y0001242219D01*
X0001620358Y0001244094D01*
X0001618485Y0001245969D01*
X0001616610Y0001249718D01*
X0001614735Y0001257217D01*
X0001614735Y0001266591D01*
X0001616610Y0001274090D01*
X0001618485Y0001277840D01*
X0001620358Y0001279714D01*
X0001624109Y0001281589D01*
X0001627859Y0001281589D01*
X0001631608Y0001279714D01*
X0001633481Y0001277840D01*
X0001635358Y0001274090D01*
X0001637232Y0001266591D01*
X0001637232Y0001257217D01*
X0001635358Y0001249718D01*
X0001633481Y0001245969D01*
X0001631608Y0001244094D01*
X0001627859Y0001242219D01*
X0001577240Y0001281589D02*
X0001599737Y0001281589D01*
X0001588488Y0001281589D02*
X0001588488Y0001242219D01*
X0001592238Y0001247843D01*
X0001595987Y0001251593D01*
X0001599737Y0001253468D01*
X0001564117Y0001242219D02*
X0001537870Y0001242219D01*
X0001554743Y0001281589D01*
X0001515373Y0001242219D02*
X0001511623Y0001242219D01*
X0001507874Y0001244094D01*
X0001505999Y0001245969D01*
X0001504124Y0001249718D01*
X0001502249Y0001257217D01*
X0001502249Y0001266591D01*
X0001504124Y0001274090D01*
X0001505999Y0001277840D01*
X0001507874Y0001279714D01*
X0001511623Y0001281589D01*
X0001515373Y0001281589D01*
X0001519122Y0001279714D01*
X0001520997Y0001277840D01*
X0001522872Y0001274090D01*
X0001524746Y0001266591D01*
X0001524746Y0001257217D01*
X0001522872Y0001249718D01*
X0001520997Y0001245969D01*
X0001519122Y0001244094D01*
X0001515373Y0001242219D01*
X0001464754Y0001281589D02*
X0001487251Y0001281589D01*
X0001476003Y0001281589D02*
X0001476003Y0001242219D01*
X0001479752Y0001247843D01*
X0001483502Y0001251593D01*
X0001487251Y0001253468D01*
X0001449756Y0001245969D02*
X0001447881Y0001244094D01*
X0001444132Y0001242219D01*
X0001434758Y0001242219D01*
X0001431008Y0001244094D01*
X0001429133Y0001245969D01*
X0001427259Y0001249718D01*
X0001427259Y0001253468D01*
X0001429133Y0001259092D01*
X0001451631Y0001281589D01*
X0001427259Y0001281589D01*
X0001389763Y0001281589D02*
X0001412260Y0001281589D01*
X0001401012Y0001281589D02*
X0001401012Y0001242219D01*
X0001404761Y0001247843D01*
X0001408510Y0001251593D01*
X0001412260Y0001253468D01*
D50*
X0001880146Y0001148100D03*
X0001780146Y0001148100D03*
X0001880146Y0001048100D03*
X0001780146Y0001048100D03*
X0001880146Y0000948100D03*
X0001780146Y0000948100D03*
X0001880146Y0000848100D03*
X0001780146Y0000848100D03*
X0001880146Y0000748100D03*
X0001780146Y0000748100D03*
X0001880146Y0000648100D03*
X0001780146Y0000648100D03*
X0001880146Y0000548100D03*
X0001780146Y0000548100D03*
X0001880146Y0000448100D03*
X0001780146Y0000448100D03*
X0001880146Y0000348100D03*
X0001780146Y0000348100D03*
X0001880146Y0000248100D03*
D51*
X0001780146Y0000248100D03*
D52*
X0000039370Y0000644845D03*
D53*
X0000039370Y0000744845D03*
X0000137191Y0000744451D03*
D52*
X0000137191Y0000644451D03*
D50*
X0001529752Y0001148100D03*
X0001429752Y0001148100D03*
X0001529752Y0001048100D03*
X0001429752Y0001048100D03*
X0001529752Y0000948100D03*
X0001429752Y0000948100D03*
X0001529752Y0000848100D03*
X0001429752Y0000848100D03*
X0001529752Y0000748100D03*
X0001429752Y0000748100D03*
X0001529752Y0000648100D03*
X0001429752Y0000648100D03*
X0001529752Y0000548100D03*
X0001429752Y0000548100D03*
X0001529752Y0000448100D03*
X0001429752Y0000448100D03*
X0001529752Y0000348100D03*
X0001429752Y0000348100D03*
X0001529752Y0000248100D03*
D51*
X0001429752Y0000248100D03*
D50*
X0001179358Y0001148100D03*
X0001079358Y0001148100D03*
X0001179358Y0001048100D03*
X0001079358Y0001048100D03*
X0001179358Y0000948100D03*
X0001079358Y0000948100D03*
X0001179358Y0000848100D03*
X0001079358Y0000848100D03*
X0001179358Y0000748100D03*
X0001079358Y0000748100D03*
X0001179358Y0000648100D03*
X0001079358Y0000648100D03*
X0001179358Y0000548100D03*
X0001079358Y0000548100D03*
X0001179358Y0000448100D03*
X0001079358Y0000448100D03*
X0001179358Y0000348100D03*
X0001079358Y0000348100D03*
X0001179358Y0000248100D03*
D51*
X0001079358Y0000248100D03*
D50*
X0000828965Y0001148100D03*
X0000728965Y0001148100D03*
X0000828965Y0001048100D03*
X0000728965Y0001048100D03*
X0000828965Y0000948100D03*
X0000728965Y0000948100D03*
X0000828965Y0000848100D03*
X0000728965Y0000848100D03*
X0000828965Y0000748100D03*
X0000728965Y0000748100D03*
X0000828965Y0000648100D03*
X0000728965Y0000648100D03*
X0000828965Y0000548100D03*
X0000728965Y0000548100D03*
X0000828965Y0000448100D03*
X0000728965Y0000448100D03*
X0000828965Y0000348100D03*
X0000728965Y0000348100D03*
X0000828965Y0000248100D03*
D51*
X0000728965Y0000248100D03*
D54*
X0001696012Y0000764084D03*
X0001696012Y0000630226D03*
X0001345618Y0000764084D03*
X0001345618Y0000630226D03*
X0000995224Y0000764084D03*
X0000995224Y0000630226D03*
X0000644831Y0000764084D03*
X0000644831Y0000630226D03*
X0001621760Y0000530226D03*
X0001621760Y0000664083D03*
X0001271366Y0000530226D03*
X0001271366Y0000664083D03*
X0000920972Y0000530226D03*
X0000920972Y0000664083D03*
X0000570579Y0000530226D03*
X0000570579Y0000664083D03*
X0001621760Y0000930225D03*
X0001621760Y0001064084D03*
X0001271366Y0000930225D03*
X0001271366Y0001064084D03*
X0000920972Y0000930225D03*
X0000920972Y0001064084D03*
X0000570579Y0000930225D03*
X0000570579Y0001064084D03*
X0001696012Y0001164084D03*
X0001696012Y0001030226D03*
X0001345618Y0001164084D03*
X0001345618Y0001030226D03*
X0000995224Y0001164084D03*
X0000995224Y0001030226D03*
X0000644831Y0001164084D03*
X0000644831Y0001030226D03*
X0001621760Y0000864084D03*
X0001621760Y0000730225D03*
X0001271366Y0000864084D03*
X0001271366Y0000730225D03*
X0000920972Y0000864084D03*
X0000920972Y0000730225D03*
X0000570579Y0000864084D03*
X0000570579Y0000730225D03*
X0001696012Y0000430226D03*
X0001696012Y0000564084D03*
X0001345618Y0000430226D03*
X0001345618Y0000564084D03*
X0000995224Y0000430226D03*
X0000995224Y0000564084D03*
X0000644831Y0000430226D03*
X0000644831Y0000564084D03*
X0001696012Y0000830225D03*
X0001696012Y0000964084D03*
X0001345618Y0000830225D03*
X0001345618Y0000964084D03*
X0000995224Y0000830225D03*
X0000995224Y0000964084D03*
X0000644831Y0000830225D03*
X0000644831Y0000964084D03*
X0001621760Y0000464084D03*
X0001621760Y0000330226D03*
X0001271366Y0000464084D03*
X0001271366Y0000330226D03*
X0000920972Y0000464084D03*
X0000920972Y0000330226D03*
X0000570579Y0000464084D03*
X0000570579Y0000330226D03*
X0001696012Y0000364084D03*
X0001696012Y0000230226D03*
X0001345618Y0000364084D03*
X0001345618Y0000230226D03*
X0000995224Y0000364084D03*
X0000995224Y0000230226D03*
X0000644831Y0000364084D03*
X0000644831Y0000230226D03*
D51*
X0000378571Y0000248100D03*
D50*
X0000478571Y0000248100D03*
X0000378571Y0000348100D03*
X0000478571Y0000348100D03*
X0000378571Y0000448100D03*
X0000478571Y0000448100D03*
X0000378571Y0000548100D03*
X0000478571Y0000548100D03*
X0000378571Y0000648100D03*
X0000478571Y0000648100D03*
X0000378571Y0000748100D03*
X0000478571Y0000748100D03*
X0000378571Y0000848100D03*
X0000478571Y0000848100D03*
X0000378571Y0000948100D03*
X0000478571Y0000948100D03*
X0000378571Y0001048100D03*
X0000478571Y0001048100D03*
X0000378571Y0001148100D03*
X0000478571Y0001148100D03*
D54*
X0000294437Y0000630226D03*
X0000294437Y0000764084D03*
X0000294437Y0000564084D03*
X0000294437Y0000430226D03*
X0000220185Y0000730225D03*
X0000220185Y0000864084D03*
X0000294437Y0000964084D03*
X0000294437Y0000830225D03*
X0000220185Y0001064084D03*
X0000220185Y0000930225D03*
X0000294437Y0001030226D03*
X0000294437Y0001164084D03*
X0000220185Y0000330226D03*
X0000220185Y0000464084D03*
X0000220185Y0000664083D03*
X0000220185Y0000530226D03*
X0000294437Y0000230226D03*
X0000294437Y0000364084D03*
D55*
X0001429752Y0000248100D02*
X0001363492Y0000248100D01*
X0001363492Y0000248100D02*
X0001345618Y0000230226D01*
X0001429752Y0000348100D02*
X0001361602Y0000348100D01*
X0001361602Y0000348100D02*
X0001345618Y0000364084D01*
X0001259555Y0000330226D02*
X0001299949Y0000330226D01*
X0001299949Y0000330226D02*
X0001333807Y0000364084D01*
X0001429752Y0000448100D02*
X0001363492Y0000448100D01*
X0001363492Y0000448100D02*
X0001345618Y0000430226D01*
X0001299949Y0000464084D02*
X0001333807Y0000430226D01*
X0001259555Y0000464084D02*
X0001299949Y0000464084D01*
X0001429752Y0000548100D02*
X0001361602Y0000548100D01*
X0001361602Y0000548100D02*
X0001345618Y0000564084D01*
X0001299949Y0000530226D02*
X0001333807Y0000564084D01*
X0001259555Y0000530226D02*
X0001299949Y0000530226D01*
X0001429752Y0000648100D02*
X0001363492Y0000648100D01*
X0001363492Y0000648100D02*
X0001345618Y0000630226D01*
X0001299949Y0000664083D02*
X0001333807Y0000630226D01*
X0001259555Y0000664083D02*
X0001299949Y0000664083D01*
X0001429752Y0000748100D02*
X0001361602Y0000748100D01*
X0001361602Y0000748100D02*
X0001345618Y0000764084D01*
X0001299949Y0000730225D02*
X0001333807Y0000764084D01*
X0001259555Y0000730225D02*
X0001299949Y0000730225D01*
X0001429752Y0000848100D02*
X0001363492Y0000848100D01*
X0001363492Y0000848100D02*
X0001345618Y0000830225D01*
X0001299949Y0000864084D02*
X0001333807Y0000830225D01*
X0001259555Y0000864084D02*
X0001299949Y0000864084D01*
X0001429752Y0000948100D02*
X0001361602Y0000948100D01*
X0001361602Y0000948100D02*
X0001345618Y0000964084D01*
X0001259555Y0000930225D02*
X0001299949Y0000930225D01*
X0001299949Y0000930225D02*
X0001333807Y0000964084D01*
X0001429752Y0001048100D02*
X0001363492Y0001048100D01*
X0001363492Y0001048100D02*
X0001345618Y0001030226D01*
X0001259555Y0001064084D02*
X0001299949Y0001064084D01*
X0001299949Y0001064084D02*
X0001333807Y0001030226D01*
X0001013098Y0000248100D02*
X0000995224Y0000230226D01*
X0001079358Y0000248100D02*
X0001013098Y0000248100D01*
X0000662705Y0000248100D02*
X0000644831Y0000230226D01*
X0000728965Y0000248100D02*
X0000662705Y0000248100D01*
X0001780146Y0000248100D02*
X0001713886Y0000248100D01*
X0001713886Y0000248100D02*
X0001696012Y0000230226D01*
X0001780146Y0000348100D02*
X0001711996Y0000348100D01*
X0001711996Y0000348100D02*
X0001696012Y0000364084D01*
X0001609949Y0000330226D02*
X0001650342Y0000330226D01*
X0001650342Y0000330226D02*
X0001684201Y0000364084D01*
X0001780146Y0000448100D02*
X0001713886Y0000448100D01*
X0001713886Y0000448100D02*
X0001696012Y0000430226D01*
X0001650342Y0000464084D02*
X0001684201Y0000430226D01*
X0001609949Y0000464084D02*
X0001650342Y0000464084D01*
X0001780146Y0000548100D02*
X0001711996Y0000548100D01*
X0001711996Y0000548100D02*
X0001696012Y0000564084D01*
X0001650342Y0000530226D02*
X0001684201Y0000564084D01*
X0001609949Y0000530226D02*
X0001650342Y0000530226D01*
X0001780146Y0000648100D02*
X0001713886Y0000648100D01*
X0001713886Y0000648100D02*
X0001696012Y0000630226D01*
X0001650342Y0000664083D02*
X0001684201Y0000630226D01*
X0001609949Y0000664083D02*
X0001650342Y0000664083D01*
X0001780146Y0000748100D02*
X0001711996Y0000748100D01*
X0001711996Y0000748100D02*
X0001696012Y0000764084D01*
X0001650342Y0000730225D02*
X0001684201Y0000764084D01*
X0001609949Y0000730225D02*
X0001650342Y0000730225D01*
X0001780146Y0000848100D02*
X0001713886Y0000848100D01*
X0001609949Y0000864084D02*
X0001650342Y0000864084D01*
X0001713886Y0000848100D02*
X0001696012Y0000830225D01*
X0001650342Y0000864084D02*
X0001684201Y0000830225D01*
X0001780146Y0000948100D02*
X0001711996Y0000948100D01*
X0001711996Y0000948100D02*
X0001696012Y0000964084D01*
X0001650342Y0000930225D02*
X0001684201Y0000964084D01*
X0001609949Y0000930225D02*
X0001650342Y0000930225D01*
X0001780146Y0001048100D02*
X0001713886Y0001048100D01*
X0001713886Y0001048100D02*
X0001696012Y0001030226D01*
X0001650342Y0001064084D02*
X0001684201Y0001030226D01*
X0001609949Y0001064084D02*
X0001650342Y0001064084D01*
X0001011209Y0000348100D02*
X0000995224Y0000364084D01*
X0000909161Y0000330226D02*
X0000949555Y0000330226D01*
X0000949555Y0000330226D02*
X0000983413Y0000364084D01*
X0001079358Y0000348100D02*
X0001011209Y0000348100D01*
X0001013098Y0000448100D02*
X0000995224Y0000430226D01*
X0000949555Y0000464084D02*
X0000983413Y0000430226D01*
X0000909161Y0000464084D02*
X0000949555Y0000464084D01*
X0001079358Y0000448100D02*
X0001013098Y0000448100D01*
X0001011209Y0000548100D02*
X0000995224Y0000564084D01*
X0000949555Y0000530226D02*
X0000983413Y0000564084D01*
X0000909161Y0000530226D02*
X0000949555Y0000530226D01*
X0001079358Y0000548100D02*
X0001011209Y0000548100D01*
X0001013098Y0000648100D02*
X0000995224Y0000630226D01*
X0000949555Y0000664083D02*
X0000983413Y0000630226D01*
X0000909161Y0000664083D02*
X0000949555Y0000664083D01*
X0001079358Y0000648100D02*
X0001013098Y0000648100D01*
X0001011209Y0000748100D02*
X0000995224Y0000764084D01*
X0000949555Y0000730225D02*
X0000983413Y0000764084D01*
X0000909161Y0000730225D02*
X0000949555Y0000730225D01*
X0001079358Y0000748100D02*
X0001011209Y0000748100D01*
X0001013098Y0000848100D02*
X0000995224Y0000830225D01*
X0000949555Y0000864084D02*
X0000983413Y0000830225D01*
X0000909161Y0000864084D02*
X0000949555Y0000864084D01*
X0001079358Y0000848100D02*
X0001013098Y0000848100D01*
X0001011209Y0000948100D02*
X0000995224Y0000964084D01*
X0000909161Y0000930225D02*
X0000949555Y0000930225D01*
X0000949555Y0000930225D02*
X0000983413Y0000964084D01*
X0001079358Y0000948100D02*
X0001011209Y0000948100D01*
X0001013098Y0001048100D02*
X0000995224Y0001030226D01*
X0000909161Y0001064084D02*
X0000949555Y0001064084D01*
X0000949555Y0001064084D02*
X0000983413Y0001030226D01*
X0001079358Y0001048100D02*
X0001013098Y0001048100D01*
X0000660815Y0000348100D02*
X0000644831Y0000364084D01*
X0000558768Y0000330226D02*
X0000599161Y0000330226D01*
X0000599161Y0000330226D02*
X0000633020Y0000364084D01*
X0000728965Y0000348100D02*
X0000660815Y0000348100D01*
X0000662705Y0000448100D02*
X0000644831Y0000430226D01*
X0000599161Y0000464084D02*
X0000633020Y0000430226D01*
X0000558768Y0000464084D02*
X0000599161Y0000464084D01*
X0000728965Y0000448100D02*
X0000662705Y0000448100D01*
X0000660815Y0000548100D02*
X0000644831Y0000564084D01*
X0000599161Y0000530226D02*
X0000633020Y0000564084D01*
X0000558768Y0000530226D02*
X0000599161Y0000530226D01*
X0000728965Y0000548100D02*
X0000660815Y0000548100D01*
X0000662705Y0000648100D02*
X0000644831Y0000630226D01*
X0000599161Y0000664083D02*
X0000633020Y0000630226D01*
X0000558768Y0000664083D02*
X0000599161Y0000664083D01*
X0000728965Y0000648100D02*
X0000662705Y0000648100D01*
X0000660815Y0000748100D02*
X0000644831Y0000764084D01*
X0000599161Y0000730225D02*
X0000633020Y0000764084D01*
X0000558768Y0000730225D02*
X0000599161Y0000730225D01*
X0000728965Y0000748100D02*
X0000660815Y0000748100D01*
X0000662705Y0000848100D02*
X0000644831Y0000830225D01*
X0000599161Y0000864084D02*
X0000633020Y0000830225D01*
X0000558768Y0000864084D02*
X0000599161Y0000864084D01*
X0000728965Y0000848100D02*
X0000662705Y0000848100D01*
X0000660815Y0000948100D02*
X0000644831Y0000964084D01*
X0000558768Y0000930225D02*
X0000599161Y0000930225D01*
X0000599161Y0000930225D02*
X0000633020Y0000964084D01*
X0000728965Y0000948100D02*
X0000660815Y0000948100D01*
X0000662705Y0001048100D02*
X0000644831Y0001030226D01*
X0000558768Y0001064084D02*
X0000599161Y0001064084D01*
X0000599161Y0001064084D02*
X0000633020Y0001030226D01*
X0000728965Y0001048100D02*
X0000662705Y0001048100D01*
X0000312311Y0000248100D02*
X0000294437Y0000230226D01*
X0000378571Y0000248100D02*
X0000312311Y0000248100D01*
X0000310421Y0000348100D02*
X0000294437Y0000364084D01*
X0000208374Y0000330226D02*
X0000248768Y0000330226D01*
X0000248768Y0000330226D02*
X0000282626Y0000364084D01*
X0000378571Y0000348100D02*
X0000310421Y0000348100D01*
X0000312311Y0000448100D02*
X0000294437Y0000430226D01*
X0000208374Y0000464084D02*
X0000248768Y0000464084D01*
X0000248768Y0000464084D02*
X0000282626Y0000430226D01*
X0000378571Y0000448100D02*
X0000312311Y0000448100D01*
X0000310421Y0000548100D02*
X0000294437Y0000564084D01*
X0000208374Y0000530226D02*
X0000248768Y0000530226D01*
X0000248768Y0000530226D02*
X0000282626Y0000564084D01*
X0000378571Y0000548100D02*
X0000310421Y0000548100D01*
X0000312311Y0000648100D02*
X0000294437Y0000630226D01*
X0000208374Y0000664083D02*
X0000248768Y0000664083D01*
X0000248768Y0000664083D02*
X0000282626Y0000630226D01*
X0000378571Y0000648100D02*
X0000312311Y0000648100D01*
X0000310421Y0000748100D02*
X0000294437Y0000764084D01*
X0000208374Y0000730225D02*
X0000248768Y0000730225D01*
X0000248768Y0000730225D02*
X0000282626Y0000764084D01*
X0000378571Y0000748100D02*
X0000310421Y0000748100D01*
X0000312311Y0000848100D02*
X0000294437Y0000830225D01*
X0000208374Y0000864084D02*
X0000248768Y0000864084D01*
X0000248768Y0000864084D02*
X0000282626Y0000830225D01*
X0000378571Y0000848100D02*
X0000312311Y0000848100D01*
X0000310421Y0000948100D02*
X0000294437Y0000964084D01*
X0000208374Y0000930225D02*
X0000248768Y0000930225D01*
X0000248768Y0000930225D02*
X0000282626Y0000964084D01*
X0000378571Y0000948100D02*
X0000310421Y0000948100D01*
X0000312311Y0001048100D02*
X0000294437Y0001030226D01*
X0000208374Y0001064084D02*
X0000248768Y0001064084D01*
X0000248768Y0001064084D02*
X0000282626Y0001030226D01*
X0000378571Y0001048100D02*
X0000312311Y0001048100D01*
D56*
X0000201151Y0001164084D02*
X0000294437Y0001164084D01*
D55*
X0000310421Y0001148100D02*
X0000294437Y0001164084D01*
D56*
X0000137191Y0001100124D02*
X0000201151Y0001164084D01*
D55*
X0000378571Y0001148100D02*
X0000310421Y0001148100D01*
D56*
X0000137191Y0000744451D02*
X0000137191Y0001100124D01*
X0000137191Y0000744451D02*
X0000039763Y0000744451D01*
X0001880146Y0001048100D02*
X0001880146Y0000948100D01*
X0001880146Y0000348100D02*
X0001880146Y0000248100D01*
X0001880146Y0000448100D02*
X0001880146Y0000348100D01*
X0001880146Y0000548100D02*
X0001880146Y0000448100D01*
X0001880146Y0000648100D02*
X0001880146Y0000548100D01*
X0001880146Y0000748100D02*
X0001880146Y0000648100D01*
X0001880146Y0000848100D02*
X0001880146Y0000748100D01*
X0001880146Y0000948100D02*
X0001880146Y0000848100D01*
X0001880146Y0001148100D02*
X0001880146Y0001048100D01*
X0001880146Y0000248100D02*
X0001880146Y0000964868D01*
X0000137191Y0000644451D02*
X0000137191Y0000271047D01*
X0000137191Y0000271047D02*
X0000260127Y0000148110D01*
X0000260127Y0000148110D02*
X0001835834Y0000148110D01*
X0001835834Y0000148110D02*
X0001880146Y0000192421D01*
X0001880146Y0000192421D02*
X0001880146Y0000248100D01*
X0000137191Y0000644451D02*
X0000039763Y0000644451D01*
X0001529752Y0000348100D02*
X0001529752Y0000248100D01*
X0001529752Y0000448100D02*
X0001529752Y0000348100D01*
X0001529752Y0000548100D02*
X0001529752Y0000448100D01*
X0001529752Y0000648100D02*
X0001529752Y0000548100D01*
X0001529752Y0000748100D02*
X0001529752Y0000648100D01*
X0001529752Y0000848100D02*
X0001529752Y0000748100D01*
X0001529752Y0000948100D02*
X0001529752Y0000848100D01*
X0001529752Y0001048100D02*
X0001529752Y0000948100D01*
X0001529752Y0001148100D02*
X0001529752Y0001048100D01*
X0001696012Y0001164084D02*
X0001545736Y0001164084D01*
X0001545736Y0001164084D02*
X0001529752Y0001148100D01*
D55*
X0001711996Y0001148100D02*
X0001696012Y0001164084D01*
X0001780146Y0001148100D02*
X0001711996Y0001148100D01*
D56*
X0001179358Y0001048100D02*
X0001179358Y0001148100D01*
X0001179358Y0000948100D02*
X0001179358Y0001048100D01*
X0001179358Y0000848100D02*
X0001179358Y0000948100D01*
X0001179358Y0000748100D02*
X0001179358Y0000848100D01*
X0001179358Y0000648100D02*
X0001179358Y0000748100D01*
X0001179358Y0000548100D02*
X0001179358Y0000648100D01*
X0001179358Y0000448100D02*
X0001179358Y0000548100D01*
X0001179358Y0000348100D02*
X0001179358Y0000448100D01*
X0001179358Y0000248100D02*
X0001179358Y0000348100D01*
X0001345618Y0001164084D02*
X0001195342Y0001164084D01*
X0001195342Y0001164084D02*
X0001179358Y0001148100D01*
D55*
X0001429752Y0001148100D02*
X0001361602Y0001148100D01*
X0001361602Y0001148100D02*
X0001345618Y0001164084D01*
D56*
X0000828965Y0000348100D02*
X0000828965Y0000248100D01*
X0000828965Y0000448100D02*
X0000828965Y0000348100D01*
X0000828965Y0000548100D02*
X0000828965Y0000448100D01*
X0000828965Y0000648100D02*
X0000828965Y0000548100D01*
X0000828965Y0000748100D02*
X0000828965Y0000648100D01*
X0000828965Y0000848100D02*
X0000828965Y0000748100D01*
X0000828965Y0000948100D02*
X0000828965Y0000848100D01*
X0000828965Y0001048100D02*
X0000828965Y0000948100D01*
X0000828965Y0001148100D02*
X0000828965Y0001048100D01*
X0000995224Y0001164084D02*
X0000844949Y0001164084D01*
X0000844949Y0001164084D02*
X0000828965Y0001148100D01*
D55*
X0001011209Y0001148100D02*
X0000995224Y0001164084D01*
X0001079358Y0001148100D02*
X0001011209Y0001148100D01*
D56*
X0000478571Y0001048100D02*
X0000478571Y0001148100D01*
X0000478571Y0000948100D02*
X0000478571Y0001048100D01*
X0000478571Y0000848100D02*
X0000478571Y0000948100D01*
X0000478571Y0000748100D02*
X0000478571Y0000848100D01*
X0000478571Y0000648100D02*
X0000478571Y0000748100D01*
X0000478571Y0000548100D02*
X0000478571Y0000648100D01*
X0000478571Y0000448100D02*
X0000478571Y0000548100D01*
X0000478571Y0000348100D02*
X0000478571Y0000448100D01*
X0000478571Y0000248100D02*
X0000478571Y0000348100D01*
X0000644831Y0001164084D02*
X0000494555Y0001164084D01*
X0000494555Y0001164084D02*
X0000478571Y0001148100D01*
D55*
X0000660815Y0001148100D02*
X0000644831Y0001164084D01*
X0000728965Y0001148100D02*
X0000660815Y0001148100D01*
G01*
D67*
D68*
X0002042932Y0000135733D02*
X0002039181Y0000137607D01*
X0002037307Y0000141357D01*
X0002037307Y0000175103D01*
X0002074803Y0000161978D02*
X0002074803Y0000135733D01*
X0002057929Y0000161978D02*
X0002057929Y0000141357D01*
X0002059805Y0000137607D01*
X0002063554Y0000135733D01*
X0002069178Y0000135733D01*
X0002072928Y0000137607D01*
X0002074803Y0000139482D01*
X0002087926Y0000161978D02*
X0002102924Y0000161978D01*
X0002093550Y0000135733D02*
X0002093550Y0000169478D01*
X0002095425Y0000173228D01*
X0002099175Y0000175103D01*
X0002102924Y0000175103D01*
X0002110423Y0000161978D02*
X0002125421Y0000161978D01*
X0002116047Y0000175103D02*
X0002116047Y0000141357D01*
X0002117922Y0000137607D01*
X0002121672Y0000135733D01*
X0002125421Y0000135733D01*
X0002153543Y0000137607D02*
X0002149793Y0000135733D01*
X0002142294Y0000135733D01*
X0002138545Y0000137607D01*
X0002136670Y0000141357D01*
X0002136670Y0000156355D01*
X0002138545Y0000160104D01*
X0002142294Y0000161978D01*
X0002149793Y0000161978D01*
X0002153543Y0000160104D01*
X0002155418Y0000156355D01*
X0002155418Y0000152605D01*
X0002136670Y0000148856D01*
X0002172290Y0000135733D02*
X0002172290Y0000175103D01*
X0002176040Y0000150731D02*
X0002187289Y0000135733D01*
X0002187289Y0000161978D02*
X0002172290Y0000146981D01*
X0002262279Y0000171353D02*
X0002264154Y0000173228D01*
X0002267903Y0000175103D01*
X0002277277Y0000175103D01*
X0002281027Y0000173228D01*
X0002282902Y0000171353D01*
X0002284776Y0000167604D01*
X0002284776Y0000163854D01*
X0002282902Y0000158230D01*
X0002260404Y0000135733D01*
X0002284776Y0000135733D01*
X0002309148Y0000175103D02*
X0002312898Y0000175103D01*
X0002316647Y0000173228D01*
X0002318522Y0000171353D01*
X0002320397Y0000167604D01*
X0002322272Y0000160104D01*
X0002322272Y0000150731D01*
X0002320397Y0000143232D01*
X0002318522Y0000139482D01*
X0002316647Y0000137607D01*
X0002312898Y0000135733D01*
X0002309148Y0000135733D01*
X0002305399Y0000137607D01*
X0002303524Y0000139482D01*
X0002301649Y0000143232D01*
X0002299775Y0000150731D01*
X0002299775Y0000160104D01*
X0002301649Y0000167604D01*
X0002303524Y0000171353D01*
X0002305399Y0000173228D01*
X0002309148Y0000175103D01*
X0002359767Y0000135733D02*
X0002337270Y0000135733D01*
X0002348518Y0000135733D02*
X0002348518Y0000175103D01*
X0002344769Y0000169478D01*
X0002341019Y0000165729D01*
X0002337270Y0000163854D01*
X0002372890Y0000175103D02*
X0002399137Y0000175103D01*
X0002382264Y0000135733D01*
X0002421634Y0000175103D02*
X0002425384Y0000175103D01*
X0002429133Y0000173228D01*
X0002431008Y0000171353D01*
X0002432883Y0000167604D01*
X0002434758Y0000160104D01*
X0002434758Y0000150731D01*
X0002432883Y0000143232D01*
X0002431008Y0000139482D01*
X0002429133Y0000137607D01*
X0002425384Y0000135733D01*
X0002421634Y0000135733D01*
X0002417885Y0000137607D01*
X0002416010Y0000139482D01*
X0002414135Y0000143232D01*
X0002412260Y0000150731D01*
X0002412260Y0000160104D01*
X0002414135Y0000167604D01*
X0002416010Y0000171353D01*
X0002417885Y0000173228D01*
X0002421634Y0000175103D01*
X0002472253Y0000135733D02*
X0002449756Y0000135733D01*
X0002461004Y0000135733D02*
X0002461004Y0000175103D01*
X0002457255Y0000169478D01*
X0002453505Y0000165729D01*
X0002449756Y0000163854D01*
X0002487251Y0000171353D02*
X0002489126Y0000173228D01*
X0002492875Y0000175103D01*
X0002502249Y0000175103D01*
X0002505999Y0000173228D01*
X0002507874Y0000171353D01*
X0002509748Y0000167604D01*
X0002509748Y0000163854D01*
X0002507874Y0000158230D01*
X0002485376Y0000135733D01*
X0002509748Y0000135733D01*
X0002547244Y0000135733D02*
X0002524746Y0000135733D01*
X0002535995Y0000135733D02*
X0002535995Y0000175103D01*
X0002532245Y0000169478D01*
X0002528495Y0000165729D01*
X0002524746Y0000163854D01*
D69*
X0002056861Y0000269222D03*
X0002156861Y0000269222D03*
X0002056861Y0000369222D03*
X0002156861Y0000369222D03*
X0002056861Y0000469222D03*
X0002156861Y0000469222D03*
X0002056861Y0000569222D03*
X0002156861Y0000569222D03*
X0002056861Y0000669222D03*
X0002156861Y0000669222D03*
X0002056861Y0000769222D03*
X0002156861Y0000769222D03*
X0002056861Y0000869222D03*
X0002156861Y0000869222D03*
X0002056861Y0000969222D03*
X0002156861Y0000969222D03*
X0002056861Y0001069222D03*
X0002156861Y0001069222D03*
X0002056861Y0001169222D03*
D70*
X0002156861Y0001169222D03*
D71*
X0003897637Y0000772477D03*
D72*
X0003897637Y0000672477D03*
X0003799816Y0000672871D03*
D71*
X0003799816Y0000772870D03*
D69*
X0002407255Y0000269222D03*
X0002507255Y0000269222D03*
X0002407255Y0000369222D03*
X0002507255Y0000369222D03*
X0002407255Y0000469222D03*
X0002507255Y0000469222D03*
X0002407255Y0000569222D03*
X0002507255Y0000569222D03*
X0002407255Y0000669222D03*
X0002507255Y0000669222D03*
X0002407255Y0000769222D03*
X0002507255Y0000769222D03*
X0002407255Y0000869222D03*
X0002507255Y0000869222D03*
X0002407255Y0000969222D03*
X0002507255Y0000969222D03*
X0002407255Y0001069222D03*
X0002507255Y0001069222D03*
X0002407255Y0001169222D03*
D70*
X0002507255Y0001169222D03*
D69*
X0002757649Y0000269222D03*
X0002857649Y0000269222D03*
X0002757649Y0000369222D03*
X0002857649Y0000369222D03*
X0002757649Y0000469222D03*
X0002857649Y0000469222D03*
X0002757649Y0000569222D03*
X0002857649Y0000569222D03*
X0002757649Y0000669222D03*
X0002857649Y0000669222D03*
X0002757649Y0000769222D03*
X0002857649Y0000769222D03*
X0002757649Y0000869222D03*
X0002857649Y0000869222D03*
X0002757649Y0000969222D03*
X0002857649Y0000969222D03*
X0002757649Y0001069222D03*
X0002857649Y0001069222D03*
X0002757649Y0001169222D03*
D70*
X0002857649Y0001169222D03*
D69*
X0003108041Y0000269222D03*
X0003208042Y0000269222D03*
X0003108041Y0000369222D03*
X0003208042Y0000369222D03*
X0003108041Y0000469222D03*
X0003208042Y0000469222D03*
X0003108041Y0000569222D03*
X0003208042Y0000569222D03*
X0003108041Y0000669222D03*
X0003208042Y0000669222D03*
X0003108041Y0000769222D03*
X0003208042Y0000769222D03*
X0003108041Y0000869222D03*
X0003208042Y0000869222D03*
X0003108041Y0000969222D03*
X0003208042Y0000969222D03*
X0003108041Y0001069222D03*
X0003208042Y0001069222D03*
X0003108041Y0001169222D03*
D70*
X0003208042Y0001169222D03*
D73*
X0002240995Y0000653237D03*
X0002240995Y0000787096D03*
X0002591389Y0000653237D03*
X0002591389Y0000787096D03*
X0002941782Y0000653237D03*
X0002941782Y0000787096D03*
X0003292176Y0000653237D03*
X0003292176Y0000787096D03*
X0002315247Y0000887095D03*
X0002315247Y0000753237D03*
X0002665641Y0000887095D03*
X0002665641Y0000753237D03*
X0003016034Y0000887095D03*
X0003016034Y0000753237D03*
X0003366428Y0000887095D03*
X0003366428Y0000753237D03*
X0002315247Y0000487096D03*
X0002315247Y0000353238D03*
X0002665641Y0000487096D03*
X0002665641Y0000353238D03*
X0003016034Y0000487096D03*
X0003016034Y0000353238D03*
X0003366428Y0000487096D03*
X0003366428Y0000353238D03*
X0002240995Y0000253238D03*
X0002240995Y0000387096D03*
X0002591389Y0000253238D03*
X0002591389Y0000387096D03*
X0002941782Y0000253238D03*
X0002941782Y0000387096D03*
X0003292176Y0000253238D03*
X0003292176Y0000387096D03*
X0002315247Y0000553238D03*
X0002315247Y0000687096D03*
X0002665641Y0000553238D03*
X0002665641Y0000687096D03*
X0003016034Y0000553238D03*
X0003016034Y0000687096D03*
X0003366428Y0000553238D03*
X0003366428Y0000687096D03*
X0002240995Y0000987095D03*
X0002240995Y0000853238D03*
X0002591389Y0000987095D03*
X0002591389Y0000853238D03*
X0002941782Y0000987095D03*
X0002941782Y0000853238D03*
X0003292176Y0000987095D03*
X0003292176Y0000853238D03*
X0002240995Y0000587096D03*
X0002240995Y0000453238D03*
X0002591389Y0000587096D03*
X0002591389Y0000453238D03*
X0002941782Y0000587096D03*
X0002941782Y0000453238D03*
X0003292176Y0000587096D03*
X0003292176Y0000453238D03*
X0002315247Y0000953238D03*
X0002315247Y0001087096D03*
X0002665641Y0000953238D03*
X0002665641Y0001087096D03*
X0003016034Y0000953238D03*
X0003016034Y0001087096D03*
X0003366428Y0000953238D03*
X0003366428Y0001087096D03*
X0002240995Y0001053238D03*
X0002240995Y0001187096D03*
X0002591389Y0001053238D03*
X0002591389Y0001187096D03*
X0002941782Y0001053238D03*
X0002941782Y0001187096D03*
X0003292176Y0001053238D03*
X0003292176Y0001187096D03*
D70*
X0003558436Y0001169222D03*
D69*
X0003458436Y0001169222D03*
X0003558436Y0001069222D03*
X0003458436Y0001069222D03*
X0003558436Y0000969222D03*
X0003458436Y0000969222D03*
X0003558436Y0000869222D03*
X0003458436Y0000869222D03*
X0003558436Y0000769222D03*
X0003458436Y0000769222D03*
X0003558436Y0000669222D03*
X0003458436Y0000669222D03*
X0003558436Y0000569222D03*
X0003458436Y0000569222D03*
X0003558436Y0000469222D03*
X0003458436Y0000469222D03*
X0003558436Y0000369222D03*
X0003458436Y0000369222D03*
X0003558436Y0000269222D03*
X0003458436Y0000269222D03*
D73*
X0003642570Y0000787096D03*
X0003642570Y0000653237D03*
X0003642570Y0000853238D03*
X0003642570Y0000987095D03*
X0003716822Y0000687096D03*
X0003716822Y0000553238D03*
X0003642570Y0000453238D03*
X0003642570Y0000587096D03*
X0003716822Y0000353238D03*
X0003716822Y0000487096D03*
X0003642570Y0000387096D03*
X0003642570Y0000253238D03*
X0003716822Y0001087096D03*
X0003716822Y0000953238D03*
X0003716822Y0000753237D03*
X0003716822Y0000887095D03*
X0003642570Y0001187096D03*
X0003642570Y0001053238D03*
D74*
X0002507255Y0001169222D02*
X0002573515Y0001169222D01*
X0002573515Y0001169222D02*
X0002591389Y0001187096D01*
X0002507255Y0001069222D02*
X0002575405Y0001069222D01*
X0002575405Y0001069222D02*
X0002591389Y0001053238D01*
X0002677452Y0001087096D02*
X0002637058Y0001087096D01*
X0002637058Y0001087096D02*
X0002603200Y0001053238D01*
X0002507255Y0000969222D02*
X0002573515Y0000969222D01*
X0002573515Y0000969222D02*
X0002591389Y0000987095D01*
X0002637058Y0000953238D02*
X0002603200Y0000987095D01*
X0002677452Y0000953238D02*
X0002637058Y0000953238D01*
X0002507255Y0000869222D02*
X0002575405Y0000869222D01*
X0002575405Y0000869222D02*
X0002591389Y0000853238D01*
X0002637058Y0000887095D02*
X0002603200Y0000853238D01*
X0002677452Y0000887095D02*
X0002637058Y0000887095D01*
X0002507255Y0000769222D02*
X0002573515Y0000769222D01*
X0002573515Y0000769222D02*
X0002591389Y0000787096D01*
X0002637058Y0000753237D02*
X0002603200Y0000787096D01*
X0002677452Y0000753237D02*
X0002637058Y0000753237D01*
X0002507255Y0000669222D02*
X0002575405Y0000669222D01*
X0002575405Y0000669222D02*
X0002591389Y0000653237D01*
X0002637058Y0000687096D02*
X0002603200Y0000653237D01*
X0002677452Y0000687096D02*
X0002637058Y0000687096D01*
X0002507255Y0000569222D02*
X0002573515Y0000569222D01*
X0002573515Y0000569222D02*
X0002591389Y0000587096D01*
X0002637058Y0000553238D02*
X0002603200Y0000587096D01*
X0002677452Y0000553238D02*
X0002637058Y0000553238D01*
X0002507255Y0000469222D02*
X0002575405Y0000469222D01*
X0002575405Y0000469222D02*
X0002591389Y0000453238D01*
X0002677452Y0000487096D02*
X0002637058Y0000487096D01*
X0002637058Y0000487096D02*
X0002603200Y0000453238D01*
X0002507255Y0000369222D02*
X0002573515Y0000369222D01*
X0002573515Y0000369222D02*
X0002591389Y0000387096D01*
X0002677452Y0000353238D02*
X0002637058Y0000353238D01*
X0002637058Y0000353238D02*
X0002603200Y0000387096D01*
X0002923907Y0001169222D02*
X0002941782Y0001187096D01*
X0002857649Y0001169222D02*
X0002923907Y0001169222D01*
X0003274302Y0001169222D02*
X0003292176Y0001187096D01*
X0003208042Y0001169222D02*
X0003274302Y0001169222D01*
X0002156861Y0001169222D02*
X0002223121Y0001169222D01*
X0002223121Y0001169222D02*
X0002240995Y0001187096D01*
X0002156861Y0001069222D02*
X0002225011Y0001069222D01*
X0002225011Y0001069222D02*
X0002240995Y0001053238D01*
X0002327058Y0001087096D02*
X0002286664Y0001087096D01*
X0002286664Y0001087096D02*
X0002252806Y0001053238D01*
X0002156861Y0000969222D02*
X0002223121Y0000969222D01*
X0002223121Y0000969222D02*
X0002240995Y0000987095D01*
X0002286664Y0000953238D02*
X0002252806Y0000987095D01*
X0002327058Y0000953238D02*
X0002286664Y0000953238D01*
X0002156861Y0000869222D02*
X0002225011Y0000869222D01*
X0002225011Y0000869222D02*
X0002240995Y0000853238D01*
X0002286664Y0000887095D02*
X0002252806Y0000853238D01*
X0002327058Y0000887095D02*
X0002286664Y0000887095D01*
X0002156861Y0000769222D02*
X0002223121Y0000769222D01*
X0002223121Y0000769222D02*
X0002240995Y0000787096D01*
X0002286664Y0000753237D02*
X0002252806Y0000787096D01*
X0002327058Y0000753237D02*
X0002286664Y0000753237D01*
X0002156861Y0000669222D02*
X0002225011Y0000669222D01*
X0002225011Y0000669222D02*
X0002240995Y0000653237D01*
X0002286664Y0000687096D02*
X0002252806Y0000653237D01*
X0002327058Y0000687096D02*
X0002286664Y0000687096D01*
X0002156861Y0000569222D02*
X0002223121Y0000569222D01*
X0002327058Y0000553238D02*
X0002286664Y0000553238D01*
X0002223121Y0000569222D02*
X0002240995Y0000587096D01*
X0002286664Y0000553238D02*
X0002252806Y0000587096D01*
X0002156861Y0000469222D02*
X0002225011Y0000469222D01*
X0002225011Y0000469222D02*
X0002240995Y0000453238D01*
X0002286664Y0000487096D02*
X0002252806Y0000453238D01*
X0002327058Y0000487096D02*
X0002286664Y0000487096D01*
X0002156861Y0000369222D02*
X0002223121Y0000369222D01*
X0002223121Y0000369222D02*
X0002240995Y0000387096D01*
X0002286664Y0000353238D02*
X0002252806Y0000387096D01*
X0002327058Y0000353238D02*
X0002286664Y0000353238D01*
X0002925798Y0001069222D02*
X0002941782Y0001053238D01*
X0003027845Y0001087096D02*
X0002987452Y0001087096D01*
X0002987452Y0001087096D02*
X0002953594Y0001053238D01*
X0002857649Y0001069222D02*
X0002925798Y0001069222D01*
X0002923907Y0000969222D02*
X0002941782Y0000987095D01*
X0002987452Y0000953238D02*
X0002953594Y0000987095D01*
X0003027845Y0000953238D02*
X0002987452Y0000953238D01*
X0002857649Y0000969222D02*
X0002923907Y0000969222D01*
X0002925798Y0000869222D02*
X0002941782Y0000853238D01*
X0002987452Y0000887095D02*
X0002953594Y0000853238D01*
X0003027845Y0000887095D02*
X0002987452Y0000887095D01*
X0002857649Y0000869222D02*
X0002925798Y0000869222D01*
X0002923907Y0000769222D02*
X0002941782Y0000787096D01*
X0002987452Y0000753237D02*
X0002953594Y0000787096D01*
X0003027845Y0000753237D02*
X0002987452Y0000753237D01*
X0002857649Y0000769222D02*
X0002923907Y0000769222D01*
X0002925798Y0000669222D02*
X0002941782Y0000653237D01*
X0002987452Y0000687096D02*
X0002953594Y0000653237D01*
X0003027845Y0000687096D02*
X0002987452Y0000687096D01*
X0002857649Y0000669222D02*
X0002925798Y0000669222D01*
X0002923907Y0000569222D02*
X0002941782Y0000587096D01*
X0002987452Y0000553238D02*
X0002953594Y0000587096D01*
X0003027845Y0000553238D02*
X0002987452Y0000553238D01*
X0002857649Y0000569222D02*
X0002923907Y0000569222D01*
X0002925798Y0000469222D02*
X0002941782Y0000453238D01*
X0003027845Y0000487096D02*
X0002987452Y0000487096D01*
X0002987452Y0000487096D02*
X0002953594Y0000453238D01*
X0002857649Y0000469222D02*
X0002925798Y0000469222D01*
X0002923907Y0000369222D02*
X0002941782Y0000387096D01*
X0003027845Y0000353238D02*
X0002987452Y0000353238D01*
X0002987452Y0000353238D02*
X0002953594Y0000387096D01*
X0002857649Y0000369222D02*
X0002923907Y0000369222D01*
X0003276192Y0001069222D02*
X0003292176Y0001053238D01*
X0003378239Y0001087096D02*
X0003337845Y0001087096D01*
X0003337845Y0001087096D02*
X0003303987Y0001053238D01*
X0003208042Y0001069222D02*
X0003276192Y0001069222D01*
X0003274302Y0000969222D02*
X0003292176Y0000987095D01*
X0003337845Y0000953238D02*
X0003303987Y0000987095D01*
X0003378239Y0000953238D02*
X0003337845Y0000953238D01*
X0003208042Y0000969222D02*
X0003274302Y0000969222D01*
X0003276192Y0000869222D02*
X0003292176Y0000853238D01*
X0003337845Y0000887095D02*
X0003303987Y0000853238D01*
X0003378239Y0000887095D02*
X0003337845Y0000887095D01*
X0003208042Y0000869222D02*
X0003276192Y0000869222D01*
X0003274302Y0000769222D02*
X0003292176Y0000787096D01*
X0003337845Y0000753237D02*
X0003303987Y0000787096D01*
X0003378239Y0000753237D02*
X0003337845Y0000753237D01*
X0003208042Y0000769222D02*
X0003274302Y0000769222D01*
X0003276192Y0000669222D02*
X0003292176Y0000653237D01*
X0003337845Y0000687096D02*
X0003303987Y0000653237D01*
X0003378239Y0000687096D02*
X0003337845Y0000687096D01*
X0003208042Y0000669222D02*
X0003276192Y0000669222D01*
X0003274302Y0000569222D02*
X0003292176Y0000587096D01*
X0003337845Y0000553238D02*
X0003303987Y0000587096D01*
X0003378239Y0000553238D02*
X0003337845Y0000553238D01*
X0003208042Y0000569222D02*
X0003274302Y0000569222D01*
X0003276192Y0000469222D02*
X0003292176Y0000453238D01*
X0003378239Y0000487096D02*
X0003337845Y0000487096D01*
X0003337845Y0000487096D02*
X0003303987Y0000453238D01*
X0003208042Y0000469222D02*
X0003276192Y0000469222D01*
X0003274302Y0000369222D02*
X0003292176Y0000387096D01*
X0003378239Y0000353238D02*
X0003337845Y0000353238D01*
X0003337845Y0000353238D02*
X0003303987Y0000387096D01*
X0003208042Y0000369222D02*
X0003274302Y0000369222D01*
X0003624695Y0001169222D02*
X0003642570Y0001187096D01*
X0003558436Y0001169222D02*
X0003624695Y0001169222D01*
X0003626586Y0001069222D02*
X0003642570Y0001053238D01*
X0003728633Y0001087096D02*
X0003688239Y0001087096D01*
X0003688239Y0001087096D02*
X0003654380Y0001053238D01*
X0003558436Y0001069222D02*
X0003626586Y0001069222D01*
X0003624695Y0000969222D02*
X0003642570Y0000987095D01*
X0003728633Y0000953238D02*
X0003688239Y0000953238D01*
X0003688239Y0000953238D02*
X0003654380Y0000987095D01*
X0003558436Y0000969222D02*
X0003624695Y0000969222D01*
X0003626586Y0000869222D02*
X0003642570Y0000853238D01*
X0003728633Y0000887095D02*
X0003688239Y0000887095D01*
X0003688239Y0000887095D02*
X0003654380Y0000853238D01*
X0003558436Y0000869222D02*
X0003626586Y0000869222D01*
X0003624695Y0000769222D02*
X0003642570Y0000787096D01*
X0003728633Y0000753237D02*
X0003688239Y0000753237D01*
X0003688239Y0000753237D02*
X0003654380Y0000787096D01*
X0003558436Y0000769222D02*
X0003624695Y0000769222D01*
X0003626586Y0000669222D02*
X0003642570Y0000653237D01*
X0003728633Y0000687096D02*
X0003688239Y0000687096D01*
X0003688239Y0000687096D02*
X0003654380Y0000653237D01*
X0003558436Y0000669222D02*
X0003626586Y0000669222D01*
X0003624695Y0000569222D02*
X0003642570Y0000587096D01*
X0003728633Y0000553238D02*
X0003688239Y0000553238D01*
X0003688239Y0000553238D02*
X0003654380Y0000587096D01*
X0003558436Y0000569222D02*
X0003624695Y0000569222D01*
X0003626586Y0000469222D02*
X0003642570Y0000453238D01*
X0003728633Y0000487096D02*
X0003688239Y0000487096D01*
X0003688239Y0000487096D02*
X0003654380Y0000453238D01*
X0003558436Y0000469222D02*
X0003626586Y0000469222D01*
X0003624695Y0000369222D02*
X0003642570Y0000387096D01*
X0003728633Y0000353238D02*
X0003688239Y0000353238D01*
X0003688239Y0000353238D02*
X0003654380Y0000387096D01*
X0003558436Y0000369222D02*
X0003624695Y0000369222D01*
D75*
X0003735856Y0000253238D02*
X0003642570Y0000253238D01*
D74*
X0003626586Y0000269222D02*
X0003642570Y0000253238D01*
D75*
X0003799816Y0000317198D02*
X0003735856Y0000253238D01*
D74*
X0003558436Y0000269222D02*
X0003626586Y0000269222D01*
D75*
X0003799816Y0000672871D02*
X0003799816Y0000317198D01*
X0003799816Y0000672871D02*
X0003897244Y0000672871D01*
X0002056861Y0000369222D02*
X0002056861Y0000469222D01*
X0002056861Y0001069222D02*
X0002056861Y0001169222D01*
X0002056861Y0000969222D02*
X0002056861Y0001069222D01*
X0002056861Y0000869222D02*
X0002056861Y0000969222D01*
X0002056861Y0000769222D02*
X0002056861Y0000869222D01*
X0002056861Y0000669222D02*
X0002056861Y0000769222D01*
X0002056861Y0000569222D02*
X0002056861Y0000669222D01*
X0002056861Y0000469222D02*
X0002056861Y0000569222D01*
X0002056861Y0000269222D02*
X0002056861Y0000369222D01*
X0002056861Y0001169222D02*
X0002056861Y0000452453D01*
X0003799816Y0000772870D02*
X0003799816Y0001146275D01*
X0003799816Y0001146275D02*
X0003676878Y0001269212D01*
X0003676878Y0001269212D02*
X0002101173Y0001269212D01*
X0002101173Y0001269212D02*
X0002056861Y0001224900D01*
X0002056861Y0001224900D02*
X0002056861Y0001169222D01*
X0003799816Y0000772870D02*
X0003897244Y0000772870D01*
X0002407255Y0001069222D02*
X0002407255Y0001169222D01*
X0002407255Y0000969222D02*
X0002407255Y0001069222D01*
X0002407255Y0000869222D02*
X0002407255Y0000969222D01*
X0002407255Y0000769222D02*
X0002407255Y0000869222D01*
X0002407255Y0000669222D02*
X0002407255Y0000769222D01*
X0002407255Y0000569222D02*
X0002407255Y0000669222D01*
X0002407255Y0000469222D02*
X0002407255Y0000569222D01*
X0002407255Y0000369222D02*
X0002407255Y0000469222D01*
X0002407255Y0000269222D02*
X0002407255Y0000369222D01*
X0002240995Y0000253238D02*
X0002391271Y0000253238D01*
X0002391271Y0000253238D02*
X0002407255Y0000269222D01*
D74*
X0002225011Y0000269222D02*
X0002240995Y0000253238D01*
X0002156861Y0000269222D02*
X0002225011Y0000269222D01*
D75*
X0002757649Y0000369222D02*
X0002757649Y0000269222D01*
X0002757649Y0000469222D02*
X0002757649Y0000369222D01*
X0002757649Y0000569222D02*
X0002757649Y0000469222D01*
X0002757649Y0000669222D02*
X0002757649Y0000569222D01*
X0002757649Y0000769222D02*
X0002757649Y0000669222D01*
X0002757649Y0000869222D02*
X0002757649Y0000769222D01*
X0002757649Y0000969222D02*
X0002757649Y0000869222D01*
X0002757649Y0001069222D02*
X0002757649Y0000969222D01*
X0002757649Y0001169222D02*
X0002757649Y0001069222D01*
X0002591389Y0000253238D02*
X0002741664Y0000253238D01*
X0002741664Y0000253238D02*
X0002757649Y0000269222D01*
D74*
X0002507255Y0000269222D02*
X0002575405Y0000269222D01*
X0002575405Y0000269222D02*
X0002591389Y0000253238D01*
D75*
X0003108041Y0001069222D02*
X0003108041Y0001169222D01*
X0003108041Y0000969222D02*
X0003108041Y0001069222D01*
X0003108041Y0000869222D02*
X0003108041Y0000969222D01*
X0003108041Y0000769222D02*
X0003108041Y0000869222D01*
X0003108041Y0000669222D02*
X0003108041Y0000769222D01*
X0003108041Y0000569222D02*
X0003108041Y0000669222D01*
X0003108041Y0000469222D02*
X0003108041Y0000569222D01*
X0003108041Y0000369222D02*
X0003108041Y0000469222D01*
X0003108041Y0000269222D02*
X0003108041Y0000369222D01*
X0002941782Y0000253238D02*
X0003092058Y0000253238D01*
X0003092058Y0000253238D02*
X0003108041Y0000269222D01*
D74*
X0002925798Y0000269222D02*
X0002941782Y0000253238D01*
X0002857649Y0000269222D02*
X0002925798Y0000269222D01*
D75*
X0003458436Y0000369222D02*
X0003458436Y0000269222D01*
X0003458436Y0000469222D02*
X0003458436Y0000369222D01*
X0003458436Y0000569222D02*
X0003458436Y0000469222D01*
X0003458436Y0000669222D02*
X0003458436Y0000569222D01*
X0003458436Y0000769222D02*
X0003458436Y0000669222D01*
X0003458436Y0000869222D02*
X0003458436Y0000769222D01*
X0003458436Y0000969222D02*
X0003458436Y0000869222D01*
X0003458436Y0001069222D02*
X0003458436Y0000969222D01*
X0003458436Y0001169222D02*
X0003458436Y0001069222D01*
X0003292176Y0000253238D02*
X0003442452Y0000253238D01*
X0003442452Y0000253238D02*
X0003458436Y0000269222D01*
D74*
X0003276192Y0000269222D02*
X0003292176Y0000253238D01*
X0003208042Y0000269222D02*
X0003276192Y0000269222D01*
G04 next file*
G01*
D86*
D87*
X0001894075Y0002580802D02*
X0001897825Y0002578926D01*
X0001899700Y0002575178D01*
X0001899700Y0002541432D01*
X0001862204Y0002554554D02*
X0001862204Y0002580802D01*
X0001879077Y0002554554D02*
X0001879077Y0002575178D01*
X0001877202Y0002578926D01*
X0001873453Y0002580802D01*
X0001867829Y0002580802D01*
X0001864079Y0002578926D01*
X0001862204Y0002577052D01*
X0001849081Y0002554554D02*
X0001834081Y0002554554D01*
X0001843457Y0002580802D02*
X0001843457Y0002547056D01*
X0001841582Y0002543307D01*
X0001837832Y0002541432D01*
X0001834081Y0002541432D01*
X0001826584Y0002554554D02*
X0001811586Y0002554554D01*
X0001820958Y0002541432D02*
X0001820958Y0002575178D01*
X0001819084Y0002578926D01*
X0001815335Y0002580802D01*
X0001811586Y0002580802D01*
X0001783464Y0002578926D02*
X0001787214Y0002580802D01*
X0001794712Y0002580802D01*
X0001798462Y0002578926D01*
X0001800337Y0002575178D01*
X0001800337Y0002560179D01*
X0001798462Y0002556430D01*
X0001794712Y0002554554D01*
X0001787214Y0002554554D01*
X0001783464Y0002556430D01*
X0001781589Y0002560179D01*
X0001781589Y0002563929D01*
X0001800337Y0002567678D01*
X0001764716Y0002580802D02*
X0001764716Y0002541432D01*
X0001760967Y0002565804D02*
X0001749718Y0002580802D01*
X0001749718Y0002554554D02*
X0001764716Y0002569553D01*
X0001674728Y0002545181D02*
X0001672853Y0002543307D01*
X0001669103Y0002541432D01*
X0001659730Y0002541432D01*
X0001655980Y0002543307D01*
X0001654105Y0002545181D01*
X0001652230Y0002548931D01*
X0001652230Y0002552680D01*
X0001654105Y0002558304D01*
X0001676602Y0002580802D01*
X0001652230Y0002580802D01*
X0001627859Y0002541432D02*
X0001624109Y0002541432D01*
X0001620358Y0002543307D01*
X0001618485Y0002545181D01*
X0001616610Y0002548931D01*
X0001614735Y0002556430D01*
X0001614735Y0002565804D01*
X0001616610Y0002573303D01*
X0001618485Y0002577052D01*
X0001620358Y0002578926D01*
X0001624109Y0002580802D01*
X0001627859Y0002580802D01*
X0001631608Y0002578926D01*
X0001633481Y0002577052D01*
X0001635358Y0002573303D01*
X0001637232Y0002565804D01*
X0001637232Y0002556430D01*
X0001635358Y0002548931D01*
X0001633481Y0002545181D01*
X0001631608Y0002543307D01*
X0001627859Y0002541432D01*
X0001577240Y0002580802D02*
X0001599737Y0002580802D01*
X0001588488Y0002580802D02*
X0001588488Y0002541432D01*
X0001592238Y0002547056D01*
X0001595987Y0002550806D01*
X0001599737Y0002552680D01*
X0001564117Y0002541432D02*
X0001537870Y0002541432D01*
X0001554743Y0002580802D01*
X0001515373Y0002541432D02*
X0001511623Y0002541432D01*
X0001507874Y0002543307D01*
X0001505999Y0002545181D01*
X0001504124Y0002548931D01*
X0001502249Y0002556430D01*
X0001502249Y0002565804D01*
X0001504124Y0002573303D01*
X0001505999Y0002577052D01*
X0001507874Y0002578926D01*
X0001511623Y0002580802D01*
X0001515373Y0002580802D01*
X0001519122Y0002578926D01*
X0001520997Y0002577052D01*
X0001522872Y0002573303D01*
X0001524746Y0002565804D01*
X0001524746Y0002556430D01*
X0001522872Y0002548931D01*
X0001520997Y0002545181D01*
X0001519122Y0002543307D01*
X0001515373Y0002541432D01*
X0001464754Y0002580802D02*
X0001487251Y0002580802D01*
X0001476003Y0002580802D02*
X0001476003Y0002541432D01*
X0001479752Y0002547056D01*
X0001483502Y0002550806D01*
X0001487251Y0002552680D01*
X0001449756Y0002545181D02*
X0001447881Y0002543307D01*
X0001444132Y0002541432D01*
X0001434758Y0002541432D01*
X0001431008Y0002543307D01*
X0001429133Y0002545181D01*
X0001427259Y0002548931D01*
X0001427259Y0002552680D01*
X0001429133Y0002558304D01*
X0001451631Y0002580802D01*
X0001427259Y0002580802D01*
X0001389763Y0002580802D02*
X0001412260Y0002580802D01*
X0001401012Y0002580802D02*
X0001401012Y0002541432D01*
X0001404761Y0002547056D01*
X0001408510Y0002550806D01*
X0001412260Y0002552680D01*
D88*
X0001880146Y0002447312D03*
X0001780146Y0002447312D03*
X0001880146Y0002347312D03*
X0001780146Y0002347312D03*
X0001880146Y0002247312D03*
X0001780146Y0002247312D03*
X0001880146Y0002147312D03*
X0001780146Y0002147312D03*
X0001880146Y0002047311D03*
X0001780146Y0002047311D03*
X0001880146Y0001947312D03*
X0001780146Y0001947312D03*
X0001880146Y0001847312D03*
X0001780146Y0001847312D03*
X0001880146Y0001747311D03*
X0001780146Y0001747311D03*
X0001880146Y0001647312D03*
X0001780146Y0001647312D03*
X0001880146Y0001547311D03*
D89*
X0001780146Y0001547311D03*
D90*
X0000039370Y0001944057D03*
D91*
X0000039370Y0002044057D03*
X0000137191Y0002043664D03*
D90*
X0000137191Y0001943664D03*
D88*
X0001529752Y0002447312D03*
X0001429752Y0002447312D03*
X0001529752Y0002347312D03*
X0001429752Y0002347312D03*
X0001529752Y0002247312D03*
X0001429752Y0002247312D03*
X0001529752Y0002147312D03*
X0001429752Y0002147312D03*
X0001529752Y0002047311D03*
X0001429752Y0002047311D03*
X0001529752Y0001947312D03*
X0001429752Y0001947312D03*
X0001529752Y0001847312D03*
X0001429752Y0001847312D03*
X0001529752Y0001747311D03*
X0001429752Y0001747311D03*
X0001529752Y0001647312D03*
X0001429752Y0001647312D03*
X0001529752Y0001547311D03*
D89*
X0001429752Y0001547311D03*
D88*
X0001179358Y0002447312D03*
X0001079358Y0002447312D03*
X0001179358Y0002347312D03*
X0001079358Y0002347312D03*
X0001179358Y0002247312D03*
X0001079358Y0002247312D03*
X0001179358Y0002147312D03*
X0001079358Y0002147312D03*
X0001179358Y0002047311D03*
X0001079358Y0002047311D03*
X0001179358Y0001947312D03*
X0001079358Y0001947312D03*
X0001179358Y0001847312D03*
X0001079358Y0001847312D03*
X0001179358Y0001747311D03*
X0001079358Y0001747311D03*
X0001179358Y0001647312D03*
X0001079358Y0001647312D03*
X0001179358Y0001547311D03*
D89*
X0001079358Y0001547311D03*
D88*
X0000828965Y0002447312D03*
X0000728965Y0002447312D03*
X0000828965Y0002347312D03*
X0000728965Y0002347312D03*
X0000828965Y0002247312D03*
X0000728965Y0002247312D03*
X0000828965Y0002147312D03*
X0000728965Y0002147312D03*
X0000828965Y0002047311D03*
X0000728965Y0002047311D03*
X0000828965Y0001947312D03*
X0000728965Y0001947312D03*
X0000828965Y0001847312D03*
X0000728965Y0001847312D03*
X0000828965Y0001747311D03*
X0000728965Y0001747311D03*
X0000828965Y0001647312D03*
X0000728965Y0001647312D03*
X0000828965Y0001547311D03*
D89*
X0000728965Y0001547311D03*
D92*
X0001696012Y0002063297D03*
X0001696012Y0001929438D03*
X0001345618Y0002063297D03*
X0001345618Y0001929438D03*
X0000995224Y0002063297D03*
X0000995224Y0001929438D03*
X0000644831Y0002063297D03*
X0000644831Y0001929438D03*
X0001621760Y0001829438D03*
X0001621760Y0001963297D03*
X0001271366Y0001829438D03*
X0001271366Y0001963297D03*
X0000920972Y0001829438D03*
X0000920972Y0001963297D03*
X0000570579Y0001829438D03*
X0000570579Y0001963297D03*
X0001621760Y0002229438D03*
X0001621760Y0002363297D03*
X0001271366Y0002229438D03*
X0001271366Y0002363297D03*
X0000920972Y0002229438D03*
X0000920972Y0002363297D03*
X0000570579Y0002229438D03*
X0000570579Y0002363297D03*
X0001696012Y0002463297D03*
X0001696012Y0002329438D03*
X0001345618Y0002463297D03*
X0001345618Y0002329438D03*
X0000995224Y0002463297D03*
X0000995224Y0002329438D03*
X0000644831Y0002463297D03*
X0000644831Y0002329438D03*
X0001621760Y0002163297D03*
X0001621760Y0002029437D03*
X0001271366Y0002163297D03*
X0001271366Y0002029437D03*
X0000920972Y0002163297D03*
X0000920972Y0002029437D03*
X0000570579Y0002163297D03*
X0000570579Y0002029437D03*
X0001696012Y0001729438D03*
X0001696012Y0001863297D03*
X0001345618Y0001729438D03*
X0001345618Y0001863297D03*
X0000995224Y0001729438D03*
X0000995224Y0001863297D03*
X0000644831Y0001729438D03*
X0000644831Y0001863297D03*
X0001696012Y0002129438D03*
X0001696012Y0002263297D03*
X0001345618Y0002129438D03*
X0001345618Y0002263297D03*
X0000995224Y0002129438D03*
X0000995224Y0002263297D03*
X0000644831Y0002129438D03*
X0000644831Y0002263297D03*
X0001621760Y0001763297D03*
X0001621760Y0001629438D03*
X0001271366Y0001763297D03*
X0001271366Y0001629438D03*
X0000920972Y0001763297D03*
X0000920972Y0001629438D03*
X0000570579Y0001763297D03*
X0000570579Y0001629438D03*
X0001696012Y0001663296D03*
X0001696012Y0001529438D03*
X0001345618Y0001663296D03*
X0001345618Y0001529438D03*
X0000995224Y0001663296D03*
X0000995224Y0001529438D03*
X0000644831Y0001663296D03*
X0000644831Y0001529438D03*
D89*
X0000378571Y0001547311D03*
D88*
X0000478571Y0001547311D03*
X0000378571Y0001647312D03*
X0000478571Y0001647312D03*
X0000378571Y0001747311D03*
X0000478571Y0001747311D03*
X0000378571Y0001847312D03*
X0000478571Y0001847312D03*
X0000378571Y0001947312D03*
X0000478571Y0001947312D03*
X0000378571Y0002047311D03*
X0000478571Y0002047311D03*
X0000378571Y0002147312D03*
X0000478571Y0002147312D03*
X0000378571Y0002247312D03*
X0000478571Y0002247312D03*
X0000378571Y0002347312D03*
X0000478571Y0002347312D03*
X0000378571Y0002447312D03*
X0000478571Y0002447312D03*
D92*
X0000294437Y0001929438D03*
X0000294437Y0002063297D03*
X0000294437Y0001863297D03*
X0000294437Y0001729438D03*
X0000220185Y0002029437D03*
X0000220185Y0002163297D03*
X0000294437Y0002263297D03*
X0000294437Y0002129438D03*
X0000220185Y0002363297D03*
X0000220185Y0002229438D03*
X0000294437Y0002329438D03*
X0000294437Y0002463297D03*
X0000220185Y0001629438D03*
X0000220185Y0001763297D03*
X0000220185Y0001963297D03*
X0000220185Y0001829438D03*
X0000294437Y0001529438D03*
X0000294437Y0001663296D03*
D93*
X0001429752Y0001547311D02*
X0001363492Y0001547311D01*
X0001363492Y0001547311D02*
X0001345618Y0001529438D01*
X0001429752Y0001647312D02*
X0001361602Y0001647312D01*
X0001361602Y0001647312D02*
X0001345618Y0001663296D01*
X0001259555Y0001629438D02*
X0001299949Y0001629438D01*
X0001299949Y0001629438D02*
X0001333807Y0001663296D01*
X0001429752Y0001747311D02*
X0001363492Y0001747311D01*
X0001363492Y0001747311D02*
X0001345618Y0001729438D01*
X0001299949Y0001763297D02*
X0001333807Y0001729438D01*
X0001259555Y0001763297D02*
X0001299949Y0001763297D01*
X0001429752Y0001847312D02*
X0001361602Y0001847312D01*
X0001361602Y0001847312D02*
X0001345618Y0001863297D01*
X0001299949Y0001829438D02*
X0001333807Y0001863297D01*
X0001259555Y0001829438D02*
X0001299949Y0001829438D01*
X0001429752Y0001947312D02*
X0001363492Y0001947312D01*
X0001363492Y0001947312D02*
X0001345618Y0001929438D01*
X0001299949Y0001963297D02*
X0001333807Y0001929438D01*
X0001259555Y0001963297D02*
X0001299949Y0001963297D01*
X0001429752Y0002047311D02*
X0001361602Y0002047311D01*
X0001361602Y0002047311D02*
X0001345618Y0002063297D01*
X0001299949Y0002029437D02*
X0001333807Y0002063297D01*
X0001259555Y0002029437D02*
X0001299949Y0002029437D01*
X0001429752Y0002147312D02*
X0001363492Y0002147312D01*
X0001363492Y0002147312D02*
X0001345618Y0002129438D01*
X0001299949Y0002163297D02*
X0001333807Y0002129438D01*
X0001259555Y0002163297D02*
X0001299949Y0002163297D01*
X0001429752Y0002247312D02*
X0001361602Y0002247312D01*
X0001361602Y0002247312D02*
X0001345618Y0002263297D01*
X0001259555Y0002229438D02*
X0001299949Y0002229438D01*
X0001299949Y0002229438D02*
X0001333807Y0002263297D01*
X0001429752Y0002347312D02*
X0001363492Y0002347312D01*
X0001363492Y0002347312D02*
X0001345618Y0002329438D01*
X0001259555Y0002363297D02*
X0001299949Y0002363297D01*
X0001299949Y0002363297D02*
X0001333807Y0002329438D01*
X0001013098Y0001547311D02*
X0000995224Y0001529438D01*
X0001079358Y0001547311D02*
X0001013098Y0001547311D01*
X0000662705Y0001547311D02*
X0000644831Y0001529438D01*
X0000728965Y0001547311D02*
X0000662705Y0001547311D01*
X0001780146Y0001547311D02*
X0001713886Y0001547311D01*
X0001713886Y0001547311D02*
X0001696012Y0001529438D01*
X0001780146Y0001647312D02*
X0001711996Y0001647312D01*
X0001711996Y0001647312D02*
X0001696012Y0001663296D01*
X0001609949Y0001629438D02*
X0001650342Y0001629438D01*
X0001650342Y0001629438D02*
X0001684201Y0001663296D01*
X0001780146Y0001747311D02*
X0001713886Y0001747311D01*
X0001713886Y0001747311D02*
X0001696012Y0001729438D01*
X0001650342Y0001763297D02*
X0001684201Y0001729438D01*
X0001609949Y0001763297D02*
X0001650342Y0001763297D01*
X0001780146Y0001847312D02*
X0001711996Y0001847312D01*
X0001711996Y0001847312D02*
X0001696012Y0001863297D01*
X0001650342Y0001829438D02*
X0001684201Y0001863297D01*
X0001609949Y0001829438D02*
X0001650342Y0001829438D01*
X0001780146Y0001947312D02*
X0001713886Y0001947312D01*
X0001713886Y0001947312D02*
X0001696012Y0001929438D01*
X0001650342Y0001963297D02*
X0001684201Y0001929438D01*
X0001609949Y0001963297D02*
X0001650342Y0001963297D01*
X0001780146Y0002047311D02*
X0001711996Y0002047311D01*
X0001711996Y0002047311D02*
X0001696012Y0002063297D01*
X0001650342Y0002029437D02*
X0001684201Y0002063297D01*
X0001609949Y0002029437D02*
X0001650342Y0002029437D01*
X0001780146Y0002147312D02*
X0001713886Y0002147312D01*
X0001609949Y0002163297D02*
X0001650342Y0002163297D01*
X0001713886Y0002147312D02*
X0001696012Y0002129438D01*
X0001650342Y0002163297D02*
X0001684201Y0002129438D01*
X0001780146Y0002247312D02*
X0001711996Y0002247312D01*
X0001711996Y0002247312D02*
X0001696012Y0002263297D01*
X0001650342Y0002229438D02*
X0001684201Y0002263297D01*
X0001609949Y0002229438D02*
X0001650342Y0002229438D01*
X0001780146Y0002347312D02*
X0001713886Y0002347312D01*
X0001713886Y0002347312D02*
X0001696012Y0002329438D01*
X0001650342Y0002363297D02*
X0001684201Y0002329438D01*
X0001609949Y0002363297D02*
X0001650342Y0002363297D01*
X0001011209Y0001647312D02*
X0000995224Y0001663296D01*
X0000909161Y0001629438D02*
X0000949555Y0001629438D01*
X0000949555Y0001629438D02*
X0000983413Y0001663296D01*
X0001079358Y0001647312D02*
X0001011209Y0001647312D01*
X0001013098Y0001747311D02*
X0000995224Y0001729438D01*
X0000949555Y0001763297D02*
X0000983413Y0001729438D01*
X0000909161Y0001763297D02*
X0000949555Y0001763297D01*
X0001079358Y0001747311D02*
X0001013098Y0001747311D01*
X0001011209Y0001847312D02*
X0000995224Y0001863297D01*
X0000949555Y0001829438D02*
X0000983413Y0001863297D01*
X0000909161Y0001829438D02*
X0000949555Y0001829438D01*
X0001079358Y0001847312D02*
X0001011209Y0001847312D01*
X0001013098Y0001947312D02*
X0000995224Y0001929438D01*
X0000949555Y0001963297D02*
X0000983413Y0001929438D01*
X0000909161Y0001963297D02*
X0000949555Y0001963297D01*
X0001079358Y0001947312D02*
X0001013098Y0001947312D01*
X0001011209Y0002047311D02*
X0000995224Y0002063297D01*
X0000949555Y0002029437D02*
X0000983413Y0002063297D01*
X0000909161Y0002029437D02*
X0000949555Y0002029437D01*
X0001079358Y0002047311D02*
X0001011209Y0002047311D01*
X0001013098Y0002147312D02*
X0000995224Y0002129438D01*
X0000949555Y0002163297D02*
X0000983413Y0002129438D01*
X0000909161Y0002163297D02*
X0000949555Y0002163297D01*
X0001079358Y0002147312D02*
X0001013098Y0002147312D01*
X0001011209Y0002247312D02*
X0000995224Y0002263297D01*
X0000909161Y0002229438D02*
X0000949555Y0002229438D01*
X0000949555Y0002229438D02*
X0000983413Y0002263297D01*
X0001079358Y0002247312D02*
X0001011209Y0002247312D01*
X0001013098Y0002347312D02*
X0000995224Y0002329438D01*
X0000909161Y0002363297D02*
X0000949555Y0002363297D01*
X0000949555Y0002363297D02*
X0000983413Y0002329438D01*
X0001079358Y0002347312D02*
X0001013098Y0002347312D01*
X0000660815Y0001647312D02*
X0000644831Y0001663296D01*
X0000558768Y0001629438D02*
X0000599161Y0001629438D01*
X0000599161Y0001629438D02*
X0000633020Y0001663296D01*
X0000728965Y0001647312D02*
X0000660815Y0001647312D01*
X0000662705Y0001747311D02*
X0000644831Y0001729438D01*
X0000599161Y0001763297D02*
X0000633020Y0001729438D01*
X0000558768Y0001763297D02*
X0000599161Y0001763297D01*
X0000728965Y0001747311D02*
X0000662705Y0001747311D01*
X0000660815Y0001847312D02*
X0000644831Y0001863297D01*
X0000599161Y0001829438D02*
X0000633020Y0001863297D01*
X0000558768Y0001829438D02*
X0000599161Y0001829438D01*
X0000728965Y0001847312D02*
X0000660815Y0001847312D01*
X0000662705Y0001947312D02*
X0000644831Y0001929438D01*
X0000599161Y0001963297D02*
X0000633020Y0001929438D01*
X0000558768Y0001963297D02*
X0000599161Y0001963297D01*
X0000728965Y0001947312D02*
X0000662705Y0001947312D01*
X0000660815Y0002047311D02*
X0000644831Y0002063297D01*
X0000599161Y0002029437D02*
X0000633020Y0002063297D01*
X0000558768Y0002029437D02*
X0000599161Y0002029437D01*
X0000728965Y0002047311D02*
X0000660815Y0002047311D01*
X0000662705Y0002147312D02*
X0000644831Y0002129438D01*
X0000599161Y0002163297D02*
X0000633020Y0002129438D01*
X0000558768Y0002163297D02*
X0000599161Y0002163297D01*
X0000728965Y0002147312D02*
X0000662705Y0002147312D01*
X0000660815Y0002247312D02*
X0000644831Y0002263297D01*
X0000558768Y0002229438D02*
X0000599161Y0002229438D01*
X0000599161Y0002229438D02*
X0000633020Y0002263297D01*
X0000728965Y0002247312D02*
X0000660815Y0002247312D01*
X0000662705Y0002347312D02*
X0000644831Y0002329438D01*
X0000558768Y0002363297D02*
X0000599161Y0002363297D01*
X0000599161Y0002363297D02*
X0000633020Y0002329438D01*
X0000728965Y0002347312D02*
X0000662705Y0002347312D01*
X0000312311Y0001547311D02*
X0000294437Y0001529438D01*
X0000378571Y0001547311D02*
X0000312311Y0001547311D01*
X0000310421Y0001647312D02*
X0000294437Y0001663296D01*
X0000208374Y0001629438D02*
X0000248768Y0001629438D01*
X0000248768Y0001629438D02*
X0000282626Y0001663296D01*
X0000378571Y0001647312D02*
X0000310421Y0001647312D01*
X0000312311Y0001747311D02*
X0000294437Y0001729438D01*
X0000208374Y0001763297D02*
X0000248768Y0001763297D01*
X0000248768Y0001763297D02*
X0000282626Y0001729438D01*
X0000378571Y0001747311D02*
X0000312311Y0001747311D01*
X0000310421Y0001847312D02*
X0000294437Y0001863297D01*
X0000208374Y0001829438D02*
X0000248768Y0001829438D01*
X0000248768Y0001829438D02*
X0000282626Y0001863297D01*
X0000378571Y0001847312D02*
X0000310421Y0001847312D01*
X0000312311Y0001947312D02*
X0000294437Y0001929438D01*
X0000208374Y0001963297D02*
X0000248768Y0001963297D01*
X0000248768Y0001963297D02*
X0000282626Y0001929438D01*
X0000378571Y0001947312D02*
X0000312311Y0001947312D01*
X0000310421Y0002047311D02*
X0000294437Y0002063297D01*
X0000208374Y0002029437D02*
X0000248768Y0002029437D01*
X0000248768Y0002029437D02*
X0000282626Y0002063297D01*
X0000378571Y0002047311D02*
X0000310421Y0002047311D01*
X0000312311Y0002147312D02*
X0000294437Y0002129438D01*
X0000208374Y0002163297D02*
X0000248768Y0002163297D01*
X0000248768Y0002163297D02*
X0000282626Y0002129438D01*
X0000378571Y0002147312D02*
X0000312311Y0002147312D01*
X0000310421Y0002247312D02*
X0000294437Y0002263297D01*
X0000208374Y0002229438D02*
X0000248768Y0002229438D01*
X0000248768Y0002229438D02*
X0000282626Y0002263297D01*
X0000378571Y0002247312D02*
X0000310421Y0002247312D01*
X0000312311Y0002347312D02*
X0000294437Y0002329438D01*
X0000208374Y0002363297D02*
X0000248768Y0002363297D01*
X0000248768Y0002363297D02*
X0000282626Y0002329438D01*
X0000378571Y0002347312D02*
X0000312311Y0002347312D01*
D94*
X0000201151Y0002463297D02*
X0000294437Y0002463297D01*
D93*
X0000310421Y0002447312D02*
X0000294437Y0002463297D01*
D94*
X0000137191Y0002399336D02*
X0000201151Y0002463297D01*
D93*
X0000378571Y0002447312D02*
X0000310421Y0002447312D01*
D94*
X0000137191Y0002043664D02*
X0000137191Y0002399336D01*
X0000137191Y0002043664D02*
X0000039763Y0002043664D01*
X0001880146Y0002347312D02*
X0001880146Y0002247312D01*
X0001880146Y0001647312D02*
X0001880146Y0001547311D01*
X0001880146Y0001747311D02*
X0001880146Y0001647312D01*
X0001880146Y0001847312D02*
X0001880146Y0001747311D01*
X0001880146Y0001947312D02*
X0001880146Y0001847312D01*
X0001880146Y0002047311D02*
X0001880146Y0001947312D01*
X0001880146Y0002147312D02*
X0001880146Y0002047311D01*
X0001880146Y0002247312D02*
X0001880146Y0002147312D01*
X0001880146Y0002447312D02*
X0001880146Y0002347312D01*
X0001880146Y0001547311D02*
X0001880146Y0002264081D01*
X0000137191Y0001943664D02*
X0000137191Y0001570259D01*
X0000137191Y0001570259D02*
X0000260127Y0001447322D01*
X0000260127Y0001447322D02*
X0001835834Y0001447322D01*
X0001835834Y0001447322D02*
X0001880146Y0001491635D01*
X0001880146Y0001491635D02*
X0001880146Y0001547311D01*
X0000137191Y0001943664D02*
X0000039763Y0001943664D01*
X0001529752Y0001647312D02*
X0001529752Y0001547311D01*
X0001529752Y0001747311D02*
X0001529752Y0001647312D01*
X0001529752Y0001847312D02*
X0001529752Y0001747311D01*
X0001529752Y0001947312D02*
X0001529752Y0001847312D01*
X0001529752Y0002047311D02*
X0001529752Y0001947312D01*
X0001529752Y0002147312D02*
X0001529752Y0002047311D01*
X0001529752Y0002247312D02*
X0001529752Y0002147312D01*
X0001529752Y0002347312D02*
X0001529752Y0002247312D01*
X0001529752Y0002447312D02*
X0001529752Y0002347312D01*
X0001696012Y0002463297D02*
X0001545736Y0002463297D01*
X0001545736Y0002463297D02*
X0001529752Y0002447312D01*
D93*
X0001711996Y0002447312D02*
X0001696012Y0002463297D01*
X0001780146Y0002447312D02*
X0001711996Y0002447312D01*
D94*
X0001179358Y0002347312D02*
X0001179358Y0002447312D01*
X0001179358Y0002247312D02*
X0001179358Y0002347312D01*
X0001179358Y0002147312D02*
X0001179358Y0002247312D01*
X0001179358Y0002047311D02*
X0001179358Y0002147312D01*
X0001179358Y0001947312D02*
X0001179358Y0002047311D01*
X0001179358Y0001847312D02*
X0001179358Y0001947312D01*
X0001179358Y0001747311D02*
X0001179358Y0001847312D01*
X0001179358Y0001647312D02*
X0001179358Y0001747311D01*
X0001179358Y0001547311D02*
X0001179358Y0001647312D01*
X0001345618Y0002463297D02*
X0001195342Y0002463297D01*
X0001195342Y0002463297D02*
X0001179358Y0002447312D01*
D93*
X0001429752Y0002447312D02*
X0001361602Y0002447312D01*
X0001361602Y0002447312D02*
X0001345618Y0002463297D01*
D94*
X0000828965Y0001647312D02*
X0000828965Y0001547311D01*
X0000828965Y0001747311D02*
X0000828965Y0001647312D01*
X0000828965Y0001847312D02*
X0000828965Y0001747311D01*
X0000828965Y0001947312D02*
X0000828965Y0001847312D01*
X0000828965Y0002047311D02*
X0000828965Y0001947312D01*
X0000828965Y0002147312D02*
X0000828965Y0002047311D01*
X0000828965Y0002247312D02*
X0000828965Y0002147312D01*
X0000828965Y0002347312D02*
X0000828965Y0002247312D01*
X0000828965Y0002447312D02*
X0000828965Y0002347312D01*
X0000995224Y0002463297D02*
X0000844949Y0002463297D01*
X0000844949Y0002463297D02*
X0000828965Y0002447312D01*
D93*
X0001011209Y0002447312D02*
X0000995224Y0002463297D01*
X0001079358Y0002447312D02*
X0001011209Y0002447312D01*
D94*
X0000478571Y0002347312D02*
X0000478571Y0002447312D01*
X0000478571Y0002247312D02*
X0000478571Y0002347312D01*
X0000478571Y0002147312D02*
X0000478571Y0002247312D01*
X0000478571Y0002047311D02*
X0000478571Y0002147312D01*
X0000478571Y0001947312D02*
X0000478571Y0002047311D01*
X0000478571Y0001847312D02*
X0000478571Y0001947312D01*
X0000478571Y0001747311D02*
X0000478571Y0001847312D01*
X0000478571Y0001647312D02*
X0000478571Y0001747311D01*
X0000478571Y0001547311D02*
X0000478571Y0001647312D01*
X0000644831Y0002463297D02*
X0000494555Y0002463297D01*
X0000494555Y0002463297D02*
X0000478571Y0002447312D01*
D93*
X0000660815Y0002447312D02*
X0000644831Y0002463297D01*
X0000728965Y0002447312D02*
X0000660815Y0002447312D01*
G04 next file*
G04 #@! TF.GenerationSoftware,KiCad,Pcbnew,(2017-01-20 revision 550a1ea)-makepkg*
G04 #@! TF.CreationDate,2017-01-21T19:12:54+01:00*
G04 #@! TF.ProjectId,dekada,64656B6164612E6B696361645F706362,rev?*
G04 #@! TF.FileFunction,Copper,L1,Top,Signal*
G04 #@! TF.FilePolarity,Positive*
G04 Gerber Fmt 4.6, Leading zero omitted, Abs format (unit mm)*
G04 Created by KiCad (PCBNEW (2017-01-20 revision 550a1ea)-makepkg) date 01/21/17 19:12:54*
G01*
G04 APERTURE LIST*
G04 APERTURE END LIST*
D105*
D106*
X0001894075Y0003880014D02*
X0001897825Y0003878140D01*
X0001899700Y0003874390D01*
X0001899700Y0003840644D01*
X0001862204Y0003853768D02*
X0001862204Y0003880014D01*
X0001879077Y0003853768D02*
X0001879077Y0003874390D01*
X0001877202Y0003878140D01*
X0001873453Y0003880014D01*
X0001867829Y0003880014D01*
X0001864079Y0003878140D01*
X0001862204Y0003876264D01*
X0001849081Y0003853768D02*
X0001834081Y0003853768D01*
X0001843457Y0003880014D02*
X0001843457Y0003846269D01*
X0001841582Y0003842519D01*
X0001837832Y0003840644D01*
X0001834081Y0003840644D01*
X0001826584Y0003853768D02*
X0001811586Y0003853768D01*
X0001820958Y0003840644D02*
X0001820958Y0003874390D01*
X0001819084Y0003878140D01*
X0001815335Y0003880014D01*
X0001811586Y0003880014D01*
X0001783464Y0003878140D02*
X0001787214Y0003880014D01*
X0001794712Y0003880014D01*
X0001798462Y0003878140D01*
X0001800337Y0003874390D01*
X0001800337Y0003859392D01*
X0001798462Y0003855642D01*
X0001794712Y0003853768D01*
X0001787214Y0003853768D01*
X0001783464Y0003855642D01*
X0001781589Y0003859392D01*
X0001781589Y0003863142D01*
X0001800337Y0003866891D01*
X0001764716Y0003880014D02*
X0001764716Y0003840644D01*
X0001760967Y0003865016D02*
X0001749718Y0003880014D01*
X0001749718Y0003853768D02*
X0001764716Y0003868766D01*
X0001674728Y0003844394D02*
X0001672853Y0003842519D01*
X0001669103Y0003840644D01*
X0001659730Y0003840644D01*
X0001655980Y0003842519D01*
X0001654105Y0003844394D01*
X0001652230Y0003848143D01*
X0001652230Y0003851892D01*
X0001654105Y0003857517D01*
X0001676602Y0003880014D01*
X0001652230Y0003880014D01*
X0001627859Y0003840644D02*
X0001624109Y0003840644D01*
X0001620358Y0003842519D01*
X0001618485Y0003844394D01*
X0001616610Y0003848143D01*
X0001614735Y0003855643D01*
X0001614735Y0003865016D01*
X0001616610Y0003872515D01*
X0001618485Y0003876264D01*
X0001620358Y0003878140D01*
X0001624109Y0003880014D01*
X0001627859Y0003880014D01*
X0001631608Y0003878140D01*
X0001633481Y0003876264D01*
X0001635358Y0003872515D01*
X0001637232Y0003865016D01*
X0001637232Y0003855643D01*
X0001635358Y0003848143D01*
X0001633481Y0003844394D01*
X0001631608Y0003842519D01*
X0001627859Y0003840644D01*
X0001577240Y0003880014D02*
X0001599737Y0003880014D01*
X0001588488Y0003880014D02*
X0001588488Y0003840644D01*
X0001592238Y0003846269D01*
X0001595987Y0003850018D01*
X0001599737Y0003851892D01*
X0001564117Y0003840644D02*
X0001537870Y0003840644D01*
X0001554743Y0003880014D01*
X0001515373Y0003840644D02*
X0001511623Y0003840644D01*
X0001507874Y0003842519D01*
X0001505999Y0003844394D01*
X0001504124Y0003848143D01*
X0001502249Y0003855643D01*
X0001502249Y0003865016D01*
X0001504124Y0003872515D01*
X0001505999Y0003876264D01*
X0001507874Y0003878140D01*
X0001511623Y0003880014D01*
X0001515373Y0003880014D01*
X0001519122Y0003878140D01*
X0001520997Y0003876264D01*
X0001522872Y0003872515D01*
X0001524746Y0003865016D01*
X0001524746Y0003855643D01*
X0001522872Y0003848143D01*
X0001520997Y0003844394D01*
X0001519122Y0003842519D01*
X0001515373Y0003840644D01*
X0001464754Y0003880014D02*
X0001487251Y0003880014D01*
X0001476003Y0003880014D02*
X0001476003Y0003840644D01*
X0001479752Y0003846269D01*
X0001483502Y0003850018D01*
X0001487251Y0003851892D01*
X0001449756Y0003844394D02*
X0001447881Y0003842519D01*
X0001444132Y0003840644D01*
X0001434758Y0003840644D01*
X0001431008Y0003842519D01*
X0001429133Y0003844394D01*
X0001427259Y0003848143D01*
X0001427259Y0003851892D01*
X0001429133Y0003857517D01*
X0001451631Y0003880014D01*
X0001427259Y0003880014D01*
X0001389763Y0003880014D02*
X0001412260Y0003880014D01*
X0001401012Y0003880014D02*
X0001401012Y0003840644D01*
X0001404761Y0003846269D01*
X0001408510Y0003850018D01*
X0001412260Y0003851892D01*
D107*
X0001880146Y0003746525D03*
X0001780146Y0003746525D03*
X0001880146Y0003646525D03*
X0001780146Y0003646525D03*
X0001880146Y0003546525D03*
X0001780146Y0003546525D03*
X0001880146Y0003446525D03*
X0001780146Y0003446525D03*
X0001880146Y0003346525D03*
X0001780146Y0003346525D03*
X0001880146Y0003246525D03*
X0001780146Y0003246525D03*
X0001880146Y0003146525D03*
X0001780146Y0003146525D03*
X0001880146Y0003046525D03*
X0001780146Y0003046525D03*
X0001880146Y0002946524D03*
X0001780146Y0002946524D03*
X0001880146Y0002846525D03*
D108*
X0001780146Y0002846525D03*
D109*
X0000039370Y0003243269D03*
D110*
X0000039370Y0003343270D03*
X0000137191Y0003342876D03*
D109*
X0000137191Y0003242876D03*
D107*
X0001529752Y0003746525D03*
X0001429752Y0003746525D03*
X0001529752Y0003646525D03*
X0001429752Y0003646525D03*
X0001529752Y0003546525D03*
X0001429752Y0003546525D03*
X0001529752Y0003446525D03*
X0001429752Y0003446525D03*
X0001529752Y0003346525D03*
X0001429752Y0003346525D03*
X0001529752Y0003246525D03*
X0001429752Y0003246525D03*
X0001529752Y0003146525D03*
X0001429752Y0003146525D03*
X0001529752Y0003046525D03*
X0001429752Y0003046525D03*
X0001529752Y0002946524D03*
X0001429752Y0002946524D03*
X0001529752Y0002846525D03*
D108*
X0001429752Y0002846525D03*
D107*
X0001179358Y0003746525D03*
X0001079358Y0003746525D03*
X0001179358Y0003646525D03*
X0001079358Y0003646525D03*
X0001179358Y0003546525D03*
X0001079358Y0003546525D03*
X0001179358Y0003446525D03*
X0001079358Y0003446525D03*
X0001179358Y0003346525D03*
X0001079358Y0003346525D03*
X0001179358Y0003246525D03*
X0001079358Y0003246525D03*
X0001179358Y0003146525D03*
X0001079358Y0003146525D03*
X0001179358Y0003046525D03*
X0001079358Y0003046525D03*
X0001179358Y0002946524D03*
X0001079358Y0002946524D03*
X0001179358Y0002846525D03*
D108*
X0001079358Y0002846525D03*
D107*
X0000828965Y0003746525D03*
X0000728965Y0003746525D03*
X0000828965Y0003646525D03*
X0000728965Y0003646525D03*
X0000828965Y0003546525D03*
X0000728965Y0003546525D03*
X0000828965Y0003446525D03*
X0000728965Y0003446525D03*
X0000828965Y0003346525D03*
X0000728965Y0003346525D03*
X0000828965Y0003246525D03*
X0000728965Y0003246525D03*
X0000828965Y0003146525D03*
X0000728965Y0003146525D03*
X0000828965Y0003046525D03*
X0000728965Y0003046525D03*
X0000828965Y0002946524D03*
X0000728965Y0002946524D03*
X0000828965Y0002846525D03*
D108*
X0000728965Y0002846525D03*
D111*
X0001696012Y0003362509D03*
X0001696012Y0003228651D03*
X0001345618Y0003362509D03*
X0001345618Y0003228651D03*
X0000995224Y0003362509D03*
X0000995224Y0003228651D03*
X0000644831Y0003362509D03*
X0000644831Y0003228651D03*
X0001621760Y0003128651D03*
X0001621760Y0003262509D03*
X0001271366Y0003128651D03*
X0001271366Y0003262509D03*
X0000920972Y0003128651D03*
X0000920972Y0003262509D03*
X0000570579Y0003128651D03*
X0000570579Y0003262509D03*
X0001621760Y0003528651D03*
X0001621760Y0003662508D03*
X0001271366Y0003528651D03*
X0001271366Y0003662508D03*
X0000920972Y0003528651D03*
X0000920972Y0003662508D03*
X0000570579Y0003528651D03*
X0000570579Y0003662508D03*
X0001696012Y0003762509D03*
X0001696012Y0003628651D03*
X0001345618Y0003762509D03*
X0001345618Y0003628651D03*
X0000995224Y0003762509D03*
X0000995224Y0003628651D03*
X0000644831Y0003762509D03*
X0000644831Y0003628651D03*
X0001621760Y0003462509D03*
X0001621760Y0003328651D03*
X0001271366Y0003462509D03*
X0001271366Y0003328651D03*
X0000920972Y0003462509D03*
X0000920972Y0003328651D03*
X0000570579Y0003462509D03*
X0000570579Y0003328651D03*
X0001696012Y0003028650D03*
X0001696012Y0003162509D03*
X0001345618Y0003028650D03*
X0001345618Y0003162509D03*
X0000995224Y0003028650D03*
X0000995224Y0003162509D03*
X0000644831Y0003028650D03*
X0000644831Y0003162509D03*
X0001696012Y0003428650D03*
X0001696012Y0003562509D03*
X0001345618Y0003428650D03*
X0001345618Y0003562509D03*
X0000995224Y0003428650D03*
X0000995224Y0003562509D03*
X0000644831Y0003428650D03*
X0000644831Y0003562509D03*
X0001621760Y0003062509D03*
X0001621760Y0002928651D03*
X0001271366Y0003062509D03*
X0001271366Y0002928651D03*
X0000920972Y0003062509D03*
X0000920972Y0002928651D03*
X0000570579Y0003062509D03*
X0000570579Y0002928651D03*
X0001696012Y0002962509D03*
X0001696012Y0002828651D03*
X0001345618Y0002962509D03*
X0001345618Y0002828651D03*
X0000995224Y0002962509D03*
X0000995224Y0002828651D03*
X0000644831Y0002962509D03*
X0000644831Y0002828651D03*
D108*
X0000378571Y0002846525D03*
D107*
X0000478571Y0002846525D03*
X0000378571Y0002946524D03*
X0000478571Y0002946524D03*
X0000378571Y0003046525D03*
X0000478571Y0003046525D03*
X0000378571Y0003146525D03*
X0000478571Y0003146525D03*
X0000378571Y0003246525D03*
X0000478571Y0003246525D03*
X0000378571Y0003346525D03*
X0000478571Y0003346525D03*
X0000378571Y0003446525D03*
X0000478571Y0003446525D03*
X0000378571Y0003546525D03*
X0000478571Y0003546525D03*
X0000378571Y0003646525D03*
X0000478571Y0003646525D03*
X0000378571Y0003746525D03*
X0000478571Y0003746525D03*
D111*
X0000294437Y0003228651D03*
X0000294437Y0003362509D03*
X0000294437Y0003162509D03*
X0000294437Y0003028650D03*
X0000220185Y0003328651D03*
X0000220185Y0003462509D03*
X0000294437Y0003562509D03*
X0000294437Y0003428650D03*
X0000220185Y0003662508D03*
X0000220185Y0003528651D03*
X0000294437Y0003628651D03*
X0000294437Y0003762509D03*
X0000220185Y0002928651D03*
X0000220185Y0003062509D03*
X0000220185Y0003262509D03*
X0000220185Y0003128651D03*
X0000294437Y0002828651D03*
X0000294437Y0002962509D03*
D112*
X0001429752Y0002846525D02*
X0001363492Y0002846525D01*
X0001363492Y0002846525D02*
X0001345618Y0002828651D01*
X0001429752Y0002946524D02*
X0001361602Y0002946524D01*
X0001361602Y0002946524D02*
X0001345618Y0002962509D01*
X0001259555Y0002928651D02*
X0001299949Y0002928651D01*
X0001299949Y0002928651D02*
X0001333807Y0002962509D01*
X0001429752Y0003046525D02*
X0001363492Y0003046525D01*
X0001363492Y0003046525D02*
X0001345618Y0003028650D01*
X0001299949Y0003062509D02*
X0001333807Y0003028650D01*
X0001259555Y0003062509D02*
X0001299949Y0003062509D01*
X0001429752Y0003146525D02*
X0001361602Y0003146525D01*
X0001361602Y0003146525D02*
X0001345618Y0003162509D01*
X0001299949Y0003128651D02*
X0001333807Y0003162509D01*
X0001259555Y0003128651D02*
X0001299949Y0003128651D01*
X0001429752Y0003246525D02*
X0001363492Y0003246525D01*
X0001363492Y0003246525D02*
X0001345618Y0003228651D01*
X0001299949Y0003262509D02*
X0001333807Y0003228651D01*
X0001259555Y0003262509D02*
X0001299949Y0003262509D01*
X0001429752Y0003346525D02*
X0001361602Y0003346525D01*
X0001361602Y0003346525D02*
X0001345618Y0003362509D01*
X0001299949Y0003328651D02*
X0001333807Y0003362509D01*
X0001259555Y0003328651D02*
X0001299949Y0003328651D01*
X0001429752Y0003446525D02*
X0001363492Y0003446525D01*
X0001363492Y0003446525D02*
X0001345618Y0003428650D01*
X0001299949Y0003462509D02*
X0001333807Y0003428650D01*
X0001259555Y0003462509D02*
X0001299949Y0003462509D01*
X0001429752Y0003546525D02*
X0001361602Y0003546525D01*
X0001361602Y0003546525D02*
X0001345618Y0003562509D01*
X0001259555Y0003528651D02*
X0001299949Y0003528651D01*
X0001299949Y0003528651D02*
X0001333807Y0003562509D01*
X0001429752Y0003646525D02*
X0001363492Y0003646525D01*
X0001363492Y0003646525D02*
X0001345618Y0003628651D01*
X0001259555Y0003662508D02*
X0001299949Y0003662508D01*
X0001299949Y0003662508D02*
X0001333807Y0003628651D01*
X0001013098Y0002846525D02*
X0000995224Y0002828651D01*
X0001079358Y0002846525D02*
X0001013098Y0002846525D01*
X0000662705Y0002846525D02*
X0000644831Y0002828651D01*
X0000728965Y0002846525D02*
X0000662705Y0002846525D01*
X0001780146Y0002846525D02*
X0001713886Y0002846525D01*
X0001713886Y0002846525D02*
X0001696012Y0002828651D01*
X0001780146Y0002946524D02*
X0001711996Y0002946524D01*
X0001711996Y0002946524D02*
X0001696012Y0002962509D01*
X0001609949Y0002928651D02*
X0001650342Y0002928651D01*
X0001650342Y0002928651D02*
X0001684201Y0002962509D01*
X0001780146Y0003046525D02*
X0001713886Y0003046525D01*
X0001713886Y0003046525D02*
X0001696012Y0003028650D01*
X0001650342Y0003062509D02*
X0001684201Y0003028650D01*
X0001609949Y0003062509D02*
X0001650342Y0003062509D01*
X0001780146Y0003146525D02*
X0001711996Y0003146525D01*
X0001711996Y0003146525D02*
X0001696012Y0003162509D01*
X0001650342Y0003128651D02*
X0001684201Y0003162509D01*
X0001609949Y0003128651D02*
X0001650342Y0003128651D01*
X0001780146Y0003246525D02*
X0001713886Y0003246525D01*
X0001713886Y0003246525D02*
X0001696012Y0003228651D01*
X0001650342Y0003262509D02*
X0001684201Y0003228651D01*
X0001609949Y0003262509D02*
X0001650342Y0003262509D01*
X0001780146Y0003346525D02*
X0001711996Y0003346525D01*
X0001711996Y0003346525D02*
X0001696012Y0003362509D01*
X0001650342Y0003328651D02*
X0001684201Y0003362509D01*
X0001609949Y0003328651D02*
X0001650342Y0003328651D01*
X0001780146Y0003446525D02*
X0001713886Y0003446525D01*
X0001609949Y0003462509D02*
X0001650342Y0003462509D01*
X0001713886Y0003446525D02*
X0001696012Y0003428650D01*
X0001650342Y0003462509D02*
X0001684201Y0003428650D01*
X0001780146Y0003546525D02*
X0001711996Y0003546525D01*
X0001711996Y0003546525D02*
X0001696012Y0003562509D01*
X0001650342Y0003528651D02*
X0001684201Y0003562509D01*
X0001609949Y0003528651D02*
X0001650342Y0003528651D01*
X0001780146Y0003646525D02*
X0001713886Y0003646525D01*
X0001713886Y0003646525D02*
X0001696012Y0003628651D01*
X0001650342Y0003662508D02*
X0001684201Y0003628651D01*
X0001609949Y0003662508D02*
X0001650342Y0003662508D01*
X0001011209Y0002946524D02*
X0000995224Y0002962509D01*
X0000909161Y0002928651D02*
X0000949555Y0002928651D01*
X0000949555Y0002928651D02*
X0000983413Y0002962509D01*
X0001079358Y0002946524D02*
X0001011209Y0002946524D01*
X0001013098Y0003046525D02*
X0000995224Y0003028650D01*
X0000949555Y0003062509D02*
X0000983413Y0003028650D01*
X0000909161Y0003062509D02*
X0000949555Y0003062509D01*
X0001079358Y0003046525D02*
X0001013098Y0003046525D01*
X0001011209Y0003146525D02*
X0000995224Y0003162509D01*
X0000949555Y0003128651D02*
X0000983413Y0003162509D01*
X0000909161Y0003128651D02*
X0000949555Y0003128651D01*
X0001079358Y0003146525D02*
X0001011209Y0003146525D01*
X0001013098Y0003246525D02*
X0000995224Y0003228651D01*
X0000949555Y0003262509D02*
X0000983413Y0003228651D01*
X0000909161Y0003262509D02*
X0000949555Y0003262509D01*
X0001079358Y0003246525D02*
X0001013098Y0003246525D01*
X0001011209Y0003346525D02*
X0000995224Y0003362509D01*
X0000949555Y0003328651D02*
X0000983413Y0003362509D01*
X0000909161Y0003328651D02*
X0000949555Y0003328651D01*
X0001079358Y0003346525D02*
X0001011209Y0003346525D01*
X0001013098Y0003446525D02*
X0000995224Y0003428650D01*
X0000949555Y0003462509D02*
X0000983413Y0003428650D01*
X0000909161Y0003462509D02*
X0000949555Y0003462509D01*
X0001079358Y0003446525D02*
X0001013098Y0003446525D01*
X0001011209Y0003546525D02*
X0000995224Y0003562509D01*
X0000909161Y0003528651D02*
X0000949555Y0003528651D01*
X0000949555Y0003528651D02*
X0000983413Y0003562509D01*
X0001079358Y0003546525D02*
X0001011209Y0003546525D01*
X0001013098Y0003646525D02*
X0000995224Y0003628651D01*
X0000909161Y0003662508D02*
X0000949555Y0003662508D01*
X0000949555Y0003662508D02*
X0000983413Y0003628651D01*
X0001079358Y0003646525D02*
X0001013098Y0003646525D01*
X0000660815Y0002946524D02*
X0000644831Y0002962509D01*
X0000558768Y0002928651D02*
X0000599161Y0002928651D01*
X0000599161Y0002928651D02*
X0000633020Y0002962509D01*
X0000728965Y0002946524D02*
X0000660815Y0002946524D01*
X0000662705Y0003046525D02*
X0000644831Y0003028650D01*
X0000599161Y0003062509D02*
X0000633020Y0003028650D01*
X0000558768Y0003062509D02*
X0000599161Y0003062509D01*
X0000728965Y0003046525D02*
X0000662705Y0003046525D01*
X0000660815Y0003146525D02*
X0000644831Y0003162509D01*
X0000599161Y0003128651D02*
X0000633020Y0003162509D01*
X0000558768Y0003128651D02*
X0000599161Y0003128651D01*
X0000728965Y0003146525D02*
X0000660815Y0003146525D01*
X0000662705Y0003246525D02*
X0000644831Y0003228651D01*
X0000599161Y0003262509D02*
X0000633020Y0003228651D01*
X0000558768Y0003262509D02*
X0000599161Y0003262509D01*
X0000728965Y0003246525D02*
X0000662705Y0003246525D01*
X0000660815Y0003346525D02*
X0000644831Y0003362509D01*
X0000599161Y0003328651D02*
X0000633020Y0003362509D01*
X0000558768Y0003328651D02*
X0000599161Y0003328651D01*
X0000728965Y0003346525D02*
X0000660815Y0003346525D01*
X0000662705Y0003446525D02*
X0000644831Y0003428650D01*
X0000599161Y0003462509D02*
X0000633020Y0003428650D01*
X0000558768Y0003462509D02*
X0000599161Y0003462509D01*
X0000728965Y0003446525D02*
X0000662705Y0003446525D01*
X0000660815Y0003546525D02*
X0000644831Y0003562509D01*
X0000558768Y0003528651D02*
X0000599161Y0003528651D01*
X0000599161Y0003528651D02*
X0000633020Y0003562509D01*
X0000728965Y0003546525D02*
X0000660815Y0003546525D01*
X0000662705Y0003646525D02*
X0000644831Y0003628651D01*
X0000558768Y0003662508D02*
X0000599161Y0003662508D01*
X0000599161Y0003662508D02*
X0000633020Y0003628651D01*
X0000728965Y0003646525D02*
X0000662705Y0003646525D01*
X0000312311Y0002846525D02*
X0000294437Y0002828651D01*
X0000378571Y0002846525D02*
X0000312311Y0002846525D01*
X0000310421Y0002946524D02*
X0000294437Y0002962509D01*
X0000208374Y0002928651D02*
X0000248768Y0002928651D01*
X0000248768Y0002928651D02*
X0000282626Y0002962509D01*
X0000378571Y0002946524D02*
X0000310421Y0002946524D01*
X0000312311Y0003046525D02*
X0000294437Y0003028650D01*
X0000208374Y0003062509D02*
X0000248768Y0003062509D01*
X0000248768Y0003062509D02*
X0000282626Y0003028650D01*
X0000378571Y0003046525D02*
X0000312311Y0003046525D01*
X0000310421Y0003146525D02*
X0000294437Y0003162509D01*
X0000208374Y0003128651D02*
X0000248768Y0003128651D01*
X0000248768Y0003128651D02*
X0000282626Y0003162509D01*
X0000378571Y0003146525D02*
X0000310421Y0003146525D01*
X0000312311Y0003246525D02*
X0000294437Y0003228651D01*
X0000208374Y0003262509D02*
X0000248768Y0003262509D01*
X0000248768Y0003262509D02*
X0000282626Y0003228651D01*
X0000378571Y0003246525D02*
X0000312311Y0003246525D01*
X0000310421Y0003346525D02*
X0000294437Y0003362509D01*
X0000208374Y0003328651D02*
X0000248768Y0003328651D01*
X0000248768Y0003328651D02*
X0000282626Y0003362509D01*
X0000378571Y0003346525D02*
X0000310421Y0003346525D01*
X0000312311Y0003446525D02*
X0000294437Y0003428650D01*
X0000208374Y0003462509D02*
X0000248768Y0003462509D01*
X0000248768Y0003462509D02*
X0000282626Y0003428650D01*
X0000378571Y0003446525D02*
X0000312311Y0003446525D01*
X0000310421Y0003546525D02*
X0000294437Y0003562509D01*
X0000208374Y0003528651D02*
X0000248768Y0003528651D01*
X0000248768Y0003528651D02*
X0000282626Y0003562509D01*
X0000378571Y0003546525D02*
X0000310421Y0003546525D01*
X0000312311Y0003646525D02*
X0000294437Y0003628651D01*
X0000208374Y0003662508D02*
X0000248768Y0003662508D01*
X0000248768Y0003662508D02*
X0000282626Y0003628651D01*
X0000378571Y0003646525D02*
X0000312311Y0003646525D01*
D113*
X0000201151Y0003762509D02*
X0000294437Y0003762509D01*
D112*
X0000310421Y0003746525D02*
X0000294437Y0003762509D01*
D113*
X0000137191Y0003698549D02*
X0000201151Y0003762509D01*
D112*
X0000378571Y0003746525D02*
X0000310421Y0003746525D01*
D113*
X0000137191Y0003342876D02*
X0000137191Y0003698549D01*
X0000137191Y0003342876D02*
X0000039763Y0003342876D01*
X0001880146Y0003646525D02*
X0001880146Y0003546525D01*
X0001880146Y0002946524D02*
X0001880146Y0002846525D01*
X0001880146Y0003046525D02*
X0001880146Y0002946524D01*
X0001880146Y0003146525D02*
X0001880146Y0003046525D01*
X0001880146Y0003246525D02*
X0001880146Y0003146525D01*
X0001880146Y0003346525D02*
X0001880146Y0003246525D01*
X0001880146Y0003446525D02*
X0001880146Y0003346525D01*
X0001880146Y0003546525D02*
X0001880146Y0003446525D01*
X0001880146Y0003746525D02*
X0001880146Y0003646525D01*
X0001880146Y0002846525D02*
X0001880146Y0003563294D01*
X0000137191Y0003242876D02*
X0000137191Y0002869472D01*
X0000137191Y0002869472D02*
X0000260127Y0002746535D01*
X0000260127Y0002746535D02*
X0001835834Y0002746535D01*
X0001835834Y0002746535D02*
X0001880146Y0002790847D01*
X0001880146Y0002790847D02*
X0001880146Y0002846525D01*
X0000137191Y0003242876D02*
X0000039763Y0003242876D01*
X0001529752Y0002946524D02*
X0001529752Y0002846525D01*
X0001529752Y0003046525D02*
X0001529752Y0002946524D01*
X0001529752Y0003146525D02*
X0001529752Y0003046525D01*
X0001529752Y0003246525D02*
X0001529752Y0003146525D01*
X0001529752Y0003346525D02*
X0001529752Y0003246525D01*
X0001529752Y0003446525D02*
X0001529752Y0003346525D01*
X0001529752Y0003546525D02*
X0001529752Y0003446525D01*
X0001529752Y0003646525D02*
X0001529752Y0003546525D01*
X0001529752Y0003746525D02*
X0001529752Y0003646525D01*
X0001696012Y0003762509D02*
X0001545736Y0003762509D01*
X0001545736Y0003762509D02*
X0001529752Y0003746525D01*
D112*
X0001711996Y0003746525D02*
X0001696012Y0003762509D01*
X0001780146Y0003746525D02*
X0001711996Y0003746525D01*
D113*
X0001179358Y0003646525D02*
X0001179358Y0003746525D01*
X0001179358Y0003546525D02*
X0001179358Y0003646525D01*
X0001179358Y0003446525D02*
X0001179358Y0003546525D01*
X0001179358Y0003346525D02*
X0001179358Y0003446525D01*
X0001179358Y0003246525D02*
X0001179358Y0003346525D01*
X0001179358Y0003146525D02*
X0001179358Y0003246525D01*
X0001179358Y0003046525D02*
X0001179358Y0003146525D01*
X0001179358Y0002946524D02*
X0001179358Y0003046525D01*
X0001179358Y0002846525D02*
X0001179358Y0002946524D01*
X0001345618Y0003762509D02*
X0001195342Y0003762509D01*
X0001195342Y0003762509D02*
X0001179358Y0003746525D01*
D112*
X0001429752Y0003746525D02*
X0001361602Y0003746525D01*
X0001361602Y0003746525D02*
X0001345618Y0003762509D01*
D113*
X0000828965Y0002946524D02*
X0000828965Y0002846525D01*
X0000828965Y0003046525D02*
X0000828965Y0002946524D01*
X0000828965Y0003146525D02*
X0000828965Y0003046525D01*
X0000828965Y0003246525D02*
X0000828965Y0003146525D01*
X0000828965Y0003346525D02*
X0000828965Y0003246525D01*
X0000828965Y0003446525D02*
X0000828965Y0003346525D01*
X0000828965Y0003546525D02*
X0000828965Y0003446525D01*
X0000828965Y0003646525D02*
X0000828965Y0003546525D01*
X0000828965Y0003746525D02*
X0000828965Y0003646525D01*
X0000995224Y0003762509D02*
X0000844949Y0003762509D01*
X0000844949Y0003762509D02*
X0000828965Y0003746525D01*
D112*
X0001011209Y0003746525D02*
X0000995224Y0003762509D01*
X0001079358Y0003746525D02*
X0001011209Y0003746525D01*
D113*
X0000478571Y0003646525D02*
X0000478571Y0003746525D01*
X0000478571Y0003546525D02*
X0000478571Y0003646525D01*
X0000478571Y0003446525D02*
X0000478571Y0003546525D01*
X0000478571Y0003346525D02*
X0000478571Y0003446525D01*
X0000478571Y0003246525D02*
X0000478571Y0003346525D01*
X0000478571Y0003146525D02*
X0000478571Y0003246525D01*
X0000478571Y0003046525D02*
X0000478571Y0003146525D01*
X0000478571Y0002946524D02*
X0000478571Y0003046525D01*
X0000478571Y0002846525D02*
X0000478571Y0002946524D01*
X0000644831Y0003762509D02*
X0000494555Y0003762509D01*
X0000494555Y0003762509D02*
X0000478571Y0003746525D01*
D112*
X0000660815Y0003746525D02*
X0000644831Y0003762509D01*
X0000728965Y0003746525D02*
X0000660815Y0003746525D01*
M02*