%
M48
METRIC,000.000
T01C0.50
%
T01
X077574Y066444
X076574Y066444
X075574Y066444
X074574Y066444
X073574Y066444
X072574Y066444
X072434Y068544
X073434Y068544
X074434Y068544
X075434Y068544
X076434Y068544
X077434Y068544
X078574Y033444
X077574Y033444
X076574Y033444
X075574Y033444
X074574Y033444
X073574Y033444
X072574Y033444
X072434Y035544
X073434Y035544
X074434Y035544
X075434Y035544
X076434Y035544
X077434Y035544
X078434Y035544
X027087Y033455
X026087Y033455
X025087Y033455
X024087Y033455
X023087Y033455
X022087Y033455
X021087Y033455
X021039Y035555
X022039Y035555
X023039Y035555
X024039Y035555
X025039Y035555
X026039Y035555
X027039Y035555
X027087Y066455
X026087Y066455
X025087Y066455
X024087Y066455
X023087Y066455
X022087Y066455
X021087Y066455
X021039Y068555
X022039Y068555
X023039Y068555
X024039Y068555
X025039Y068555
X026039Y068555
X027039Y068555
X049152Y081412
X049152Y082412
X049152Y083412
X049152Y084412
X049152Y085412
X049152Y086412
X050847Y087064
X050847Y086064
X050847Y085064
X050847Y084064
X050847Y083064
X050847Y082064
X050847Y081064
X049152Y015412
X049152Y016412
X049152Y017412
X049152Y018412
X049152Y019412
X049152Y020412
X050847Y021064
X050847Y020064
X050847Y019064
X050847Y018064
X050847Y017064
X050847Y016064
X050847Y015064
M30