%
M48
METRIC,000.000
T01C0.76
T02C0.79
T03C0.89
%
T01
X047754Y006300
X047754Y029160
X045214Y006300
X045214Y029160
X038856Y006300
X038856Y029160
X036316Y006300
X036316Y029160
X029956Y006300
X029956Y029160
X027416Y006300
X027416Y029160
X021056Y006300
X021056Y029160
X018516Y006300
X018516Y029160
X012156Y006300
X012156Y029160
X009616Y006300
X009616Y029160
X052245Y029699
X052245Y006839
X054785Y029699
X054785Y006839
X061143Y029699
X061143Y006839
X063683Y029699
X063683Y006839
X070043Y029699
X070043Y006839
X072583Y029699
X072583Y006839
X078943Y029699
X078943Y006839
X081483Y029699
X081483Y006839
X087843Y029699
X087843Y006839
X090383Y029699
X090383Y006839
X047754Y039300
X047754Y062160
X045214Y039300
X045214Y062160
X038856Y039300
X038856Y062160
X036316Y039300
X036316Y062160
X029956Y039300
X029956Y062160
X027416Y039300
X027416Y062160
X021056Y039300
X021056Y062160
X018516Y039300
X018516Y062160
X012156Y039300
X012156Y062160
X009616Y039300
X009616Y062160
X047754Y072300
X047754Y095160
X045214Y072300
X045214Y095160
X038856Y072300
X038856Y095160
X036316Y072300
X036316Y095160
X029956Y072300
X029956Y095160
X027416Y072300
X027416Y095160
X021056Y072300
X021056Y095160
X018516Y072300
X018516Y095160
X012156Y072300
X012156Y095160
X009616Y072300
X009616Y095160
X052245Y062699
X052245Y039839
X054785Y062699
X054785Y039839
X061143Y062699
X061143Y039839
X063683Y062699
X063683Y039839
X070043Y062699
X070043Y039839
X072583Y062699
X072583Y039839
X078943Y062699
X078943Y039839
X081483Y062699
X081483Y039839
X087843Y062699
X087843Y039839
X090383Y062699
X090383Y039839
X052245Y095699
X052245Y072839
X054785Y095699
X054785Y072839
X061143Y095699
X061143Y072839
X063683Y095699
X063683Y072839
X070043Y095699
X070043Y072839
X072583Y095699
X072583Y072839
X078943Y095699
X078943Y072839
X081483Y095699
X081483Y072839
X087843Y095699
X087843Y072839
X090383Y095699
X090383Y072839
T02
X003484Y016369
X003484Y018909
X001000Y016379
X001000Y018919
X096515Y019630
X096515Y017090
X098999Y019620
X098999Y017080
X003484Y049369
X003484Y051909
X001000Y049379
X001000Y051919
X003484Y082369
X003484Y084909
X001000Y082379
X001000Y084919
X096515Y052630
X096515Y050090
X098999Y052620
X098999Y050080
X096515Y085630
X096515Y083090
X098999Y085620
X098999Y083080
T03
X047754Y008840
X047754Y011380
X047754Y013920
X047754Y016460
X047754Y019000
X047754Y021540
X047754Y024080
X047754Y026620
X045214Y008840
X045214Y011380
X045214Y013920
X045214Y016460
X045214Y019000
X045214Y021540
X045214Y024080
X045214Y026620
X038856Y008840
X038856Y011380
X038856Y013920
X038856Y016460
X038856Y019000
X038856Y021540
X038856Y024080
X038856Y026620
X036316Y008840
X036316Y011380
X036316Y013920
X036316Y016460
X036316Y019000
X036316Y021540
X036316Y024080
X036316Y026620
X029956Y008840
X029956Y011380
X029956Y013920
X029956Y016460
X029956Y019000
X029956Y021540
X029956Y024080
X029956Y026620
X027416Y008840
X027416Y011380
X027416Y013920
X027416Y016460
X027416Y019000
X027416Y021540
X027416Y024080
X027416Y026620
X021056Y008840
X021056Y011380
X021056Y013920
X021056Y016460
X021056Y019000
X021056Y021540
X021056Y024080
X021056Y026620
X018516Y008840
X018516Y011380
X018516Y013920
X018516Y016460
X018516Y019000
X018516Y021540
X018516Y024080
X018516Y026620
X012156Y008840
X012156Y011380
X012156Y013920
X012156Y016460
X012156Y019000
X012156Y021540
X012156Y024080
X012156Y026620
X009616Y008840
X009616Y011380
X009616Y013920
X009616Y016460
X009616Y019000
X009616Y021540
X009616Y024080
X009616Y026620
X052245Y027159
X052245Y024619
X052245Y022079
X052245Y019539
X052245Y016999
X052245Y014459
X052245Y011919
X052245Y009379
X054785Y027159
X054785Y024619
X054785Y022079
X054785Y019539
X054785Y016999
X054785Y014459
X054785Y011919
X054785Y009379
X061143Y027159
X061143Y024619
X061143Y022079
X061143Y019539
X061143Y016999
X061143Y014459
X061143Y011919
X061143Y009379
X063683Y027159
X063683Y024619
X063683Y022079
X063683Y019539
X063683Y016999
X063683Y014459
X063683Y011919
X063683Y009379
X070043Y027159
X070043Y024619
X070043Y022079
X070043Y019539
X070043Y016999
X070043Y014459
X070043Y011919
X070043Y009379
X072583Y027159
X072583Y024619
X072583Y022079
X072583Y019539
X072583Y016999
X072583Y014459
X072583Y011919
X072583Y009379
X078943Y027159
X078943Y024619
X078943Y022079
X078943Y019539
X078943Y016999
X078943Y014459
X078943Y011919
X078943Y009379
X081483Y027159
X081483Y024619
X081483Y022079
X081483Y019539
X081483Y016999
X081483Y014459
X081483Y011919
X081483Y009379
X087843Y027159
X087843Y024619
X087843Y022079
X087843Y019539
X087843Y016999
X087843Y014459
X087843Y011919
X087843Y009379
X090383Y027159
X090383Y024619
X090383Y022079
X090383Y019539
X090383Y016999
X090383Y014459
X090383Y011919
X090383Y009379
X047754Y041840
X047754Y044380
X047754Y046920
X047754Y049460
X047754Y052000
X047754Y054540
X047754Y057080
X047754Y059620
X045214Y041840
X045214Y044380
X045214Y046920
X045214Y049460
X045214Y052000
X045214Y054540
X045214Y057080
X045214Y059620
X038856Y041840
X038856Y044380
X038856Y046920
X038856Y049460
X038856Y052000
X038856Y054540
X038856Y057080
X038856Y059620
X036316Y041840
X036316Y044380
X036316Y046920
X036316Y049460
X036316Y052000
X036316Y054540
X036316Y057080
X036316Y059620
X029956Y041840
X029956Y044380
X029956Y046920
X029956Y049460
X029956Y052000
X029956Y054540
X029956Y057080
X029956Y059620
X027416Y041840
X027416Y044380
X027416Y046920
X027416Y049460
X027416Y052000
X027416Y054540
X027416Y057080
X027416Y059620
X021056Y041840
X021056Y044380
X021056Y046920
X021056Y049460
X021056Y052000
X021056Y054540
X021056Y057080
X021056Y059620
X018516Y041840
X018516Y044380
X018516Y046920
X018516Y049460
X018516Y052000
X018516Y054540
X018516Y057080
X018516Y059620
X012156Y041840
X012156Y044380
X012156Y046920
X012156Y049460
X012156Y052000
X012156Y054540
X012156Y057080
X012156Y059620
X009616Y041840
X009616Y044380
X009616Y046920
X009616Y049460
X009616Y052000
X009616Y054540
X009616Y057080
X009616Y059620
X047754Y074840
X047754Y077380
X047754Y079920
X047754Y082460
X047754Y085000
X047754Y087540
X047754Y090080
X047754Y092620
X045214Y074840
X045214Y077380
X045214Y079920
X045214Y082460
X045214Y085000
X045214Y087540
X045214Y090080
X045214Y092620
X038856Y074840
X038856Y077380
X038856Y079920
X038856Y082460
X038856Y085000
X038856Y087540
X038856Y090080
X038856Y092620
X036316Y074840
X036316Y077380
X036316Y079920
X036316Y082460
X036316Y085000
X036316Y087540
X036316Y090080
X036316Y092620
X029956Y074840
X029956Y077380
X029956Y079920
X029956Y082460
X029956Y085000
X029956Y087540
X029956Y090080
X029956Y092620
X027416Y074840
X027416Y077380
X027416Y079920
X027416Y082460
X027416Y085000
X027416Y087540
X027416Y090080
X027416Y092620
X021056Y074840
X021056Y077380
X021056Y079920
X021056Y082460
X021056Y085000
X021056Y087540
X021056Y090080
X021056Y092620
X018516Y074840
X018516Y077380
X018516Y079920
X018516Y082460
X018516Y085000
X018516Y087540
X018516Y090080
X018516Y092620
X012156Y074840
X012156Y077380
X012156Y079920
X012156Y082460
X012156Y085000
X012156Y087540
X012156Y090080
X012156Y092620
X009616Y074840
X009616Y077380
X009616Y079920
X009616Y082460
X009616Y085000
X009616Y087540
X009616Y090080
X009616Y092620
X052245Y060159
X052245Y057619
X052245Y055079
X052245Y052539
X052245Y049999
X052245Y047459
X052245Y044919
X052245Y042379
X054785Y060159
X054785Y057619
X054785Y055079
X054785Y052539
X054785Y049999
X054785Y047459
X054785Y044919
X054785Y042379
X061143Y060159
X061143Y057619
X061143Y055079
X061143Y052539
X061143Y049999
X061143Y047459
X061143Y044919
X061143Y042379
X063683Y060159
X063683Y057619
X063683Y055079
X063683Y052539
X063683Y049999
X063683Y047459
X063683Y044919
X063683Y042379
X070043Y060159
X070043Y057619
X070043Y055079
X070043Y052539
X070043Y049999
X070043Y047459
X070043Y044919
X070043Y042379
X072583Y060159
X072583Y057619
X072583Y055079
X072583Y052539
X072583Y049999
X072583Y047459
X072583Y044919
X072583Y042379
X078943Y060159
X078943Y057619
X078943Y055079
X078943Y052539
X078943Y049999
X078943Y047459
X078943Y044919
X078943Y042379
X081483Y060159
X081483Y057619
X081483Y055079
X081483Y052539
X081483Y049999
X081483Y047459
X081483Y044919
X081483Y042379
X087843Y060159
X087843Y057619
X087843Y055079
X087843Y052539
X087843Y049999
X087843Y047459
X087843Y044919
X087843Y042379
X090383Y060159
X090383Y057619
X090383Y055079
X090383Y052539
X090383Y049999
X090383Y047459
X090383Y044919
X090383Y042379
X052245Y093159
X052245Y090619
X052245Y088079
X052245Y085539
X052245Y082999
X052245Y080459
X052245Y077919
X052245Y075379
X054785Y093159
X054785Y090619
X054785Y088079
X054785Y085539
X054785Y082999
X054785Y080459
X054785Y077919
X054785Y075379
X061143Y093159
X061143Y090619
X061143Y088079
X061143Y085539
X061143Y082999
X061143Y080459
X061143Y077919
X061143Y075379
X063683Y093159
X063683Y090619
X063683Y088079
X063683Y085539
X063683Y082999
X063683Y080459
X063683Y077919
X063683Y075379
X070043Y093159
X070043Y090619
X070043Y088079
X070043Y085539
X070043Y082999
X070043Y080459
X070043Y077919
X070043Y075379
X072583Y093159
X072583Y090619
X072583Y088079
X072583Y085539
X072583Y082999
X072583Y080459
X072583Y077919
X072583Y075379
X078943Y093159
X078943Y090619
X078943Y088079
X078943Y085539
X078943Y082999
X078943Y080459
X078943Y077919
X078943Y075379
X081483Y093159
X081483Y090619
X081483Y088079
X081483Y085539
X081483Y082999
X081483Y080459
X081483Y077919
X081483Y075379
X087843Y093159
X087843Y090619
X087843Y088079
X087843Y085539
X087843Y082999
X087843Y080459
X087843Y077919
X087843Y075379
X090383Y093159
X090383Y090619
X090383Y088079
X090383Y085539
X090383Y082999
X090383Y080459
X090383Y077919
X090383Y075379
M30