M48
;DRILL file {KiCad (2017-01-20 revision 550a1ea)-makepkg} date 01/21/17 19:13:02
;FORMAT={2:4/ absolute / inch / keep zeros}
FMAT,2
INCH,TZ
T1C0.030
T2C0.031
T3C0.035
%
G90
G05
M72
T1
X-018801Y003425
X-018801Y-005575
X-017801Y003425
X-017801Y-005575
X-015298Y003425
X-015298Y-005575
X-014298Y003425
X-014298Y-005575
X-011794Y003425
X-011794Y-005575
X-010794Y003425
X-010794Y-005575
X-008290Y003425
X-008290Y-005575
X-007290Y003425
X-007290Y-005575
X-004786Y003425
X-004786Y-005575
X-003786Y003425
X-003786Y-005575
T2
X-001372Y-000539
X-001372Y-001539
X-000394Y-000543
X-000394Y-001543
T3
X-018801Y002425
X-018801Y001425
X-018801Y000425
X-018801Y-000575
X-018801Y-001575
X-018801Y-002575
X-018801Y-003575
X-018801Y-004575
X-017801Y002425
X-017801Y001425
X-017801Y000425
X-017801Y-000575
X-017801Y-001575
X-017801Y-002575
X-017801Y-003575
X-017801Y-004575
X-015298Y002425
X-015298Y001425
X-015298Y000425
X-015298Y-000575
X-015298Y-001575
X-015298Y-002575
X-015298Y-003575
X-015298Y-004575
X-014298Y002425
X-014298Y001425
X-014298Y000425
X-014298Y-000575
X-014298Y-001575
X-014298Y-002575
X-014298Y-003575
X-014298Y-004575
X-011794Y002425
X-011794Y001425
X-011794Y000425
X-011794Y-000575
X-011794Y-001575
X-011794Y-002575
X-011794Y-003575
X-011794Y-004575
X-010794Y002425
X-010794Y001425
X-010794Y000425
X-010794Y-000575
X-010794Y-001575
X-010794Y-002575
X-010794Y-003575
X-010794Y-004575
X-008290Y002425
X-008290Y001425
X-008290Y000425
X-008290Y-000575
X-008290Y-001575
X-008290Y-002575
X-008290Y-003575
X-008290Y-004575
X-007290Y002425
X-007290Y001425
X-007290Y000425
X-007290Y-000575
X-007290Y-001575
X-007290Y-002575
X-007290Y-003575
X-007290Y-004575
X-004786Y002425
X-004786Y001425
X-004786Y000425
X-004786Y-000575
X-004786Y-001575
X-004786Y-002575
X-004786Y-003575
X-004786Y-004575
X-003786Y002425
X-003786Y001425
X-003786Y000425
X-003786Y-000575
X-003786Y-001575
X-003786Y-002575
X-003786Y-003575
X-003786Y-004575
T0
M30
