G04 #@! TF.GenerationSoftware,KiCad,Pcbnew,(2017-01-20 revision 550a1ea)-makepkg*
G04 #@! TF.CreationDate,2017-01-21T19:12:54+01:00*
G04 #@! TF.ProjectId,dekada,64656B6164612E6B696361645F706362,rev?*
G04 #@! TF.FileFunction,Copper,L2,Bot,Signal*
G04 #@! TF.FilePolarity,Positive*
%FSLAX46Y46*%
G04 Gerber Fmt 4.6, Leading zero omitted, Abs format (unit mm)*
G04 Created by KiCad (PCBNEW (2017-01-20 revision 550a1ea)-makepkg) date 01/21/17 19:12:54*
%MOMM*%
%LPD*%
G01*
G04 APERTURE LIST*
%ADD10C,0.050000*%
%ADD11O,2.000000X2.000000*%
%ADD12R,2.000000X2.000000*%
%ADD13O,2.032000X2.032000*%
%ADD14R,2.032000X2.032000*%
%ADD15C,1.500000*%
%ADD16C,0.254000*%
G04 APERTURE END LIST*
D10*
D11*
X-47755712Y-14161748D03*
X-45215712Y-14161748D03*
X-47755712Y-11621748D03*
X-45215712Y-11621748D03*
X-47755712Y-9081748D03*
X-45215712Y-9081748D03*
X-47755712Y-6541748D03*
X-45215712Y-6541748D03*
X-47755712Y-4001748D03*
X-45215712Y-4001748D03*
X-47755712Y-1461748D03*
X-45215712Y-1461748D03*
X-47755712Y1078252D03*
X-45215712Y1078252D03*
X-47755712Y3618252D03*
X-45215712Y3618252D03*
X-47755712Y6158252D03*
X-45215712Y6158252D03*
X-47755712Y8698252D03*
D12*
X-45215712Y8698252D03*
D13*
X-1000000Y-1379073D03*
D14*
X-1000000Y-3919073D03*
X-3484656Y-3909071D03*
D13*
X-3484656Y-1369071D03*
D11*
X-38855712Y-14161748D03*
X-36315712Y-14161748D03*
X-38855712Y-11621748D03*
X-36315712Y-11621748D03*
X-38855712Y-9081748D03*
X-36315712Y-9081748D03*
X-38855712Y-6541748D03*
X-36315712Y-6541748D03*
X-38855712Y-4001748D03*
X-36315712Y-4001748D03*
X-38855712Y-1461748D03*
X-36315712Y-1461748D03*
X-38855712Y1078252D03*
X-36315712Y1078252D03*
X-38855712Y3618252D03*
X-36315712Y3618252D03*
X-38855712Y6158252D03*
X-36315712Y6158252D03*
X-38855712Y8698252D03*
D12*
X-36315712Y8698252D03*
D11*
X-29955712Y-14161748D03*
X-27415712Y-14161748D03*
X-29955712Y-11621748D03*
X-27415712Y-11621748D03*
X-29955712Y-9081748D03*
X-27415712Y-9081748D03*
X-29955712Y-6541748D03*
X-27415712Y-6541748D03*
X-29955712Y-4001748D03*
X-27415712Y-4001748D03*
X-29955712Y-1461748D03*
X-27415712Y-1461748D03*
X-29955712Y1078252D03*
X-27415712Y1078252D03*
X-29955712Y3618252D03*
X-27415712Y3618252D03*
X-29955712Y6158252D03*
X-27415712Y6158252D03*
X-29955712Y8698252D03*
D12*
X-27415712Y8698252D03*
D11*
X-21055712Y-14161748D03*
X-18515712Y-14161748D03*
X-21055712Y-11621748D03*
X-18515712Y-11621748D03*
X-21055712Y-9081748D03*
X-18515712Y-9081748D03*
X-21055712Y-6541748D03*
X-18515712Y-6541748D03*
X-21055712Y-4001748D03*
X-18515712Y-4001748D03*
X-21055712Y-1461748D03*
X-18515712Y-1461748D03*
X-21055712Y1078252D03*
X-18515712Y1078252D03*
X-21055712Y3618252D03*
X-18515712Y3618252D03*
X-21055712Y6158252D03*
X-18515712Y6158252D03*
X-21055712Y8698252D03*
D12*
X-18515712Y8698252D03*
X-9615712Y8698252D03*
D11*
X-12155712Y8698252D03*
X-9615712Y6158252D03*
X-12155712Y6158252D03*
X-9615712Y3618252D03*
X-12155712Y3618252D03*
X-9615712Y1078252D03*
X-12155712Y1078252D03*
X-9615712Y-1461748D03*
X-12155712Y-1461748D03*
X-9615712Y-4001748D03*
X-12155712Y-4001748D03*
X-9615712Y-6541748D03*
X-12155712Y-6541748D03*
X-9615712Y-9081748D03*
X-12155712Y-9081748D03*
X-9615712Y-11621748D03*
X-12155712Y-11621748D03*
X-9615712Y-14161748D03*
X-12155712Y-14161748D03*
D15*
X-1000000Y-3919073D02*
X-3474654Y-3919073D01*
X-1000000Y-1379073D02*
X-3474654Y-1379073D01*
X-47755712Y8698252D02*
X-47755712Y-14161748D01*
X-38855712Y8698252D02*
X-38855712Y-14161748D01*
X-29955712Y8698252D02*
X-29955712Y-14161748D01*
X-21055712Y8698252D02*
X-21055712Y-14161748D01*
X-12155712Y8698252D02*
X-12155712Y-14161748D01*
D16*
G36*
X-5325366Y-17516797D02*
X-5761795Y-17603608D01*
X-13375502Y-17603608D01*
X-13375502Y-15076691D01*
X-13265380Y-15241500D01*
X-12769986Y-15572512D01*
X-12185628Y-15688748D01*
X-12125796Y-15688748D01*
X-11541438Y-15572512D01*
X-11046044Y-15241500D01*
X-10885712Y-15001546D01*
X-10725380Y-15241500D01*
X-10229986Y-15572512D01*
X-9645628Y-15688748D01*
X-9585796Y-15688748D01*
X-9001438Y-15572512D01*
X-8506044Y-15241500D01*
X-8175032Y-14746106D01*
X-8058796Y-14161748D01*
X-8175032Y-13577390D01*
X-8506044Y-13081996D01*
X-8790770Y-12891748D01*
X-8506044Y-12701500D01*
X-8175032Y-12206106D01*
X-8058796Y-11621748D01*
X-8175032Y-11037390D01*
X-8506044Y-10541996D01*
X-8790770Y-10351748D01*
X-8506044Y-10161500D01*
X-8175032Y-9666106D01*
X-8058796Y-9081748D01*
X-8175032Y-8497390D01*
X-8506044Y-8001996D01*
X-8790770Y-7811748D01*
X-8506044Y-7621500D01*
X-8175032Y-7126106D01*
X-8058796Y-6541748D01*
X-8175032Y-5957390D01*
X-8506044Y-5461996D01*
X-8790770Y-5271748D01*
X-8506044Y-5081500D01*
X-8175032Y-4586106D01*
X-8058796Y-4001748D01*
X-8175032Y-3417390D01*
X-8506044Y-2921996D01*
X-8790770Y-2731748D01*
X-8506044Y-2541500D01*
X-8175032Y-2046106D01*
X-8058796Y-1461748D01*
X-8175032Y-877390D01*
X-8506044Y-381996D01*
X-8790770Y-191748D01*
X-8506044Y-1500D01*
X-8175032Y493894D01*
X-8058796Y1078252D01*
X-8175032Y1662610D01*
X-8506044Y2158004D01*
X-8790770Y2348252D01*
X-8506044Y2538500D01*
X-8175032Y3033894D01*
X-8058796Y3618252D01*
X-8175032Y4202610D01*
X-8506044Y4698004D01*
X-8790770Y4888252D01*
X-8506044Y5078500D01*
X-8175032Y5573894D01*
X-8058796Y6158252D01*
X-8175032Y6742610D01*
X-8473451Y7189225D01*
X-8410087Y7201829D01*
X-8235767Y7318307D01*
X-8119289Y7492627D01*
X-8078388Y7698252D01*
X-8078388Y9698252D01*
X-8119289Y9903877D01*
X-8161729Y9967392D01*
X-5329483Y9967392D01*
X-5325366Y-17516797D01*
X-5325366Y-17516797D01*
G37*
X-5325366Y-17516797D02*
X-5761795Y-17603608D01*
X-13375502Y-17603608D01*
X-13375502Y-15076691D01*
X-13265380Y-15241500D01*
X-12769986Y-15572512D01*
X-12185628Y-15688748D01*
X-12125796Y-15688748D01*
X-11541438Y-15572512D01*
X-11046044Y-15241500D01*
X-10885712Y-15001546D01*
X-10725380Y-15241500D01*
X-10229986Y-15572512D01*
X-9645628Y-15688748D01*
X-9585796Y-15688748D01*
X-9001438Y-15572512D01*
X-8506044Y-15241500D01*
X-8175032Y-14746106D01*
X-8058796Y-14161748D01*
X-8175032Y-13577390D01*
X-8506044Y-13081996D01*
X-8790770Y-12891748D01*
X-8506044Y-12701500D01*
X-8175032Y-12206106D01*
X-8058796Y-11621748D01*
X-8175032Y-11037390D01*
X-8506044Y-10541996D01*
X-8790770Y-10351748D01*
X-8506044Y-10161500D01*
X-8175032Y-9666106D01*
X-8058796Y-9081748D01*
X-8175032Y-8497390D01*
X-8506044Y-8001996D01*
X-8790770Y-7811748D01*
X-8506044Y-7621500D01*
X-8175032Y-7126106D01*
X-8058796Y-6541748D01*
X-8175032Y-5957390D01*
X-8506044Y-5461996D01*
X-8790770Y-5271748D01*
X-8506044Y-5081500D01*
X-8175032Y-4586106D01*
X-8058796Y-4001748D01*
X-8175032Y-3417390D01*
X-8506044Y-2921996D01*
X-8790770Y-2731748D01*
X-8506044Y-2541500D01*
X-8175032Y-2046106D01*
X-8058796Y-1461748D01*
X-8175032Y-877390D01*
X-8506044Y-381996D01*
X-8790770Y-191748D01*
X-8506044Y-1500D01*
X-8175032Y493894D01*
X-8058796Y1078252D01*
X-8175032Y1662610D01*
X-8506044Y2158004D01*
X-8790770Y2348252D01*
X-8506044Y2538500D01*
X-8175032Y3033894D01*
X-8058796Y3618252D01*
X-8175032Y4202610D01*
X-8506044Y4698004D01*
X-8790770Y4888252D01*
X-8506044Y5078500D01*
X-8175032Y5573894D01*
X-8058796Y6158252D01*
X-8175032Y6742610D01*
X-8473451Y7189225D01*
X-8410087Y7201829D01*
X-8235767Y7318307D01*
X-8119289Y7492627D01*
X-8078388Y7698252D01*
X-8078388Y9698252D01*
X-8119289Y9903877D01*
X-8161729Y9967392D01*
X-5329483Y9967392D01*
X-5325366Y-17516797D01*
G36*
X-10725380Y-12701500D02*
X-10440654Y-12891748D01*
X-10725380Y-13081996D01*
X-10878712Y-13311473D01*
X-10878712Y-12472023D01*
X-10725380Y-12701500D01*
X-10725380Y-12701500D01*
G37*
X-10725380Y-12701500D02*
X-10440654Y-12891748D01*
X-10725380Y-13081996D01*
X-10878712Y-13311473D01*
X-10878712Y-12472023D01*
X-10725380Y-12701500D01*
G36*
X-10725380Y-10161500D02*
X-10440654Y-10351748D01*
X-10725380Y-10541996D01*
X-10878712Y-10771473D01*
X-10878712Y-9932023D01*
X-10725380Y-10161500D01*
X-10725380Y-10161500D01*
G37*
X-10725380Y-10161500D02*
X-10440654Y-10351748D01*
X-10725380Y-10541996D01*
X-10878712Y-10771473D01*
X-10878712Y-9932023D01*
X-10725380Y-10161500D01*
G36*
X-10725380Y-7621500D02*
X-10440654Y-7811748D01*
X-10725380Y-8001996D01*
X-10878712Y-8231473D01*
X-10878712Y-7392023D01*
X-10725380Y-7621500D01*
X-10725380Y-7621500D01*
G37*
X-10725380Y-7621500D02*
X-10440654Y-7811748D01*
X-10725380Y-8001996D01*
X-10878712Y-8231473D01*
X-10878712Y-7392023D01*
X-10725380Y-7621500D01*
G36*
X-10725380Y-5081500D02*
X-10440654Y-5271748D01*
X-10725380Y-5461996D01*
X-10878712Y-5691473D01*
X-10878712Y-4852023D01*
X-10725380Y-5081500D01*
X-10725380Y-5081500D01*
G37*
X-10725380Y-5081500D02*
X-10440654Y-5271748D01*
X-10725380Y-5461996D01*
X-10878712Y-5691473D01*
X-10878712Y-4852023D01*
X-10725380Y-5081500D01*
G36*
X-10725380Y-2541500D02*
X-10440654Y-2731748D01*
X-10725380Y-2921996D01*
X-10878712Y-3151473D01*
X-10878712Y-2312023D01*
X-10725380Y-2541500D01*
X-10725380Y-2541500D01*
G37*
X-10725380Y-2541500D02*
X-10440654Y-2731748D01*
X-10725380Y-2921996D01*
X-10878712Y-3151473D01*
X-10878712Y-2312023D01*
X-10725380Y-2541500D01*
G36*
X-10725380Y-1500D02*
X-10440654Y-191748D01*
X-10725380Y-381996D01*
X-10878712Y-611473D01*
X-10878712Y227977D01*
X-10725380Y-1500D01*
X-10725380Y-1500D01*
G37*
X-10725380Y-1500D02*
X-10440654Y-191748D01*
X-10725380Y-381996D01*
X-10878712Y-611473D01*
X-10878712Y227977D01*
X-10725380Y-1500D01*
G36*
X-10725380Y2538500D02*
X-10440654Y2348252D01*
X-10725380Y2158004D01*
X-10878712Y1928527D01*
X-10878712Y2767977D01*
X-10725380Y2538500D01*
X-10725380Y2538500D01*
G37*
X-10725380Y2538500D02*
X-10440654Y2348252D01*
X-10725380Y2158004D01*
X-10878712Y1928527D01*
X-10878712Y2767977D01*
X-10725380Y2538500D01*
G36*
X-10725380Y5078500D02*
X-10440654Y4888252D01*
X-10725380Y4698004D01*
X-10878712Y4468527D01*
X-10878712Y5307977D01*
X-10725380Y5078500D01*
X-10725380Y5078500D01*
G37*
X-10725380Y5078500D02*
X-10440654Y4888252D01*
X-10725380Y4698004D01*
X-10878712Y4468527D01*
X-10878712Y5307977D01*
X-10725380Y5078500D01*
G36*
X-10821337Y7201829D02*
X-10757973Y7189225D01*
X-10878712Y7008527D01*
X-10878712Y7240166D01*
X-10821337Y7201829D01*
X-10821337Y7201829D01*
G37*
X-10821337Y7201829D02*
X-10757973Y7189225D01*
X-10878712Y7008527D01*
X-10878712Y7240166D01*
X-10821337Y7201829D01*
G36*
X-13265380Y9778004D02*
X-13375502Y9613195D01*
X-13375502Y9967392D01*
X-12981941Y9967392D01*
X-13265380Y9778004D01*
X-13265380Y9778004D01*
G37*
X-13265380Y9778004D02*
X-13375502Y9613195D01*
X-13375502Y9967392D01*
X-12981941Y9967392D01*
X-13265380Y9778004D01*
G36*
X-11112135Y9903877D02*
X-11126482Y9831751D01*
X-11329483Y9967392D01*
X-11069695Y9967392D01*
X-11112135Y9903877D01*
X-11112135Y9903877D01*
G37*
X-11112135Y9903877D02*
X-11126482Y9831751D01*
X-11329483Y9967392D01*
X-11069695Y9967392D01*
X-11112135Y9903877D01*
G36*
X-14225353Y-17603608D02*
X-22275502Y-17603608D01*
X-22275502Y-15076691D01*
X-22165380Y-15241500D01*
X-21669986Y-15572512D01*
X-21085628Y-15688748D01*
X-21025796Y-15688748D01*
X-20441438Y-15572512D01*
X-19946044Y-15241500D01*
X-19785712Y-15001546D01*
X-19625380Y-15241500D01*
X-19129986Y-15572512D01*
X-18545628Y-15688748D01*
X-18485796Y-15688748D01*
X-17901438Y-15572512D01*
X-17406044Y-15241500D01*
X-17075032Y-14746106D01*
X-16958796Y-14161748D01*
X-17075032Y-13577390D01*
X-17406044Y-13081996D01*
X-17690770Y-12891748D01*
X-17406044Y-12701500D01*
X-17075032Y-12206106D01*
X-16958796Y-11621748D01*
X-17075032Y-11037390D01*
X-17406044Y-10541996D01*
X-17690770Y-10351748D01*
X-17406044Y-10161500D01*
X-17075032Y-9666106D01*
X-16958796Y-9081748D01*
X-17075032Y-8497390D01*
X-17406044Y-8001996D01*
X-17690770Y-7811748D01*
X-17406044Y-7621500D01*
X-17075032Y-7126106D01*
X-16958796Y-6541748D01*
X-17075032Y-5957390D01*
X-17406044Y-5461996D01*
X-17690770Y-5271748D01*
X-17406044Y-5081500D01*
X-17075032Y-4586106D01*
X-16958796Y-4001748D01*
X-17075032Y-3417390D01*
X-17406044Y-2921996D01*
X-17690770Y-2731748D01*
X-17406044Y-2541500D01*
X-17075032Y-2046106D01*
X-16958796Y-1461748D01*
X-17075032Y-877390D01*
X-17406044Y-381996D01*
X-17690770Y-191748D01*
X-17406044Y-1500D01*
X-17075032Y493894D01*
X-16958796Y1078252D01*
X-17075032Y1662610D01*
X-17406044Y2158004D01*
X-17690770Y2348252D01*
X-17406044Y2538500D01*
X-17075032Y3033894D01*
X-16958796Y3618252D01*
X-17075032Y4202610D01*
X-17406044Y4698004D01*
X-17690770Y4888252D01*
X-17406044Y5078500D01*
X-17075032Y5573894D01*
X-16958796Y6158252D01*
X-17075032Y6742610D01*
X-17373451Y7189225D01*
X-17310087Y7201829D01*
X-17135767Y7318307D01*
X-17019289Y7492627D01*
X-16978388Y7698252D01*
X-16978388Y9698252D01*
X-17019289Y9903877D01*
X-17061729Y9967392D01*
X-14229483Y9967392D01*
X-14225353Y-17603608D01*
X-14225353Y-17603608D01*
G37*
X-14225353Y-17603608D02*
X-22275502Y-17603608D01*
X-22275502Y-15076691D01*
X-22165380Y-15241500D01*
X-21669986Y-15572512D01*
X-21085628Y-15688748D01*
X-21025796Y-15688748D01*
X-20441438Y-15572512D01*
X-19946044Y-15241500D01*
X-19785712Y-15001546D01*
X-19625380Y-15241500D01*
X-19129986Y-15572512D01*
X-18545628Y-15688748D01*
X-18485796Y-15688748D01*
X-17901438Y-15572512D01*
X-17406044Y-15241500D01*
X-17075032Y-14746106D01*
X-16958796Y-14161748D01*
X-17075032Y-13577390D01*
X-17406044Y-13081996D01*
X-17690770Y-12891748D01*
X-17406044Y-12701500D01*
X-17075032Y-12206106D01*
X-16958796Y-11621748D01*
X-17075032Y-11037390D01*
X-17406044Y-10541996D01*
X-17690770Y-10351748D01*
X-17406044Y-10161500D01*
X-17075032Y-9666106D01*
X-16958796Y-9081748D01*
X-17075032Y-8497390D01*
X-17406044Y-8001996D01*
X-17690770Y-7811748D01*
X-17406044Y-7621500D01*
X-17075032Y-7126106D01*
X-16958796Y-6541748D01*
X-17075032Y-5957390D01*
X-17406044Y-5461996D01*
X-17690770Y-5271748D01*
X-17406044Y-5081500D01*
X-17075032Y-4586106D01*
X-16958796Y-4001748D01*
X-17075032Y-3417390D01*
X-17406044Y-2921996D01*
X-17690770Y-2731748D01*
X-17406044Y-2541500D01*
X-17075032Y-2046106D01*
X-16958796Y-1461748D01*
X-17075032Y-877390D01*
X-17406044Y-381996D01*
X-17690770Y-191748D01*
X-17406044Y-1500D01*
X-17075032Y493894D01*
X-16958796Y1078252D01*
X-17075032Y1662610D01*
X-17406044Y2158004D01*
X-17690770Y2348252D01*
X-17406044Y2538500D01*
X-17075032Y3033894D01*
X-16958796Y3618252D01*
X-17075032Y4202610D01*
X-17406044Y4698004D01*
X-17690770Y4888252D01*
X-17406044Y5078500D01*
X-17075032Y5573894D01*
X-16958796Y6158252D01*
X-17075032Y6742610D01*
X-17373451Y7189225D01*
X-17310087Y7201829D01*
X-17135767Y7318307D01*
X-17019289Y7492627D01*
X-16978388Y7698252D01*
X-16978388Y9698252D01*
X-17019289Y9903877D01*
X-17061729Y9967392D01*
X-14229483Y9967392D01*
X-14225353Y-17603608D01*
G36*
X-19625380Y-12701500D02*
X-19340654Y-12891748D01*
X-19625380Y-13081996D01*
X-19778712Y-13311473D01*
X-19778712Y-12472023D01*
X-19625380Y-12701500D01*
X-19625380Y-12701500D01*
G37*
X-19625380Y-12701500D02*
X-19340654Y-12891748D01*
X-19625380Y-13081996D01*
X-19778712Y-13311473D01*
X-19778712Y-12472023D01*
X-19625380Y-12701500D01*
G36*
X-19625380Y-10161500D02*
X-19340654Y-10351748D01*
X-19625380Y-10541996D01*
X-19778712Y-10771473D01*
X-19778712Y-9932023D01*
X-19625380Y-10161500D01*
X-19625380Y-10161500D01*
G37*
X-19625380Y-10161500D02*
X-19340654Y-10351748D01*
X-19625380Y-10541996D01*
X-19778712Y-10771473D01*
X-19778712Y-9932023D01*
X-19625380Y-10161500D01*
G36*
X-19625380Y-7621500D02*
X-19340654Y-7811748D01*
X-19625380Y-8001996D01*
X-19778712Y-8231473D01*
X-19778712Y-7392023D01*
X-19625380Y-7621500D01*
X-19625380Y-7621500D01*
G37*
X-19625380Y-7621500D02*
X-19340654Y-7811748D01*
X-19625380Y-8001996D01*
X-19778712Y-8231473D01*
X-19778712Y-7392023D01*
X-19625380Y-7621500D01*
G36*
X-19625380Y-5081500D02*
X-19340654Y-5271748D01*
X-19625380Y-5461996D01*
X-19778712Y-5691473D01*
X-19778712Y-4852023D01*
X-19625380Y-5081500D01*
X-19625380Y-5081500D01*
G37*
X-19625380Y-5081500D02*
X-19340654Y-5271748D01*
X-19625380Y-5461996D01*
X-19778712Y-5691473D01*
X-19778712Y-4852023D01*
X-19625380Y-5081500D01*
G36*
X-19625380Y-2541500D02*
X-19340654Y-2731748D01*
X-19625380Y-2921996D01*
X-19778712Y-3151473D01*
X-19778712Y-2312023D01*
X-19625380Y-2541500D01*
X-19625380Y-2541500D01*
G37*
X-19625380Y-2541500D02*
X-19340654Y-2731748D01*
X-19625380Y-2921996D01*
X-19778712Y-3151473D01*
X-19778712Y-2312023D01*
X-19625380Y-2541500D01*
G36*
X-19625380Y-1500D02*
X-19340654Y-191748D01*
X-19625380Y-381996D01*
X-19778712Y-611473D01*
X-19778712Y227977D01*
X-19625380Y-1500D01*
X-19625380Y-1500D01*
G37*
X-19625380Y-1500D02*
X-19340654Y-191748D01*
X-19625380Y-381996D01*
X-19778712Y-611473D01*
X-19778712Y227977D01*
X-19625380Y-1500D01*
G36*
X-19625380Y2538500D02*
X-19340654Y2348252D01*
X-19625380Y2158004D01*
X-19778712Y1928527D01*
X-19778712Y2767977D01*
X-19625380Y2538500D01*
X-19625380Y2538500D01*
G37*
X-19625380Y2538500D02*
X-19340654Y2348252D01*
X-19625380Y2158004D01*
X-19778712Y1928527D01*
X-19778712Y2767977D01*
X-19625380Y2538500D01*
G36*
X-19625380Y5078500D02*
X-19340654Y4888252D01*
X-19625380Y4698004D01*
X-19778712Y4468527D01*
X-19778712Y5307977D01*
X-19625380Y5078500D01*
X-19625380Y5078500D01*
G37*
X-19625380Y5078500D02*
X-19340654Y4888252D01*
X-19625380Y4698004D01*
X-19778712Y4468527D01*
X-19778712Y5307977D01*
X-19625380Y5078500D01*
G36*
X-19721337Y7201829D02*
X-19657973Y7189225D01*
X-19778712Y7008527D01*
X-19778712Y7240166D01*
X-19721337Y7201829D01*
X-19721337Y7201829D01*
G37*
X-19721337Y7201829D02*
X-19657973Y7189225D01*
X-19778712Y7008527D01*
X-19778712Y7240166D01*
X-19721337Y7201829D01*
G36*
X-22165380Y9778004D02*
X-22275502Y9613195D01*
X-22275502Y9967392D01*
X-21881941Y9967392D01*
X-22165380Y9778004D01*
X-22165380Y9778004D01*
G37*
X-22165380Y9778004D02*
X-22275502Y9613195D01*
X-22275502Y9967392D01*
X-21881941Y9967392D01*
X-22165380Y9778004D01*
G36*
X-20012135Y9903877D02*
X-20026482Y9831751D01*
X-20229483Y9967392D01*
X-19969695Y9967392D01*
X-20012135Y9903877D01*
X-20012135Y9903877D01*
G37*
X-20012135Y9903877D02*
X-20026482Y9831751D01*
X-20229483Y9967392D01*
X-19969695Y9967392D01*
X-20012135Y9903877D01*
G36*
X-23125353Y-17603608D02*
X-31175502Y-17603608D01*
X-31175502Y-15076691D01*
X-31065380Y-15241500D01*
X-30569986Y-15572512D01*
X-29985628Y-15688748D01*
X-29925796Y-15688748D01*
X-29341438Y-15572512D01*
X-28846044Y-15241500D01*
X-28685712Y-15001546D01*
X-28525380Y-15241500D01*
X-28029986Y-15572512D01*
X-27445628Y-15688748D01*
X-27385796Y-15688748D01*
X-26801438Y-15572512D01*
X-26306044Y-15241500D01*
X-25975032Y-14746106D01*
X-25858796Y-14161748D01*
X-25975032Y-13577390D01*
X-26306044Y-13081996D01*
X-26590770Y-12891748D01*
X-26306044Y-12701500D01*
X-25975032Y-12206106D01*
X-25858796Y-11621748D01*
X-25975032Y-11037390D01*
X-26306044Y-10541996D01*
X-26590770Y-10351748D01*
X-26306044Y-10161500D01*
X-25975032Y-9666106D01*
X-25858796Y-9081748D01*
X-25975032Y-8497390D01*
X-26306044Y-8001996D01*
X-26590770Y-7811748D01*
X-26306044Y-7621500D01*
X-25975032Y-7126106D01*
X-25858796Y-6541748D01*
X-25975032Y-5957390D01*
X-26306044Y-5461996D01*
X-26590770Y-5271748D01*
X-26306044Y-5081500D01*
X-25975032Y-4586106D01*
X-25858796Y-4001748D01*
X-25975032Y-3417390D01*
X-26306044Y-2921996D01*
X-26590770Y-2731748D01*
X-26306044Y-2541500D01*
X-25975032Y-2046106D01*
X-25858796Y-1461748D01*
X-25975032Y-877390D01*
X-26306044Y-381996D01*
X-26590770Y-191748D01*
X-26306044Y-1500D01*
X-25975032Y493894D01*
X-25858796Y1078252D01*
X-25975032Y1662610D01*
X-26306044Y2158004D01*
X-26590770Y2348252D01*
X-26306044Y2538500D01*
X-25975032Y3033894D01*
X-25858796Y3618252D01*
X-25975032Y4202610D01*
X-26306044Y4698004D01*
X-26590770Y4888252D01*
X-26306044Y5078500D01*
X-25975032Y5573894D01*
X-25858796Y6158252D01*
X-25975032Y6742610D01*
X-26273451Y7189225D01*
X-26210087Y7201829D01*
X-26035767Y7318307D01*
X-25919289Y7492627D01*
X-25878388Y7698252D01*
X-25878388Y9698252D01*
X-25919289Y9903877D01*
X-25961729Y9967392D01*
X-23129483Y9967392D01*
X-23125353Y-17603608D01*
X-23125353Y-17603608D01*
G37*
X-23125353Y-17603608D02*
X-31175502Y-17603608D01*
X-31175502Y-15076691D01*
X-31065380Y-15241500D01*
X-30569986Y-15572512D01*
X-29985628Y-15688748D01*
X-29925796Y-15688748D01*
X-29341438Y-15572512D01*
X-28846044Y-15241500D01*
X-28685712Y-15001546D01*
X-28525380Y-15241500D01*
X-28029986Y-15572512D01*
X-27445628Y-15688748D01*
X-27385796Y-15688748D01*
X-26801438Y-15572512D01*
X-26306044Y-15241500D01*
X-25975032Y-14746106D01*
X-25858796Y-14161748D01*
X-25975032Y-13577390D01*
X-26306044Y-13081996D01*
X-26590770Y-12891748D01*
X-26306044Y-12701500D01*
X-25975032Y-12206106D01*
X-25858796Y-11621748D01*
X-25975032Y-11037390D01*
X-26306044Y-10541996D01*
X-26590770Y-10351748D01*
X-26306044Y-10161500D01*
X-25975032Y-9666106D01*
X-25858796Y-9081748D01*
X-25975032Y-8497390D01*
X-26306044Y-8001996D01*
X-26590770Y-7811748D01*
X-26306044Y-7621500D01*
X-25975032Y-7126106D01*
X-25858796Y-6541748D01*
X-25975032Y-5957390D01*
X-26306044Y-5461996D01*
X-26590770Y-5271748D01*
X-26306044Y-5081500D01*
X-25975032Y-4586106D01*
X-25858796Y-4001748D01*
X-25975032Y-3417390D01*
X-26306044Y-2921996D01*
X-26590770Y-2731748D01*
X-26306044Y-2541500D01*
X-25975032Y-2046106D01*
X-25858796Y-1461748D01*
X-25975032Y-877390D01*
X-26306044Y-381996D01*
X-26590770Y-191748D01*
X-26306044Y-1500D01*
X-25975032Y493894D01*
X-25858796Y1078252D01*
X-25975032Y1662610D01*
X-26306044Y2158004D01*
X-26590770Y2348252D01*
X-26306044Y2538500D01*
X-25975032Y3033894D01*
X-25858796Y3618252D01*
X-25975032Y4202610D01*
X-26306044Y4698004D01*
X-26590770Y4888252D01*
X-26306044Y5078500D01*
X-25975032Y5573894D01*
X-25858796Y6158252D01*
X-25975032Y6742610D01*
X-26273451Y7189225D01*
X-26210087Y7201829D01*
X-26035767Y7318307D01*
X-25919289Y7492627D01*
X-25878388Y7698252D01*
X-25878388Y9698252D01*
X-25919289Y9903877D01*
X-25961729Y9967392D01*
X-23129483Y9967392D01*
X-23125353Y-17603608D01*
G36*
X-28525380Y-12701500D02*
X-28240654Y-12891748D01*
X-28525380Y-13081996D01*
X-28678712Y-13311473D01*
X-28678712Y-12472023D01*
X-28525380Y-12701500D01*
X-28525380Y-12701500D01*
G37*
X-28525380Y-12701500D02*
X-28240654Y-12891748D01*
X-28525380Y-13081996D01*
X-28678712Y-13311473D01*
X-28678712Y-12472023D01*
X-28525380Y-12701500D01*
G36*
X-28525380Y-10161500D02*
X-28240654Y-10351748D01*
X-28525380Y-10541996D01*
X-28678712Y-10771473D01*
X-28678712Y-9932023D01*
X-28525380Y-10161500D01*
X-28525380Y-10161500D01*
G37*
X-28525380Y-10161500D02*
X-28240654Y-10351748D01*
X-28525380Y-10541996D01*
X-28678712Y-10771473D01*
X-28678712Y-9932023D01*
X-28525380Y-10161500D01*
G36*
X-28525380Y-7621500D02*
X-28240654Y-7811748D01*
X-28525380Y-8001996D01*
X-28678712Y-8231473D01*
X-28678712Y-7392023D01*
X-28525380Y-7621500D01*
X-28525380Y-7621500D01*
G37*
X-28525380Y-7621500D02*
X-28240654Y-7811748D01*
X-28525380Y-8001996D01*
X-28678712Y-8231473D01*
X-28678712Y-7392023D01*
X-28525380Y-7621500D01*
G36*
X-28525380Y-5081500D02*
X-28240654Y-5271748D01*
X-28525380Y-5461996D01*
X-28678712Y-5691473D01*
X-28678712Y-4852023D01*
X-28525380Y-5081500D01*
X-28525380Y-5081500D01*
G37*
X-28525380Y-5081500D02*
X-28240654Y-5271748D01*
X-28525380Y-5461996D01*
X-28678712Y-5691473D01*
X-28678712Y-4852023D01*
X-28525380Y-5081500D01*
G36*
X-28525380Y-2541500D02*
X-28240654Y-2731748D01*
X-28525380Y-2921996D01*
X-28678712Y-3151473D01*
X-28678712Y-2312023D01*
X-28525380Y-2541500D01*
X-28525380Y-2541500D01*
G37*
X-28525380Y-2541500D02*
X-28240654Y-2731748D01*
X-28525380Y-2921996D01*
X-28678712Y-3151473D01*
X-28678712Y-2312023D01*
X-28525380Y-2541500D01*
G36*
X-28525380Y-1500D02*
X-28240654Y-191748D01*
X-28525380Y-381996D01*
X-28678712Y-611473D01*
X-28678712Y227977D01*
X-28525380Y-1500D01*
X-28525380Y-1500D01*
G37*
X-28525380Y-1500D02*
X-28240654Y-191748D01*
X-28525380Y-381996D01*
X-28678712Y-611473D01*
X-28678712Y227977D01*
X-28525380Y-1500D01*
G36*
X-28525380Y2538500D02*
X-28240654Y2348252D01*
X-28525380Y2158004D01*
X-28678712Y1928527D01*
X-28678712Y2767977D01*
X-28525380Y2538500D01*
X-28525380Y2538500D01*
G37*
X-28525380Y2538500D02*
X-28240654Y2348252D01*
X-28525380Y2158004D01*
X-28678712Y1928527D01*
X-28678712Y2767977D01*
X-28525380Y2538500D01*
G36*
X-28525380Y5078500D02*
X-28240654Y4888252D01*
X-28525380Y4698004D01*
X-28678712Y4468527D01*
X-28678712Y5307977D01*
X-28525380Y5078500D01*
X-28525380Y5078500D01*
G37*
X-28525380Y5078500D02*
X-28240654Y4888252D01*
X-28525380Y4698004D01*
X-28678712Y4468527D01*
X-28678712Y5307977D01*
X-28525380Y5078500D01*
G36*
X-28621337Y7201829D02*
X-28557973Y7189225D01*
X-28678712Y7008527D01*
X-28678712Y7240166D01*
X-28621337Y7201829D01*
X-28621337Y7201829D01*
G37*
X-28621337Y7201829D02*
X-28557973Y7189225D01*
X-28678712Y7008527D01*
X-28678712Y7240166D01*
X-28621337Y7201829D01*
G36*
X-31065380Y9778004D02*
X-31175502Y9613195D01*
X-31175502Y9967392D01*
X-30781941Y9967392D01*
X-31065380Y9778004D01*
X-31065380Y9778004D01*
G37*
X-31065380Y9778004D02*
X-31175502Y9613195D01*
X-31175502Y9967392D01*
X-30781941Y9967392D01*
X-31065380Y9778004D01*
G36*
X-28912135Y9903877D02*
X-28926482Y9831751D01*
X-29129483Y9967392D01*
X-28869695Y9967392D01*
X-28912135Y9903877D01*
X-28912135Y9903877D01*
G37*
X-28912135Y9903877D02*
X-28926482Y9831751D01*
X-29129483Y9967392D01*
X-28869695Y9967392D01*
X-28912135Y9903877D01*
G36*
X-32025353Y-17603608D02*
X-40075502Y-17603608D01*
X-40075502Y-15076691D01*
X-39965380Y-15241500D01*
X-39469986Y-15572512D01*
X-38885628Y-15688748D01*
X-38825796Y-15688748D01*
X-38241438Y-15572512D01*
X-37746044Y-15241500D01*
X-37585712Y-15001546D01*
X-37425380Y-15241500D01*
X-36929986Y-15572512D01*
X-36345628Y-15688748D01*
X-36285796Y-15688748D01*
X-35701438Y-15572512D01*
X-35206044Y-15241500D01*
X-34875032Y-14746106D01*
X-34758796Y-14161748D01*
X-34875032Y-13577390D01*
X-35206044Y-13081996D01*
X-35490770Y-12891748D01*
X-35206044Y-12701500D01*
X-34875032Y-12206106D01*
X-34758796Y-11621748D01*
X-34875032Y-11037390D01*
X-35206044Y-10541996D01*
X-35490770Y-10351748D01*
X-35206044Y-10161500D01*
X-34875032Y-9666106D01*
X-34758796Y-9081748D01*
X-34875032Y-8497390D01*
X-35206044Y-8001996D01*
X-35490770Y-7811748D01*
X-35206044Y-7621500D01*
X-34875032Y-7126106D01*
X-34758796Y-6541748D01*
X-34875032Y-5957390D01*
X-35206044Y-5461996D01*
X-35490770Y-5271748D01*
X-35206044Y-5081500D01*
X-34875032Y-4586106D01*
X-34758796Y-4001748D01*
X-34875032Y-3417390D01*
X-35206044Y-2921996D01*
X-35490770Y-2731748D01*
X-35206044Y-2541500D01*
X-34875032Y-2046106D01*
X-34758796Y-1461748D01*
X-34875032Y-877390D01*
X-35206044Y-381996D01*
X-35490770Y-191748D01*
X-35206044Y-1500D01*
X-34875032Y493894D01*
X-34758796Y1078252D01*
X-34875032Y1662610D01*
X-35206044Y2158004D01*
X-35490770Y2348252D01*
X-35206044Y2538500D01*
X-34875032Y3033894D01*
X-34758796Y3618252D01*
X-34875032Y4202610D01*
X-35206044Y4698004D01*
X-35490770Y4888252D01*
X-35206044Y5078500D01*
X-34875032Y5573894D01*
X-34758796Y6158252D01*
X-34875032Y6742610D01*
X-35173451Y7189225D01*
X-35110087Y7201829D01*
X-34935767Y7318307D01*
X-34819289Y7492627D01*
X-34778388Y7698252D01*
X-34778388Y9698252D01*
X-34819289Y9903877D01*
X-34861729Y9967392D01*
X-32029483Y9967392D01*
X-32025353Y-17603608D01*
X-32025353Y-17603608D01*
G37*
X-32025353Y-17603608D02*
X-40075502Y-17603608D01*
X-40075502Y-15076691D01*
X-39965380Y-15241500D01*
X-39469986Y-15572512D01*
X-38885628Y-15688748D01*
X-38825796Y-15688748D01*
X-38241438Y-15572512D01*
X-37746044Y-15241500D01*
X-37585712Y-15001546D01*
X-37425380Y-15241500D01*
X-36929986Y-15572512D01*
X-36345628Y-15688748D01*
X-36285796Y-15688748D01*
X-35701438Y-15572512D01*
X-35206044Y-15241500D01*
X-34875032Y-14746106D01*
X-34758796Y-14161748D01*
X-34875032Y-13577390D01*
X-35206044Y-13081996D01*
X-35490770Y-12891748D01*
X-35206044Y-12701500D01*
X-34875032Y-12206106D01*
X-34758796Y-11621748D01*
X-34875032Y-11037390D01*
X-35206044Y-10541996D01*
X-35490770Y-10351748D01*
X-35206044Y-10161500D01*
X-34875032Y-9666106D01*
X-34758796Y-9081748D01*
X-34875032Y-8497390D01*
X-35206044Y-8001996D01*
X-35490770Y-7811748D01*
X-35206044Y-7621500D01*
X-34875032Y-7126106D01*
X-34758796Y-6541748D01*
X-34875032Y-5957390D01*
X-35206044Y-5461996D01*
X-35490770Y-5271748D01*
X-35206044Y-5081500D01*
X-34875032Y-4586106D01*
X-34758796Y-4001748D01*
X-34875032Y-3417390D01*
X-35206044Y-2921996D01*
X-35490770Y-2731748D01*
X-35206044Y-2541500D01*
X-34875032Y-2046106D01*
X-34758796Y-1461748D01*
X-34875032Y-877390D01*
X-35206044Y-381996D01*
X-35490770Y-191748D01*
X-35206044Y-1500D01*
X-34875032Y493894D01*
X-34758796Y1078252D01*
X-34875032Y1662610D01*
X-35206044Y2158004D01*
X-35490770Y2348252D01*
X-35206044Y2538500D01*
X-34875032Y3033894D01*
X-34758796Y3618252D01*
X-34875032Y4202610D01*
X-35206044Y4698004D01*
X-35490770Y4888252D01*
X-35206044Y5078500D01*
X-34875032Y5573894D01*
X-34758796Y6158252D01*
X-34875032Y6742610D01*
X-35173451Y7189225D01*
X-35110087Y7201829D01*
X-34935767Y7318307D01*
X-34819289Y7492627D01*
X-34778388Y7698252D01*
X-34778388Y9698252D01*
X-34819289Y9903877D01*
X-34861729Y9967392D01*
X-32029483Y9967392D01*
X-32025353Y-17603608D01*
G36*
X-37425380Y-12701500D02*
X-37140654Y-12891748D01*
X-37425380Y-13081996D01*
X-37578712Y-13311473D01*
X-37578712Y-12472023D01*
X-37425380Y-12701500D01*
X-37425380Y-12701500D01*
G37*
X-37425380Y-12701500D02*
X-37140654Y-12891748D01*
X-37425380Y-13081996D01*
X-37578712Y-13311473D01*
X-37578712Y-12472023D01*
X-37425380Y-12701500D01*
G36*
X-37425380Y-10161500D02*
X-37140654Y-10351748D01*
X-37425380Y-10541996D01*
X-37578712Y-10771473D01*
X-37578712Y-9932023D01*
X-37425380Y-10161500D01*
X-37425380Y-10161500D01*
G37*
X-37425380Y-10161500D02*
X-37140654Y-10351748D01*
X-37425380Y-10541996D01*
X-37578712Y-10771473D01*
X-37578712Y-9932023D01*
X-37425380Y-10161500D01*
G36*
X-37425380Y-7621500D02*
X-37140654Y-7811748D01*
X-37425380Y-8001996D01*
X-37578712Y-8231473D01*
X-37578712Y-7392023D01*
X-37425380Y-7621500D01*
X-37425380Y-7621500D01*
G37*
X-37425380Y-7621500D02*
X-37140654Y-7811748D01*
X-37425380Y-8001996D01*
X-37578712Y-8231473D01*
X-37578712Y-7392023D01*
X-37425380Y-7621500D01*
G36*
X-37425380Y-5081500D02*
X-37140654Y-5271748D01*
X-37425380Y-5461996D01*
X-37578712Y-5691473D01*
X-37578712Y-4852023D01*
X-37425380Y-5081500D01*
X-37425380Y-5081500D01*
G37*
X-37425380Y-5081500D02*
X-37140654Y-5271748D01*
X-37425380Y-5461996D01*
X-37578712Y-5691473D01*
X-37578712Y-4852023D01*
X-37425380Y-5081500D01*
G36*
X-37425380Y-2541500D02*
X-37140654Y-2731748D01*
X-37425380Y-2921996D01*
X-37578712Y-3151473D01*
X-37578712Y-2312023D01*
X-37425380Y-2541500D01*
X-37425380Y-2541500D01*
G37*
X-37425380Y-2541500D02*
X-37140654Y-2731748D01*
X-37425380Y-2921996D01*
X-37578712Y-3151473D01*
X-37578712Y-2312023D01*
X-37425380Y-2541500D01*
G36*
X-37425380Y-1500D02*
X-37140654Y-191748D01*
X-37425380Y-381996D01*
X-37578712Y-611473D01*
X-37578712Y227977D01*
X-37425380Y-1500D01*
X-37425380Y-1500D01*
G37*
X-37425380Y-1500D02*
X-37140654Y-191748D01*
X-37425380Y-381996D01*
X-37578712Y-611473D01*
X-37578712Y227977D01*
X-37425380Y-1500D01*
G36*
X-37425380Y2538500D02*
X-37140654Y2348252D01*
X-37425380Y2158004D01*
X-37578712Y1928527D01*
X-37578712Y2767977D01*
X-37425380Y2538500D01*
X-37425380Y2538500D01*
G37*
X-37425380Y2538500D02*
X-37140654Y2348252D01*
X-37425380Y2158004D01*
X-37578712Y1928527D01*
X-37578712Y2767977D01*
X-37425380Y2538500D01*
G36*
X-37425380Y5078500D02*
X-37140654Y4888252D01*
X-37425380Y4698004D01*
X-37578712Y4468527D01*
X-37578712Y5307977D01*
X-37425380Y5078500D01*
X-37425380Y5078500D01*
G37*
X-37425380Y5078500D02*
X-37140654Y4888252D01*
X-37425380Y4698004D01*
X-37578712Y4468527D01*
X-37578712Y5307977D01*
X-37425380Y5078500D01*
G36*
X-37521337Y7201829D02*
X-37457973Y7189225D01*
X-37578712Y7008527D01*
X-37578712Y7240166D01*
X-37521337Y7201829D01*
X-37521337Y7201829D01*
G37*
X-37521337Y7201829D02*
X-37457973Y7189225D01*
X-37578712Y7008527D01*
X-37578712Y7240166D01*
X-37521337Y7201829D01*
G36*
X-39965380Y9778004D02*
X-40075502Y9613195D01*
X-40075502Y9967392D01*
X-39681941Y9967392D01*
X-39965380Y9778004D01*
X-39965380Y9778004D01*
G37*
X-39965380Y9778004D02*
X-40075502Y9613195D01*
X-40075502Y9967392D01*
X-39681941Y9967392D01*
X-39965380Y9778004D01*
G36*
X-37812135Y9903877D02*
X-37826482Y9831751D01*
X-38029483Y9967392D01*
X-37769695Y9967392D01*
X-37812135Y9903877D01*
X-37812135Y9903877D01*
G37*
X-37812135Y9903877D02*
X-37826482Y9831751D01*
X-38029483Y9967392D01*
X-37769695Y9967392D01*
X-37812135Y9903877D01*
G36*
X-40925323Y-17653608D02*
X-48350502Y-17653608D01*
X-48350502Y-15576388D01*
X-47785628Y-15688748D01*
X-47725796Y-15688748D01*
X-47141438Y-15572512D01*
X-46646044Y-15241500D01*
X-46485712Y-15001546D01*
X-46325380Y-15241500D01*
X-45829986Y-15572512D01*
X-45245628Y-15688748D01*
X-45185796Y-15688748D01*
X-44601438Y-15572512D01*
X-44106044Y-15241500D01*
X-43775032Y-14746106D01*
X-43658796Y-14161748D01*
X-43775032Y-13577390D01*
X-44106044Y-13081996D01*
X-44390770Y-12891748D01*
X-44106044Y-12701500D01*
X-43775032Y-12206106D01*
X-43658796Y-11621748D01*
X-43775032Y-11037390D01*
X-44106044Y-10541996D01*
X-44390770Y-10351748D01*
X-44106044Y-10161500D01*
X-43775032Y-9666106D01*
X-43658796Y-9081748D01*
X-43775032Y-8497390D01*
X-44106044Y-8001996D01*
X-44390770Y-7811748D01*
X-44106044Y-7621500D01*
X-43775032Y-7126106D01*
X-43658796Y-6541748D01*
X-43775032Y-5957390D01*
X-44106044Y-5461996D01*
X-44390770Y-5271748D01*
X-44106044Y-5081500D01*
X-43775032Y-4586106D01*
X-43658796Y-4001748D01*
X-43775032Y-3417390D01*
X-44106044Y-2921996D01*
X-44390770Y-2731748D01*
X-44106044Y-2541500D01*
X-43775032Y-2046106D01*
X-43658796Y-1461748D01*
X-43775032Y-877390D01*
X-44106044Y-381996D01*
X-44390770Y-191748D01*
X-44106044Y-1500D01*
X-43775032Y493894D01*
X-43658796Y1078252D01*
X-43775032Y1662610D01*
X-44106044Y2158004D01*
X-44390770Y2348252D01*
X-44106044Y2538500D01*
X-43775032Y3033894D01*
X-43658796Y3618252D01*
X-43775032Y4202610D01*
X-44106044Y4698004D01*
X-44390770Y4888252D01*
X-44106044Y5078500D01*
X-43775032Y5573894D01*
X-43658796Y6158252D01*
X-43775032Y6742610D01*
X-44073451Y7189225D01*
X-44010087Y7201829D01*
X-43835767Y7318307D01*
X-43719289Y7492627D01*
X-43678388Y7698252D01*
X-43678388Y9698252D01*
X-43719289Y9903877D01*
X-43765476Y9973000D01*
X-40926992Y9973000D01*
X-40925323Y-17653608D01*
X-40925323Y-17653608D01*
G37*
X-40925323Y-17653608D02*
X-48350502Y-17653608D01*
X-48350502Y-15576388D01*
X-47785628Y-15688748D01*
X-47725796Y-15688748D01*
X-47141438Y-15572512D01*
X-46646044Y-15241500D01*
X-46485712Y-15001546D01*
X-46325380Y-15241500D01*
X-45829986Y-15572512D01*
X-45245628Y-15688748D01*
X-45185796Y-15688748D01*
X-44601438Y-15572512D01*
X-44106044Y-15241500D01*
X-43775032Y-14746106D01*
X-43658796Y-14161748D01*
X-43775032Y-13577390D01*
X-44106044Y-13081996D01*
X-44390770Y-12891748D01*
X-44106044Y-12701500D01*
X-43775032Y-12206106D01*
X-43658796Y-11621748D01*
X-43775032Y-11037390D01*
X-44106044Y-10541996D01*
X-44390770Y-10351748D01*
X-44106044Y-10161500D01*
X-43775032Y-9666106D01*
X-43658796Y-9081748D01*
X-43775032Y-8497390D01*
X-44106044Y-8001996D01*
X-44390770Y-7811748D01*
X-44106044Y-7621500D01*
X-43775032Y-7126106D01*
X-43658796Y-6541748D01*
X-43775032Y-5957390D01*
X-44106044Y-5461996D01*
X-44390770Y-5271748D01*
X-44106044Y-5081500D01*
X-43775032Y-4586106D01*
X-43658796Y-4001748D01*
X-43775032Y-3417390D01*
X-44106044Y-2921996D01*
X-44390770Y-2731748D01*
X-44106044Y-2541500D01*
X-43775032Y-2046106D01*
X-43658796Y-1461748D01*
X-43775032Y-877390D01*
X-44106044Y-381996D01*
X-44390770Y-191748D01*
X-44106044Y-1500D01*
X-43775032Y493894D01*
X-43658796Y1078252D01*
X-43775032Y1662610D01*
X-44106044Y2158004D01*
X-44390770Y2348252D01*
X-44106044Y2538500D01*
X-43775032Y3033894D01*
X-43658796Y3618252D01*
X-43775032Y4202610D01*
X-44106044Y4698004D01*
X-44390770Y4888252D01*
X-44106044Y5078500D01*
X-43775032Y5573894D01*
X-43658796Y6158252D01*
X-43775032Y6742610D01*
X-44073451Y7189225D01*
X-44010087Y7201829D01*
X-43835767Y7318307D01*
X-43719289Y7492627D01*
X-43678388Y7698252D01*
X-43678388Y9698252D01*
X-43719289Y9903877D01*
X-43765476Y9973000D01*
X-40926992Y9973000D01*
X-40925323Y-17653608D01*
G36*
X-46325380Y-12701500D02*
X-46040654Y-12891748D01*
X-46325380Y-13081996D01*
X-46478712Y-13311473D01*
X-46478712Y-12472023D01*
X-46325380Y-12701500D01*
X-46325380Y-12701500D01*
G37*
X-46325380Y-12701500D02*
X-46040654Y-12891748D01*
X-46325380Y-13081996D01*
X-46478712Y-13311473D01*
X-46478712Y-12472023D01*
X-46325380Y-12701500D01*
G36*
X-46325380Y-10161500D02*
X-46040654Y-10351748D01*
X-46325380Y-10541996D01*
X-46478712Y-10771473D01*
X-46478712Y-9932023D01*
X-46325380Y-10161500D01*
X-46325380Y-10161500D01*
G37*
X-46325380Y-10161500D02*
X-46040654Y-10351748D01*
X-46325380Y-10541996D01*
X-46478712Y-10771473D01*
X-46478712Y-9932023D01*
X-46325380Y-10161500D01*
G36*
X-46325380Y-7621500D02*
X-46040654Y-7811748D01*
X-46325380Y-8001996D01*
X-46478712Y-8231473D01*
X-46478712Y-7392023D01*
X-46325380Y-7621500D01*
X-46325380Y-7621500D01*
G37*
X-46325380Y-7621500D02*
X-46040654Y-7811748D01*
X-46325380Y-8001996D01*
X-46478712Y-8231473D01*
X-46478712Y-7392023D01*
X-46325380Y-7621500D01*
G36*
X-46325380Y-5081500D02*
X-46040654Y-5271748D01*
X-46325380Y-5461996D01*
X-46478712Y-5691473D01*
X-46478712Y-4852023D01*
X-46325380Y-5081500D01*
X-46325380Y-5081500D01*
G37*
X-46325380Y-5081500D02*
X-46040654Y-5271748D01*
X-46325380Y-5461996D01*
X-46478712Y-5691473D01*
X-46478712Y-4852023D01*
X-46325380Y-5081500D01*
G36*
X-46325380Y-2541500D02*
X-46040654Y-2731748D01*
X-46325380Y-2921996D01*
X-46478712Y-3151473D01*
X-46478712Y-2312023D01*
X-46325380Y-2541500D01*
X-46325380Y-2541500D01*
G37*
X-46325380Y-2541500D02*
X-46040654Y-2731748D01*
X-46325380Y-2921996D01*
X-46478712Y-3151473D01*
X-46478712Y-2312023D01*
X-46325380Y-2541500D01*
G36*
X-46325380Y-1500D02*
X-46040654Y-191748D01*
X-46325380Y-381996D01*
X-46478712Y-611473D01*
X-46478712Y227977D01*
X-46325380Y-1500D01*
X-46325380Y-1500D01*
G37*
X-46325380Y-1500D02*
X-46040654Y-191748D01*
X-46325380Y-381996D01*
X-46478712Y-611473D01*
X-46478712Y227977D01*
X-46325380Y-1500D01*
G36*
X-46325380Y2538500D02*
X-46040654Y2348252D01*
X-46325380Y2158004D01*
X-46478712Y1928527D01*
X-46478712Y2767977D01*
X-46325380Y2538500D01*
X-46325380Y2538500D01*
G37*
X-46325380Y2538500D02*
X-46040654Y2348252D01*
X-46325380Y2158004D01*
X-46478712Y1928527D01*
X-46478712Y2767977D01*
X-46325380Y2538500D01*
G36*
X-46325380Y5078500D02*
X-46040654Y4888252D01*
X-46325380Y4698004D01*
X-46478712Y4468527D01*
X-46478712Y5307977D01*
X-46325380Y5078500D01*
X-46325380Y5078500D01*
G37*
X-46325380Y5078500D02*
X-46040654Y4888252D01*
X-46325380Y4698004D01*
X-46478712Y4468527D01*
X-46478712Y5307977D01*
X-46325380Y5078500D01*
G36*
X-46421337Y7201829D02*
X-46357973Y7189225D01*
X-46478712Y7008527D01*
X-46478712Y7240166D01*
X-46421337Y7201829D01*
X-46421337Y7201829D01*
G37*
X-46421337Y7201829D02*
X-46357973Y7189225D01*
X-46478712Y7008527D01*
X-46478712Y7240166D01*
X-46421337Y7201829D01*
G36*
X-46712135Y9903877D02*
X-46726482Y9831751D01*
X-46937876Y9973000D01*
X-46665948Y9973000D01*
X-46712135Y9903877D01*
X-46712135Y9903877D01*
G37*
X-46712135Y9903877D02*
X-46726482Y9831751D01*
X-46937876Y9973000D01*
X-46665948Y9973000D01*
X-46712135Y9903877D01*
M02*
