G04 #@! TF.GenerationSoftware,KiCad,Pcbnew,(2017-01-20 revision 550a1ea)-makepkg*
G04 #@! TF.CreationDate,2017-01-21T19:12:54+01:00*
G04 #@! TF.ProjectId,dekada,64656B6164612E6B696361645F706362,rev?*
G04 #@! TF.FileFunction,Legend,Bot*
G04 #@! TF.FilePolarity,Positive*
%FSLAX46Y46*%
G04 Gerber Fmt 4.6, Leading zero omitted, Abs format (unit mm)*
G04 Created by KiCad (PCBNEW (2017-01-20 revision 550a1ea)-makepkg) date 01/21/17 19:12:54*
%MOMM*%
%LPD*%
G01*
G04 APERTURE LIST*
%ADD10C,0.050000*%
%ADD11C,0.180000*%
%ADD12C,0.350000*%
%ADD13C,0.150000*%
%ADD14C,0.200000*%
%ADD15O,2.000000X2.000000*%
%ADD16R,2.000000X2.000000*%
%ADD17O,2.032000X2.032000*%
%ADD18R,2.032000X2.032000*%
G04 APERTURE END LIST*
D10*
D11*
X-42034379Y4275395D02*
X-42701046Y4275395D01*
X-42272474Y3075395D01*
X-33134379Y4275395D02*
X-33801046Y4275395D01*
X-33372474Y3075395D01*
X-24234379Y4275395D02*
X-24901046Y4275395D01*
X-24472474Y3075395D01*
X-15334379Y4275395D02*
X-16001046Y4275395D01*
X-15572474Y3075395D01*
X-42320093Y-13504605D02*
X-42415332Y-13504605D01*
X-42510570Y-13561748D01*
X-42558189Y-13618890D01*
X-42605808Y-13733176D01*
X-42653427Y-13961748D01*
X-42653427Y-14247462D01*
X-42605808Y-14476033D01*
X-42558189Y-14590319D01*
X-42510570Y-14647462D01*
X-42415332Y-14704605D01*
X-42320093Y-14704605D01*
X-42224855Y-14647462D01*
X-42177236Y-14590319D01*
X-42129617Y-14476033D01*
X-42081998Y-14247462D01*
X-42081998Y-13961748D01*
X-42129617Y-13733176D01*
X-42177236Y-13618890D01*
X-42224855Y-13561748D01*
X-42320093Y-13504605D01*
X-33420093Y-13504605D02*
X-33515332Y-13504605D01*
X-33610570Y-13561748D01*
X-33658189Y-13618890D01*
X-33705808Y-13733176D01*
X-33753427Y-13961748D01*
X-33753427Y-14247462D01*
X-33705808Y-14476033D01*
X-33658189Y-14590319D01*
X-33610570Y-14647462D01*
X-33515332Y-14704605D01*
X-33420093Y-14704605D01*
X-33324855Y-14647462D01*
X-33277236Y-14590319D01*
X-33229617Y-14476033D01*
X-33181998Y-14247462D01*
X-33181998Y-13961748D01*
X-33229617Y-13733176D01*
X-33277236Y-13618890D01*
X-33324855Y-13561748D01*
X-33420093Y-13504605D01*
X-24520093Y-13504605D02*
X-24615332Y-13504605D01*
X-24710570Y-13561748D01*
X-24758189Y-13618890D01*
X-24805808Y-13733176D01*
X-24853427Y-13961748D01*
X-24853427Y-14247462D01*
X-24805808Y-14476033D01*
X-24758189Y-14590319D01*
X-24710570Y-14647462D01*
X-24615332Y-14704605D01*
X-24520093Y-14704605D01*
X-24424855Y-14647462D01*
X-24377236Y-14590319D01*
X-24329617Y-14476033D01*
X-24281998Y-14247462D01*
X-24281998Y-13961748D01*
X-24329617Y-13733176D01*
X-24377236Y-13618890D01*
X-24424855Y-13561748D01*
X-24520093Y-13504605D01*
X-15620093Y-13504605D02*
X-15715332Y-13504605D01*
X-15810570Y-13561748D01*
X-15858189Y-13618890D01*
X-15905808Y-13733176D01*
X-15953427Y-13961748D01*
X-15953427Y-14247462D01*
X-15905808Y-14476033D01*
X-15858189Y-14590319D01*
X-15810570Y-14647462D01*
X-15715332Y-14704605D01*
X-15620093Y-14704605D01*
X-15524855Y-14647462D01*
X-15477236Y-14590319D01*
X-15429617Y-14476033D01*
X-15381998Y-14247462D01*
X-15381998Y-13961748D01*
X-15429617Y-13733176D01*
X-15477236Y-13618890D01*
X-15524855Y-13561748D01*
X-15620093Y-13504605D01*
X-42081998Y-8538890D02*
X-42129617Y-8481748D01*
X-42224855Y-8424605D01*
X-42462951Y-8424605D01*
X-42558189Y-8481748D01*
X-42605808Y-8538890D01*
X-42653427Y-8653176D01*
X-42653427Y-8767462D01*
X-42605808Y-8938890D01*
X-42034379Y-9624605D01*
X-42653427Y-9624605D01*
X-33181998Y-8538890D02*
X-33229617Y-8481748D01*
X-33324855Y-8424605D01*
X-33562951Y-8424605D01*
X-33658189Y-8481748D01*
X-33705808Y-8538890D01*
X-33753427Y-8653176D01*
X-33753427Y-8767462D01*
X-33705808Y-8938890D01*
X-33134379Y-9624605D01*
X-33753427Y-9624605D01*
X-24281998Y-8538890D02*
X-24329617Y-8481748D01*
X-24424855Y-8424605D01*
X-24662951Y-8424605D01*
X-24758189Y-8481748D01*
X-24805808Y-8538890D01*
X-24853427Y-8653176D01*
X-24853427Y-8767462D01*
X-24805808Y-8938890D01*
X-24234379Y-9624605D01*
X-24853427Y-9624605D01*
X-15381998Y-8538890D02*
X-15429617Y-8481748D01*
X-15524855Y-8424605D01*
X-15762951Y-8424605D01*
X-15858189Y-8481748D01*
X-15905808Y-8538890D01*
X-15953427Y-8653176D01*
X-15953427Y-8767462D01*
X-15905808Y-8938890D01*
X-15334379Y-9624605D01*
X-15953427Y-9624605D01*
X-42272474Y6301110D02*
X-42177236Y6358252D01*
X-42129617Y6415395D01*
X-42081998Y6529681D01*
X-42081998Y6586824D01*
X-42129617Y6701110D01*
X-42177236Y6758252D01*
X-42272474Y6815395D01*
X-42462951Y6815395D01*
X-42558189Y6758252D01*
X-42605808Y6701110D01*
X-42653427Y6586824D01*
X-42653427Y6529681D01*
X-42605808Y6415395D01*
X-42558189Y6358252D01*
X-42462951Y6301110D01*
X-42272474Y6301110D01*
X-42177236Y6243967D01*
X-42129617Y6186824D01*
X-42081998Y6072538D01*
X-42081998Y5843967D01*
X-42129617Y5729681D01*
X-42177236Y5672538D01*
X-42272474Y5615395D01*
X-42462951Y5615395D01*
X-42558189Y5672538D01*
X-42605808Y5729681D01*
X-42653427Y5843967D01*
X-42653427Y6072538D01*
X-42605808Y6186824D01*
X-42558189Y6243967D01*
X-42462951Y6301110D01*
X-33372474Y6301110D02*
X-33277236Y6358252D01*
X-33229617Y6415395D01*
X-33181998Y6529681D01*
X-33181998Y6586824D01*
X-33229617Y6701110D01*
X-33277236Y6758252D01*
X-33372474Y6815395D01*
X-33562951Y6815395D01*
X-33658189Y6758252D01*
X-33705808Y6701110D01*
X-33753427Y6586824D01*
X-33753427Y6529681D01*
X-33705808Y6415395D01*
X-33658189Y6358252D01*
X-33562951Y6301110D01*
X-33372474Y6301110D01*
X-33277236Y6243967D01*
X-33229617Y6186824D01*
X-33181998Y6072538D01*
X-33181998Y5843967D01*
X-33229617Y5729681D01*
X-33277236Y5672538D01*
X-33372474Y5615395D01*
X-33562951Y5615395D01*
X-33658189Y5672538D01*
X-33705808Y5729681D01*
X-33753427Y5843967D01*
X-33753427Y6072538D01*
X-33705808Y6186824D01*
X-33658189Y6243967D01*
X-33562951Y6301110D01*
X-24472474Y6301110D02*
X-24377236Y6358252D01*
X-24329617Y6415395D01*
X-24281998Y6529681D01*
X-24281998Y6586824D01*
X-24329617Y6701110D01*
X-24377236Y6758252D01*
X-24472474Y6815395D01*
X-24662951Y6815395D01*
X-24758189Y6758252D01*
X-24805808Y6701110D01*
X-24853427Y6586824D01*
X-24853427Y6529681D01*
X-24805808Y6415395D01*
X-24758189Y6358252D01*
X-24662951Y6301110D01*
X-24472474Y6301110D01*
X-24377236Y6243967D01*
X-24329617Y6186824D01*
X-24281998Y6072538D01*
X-24281998Y5843967D01*
X-24329617Y5729681D01*
X-24377236Y5672538D01*
X-24472474Y5615395D01*
X-24662951Y5615395D01*
X-24758189Y5672538D01*
X-24805808Y5729681D01*
X-24853427Y5843967D01*
X-24853427Y6072538D01*
X-24805808Y6186824D01*
X-24758189Y6243967D01*
X-24662951Y6301110D01*
X-15572474Y6301110D02*
X-15477236Y6358252D01*
X-15429617Y6415395D01*
X-15381998Y6529681D01*
X-15381998Y6586824D01*
X-15429617Y6701110D01*
X-15477236Y6758252D01*
X-15572474Y6815395D01*
X-15762951Y6815395D01*
X-15858189Y6758252D01*
X-15905808Y6701110D01*
X-15953427Y6586824D01*
X-15953427Y6529681D01*
X-15905808Y6415395D01*
X-15858189Y6358252D01*
X-15762951Y6301110D01*
X-15572474Y6301110D01*
X-15477236Y6243967D01*
X-15429617Y6186824D01*
X-15381998Y6072538D01*
X-15381998Y5843967D01*
X-15429617Y5729681D01*
X-15477236Y5672538D01*
X-15572474Y5615395D01*
X-15762951Y5615395D01*
X-15858189Y5672538D01*
X-15905808Y5729681D01*
X-15953427Y5843967D01*
X-15953427Y6072538D01*
X-15905808Y6186824D01*
X-15858189Y6243967D01*
X-15762951Y6301110D01*
D12*
X-46646548Y-17423809D02*
X-45732262Y-17423809D01*
X-46189405Y-17423809D02*
X-46189405Y-15823809D01*
X-46037024Y-16052380D01*
X-45884643Y-16204761D01*
X-45732262Y-16280952D01*
X-47637024Y-15823809D02*
X-47789405Y-15823809D01*
X-47941786Y-15900000D01*
X-48017977Y-15976190D01*
X-48094167Y-16128571D01*
X-48170358Y-16433333D01*
X-48170358Y-16814285D01*
X-48094167Y-17119047D01*
X-48017977Y-17271428D01*
X-47941786Y-17347619D01*
X-47789405Y-17423809D01*
X-47637024Y-17423809D01*
X-47484643Y-17347619D01*
X-47408453Y-17271428D01*
X-47332262Y-17119047D01*
X-47256072Y-16814285D01*
X-47256072Y-16433333D01*
X-47332262Y-16128571D01*
X-47408453Y-15976190D01*
X-47484643Y-15900000D01*
X-47637024Y-15823809D01*
X-36846548Y-17423809D02*
X-35932262Y-17423809D01*
X-36389405Y-17423809D02*
X-36389405Y-15823809D01*
X-36237024Y-16052380D01*
X-36084643Y-16204761D01*
X-35932262Y-16280952D01*
X-37837024Y-15823809D02*
X-37989405Y-15823809D01*
X-38141786Y-15900000D01*
X-38217977Y-15976190D01*
X-38294167Y-16128571D01*
X-38370358Y-16433333D01*
X-38370358Y-16814285D01*
X-38294167Y-17119047D01*
X-38217977Y-17271428D01*
X-38141786Y-17347619D01*
X-37989405Y-17423809D01*
X-37837024Y-17423809D01*
X-37684643Y-17347619D01*
X-37608453Y-17271428D01*
X-37532262Y-17119047D01*
X-37456072Y-16814285D01*
X-37456072Y-16433333D01*
X-37532262Y-16128571D01*
X-37608453Y-15976190D01*
X-37684643Y-15900000D01*
X-37837024Y-15823809D01*
X-39360834Y-15823809D02*
X-39513215Y-15823809D01*
X-39665596Y-15900000D01*
X-39741786Y-15976190D01*
X-39817977Y-16128571D01*
X-39894167Y-16433333D01*
X-39894167Y-16814285D01*
X-39817977Y-17119047D01*
X-39741786Y-17271428D01*
X-39665596Y-17347619D01*
X-39513215Y-17423809D01*
X-39360834Y-17423809D01*
X-39208453Y-17347619D01*
X-39132262Y-17271428D01*
X-39056072Y-17119047D01*
X-38979881Y-16814285D01*
X-38979881Y-16433333D01*
X-39056072Y-16128571D01*
X-39132262Y-15976190D01*
X-39208453Y-15900000D01*
X-39360834Y-15823809D01*
X-29746548Y-17423809D02*
X-28832262Y-17423809D01*
X-29289405Y-17423809D02*
X-29289405Y-15823809D01*
X-29137024Y-16052380D01*
X-28984643Y-16204761D01*
X-28832262Y-16280952D01*
X-30432262Y-17423809D02*
X-30432262Y-15823809D01*
X-30584643Y-16814285D02*
X-31041786Y-17423809D01*
X-31041786Y-16357142D02*
X-30432262Y-16966666D01*
X-19246548Y-17423809D02*
X-18332262Y-17423809D01*
X-18789405Y-17423809D02*
X-18789405Y-15823809D01*
X-18637024Y-16052380D01*
X-18484643Y-16204761D01*
X-18332262Y-16280952D01*
X-20237024Y-15823809D02*
X-20389405Y-15823809D01*
X-20541786Y-15900000D01*
X-20617977Y-15976190D01*
X-20694167Y-16128571D01*
X-20770358Y-16433333D01*
X-20770358Y-16814285D01*
X-20694167Y-17119047D01*
X-20617977Y-17271428D01*
X-20541786Y-17347619D01*
X-20389405Y-17423809D01*
X-20237024Y-17423809D01*
X-20084643Y-17347619D01*
X-20008453Y-17271428D01*
X-19932262Y-17119047D01*
X-19856072Y-16814285D01*
X-19856072Y-16433333D01*
X-19932262Y-16128571D01*
X-20008453Y-15976190D01*
X-20084643Y-15900000D01*
X-20237024Y-15823809D01*
X-21456072Y-17423809D02*
X-21456072Y-15823809D01*
X-21608453Y-16814285D02*
X-22065596Y-17423809D01*
X-22065596Y-16357142D02*
X-21456072Y-16966666D01*
D11*
X-42034379Y-5884605D02*
X-42653427Y-5884605D01*
X-42320093Y-6341748D01*
X-42462951Y-6341748D01*
X-42558189Y-6398890D01*
X-42605808Y-6456033D01*
X-42653427Y-6570319D01*
X-42653427Y-6856033D01*
X-42605808Y-6970319D01*
X-42558189Y-7027462D01*
X-42462951Y-7084605D01*
X-42177236Y-7084605D01*
X-42081998Y-7027462D01*
X-42034379Y-6970319D01*
X-33134379Y-5884605D02*
X-33753427Y-5884605D01*
X-33420093Y-6341748D01*
X-33562951Y-6341748D01*
X-33658189Y-6398890D01*
X-33705808Y-6456033D01*
X-33753427Y-6570319D01*
X-33753427Y-6856033D01*
X-33705808Y-6970319D01*
X-33658189Y-7027462D01*
X-33562951Y-7084605D01*
X-33277236Y-7084605D01*
X-33181998Y-7027462D01*
X-33134379Y-6970319D01*
X-24234379Y-5884605D02*
X-24853427Y-5884605D01*
X-24520093Y-6341748D01*
X-24662951Y-6341748D01*
X-24758189Y-6398890D01*
X-24805808Y-6456033D01*
X-24853427Y-6570319D01*
X-24853427Y-6856033D01*
X-24805808Y-6970319D01*
X-24758189Y-7027462D01*
X-24662951Y-7084605D01*
X-24377236Y-7084605D01*
X-24281998Y-7027462D01*
X-24234379Y-6970319D01*
X-15334379Y-5884605D02*
X-15953427Y-5884605D01*
X-15620093Y-6341748D01*
X-15762951Y-6341748D01*
X-15858189Y-6398890D01*
X-15905808Y-6456033D01*
X-15953427Y-6570319D01*
X-15953427Y-6856033D01*
X-15905808Y-6970319D01*
X-15858189Y-7027462D01*
X-15762951Y-7084605D01*
X-15477236Y-7084605D01*
X-15381998Y-7027462D01*
X-15334379Y-6970319D01*
X-42558189Y1735395D02*
X-42367712Y1735395D01*
X-42272474Y1678252D01*
X-42224855Y1621110D01*
X-42129617Y1449681D01*
X-42081998Y1221110D01*
X-42081998Y763967D01*
X-42129617Y649681D01*
X-42177236Y592538D01*
X-42272474Y535395D01*
X-42462951Y535395D01*
X-42558189Y592538D01*
X-42605808Y649681D01*
X-42653427Y763967D01*
X-42653427Y1049681D01*
X-42605808Y1163967D01*
X-42558189Y1221110D01*
X-42462951Y1278252D01*
X-42272474Y1278252D01*
X-42177236Y1221110D01*
X-42129617Y1163967D01*
X-42081998Y1049681D01*
X-33658189Y1735395D02*
X-33467712Y1735395D01*
X-33372474Y1678252D01*
X-33324855Y1621110D01*
X-33229617Y1449681D01*
X-33181998Y1221110D01*
X-33181998Y763967D01*
X-33229617Y649681D01*
X-33277236Y592538D01*
X-33372474Y535395D01*
X-33562951Y535395D01*
X-33658189Y592538D01*
X-33705808Y649681D01*
X-33753427Y763967D01*
X-33753427Y1049681D01*
X-33705808Y1163967D01*
X-33658189Y1221110D01*
X-33562951Y1278252D01*
X-33372474Y1278252D01*
X-33277236Y1221110D01*
X-33229617Y1163967D01*
X-33181998Y1049681D01*
X-24758189Y1735395D02*
X-24567712Y1735395D01*
X-24472474Y1678252D01*
X-24424855Y1621110D01*
X-24329617Y1449681D01*
X-24281998Y1221110D01*
X-24281998Y763967D01*
X-24329617Y649681D01*
X-24377236Y592538D01*
X-24472474Y535395D01*
X-24662951Y535395D01*
X-24758189Y592538D01*
X-24805808Y649681D01*
X-24853427Y763967D01*
X-24853427Y1049681D01*
X-24805808Y1163967D01*
X-24758189Y1221110D01*
X-24662951Y1278252D01*
X-24472474Y1278252D01*
X-24377236Y1221110D01*
X-24329617Y1163967D01*
X-24281998Y1049681D01*
X-15858189Y1735395D02*
X-15667712Y1735395D01*
X-15572474Y1678252D01*
X-15524855Y1621110D01*
X-15429617Y1449681D01*
X-15381998Y1221110D01*
X-15381998Y763967D01*
X-15429617Y649681D01*
X-15477236Y592538D01*
X-15572474Y535395D01*
X-15762951Y535395D01*
X-15858189Y592538D01*
X-15905808Y649681D01*
X-15953427Y763967D01*
X-15953427Y1049681D01*
X-15905808Y1163967D01*
X-15858189Y1221110D01*
X-15762951Y1278252D01*
X-15572474Y1278252D01*
X-15477236Y1221110D01*
X-15429617Y1163967D01*
X-15381998Y1049681D01*
X-42653427Y-12164605D02*
X-42081998Y-12164605D01*
X-42367712Y-12164605D02*
X-42367712Y-10964605D01*
X-42272474Y-11136033D01*
X-42177236Y-11250319D01*
X-42081998Y-11307462D01*
X-33753427Y-12164605D02*
X-33181998Y-12164605D01*
X-33467712Y-12164605D02*
X-33467712Y-10964605D01*
X-33372474Y-11136033D01*
X-33277236Y-11250319D01*
X-33181998Y-11307462D01*
X-24853427Y-12164605D02*
X-24281998Y-12164605D01*
X-24567712Y-12164605D02*
X-24567712Y-10964605D01*
X-24472474Y-11136033D01*
X-24377236Y-11250319D01*
X-24281998Y-11307462D01*
X-15953427Y-12164605D02*
X-15381998Y-12164605D01*
X-15667712Y-12164605D02*
X-15667712Y-10964605D01*
X-15572474Y-11136033D01*
X-15477236Y-11250319D01*
X-15381998Y-11307462D01*
X-42177236Y8155395D02*
X-42367712Y8155395D01*
X-42462951Y8212538D01*
X-42510570Y8269681D01*
X-42605808Y8441110D01*
X-42653427Y8669681D01*
X-42653427Y9126824D01*
X-42605808Y9241110D01*
X-42558189Y9298252D01*
X-42462951Y9355395D01*
X-42272474Y9355395D01*
X-42177236Y9298252D01*
X-42129617Y9241110D01*
X-42081998Y9126824D01*
X-42081998Y8841110D01*
X-42129617Y8726824D01*
X-42177236Y8669681D01*
X-42272474Y8612538D01*
X-42462951Y8612538D01*
X-42558189Y8669681D01*
X-42605808Y8726824D01*
X-42653427Y8841110D01*
X-33277236Y8155395D02*
X-33467712Y8155395D01*
X-33562951Y8212538D01*
X-33610570Y8269681D01*
X-33705808Y8441110D01*
X-33753427Y8669681D01*
X-33753427Y9126824D01*
X-33705808Y9241110D01*
X-33658189Y9298252D01*
X-33562951Y9355395D01*
X-33372474Y9355395D01*
X-33277236Y9298252D01*
X-33229617Y9241110D01*
X-33181998Y9126824D01*
X-33181998Y8841110D01*
X-33229617Y8726824D01*
X-33277236Y8669681D01*
X-33372474Y8612538D01*
X-33562951Y8612538D01*
X-33658189Y8669681D01*
X-33705808Y8726824D01*
X-33753427Y8841110D01*
X-24377236Y8155395D02*
X-24567712Y8155395D01*
X-24662951Y8212538D01*
X-24710570Y8269681D01*
X-24805808Y8441110D01*
X-24853427Y8669681D01*
X-24853427Y9126824D01*
X-24805808Y9241110D01*
X-24758189Y9298252D01*
X-24662951Y9355395D01*
X-24472474Y9355395D01*
X-24377236Y9298252D01*
X-24329617Y9241110D01*
X-24281998Y9126824D01*
X-24281998Y8841110D01*
X-24329617Y8726824D01*
X-24377236Y8669681D01*
X-24472474Y8612538D01*
X-24662951Y8612538D01*
X-24758189Y8669681D01*
X-24805808Y8726824D01*
X-24853427Y8841110D01*
X-15477236Y8155395D02*
X-15667712Y8155395D01*
X-15762951Y8212538D01*
X-15810570Y8269681D01*
X-15905808Y8441110D01*
X-15953427Y8669681D01*
X-15953427Y9126824D01*
X-15905808Y9241110D01*
X-15858189Y9298252D01*
X-15762951Y9355395D01*
X-15572474Y9355395D01*
X-15477236Y9298252D01*
X-15429617Y9241110D01*
X-15381998Y9126824D01*
X-15381998Y8841110D01*
X-15429617Y8726824D01*
X-15477236Y8669681D01*
X-15572474Y8612538D01*
X-15762951Y8612538D01*
X-15858189Y8669681D01*
X-15905808Y8726824D01*
X-15953427Y8841110D01*
X-42605808Y-804605D02*
X-42129617Y-804605D01*
X-42081998Y-1376033D01*
X-42129617Y-1318890D01*
X-42224855Y-1261748D01*
X-42462951Y-1261748D01*
X-42558189Y-1318890D01*
X-42605808Y-1376033D01*
X-42653427Y-1490319D01*
X-42653427Y-1776033D01*
X-42605808Y-1890319D01*
X-42558189Y-1947462D01*
X-42462951Y-2004605D01*
X-42224855Y-2004605D01*
X-42129617Y-1947462D01*
X-42081998Y-1890319D01*
X-33705808Y-804605D02*
X-33229617Y-804605D01*
X-33181998Y-1376033D01*
X-33229617Y-1318890D01*
X-33324855Y-1261748D01*
X-33562951Y-1261748D01*
X-33658189Y-1318890D01*
X-33705808Y-1376033D01*
X-33753427Y-1490319D01*
X-33753427Y-1776033D01*
X-33705808Y-1890319D01*
X-33658189Y-1947462D01*
X-33562951Y-2004605D01*
X-33324855Y-2004605D01*
X-33229617Y-1947462D01*
X-33181998Y-1890319D01*
X-24805808Y-804605D02*
X-24329617Y-804605D01*
X-24281998Y-1376033D01*
X-24329617Y-1318890D01*
X-24424855Y-1261748D01*
X-24662951Y-1261748D01*
X-24758189Y-1318890D01*
X-24805808Y-1376033D01*
X-24853427Y-1490319D01*
X-24853427Y-1776033D01*
X-24805808Y-1890319D01*
X-24758189Y-1947462D01*
X-24662951Y-2004605D01*
X-24424855Y-2004605D01*
X-24329617Y-1947462D01*
X-24281998Y-1890319D01*
X-15905808Y-804605D02*
X-15429617Y-804605D01*
X-15381998Y-1376033D01*
X-15429617Y-1318890D01*
X-15524855Y-1261748D01*
X-15762951Y-1261748D01*
X-15858189Y-1318890D01*
X-15905808Y-1376033D01*
X-15953427Y-1490319D01*
X-15953427Y-1776033D01*
X-15905808Y-1890319D01*
X-15858189Y-1947462D01*
X-15762951Y-2004605D01*
X-15524855Y-2004605D01*
X-15429617Y-1947462D01*
X-15381998Y-1890319D01*
X-42558189Y-3744605D02*
X-42558189Y-4544605D01*
X-42320093Y-3287462D02*
X-42081998Y-4144605D01*
X-42701046Y-4144605D01*
X-33658189Y-3744605D02*
X-33658189Y-4544605D01*
X-33420093Y-3287462D02*
X-33181998Y-4144605D01*
X-33801046Y-4144605D01*
X-24758189Y-3744605D02*
X-24758189Y-4544605D01*
X-24520093Y-3287462D02*
X-24281998Y-4144605D01*
X-24901046Y-4144605D01*
X-15858189Y-3744605D02*
X-15858189Y-4544605D01*
X-15620093Y-3287462D02*
X-15381998Y-4144605D01*
X-16001046Y-4144605D01*
D13*
X-40897712Y9968252D02*
X-43945712Y9968252D01*
X-31997712Y9968252D02*
X-35045712Y9968252D01*
X-23097712Y9968252D02*
X-26145712Y9968252D01*
X-14197712Y9968252D02*
X-17245712Y9968252D01*
X-40897712Y7428252D02*
X-43945712Y7428252D01*
X-31997712Y7428252D02*
X-35045712Y7428252D01*
X-23097712Y7428252D02*
X-26145712Y7428252D01*
X-14197712Y7428252D02*
X-17245712Y7428252D01*
X-40897712Y-5271748D02*
X-43945712Y-5271748D01*
X-31997712Y-5271748D02*
X-35045712Y-5271748D01*
X-23097712Y-5271748D02*
X-26145712Y-5271748D01*
X-14197712Y-5271748D02*
X-17245712Y-5271748D01*
X-40895712Y-10351748D02*
X-43945712Y-10351748D01*
X-31995712Y-10351748D02*
X-35045712Y-10351748D01*
X-23095712Y-10351748D02*
X-26145712Y-10351748D01*
X-14195712Y-10351748D02*
X-17245712Y-10351748D01*
X-40897712Y-191748D02*
X-43945712Y-191748D01*
X-31997712Y-191748D02*
X-35045712Y-191748D01*
X-23097712Y-191748D02*
X-26145712Y-191748D01*
X-14197712Y-191748D02*
X-17245712Y-191748D01*
X-40889712Y-15431748D02*
X-43989712Y-15431748D01*
X-31989712Y-15431748D02*
X-35089712Y-15431748D01*
X-23089712Y-15431748D02*
X-26189712Y-15431748D01*
X-14189712Y-15431748D02*
X-17289712Y-15431748D01*
X-40897712Y-7811748D02*
X-43945712Y-7811748D01*
X-31997712Y-7811748D02*
X-35045712Y-7811748D01*
X-23097712Y-7811748D02*
X-26145712Y-7811748D01*
X-14197712Y-7811748D02*
X-17245712Y-7811748D01*
X-40889712Y9968252D02*
X-40889712Y-15431748D01*
X-31989712Y9968252D02*
X-31989712Y-15431748D01*
X-23089712Y9968252D02*
X-23089712Y-15431748D01*
X-14189712Y9968252D02*
X-14189712Y-15431748D01*
X-40897712Y4888252D02*
X-43945712Y4888252D01*
X-31997712Y4888252D02*
X-35045712Y4888252D01*
X-23097712Y4888252D02*
X-26145712Y4888252D01*
X-14197712Y4888252D02*
X-17245712Y4888252D01*
X-40897712Y2348252D02*
X-43945712Y2348252D01*
X-31997712Y2348252D02*
X-35045712Y2348252D01*
X-23097712Y2348252D02*
X-26145712Y2348252D01*
X-14197712Y2348252D02*
X-17245712Y2348252D01*
X-40945712Y-12891748D02*
X-43945712Y-12891748D01*
X-32045712Y-12891748D02*
X-35045712Y-12891748D01*
X-23145712Y-12891748D02*
X-26145712Y-12891748D01*
X-14245712Y-12891748D02*
X-17245712Y-12891748D01*
X-40897712Y-2731748D02*
X-43945712Y-2731748D01*
X-31997712Y-2731748D02*
X-35045712Y-2731748D01*
X-23097712Y-2731748D02*
X-26145712Y-2731748D01*
X-14197712Y-2731748D02*
X-17245712Y-2731748D01*
D11*
X-6958189Y-3744605D02*
X-6958189Y-4544605D01*
X-6720093Y-3287462D02*
X-6481998Y-4144605D01*
X-7101046Y-4144605D01*
D13*
X-5297712Y-191748D02*
X-8345712Y-191748D01*
D11*
X-7005808Y-804605D02*
X-6529617Y-804605D01*
X-6481998Y-1376033D01*
X-6529617Y-1318890D01*
X-6624855Y-1261748D01*
X-6862951Y-1261748D01*
X-6958189Y-1318890D01*
X-7005808Y-1376033D01*
X-7053427Y-1490319D01*
X-7053427Y-1776033D01*
X-7005808Y-1890319D01*
X-6958189Y-1947462D01*
X-6862951Y-2004605D01*
X-6624855Y-2004605D01*
X-6529617Y-1947462D01*
X-6481998Y-1890319D01*
X-6958189Y1735395D02*
X-6767712Y1735395D01*
X-6672474Y1678252D01*
X-6624855Y1621110D01*
X-6529617Y1449681D01*
X-6481998Y1221110D01*
X-6481998Y763967D01*
X-6529617Y649681D01*
X-6577236Y592538D01*
X-6672474Y535395D01*
X-6862951Y535395D01*
X-6958189Y592538D01*
X-7005808Y649681D01*
X-7053427Y763967D01*
X-7053427Y1049681D01*
X-7005808Y1163967D01*
X-6958189Y1221110D01*
X-6862951Y1278252D01*
X-6672474Y1278252D01*
X-6577236Y1221110D01*
X-6529617Y1163967D01*
X-6481998Y1049681D01*
D13*
X-5297712Y-2731748D02*
X-8345712Y-2731748D01*
X-5297712Y2348252D02*
X-8345712Y2348252D01*
D11*
X-6434379Y4275395D02*
X-7101046Y4275395D01*
X-6672474Y3075395D01*
D13*
X-5297712Y7428252D02*
X-8345712Y7428252D01*
D11*
X-6672474Y6301110D02*
X-6577236Y6358252D01*
X-6529617Y6415395D01*
X-6481998Y6529681D01*
X-6481998Y6586824D01*
X-6529617Y6701110D01*
X-6577236Y6758252D01*
X-6672474Y6815395D01*
X-6862951Y6815395D01*
X-6958189Y6758252D01*
X-7005808Y6701110D01*
X-7053427Y6586824D01*
X-7053427Y6529681D01*
X-7005808Y6415395D01*
X-6958189Y6358252D01*
X-6862951Y6301110D01*
X-6672474Y6301110D01*
X-6577236Y6243967D01*
X-6529617Y6186824D01*
X-6481998Y6072538D01*
X-6481998Y5843967D01*
X-6529617Y5729681D01*
X-6577236Y5672538D01*
X-6672474Y5615395D01*
X-6862951Y5615395D01*
X-6958189Y5672538D01*
X-7005808Y5729681D01*
X-7053427Y5843967D01*
X-7053427Y6072538D01*
X-7005808Y6186824D01*
X-6958189Y6243967D01*
X-6862951Y6301110D01*
D13*
X-5297712Y4888252D02*
X-8345712Y4888252D01*
X-5297712Y9968252D02*
X-8345712Y9968252D01*
D11*
X-6577236Y8155395D02*
X-6767712Y8155395D01*
X-6862951Y8212538D01*
X-6910570Y8269681D01*
X-7005808Y8441110D01*
X-7053427Y8669681D01*
X-7053427Y9126824D01*
X-7005808Y9241110D01*
X-6958189Y9298252D01*
X-6862951Y9355395D01*
X-6672474Y9355395D01*
X-6577236Y9298252D01*
X-6529617Y9241110D01*
X-6481998Y9126824D01*
X-6481998Y8841110D01*
X-6529617Y8726824D01*
X-6577236Y8669681D01*
X-6672474Y8612538D01*
X-6862951Y8612538D01*
X-6958189Y8669681D01*
X-7005808Y8726824D01*
X-7053427Y8841110D01*
D13*
X-5289712Y9968252D02*
X-5289712Y-15431748D01*
X-5297712Y-5271748D02*
X-8345712Y-5271748D01*
D11*
X-6434379Y-5884605D02*
X-7053427Y-5884605D01*
X-6720093Y-6341748D01*
X-6862951Y-6341748D01*
X-6958189Y-6398890D01*
X-7005808Y-6456033D01*
X-7053427Y-6570319D01*
X-7053427Y-6856033D01*
X-7005808Y-6970319D01*
X-6958189Y-7027462D01*
X-6862951Y-7084605D01*
X-6577236Y-7084605D01*
X-6481998Y-7027462D01*
X-6434379Y-6970319D01*
D13*
X-5297712Y-7811748D02*
X-8345712Y-7811748D01*
X-5295712Y-10351748D02*
X-8345712Y-10351748D01*
D11*
X-6481998Y-8538890D02*
X-6529617Y-8481748D01*
X-6624855Y-8424605D01*
X-6862951Y-8424605D01*
X-6958189Y-8481748D01*
X-7005808Y-8538890D01*
X-7053427Y-8653176D01*
X-7053427Y-8767462D01*
X-7005808Y-8938890D01*
X-6434379Y-9624605D01*
X-7053427Y-9624605D01*
D12*
X-8846548Y-17423809D02*
X-7932262Y-17423809D01*
X-8389405Y-17423809D02*
X-8389405Y-15823809D01*
X-8237024Y-16052380D01*
X-8084643Y-16204761D01*
X-7932262Y-16280952D01*
X-9837024Y-15823809D02*
X-9989405Y-15823809D01*
X-10141786Y-15900000D01*
X-10217977Y-15976190D01*
X-10294167Y-16128571D01*
X-10370358Y-16433333D01*
X-10370358Y-16814285D01*
X-10294167Y-17119047D01*
X-10217977Y-17271428D01*
X-10141786Y-17347619D01*
X-9989405Y-17423809D01*
X-9837024Y-17423809D01*
X-9684643Y-17347619D01*
X-9608453Y-17271428D01*
X-9532262Y-17119047D01*
X-9456072Y-16814285D01*
X-9456072Y-16433333D01*
X-9532262Y-16128571D01*
X-9608453Y-15976190D01*
X-9684643Y-15900000D01*
X-9837024Y-15823809D01*
X-11360834Y-15823809D02*
X-11513215Y-15823809D01*
X-11665596Y-15900000D01*
X-11741786Y-15976190D01*
X-11817977Y-16128571D01*
X-11894167Y-16433333D01*
X-11894167Y-16814285D01*
X-11817977Y-17119047D01*
X-11741786Y-17271428D01*
X-11665596Y-17347619D01*
X-11513215Y-17423809D01*
X-11360834Y-17423809D01*
X-11208453Y-17347619D01*
X-11132262Y-17271428D01*
X-11056072Y-17119047D01*
X-10979881Y-16814285D01*
X-10979881Y-16433333D01*
X-11056072Y-16128571D01*
X-11132262Y-15976190D01*
X-11208453Y-15900000D01*
X-11360834Y-15823809D01*
X-12579881Y-17423809D02*
X-12579881Y-15823809D01*
X-12732262Y-16814285D02*
X-13189405Y-17423809D01*
X-13189405Y-16357142D02*
X-12579881Y-16966666D01*
D11*
X-7053427Y-12164605D02*
X-6481998Y-12164605D01*
X-6767712Y-12164605D02*
X-6767712Y-10964605D01*
X-6672474Y-11136033D01*
X-6577236Y-11250319D01*
X-6481998Y-11307462D01*
D13*
X-5345712Y-12891748D02*
X-8345712Y-12891748D01*
D11*
X-6720093Y-13504605D02*
X-6815332Y-13504605D01*
X-6910570Y-13561748D01*
X-6958189Y-13618890D01*
X-7005808Y-13733176D01*
X-7053427Y-13961748D01*
X-7053427Y-14247462D01*
X-7005808Y-14476033D01*
X-6958189Y-14590319D01*
X-6910570Y-14647462D01*
X-6815332Y-14704605D01*
X-6720093Y-14704605D01*
X-6624855Y-14647462D01*
X-6577236Y-14590319D01*
X-6529617Y-14476033D01*
X-6481998Y-14247462D01*
X-6481998Y-13961748D01*
X-6529617Y-13733176D01*
X-6577236Y-13618890D01*
X-6624855Y-13561748D01*
X-6720093Y-13504605D01*
D13*
X-5289712Y-15431748D02*
X-8389712Y-15431748D01*
D14*
X-2876191Y-6541428D02*
X-4476191Y-6541428D01*
X-4476191Y-6922380D01*
X-4400000Y-7150952D01*
X-4247620Y-7303333D01*
X-4095239Y-7379523D01*
X-3790477Y-7455714D01*
X-3561905Y-7455714D01*
X-3257143Y-7379523D01*
X-3104762Y-7303333D01*
X-2952381Y-7150952D01*
X-2876191Y-6922380D01*
X-2876191Y-6541428D01*
X-2952381Y-8750952D02*
X-2876191Y-8598571D01*
X-2876191Y-8293809D01*
X-2952381Y-8141428D01*
X-3104762Y-8065238D01*
X-3714286Y-8065238D01*
X-3866667Y-8141428D01*
X-3942858Y-8293809D01*
X-3942858Y-8598571D01*
X-3866667Y-8750952D01*
X-3714286Y-8827142D01*
X-3561905Y-8827142D01*
X-3409524Y-8065238D01*
X-2876191Y-9512857D02*
X-4476191Y-9512857D01*
X-3485715Y-9665238D02*
X-2876191Y-10122380D01*
X-3942858Y-10122380D02*
X-3333334Y-9512857D01*
X-2876191Y-11493809D02*
X-3714286Y-11493809D01*
X-3866667Y-11417619D01*
X-3942858Y-11265238D01*
X-3942858Y-10960476D01*
X-3866667Y-10808095D01*
X-2952381Y-11493809D02*
X-2876191Y-11341428D01*
X-2876191Y-10960476D01*
X-2952381Y-10808095D01*
X-3104762Y-10731904D01*
X-3257143Y-10731904D01*
X-3409524Y-10808095D01*
X-3485715Y-10960476D01*
X-3485715Y-11341428D01*
X-3561905Y-11493809D01*
X-2876191Y-12941428D02*
X-4476191Y-12941428D01*
X-2952381Y-12941428D02*
X-2876191Y-12789047D01*
X-2876191Y-12484285D01*
X-2952381Y-12331904D01*
X-3028572Y-12255714D01*
X-3180953Y-12179523D01*
X-3638096Y-12179523D01*
X-3790477Y-12255714D01*
X-3866667Y-12331904D01*
X-3942858Y-12484285D01*
X-3942858Y-12789047D01*
X-3866667Y-12941428D01*
X-2876191Y-14389047D02*
X-3714286Y-14389047D01*
X-3866667Y-14312857D01*
X-3942858Y-14160476D01*
X-3942858Y-13855714D01*
X-3866667Y-13703333D01*
X-2952381Y-14389047D02*
X-2876191Y-14236666D01*
X-2876191Y-13855714D01*
X-2952381Y-13703333D01*
X-3104762Y-13627142D01*
X-3257143Y-13627142D01*
X-3409524Y-13703333D01*
X-3485715Y-13855714D01*
X-3485715Y-14236666D01*
X-3561905Y-14389047D01*
D13*
X-43945712Y7428252D02*
X-43945712Y-15431748D01*
X-48771712Y-15431748D02*
X-43691712Y-15431748D01*
X-48771712Y9968252D02*
X-46485712Y9968252D01*
X-46485712Y9968252D02*
X-46485712Y7428252D01*
X-46485712Y7428252D02*
X-43945712Y7428252D01*
X-45977712Y9968252D02*
X-43945712Y9968252D01*
X-43945712Y9968252D02*
X-43945712Y7936252D01*
X-40125712Y-15431748D02*
X-40125712Y9968252D01*
X-35045712Y7428252D02*
X-35045712Y-15431748D01*
X-40125712Y-15431748D02*
X-35045712Y-15431748D01*
X-40125712Y9968252D02*
X-37585712Y9968252D01*
X-37585712Y9968252D02*
X-37585712Y7428252D01*
X-37585712Y7428252D02*
X-35045712Y7428252D01*
X-37077712Y9968252D02*
X-35045712Y9968252D01*
X-35045712Y9968252D02*
X-35045712Y7936252D01*
X-31225712Y-15431748D02*
X-31225712Y9968252D01*
X-26145712Y7428252D02*
X-26145712Y-15431748D01*
X-31225712Y-15431748D02*
X-26145712Y-15431748D01*
X-31225712Y9968252D02*
X-28685712Y9968252D01*
X-28685712Y9968252D02*
X-28685712Y7428252D01*
X-28685712Y7428252D02*
X-26145712Y7428252D01*
X-28177712Y9968252D02*
X-26145712Y9968252D01*
X-26145712Y9968252D02*
X-26145712Y7936252D01*
X-22325712Y-15431748D02*
X-22325712Y9968252D01*
X-17245712Y7428252D02*
X-17245712Y-15431748D01*
X-22325712Y-15431748D02*
X-17245712Y-15431748D01*
X-22325712Y9968252D02*
X-19785712Y9968252D01*
X-19785712Y9968252D02*
X-19785712Y7428252D01*
X-19785712Y7428252D02*
X-17245712Y7428252D01*
X-19277712Y9968252D02*
X-17245712Y9968252D01*
X-17245712Y9968252D02*
X-17245712Y7936252D01*
X-8345712Y9968252D02*
X-8345712Y7936252D01*
X-10377712Y9968252D02*
X-8345712Y9968252D01*
X-10885712Y7428252D02*
X-8345712Y7428252D01*
X-10885712Y9968252D02*
X-10885712Y7428252D01*
X-13425712Y9968252D02*
X-10885712Y9968252D01*
X-13425712Y-15431748D02*
X-8345712Y-15431748D01*
X-8345712Y7428252D02*
X-8345712Y-15431748D01*
X-13425712Y-15431748D02*
X-13425712Y9968252D01*
%LPC*%
D15*
X-47755712Y-14161748D03*
X-45215712Y-14161748D03*
X-47755712Y-11621748D03*
X-45215712Y-11621748D03*
X-47755712Y-9081748D03*
X-45215712Y-9081748D03*
X-47755712Y-6541748D03*
X-45215712Y-6541748D03*
X-47755712Y-4001748D03*
X-45215712Y-4001748D03*
X-47755712Y-1461748D03*
X-45215712Y-1461748D03*
X-47755712Y1078252D03*
X-45215712Y1078252D03*
X-47755712Y3618252D03*
X-45215712Y3618252D03*
X-47755712Y6158252D03*
X-45215712Y6158252D03*
X-47755712Y8698252D03*
D16*
X-45215712Y8698252D03*
D17*
X-1000000Y-1379073D03*
D18*
X-1000000Y-3919073D03*
X-3484656Y-3909071D03*
D17*
X-3484656Y-1369071D03*
D15*
X-38855712Y-14161748D03*
X-36315712Y-14161748D03*
X-38855712Y-11621748D03*
X-36315712Y-11621748D03*
X-38855712Y-9081748D03*
X-36315712Y-9081748D03*
X-38855712Y-6541748D03*
X-36315712Y-6541748D03*
X-38855712Y-4001748D03*
X-36315712Y-4001748D03*
X-38855712Y-1461748D03*
X-36315712Y-1461748D03*
X-38855712Y1078252D03*
X-36315712Y1078252D03*
X-38855712Y3618252D03*
X-36315712Y3618252D03*
X-38855712Y6158252D03*
X-36315712Y6158252D03*
X-38855712Y8698252D03*
D16*
X-36315712Y8698252D03*
D15*
X-29955712Y-14161748D03*
X-27415712Y-14161748D03*
X-29955712Y-11621748D03*
X-27415712Y-11621748D03*
X-29955712Y-9081748D03*
X-27415712Y-9081748D03*
X-29955712Y-6541748D03*
X-27415712Y-6541748D03*
X-29955712Y-4001748D03*
X-27415712Y-4001748D03*
X-29955712Y-1461748D03*
X-27415712Y-1461748D03*
X-29955712Y1078252D03*
X-27415712Y1078252D03*
X-29955712Y3618252D03*
X-27415712Y3618252D03*
X-29955712Y6158252D03*
X-27415712Y6158252D03*
X-29955712Y8698252D03*
D16*
X-27415712Y8698252D03*
D15*
X-21055712Y-14161748D03*
X-18515712Y-14161748D03*
X-21055712Y-11621748D03*
X-18515712Y-11621748D03*
X-21055712Y-9081748D03*
X-18515712Y-9081748D03*
X-21055712Y-6541748D03*
X-18515712Y-6541748D03*
X-21055712Y-4001748D03*
X-18515712Y-4001748D03*
X-21055712Y-1461748D03*
X-18515712Y-1461748D03*
X-21055712Y1078252D03*
X-18515712Y1078252D03*
X-21055712Y3618252D03*
X-18515712Y3618252D03*
X-21055712Y6158252D03*
X-18515712Y6158252D03*
X-21055712Y8698252D03*
D16*
X-18515712Y8698252D03*
X-9615712Y8698252D03*
D15*
X-12155712Y8698252D03*
X-9615712Y6158252D03*
X-12155712Y6158252D03*
X-9615712Y3618252D03*
X-12155712Y3618252D03*
X-9615712Y1078252D03*
X-12155712Y1078252D03*
X-9615712Y-1461748D03*
X-12155712Y-1461748D03*
X-9615712Y-4001748D03*
X-12155712Y-4001748D03*
X-9615712Y-6541748D03*
X-12155712Y-6541748D03*
X-9615712Y-9081748D03*
X-12155712Y-9081748D03*
X-9615712Y-11621748D03*
X-12155712Y-11621748D03*
X-9615712Y-14161748D03*
X-12155712Y-14161748D03*
M02*
