G04 #@! TF.GenerationSoftware,KiCad,Pcbnew,(2017-01-20 revision 550a1ea)-makepkg*
G04 #@! TF.CreationDate,2017-01-21T19:12:54+01:00*
G04 #@! TF.ProjectId,dekada,64656B6164612E6B696361645F706362,rev?*
G04 #@! TF.FileFunction,Copper,L1,Top,Signal*
G04 #@! TF.FilePolarity,Positive*
%FSLAX46Y46*%
G04 Gerber Fmt 4.6, Leading zero omitted, Abs format (unit mm)*
G04 Created by KiCad (PCBNEW (2017-01-20 revision 550a1ea)-makepkg) date 01/21/17 19:12:54*
%MOMM*%
%LPD*%
G01*
G04 APERTURE LIST*
%ADD10C,0.050000*%
%ADD11C,0.150000*%
%ADD12O,2.000000X2.000000*%
%ADD13R,2.000000X2.000000*%
%ADD14O,2.032000X2.032000*%
%ADD15R,2.032000X2.032000*%
%ADD16R,1.600000X1.000000*%
%ADD17C,1.000000*%
%ADD18C,1.500000*%
G04 APERTURE END LIST*
D10*
D11*
X-48109524Y-17552380D02*
X-48204762Y-17504761D01*
X-48252381Y-17409523D01*
X-48252381Y-16552380D01*
X-47300000Y-16885714D02*
X-47300000Y-17552380D01*
X-47728572Y-16885714D02*
X-47728572Y-17409523D01*
X-47680953Y-17504761D01*
X-47585715Y-17552380D01*
X-47442858Y-17552380D01*
X-47347620Y-17504761D01*
X-47300000Y-17457142D01*
X-46966667Y-16885714D02*
X-46585715Y-16885714D01*
X-46823810Y-17552380D02*
X-46823810Y-16695238D01*
X-46776191Y-16600000D01*
X-46680953Y-16552380D01*
X-46585715Y-16552380D01*
X-46395239Y-16885714D02*
X-46014286Y-16885714D01*
X-46252381Y-16552380D02*
X-46252381Y-17409523D01*
X-46204762Y-17504761D01*
X-46109524Y-17552380D01*
X-46014286Y-17552380D01*
X-45300000Y-17504761D02*
X-45395239Y-17552380D01*
X-45585715Y-17552380D01*
X-45680953Y-17504761D01*
X-45728572Y-17409523D01*
X-45728572Y-17028571D01*
X-45680953Y-16933333D01*
X-45585715Y-16885714D01*
X-45395239Y-16885714D01*
X-45300000Y-16933333D01*
X-45252381Y-17028571D01*
X-45252381Y-17123809D01*
X-45728572Y-17219047D01*
X-44823810Y-17552380D02*
X-44823810Y-16552380D01*
X-44728572Y-17171428D02*
X-44442858Y-17552380D01*
X-44442858Y-16885714D02*
X-44823810Y-17266666D01*
X-42538096Y-16647619D02*
X-42490477Y-16600000D01*
X-42395239Y-16552380D01*
X-42157143Y-16552380D01*
X-42061905Y-16600000D01*
X-42014286Y-16647619D01*
X-41966667Y-16742857D01*
X-41966667Y-16838095D01*
X-42014286Y-16980952D01*
X-42585715Y-17552380D01*
X-41966667Y-17552380D01*
X-41347620Y-16552380D02*
X-41252381Y-16552380D01*
X-41157143Y-16600000D01*
X-41109524Y-16647619D01*
X-41061905Y-16742857D01*
X-41014286Y-16933333D01*
X-41014286Y-17171428D01*
X-41061905Y-17361904D01*
X-41109524Y-17457142D01*
X-41157143Y-17504761D01*
X-41252381Y-17552380D01*
X-41347620Y-17552380D01*
X-41442858Y-17504761D01*
X-41490477Y-17457142D01*
X-41538096Y-17361904D01*
X-41585715Y-17171428D01*
X-41585715Y-16933333D01*
X-41538096Y-16742857D01*
X-41490477Y-16647619D01*
X-41442858Y-16600000D01*
X-41347620Y-16552380D01*
X-40061905Y-17552380D02*
X-40633334Y-17552380D01*
X-40347620Y-17552380D02*
X-40347620Y-16552380D01*
X-40442858Y-16695238D01*
X-40538096Y-16790476D01*
X-40633334Y-16838095D01*
X-39728572Y-16552380D02*
X-39061905Y-16552380D01*
X-39490477Y-17552380D01*
X-38490477Y-16552380D02*
X-38395239Y-16552380D01*
X-38300000Y-16600000D01*
X-38252381Y-16647619D01*
X-38204762Y-16742857D01*
X-38157143Y-16933333D01*
X-38157143Y-17171428D01*
X-38204762Y-17361904D01*
X-38252381Y-17457142D01*
X-38300000Y-17504761D01*
X-38395239Y-17552380D01*
X-38490477Y-17552380D01*
X-38585715Y-17504761D01*
X-38633334Y-17457142D01*
X-38680953Y-17361904D01*
X-38728572Y-17171428D01*
X-38728572Y-16933333D01*
X-38680953Y-16742857D01*
X-38633334Y-16647619D01*
X-38585715Y-16600000D01*
X-38490477Y-16552380D01*
X-37204762Y-17552380D02*
X-37776191Y-17552380D01*
X-37490477Y-17552380D02*
X-37490477Y-16552380D01*
X-37585715Y-16695238D01*
X-37680953Y-16790476D01*
X-37776191Y-16838095D01*
X-36823810Y-16647619D02*
X-36776191Y-16600000D01*
X-36680953Y-16552380D01*
X-36442858Y-16552380D01*
X-36347620Y-16600000D01*
X-36300000Y-16647619D01*
X-36252381Y-16742857D01*
X-36252381Y-16838095D01*
X-36300000Y-16980952D01*
X-36871429Y-17552380D01*
X-36252381Y-17552380D01*
X-35300000Y-17552380D02*
X-35871429Y-17552380D01*
X-35585715Y-17552380D02*
X-35585715Y-16552380D01*
X-35680953Y-16695238D01*
X-35776191Y-16790476D01*
X-35871429Y-16838095D01*
D12*
X-47755712Y-14161748D03*
X-45215712Y-14161748D03*
X-47755712Y-11621748D03*
X-45215712Y-11621748D03*
X-47755712Y-9081748D03*
X-45215712Y-9081748D03*
X-47755712Y-6541748D03*
X-45215712Y-6541748D03*
X-47755712Y-4001748D03*
X-45215712Y-4001748D03*
X-47755712Y-1461748D03*
X-45215712Y-1461748D03*
X-47755712Y1078252D03*
X-45215712Y1078252D03*
X-47755712Y3618252D03*
X-45215712Y3618252D03*
X-47755712Y6158252D03*
X-45215712Y6158252D03*
X-47755712Y8698252D03*
D13*
X-45215712Y8698252D03*
D14*
X-1000000Y-1379073D03*
D15*
X-1000000Y-3919073D03*
X-3484656Y-3909071D03*
D14*
X-3484656Y-1369071D03*
D12*
X-38855712Y-14161748D03*
X-36315712Y-14161748D03*
X-38855712Y-11621748D03*
X-36315712Y-11621748D03*
X-38855712Y-9081748D03*
X-36315712Y-9081748D03*
X-38855712Y-6541748D03*
X-36315712Y-6541748D03*
X-38855712Y-4001748D03*
X-36315712Y-4001748D03*
X-38855712Y-1461748D03*
X-36315712Y-1461748D03*
X-38855712Y1078252D03*
X-36315712Y1078252D03*
X-38855712Y3618252D03*
X-36315712Y3618252D03*
X-38855712Y6158252D03*
X-36315712Y6158252D03*
X-38855712Y8698252D03*
D13*
X-36315712Y8698252D03*
D12*
X-29955712Y-14161748D03*
X-27415712Y-14161748D03*
X-29955712Y-11621748D03*
X-27415712Y-11621748D03*
X-29955712Y-9081748D03*
X-27415712Y-9081748D03*
X-29955712Y-6541748D03*
X-27415712Y-6541748D03*
X-29955712Y-4001748D03*
X-27415712Y-4001748D03*
X-29955712Y-1461748D03*
X-27415712Y-1461748D03*
X-29955712Y1078252D03*
X-27415712Y1078252D03*
X-29955712Y3618252D03*
X-27415712Y3618252D03*
X-29955712Y6158252D03*
X-27415712Y6158252D03*
X-29955712Y8698252D03*
D13*
X-27415712Y8698252D03*
D12*
X-21055712Y-14161748D03*
X-18515712Y-14161748D03*
X-21055712Y-11621748D03*
X-18515712Y-11621748D03*
X-21055712Y-9081748D03*
X-18515712Y-9081748D03*
X-21055712Y-6541748D03*
X-18515712Y-6541748D03*
X-21055712Y-4001748D03*
X-18515712Y-4001748D03*
X-21055712Y-1461748D03*
X-18515712Y-1461748D03*
X-21055712Y1078252D03*
X-18515712Y1078252D03*
X-21055712Y3618252D03*
X-18515712Y3618252D03*
X-21055712Y6158252D03*
X-18515712Y6158252D03*
X-21055712Y8698252D03*
D13*
X-18515712Y8698252D03*
D16*
X-43078712Y-4407748D03*
X-43078712Y-1007748D03*
X-34178712Y-4407748D03*
X-34178712Y-1007748D03*
X-25278712Y-4407748D03*
X-25278712Y-1007748D03*
X-16378712Y-4407748D03*
X-16378712Y-1007748D03*
X-41192712Y1532252D03*
X-41192712Y-1867748D03*
X-32292712Y1532252D03*
X-32292712Y-1867748D03*
X-23392712Y1532252D03*
X-23392712Y-1867748D03*
X-14492712Y1532252D03*
X-14492712Y-1867748D03*
X-41192712Y-8627748D03*
X-41192712Y-12027748D03*
X-32292712Y-8627748D03*
X-32292712Y-12027748D03*
X-23392712Y-8627748D03*
X-23392712Y-12027748D03*
X-14492712Y-8627748D03*
X-14492712Y-12027748D03*
X-43078712Y-14567748D03*
X-43078712Y-11167748D03*
X-34178712Y-14567748D03*
X-34178712Y-11167748D03*
X-25278712Y-14567748D03*
X-25278712Y-11167748D03*
X-16378712Y-14567748D03*
X-16378712Y-11167748D03*
X-41192712Y-6947748D03*
X-41192712Y-3547748D03*
X-32292712Y-6947748D03*
X-32292712Y-3547748D03*
X-23392712Y-6947748D03*
X-23392712Y-3547748D03*
X-14492712Y-6947748D03*
X-14492712Y-3547748D03*
X-43078712Y4072252D03*
X-43078712Y672252D03*
X-34178712Y4072252D03*
X-34178712Y672252D03*
X-25278712Y4072252D03*
X-25278712Y672252D03*
X-16378712Y4072252D03*
X-16378712Y672252D03*
X-43078712Y-6087748D03*
X-43078712Y-9487748D03*
X-34178712Y-6087748D03*
X-34178712Y-9487748D03*
X-25278712Y-6087748D03*
X-25278712Y-9487748D03*
X-16378712Y-6087748D03*
X-16378712Y-9487748D03*
X-41192712Y3212252D03*
X-41192712Y6612252D03*
X-32292712Y3212252D03*
X-32292712Y6612252D03*
X-23392712Y3212252D03*
X-23392712Y6612252D03*
X-14492712Y3212252D03*
X-14492712Y6612252D03*
X-43078712Y5752252D03*
X-43078712Y9152252D03*
X-34178712Y5752252D03*
X-34178712Y9152252D03*
X-25278712Y5752252D03*
X-25278712Y9152252D03*
X-16378712Y5752252D03*
X-16378712Y9152252D03*
D13*
X-9615712Y8698252D03*
D12*
X-12155712Y8698252D03*
X-9615712Y6158252D03*
X-12155712Y6158252D03*
X-9615712Y3618252D03*
X-12155712Y3618252D03*
X-9615712Y1078252D03*
X-12155712Y1078252D03*
X-9615712Y-1461748D03*
X-12155712Y-1461748D03*
X-9615712Y-4001748D03*
X-12155712Y-4001748D03*
X-9615712Y-6541748D03*
X-12155712Y-6541748D03*
X-9615712Y-9081748D03*
X-12155712Y-9081748D03*
X-9615712Y-11621748D03*
X-12155712Y-11621748D03*
X-9615712Y-14161748D03*
X-12155712Y-14161748D03*
D16*
X-7478712Y-1007748D03*
X-7478712Y-4407748D03*
X-7478712Y672252D03*
X-7478712Y4072252D03*
X-5592712Y-3547748D03*
X-5592712Y-6947748D03*
X-7478712Y-9487748D03*
X-7478712Y-6087748D03*
X-5592712Y-12027748D03*
X-5592712Y-8627748D03*
X-7478712Y-11167748D03*
X-7478712Y-14567748D03*
X-5592712Y6612252D03*
X-5592712Y3212252D03*
X-5592712Y-1867748D03*
X-5592712Y1532252D03*
X-7478712Y9152252D03*
X-7478712Y5752252D03*
D17*
X-36315712Y8698252D02*
X-34632712Y8698252D01*
X-34632712Y8698252D02*
X-34178712Y9152252D01*
X-36315712Y6158252D02*
X-34584712Y6158252D01*
X-34584712Y6158252D02*
X-34178712Y5752252D01*
X-31992712Y6612252D02*
X-33018712Y6612252D01*
X-33018712Y6612252D02*
X-33878712Y5752252D01*
X-36315712Y3618252D02*
X-34632712Y3618252D01*
X-34632712Y3618252D02*
X-34178712Y4072252D01*
X-33018712Y3212252D02*
X-33878712Y4072252D01*
X-31992712Y3212252D02*
X-33018712Y3212252D01*
X-36315712Y1078252D02*
X-34584712Y1078252D01*
X-34584712Y1078252D02*
X-34178712Y672252D01*
X-33018712Y1532252D02*
X-33878712Y672252D01*
X-31992712Y1532252D02*
X-33018712Y1532252D01*
X-36315712Y-1461748D02*
X-34632712Y-1461748D01*
X-34632712Y-1461748D02*
X-34178712Y-1007748D01*
X-33018712Y-1867748D02*
X-33878712Y-1007748D01*
X-31992712Y-1867748D02*
X-33018712Y-1867748D01*
X-36315712Y-4001748D02*
X-34584712Y-4001748D01*
X-34584712Y-4001748D02*
X-34178712Y-4407748D01*
X-33018712Y-3547748D02*
X-33878712Y-4407748D01*
X-31992712Y-3547748D02*
X-33018712Y-3547748D01*
X-36315712Y-6541748D02*
X-34632712Y-6541748D01*
X-34632712Y-6541748D02*
X-34178712Y-6087748D01*
X-33018712Y-6947748D02*
X-33878712Y-6087748D01*
X-31992712Y-6947748D02*
X-33018712Y-6947748D01*
X-36315712Y-9081748D02*
X-34584712Y-9081748D01*
X-34584712Y-9081748D02*
X-34178712Y-9487748D01*
X-31992712Y-8627748D02*
X-33018712Y-8627748D01*
X-33018712Y-8627748D02*
X-33878712Y-9487748D01*
X-36315712Y-11621748D02*
X-34632712Y-11621748D01*
X-34632712Y-11621748D02*
X-34178712Y-11167748D01*
X-31992712Y-12027748D02*
X-33018712Y-12027748D01*
X-33018712Y-12027748D02*
X-33878712Y-11167748D01*
X-25732712Y8698252D02*
X-25278712Y9152252D01*
X-27415712Y8698252D02*
X-25732712Y8698252D01*
X-16832712Y8698252D02*
X-16378712Y9152252D01*
X-18515712Y8698252D02*
X-16832712Y8698252D01*
X-45215712Y8698252D02*
X-43532712Y8698252D01*
X-43532712Y8698252D02*
X-43078712Y9152252D01*
X-45215712Y6158252D02*
X-43484712Y6158252D01*
X-43484712Y6158252D02*
X-43078712Y5752252D01*
X-40892712Y6612252D02*
X-41918712Y6612252D01*
X-41918712Y6612252D02*
X-42778712Y5752252D01*
X-45215712Y3618252D02*
X-43532712Y3618252D01*
X-43532712Y3618252D02*
X-43078712Y4072252D01*
X-41918712Y3212252D02*
X-42778712Y4072252D01*
X-40892712Y3212252D02*
X-41918712Y3212252D01*
X-45215712Y1078252D02*
X-43484712Y1078252D01*
X-43484712Y1078252D02*
X-43078712Y672252D01*
X-41918712Y1532252D02*
X-42778712Y672252D01*
X-40892712Y1532252D02*
X-41918712Y1532252D01*
X-45215712Y-1461748D02*
X-43532712Y-1461748D01*
X-43532712Y-1461748D02*
X-43078712Y-1007748D01*
X-41918712Y-1867748D02*
X-42778712Y-1007748D01*
X-40892712Y-1867748D02*
X-41918712Y-1867748D01*
X-45215712Y-4001748D02*
X-43484712Y-4001748D01*
X-43484712Y-4001748D02*
X-43078712Y-4407748D01*
X-41918712Y-3547748D02*
X-42778712Y-4407748D01*
X-40892712Y-3547748D02*
X-41918712Y-3547748D01*
X-45215712Y-6541748D02*
X-43532712Y-6541748D01*
X-40892712Y-6947748D02*
X-41918712Y-6947748D01*
X-43532712Y-6541748D02*
X-43078712Y-6087748D01*
X-41918712Y-6947748D02*
X-42778712Y-6087748D01*
X-45215712Y-9081748D02*
X-43484712Y-9081748D01*
X-43484712Y-9081748D02*
X-43078712Y-9487748D01*
X-41918712Y-8627748D02*
X-42778712Y-9487748D01*
X-40892712Y-8627748D02*
X-41918712Y-8627748D01*
X-45215712Y-11621748D02*
X-43532712Y-11621748D01*
X-43532712Y-11621748D02*
X-43078712Y-11167748D01*
X-41918712Y-12027748D02*
X-42778712Y-11167748D01*
X-40892712Y-12027748D02*
X-41918712Y-12027748D01*
X-25684712Y6158252D02*
X-25278712Y5752252D01*
X-23092712Y6612252D02*
X-24118712Y6612252D01*
X-24118712Y6612252D02*
X-24978712Y5752252D01*
X-27415712Y6158252D02*
X-25684712Y6158252D01*
X-25732712Y3618252D02*
X-25278712Y4072252D01*
X-24118712Y3212252D02*
X-24978712Y4072252D01*
X-23092712Y3212252D02*
X-24118712Y3212252D01*
X-27415712Y3618252D02*
X-25732712Y3618252D01*
X-25684712Y1078252D02*
X-25278712Y672252D01*
X-24118712Y1532252D02*
X-24978712Y672252D01*
X-23092712Y1532252D02*
X-24118712Y1532252D01*
X-27415712Y1078252D02*
X-25684712Y1078252D01*
X-25732712Y-1461748D02*
X-25278712Y-1007748D01*
X-24118712Y-1867748D02*
X-24978712Y-1007748D01*
X-23092712Y-1867748D02*
X-24118712Y-1867748D01*
X-27415712Y-1461748D02*
X-25732712Y-1461748D01*
X-25684712Y-4001748D02*
X-25278712Y-4407748D01*
X-24118712Y-3547748D02*
X-24978712Y-4407748D01*
X-23092712Y-3547748D02*
X-24118712Y-3547748D01*
X-27415712Y-4001748D02*
X-25684712Y-4001748D01*
X-25732712Y-6541748D02*
X-25278712Y-6087748D01*
X-24118712Y-6947748D02*
X-24978712Y-6087748D01*
X-23092712Y-6947748D02*
X-24118712Y-6947748D01*
X-27415712Y-6541748D02*
X-25732712Y-6541748D01*
X-25684712Y-9081748D02*
X-25278712Y-9487748D01*
X-23092712Y-8627748D02*
X-24118712Y-8627748D01*
X-24118712Y-8627748D02*
X-24978712Y-9487748D01*
X-27415712Y-9081748D02*
X-25684712Y-9081748D01*
X-25732712Y-11621748D02*
X-25278712Y-11167748D01*
X-23092712Y-12027748D02*
X-24118712Y-12027748D01*
X-24118712Y-12027748D02*
X-24978712Y-11167748D01*
X-27415712Y-11621748D02*
X-25732712Y-11621748D01*
X-16784712Y6158252D02*
X-16378712Y5752252D01*
X-14192712Y6612252D02*
X-15218712Y6612252D01*
X-15218712Y6612252D02*
X-16078712Y5752252D01*
X-18515712Y6158252D02*
X-16784712Y6158252D01*
X-16832712Y3618252D02*
X-16378712Y4072252D01*
X-15218712Y3212252D02*
X-16078712Y4072252D01*
X-14192712Y3212252D02*
X-15218712Y3212252D01*
X-18515712Y3618252D02*
X-16832712Y3618252D01*
X-16784712Y1078252D02*
X-16378712Y672252D01*
X-15218712Y1532252D02*
X-16078712Y672252D01*
X-14192712Y1532252D02*
X-15218712Y1532252D01*
X-18515712Y1078252D02*
X-16784712Y1078252D01*
X-16832712Y-1461748D02*
X-16378712Y-1007748D01*
X-15218712Y-1867748D02*
X-16078712Y-1007748D01*
X-14192712Y-1867748D02*
X-15218712Y-1867748D01*
X-18515712Y-1461748D02*
X-16832712Y-1461748D01*
X-16784712Y-4001748D02*
X-16378712Y-4407748D01*
X-15218712Y-3547748D02*
X-16078712Y-4407748D01*
X-14192712Y-3547748D02*
X-15218712Y-3547748D01*
X-18515712Y-4001748D02*
X-16784712Y-4001748D01*
X-16832712Y-6541748D02*
X-16378712Y-6087748D01*
X-15218712Y-6947748D02*
X-16078712Y-6087748D01*
X-14192712Y-6947748D02*
X-15218712Y-6947748D01*
X-18515712Y-6541748D02*
X-16832712Y-6541748D01*
X-16784712Y-9081748D02*
X-16378712Y-9487748D01*
X-14192712Y-8627748D02*
X-15218712Y-8627748D01*
X-15218712Y-8627748D02*
X-16078712Y-9487748D01*
X-18515712Y-9081748D02*
X-16784712Y-9081748D01*
X-16832712Y-11621748D02*
X-16378712Y-11167748D01*
X-14192712Y-12027748D02*
X-15218712Y-12027748D01*
X-15218712Y-12027748D02*
X-16078712Y-11167748D01*
X-18515712Y-11621748D02*
X-16832712Y-11621748D01*
X-7932712Y8698252D02*
X-7478712Y9152252D01*
X-9615712Y8698252D02*
X-7932712Y8698252D01*
X-7884712Y6158252D02*
X-7478712Y5752252D01*
X-5292712Y6612252D02*
X-6318712Y6612252D01*
X-6318712Y6612252D02*
X-7178712Y5752252D01*
X-9615712Y6158252D02*
X-7884712Y6158252D01*
X-7932712Y3618252D02*
X-7478712Y4072252D01*
X-5292712Y3212252D02*
X-6318712Y3212252D01*
X-6318712Y3212252D02*
X-7178712Y4072252D01*
X-9615712Y3618252D02*
X-7932712Y3618252D01*
X-7884712Y1078252D02*
X-7478712Y672252D01*
X-5292712Y1532252D02*
X-6318712Y1532252D01*
X-6318712Y1532252D02*
X-7178712Y672252D01*
X-9615712Y1078252D02*
X-7884712Y1078252D01*
X-7932712Y-1461748D02*
X-7478712Y-1007748D01*
X-5292712Y-1867748D02*
X-6318712Y-1867748D01*
X-6318712Y-1867748D02*
X-7178712Y-1007748D01*
X-9615712Y-1461748D02*
X-7932712Y-1461748D01*
X-7884712Y-4001748D02*
X-7478712Y-4407748D01*
X-5292712Y-3547748D02*
X-6318712Y-3547748D01*
X-6318712Y-3547748D02*
X-7178712Y-4407748D01*
X-9615712Y-4001748D02*
X-7884712Y-4001748D01*
X-7932712Y-6541748D02*
X-7478712Y-6087748D01*
X-5292712Y-6947748D02*
X-6318712Y-6947748D01*
X-6318712Y-6947748D02*
X-7178712Y-6087748D01*
X-9615712Y-6541748D02*
X-7932712Y-6541748D01*
X-7884712Y-9081748D02*
X-7478712Y-9487748D01*
X-5292712Y-8627748D02*
X-6318712Y-8627748D01*
X-6318712Y-8627748D02*
X-7178712Y-9487748D01*
X-9615712Y-9081748D02*
X-7884712Y-9081748D01*
X-7932712Y-11621748D02*
X-7478712Y-11167748D01*
X-5292712Y-12027748D02*
X-6318712Y-12027748D01*
X-6318712Y-12027748D02*
X-7178712Y-11167748D01*
X-9615712Y-11621748D02*
X-7932712Y-11621748D01*
D18*
X-5109252Y-14567748D02*
X-7478712Y-14567748D01*
D17*
X-7884712Y-14161748D02*
X-7478712Y-14567748D01*
D18*
X-3484656Y-12943152D02*
X-5109252Y-14567748D01*
D17*
X-9615712Y-14161748D02*
X-7884712Y-14161748D01*
D18*
X-3484656Y-3909071D02*
X-3484656Y-12943152D01*
X-3484656Y-3909071D02*
X-1010002Y-3909071D01*
X-47755712Y-11621748D02*
X-47755712Y-9081748D01*
X-47755712Y6158252D02*
X-47755712Y8698252D01*
X-47755712Y3618252D02*
X-47755712Y6158252D01*
X-47755712Y1078252D02*
X-47755712Y3618252D01*
X-47755712Y-1461748D02*
X-47755712Y1078252D01*
X-47755712Y-4001748D02*
X-47755712Y-1461748D01*
X-47755712Y-6541748D02*
X-47755712Y-4001748D01*
X-47755712Y-9081748D02*
X-47755712Y-6541748D01*
X-47755712Y-14161748D02*
X-47755712Y-11621748D01*
X-47755712Y8698252D02*
X-47755712Y-9507670D01*
X-3484656Y-1369071D02*
X-3484656Y8115398D01*
X-3484656Y8115398D02*
X-6607250Y11237992D01*
X-6607250Y11237992D02*
X-46630185Y11237992D01*
X-46630185Y11237992D02*
X-47755712Y10112465D01*
X-47755712Y10112465D02*
X-47755712Y8698252D01*
X-3484656Y-1369071D02*
X-1010002Y-1369071D01*
X-38855712Y6158252D02*
X-38855712Y8698252D01*
X-38855712Y3618252D02*
X-38855712Y6158252D01*
X-38855712Y1078252D02*
X-38855712Y3618252D01*
X-38855712Y-1461748D02*
X-38855712Y1078252D01*
X-38855712Y-4001748D02*
X-38855712Y-1461748D01*
X-38855712Y-6541748D02*
X-38855712Y-4001748D01*
X-38855712Y-9081748D02*
X-38855712Y-6541748D01*
X-38855712Y-11621748D02*
X-38855712Y-9081748D01*
X-38855712Y-14161748D02*
X-38855712Y-11621748D01*
X-43078712Y-14567748D02*
X-39261712Y-14567748D01*
X-39261712Y-14567748D02*
X-38855712Y-14161748D01*
D17*
X-43484712Y-14161748D02*
X-43078712Y-14567748D01*
X-45215712Y-14161748D02*
X-43484712Y-14161748D01*
D18*
X-29955712Y-11621748D02*
X-29955712Y-14161748D01*
X-29955712Y-9081748D02*
X-29955712Y-11621748D01*
X-29955712Y-6541748D02*
X-29955712Y-9081748D01*
X-29955712Y-4001748D02*
X-29955712Y-6541748D01*
X-29955712Y-1461748D02*
X-29955712Y-4001748D01*
X-29955712Y1078252D02*
X-29955712Y-1461748D01*
X-29955712Y3618252D02*
X-29955712Y1078252D01*
X-29955712Y6158252D02*
X-29955712Y3618252D01*
X-29955712Y8698252D02*
X-29955712Y6158252D01*
X-34178712Y-14567748D02*
X-30361712Y-14567748D01*
X-30361712Y-14567748D02*
X-29955712Y-14161748D01*
D17*
X-36315712Y-14161748D02*
X-34584712Y-14161748D01*
X-34584712Y-14161748D02*
X-34178712Y-14567748D01*
D18*
X-21055712Y6158252D02*
X-21055712Y8698252D01*
X-21055712Y3618252D02*
X-21055712Y6158252D01*
X-21055712Y1078252D02*
X-21055712Y3618252D01*
X-21055712Y-1461748D02*
X-21055712Y1078252D01*
X-21055712Y-4001748D02*
X-21055712Y-1461748D01*
X-21055712Y-6541748D02*
X-21055712Y-4001748D01*
X-21055712Y-9081748D02*
X-21055712Y-6541748D01*
X-21055712Y-11621748D02*
X-21055712Y-9081748D01*
X-21055712Y-14161748D02*
X-21055712Y-11621748D01*
X-25278712Y-14567748D02*
X-21461712Y-14567748D01*
X-21461712Y-14567748D02*
X-21055712Y-14161748D01*
D17*
X-25684712Y-14161748D02*
X-25278712Y-14567748D01*
X-27415712Y-14161748D02*
X-25684712Y-14161748D01*
D18*
X-12155712Y-11621748D02*
X-12155712Y-14161748D01*
X-12155712Y-9081748D02*
X-12155712Y-11621748D01*
X-12155712Y-6541748D02*
X-12155712Y-9081748D01*
X-12155712Y-4001748D02*
X-12155712Y-6541748D01*
X-12155712Y-1461748D02*
X-12155712Y-4001748D01*
X-12155712Y1078252D02*
X-12155712Y-1461748D01*
X-12155712Y3618252D02*
X-12155712Y1078252D01*
X-12155712Y6158252D02*
X-12155712Y3618252D01*
X-12155712Y8698252D02*
X-12155712Y6158252D01*
X-16378712Y-14567748D02*
X-12561712Y-14567748D01*
X-12561712Y-14567748D02*
X-12155712Y-14161748D01*
D17*
X-16784712Y-14161748D02*
X-16378712Y-14567748D01*
X-18515712Y-14161748D02*
X-16784712Y-14161748D01*
M02*
