G04 #@! TF.GenerationSoftware,KiCad,Pcbnew,(2017-01-20 revision 550a1ea)-makepkg*
G04 #@! TF.CreationDate,2017-01-21T19:12:54+01:00*
G04 #@! TF.ProjectId,dekada,64656B6164612E6B696361645F706362,rev?*
G04 #@! TF.FileFunction,Soldermask,Top*
G04 #@! TF.FilePolarity,Negative*
%FSLAX46Y46*%
G04 Gerber Fmt 4.6, Leading zero omitted, Abs format (unit mm)*
G04 Created by KiCad (PCBNEW (2017-01-20 revision 550a1ea)-makepkg) date 01/21/17 19:12:54*
%MOMM*%
%LPD*%
G01*
G04 APERTURE LIST*
%ADD10C,0.050000*%
%ADD11O,2.000000X2.000000*%
%ADD12R,2.000000X2.000000*%
%ADD13O,2.032000X2.032000*%
%ADD14R,2.032000X2.032000*%
%ADD15R,1.600000X1.000000*%
G04 APERTURE END LIST*
D10*
D11*
X-47755712Y-14161748D03*
X-45215712Y-14161748D03*
X-47755712Y-11621748D03*
X-45215712Y-11621748D03*
X-47755712Y-9081748D03*
X-45215712Y-9081748D03*
X-47755712Y-6541748D03*
X-45215712Y-6541748D03*
X-47755712Y-4001748D03*
X-45215712Y-4001748D03*
X-47755712Y-1461748D03*
X-45215712Y-1461748D03*
X-47755712Y1078252D03*
X-45215712Y1078252D03*
X-47755712Y3618252D03*
X-45215712Y3618252D03*
X-47755712Y6158252D03*
X-45215712Y6158252D03*
X-47755712Y8698252D03*
D12*
X-45215712Y8698252D03*
D13*
X-1000000Y-1379073D03*
D14*
X-1000000Y-3919073D03*
X-3484656Y-3909071D03*
D13*
X-3484656Y-1369071D03*
D11*
X-38855712Y-14161748D03*
X-36315712Y-14161748D03*
X-38855712Y-11621748D03*
X-36315712Y-11621748D03*
X-38855712Y-9081748D03*
X-36315712Y-9081748D03*
X-38855712Y-6541748D03*
X-36315712Y-6541748D03*
X-38855712Y-4001748D03*
X-36315712Y-4001748D03*
X-38855712Y-1461748D03*
X-36315712Y-1461748D03*
X-38855712Y1078252D03*
X-36315712Y1078252D03*
X-38855712Y3618252D03*
X-36315712Y3618252D03*
X-38855712Y6158252D03*
X-36315712Y6158252D03*
X-38855712Y8698252D03*
D12*
X-36315712Y8698252D03*
D11*
X-29955712Y-14161748D03*
X-27415712Y-14161748D03*
X-29955712Y-11621748D03*
X-27415712Y-11621748D03*
X-29955712Y-9081748D03*
X-27415712Y-9081748D03*
X-29955712Y-6541748D03*
X-27415712Y-6541748D03*
X-29955712Y-4001748D03*
X-27415712Y-4001748D03*
X-29955712Y-1461748D03*
X-27415712Y-1461748D03*
X-29955712Y1078252D03*
X-27415712Y1078252D03*
X-29955712Y3618252D03*
X-27415712Y3618252D03*
X-29955712Y6158252D03*
X-27415712Y6158252D03*
X-29955712Y8698252D03*
D12*
X-27415712Y8698252D03*
D11*
X-21055712Y-14161748D03*
X-18515712Y-14161748D03*
X-21055712Y-11621748D03*
X-18515712Y-11621748D03*
X-21055712Y-9081748D03*
X-18515712Y-9081748D03*
X-21055712Y-6541748D03*
X-18515712Y-6541748D03*
X-21055712Y-4001748D03*
X-18515712Y-4001748D03*
X-21055712Y-1461748D03*
X-18515712Y-1461748D03*
X-21055712Y1078252D03*
X-18515712Y1078252D03*
X-21055712Y3618252D03*
X-18515712Y3618252D03*
X-21055712Y6158252D03*
X-18515712Y6158252D03*
X-21055712Y8698252D03*
D12*
X-18515712Y8698252D03*
D15*
X-43078712Y-4407748D03*
X-43078712Y-1007748D03*
X-34178712Y-4407748D03*
X-34178712Y-1007748D03*
X-25278712Y-4407748D03*
X-25278712Y-1007748D03*
X-16378712Y-4407748D03*
X-16378712Y-1007748D03*
X-41192712Y1532252D03*
X-41192712Y-1867748D03*
X-32292712Y1532252D03*
X-32292712Y-1867748D03*
X-23392712Y1532252D03*
X-23392712Y-1867748D03*
X-14492712Y1532252D03*
X-14492712Y-1867748D03*
X-41192712Y-8627748D03*
X-41192712Y-12027748D03*
X-32292712Y-8627748D03*
X-32292712Y-12027748D03*
X-23392712Y-8627748D03*
X-23392712Y-12027748D03*
X-14492712Y-8627748D03*
X-14492712Y-12027748D03*
X-43078712Y-14567748D03*
X-43078712Y-11167748D03*
X-34178712Y-14567748D03*
X-34178712Y-11167748D03*
X-25278712Y-14567748D03*
X-25278712Y-11167748D03*
X-16378712Y-14567748D03*
X-16378712Y-11167748D03*
X-41192712Y-6947748D03*
X-41192712Y-3547748D03*
X-32292712Y-6947748D03*
X-32292712Y-3547748D03*
X-23392712Y-6947748D03*
X-23392712Y-3547748D03*
X-14492712Y-6947748D03*
X-14492712Y-3547748D03*
X-43078712Y4072252D03*
X-43078712Y672252D03*
X-34178712Y4072252D03*
X-34178712Y672252D03*
X-25278712Y4072252D03*
X-25278712Y672252D03*
X-16378712Y4072252D03*
X-16378712Y672252D03*
X-43078712Y-6087748D03*
X-43078712Y-9487748D03*
X-34178712Y-6087748D03*
X-34178712Y-9487748D03*
X-25278712Y-6087748D03*
X-25278712Y-9487748D03*
X-16378712Y-6087748D03*
X-16378712Y-9487748D03*
X-41192712Y3212252D03*
X-41192712Y6612252D03*
X-32292712Y3212252D03*
X-32292712Y6612252D03*
X-23392712Y3212252D03*
X-23392712Y6612252D03*
X-14492712Y3212252D03*
X-14492712Y6612252D03*
X-43078712Y5752252D03*
X-43078712Y9152252D03*
X-34178712Y5752252D03*
X-34178712Y9152252D03*
X-25278712Y5752252D03*
X-25278712Y9152252D03*
X-16378712Y5752252D03*
X-16378712Y9152252D03*
D12*
X-9615712Y8698252D03*
D11*
X-12155712Y8698252D03*
X-9615712Y6158252D03*
X-12155712Y6158252D03*
X-9615712Y3618252D03*
X-12155712Y3618252D03*
X-9615712Y1078252D03*
X-12155712Y1078252D03*
X-9615712Y-1461748D03*
X-12155712Y-1461748D03*
X-9615712Y-4001748D03*
X-12155712Y-4001748D03*
X-9615712Y-6541748D03*
X-12155712Y-6541748D03*
X-9615712Y-9081748D03*
X-12155712Y-9081748D03*
X-9615712Y-11621748D03*
X-12155712Y-11621748D03*
X-9615712Y-14161748D03*
X-12155712Y-14161748D03*
D15*
X-7478712Y-1007748D03*
X-7478712Y-4407748D03*
X-7478712Y672252D03*
X-7478712Y4072252D03*
X-5592712Y-3547748D03*
X-5592712Y-6947748D03*
X-7478712Y-9487748D03*
X-7478712Y-6087748D03*
X-5592712Y-12027748D03*
X-5592712Y-8627748D03*
X-7478712Y-11167748D03*
X-7478712Y-14567748D03*
X-5592712Y6612252D03*
X-5592712Y3212252D03*
X-5592712Y-1867748D03*
X-5592712Y1532252D03*
X-7478712Y9152252D03*
X-7478712Y5752252D03*
M02*
