G04 #@! TF.GenerationSoftware,KiCad,Pcbnew,(2017-01-20 revision 550a1ea)-makepkg*
G04 #@! TF.CreationDate,2017-01-21T19:12:54+01:00*
G04 #@! TF.ProjectId,dekada,64656B6164612E6B696361645F706362,rev?*
G04 #@! TF.FileFunction,Legend,Top*
G04 #@! TF.FilePolarity,Positive*
%FSLAX46Y46*%
G04 Gerber Fmt 4.6, Leading zero omitted, Abs format (unit mm)*
G04 Created by KiCad (PCBNEW (2017-01-20 revision 550a1ea)-makepkg) date 01/21/17 19:12:54*
%MOMM*%
%LPD*%
G01*
G04 APERTURE LIST*
%ADD10C,0.050000*%
%ADD11C,0.150000*%
%ADD12O,2.000000X2.000000*%
%ADD13R,2.000000X2.000000*%
%ADD14O,2.032000X2.032000*%
%ADD15R,2.032000X2.032000*%
%ADD16R,1.600000X1.000000*%
G04 APERTURE END LIST*
D10*
D11*
X-29626072Y-17488095D02*
X-29378453Y-17488095D01*
X-29254643Y-17426190D01*
X-29192739Y-17364285D01*
X-29068929Y-17178571D01*
X-29007024Y-16930952D01*
X-29007024Y-16435714D01*
X-29068929Y-16311904D01*
X-29130834Y-16250000D01*
X-29254643Y-16188095D01*
X-29502262Y-16188095D01*
X-29626072Y-16250000D01*
X-29687977Y-16311904D01*
X-29749881Y-16435714D01*
X-29749881Y-16745238D01*
X-29687977Y-16869047D01*
X-29626072Y-16930952D01*
X-29502262Y-16992857D01*
X-29254643Y-16992857D01*
X-29130834Y-16930952D01*
X-29068929Y-16869047D01*
X-29007024Y-16745238D01*
X-28387977Y-17488095D02*
X-28140358Y-17488095D01*
X-28016548Y-17426190D01*
X-27954643Y-17364285D01*
X-27830834Y-17178571D01*
X-27768929Y-16930952D01*
X-27768929Y-16435714D01*
X-27830834Y-16311904D01*
X-27892739Y-16250000D01*
X-28016548Y-16188095D01*
X-28264167Y-16188095D01*
X-28387977Y-16250000D01*
X-28449881Y-16311904D01*
X-28511786Y-16435714D01*
X-28511786Y-16745238D01*
X-28449881Y-16869047D01*
X-28387977Y-16930952D01*
X-28264167Y-16992857D01*
X-28016548Y-16992857D01*
X-27892739Y-16930952D01*
X-27830834Y-16869047D01*
X-27768929Y-16745238D01*
X-27149881Y-17488095D02*
X-26902262Y-17488095D01*
X-26778453Y-17426190D01*
X-26716548Y-17364285D01*
X-26592739Y-17178571D01*
X-26530834Y-16930952D01*
X-26530834Y-16435714D01*
X-26592739Y-16311904D01*
X-26654643Y-16250000D01*
X-26778453Y-16188095D01*
X-27026072Y-16188095D01*
X-27149881Y-16250000D01*
X-27211786Y-16311904D01*
X-27273691Y-16435714D01*
X-27273691Y-16745238D01*
X-27211786Y-16869047D01*
X-27149881Y-16930952D01*
X-27026072Y-16992857D01*
X-26778453Y-16992857D01*
X-26654643Y-16930952D01*
X-26592739Y-16869047D01*
X-26530834Y-16745238D01*
X-25973691Y-17488095D02*
X-25973691Y-16188095D01*
X-25849881Y-16992857D02*
X-25478453Y-17488095D01*
X-25478453Y-16621428D02*
X-25973691Y-17116666D01*
X-24983215Y-17488095D02*
X-24673691Y-17488095D01*
X-24673691Y-17240476D01*
X-24797500Y-17178571D01*
X-24921310Y-17054761D01*
X-24983215Y-16869047D01*
X-24983215Y-16559523D01*
X-24921310Y-16373809D01*
X-24797500Y-16250000D01*
X-24611786Y-16188095D01*
X-24364167Y-16188095D01*
X-24178453Y-16250000D01*
X-24054643Y-16373809D01*
X-23992739Y-16559523D01*
X-23992739Y-16869047D01*
X-24054643Y-17054761D01*
X-24178453Y-17178571D01*
X-24302262Y-17240476D01*
X-24302262Y-17488095D01*
X-23992739Y-17488095D01*
X-23373691Y-17488095D02*
X-23126072Y-17488095D01*
X-23002262Y-17426190D01*
X-22940358Y-17364285D01*
X-22816548Y-17178571D01*
X-22754643Y-16930952D01*
X-22754643Y-16435714D01*
X-22816548Y-16311904D01*
X-22878453Y-16250000D01*
X-23002262Y-16188095D01*
X-23249881Y-16188095D01*
X-23373691Y-16250000D01*
X-23435596Y-16311904D01*
X-23497500Y-16435714D01*
X-23497500Y-16745238D01*
X-23435596Y-16869047D01*
X-23373691Y-16930952D01*
X-23249881Y-16992857D01*
X-23002262Y-16992857D01*
X-22878453Y-16930952D01*
X-22816548Y-16869047D01*
X-22754643Y-16745238D01*
X-22135596Y-17488095D02*
X-21887977Y-17488095D01*
X-21764167Y-17426190D01*
X-21702262Y-17364285D01*
X-21578453Y-17178571D01*
X-21516548Y-16930952D01*
X-21516548Y-16435714D01*
X-21578453Y-16311904D01*
X-21640358Y-16250000D01*
X-21764167Y-16188095D01*
X-22011786Y-16188095D01*
X-22135596Y-16250000D01*
X-22197500Y-16311904D01*
X-22259405Y-16435714D01*
X-22259405Y-16745238D01*
X-22197500Y-16869047D01*
X-22135596Y-16930952D01*
X-22011786Y-16992857D01*
X-21764167Y-16992857D01*
X-21640358Y-16930952D01*
X-21578453Y-16869047D01*
X-21516548Y-16745238D01*
X-19287977Y-17488095D02*
X-20030834Y-17488095D01*
X-19659405Y-17488095D02*
X-19659405Y-16188095D01*
X-19783215Y-16373809D01*
X-19907024Y-16497619D01*
X-20030834Y-16559523D01*
X-18792739Y-17488095D02*
X-17802262Y-16188095D01*
X-18607024Y-16188095D02*
X-18483215Y-16250000D01*
X-18421310Y-16373809D01*
X-18483215Y-16497619D01*
X-18607024Y-16559523D01*
X-18730834Y-16497619D01*
X-18792739Y-16373809D01*
X-18730834Y-16250000D01*
X-18607024Y-16188095D01*
X-17864167Y-17426190D02*
X-17802262Y-17302380D01*
X-17864167Y-17178571D01*
X-17987977Y-17116666D01*
X-18111786Y-17178571D01*
X-18173691Y-17302380D01*
X-18111786Y-17426190D01*
X-17987977Y-17488095D01*
X-17864167Y-17426190D01*
X-15573691Y-17488095D02*
X-16316548Y-17488095D01*
X-15945120Y-17488095D02*
X-15945120Y-16188095D01*
X-16068929Y-16373809D01*
X-16192739Y-16497619D01*
X-16316548Y-16559523D01*
X-15078453Y-16311904D02*
X-15016548Y-16250000D01*
X-14892739Y-16188095D01*
X-14583215Y-16188095D01*
X-14459405Y-16250000D01*
X-14397500Y-16311904D01*
X-14335596Y-16435714D01*
X-14335596Y-16559523D01*
X-14397500Y-16745238D01*
X-15140358Y-17488095D01*
X-14335596Y-17488095D01*
X-13530834Y-16188095D02*
X-13407024Y-16188095D01*
X-13283215Y-16250000D01*
X-13221310Y-16311904D01*
X-13159405Y-16435714D01*
X-13097500Y-16683333D01*
X-13097500Y-16992857D01*
X-13159405Y-17240476D01*
X-13221310Y-17364285D01*
X-13283215Y-17426190D01*
X-13407024Y-17488095D01*
X-13530834Y-17488095D01*
X-13654643Y-17426190D01*
X-13716548Y-17364285D01*
X-13778453Y-17240476D01*
X-13840358Y-16992857D01*
X-13840358Y-16683333D01*
X-13778453Y-16435714D01*
X-13716548Y-16311904D01*
X-13654643Y-16250000D01*
X-13530834Y-16188095D01*
X-11983215Y-16188095D02*
X-12230834Y-16188095D01*
X-12354643Y-16250000D01*
X-12416548Y-16311904D01*
X-12540358Y-16497619D01*
X-12602262Y-16745238D01*
X-12602262Y-17240476D01*
X-12540358Y-17364285D01*
X-12478453Y-17426190D01*
X-12354643Y-17488095D01*
X-12107024Y-17488095D01*
X-11983215Y-17426190D01*
X-11921310Y-17364285D01*
X-11859405Y-17240476D01*
X-11859405Y-16930952D01*
X-11921310Y-16807142D01*
X-11983215Y-16745238D01*
X-12107024Y-16683333D01*
X-12354643Y-16683333D01*
X-12478453Y-16745238D01*
X-12540358Y-16807142D01*
X-12602262Y-16930952D01*
X-9630834Y-17488095D02*
X-10373691Y-17488095D01*
X-10002262Y-17488095D02*
X-10002262Y-16188095D01*
X-10126072Y-16373809D01*
X-10249881Y-16497619D01*
X-10373691Y-16559523D01*
X-8145120Y-16126190D02*
X-9259405Y-17797619D01*
X-7154643Y-16621428D02*
X-7154643Y-17488095D01*
X-7464167Y-16126190D02*
X-7773691Y-17054761D01*
X-6968929Y-17054761D01*
X-6597500Y-16188095D02*
X-6287977Y-17488095D01*
X-6040358Y-16559523D01*
X-5792739Y-17488095D01*
X-5483215Y-16188095D01*
X-45752502Y10651535D02*
X-46438217Y10651535D01*
X-46095360Y10651535D02*
X-46095360Y11851535D01*
X-46209645Y11680107D01*
X-46323931Y11565821D01*
X-46438217Y11508678D01*
X-45009645Y11851535D02*
X-44895360Y11851535D01*
X-44781074Y11794392D01*
X-44723931Y11737250D01*
X-44666788Y11622964D01*
X-44609645Y11394392D01*
X-44609645Y11108678D01*
X-44666788Y10880107D01*
X-44723931Y10765821D01*
X-44781074Y10708678D01*
X-44895360Y10651535D01*
X-45009645Y10651535D01*
X-45123931Y10708678D01*
X-45181074Y10765821D01*
X-45238217Y10880107D01*
X-45295360Y11108678D01*
X-45295360Y11394392D01*
X-45238217Y11622964D01*
X-45181074Y11737250D01*
X-45123931Y11794392D01*
X-45009645Y11851535D01*
X-43409645Y10651535D02*
X-43809645Y11222964D01*
X-44095360Y10651535D02*
X-44095360Y11851535D01*
X-43638217Y11851535D01*
X-43523931Y11794392D01*
X-43466788Y11737250D01*
X-43409645Y11622964D01*
X-43409645Y11451535D01*
X-43466788Y11337250D01*
X-43523931Y11280107D01*
X-43638217Y11222964D01*
X-44095360Y11222964D01*
X-42666788Y11851535D02*
X-42552502Y11851535D01*
X-42438217Y11794392D01*
X-42381074Y11737250D01*
X-42323931Y11622964D01*
X-42266788Y11394392D01*
X-42266788Y11108678D01*
X-42323931Y10880107D01*
X-42381074Y10765821D01*
X-42438217Y10708678D01*
X-42552502Y10651535D01*
X-42666788Y10651535D01*
X-42781074Y10708678D01*
X-42838217Y10765821D01*
X-42895360Y10880107D01*
X-42952502Y11108678D01*
X-42952502Y11394392D01*
X-42895360Y11622964D01*
X-42838217Y11737250D01*
X-42781074Y11794392D01*
X-42666788Y11851535D01*
X-36823931Y10651535D02*
X-37509645Y10651535D01*
X-37166788Y10651535D02*
X-37166788Y11851535D01*
X-37281074Y11680107D01*
X-37395360Y11565821D01*
X-37509645Y11508678D01*
X-36081074Y11851535D02*
X-35966788Y11851535D01*
X-35852502Y11794392D01*
X-35795360Y11737250D01*
X-35738217Y11622964D01*
X-35681074Y11394392D01*
X-35681074Y11108678D01*
X-35738217Y10880107D01*
X-35795360Y10765821D01*
X-35852502Y10708678D01*
X-35966788Y10651535D01*
X-36081074Y10651535D01*
X-36195360Y10708678D01*
X-36252502Y10765821D01*
X-36309645Y10880107D01*
X-36366788Y11108678D01*
X-36366788Y11394392D01*
X-36309645Y11622964D01*
X-36252502Y11737250D01*
X-36195360Y11794392D01*
X-36081074Y11851535D01*
X-34938217Y11851535D02*
X-34823931Y11851535D01*
X-34709645Y11794392D01*
X-34652502Y11737250D01*
X-34595360Y11622964D01*
X-34538217Y11394392D01*
X-34538217Y11108678D01*
X-34595360Y10880107D01*
X-34652502Y10765821D01*
X-34709645Y10708678D01*
X-34823931Y10651535D01*
X-34938217Y10651535D01*
X-35052502Y10708678D01*
X-35109645Y10765821D01*
X-35166788Y10880107D01*
X-35223931Y11108678D01*
X-35223931Y11394392D01*
X-35166788Y11622964D01*
X-35109645Y11737250D01*
X-35052502Y11794392D01*
X-34938217Y11851535D01*
X-33795360Y11851535D02*
X-33681074Y11851535D01*
X-33566788Y11794392D01*
X-33509645Y11737250D01*
X-33452502Y11622964D01*
X-33395360Y11394392D01*
X-33395360Y11108678D01*
X-33452502Y10880107D01*
X-33509645Y10765821D01*
X-33566788Y10708678D01*
X-33681074Y10651535D01*
X-33795360Y10651535D01*
X-33909645Y10708678D01*
X-33966788Y10765821D01*
X-34023931Y10880107D01*
X-34081074Y11108678D01*
X-34081074Y11394392D01*
X-34023931Y11622964D01*
X-33966788Y11737250D01*
X-33909645Y11794392D01*
X-33795360Y11851535D01*
X-27923931Y10651535D02*
X-28609645Y10651535D01*
X-28266788Y10651535D02*
X-28266788Y11851535D01*
X-28381074Y11680107D01*
X-28495360Y11565821D01*
X-28609645Y11508678D01*
X-27181074Y11851535D02*
X-27066788Y11851535D01*
X-26952502Y11794392D01*
X-26895360Y11737250D01*
X-26838217Y11622964D01*
X-26781074Y11394392D01*
X-26781074Y11108678D01*
X-26838217Y10880107D01*
X-26895360Y10765821D01*
X-26952502Y10708678D01*
X-27066788Y10651535D01*
X-27181074Y10651535D01*
X-27295360Y10708678D01*
X-27352502Y10765821D01*
X-27409645Y10880107D01*
X-27466788Y11108678D01*
X-27466788Y11394392D01*
X-27409645Y11622964D01*
X-27352502Y11737250D01*
X-27295360Y11794392D01*
X-27181074Y11851535D01*
X-26038217Y11851535D02*
X-25923931Y11851535D01*
X-25809645Y11794392D01*
X-25752502Y11737250D01*
X-25695360Y11622964D01*
X-25638217Y11394392D01*
X-25638217Y11108678D01*
X-25695360Y10880107D01*
X-25752502Y10765821D01*
X-25809645Y10708678D01*
X-25923931Y10651535D01*
X-26038217Y10651535D01*
X-26152502Y10708678D01*
X-26209645Y10765821D01*
X-26266788Y10880107D01*
X-26323931Y11108678D01*
X-26323931Y11394392D01*
X-26266788Y11622964D01*
X-26209645Y11737250D01*
X-26152502Y11794392D01*
X-26038217Y11851535D01*
X-24495360Y10651535D02*
X-25181074Y10651535D01*
X-24838217Y10651535D02*
X-24838217Y11851535D01*
X-24952502Y11680107D01*
X-25066788Y11565821D01*
X-25181074Y11508678D01*
X-19023931Y10651535D02*
X-19709645Y10651535D01*
X-19366788Y10651535D02*
X-19366788Y11851535D01*
X-19481074Y11680107D01*
X-19595360Y11565821D01*
X-19709645Y11508678D01*
X-18281074Y11851535D02*
X-18166788Y11851535D01*
X-18052502Y11794392D01*
X-17995360Y11737250D01*
X-17938217Y11622964D01*
X-17881074Y11394392D01*
X-17881074Y11108678D01*
X-17938217Y10880107D01*
X-17995360Y10765821D01*
X-18052502Y10708678D01*
X-18166788Y10651535D01*
X-18281074Y10651535D01*
X-18395360Y10708678D01*
X-18452502Y10765821D01*
X-18509645Y10880107D01*
X-18566788Y11108678D01*
X-18566788Y11394392D01*
X-18509645Y11622964D01*
X-18452502Y11737250D01*
X-18395360Y11794392D01*
X-18281074Y11851535D01*
X-17138217Y11851535D02*
X-17023931Y11851535D01*
X-16909645Y11794392D01*
X-16852502Y11737250D01*
X-16795360Y11622964D01*
X-16738217Y11394392D01*
X-16738217Y11108678D01*
X-16795360Y10880107D01*
X-16852502Y10765821D01*
X-16909645Y10708678D01*
X-17023931Y10651535D01*
X-17138217Y10651535D01*
X-17252502Y10708678D01*
X-17309645Y10765821D01*
X-17366788Y10880107D01*
X-17423931Y11108678D01*
X-17423931Y11394392D01*
X-17366788Y11622964D01*
X-17309645Y11737250D01*
X-17252502Y11794392D01*
X-17138217Y11851535D01*
X-16281074Y11737250D02*
X-16223931Y11794392D01*
X-16109645Y11851535D01*
X-15823931Y11851535D01*
X-15709645Y11794392D01*
X-15652502Y11737250D01*
X-15595360Y11622964D01*
X-15595360Y11508678D01*
X-15652502Y11337250D01*
X-16338217Y10651535D01*
X-15595360Y10651535D01*
X-10123931Y10651535D02*
X-10809645Y10651535D01*
X-10466788Y10651535D02*
X-10466788Y11851535D01*
X-10581074Y11680107D01*
X-10695360Y11565821D01*
X-10809645Y11508678D01*
X-9381074Y11851535D02*
X-9266788Y11851535D01*
X-9152502Y11794392D01*
X-9095360Y11737250D01*
X-9038217Y11622964D01*
X-8981074Y11394392D01*
X-8981074Y11108678D01*
X-9038217Y10880107D01*
X-9095360Y10765821D01*
X-9152502Y10708678D01*
X-9266788Y10651535D01*
X-9381074Y10651535D01*
X-9495360Y10708678D01*
X-9552502Y10765821D01*
X-9609645Y10880107D01*
X-9666788Y11108678D01*
X-9666788Y11394392D01*
X-9609645Y11622964D01*
X-9552502Y11737250D01*
X-9495360Y11794392D01*
X-9381074Y11851535D01*
X-8238217Y11851535D02*
X-8123931Y11851535D01*
X-8009645Y11794392D01*
X-7952502Y11737250D01*
X-7895360Y11622964D01*
X-7838217Y11394392D01*
X-7838217Y11108678D01*
X-7895360Y10880107D01*
X-7952502Y10765821D01*
X-8009645Y10708678D01*
X-8123931Y10651535D01*
X-8238217Y10651535D01*
X-8352502Y10708678D01*
X-8409645Y10765821D01*
X-8466788Y10880107D01*
X-8523931Y11108678D01*
X-8523931Y11394392D01*
X-8466788Y11622964D01*
X-8409645Y11737250D01*
X-8352502Y11794392D01*
X-8238217Y11851535D01*
X-7438217Y11851535D02*
X-6695360Y11851535D01*
X-7095360Y11394392D01*
X-6923931Y11394392D01*
X-6809645Y11337250D01*
X-6752502Y11280107D01*
X-6695360Y11165821D01*
X-6695360Y10880107D01*
X-6752502Y10765821D01*
X-6809645Y10708678D01*
X-6923931Y10651535D01*
X-7266788Y10651535D01*
X-7381074Y10708678D01*
X-7438217Y10765821D01*
X-42178712Y-3607748D02*
X-42178712Y-1807748D01*
X-43978712Y-3607748D02*
X-43978712Y-1807748D01*
X-33278712Y-3607748D02*
X-33278712Y-1807748D01*
X-35078712Y-3607748D02*
X-35078712Y-1807748D01*
X-24378712Y-3607748D02*
X-24378712Y-1807748D01*
X-26178712Y-3607748D02*
X-26178712Y-1807748D01*
X-15478712Y-3607748D02*
X-15478712Y-1807748D01*
X-17278712Y-3607748D02*
X-17278712Y-1807748D01*
X-42092712Y-1067748D02*
X-42092712Y732252D01*
X-40292712Y-1067748D02*
X-40292712Y732252D01*
X-33192712Y-1067748D02*
X-33192712Y732252D01*
X-31392712Y-1067748D02*
X-31392712Y732252D01*
X-24292712Y-1067748D02*
X-24292712Y732252D01*
X-22492712Y-1067748D02*
X-22492712Y732252D01*
X-15392712Y-1067748D02*
X-15392712Y732252D01*
X-13592712Y-1067748D02*
X-13592712Y732252D01*
X-42092712Y-11227748D02*
X-42092712Y-9427748D01*
X-40292712Y-11227748D02*
X-40292712Y-9427748D01*
X-33192712Y-11227748D02*
X-33192712Y-9427748D01*
X-31392712Y-11227748D02*
X-31392712Y-9427748D01*
X-24292712Y-11227748D02*
X-24292712Y-9427748D01*
X-22492712Y-11227748D02*
X-22492712Y-9427748D01*
X-15392712Y-11227748D02*
X-15392712Y-9427748D01*
X-13592712Y-11227748D02*
X-13592712Y-9427748D01*
X-42178712Y-13767748D02*
X-42178712Y-11967748D01*
X-43978712Y-13767748D02*
X-43978712Y-11967748D01*
X-33278712Y-13767748D02*
X-33278712Y-11967748D01*
X-35078712Y-13767748D02*
X-35078712Y-11967748D01*
X-24378712Y-13767748D02*
X-24378712Y-11967748D01*
X-26178712Y-13767748D02*
X-26178712Y-11967748D01*
X-15478712Y-13767748D02*
X-15478712Y-11967748D01*
X-17278712Y-13767748D02*
X-17278712Y-11967748D01*
X-40292712Y-6147748D02*
X-40292712Y-4347748D01*
X-42092712Y-6147748D02*
X-42092712Y-4347748D01*
X-31392712Y-6147748D02*
X-31392712Y-4347748D01*
X-33192712Y-6147748D02*
X-33192712Y-4347748D01*
X-22492712Y-6147748D02*
X-22492712Y-4347748D01*
X-24292712Y-6147748D02*
X-24292712Y-4347748D01*
X-13592712Y-6147748D02*
X-13592712Y-4347748D01*
X-15392712Y-6147748D02*
X-15392712Y-4347748D01*
X-43978712Y1472252D02*
X-43978712Y3272252D01*
X-42178712Y1472252D02*
X-42178712Y3272252D01*
X-35078712Y1472252D02*
X-35078712Y3272252D01*
X-33278712Y1472252D02*
X-33278712Y3272252D01*
X-26178712Y1472252D02*
X-26178712Y3272252D01*
X-24378712Y1472252D02*
X-24378712Y3272252D01*
X-17278712Y1472252D02*
X-17278712Y3272252D01*
X-15478712Y1472252D02*
X-15478712Y3272252D01*
X-43978712Y-8687748D02*
X-43978712Y-6887748D01*
X-42178712Y-8687748D02*
X-42178712Y-6887748D01*
X-35078712Y-8687748D02*
X-35078712Y-6887748D01*
X-33278712Y-8687748D02*
X-33278712Y-6887748D01*
X-26178712Y-8687748D02*
X-26178712Y-6887748D01*
X-24378712Y-8687748D02*
X-24378712Y-6887748D01*
X-17278712Y-8687748D02*
X-17278712Y-6887748D01*
X-15478712Y-8687748D02*
X-15478712Y-6887748D01*
X-40292712Y4012252D02*
X-40292712Y5812252D01*
X-42092712Y4012252D02*
X-42092712Y5812252D01*
X-31392712Y4012252D02*
X-31392712Y5812252D01*
X-33192712Y4012252D02*
X-33192712Y5812252D01*
X-22492712Y4012252D02*
X-22492712Y5812252D01*
X-24292712Y4012252D02*
X-24292712Y5812252D01*
X-13592712Y4012252D02*
X-13592712Y5812252D01*
X-15392712Y4012252D02*
X-15392712Y5812252D01*
X-42178712Y6552252D02*
X-42178712Y8352252D01*
X-43978712Y6552252D02*
X-43978712Y8352252D01*
X-33278712Y6552252D02*
X-33278712Y8352252D01*
X-35078712Y6552252D02*
X-35078712Y8352252D01*
X-24378712Y6552252D02*
X-24378712Y8352252D01*
X-26178712Y6552252D02*
X-26178712Y8352252D01*
X-15478712Y6552252D02*
X-15478712Y8352252D01*
X-17278712Y6552252D02*
X-17278712Y8352252D01*
X-8378712Y-3607748D02*
X-8378712Y-1807748D01*
X-6578712Y-3607748D02*
X-6578712Y-1807748D01*
X-6578712Y1472252D02*
X-6578712Y3272252D01*
X-8378712Y1472252D02*
X-8378712Y3272252D01*
X-6492712Y-6147748D02*
X-6492712Y-4347748D01*
X-4692712Y-6147748D02*
X-4692712Y-4347748D01*
X-6578712Y-8687748D02*
X-6578712Y-6887748D01*
X-8378712Y-8687748D02*
X-8378712Y-6887748D01*
X-4692712Y-11227748D02*
X-4692712Y-9427748D01*
X-6492712Y-11227748D02*
X-6492712Y-9427748D01*
X-8378712Y-13767748D02*
X-8378712Y-11967748D01*
X-6578712Y-13767748D02*
X-6578712Y-11967748D01*
X-6492712Y4012252D02*
X-6492712Y5812252D01*
X-4692712Y4012252D02*
X-4692712Y5812252D01*
X-4692712Y-1067748D02*
X-4692712Y732252D01*
X-6492712Y-1067748D02*
X-6492712Y732252D01*
X-8378712Y6552252D02*
X-8378712Y8352252D01*
X-6578712Y6552252D02*
X-6578712Y8352252D01*
%LPC*%
D12*
X-47755712Y-14161748D03*
X-45215712Y-14161748D03*
X-47755712Y-11621748D03*
X-45215712Y-11621748D03*
X-47755712Y-9081748D03*
X-45215712Y-9081748D03*
X-47755712Y-6541748D03*
X-45215712Y-6541748D03*
X-47755712Y-4001748D03*
X-45215712Y-4001748D03*
X-47755712Y-1461748D03*
X-45215712Y-1461748D03*
X-47755712Y1078252D03*
X-45215712Y1078252D03*
X-47755712Y3618252D03*
X-45215712Y3618252D03*
X-47755712Y6158252D03*
X-45215712Y6158252D03*
X-47755712Y8698252D03*
D13*
X-45215712Y8698252D03*
D14*
X-1000000Y-1379073D03*
D15*
X-1000000Y-3919073D03*
X-3484656Y-3909071D03*
D14*
X-3484656Y-1369071D03*
D12*
X-38855712Y-14161748D03*
X-36315712Y-14161748D03*
X-38855712Y-11621748D03*
X-36315712Y-11621748D03*
X-38855712Y-9081748D03*
X-36315712Y-9081748D03*
X-38855712Y-6541748D03*
X-36315712Y-6541748D03*
X-38855712Y-4001748D03*
X-36315712Y-4001748D03*
X-38855712Y-1461748D03*
X-36315712Y-1461748D03*
X-38855712Y1078252D03*
X-36315712Y1078252D03*
X-38855712Y3618252D03*
X-36315712Y3618252D03*
X-38855712Y6158252D03*
X-36315712Y6158252D03*
X-38855712Y8698252D03*
D13*
X-36315712Y8698252D03*
D12*
X-29955712Y-14161748D03*
X-27415712Y-14161748D03*
X-29955712Y-11621748D03*
X-27415712Y-11621748D03*
X-29955712Y-9081748D03*
X-27415712Y-9081748D03*
X-29955712Y-6541748D03*
X-27415712Y-6541748D03*
X-29955712Y-4001748D03*
X-27415712Y-4001748D03*
X-29955712Y-1461748D03*
X-27415712Y-1461748D03*
X-29955712Y1078252D03*
X-27415712Y1078252D03*
X-29955712Y3618252D03*
X-27415712Y3618252D03*
X-29955712Y6158252D03*
X-27415712Y6158252D03*
X-29955712Y8698252D03*
D13*
X-27415712Y8698252D03*
D12*
X-21055712Y-14161748D03*
X-18515712Y-14161748D03*
X-21055712Y-11621748D03*
X-18515712Y-11621748D03*
X-21055712Y-9081748D03*
X-18515712Y-9081748D03*
X-21055712Y-6541748D03*
X-18515712Y-6541748D03*
X-21055712Y-4001748D03*
X-18515712Y-4001748D03*
X-21055712Y-1461748D03*
X-18515712Y-1461748D03*
X-21055712Y1078252D03*
X-18515712Y1078252D03*
X-21055712Y3618252D03*
X-18515712Y3618252D03*
X-21055712Y6158252D03*
X-18515712Y6158252D03*
X-21055712Y8698252D03*
D13*
X-18515712Y8698252D03*
D16*
X-43078712Y-4407748D03*
X-43078712Y-1007748D03*
X-34178712Y-4407748D03*
X-34178712Y-1007748D03*
X-25278712Y-4407748D03*
X-25278712Y-1007748D03*
X-16378712Y-4407748D03*
X-16378712Y-1007748D03*
X-41192712Y1532252D03*
X-41192712Y-1867748D03*
X-32292712Y1532252D03*
X-32292712Y-1867748D03*
X-23392712Y1532252D03*
X-23392712Y-1867748D03*
X-14492712Y1532252D03*
X-14492712Y-1867748D03*
X-41192712Y-8627748D03*
X-41192712Y-12027748D03*
X-32292712Y-8627748D03*
X-32292712Y-12027748D03*
X-23392712Y-8627748D03*
X-23392712Y-12027748D03*
X-14492712Y-8627748D03*
X-14492712Y-12027748D03*
X-43078712Y-14567748D03*
X-43078712Y-11167748D03*
X-34178712Y-14567748D03*
X-34178712Y-11167748D03*
X-25278712Y-14567748D03*
X-25278712Y-11167748D03*
X-16378712Y-14567748D03*
X-16378712Y-11167748D03*
X-41192712Y-6947748D03*
X-41192712Y-3547748D03*
X-32292712Y-6947748D03*
X-32292712Y-3547748D03*
X-23392712Y-6947748D03*
X-23392712Y-3547748D03*
X-14492712Y-6947748D03*
X-14492712Y-3547748D03*
X-43078712Y4072252D03*
X-43078712Y672252D03*
X-34178712Y4072252D03*
X-34178712Y672252D03*
X-25278712Y4072252D03*
X-25278712Y672252D03*
X-16378712Y4072252D03*
X-16378712Y672252D03*
X-43078712Y-6087748D03*
X-43078712Y-9487748D03*
X-34178712Y-6087748D03*
X-34178712Y-9487748D03*
X-25278712Y-6087748D03*
X-25278712Y-9487748D03*
X-16378712Y-6087748D03*
X-16378712Y-9487748D03*
X-41192712Y3212252D03*
X-41192712Y6612252D03*
X-32292712Y3212252D03*
X-32292712Y6612252D03*
X-23392712Y3212252D03*
X-23392712Y6612252D03*
X-14492712Y3212252D03*
X-14492712Y6612252D03*
X-43078712Y5752252D03*
X-43078712Y9152252D03*
X-34178712Y5752252D03*
X-34178712Y9152252D03*
X-25278712Y5752252D03*
X-25278712Y9152252D03*
X-16378712Y5752252D03*
X-16378712Y9152252D03*
D13*
X-9615712Y8698252D03*
D12*
X-12155712Y8698252D03*
X-9615712Y6158252D03*
X-12155712Y6158252D03*
X-9615712Y3618252D03*
X-12155712Y3618252D03*
X-9615712Y1078252D03*
X-12155712Y1078252D03*
X-9615712Y-1461748D03*
X-12155712Y-1461748D03*
X-9615712Y-4001748D03*
X-12155712Y-4001748D03*
X-9615712Y-6541748D03*
X-12155712Y-6541748D03*
X-9615712Y-9081748D03*
X-12155712Y-9081748D03*
X-9615712Y-11621748D03*
X-12155712Y-11621748D03*
X-9615712Y-14161748D03*
X-12155712Y-14161748D03*
D16*
X-7478712Y-1007748D03*
X-7478712Y-4407748D03*
X-7478712Y672252D03*
X-7478712Y4072252D03*
X-5592712Y-3547748D03*
X-5592712Y-6947748D03*
X-7478712Y-9487748D03*
X-7478712Y-6087748D03*
X-5592712Y-12027748D03*
X-5592712Y-8627748D03*
X-7478712Y-11167748D03*
X-7478712Y-14567748D03*
X-5592712Y6612252D03*
X-5592712Y3212252D03*
X-5592712Y-1867748D03*
X-5592712Y1532252D03*
X-7478712Y9152252D03*
X-7478712Y5752252D03*
M02*
